G04 #@! TF.GenerationSoftware,KiCad,Pcbnew,5.1.5-52549c5~84~ubuntu19.10.1*
G04 #@! TF.CreationDate,2020-09-03T13:33:18+03:00*
G04 #@! TF.ProjectId,hymTR_dual,68796d54-525f-4647-9561-6c2e6b696361,rev?*
G04 #@! TF.SameCoordinates,Original*
G04 #@! TF.FileFunction,Profile,NP*
%FSLAX46Y46*%
G04 Gerber Fmt 4.6, Leading zero omitted, Abs format (unit mm)*
G04 Created by KiCad (PCBNEW 5.1.5-52549c5~84~ubuntu19.10.1) date 2020-09-03 13:33:18*
%MOMM*%
%LPD*%
G04 APERTURE LIST*
%ADD10C,0.050000*%
%ADD11C,0.001000*%
%ADD12C,0.150000*%
G04 APERTURE END LIST*
D10*
X104230000Y-86920000D02*
X106140000Y-86940000D01*
X94400000Y-107460000D02*
X96310000Y-107480000D01*
X147190000Y-55800000D02*
G75*
G03X147190000Y-55800000I-1270000J0D01*
G01*
X55780000Y-112020000D02*
G75*
G03X55780000Y-112020000I-1270000J0D01*
G01*
X97555941Y-57281600D02*
X97580000Y-54140000D01*
X97500000Y-77150000D02*
X97494864Y-60379910D01*
X102984059Y-137118400D02*
X102960000Y-140260000D01*
X103040000Y-117250000D02*
X103045136Y-134020090D01*
X108330000Y-86920000D02*
G75*
G02X108330000Y-84920000I0J1000000D01*
G01*
X147410000Y-89460000D02*
G75*
G03X147410000Y-89460000I-1270000J0D01*
G01*
X104230000Y-141530000D02*
X147410000Y-141530000D01*
X121214000Y-84920000D02*
X108330000Y-84920000D01*
X97494864Y-60379910D02*
G75*
G02X100548600Y-60352000I1526737J28309D01*
G01*
X100551800Y-57151600D02*
G75*
G02X97555941Y-57281600I-1501057J7076D01*
G01*
X100560794Y-76963590D02*
X100548600Y-60352000D01*
X100551800Y-57151600D02*
X100570000Y-53000000D01*
D11*
X122156770Y-67133393D02*
G75*
G02X122001448Y-67287568I-801126J651765D01*
G01*
X123710000Y-69904787D02*
X123647421Y-70587393D01*
X123701348Y-67583015D02*
X123691438Y-67966354D01*
X122857224Y-71870000D02*
X122678926Y-71608777D01*
X120757784Y-68878907D02*
G75*
G02X120735772Y-68950865I-120599J-2455D01*
G01*
X123599576Y-71288747D02*
X123581696Y-71681061D01*
X123622526Y-70902511D02*
X123599576Y-71288747D01*
X123770131Y-65305497D02*
X123771086Y-65680677D01*
X119741932Y-67243388D02*
X119513269Y-66873042D01*
X121494852Y-70505078D02*
G75*
G02X121779108Y-70468319I266090J-940222D01*
G01*
D10*
X106770000Y-89460000D02*
G75*
G03X106770000Y-89460000I-1270000J0D01*
G01*
X100560794Y-76963590D02*
G75*
G02X97500000Y-77150000I-1535992J-1334D01*
G01*
X97494662Y-80150041D02*
G75*
G02X100548600Y-80164000I1526939J-13560D01*
G01*
X133660000Y-84920000D02*
G75*
G02X133660000Y-86920000I0J-1000000D01*
G01*
X136385000Y-86920000D02*
G75*
G02X136385000Y-84920000I0J1000000D01*
G01*
X121214000Y-84920000D02*
G75*
G02X121214000Y-86920000I0J-1000000D01*
G01*
X123939000Y-86920000D02*
G75*
G02X123939000Y-84920000I0J1000000D01*
G01*
X106140000Y-84940000D02*
X100550000Y-84940000D01*
X100550000Y-84940000D02*
X100548600Y-80164000D01*
X100570000Y-53000000D02*
X148660000Y-52920000D01*
X148660000Y-52920000D02*
X148660000Y-84920000D01*
X148660000Y-84920000D02*
X136385000Y-84920000D01*
X133660000Y-84920000D02*
X123939000Y-84920000D01*
D12*
X126360000Y-73720000D02*
G75*
G03X126360000Y-64320000I4300000J4700000D01*
G01*
D11*
X120540382Y-68478866D02*
X120302540Y-68099428D01*
X124517211Y-69638104D02*
X124260000Y-69720642D01*
X119401312Y-66472180D02*
X120412772Y-66809728D01*
X120020804Y-67670000D02*
X119741932Y-67243388D01*
X119395001Y-70697086D02*
X119653373Y-70360660D01*
X123741168Y-66633087D02*
X123716720Y-67145894D01*
X124839375Y-69541479D02*
X124517211Y-69638104D01*
X126039812Y-68867717D02*
G75*
G02X126235862Y-68982325I-215866J-594251D01*
G01*
X124189057Y-68191029D02*
X124835992Y-68429551D01*
X120266421Y-69589544D02*
X120524349Y-69246165D01*
D10*
X121214000Y-86920000D02*
X108330000Y-86920000D01*
X133660000Y-86920000D02*
X123939000Y-86920000D01*
X140800000Y-132390000D02*
G75*
G03X140800000Y-132390000I-1270000J0D01*
G01*
X111100000Y-132390000D02*
G75*
G03X111100000Y-132390000I-1270000J0D01*
G01*
D11*
X123771086Y-65680677D02*
X123763181Y-66119700D01*
X122956211Y-66104498D02*
X123353770Y-65621622D01*
X122678926Y-71608777D02*
X122486064Y-71319747D01*
X123749204Y-68026369D02*
G75*
G02X123703719Y-67997052I45075J119877D01*
G01*
X123703719Y-67997051D02*
G75*
G02X123691438Y-67966354I29680J29679D01*
G01*
X119215565Y-71103146D02*
G75*
G02X119160000Y-71042301I5531J60845D01*
G01*
X121494852Y-70505078D02*
X120448848Y-70807232D01*
X119384936Y-71095540D02*
G75*
G02X119215565Y-71103146I-112572J617211D01*
G01*
X123744909Y-65260672D02*
G75*
G02X123770131Y-65305497I-27960J-45241D01*
G01*
X122307302Y-71046508D02*
X122176205Y-70839352D01*
X124835992Y-68429551D02*
X126039812Y-68867717D01*
X123663149Y-65272161D02*
G75*
G02X123744909Y-65260673I47795J-43468D01*
G01*
X119717220Y-71018457D02*
G75*
G02X119384935Y-71095540I-976139J3453097D01*
G01*
X123763181Y-66119700D02*
X123741168Y-66633087D01*
X120302540Y-68099428D02*
X120020804Y-67670000D01*
X123469428Y-72640917D02*
G75*
G02X123338447Y-72555685I42796J209026D01*
G01*
X122001448Y-67287568D02*
G75*
G02X121881867Y-67341424I-164215J204935D01*
G01*
X121961540Y-70551976D02*
G75*
G02X122176205Y-70839352I-1522918J-1361460D01*
G01*
X119325080Y-66553063D02*
G75*
G02X119324822Y-66501634I44676J25939D01*
G01*
X121881867Y-67341423D02*
G75*
G02X121764604Y-67322463I-31053J180045D01*
G01*
X120524349Y-69246165D02*
X120735772Y-68950865D01*
X123647421Y-70587393D02*
X123622526Y-70902511D01*
X126235863Y-68982325D02*
G75*
G02X126236063Y-69093326I-47738J-55587D01*
G01*
X125171095Y-69446707D02*
X124839375Y-69541479D01*
X120736622Y-68804848D02*
X120540382Y-68478866D01*
X126020937Y-69212004D02*
X125460000Y-69369309D01*
X119653373Y-70360660D02*
X119960000Y-69976209D01*
X123749204Y-68026369D02*
X124189057Y-68191029D01*
X123338447Y-72555685D02*
X122857224Y-71870000D01*
X120412772Y-66809728D02*
X121329708Y-67129024D01*
X123353770Y-65621622D02*
X123663149Y-65272161D01*
X122486064Y-71319747D02*
X122307302Y-71046508D01*
X122422516Y-66795276D02*
X122956211Y-66104498D01*
X123716720Y-67145894D02*
X123701348Y-67583015D01*
X125460000Y-69369309D02*
X125171095Y-69446707D01*
X120736622Y-68804849D02*
G75*
G02X120757784Y-68878908I-129758J-77130D01*
G01*
X124260000Y-69720642D02*
X123710000Y-69904787D01*
X119513269Y-66873042D02*
X119325080Y-66553064D01*
X119960000Y-69976209D02*
X120266421Y-69589544D01*
X121329708Y-67129024D02*
G75*
G02X121764604Y-67322463I-1107315J-3075091D01*
G01*
X119324822Y-66501635D02*
G75*
G02X119401312Y-66472180I56190J-31874D01*
G01*
X123581696Y-71681061D02*
X123572421Y-72016428D01*
X126236062Y-69093326D02*
G75*
G02X126020937Y-69212004I-387246J447637D01*
G01*
X121779108Y-70468318D02*
G75*
G02X121961540Y-70551976I-4666J-250920D01*
G01*
X119177400Y-70989436D02*
X119395001Y-70697086D01*
X119160000Y-71042301D02*
G75*
G02X119177400Y-70989436I89008J0D01*
G01*
X123572421Y-72016428D02*
X123551602Y-72577711D01*
X120448848Y-70807232D02*
X119717220Y-71018456D01*
X123551603Y-72577711D02*
G75*
G02X123469428Y-72640918I-68427J3940D01*
G01*
X122156770Y-67133394D02*
X122422516Y-66795276D01*
D10*
X106140000Y-84940000D02*
G75*
G02X106140000Y-86940000I0J-1000000D01*
G01*
X148680000Y-140260000D02*
X148680000Y-88190000D01*
X147410000Y-86920000D02*
X136385000Y-86920000D01*
X102960000Y-88190000D02*
X103045338Y-114249959D01*
X104230000Y-141530000D02*
G75*
G02X102960000Y-140260000I0J1270000D01*
G01*
X148680000Y-140260000D02*
G75*
G02X147410000Y-141530000I-1270000J0D01*
G01*
X140780000Y-112340000D02*
G75*
G03X140780000Y-112340000I-1270000J0D01*
G01*
X111100000Y-112290000D02*
G75*
G03X111100000Y-112290000I-1270000J0D01*
G01*
X147410000Y-86920000D02*
G75*
G02X148680000Y-88190000I0J-1270000D01*
G01*
X102960000Y-88190000D02*
G75*
G02X104230000Y-86920000I1270000J0D01*
G01*
X106770000Y-138990000D02*
G75*
G03X106770000Y-138990000I-1270000J0D01*
G01*
X147410000Y-138990000D02*
G75*
G03X147410000Y-138990000I-1270000J0D01*
G01*
D12*
X126360000Y-73720000D02*
G75*
G03X126360000Y-64320000I6500000J4700000D01*
G01*
D10*
X103045338Y-114249959D02*
G75*
G02X99991400Y-114236000I-1526939J13560D01*
G01*
X99979206Y-117436410D02*
G75*
G02X103040000Y-117250000I1535992J1334D01*
G01*
X94400000Y-109460000D02*
G75*
G02X94400000Y-107460000I0J1000000D01*
G01*
X92210000Y-107480000D02*
G75*
G02X92210000Y-109480000I0J-1000000D01*
G01*
X79326000Y-107480000D02*
X92210000Y-107480000D01*
X66880000Y-107480000D02*
X76601000Y-107480000D01*
X96310000Y-52870000D02*
X53130000Y-52870000D01*
X51860000Y-54140000D02*
X51860000Y-106210000D01*
X53130000Y-107480000D02*
X64155000Y-107480000D01*
X97580000Y-106210000D02*
X97494662Y-80150041D01*
X96310000Y-52870000D02*
G75*
G02X97580000Y-54140000I0J-1270000D01*
G01*
X51860000Y-54140000D02*
G75*
G02X53130000Y-52870000I1270000J0D01*
G01*
X53130000Y-107480000D02*
G75*
G02X51860000Y-106210000I0J1270000D01*
G01*
X97580000Y-106210000D02*
G75*
G02X96310000Y-107480000I-1270000J0D01*
G01*
X96310000Y-55410000D02*
G75*
G03X96310000Y-55410000I-1270000J0D01*
G01*
X55670000Y-55410000D02*
G75*
G03X55670000Y-55410000I-1270000J0D01*
G01*
X55670000Y-104940000D02*
G75*
G03X55670000Y-104940000I-1270000J0D01*
G01*
X96310000Y-104940000D02*
G75*
G03X96310000Y-104940000I-1270000J0D01*
G01*
X62280000Y-62010000D02*
G75*
G03X62280000Y-62010000I-1270000J0D01*
G01*
X91980000Y-62010000D02*
G75*
G03X91980000Y-62010000I-1270000J0D01*
G01*
X62300000Y-82060000D02*
G75*
G03X62300000Y-82060000I-1270000J0D01*
G01*
X91980000Y-82110000D02*
G75*
G03X91980000Y-82110000I-1270000J0D01*
G01*
D12*
X74180000Y-120680000D02*
G75*
G03X74180000Y-130080000I-6500000J-4700000D01*
G01*
X74180000Y-120680000D02*
G75*
G03X74180000Y-130080000I-4300000J-4700000D01*
G01*
D10*
X99988200Y-137248400D02*
X99970000Y-141400000D01*
X99979206Y-117436410D02*
X99991400Y-134048000D01*
X99988200Y-137248400D02*
G75*
G02X102984059Y-137118400I1501057J-7076D01*
G01*
X103045136Y-134020090D02*
G75*
G02X99991400Y-134048000I-1526737J-28309D01*
G01*
X79326000Y-109480000D02*
X92210000Y-109480000D01*
X66880000Y-109480000D02*
X76601000Y-109480000D01*
X51880000Y-109480000D02*
X64155000Y-109480000D01*
X51880000Y-141480000D02*
X51880000Y-109480000D01*
X99970000Y-141400000D02*
X51880000Y-141480000D01*
X99990000Y-109460000D02*
X99991400Y-114236000D01*
X94400000Y-109460000D02*
X99990000Y-109460000D01*
X76601000Y-107480000D02*
G75*
G02X76601000Y-109480000I0J-1000000D01*
G01*
X79326000Y-109480000D02*
G75*
G02X79326000Y-107480000I0J1000000D01*
G01*
X64155000Y-107480000D02*
G75*
G02X64155000Y-109480000I0J-1000000D01*
G01*
X66880000Y-109480000D02*
G75*
G02X66880000Y-107480000I0J1000000D01*
G01*
D11*
X80127228Y-127590272D02*
X79210292Y-127270976D01*
X77201553Y-121844315D02*
X77682776Y-122530000D01*
X76790796Y-126373631D02*
X76350943Y-126208971D01*
X80886627Y-124039340D02*
X80580000Y-124423791D01*
X74519063Y-125187996D02*
X75080000Y-125030691D01*
X79803378Y-125595152D02*
X79999618Y-125921134D01*
X80273579Y-124810456D02*
X80015651Y-125153835D01*
X76350943Y-126208971D02*
X75704008Y-125970449D01*
X74500188Y-125532283D02*
G75*
G02X74304138Y-125417675I215866J594251D01*
G01*
X75700625Y-124858521D02*
X76022789Y-124761896D01*
X76798832Y-127766913D02*
X76823280Y-127254106D01*
X81144999Y-123702914D02*
X80886627Y-124039340D01*
X80519196Y-126730000D02*
X80798068Y-127156612D01*
X81138688Y-127927820D02*
X80127228Y-127590272D01*
X76022789Y-124761896D02*
X76280000Y-124679358D01*
X79999618Y-125921134D02*
X80237460Y-126300572D01*
X75368905Y-124953293D02*
X75700625Y-124858521D01*
X74304137Y-125417675D02*
G75*
G02X74303937Y-125306674I47738J55587D01*
G01*
X76892579Y-123812607D02*
X76917474Y-123497489D01*
X80015651Y-125153835D02*
X79804228Y-125449135D01*
X78658133Y-127058577D02*
G75*
G02X78775396Y-127077537I31053J-180045D01*
G01*
X81214920Y-127846937D02*
G75*
G02X81215178Y-127898366I-44676J-25939D01*
G01*
X78578460Y-123848024D02*
G75*
G02X78363795Y-123560648I1522918J1361460D01*
G01*
X78538552Y-127112432D02*
G75*
G02X78658133Y-127058576I164215J-204935D01*
G01*
X77070572Y-121759083D02*
G75*
G02X77201553Y-121844315I-42796J-209026D01*
G01*
X80237460Y-126300572D02*
X80519196Y-126730000D01*
X79210292Y-127270976D02*
G75*
G02X78775396Y-127077537I1107315J3075091D01*
G01*
X80580000Y-124423791D02*
X80273579Y-124810456D01*
X81026731Y-127526958D02*
X81214920Y-127846936D01*
X76280000Y-124679358D02*
X76830000Y-124495213D01*
X79803378Y-125595151D02*
G75*
G02X79782216Y-125521092I129758J77130D01*
G01*
X75080000Y-125030691D02*
X75368905Y-124953293D01*
X76823280Y-127254106D02*
X76838652Y-126816985D01*
X78117484Y-127604724D02*
X77583789Y-128295502D01*
X78053936Y-123080253D02*
X78232698Y-123353492D01*
X77186230Y-128778378D02*
X76876851Y-129127839D01*
X79045148Y-123894922D02*
G75*
G02X78760892Y-123931681I-266090J940222D01*
G01*
X80798068Y-127156612D02*
X81026731Y-127526958D01*
X76769869Y-129094503D02*
X76768914Y-128719323D01*
X76917474Y-123497489D02*
X76940424Y-123111253D01*
X76940424Y-123111253D02*
X76958304Y-122718939D01*
X79782216Y-125521093D02*
G75*
G02X79804228Y-125449135I120599J2455D01*
G01*
X77682776Y-122530000D02*
X77861074Y-122791223D01*
X76838652Y-126816985D02*
X76848562Y-126433646D01*
X76830000Y-124495213D02*
X76892579Y-123812607D01*
X78383230Y-127266607D02*
G75*
G02X78538552Y-127112432I801126J-651765D01*
G01*
X78383230Y-127266606D02*
X78117484Y-127604724D01*
X76988397Y-121822289D02*
G75*
G02X77070572Y-121759082I68427J-3940D01*
G01*
X80091152Y-123592768D02*
X80822780Y-123381544D01*
X76967579Y-122383572D02*
X76988398Y-121822289D01*
X81380000Y-123357699D02*
G75*
G02X81362600Y-123410564I-89008J0D01*
G01*
X81362600Y-123410564D02*
X81144999Y-123702914D01*
X78760892Y-123931682D02*
G75*
G02X78578460Y-123848024I4666J250920D01*
G01*
X74303938Y-125306674D02*
G75*
G02X74519063Y-125187996I387246J-447637D01*
G01*
X76958304Y-122718939D02*
X76967579Y-122383572D01*
X81215178Y-127898365D02*
G75*
G02X81138688Y-127927820I-56190J31874D01*
G01*
X75704008Y-125970449D02*
X74500188Y-125532283D01*
X78232698Y-123353492D02*
X78363795Y-123560648D01*
X76795091Y-129139328D02*
G75*
G02X76769869Y-129094503I27960J45241D01*
G01*
X81155064Y-123304460D02*
G75*
G02X81324435Y-123296854I112572J-617211D01*
G01*
X79045148Y-123894922D02*
X80091152Y-123592768D01*
X81324435Y-123296854D02*
G75*
G02X81380000Y-123357699I-5531J-60845D01*
G01*
X76836281Y-126402949D02*
G75*
G02X76848562Y-126433646I-29680J-29679D01*
G01*
X76790796Y-126373631D02*
G75*
G02X76836281Y-126402948I-45075J-119877D01*
G01*
X77861074Y-122791223D02*
X78053936Y-123080253D01*
X77583789Y-128295502D02*
X77186230Y-128778378D01*
X76768914Y-128719323D02*
X76776819Y-128280300D01*
X76776819Y-128280300D02*
X76798832Y-127766913D01*
X80822780Y-123381543D02*
G75*
G02X81155065Y-123304460I976139J-3453097D01*
G01*
X76876851Y-129127839D02*
G75*
G02X76795091Y-129139327I-47795J43468D01*
G01*
M02*
