G04 #@! TF.GenerationSoftware,KiCad,Pcbnew,5.1.5-52549c5~84~ubuntu19.10.1*
G04 #@! TF.CreationDate,2020-09-03T13:33:18+03:00*
G04 #@! TF.ProjectId,hymTR_dual,68796d54-525f-4647-9561-6c2e6b696361,rev?*
G04 #@! TF.SameCoordinates,Original*
G04 #@! TF.FileFunction,Soldermask,Bot*
G04 #@! TF.FilePolarity,Negative*
%FSLAX46Y46*%
G04 Gerber Fmt 4.6, Leading zero omitted, Abs format (unit mm)*
G04 Created by KiCad (PCBNEW 5.1.5-52549c5~84~ubuntu19.10.1) date 2020-09-03 13:33:18*
%MOMM*%
%LPD*%
G04 APERTURE LIST*
%ADD10C,0.100000*%
G04 APERTURE END LIST*
D10*
G36*
X143311104Y-136798347D02*
G01*
X143347644Y-136809432D01*
X143381321Y-136827433D01*
X143410841Y-136851659D01*
X143435067Y-136881179D01*
X143453068Y-136914856D01*
X143464153Y-136951396D01*
X143468500Y-136995538D01*
X143468500Y-138444462D01*
X143464153Y-138488604D01*
X143453068Y-138525144D01*
X143435067Y-138558821D01*
X143410841Y-138588341D01*
X143381321Y-138612567D01*
X143347644Y-138630568D01*
X143311104Y-138641653D01*
X143266962Y-138646000D01*
X142318038Y-138646000D01*
X142273896Y-138641653D01*
X142237356Y-138630568D01*
X142203679Y-138612567D01*
X142174159Y-138588341D01*
X142149933Y-138558821D01*
X142131932Y-138525144D01*
X142120847Y-138488604D01*
X142116500Y-138444462D01*
X142116500Y-136995538D01*
X142120847Y-136951396D01*
X142131932Y-136914856D01*
X142149933Y-136881179D01*
X142174159Y-136851659D01*
X142203679Y-136827433D01*
X142237356Y-136809432D01*
X142273896Y-136798347D01*
X142318038Y-136794000D01*
X143266962Y-136794000D01*
X143311104Y-136798347D01*
G37*
G36*
X140511104Y-136798347D02*
G01*
X140547644Y-136809432D01*
X140581321Y-136827433D01*
X140610841Y-136851659D01*
X140635067Y-136881179D01*
X140653068Y-136914856D01*
X140664153Y-136951396D01*
X140668500Y-136995538D01*
X140668500Y-138444462D01*
X140664153Y-138488604D01*
X140653068Y-138525144D01*
X140635067Y-138558821D01*
X140610841Y-138588341D01*
X140581321Y-138612567D01*
X140547644Y-138630568D01*
X140511104Y-138641653D01*
X140466962Y-138646000D01*
X139518038Y-138646000D01*
X139473896Y-138641653D01*
X139437356Y-138630568D01*
X139403679Y-138612567D01*
X139374159Y-138588341D01*
X139349933Y-138558821D01*
X139331932Y-138525144D01*
X139320847Y-138488604D01*
X139316500Y-138444462D01*
X139316500Y-136995538D01*
X139320847Y-136951396D01*
X139331932Y-136914856D01*
X139349933Y-136881179D01*
X139374159Y-136851659D01*
X139403679Y-136827433D01*
X139437356Y-136809432D01*
X139473896Y-136798347D01*
X139518038Y-136794000D01*
X140466962Y-136794000D01*
X140511104Y-136798347D01*
G37*
G36*
X132558604Y-136798347D02*
G01*
X132595144Y-136809432D01*
X132628821Y-136827433D01*
X132658341Y-136851659D01*
X132682567Y-136881179D01*
X132700568Y-136914856D01*
X132711653Y-136951396D01*
X132716000Y-136995538D01*
X132716000Y-138444462D01*
X132711653Y-138488604D01*
X132700568Y-138525144D01*
X132682567Y-138558821D01*
X132658341Y-138588341D01*
X132628821Y-138612567D01*
X132595144Y-138630568D01*
X132558604Y-138641653D01*
X132514462Y-138646000D01*
X131565538Y-138646000D01*
X131521396Y-138641653D01*
X131484856Y-138630568D01*
X131451179Y-138612567D01*
X131421659Y-138588341D01*
X131397433Y-138558821D01*
X131379432Y-138525144D01*
X131368347Y-138488604D01*
X131364000Y-138444462D01*
X131364000Y-136995538D01*
X131368347Y-136951396D01*
X131379432Y-136914856D01*
X131397433Y-136881179D01*
X131421659Y-136851659D01*
X131451179Y-136827433D01*
X131484856Y-136809432D01*
X131521396Y-136798347D01*
X131565538Y-136794000D01*
X132514462Y-136794000D01*
X132558604Y-136798347D01*
G37*
G36*
X135358604Y-136798347D02*
G01*
X135395144Y-136809432D01*
X135428821Y-136827433D01*
X135458341Y-136851659D01*
X135482567Y-136881179D01*
X135500568Y-136914856D01*
X135511653Y-136951396D01*
X135516000Y-136995538D01*
X135516000Y-138444462D01*
X135511653Y-138488604D01*
X135500568Y-138525144D01*
X135482567Y-138558821D01*
X135458341Y-138588341D01*
X135428821Y-138612567D01*
X135395144Y-138630568D01*
X135358604Y-138641653D01*
X135314462Y-138646000D01*
X134365538Y-138646000D01*
X134321396Y-138641653D01*
X134284856Y-138630568D01*
X134251179Y-138612567D01*
X134221659Y-138588341D01*
X134197433Y-138558821D01*
X134179432Y-138525144D01*
X134168347Y-138488604D01*
X134164000Y-138444462D01*
X134164000Y-136995538D01*
X134168347Y-136951396D01*
X134179432Y-136914856D01*
X134197433Y-136881179D01*
X134221659Y-136851659D01*
X134251179Y-136827433D01*
X134284856Y-136809432D01*
X134321396Y-136798347D01*
X134365538Y-136794000D01*
X135314462Y-136794000D01*
X135358604Y-136798347D01*
G37*
G36*
X107007142Y-136176242D02*
G01*
X107155101Y-136237529D01*
X107288255Y-136326499D01*
X107401501Y-136439745D01*
X107490471Y-136572899D01*
X107551758Y-136720858D01*
X107583000Y-136877925D01*
X107583000Y-137038075D01*
X107551758Y-137195142D01*
X107490471Y-137343101D01*
X107401501Y-137476255D01*
X107288255Y-137589501D01*
X107155101Y-137678471D01*
X107007142Y-137739758D01*
X106850075Y-137771000D01*
X106689925Y-137771000D01*
X106532858Y-137739758D01*
X106384899Y-137678471D01*
X106251745Y-137589501D01*
X106138499Y-137476255D01*
X106049529Y-137343101D01*
X105988242Y-137195142D01*
X105957000Y-137038075D01*
X105957000Y-136877925D01*
X105988242Y-136720858D01*
X106049529Y-136572899D01*
X106138499Y-136439745D01*
X106251745Y-136326499D01*
X106384899Y-136237529D01*
X106532858Y-136176242D01*
X106689925Y-136145000D01*
X106850075Y-136145000D01*
X107007142Y-136176242D01*
G37*
G36*
X125549142Y-136176242D02*
G01*
X125697101Y-136237529D01*
X125830255Y-136326499D01*
X125943501Y-136439745D01*
X126032471Y-136572899D01*
X126093758Y-136720858D01*
X126125000Y-136877925D01*
X126125000Y-137038075D01*
X126093758Y-137195142D01*
X126032471Y-137343101D01*
X125943501Y-137476255D01*
X125830255Y-137589501D01*
X125697101Y-137678471D01*
X125549142Y-137739758D01*
X125392075Y-137771000D01*
X125231925Y-137771000D01*
X125074858Y-137739758D01*
X124926899Y-137678471D01*
X124793745Y-137589501D01*
X124680499Y-137476255D01*
X124591529Y-137343101D01*
X124530242Y-137195142D01*
X124499000Y-137038075D01*
X124499000Y-136877925D01*
X124530242Y-136720858D01*
X124591529Y-136572899D01*
X124680499Y-136439745D01*
X124793745Y-136326499D01*
X124926899Y-136237529D01*
X125074858Y-136176242D01*
X125231925Y-136145000D01*
X125392075Y-136145000D01*
X125549142Y-136176242D01*
G37*
G36*
X107007142Y-133636242D02*
G01*
X107155101Y-133697529D01*
X107288255Y-133786499D01*
X107401501Y-133899745D01*
X107490471Y-134032899D01*
X107551758Y-134180858D01*
X107583000Y-134337925D01*
X107583000Y-134498075D01*
X107551758Y-134655142D01*
X107490471Y-134803101D01*
X107401501Y-134936255D01*
X107288255Y-135049501D01*
X107155101Y-135138471D01*
X107007142Y-135199758D01*
X106850075Y-135231000D01*
X106689925Y-135231000D01*
X106532858Y-135199758D01*
X106384899Y-135138471D01*
X106251745Y-135049501D01*
X106138499Y-134936255D01*
X106049529Y-134803101D01*
X105988242Y-134655142D01*
X105957000Y-134498075D01*
X105957000Y-134337925D01*
X105988242Y-134180858D01*
X106049529Y-134032899D01*
X106138499Y-133899745D01*
X106251745Y-133786499D01*
X106384899Y-133697529D01*
X106532858Y-133636242D01*
X106689925Y-133605000D01*
X106850075Y-133605000D01*
X107007142Y-133636242D01*
G37*
G36*
X125549142Y-133636242D02*
G01*
X125697101Y-133697529D01*
X125830255Y-133786499D01*
X125943501Y-133899745D01*
X126032471Y-134032899D01*
X126093758Y-134180858D01*
X126125000Y-134337925D01*
X126125000Y-134498075D01*
X126093758Y-134655142D01*
X126032471Y-134803101D01*
X125943501Y-134936255D01*
X125830255Y-135049501D01*
X125697101Y-135138471D01*
X125549142Y-135199758D01*
X125392075Y-135231000D01*
X125231925Y-135231000D01*
X125074858Y-135199758D01*
X124926899Y-135138471D01*
X124793745Y-135049501D01*
X124680499Y-134936255D01*
X124591529Y-134803101D01*
X124530242Y-134655142D01*
X124499000Y-134498075D01*
X124499000Y-134337925D01*
X124530242Y-134180858D01*
X124591529Y-134032899D01*
X124680499Y-133899745D01*
X124793745Y-133786499D01*
X124926899Y-133697529D01*
X125074858Y-133636242D01*
X125231925Y-133605000D01*
X125392075Y-133605000D01*
X125549142Y-133636242D01*
G37*
G36*
X145721000Y-132221000D02*
G01*
X144019000Y-132221000D01*
X144019000Y-130519000D01*
X145721000Y-130519000D01*
X145721000Y-132221000D01*
G37*
G36*
X129878228Y-130551703D02*
G01*
X130033100Y-130615853D01*
X130172481Y-130708985D01*
X130291015Y-130827519D01*
X130384147Y-130966900D01*
X130448297Y-131121772D01*
X130481000Y-131286184D01*
X130481000Y-131453816D01*
X130448297Y-131618228D01*
X130384147Y-131773100D01*
X130291015Y-131912481D01*
X130172481Y-132031015D01*
X130033100Y-132124147D01*
X129878228Y-132188297D01*
X129713816Y-132221000D01*
X129546184Y-132221000D01*
X129381772Y-132188297D01*
X129226900Y-132124147D01*
X129087519Y-132031015D01*
X128968985Y-131912481D01*
X128875853Y-131773100D01*
X128811703Y-131618228D01*
X128779000Y-131453816D01*
X128779000Y-131286184D01*
X128811703Y-131121772D01*
X128875853Y-130966900D01*
X128968985Y-130827519D01*
X129087519Y-130708985D01*
X129226900Y-130615853D01*
X129381772Y-130551703D01*
X129546184Y-130519000D01*
X129713816Y-130519000D01*
X129878228Y-130551703D01*
G37*
G36*
X145118228Y-128011703D02*
G01*
X145273100Y-128075853D01*
X145412481Y-128168985D01*
X145531015Y-128287519D01*
X145624147Y-128426900D01*
X145688297Y-128581772D01*
X145721000Y-128746184D01*
X145721000Y-128913816D01*
X145688297Y-129078228D01*
X145624147Y-129233100D01*
X145531015Y-129372481D01*
X145412481Y-129491015D01*
X145273100Y-129584147D01*
X145118228Y-129648297D01*
X144953816Y-129681000D01*
X144786184Y-129681000D01*
X144621772Y-129648297D01*
X144466900Y-129584147D01*
X144327519Y-129491015D01*
X144208985Y-129372481D01*
X144115853Y-129233100D01*
X144051703Y-129078228D01*
X144019000Y-128913816D01*
X144019000Y-128746184D01*
X144051703Y-128581772D01*
X144115853Y-128426900D01*
X144208985Y-128287519D01*
X144327519Y-128168985D01*
X144466900Y-128075853D01*
X144621772Y-128011703D01*
X144786184Y-127979000D01*
X144953816Y-127979000D01*
X145118228Y-128011703D01*
G37*
G36*
X129878228Y-128011703D02*
G01*
X130033100Y-128075853D01*
X130172481Y-128168985D01*
X130291015Y-128287519D01*
X130384147Y-128426900D01*
X130448297Y-128581772D01*
X130481000Y-128746184D01*
X130481000Y-128913816D01*
X130448297Y-129078228D01*
X130384147Y-129233100D01*
X130291015Y-129372481D01*
X130172481Y-129491015D01*
X130033100Y-129584147D01*
X129878228Y-129648297D01*
X129713816Y-129681000D01*
X129546184Y-129681000D01*
X129381772Y-129648297D01*
X129226900Y-129584147D01*
X129087519Y-129491015D01*
X128968985Y-129372481D01*
X128875853Y-129233100D01*
X128811703Y-129078228D01*
X128779000Y-128913816D01*
X128779000Y-128746184D01*
X128811703Y-128581772D01*
X128875853Y-128426900D01*
X128968985Y-128287519D01*
X129087519Y-128168985D01*
X129226900Y-128075853D01*
X129381772Y-128011703D01*
X129546184Y-127979000D01*
X129713816Y-127979000D01*
X129878228Y-128011703D01*
G37*
G36*
X145118228Y-125471703D02*
G01*
X145273100Y-125535853D01*
X145412481Y-125628985D01*
X145531015Y-125747519D01*
X145624147Y-125886900D01*
X145688297Y-126041772D01*
X145721000Y-126206184D01*
X145721000Y-126373816D01*
X145688297Y-126538228D01*
X145624147Y-126693100D01*
X145531015Y-126832481D01*
X145412481Y-126951015D01*
X145273100Y-127044147D01*
X145118228Y-127108297D01*
X144953816Y-127141000D01*
X144786184Y-127141000D01*
X144621772Y-127108297D01*
X144466900Y-127044147D01*
X144327519Y-126951015D01*
X144208985Y-126832481D01*
X144115853Y-126693100D01*
X144051703Y-126538228D01*
X144019000Y-126373816D01*
X144019000Y-126206184D01*
X144051703Y-126041772D01*
X144115853Y-125886900D01*
X144208985Y-125747519D01*
X144327519Y-125628985D01*
X144466900Y-125535853D01*
X144621772Y-125471703D01*
X144786184Y-125439000D01*
X144953816Y-125439000D01*
X145118228Y-125471703D01*
G37*
G36*
X129878228Y-125471703D02*
G01*
X130033100Y-125535853D01*
X130172481Y-125628985D01*
X130291015Y-125747519D01*
X130384147Y-125886900D01*
X130448297Y-126041772D01*
X130481000Y-126206184D01*
X130481000Y-126373816D01*
X130448297Y-126538228D01*
X130384147Y-126693100D01*
X130291015Y-126832481D01*
X130172481Y-126951015D01*
X130033100Y-127044147D01*
X129878228Y-127108297D01*
X129713816Y-127141000D01*
X129546184Y-127141000D01*
X129381772Y-127108297D01*
X129226900Y-127044147D01*
X129087519Y-126951015D01*
X128968985Y-126832481D01*
X128875853Y-126693100D01*
X128811703Y-126538228D01*
X128779000Y-126373816D01*
X128779000Y-126206184D01*
X128811703Y-126041772D01*
X128875853Y-125886900D01*
X128968985Y-125747519D01*
X129087519Y-125628985D01*
X129226900Y-125535853D01*
X129381772Y-125471703D01*
X129546184Y-125439000D01*
X129713816Y-125439000D01*
X129878228Y-125471703D01*
G37*
G36*
X125549142Y-125508242D02*
G01*
X125697101Y-125569529D01*
X125830255Y-125658499D01*
X125943501Y-125771745D01*
X126032471Y-125904899D01*
X126093758Y-126052858D01*
X126125000Y-126209925D01*
X126125000Y-126370075D01*
X126093758Y-126527142D01*
X126032471Y-126675101D01*
X125943501Y-126808255D01*
X125830255Y-126921501D01*
X125697101Y-127010471D01*
X125549142Y-127071758D01*
X125392075Y-127103000D01*
X125231925Y-127103000D01*
X125074858Y-127071758D01*
X124926899Y-127010471D01*
X124793745Y-126921501D01*
X124680499Y-126808255D01*
X124591529Y-126675101D01*
X124530242Y-126527142D01*
X124499000Y-126370075D01*
X124499000Y-126209925D01*
X124530242Y-126052858D01*
X124591529Y-125904899D01*
X124680499Y-125771745D01*
X124793745Y-125658499D01*
X124926899Y-125569529D01*
X125074858Y-125508242D01*
X125231925Y-125477000D01*
X125392075Y-125477000D01*
X125549142Y-125508242D01*
G37*
G36*
X107007142Y-125508242D02*
G01*
X107155101Y-125569529D01*
X107288255Y-125658499D01*
X107401501Y-125771745D01*
X107490471Y-125904899D01*
X107551758Y-126052858D01*
X107583000Y-126209925D01*
X107583000Y-126370075D01*
X107551758Y-126527142D01*
X107490471Y-126675101D01*
X107401501Y-126808255D01*
X107288255Y-126921501D01*
X107155101Y-127010471D01*
X107007142Y-127071758D01*
X106850075Y-127103000D01*
X106689925Y-127103000D01*
X106532858Y-127071758D01*
X106384899Y-127010471D01*
X106251745Y-126921501D01*
X106138499Y-126808255D01*
X106049529Y-126675101D01*
X105988242Y-126527142D01*
X105957000Y-126370075D01*
X105957000Y-126209925D01*
X105988242Y-126052858D01*
X106049529Y-125904899D01*
X106138499Y-125771745D01*
X106251745Y-125658499D01*
X106384899Y-125569529D01*
X106532858Y-125508242D01*
X106689925Y-125477000D01*
X106850075Y-125477000D01*
X107007142Y-125508242D01*
G37*
G36*
X141004665Y-117056000D02*
G01*
X141171734Y-117089232D01*
X141381203Y-117175997D01*
X141569720Y-117301960D01*
X141730040Y-117462280D01*
X141856003Y-117650797D01*
X141942768Y-117860266D01*
X141987000Y-118082636D01*
X141987000Y-118309364D01*
X141942768Y-118531734D01*
X141856003Y-118741203D01*
X141730040Y-118929720D01*
X141569720Y-119090040D01*
X141381203Y-119216003D01*
X141171734Y-119302768D01*
X141044161Y-119328144D01*
X140967448Y-119343403D01*
X140943999Y-119350516D01*
X140922388Y-119362067D01*
X140903446Y-119377612D01*
X140887901Y-119396554D01*
X140876350Y-119418165D01*
X140869237Y-119441614D01*
X140866835Y-119466000D01*
X140869237Y-119490386D01*
X140876350Y-119513835D01*
X140887901Y-119535446D01*
X140903446Y-119554388D01*
X140922388Y-119569933D01*
X140943999Y-119581484D01*
X140967448Y-119588597D01*
X141040440Y-119603116D01*
X141171734Y-119629232D01*
X141381203Y-119715997D01*
X141569720Y-119841960D01*
X141730040Y-120002280D01*
X141856003Y-120190797D01*
X141942768Y-120400266D01*
X141987000Y-120622636D01*
X141987000Y-120849364D01*
X141942768Y-121071734D01*
X141856003Y-121281203D01*
X141730040Y-121469720D01*
X141569720Y-121630040D01*
X141381203Y-121756003D01*
X141171734Y-121842768D01*
X141044161Y-121868144D01*
X140967448Y-121883403D01*
X140943999Y-121890516D01*
X140922388Y-121902067D01*
X140903446Y-121917612D01*
X140887901Y-121936554D01*
X140876350Y-121958165D01*
X140869237Y-121981614D01*
X140866835Y-122006000D01*
X140869237Y-122030386D01*
X140876350Y-122053835D01*
X140887901Y-122075446D01*
X140903446Y-122094388D01*
X140922388Y-122109933D01*
X140943999Y-122121484D01*
X140967448Y-122128597D01*
X141044161Y-122143856D01*
X141171734Y-122169232D01*
X141381203Y-122255997D01*
X141569720Y-122381960D01*
X141730040Y-122542280D01*
X141856003Y-122730797D01*
X141942768Y-122940266D01*
X141987000Y-123162636D01*
X141987000Y-123389364D01*
X141942768Y-123611734D01*
X141856003Y-123821203D01*
X141730040Y-124009720D01*
X141569720Y-124170040D01*
X141381203Y-124296003D01*
X141171734Y-124382768D01*
X141044161Y-124408144D01*
X140967448Y-124423403D01*
X140943999Y-124430516D01*
X140922388Y-124442067D01*
X140903446Y-124457612D01*
X140887901Y-124476554D01*
X140876350Y-124498165D01*
X140869237Y-124521614D01*
X140866835Y-124546000D01*
X140869237Y-124570386D01*
X140876350Y-124593835D01*
X140887901Y-124615446D01*
X140903446Y-124634388D01*
X140922388Y-124649933D01*
X140943999Y-124661484D01*
X140967448Y-124668597D01*
X141044161Y-124683856D01*
X141171734Y-124709232D01*
X141381203Y-124795997D01*
X141569720Y-124921960D01*
X141730040Y-125082280D01*
X141856003Y-125270797D01*
X141856004Y-125270799D01*
X141879551Y-125327648D01*
X141942768Y-125480266D01*
X141987000Y-125702636D01*
X141987000Y-125929364D01*
X141942768Y-126151734D01*
X141856003Y-126361203D01*
X141730040Y-126549720D01*
X141569720Y-126710040D01*
X141381203Y-126836003D01*
X141171734Y-126922768D01*
X141142580Y-126928567D01*
X140949365Y-126967000D01*
X140722635Y-126967000D01*
X140529420Y-126928567D01*
X140500266Y-126922768D01*
X140290797Y-126836003D01*
X140102280Y-126710040D01*
X139941960Y-126549720D01*
X139815997Y-126361203D01*
X139729232Y-126151734D01*
X139685000Y-125929364D01*
X139685000Y-125702636D01*
X139729232Y-125480266D01*
X139792449Y-125327648D01*
X139815996Y-125270799D01*
X139815997Y-125270797D01*
X139941960Y-125082280D01*
X140102280Y-124921960D01*
X140290797Y-124795997D01*
X140500266Y-124709232D01*
X140627839Y-124683856D01*
X140704552Y-124668597D01*
X140728001Y-124661484D01*
X140749612Y-124649933D01*
X140768554Y-124634388D01*
X140784099Y-124615446D01*
X140795650Y-124593835D01*
X140802763Y-124570386D01*
X140805165Y-124546000D01*
X140802763Y-124521614D01*
X140795650Y-124498165D01*
X140784099Y-124476554D01*
X140768554Y-124457612D01*
X140749612Y-124442067D01*
X140728001Y-124430516D01*
X140704552Y-124423403D01*
X140627839Y-124408144D01*
X140500266Y-124382768D01*
X140290797Y-124296003D01*
X140102280Y-124170040D01*
X139941960Y-124009720D01*
X139815997Y-123821203D01*
X139729232Y-123611734D01*
X139685000Y-123389364D01*
X139685000Y-123162636D01*
X139729232Y-122940266D01*
X139815997Y-122730797D01*
X139941960Y-122542280D01*
X140102280Y-122381960D01*
X140290797Y-122255997D01*
X140500266Y-122169232D01*
X140627839Y-122143856D01*
X140704552Y-122128597D01*
X140728001Y-122121484D01*
X140749612Y-122109933D01*
X140768554Y-122094388D01*
X140784099Y-122075446D01*
X140795650Y-122053835D01*
X140802763Y-122030386D01*
X140805165Y-122006000D01*
X140802763Y-121981614D01*
X140795650Y-121958165D01*
X140784099Y-121936554D01*
X140768554Y-121917612D01*
X140749612Y-121902067D01*
X140728001Y-121890516D01*
X140704552Y-121883403D01*
X140627839Y-121868144D01*
X140500266Y-121842768D01*
X140290797Y-121756003D01*
X140102280Y-121630040D01*
X139941960Y-121469720D01*
X139815997Y-121281203D01*
X139729232Y-121071734D01*
X139685000Y-120849364D01*
X139685000Y-120622636D01*
X139729232Y-120400266D01*
X139815997Y-120190797D01*
X139941960Y-120002280D01*
X140102280Y-119841960D01*
X140290797Y-119715997D01*
X140500266Y-119629232D01*
X140631560Y-119603116D01*
X140704552Y-119588597D01*
X140728001Y-119581484D01*
X140749612Y-119569933D01*
X140768554Y-119554388D01*
X140784099Y-119535446D01*
X140795650Y-119513835D01*
X140802763Y-119490386D01*
X140805165Y-119466000D01*
X140802763Y-119441614D01*
X140795650Y-119418165D01*
X140784099Y-119396554D01*
X140768554Y-119377612D01*
X140749612Y-119362067D01*
X140728001Y-119350516D01*
X140704552Y-119343403D01*
X140627839Y-119328144D01*
X140500266Y-119302768D01*
X140290797Y-119216003D01*
X140102280Y-119090040D01*
X139941960Y-118929720D01*
X139815997Y-118741203D01*
X139729232Y-118531734D01*
X139685000Y-118309364D01*
X139685000Y-118082636D01*
X139729232Y-117860266D01*
X139815997Y-117650797D01*
X139941960Y-117462280D01*
X140102280Y-117301960D01*
X140290797Y-117175997D01*
X140500266Y-117089232D01*
X140667335Y-117056000D01*
X140722635Y-117045000D01*
X140949365Y-117045000D01*
X141004665Y-117056000D01*
G37*
G36*
X112752604Y-125114347D02*
G01*
X112789144Y-125125432D01*
X112807076Y-125135017D01*
X112829715Y-125144395D01*
X112853748Y-125149175D01*
X112878252Y-125149175D01*
X112902285Y-125144395D01*
X112924924Y-125135017D01*
X112942856Y-125125432D01*
X112979396Y-125114347D01*
X113023538Y-125110000D01*
X113972462Y-125110000D01*
X114016604Y-125114347D01*
X114053144Y-125125432D01*
X114086821Y-125143433D01*
X114116341Y-125167659D01*
X114140567Y-125197179D01*
X114158568Y-125230856D01*
X114169653Y-125267396D01*
X114174000Y-125311538D01*
X114174000Y-126760462D01*
X114169653Y-126804604D01*
X114158568Y-126841144D01*
X114140567Y-126874821D01*
X114116341Y-126904341D01*
X114086821Y-126928567D01*
X114053144Y-126946568D01*
X114016604Y-126957653D01*
X113972462Y-126962000D01*
X113023538Y-126962000D01*
X112979396Y-126957653D01*
X112942856Y-126946568D01*
X112924924Y-126936983D01*
X112902285Y-126927605D01*
X112878252Y-126922825D01*
X112853748Y-126922825D01*
X112829715Y-126927605D01*
X112807076Y-126936983D01*
X112789144Y-126946568D01*
X112752604Y-126957653D01*
X112708462Y-126962000D01*
X111759538Y-126962000D01*
X111715396Y-126957653D01*
X111678856Y-126946568D01*
X111645179Y-126928567D01*
X111615659Y-126904341D01*
X111591433Y-126874821D01*
X111573432Y-126841144D01*
X111562347Y-126804604D01*
X111558000Y-126760462D01*
X111558000Y-125311538D01*
X111562347Y-125267396D01*
X111573432Y-125230856D01*
X111591433Y-125197179D01*
X111615659Y-125167659D01*
X111645179Y-125143433D01*
X111678856Y-125125432D01*
X111715396Y-125114347D01*
X111759538Y-125110000D01*
X112708462Y-125110000D01*
X112752604Y-125114347D01*
G37*
G36*
X116816604Y-125114347D02*
G01*
X116853144Y-125125432D01*
X116886821Y-125143433D01*
X116916341Y-125167659D01*
X116940567Y-125197179D01*
X116958568Y-125230856D01*
X116969653Y-125267396D01*
X116974000Y-125311538D01*
X116974000Y-126760462D01*
X116969653Y-126804604D01*
X116958568Y-126841144D01*
X116940567Y-126874821D01*
X116916341Y-126904341D01*
X116886821Y-126928567D01*
X116853144Y-126946568D01*
X116816604Y-126957653D01*
X116772462Y-126962000D01*
X115823538Y-126962000D01*
X115779396Y-126957653D01*
X115742856Y-126946568D01*
X115709179Y-126928567D01*
X115679659Y-126904341D01*
X115655433Y-126874821D01*
X115637432Y-126841144D01*
X115626347Y-126804604D01*
X115622000Y-126760462D01*
X115622000Y-125311538D01*
X115626347Y-125267396D01*
X115637432Y-125230856D01*
X115655433Y-125197179D01*
X115679659Y-125167659D01*
X115709179Y-125143433D01*
X115742856Y-125125432D01*
X115779396Y-125114347D01*
X115823538Y-125110000D01*
X116772462Y-125110000D01*
X116816604Y-125114347D01*
G37*
G36*
X109952604Y-125114347D02*
G01*
X109989144Y-125125432D01*
X110022821Y-125143433D01*
X110052341Y-125167659D01*
X110076567Y-125197179D01*
X110094568Y-125230856D01*
X110105653Y-125267396D01*
X110110000Y-125311538D01*
X110110000Y-126760462D01*
X110105653Y-126804604D01*
X110094568Y-126841144D01*
X110076567Y-126874821D01*
X110052341Y-126904341D01*
X110022821Y-126928567D01*
X109989144Y-126946568D01*
X109952604Y-126957653D01*
X109908462Y-126962000D01*
X108959538Y-126962000D01*
X108915396Y-126957653D01*
X108878856Y-126946568D01*
X108845179Y-126928567D01*
X108815659Y-126904341D01*
X108791433Y-126874821D01*
X108773432Y-126841144D01*
X108762347Y-126804604D01*
X108758000Y-126760462D01*
X108758000Y-125311538D01*
X108762347Y-125267396D01*
X108773432Y-125230856D01*
X108791433Y-125197179D01*
X108815659Y-125167659D01*
X108845179Y-125143433D01*
X108878856Y-125125432D01*
X108915396Y-125114347D01*
X108959538Y-125110000D01*
X109908462Y-125110000D01*
X109952604Y-125114347D01*
G37*
G36*
X129878228Y-122931703D02*
G01*
X130033100Y-122995853D01*
X130172481Y-123088985D01*
X130291015Y-123207519D01*
X130384147Y-123346900D01*
X130448297Y-123501772D01*
X130481000Y-123666184D01*
X130481000Y-123833816D01*
X130448297Y-123998228D01*
X130384147Y-124153100D01*
X130291015Y-124292481D01*
X130172481Y-124411015D01*
X130033100Y-124504147D01*
X129878228Y-124568297D01*
X129713816Y-124601000D01*
X129546184Y-124601000D01*
X129381772Y-124568297D01*
X129226900Y-124504147D01*
X129087519Y-124411015D01*
X128968985Y-124292481D01*
X128875853Y-124153100D01*
X128811703Y-123998228D01*
X128779000Y-123833816D01*
X128779000Y-123666184D01*
X128811703Y-123501772D01*
X128875853Y-123346900D01*
X128968985Y-123207519D01*
X129087519Y-123088985D01*
X129226900Y-122995853D01*
X129381772Y-122931703D01*
X129546184Y-122899000D01*
X129713816Y-122899000D01*
X129878228Y-122931703D01*
G37*
G36*
X145118228Y-122931703D02*
G01*
X145273100Y-122995853D01*
X145412481Y-123088985D01*
X145531015Y-123207519D01*
X145624147Y-123346900D01*
X145688297Y-123501772D01*
X145721000Y-123666184D01*
X145721000Y-123833816D01*
X145688297Y-123998228D01*
X145624147Y-124153100D01*
X145531015Y-124292481D01*
X145412481Y-124411015D01*
X145273100Y-124504147D01*
X145118228Y-124568297D01*
X144953816Y-124601000D01*
X144786184Y-124601000D01*
X144621772Y-124568297D01*
X144466900Y-124504147D01*
X144327519Y-124411015D01*
X144208985Y-124292481D01*
X144115853Y-124153100D01*
X144051703Y-123998228D01*
X144019000Y-123833816D01*
X144019000Y-123666184D01*
X144051703Y-123501772D01*
X144115853Y-123346900D01*
X144208985Y-123207519D01*
X144327519Y-123088985D01*
X144466900Y-122995853D01*
X144621772Y-122931703D01*
X144786184Y-122899000D01*
X144953816Y-122899000D01*
X145118228Y-122931703D01*
G37*
G36*
X125549142Y-122968242D02*
G01*
X125697101Y-123029529D01*
X125830255Y-123118499D01*
X125943501Y-123231745D01*
X126032471Y-123364899D01*
X126093758Y-123512858D01*
X126125000Y-123669925D01*
X126125000Y-123830075D01*
X126093758Y-123987142D01*
X126032471Y-124135101D01*
X125943501Y-124268255D01*
X125830255Y-124381501D01*
X125697101Y-124470471D01*
X125549142Y-124531758D01*
X125392075Y-124563000D01*
X125231925Y-124563000D01*
X125074858Y-124531758D01*
X124926899Y-124470471D01*
X124793745Y-124381501D01*
X124680499Y-124268255D01*
X124591529Y-124135101D01*
X124530242Y-123987142D01*
X124499000Y-123830075D01*
X124499000Y-123669925D01*
X124530242Y-123512858D01*
X124591529Y-123364899D01*
X124680499Y-123231745D01*
X124793745Y-123118499D01*
X124926899Y-123029529D01*
X125074858Y-122968242D01*
X125231925Y-122937000D01*
X125392075Y-122937000D01*
X125549142Y-122968242D01*
G37*
G36*
X107007142Y-122968242D02*
G01*
X107155101Y-123029529D01*
X107288255Y-123118499D01*
X107401501Y-123231745D01*
X107490471Y-123364899D01*
X107551758Y-123512858D01*
X107583000Y-123669925D01*
X107583000Y-123830075D01*
X107551758Y-123987142D01*
X107490471Y-124135101D01*
X107401501Y-124268255D01*
X107288255Y-124381501D01*
X107155101Y-124470471D01*
X107007142Y-124531758D01*
X106850075Y-124563000D01*
X106689925Y-124563000D01*
X106532858Y-124531758D01*
X106384899Y-124470471D01*
X106251745Y-124381501D01*
X106138499Y-124268255D01*
X106049529Y-124135101D01*
X105988242Y-123987142D01*
X105957000Y-123830075D01*
X105957000Y-123669925D01*
X105988242Y-123512858D01*
X106049529Y-123364899D01*
X106138499Y-123231745D01*
X106251745Y-123118499D01*
X106384899Y-123029529D01*
X106532858Y-122968242D01*
X106689925Y-122937000D01*
X106850075Y-122937000D01*
X107007142Y-122968242D01*
G37*
G36*
X129878228Y-120391703D02*
G01*
X130033100Y-120455853D01*
X130172481Y-120548985D01*
X130291015Y-120667519D01*
X130384147Y-120806900D01*
X130448297Y-120961772D01*
X130481000Y-121126184D01*
X130481000Y-121293816D01*
X130448297Y-121458228D01*
X130384147Y-121613100D01*
X130291015Y-121752481D01*
X130172481Y-121871015D01*
X130033100Y-121964147D01*
X129878228Y-122028297D01*
X129713816Y-122061000D01*
X129546184Y-122061000D01*
X129381772Y-122028297D01*
X129226900Y-121964147D01*
X129087519Y-121871015D01*
X128968985Y-121752481D01*
X128875853Y-121613100D01*
X128811703Y-121458228D01*
X128779000Y-121293816D01*
X128779000Y-121126184D01*
X128811703Y-120961772D01*
X128875853Y-120806900D01*
X128968985Y-120667519D01*
X129087519Y-120548985D01*
X129226900Y-120455853D01*
X129381772Y-120391703D01*
X129546184Y-120359000D01*
X129713816Y-120359000D01*
X129878228Y-120391703D01*
G37*
G36*
X145118228Y-120391703D02*
G01*
X145273100Y-120455853D01*
X145412481Y-120548985D01*
X145531015Y-120667519D01*
X145624147Y-120806900D01*
X145688297Y-120961772D01*
X145721000Y-121126184D01*
X145721000Y-121293816D01*
X145688297Y-121458228D01*
X145624147Y-121613100D01*
X145531015Y-121752481D01*
X145412481Y-121871015D01*
X145273100Y-121964147D01*
X145118228Y-122028297D01*
X144953816Y-122061000D01*
X144786184Y-122061000D01*
X144621772Y-122028297D01*
X144466900Y-121964147D01*
X144327519Y-121871015D01*
X144208985Y-121752481D01*
X144115853Y-121613100D01*
X144051703Y-121458228D01*
X144019000Y-121293816D01*
X144019000Y-121126184D01*
X144051703Y-120961772D01*
X144115853Y-120806900D01*
X144208985Y-120667519D01*
X144327519Y-120548985D01*
X144466900Y-120455853D01*
X144621772Y-120391703D01*
X144786184Y-120359000D01*
X144953816Y-120359000D01*
X145118228Y-120391703D01*
G37*
G36*
X113568254Y-116037818D02*
G01*
X113941511Y-116192426D01*
X113941513Y-116192427D01*
X114277436Y-116416884D01*
X114563116Y-116702564D01*
X114785522Y-117035417D01*
X114787574Y-117038489D01*
X114942182Y-117411746D01*
X115021000Y-117807993D01*
X115021000Y-118212007D01*
X114942182Y-118608254D01*
X114787574Y-118981511D01*
X114787573Y-118981513D01*
X114563116Y-119317436D01*
X114277436Y-119603116D01*
X113941513Y-119827573D01*
X113941512Y-119827574D01*
X113941511Y-119827574D01*
X113568254Y-119982182D01*
X113172007Y-120061000D01*
X112767993Y-120061000D01*
X112371746Y-119982182D01*
X111998489Y-119827574D01*
X111998488Y-119827574D01*
X111998487Y-119827573D01*
X111662564Y-119603116D01*
X111376884Y-119317436D01*
X111152427Y-118981513D01*
X111152426Y-118981511D01*
X110997818Y-118608254D01*
X110919000Y-118212007D01*
X110919000Y-117807993D01*
X110997818Y-117411746D01*
X111152426Y-117038489D01*
X111154479Y-117035417D01*
X111376884Y-116702564D01*
X111662564Y-116416884D01*
X111998487Y-116192427D01*
X111998489Y-116192426D01*
X112371746Y-116037818D01*
X112767993Y-115959000D01*
X113172007Y-115959000D01*
X113568254Y-116037818D01*
G37*
G36*
X145118228Y-117851703D02*
G01*
X145273100Y-117915853D01*
X145412481Y-118008985D01*
X145531015Y-118127519D01*
X145624147Y-118266900D01*
X145688297Y-118421772D01*
X145721000Y-118586184D01*
X145721000Y-118753816D01*
X145688297Y-118918228D01*
X145624147Y-119073100D01*
X145531015Y-119212481D01*
X145412481Y-119331015D01*
X145273100Y-119424147D01*
X145118228Y-119488297D01*
X144953816Y-119521000D01*
X144786184Y-119521000D01*
X144621772Y-119488297D01*
X144466900Y-119424147D01*
X144327519Y-119331015D01*
X144208985Y-119212481D01*
X144115853Y-119073100D01*
X144051703Y-118918228D01*
X144019000Y-118753816D01*
X144019000Y-118586184D01*
X144051703Y-118421772D01*
X144115853Y-118266900D01*
X144208985Y-118127519D01*
X144327519Y-118008985D01*
X144466900Y-117915853D01*
X144621772Y-117851703D01*
X144786184Y-117819000D01*
X144953816Y-117819000D01*
X145118228Y-117851703D01*
G37*
G36*
X129878228Y-117851703D02*
G01*
X130033100Y-117915853D01*
X130172481Y-118008985D01*
X130291015Y-118127519D01*
X130384147Y-118266900D01*
X130448297Y-118421772D01*
X130481000Y-118586184D01*
X130481000Y-118753816D01*
X130448297Y-118918228D01*
X130384147Y-119073100D01*
X130291015Y-119212481D01*
X130172481Y-119331015D01*
X130033100Y-119424147D01*
X129878228Y-119488297D01*
X129713816Y-119521000D01*
X129546184Y-119521000D01*
X129381772Y-119488297D01*
X129226900Y-119424147D01*
X129087519Y-119331015D01*
X128968985Y-119212481D01*
X128875853Y-119073100D01*
X128811703Y-118918228D01*
X128779000Y-118753816D01*
X128779000Y-118586184D01*
X128811703Y-118421772D01*
X128875853Y-118266900D01*
X128968985Y-118127519D01*
X129087519Y-118008985D01*
X129226900Y-117915853D01*
X129381772Y-117851703D01*
X129546184Y-117819000D01*
X129713816Y-117819000D01*
X129878228Y-117851703D01*
G37*
G36*
X137898604Y-115208347D02*
G01*
X137935144Y-115219432D01*
X137968821Y-115237433D01*
X137998341Y-115261659D01*
X138022567Y-115291179D01*
X138040568Y-115324856D01*
X138051653Y-115361396D01*
X138056000Y-115405538D01*
X138056000Y-116854462D01*
X138051653Y-116898604D01*
X138040568Y-116935144D01*
X138022567Y-116968821D01*
X137998341Y-116998341D01*
X137968821Y-117022567D01*
X137935144Y-117040568D01*
X137898604Y-117051653D01*
X137854462Y-117056000D01*
X136905538Y-117056000D01*
X136861396Y-117051653D01*
X136824856Y-117040568D01*
X136791179Y-117022567D01*
X136761659Y-116998341D01*
X136737433Y-116968821D01*
X136719432Y-116935144D01*
X136708347Y-116898604D01*
X136704000Y-116854462D01*
X136704000Y-115405538D01*
X136708347Y-115361396D01*
X136719432Y-115324856D01*
X136737433Y-115291179D01*
X136761659Y-115261659D01*
X136791179Y-115237433D01*
X136824856Y-115219432D01*
X136861396Y-115208347D01*
X136905538Y-115204000D01*
X137854462Y-115204000D01*
X137898604Y-115208347D01*
G37*
G36*
X135098604Y-115208347D02*
G01*
X135135144Y-115219432D01*
X135168821Y-115237433D01*
X135198341Y-115261659D01*
X135222567Y-115291179D01*
X135240568Y-115324856D01*
X135251653Y-115361396D01*
X135256000Y-115405538D01*
X135256000Y-116854462D01*
X135251653Y-116898604D01*
X135240568Y-116935144D01*
X135222567Y-116968821D01*
X135198341Y-116998341D01*
X135168821Y-117022567D01*
X135135144Y-117040568D01*
X135098604Y-117051653D01*
X135054462Y-117056000D01*
X134105538Y-117056000D01*
X134061396Y-117051653D01*
X134024856Y-117040568D01*
X133991179Y-117022567D01*
X133961659Y-116998341D01*
X133937433Y-116968821D01*
X133919432Y-116935144D01*
X133908347Y-116898604D01*
X133904000Y-116854462D01*
X133904000Y-115405538D01*
X133908347Y-115361396D01*
X133919432Y-115324856D01*
X133937433Y-115291179D01*
X133961659Y-115261659D01*
X133991179Y-115237433D01*
X134024856Y-115219432D01*
X134061396Y-115208347D01*
X134105538Y-115204000D01*
X135054462Y-115204000D01*
X135098604Y-115208347D01*
G37*
G36*
X129878228Y-115311703D02*
G01*
X130033100Y-115375853D01*
X130172481Y-115468985D01*
X130291015Y-115587519D01*
X130384147Y-115726900D01*
X130448297Y-115881772D01*
X130481000Y-116046184D01*
X130481000Y-116213816D01*
X130448297Y-116378228D01*
X130384147Y-116533100D01*
X130291015Y-116672481D01*
X130172481Y-116791015D01*
X130033100Y-116884147D01*
X129878228Y-116948297D01*
X129713816Y-116981000D01*
X129546184Y-116981000D01*
X129381772Y-116948297D01*
X129226900Y-116884147D01*
X129087519Y-116791015D01*
X128968985Y-116672481D01*
X128875853Y-116533100D01*
X128811703Y-116378228D01*
X128779000Y-116213816D01*
X128779000Y-116046184D01*
X128811703Y-115881772D01*
X128875853Y-115726900D01*
X128968985Y-115587519D01*
X129087519Y-115468985D01*
X129226900Y-115375853D01*
X129381772Y-115311703D01*
X129546184Y-115279000D01*
X129713816Y-115279000D01*
X129878228Y-115311703D01*
G37*
G36*
X145118228Y-115311703D02*
G01*
X145273100Y-115375853D01*
X145412481Y-115468985D01*
X145531015Y-115587519D01*
X145624147Y-115726900D01*
X145688297Y-115881772D01*
X145721000Y-116046184D01*
X145721000Y-116213816D01*
X145688297Y-116378228D01*
X145624147Y-116533100D01*
X145531015Y-116672481D01*
X145412481Y-116791015D01*
X145273100Y-116884147D01*
X145118228Y-116948297D01*
X144953816Y-116981000D01*
X144786184Y-116981000D01*
X144621772Y-116948297D01*
X144466900Y-116884147D01*
X144327519Y-116791015D01*
X144208985Y-116672481D01*
X144115853Y-116533100D01*
X144051703Y-116378228D01*
X144019000Y-116213816D01*
X144019000Y-116046184D01*
X144051703Y-115881772D01*
X144115853Y-115726900D01*
X144208985Y-115587519D01*
X144327519Y-115468985D01*
X144466900Y-115375853D01*
X144621772Y-115311703D01*
X144786184Y-115279000D01*
X144953816Y-115279000D01*
X145118228Y-115311703D01*
G37*
G36*
X137898604Y-112668347D02*
G01*
X137935144Y-112679432D01*
X137968821Y-112697433D01*
X137998341Y-112721659D01*
X138022567Y-112751179D01*
X138040568Y-112784856D01*
X138051653Y-112821396D01*
X138056000Y-112865538D01*
X138056000Y-114314462D01*
X138051653Y-114358604D01*
X138040568Y-114395144D01*
X138022567Y-114428821D01*
X137998341Y-114458341D01*
X137968821Y-114482567D01*
X137935144Y-114500568D01*
X137898604Y-114511653D01*
X137854462Y-114516000D01*
X136905538Y-114516000D01*
X136861396Y-114511653D01*
X136824856Y-114500568D01*
X136791179Y-114482567D01*
X136761659Y-114458341D01*
X136737433Y-114428821D01*
X136719432Y-114395144D01*
X136708347Y-114358604D01*
X136704000Y-114314462D01*
X136704000Y-112865538D01*
X136708347Y-112821396D01*
X136719432Y-112784856D01*
X136737433Y-112751179D01*
X136761659Y-112721659D01*
X136791179Y-112697433D01*
X136824856Y-112679432D01*
X136861396Y-112668347D01*
X136905538Y-112664000D01*
X137854462Y-112664000D01*
X137898604Y-112668347D01*
G37*
G36*
X135098604Y-112668347D02*
G01*
X135135144Y-112679432D01*
X135168821Y-112697433D01*
X135198341Y-112721659D01*
X135222567Y-112751179D01*
X135240568Y-112784856D01*
X135251653Y-112821396D01*
X135256000Y-112865538D01*
X135256000Y-114314462D01*
X135251653Y-114358604D01*
X135240568Y-114395144D01*
X135222567Y-114428821D01*
X135198341Y-114458341D01*
X135168821Y-114482567D01*
X135135144Y-114500568D01*
X135098604Y-114511653D01*
X135054462Y-114516000D01*
X134105538Y-114516000D01*
X134061396Y-114511653D01*
X134024856Y-114500568D01*
X133991179Y-114482567D01*
X133961659Y-114458341D01*
X133937433Y-114428821D01*
X133919432Y-114395144D01*
X133908347Y-114358604D01*
X133904000Y-114314462D01*
X133904000Y-112865538D01*
X133908347Y-112821396D01*
X133919432Y-112784856D01*
X133937433Y-112751179D01*
X133961659Y-112721659D01*
X133991179Y-112697433D01*
X134024856Y-112679432D01*
X134061396Y-112668347D01*
X134105538Y-112664000D01*
X135054462Y-112664000D01*
X135098604Y-112668347D01*
G37*
G36*
X145118228Y-112771703D02*
G01*
X145273100Y-112835853D01*
X145412481Y-112928985D01*
X145531015Y-113047519D01*
X145624147Y-113186900D01*
X145688297Y-113341772D01*
X145721000Y-113506184D01*
X145721000Y-113673816D01*
X145688297Y-113838228D01*
X145624147Y-113993100D01*
X145531015Y-114132481D01*
X145412481Y-114251015D01*
X145273100Y-114344147D01*
X145118228Y-114408297D01*
X144953816Y-114441000D01*
X144786184Y-114441000D01*
X144621772Y-114408297D01*
X144466900Y-114344147D01*
X144327519Y-114251015D01*
X144208985Y-114132481D01*
X144115853Y-113993100D01*
X144051703Y-113838228D01*
X144019000Y-113673816D01*
X144019000Y-113506184D01*
X144051703Y-113341772D01*
X144115853Y-113186900D01*
X144208985Y-113047519D01*
X144327519Y-112928985D01*
X144466900Y-112835853D01*
X144621772Y-112771703D01*
X144786184Y-112739000D01*
X144953816Y-112739000D01*
X145118228Y-112771703D01*
G37*
G36*
X129878228Y-112771703D02*
G01*
X130033100Y-112835853D01*
X130172481Y-112928985D01*
X130291015Y-113047519D01*
X130384147Y-113186900D01*
X130448297Y-113341772D01*
X130481000Y-113506184D01*
X130481000Y-113673816D01*
X130448297Y-113838228D01*
X130384147Y-113993100D01*
X130291015Y-114132481D01*
X130172481Y-114251015D01*
X130033100Y-114344147D01*
X129878228Y-114408297D01*
X129713816Y-114441000D01*
X129546184Y-114441000D01*
X129381772Y-114408297D01*
X129226900Y-114344147D01*
X129087519Y-114251015D01*
X128968985Y-114132481D01*
X128875853Y-113993100D01*
X128811703Y-113838228D01*
X128779000Y-113673816D01*
X128779000Y-113506184D01*
X128811703Y-113341772D01*
X128875853Y-113186900D01*
X128968985Y-113047519D01*
X129087519Y-112928985D01*
X129226900Y-112835853D01*
X129381772Y-112771703D01*
X129546184Y-112739000D01*
X129713816Y-112739000D01*
X129878228Y-112771703D01*
G37*
G36*
X129878228Y-110231703D02*
G01*
X130033100Y-110295853D01*
X130172481Y-110388985D01*
X130291015Y-110507519D01*
X130384147Y-110646900D01*
X130448297Y-110801772D01*
X130481000Y-110966184D01*
X130481000Y-111133816D01*
X130448297Y-111298228D01*
X130384147Y-111453100D01*
X130291015Y-111592481D01*
X130172481Y-111711015D01*
X130033100Y-111804147D01*
X129878228Y-111868297D01*
X129713816Y-111901000D01*
X129546184Y-111901000D01*
X129381772Y-111868297D01*
X129226900Y-111804147D01*
X129087519Y-111711015D01*
X128968985Y-111592481D01*
X128875853Y-111453100D01*
X128811703Y-111298228D01*
X128779000Y-111133816D01*
X128779000Y-110966184D01*
X128811703Y-110801772D01*
X128875853Y-110646900D01*
X128968985Y-110507519D01*
X129087519Y-110388985D01*
X129226900Y-110295853D01*
X129381772Y-110231703D01*
X129546184Y-110199000D01*
X129713816Y-110199000D01*
X129878228Y-110231703D01*
G37*
G36*
X145118228Y-110231703D02*
G01*
X145273100Y-110295853D01*
X145412481Y-110388985D01*
X145531015Y-110507519D01*
X145624147Y-110646900D01*
X145688297Y-110801772D01*
X145721000Y-110966184D01*
X145721000Y-111133816D01*
X145688297Y-111298228D01*
X145624147Y-111453100D01*
X145531015Y-111592481D01*
X145412481Y-111711015D01*
X145273100Y-111804147D01*
X145118228Y-111868297D01*
X144953816Y-111901000D01*
X144786184Y-111901000D01*
X144621772Y-111868297D01*
X144466900Y-111804147D01*
X144327519Y-111711015D01*
X144208985Y-111592481D01*
X144115853Y-111453100D01*
X144051703Y-111298228D01*
X144019000Y-111133816D01*
X144019000Y-110966184D01*
X144051703Y-110801772D01*
X144115853Y-110646900D01*
X144208985Y-110507519D01*
X144327519Y-110388985D01*
X144466900Y-110295853D01*
X144621772Y-110231703D01*
X144786184Y-110199000D01*
X144953816Y-110199000D01*
X145118228Y-110231703D01*
G37*
G36*
X115241000Y-111901000D02*
G01*
X113539000Y-111901000D01*
X113539000Y-110199000D01*
X115241000Y-110199000D01*
X115241000Y-111901000D01*
G37*
G36*
X137898604Y-108858347D02*
G01*
X137935144Y-108869432D01*
X137968821Y-108887433D01*
X137998341Y-108911659D01*
X138022567Y-108941179D01*
X138040568Y-108974856D01*
X138051653Y-109011396D01*
X138056000Y-109055538D01*
X138056000Y-110504462D01*
X138051653Y-110548604D01*
X138040568Y-110585144D01*
X138022567Y-110618821D01*
X137998341Y-110648341D01*
X137968821Y-110672567D01*
X137935144Y-110690568D01*
X137898604Y-110701653D01*
X137854462Y-110706000D01*
X136905538Y-110706000D01*
X136861396Y-110701653D01*
X136824856Y-110690568D01*
X136791179Y-110672567D01*
X136761659Y-110648341D01*
X136737433Y-110618821D01*
X136719432Y-110585144D01*
X136708347Y-110548604D01*
X136704000Y-110504462D01*
X136704000Y-109055538D01*
X136708347Y-109011396D01*
X136719432Y-108974856D01*
X136737433Y-108941179D01*
X136761659Y-108911659D01*
X136791179Y-108887433D01*
X136824856Y-108869432D01*
X136861396Y-108858347D01*
X136905538Y-108854000D01*
X137854462Y-108854000D01*
X137898604Y-108858347D01*
G37*
G36*
X135098604Y-108858347D02*
G01*
X135135144Y-108869432D01*
X135168821Y-108887433D01*
X135198341Y-108911659D01*
X135222567Y-108941179D01*
X135240568Y-108974856D01*
X135251653Y-109011396D01*
X135256000Y-109055538D01*
X135256000Y-110504462D01*
X135251653Y-110548604D01*
X135240568Y-110585144D01*
X135222567Y-110618821D01*
X135198341Y-110648341D01*
X135168821Y-110672567D01*
X135135144Y-110690568D01*
X135098604Y-110701653D01*
X135054462Y-110706000D01*
X134105538Y-110706000D01*
X134061396Y-110701653D01*
X134024856Y-110690568D01*
X133991179Y-110672567D01*
X133961659Y-110648341D01*
X133937433Y-110618821D01*
X133919432Y-110585144D01*
X133908347Y-110548604D01*
X133904000Y-110504462D01*
X133904000Y-109055538D01*
X133908347Y-109011396D01*
X133919432Y-108974856D01*
X133937433Y-108941179D01*
X133961659Y-108911659D01*
X133991179Y-108887433D01*
X134024856Y-108869432D01*
X134061396Y-108858347D01*
X134105538Y-108854000D01*
X135054462Y-108854000D01*
X135098604Y-108858347D01*
G37*
G36*
X111798228Y-108846703D02*
G01*
X111953100Y-108910853D01*
X112092481Y-109003985D01*
X112211015Y-109122519D01*
X112304147Y-109261900D01*
X112368297Y-109416772D01*
X112401000Y-109581184D01*
X112401000Y-109748816D01*
X112368297Y-109913228D01*
X112304147Y-110068100D01*
X112211015Y-110207481D01*
X112092481Y-110326015D01*
X111953100Y-110419147D01*
X111798228Y-110483297D01*
X111633816Y-110516000D01*
X111466184Y-110516000D01*
X111301772Y-110483297D01*
X111146900Y-110419147D01*
X111007519Y-110326015D01*
X110888985Y-110207481D01*
X110795853Y-110068100D01*
X110731703Y-109913228D01*
X110699000Y-109748816D01*
X110699000Y-109581184D01*
X110731703Y-109416772D01*
X110795853Y-109261900D01*
X110888985Y-109122519D01*
X111007519Y-109003985D01*
X111146900Y-108910853D01*
X111301772Y-108846703D01*
X111466184Y-108814000D01*
X111633816Y-108814000D01*
X111798228Y-108846703D01*
G37*
G36*
X122658604Y-107588347D02*
G01*
X122695144Y-107599432D01*
X122728821Y-107617433D01*
X122758341Y-107641659D01*
X122782567Y-107671179D01*
X122800568Y-107704856D01*
X122811653Y-107741396D01*
X122816000Y-107785538D01*
X122816000Y-109234462D01*
X122811653Y-109278604D01*
X122800568Y-109315144D01*
X122782567Y-109348821D01*
X122758341Y-109378341D01*
X122728821Y-109402567D01*
X122695144Y-109420568D01*
X122658604Y-109431653D01*
X122614462Y-109436000D01*
X121665538Y-109436000D01*
X121621396Y-109431653D01*
X121584856Y-109420568D01*
X121551179Y-109402567D01*
X121521659Y-109378341D01*
X121497433Y-109348821D01*
X121479432Y-109315144D01*
X121468347Y-109278604D01*
X121464000Y-109234462D01*
X121464000Y-107785538D01*
X121468347Y-107741396D01*
X121479432Y-107704856D01*
X121497433Y-107671179D01*
X121521659Y-107641659D01*
X121551179Y-107617433D01*
X121584856Y-107599432D01*
X121621396Y-107588347D01*
X121665538Y-107584000D01*
X122614462Y-107584000D01*
X122658604Y-107588347D01*
G37*
G36*
X119858604Y-107588347D02*
G01*
X119895144Y-107599432D01*
X119928821Y-107617433D01*
X119958341Y-107641659D01*
X119982567Y-107671179D01*
X120000568Y-107704856D01*
X120011653Y-107741396D01*
X120016000Y-107785538D01*
X120016000Y-109234462D01*
X120011653Y-109278604D01*
X120000568Y-109315144D01*
X119982567Y-109348821D01*
X119958341Y-109378341D01*
X119928821Y-109402567D01*
X119895144Y-109420568D01*
X119858604Y-109431653D01*
X119814462Y-109436000D01*
X118865538Y-109436000D01*
X118821396Y-109431653D01*
X118784856Y-109420568D01*
X118751179Y-109402567D01*
X118721659Y-109378341D01*
X118697433Y-109348821D01*
X118679432Y-109315144D01*
X118668347Y-109278604D01*
X118664000Y-109234462D01*
X118664000Y-107785538D01*
X118668347Y-107741396D01*
X118679432Y-107704856D01*
X118697433Y-107671179D01*
X118721659Y-107641659D01*
X118751179Y-107617433D01*
X118784856Y-107599432D01*
X118821396Y-107588347D01*
X118865538Y-107584000D01*
X119814462Y-107584000D01*
X119858604Y-107588347D01*
G37*
G36*
X145118228Y-107691703D02*
G01*
X145273100Y-107755853D01*
X145412481Y-107848985D01*
X145531015Y-107967519D01*
X145624147Y-108106900D01*
X145688297Y-108261772D01*
X145721000Y-108426184D01*
X145721000Y-108593816D01*
X145688297Y-108758228D01*
X145624147Y-108913100D01*
X145531015Y-109052481D01*
X145412481Y-109171015D01*
X145273100Y-109264147D01*
X145118228Y-109328297D01*
X144953816Y-109361000D01*
X144786184Y-109361000D01*
X144621772Y-109328297D01*
X144466900Y-109264147D01*
X144327519Y-109171015D01*
X144208985Y-109052481D01*
X144115853Y-108913100D01*
X144051703Y-108758228D01*
X144019000Y-108593816D01*
X144019000Y-108426184D01*
X144051703Y-108261772D01*
X144115853Y-108106900D01*
X144208985Y-107967519D01*
X144327519Y-107848985D01*
X144466900Y-107755853D01*
X144621772Y-107691703D01*
X144786184Y-107659000D01*
X144953816Y-107659000D01*
X145118228Y-107691703D01*
G37*
G36*
X129878228Y-107691703D02*
G01*
X130033100Y-107755853D01*
X130172481Y-107848985D01*
X130291015Y-107967519D01*
X130384147Y-108106900D01*
X130448297Y-108261772D01*
X130481000Y-108426184D01*
X130481000Y-108593816D01*
X130448297Y-108758228D01*
X130384147Y-108913100D01*
X130291015Y-109052481D01*
X130172481Y-109171015D01*
X130033100Y-109264147D01*
X129878228Y-109328297D01*
X129713816Y-109361000D01*
X129546184Y-109361000D01*
X129381772Y-109328297D01*
X129226900Y-109264147D01*
X129087519Y-109171015D01*
X128968985Y-109052481D01*
X128875853Y-108913100D01*
X128811703Y-108758228D01*
X128779000Y-108593816D01*
X128779000Y-108426184D01*
X128811703Y-108261772D01*
X128875853Y-108106900D01*
X128968985Y-107967519D01*
X129087519Y-107848985D01*
X129226900Y-107755853D01*
X129381772Y-107691703D01*
X129546184Y-107659000D01*
X129713816Y-107659000D01*
X129878228Y-107691703D01*
G37*
G36*
X114638228Y-107461703D02*
G01*
X114793100Y-107525853D01*
X114932481Y-107618985D01*
X115051015Y-107737519D01*
X115144147Y-107876900D01*
X115208297Y-108031772D01*
X115241000Y-108196184D01*
X115241000Y-108363816D01*
X115208297Y-108528228D01*
X115144147Y-108683100D01*
X115051015Y-108822481D01*
X114932481Y-108941015D01*
X114793100Y-109034147D01*
X114638228Y-109098297D01*
X114473816Y-109131000D01*
X114306184Y-109131000D01*
X114141772Y-109098297D01*
X113986900Y-109034147D01*
X113847519Y-108941015D01*
X113728985Y-108822481D01*
X113635853Y-108683100D01*
X113571703Y-108528228D01*
X113539000Y-108363816D01*
X113539000Y-108196184D01*
X113571703Y-108031772D01*
X113635853Y-107876900D01*
X113728985Y-107737519D01*
X113847519Y-107618985D01*
X113986900Y-107525853D01*
X114141772Y-107461703D01*
X114306184Y-107429000D01*
X114473816Y-107429000D01*
X114638228Y-107461703D01*
G37*
G36*
X135098604Y-106318347D02*
G01*
X135135144Y-106329432D01*
X135168821Y-106347433D01*
X135198341Y-106371659D01*
X135222567Y-106401179D01*
X135240568Y-106434856D01*
X135251653Y-106471396D01*
X135256000Y-106515538D01*
X135256000Y-107964462D01*
X135251653Y-108008604D01*
X135240568Y-108045144D01*
X135222567Y-108078821D01*
X135198341Y-108108341D01*
X135168821Y-108132567D01*
X135135144Y-108150568D01*
X135098604Y-108161653D01*
X135054462Y-108166000D01*
X134105538Y-108166000D01*
X134061396Y-108161653D01*
X134024856Y-108150568D01*
X133991179Y-108132567D01*
X133961659Y-108108341D01*
X133937433Y-108078821D01*
X133919432Y-108045144D01*
X133908347Y-108008604D01*
X133904000Y-107964462D01*
X133904000Y-106515538D01*
X133908347Y-106471396D01*
X133919432Y-106434856D01*
X133937433Y-106401179D01*
X133961659Y-106371659D01*
X133991179Y-106347433D01*
X134024856Y-106329432D01*
X134061396Y-106318347D01*
X134105538Y-106314000D01*
X135054462Y-106314000D01*
X135098604Y-106318347D01*
G37*
G36*
X137898604Y-106318347D02*
G01*
X137935144Y-106329432D01*
X137968821Y-106347433D01*
X137998341Y-106371659D01*
X138022567Y-106401179D01*
X138040568Y-106434856D01*
X138051653Y-106471396D01*
X138056000Y-106515538D01*
X138056000Y-107964462D01*
X138051653Y-108008604D01*
X138040568Y-108045144D01*
X138022567Y-108078821D01*
X137998341Y-108108341D01*
X137968821Y-108132567D01*
X137935144Y-108150568D01*
X137898604Y-108161653D01*
X137854462Y-108166000D01*
X136905538Y-108166000D01*
X136861396Y-108161653D01*
X136824856Y-108150568D01*
X136791179Y-108132567D01*
X136761659Y-108108341D01*
X136737433Y-108078821D01*
X136719432Y-108045144D01*
X136708347Y-108008604D01*
X136704000Y-107964462D01*
X136704000Y-106515538D01*
X136708347Y-106471396D01*
X136719432Y-106434856D01*
X136737433Y-106401179D01*
X136761659Y-106371659D01*
X136791179Y-106347433D01*
X136824856Y-106329432D01*
X136861396Y-106318347D01*
X136905538Y-106314000D01*
X137854462Y-106314000D01*
X137898604Y-106318347D01*
G37*
G36*
X111798228Y-106076703D02*
G01*
X111953100Y-106140853D01*
X112092481Y-106233985D01*
X112211015Y-106352519D01*
X112304147Y-106491900D01*
X112368297Y-106646772D01*
X112401000Y-106811184D01*
X112401000Y-106978816D01*
X112368297Y-107143228D01*
X112304147Y-107298100D01*
X112211015Y-107437481D01*
X112092481Y-107556015D01*
X111953100Y-107649147D01*
X111798228Y-107713297D01*
X111633816Y-107746000D01*
X111466184Y-107746000D01*
X111301772Y-107713297D01*
X111146900Y-107649147D01*
X111007519Y-107556015D01*
X110888985Y-107437481D01*
X110795853Y-107298100D01*
X110731703Y-107143228D01*
X110699000Y-106978816D01*
X110699000Y-106811184D01*
X110731703Y-106646772D01*
X110795853Y-106491900D01*
X110888985Y-106352519D01*
X111007519Y-106233985D01*
X111146900Y-106140853D01*
X111301772Y-106076703D01*
X111466184Y-106044000D01*
X111633816Y-106044000D01*
X111798228Y-106076703D01*
G37*
G36*
X145118228Y-105151703D02*
G01*
X145273100Y-105215853D01*
X145412481Y-105308985D01*
X145531015Y-105427519D01*
X145624147Y-105566900D01*
X145688297Y-105721772D01*
X145721000Y-105886184D01*
X145721000Y-106053816D01*
X145688297Y-106218228D01*
X145624147Y-106373100D01*
X145531015Y-106512481D01*
X145412481Y-106631015D01*
X145273100Y-106724147D01*
X145118228Y-106788297D01*
X144953816Y-106821000D01*
X144786184Y-106821000D01*
X144621772Y-106788297D01*
X144466900Y-106724147D01*
X144327519Y-106631015D01*
X144208985Y-106512481D01*
X144115853Y-106373100D01*
X144051703Y-106218228D01*
X144019000Y-106053816D01*
X144019000Y-105886184D01*
X144051703Y-105721772D01*
X144115853Y-105566900D01*
X144208985Y-105427519D01*
X144327519Y-105308985D01*
X144466900Y-105215853D01*
X144621772Y-105151703D01*
X144786184Y-105119000D01*
X144953816Y-105119000D01*
X145118228Y-105151703D01*
G37*
G36*
X129878228Y-105151703D02*
G01*
X130033100Y-105215853D01*
X130172481Y-105308985D01*
X130291015Y-105427519D01*
X130384147Y-105566900D01*
X130448297Y-105721772D01*
X130481000Y-105886184D01*
X130481000Y-106053816D01*
X130448297Y-106218228D01*
X130384147Y-106373100D01*
X130291015Y-106512481D01*
X130172481Y-106631015D01*
X130033100Y-106724147D01*
X129878228Y-106788297D01*
X129713816Y-106821000D01*
X129546184Y-106821000D01*
X129381772Y-106788297D01*
X129226900Y-106724147D01*
X129087519Y-106631015D01*
X128968985Y-106512481D01*
X128875853Y-106373100D01*
X128811703Y-106218228D01*
X128779000Y-106053816D01*
X128779000Y-105886184D01*
X128811703Y-105721772D01*
X128875853Y-105566900D01*
X128968985Y-105427519D01*
X129087519Y-105308985D01*
X129226900Y-105215853D01*
X129381772Y-105151703D01*
X129546184Y-105119000D01*
X129713816Y-105119000D01*
X129878228Y-105151703D01*
G37*
G36*
X122122916Y-105177334D02*
G01*
X122231492Y-105210271D01*
X122231495Y-105210272D01*
X122267601Y-105229571D01*
X122331557Y-105263756D01*
X122419264Y-105335736D01*
X122482383Y-105412646D01*
X122499702Y-105429965D01*
X122520077Y-105443579D01*
X122542716Y-105452957D01*
X122566749Y-105457737D01*
X122591253Y-105457737D01*
X122615286Y-105452957D01*
X122637925Y-105443579D01*
X122658299Y-105429966D01*
X122675626Y-105412639D01*
X122689240Y-105392264D01*
X122698618Y-105369625D01*
X122703398Y-105345592D01*
X122704000Y-105333340D01*
X122704000Y-105169000D01*
X123856000Y-105169000D01*
X123856000Y-106771000D01*
X122704000Y-106771000D01*
X122704000Y-106606660D01*
X122701598Y-106582274D01*
X122694485Y-106558825D01*
X122682934Y-106537214D01*
X122667389Y-106518272D01*
X122648447Y-106502727D01*
X122626836Y-106491176D01*
X122603387Y-106484063D01*
X122579001Y-106481661D01*
X122554615Y-106484063D01*
X122531166Y-106491176D01*
X122509555Y-106502727D01*
X122482381Y-106527356D01*
X122419264Y-106604264D01*
X122331556Y-106676244D01*
X122267600Y-106710429D01*
X122231494Y-106729728D01*
X122231491Y-106729729D01*
X122122915Y-106762666D01*
X122010000Y-106773787D01*
X121897084Y-106762666D01*
X121788508Y-106729729D01*
X121788505Y-106729728D01*
X121752399Y-106710429D01*
X121688443Y-106676244D01*
X121600736Y-106604264D01*
X121528756Y-106516556D01*
X121485239Y-106435140D01*
X121471625Y-106414766D01*
X121454298Y-106397439D01*
X121433924Y-106383825D01*
X121411285Y-106374448D01*
X121387251Y-106369668D01*
X121362747Y-106369668D01*
X121338714Y-106374449D01*
X121316075Y-106383826D01*
X121295701Y-106397440D01*
X121278374Y-106414767D01*
X121264762Y-106435140D01*
X121221244Y-106516557D01*
X121149264Y-106604264D01*
X121061556Y-106676244D01*
X120997600Y-106710429D01*
X120961494Y-106729728D01*
X120961491Y-106729729D01*
X120852915Y-106762666D01*
X120740000Y-106773787D01*
X120627084Y-106762666D01*
X120518508Y-106729729D01*
X120518505Y-106729728D01*
X120482399Y-106710429D01*
X120418443Y-106676244D01*
X120330736Y-106604264D01*
X120258756Y-106516556D01*
X120215087Y-106434856D01*
X120205272Y-106416494D01*
X120199492Y-106397440D01*
X120172334Y-106307915D01*
X120164000Y-106223297D01*
X120164000Y-105716702D01*
X120172334Y-105632084D01*
X120205271Y-105523508D01*
X120205272Y-105523505D01*
X120258756Y-105423445D01*
X120258757Y-105423443D01*
X120330737Y-105335736D01*
X120418444Y-105263756D01*
X120482400Y-105229571D01*
X120518506Y-105210272D01*
X120518509Y-105210271D01*
X120627085Y-105177334D01*
X120740000Y-105166213D01*
X120852916Y-105177334D01*
X120961492Y-105210271D01*
X120961495Y-105210272D01*
X120997601Y-105229571D01*
X121061557Y-105263756D01*
X121149264Y-105335736D01*
X121221244Y-105423443D01*
X121254369Y-105485417D01*
X121264761Y-105504859D01*
X121278375Y-105525234D01*
X121295702Y-105542561D01*
X121316076Y-105556174D01*
X121338715Y-105565552D01*
X121362748Y-105570332D01*
X121387252Y-105570332D01*
X121411285Y-105565552D01*
X121433924Y-105556174D01*
X121454299Y-105542560D01*
X121471626Y-105525233D01*
X121485239Y-105504859D01*
X121528756Y-105423445D01*
X121528757Y-105423443D01*
X121600737Y-105335736D01*
X121688444Y-105263756D01*
X121752400Y-105229571D01*
X121788506Y-105210272D01*
X121788509Y-105210271D01*
X121897085Y-105177334D01*
X122010000Y-105166213D01*
X122122916Y-105177334D01*
G37*
G36*
X114638228Y-104691703D02*
G01*
X114793100Y-104755853D01*
X114932481Y-104848985D01*
X115051015Y-104967519D01*
X115144147Y-105106900D01*
X115208297Y-105261772D01*
X115241000Y-105426184D01*
X115241000Y-105593816D01*
X115208297Y-105758228D01*
X115144147Y-105913100D01*
X115051015Y-106052481D01*
X114932481Y-106171015D01*
X114793100Y-106264147D01*
X114638228Y-106328297D01*
X114473816Y-106361000D01*
X114306184Y-106361000D01*
X114141772Y-106328297D01*
X113986900Y-106264147D01*
X113847519Y-106171015D01*
X113728985Y-106052481D01*
X113635853Y-105913100D01*
X113571703Y-105758228D01*
X113539000Y-105593816D01*
X113539000Y-105426184D01*
X113571703Y-105261772D01*
X113635853Y-105106900D01*
X113728985Y-104967519D01*
X113847519Y-104848985D01*
X113986900Y-104755853D01*
X114141772Y-104691703D01*
X114306184Y-104659000D01*
X114473816Y-104659000D01*
X114638228Y-104691703D01*
G37*
G36*
X138018604Y-104158347D02*
G01*
X138055144Y-104169432D01*
X138088821Y-104187433D01*
X138118341Y-104211659D01*
X138142567Y-104241179D01*
X138160568Y-104274856D01*
X138171653Y-104311396D01*
X138176000Y-104355538D01*
X138176000Y-105304462D01*
X138171653Y-105348604D01*
X138160568Y-105385144D01*
X138142567Y-105418821D01*
X138118341Y-105448341D01*
X138088821Y-105472567D01*
X138055144Y-105490568D01*
X138018604Y-105501653D01*
X137974462Y-105506000D01*
X136525538Y-105506000D01*
X136481396Y-105501653D01*
X136444856Y-105490568D01*
X136411179Y-105472567D01*
X136381659Y-105448341D01*
X136357433Y-105418821D01*
X136339432Y-105385144D01*
X136328347Y-105348604D01*
X136324000Y-105304462D01*
X136324000Y-104355538D01*
X136328347Y-104311396D01*
X136339432Y-104274856D01*
X136357433Y-104241179D01*
X136381659Y-104211659D01*
X136411179Y-104187433D01*
X136444856Y-104169432D01*
X136481396Y-104158347D01*
X136525538Y-104154000D01*
X137974462Y-104154000D01*
X138018604Y-104158347D01*
G37*
G36*
X135478604Y-104158347D02*
G01*
X135515144Y-104169432D01*
X135548821Y-104187433D01*
X135578341Y-104211659D01*
X135602567Y-104241179D01*
X135620568Y-104274856D01*
X135631653Y-104311396D01*
X135636000Y-104355538D01*
X135636000Y-105304462D01*
X135631653Y-105348604D01*
X135620568Y-105385144D01*
X135602567Y-105418821D01*
X135578341Y-105448341D01*
X135548821Y-105472567D01*
X135515144Y-105490568D01*
X135478604Y-105501653D01*
X135434462Y-105506000D01*
X133985538Y-105506000D01*
X133941396Y-105501653D01*
X133904856Y-105490568D01*
X133871179Y-105472567D01*
X133841659Y-105448341D01*
X133817433Y-105418821D01*
X133799432Y-105385144D01*
X133788347Y-105348604D01*
X133784000Y-105304462D01*
X133784000Y-104355538D01*
X133788347Y-104311396D01*
X133799432Y-104274856D01*
X133817433Y-104241179D01*
X133841659Y-104211659D01*
X133871179Y-104187433D01*
X133904856Y-104169432D01*
X133941396Y-104158347D01*
X133985538Y-104154000D01*
X135434462Y-104154000D01*
X135478604Y-104158347D01*
G37*
G36*
X111798228Y-103306703D02*
G01*
X111953100Y-103370853D01*
X112092481Y-103463985D01*
X112211015Y-103582519D01*
X112304147Y-103721900D01*
X112368297Y-103876772D01*
X112401000Y-104041184D01*
X112401000Y-104208816D01*
X112368297Y-104373228D01*
X112304147Y-104528100D01*
X112211015Y-104667481D01*
X112092481Y-104786015D01*
X111953100Y-104879147D01*
X111798228Y-104943297D01*
X111633816Y-104976000D01*
X111466184Y-104976000D01*
X111301772Y-104943297D01*
X111146900Y-104879147D01*
X111007519Y-104786015D01*
X110888985Y-104667481D01*
X110795853Y-104528100D01*
X110731703Y-104373228D01*
X110699000Y-104208816D01*
X110699000Y-104041184D01*
X110731703Y-103876772D01*
X110795853Y-103721900D01*
X110888985Y-103582519D01*
X111007519Y-103463985D01*
X111146900Y-103370853D01*
X111301772Y-103306703D01*
X111466184Y-103274000D01*
X111633816Y-103274000D01*
X111798228Y-103306703D01*
G37*
G36*
X78886153Y-102415922D02*
G01*
X78933659Y-102435600D01*
X79108359Y-102507963D01*
X79308342Y-102641587D01*
X79478413Y-102811658D01*
X79612037Y-103011641D01*
X79642483Y-103085144D01*
X79704078Y-103233847D01*
X79713752Y-103282481D01*
X79751000Y-103469741D01*
X79751000Y-103710259D01*
X79704078Y-103946152D01*
X79612037Y-104168359D01*
X79478413Y-104368342D01*
X79308342Y-104538413D01*
X79108359Y-104672037D01*
X78978194Y-104725953D01*
X78886153Y-104764078D01*
X78775867Y-104786015D01*
X78650259Y-104811000D01*
X78409741Y-104811000D01*
X78284133Y-104786015D01*
X78173847Y-104764078D01*
X78081806Y-104725953D01*
X77951641Y-104672037D01*
X77751658Y-104538413D01*
X77581587Y-104368342D01*
X77447963Y-104168359D01*
X77355922Y-103946152D01*
X77309000Y-103710259D01*
X77309000Y-103469741D01*
X77346248Y-103282481D01*
X77355922Y-103233847D01*
X77417517Y-103085144D01*
X77447963Y-103011641D01*
X77581587Y-102811658D01*
X77751658Y-102641587D01*
X77951641Y-102507963D01*
X78126341Y-102435600D01*
X78173847Y-102415922D01*
X78409741Y-102369000D01*
X78650259Y-102369000D01*
X78886153Y-102415922D01*
G37*
G36*
X145118228Y-102611703D02*
G01*
X145273100Y-102675853D01*
X145412481Y-102768985D01*
X145531015Y-102887519D01*
X145624147Y-103026900D01*
X145688297Y-103181772D01*
X145721000Y-103346184D01*
X145721000Y-103513816D01*
X145688297Y-103678228D01*
X145624147Y-103833100D01*
X145531015Y-103972481D01*
X145412481Y-104091015D01*
X145273100Y-104184147D01*
X145118228Y-104248297D01*
X144953816Y-104281000D01*
X144786184Y-104281000D01*
X144621772Y-104248297D01*
X144466900Y-104184147D01*
X144327519Y-104091015D01*
X144208985Y-103972481D01*
X144115853Y-103833100D01*
X144051703Y-103678228D01*
X144019000Y-103513816D01*
X144019000Y-103346184D01*
X144051703Y-103181772D01*
X144115853Y-103026900D01*
X144208985Y-102887519D01*
X144327519Y-102768985D01*
X144466900Y-102675853D01*
X144621772Y-102611703D01*
X144786184Y-102579000D01*
X144953816Y-102579000D01*
X145118228Y-102611703D01*
G37*
G36*
X129878228Y-102611703D02*
G01*
X130033100Y-102675853D01*
X130172481Y-102768985D01*
X130291015Y-102887519D01*
X130384147Y-103026900D01*
X130448297Y-103181772D01*
X130481000Y-103346184D01*
X130481000Y-103513816D01*
X130448297Y-103678228D01*
X130384147Y-103833100D01*
X130291015Y-103972481D01*
X130172481Y-104091015D01*
X130033100Y-104184147D01*
X129878228Y-104248297D01*
X129713816Y-104281000D01*
X129546184Y-104281000D01*
X129381772Y-104248297D01*
X129226900Y-104184147D01*
X129087519Y-104091015D01*
X128968985Y-103972481D01*
X128875853Y-103833100D01*
X128811703Y-103678228D01*
X128779000Y-103513816D01*
X128779000Y-103346184D01*
X128811703Y-103181772D01*
X128875853Y-103026900D01*
X128968985Y-102887519D01*
X129087519Y-102768985D01*
X129226900Y-102675853D01*
X129381772Y-102611703D01*
X129546184Y-102579000D01*
X129713816Y-102579000D01*
X129878228Y-102611703D01*
G37*
G36*
X114638228Y-101921703D02*
G01*
X114793100Y-101985853D01*
X114932481Y-102078985D01*
X115051015Y-102197519D01*
X115144147Y-102336900D01*
X115208297Y-102491772D01*
X115241000Y-102656184D01*
X115241000Y-102823816D01*
X115208297Y-102988228D01*
X115144147Y-103143100D01*
X115051015Y-103282481D01*
X114932481Y-103401015D01*
X114793100Y-103494147D01*
X114638228Y-103558297D01*
X114473816Y-103591000D01*
X114306184Y-103591000D01*
X114141772Y-103558297D01*
X113986900Y-103494147D01*
X113847519Y-103401015D01*
X113728985Y-103282481D01*
X113635853Y-103143100D01*
X113571703Y-102988228D01*
X113539000Y-102823816D01*
X113539000Y-102656184D01*
X113571703Y-102491772D01*
X113635853Y-102336900D01*
X113728985Y-102197519D01*
X113847519Y-102078985D01*
X113986900Y-101985853D01*
X114141772Y-101921703D01*
X114306184Y-101889000D01*
X114473816Y-101889000D01*
X114638228Y-101921703D01*
G37*
G36*
X88168254Y-99417818D02*
G01*
X88528170Y-99566900D01*
X88541513Y-99572427D01*
X88877436Y-99796884D01*
X89163116Y-100082564D01*
X89375758Y-100400804D01*
X89387574Y-100418489D01*
X89542182Y-100791746D01*
X89621000Y-101187993D01*
X89621000Y-101592007D01*
X89542182Y-101988254D01*
X89397768Y-102336900D01*
X89387573Y-102361513D01*
X89163116Y-102697436D01*
X88877436Y-102983116D01*
X88541513Y-103207573D01*
X88541512Y-103207574D01*
X88541511Y-103207574D01*
X88168254Y-103362182D01*
X87772007Y-103441000D01*
X87367993Y-103441000D01*
X86971746Y-103362182D01*
X86598489Y-103207574D01*
X86598488Y-103207574D01*
X86598487Y-103207573D01*
X86262564Y-102983116D01*
X85976884Y-102697436D01*
X85752427Y-102361513D01*
X85742232Y-102336900D01*
X85597818Y-101988254D01*
X85519000Y-101592007D01*
X85519000Y-101187993D01*
X85597818Y-100791746D01*
X85752426Y-100418489D01*
X85764243Y-100400804D01*
X85976884Y-100082564D01*
X86262564Y-99796884D01*
X86598487Y-99572427D01*
X86611830Y-99566900D01*
X86971746Y-99417818D01*
X87367993Y-99339000D01*
X87772007Y-99339000D01*
X88168254Y-99417818D01*
G37*
G36*
X75488604Y-101858347D02*
G01*
X75525144Y-101869432D01*
X75558821Y-101887433D01*
X75588341Y-101911659D01*
X75612567Y-101941179D01*
X75630568Y-101974856D01*
X75641653Y-102011396D01*
X75646000Y-102055538D01*
X75646000Y-103004462D01*
X75641653Y-103048604D01*
X75630568Y-103085144D01*
X75612567Y-103118821D01*
X75588341Y-103148341D01*
X75558821Y-103172567D01*
X75525144Y-103190568D01*
X75488604Y-103201653D01*
X75444462Y-103206000D01*
X73995538Y-103206000D01*
X73951396Y-103201653D01*
X73914856Y-103190568D01*
X73881179Y-103172567D01*
X73851659Y-103148341D01*
X73827433Y-103118821D01*
X73809432Y-103085144D01*
X73798347Y-103048604D01*
X73794000Y-103004462D01*
X73794000Y-102055538D01*
X73798347Y-102011396D01*
X73809432Y-101974856D01*
X73827433Y-101941179D01*
X73851659Y-101911659D01*
X73881179Y-101887433D01*
X73914856Y-101869432D01*
X73951396Y-101858347D01*
X73995538Y-101854000D01*
X75444462Y-101854000D01*
X75488604Y-101858347D01*
G37*
G36*
X138018604Y-101358347D02*
G01*
X138055144Y-101369432D01*
X138088821Y-101387433D01*
X138118341Y-101411659D01*
X138142567Y-101441179D01*
X138160568Y-101474856D01*
X138171653Y-101511396D01*
X138176000Y-101555538D01*
X138176000Y-102504462D01*
X138171653Y-102548604D01*
X138160568Y-102585144D01*
X138142567Y-102618821D01*
X138118341Y-102648341D01*
X138088821Y-102672567D01*
X138055144Y-102690568D01*
X138018604Y-102701653D01*
X137974462Y-102706000D01*
X136525538Y-102706000D01*
X136481396Y-102701653D01*
X136444856Y-102690568D01*
X136411179Y-102672567D01*
X136381659Y-102648341D01*
X136357433Y-102618821D01*
X136339432Y-102585144D01*
X136328347Y-102548604D01*
X136324000Y-102504462D01*
X136324000Y-101555538D01*
X136328347Y-101511396D01*
X136339432Y-101474856D01*
X136357433Y-101441179D01*
X136381659Y-101411659D01*
X136411179Y-101387433D01*
X136444856Y-101369432D01*
X136481396Y-101358347D01*
X136525538Y-101354000D01*
X137974462Y-101354000D01*
X138018604Y-101358347D01*
G37*
G36*
X135478604Y-101358347D02*
G01*
X135515144Y-101369432D01*
X135548821Y-101387433D01*
X135578341Y-101411659D01*
X135602567Y-101441179D01*
X135620568Y-101474856D01*
X135631653Y-101511396D01*
X135636000Y-101555538D01*
X135636000Y-102504462D01*
X135631653Y-102548604D01*
X135620568Y-102585144D01*
X135602567Y-102618821D01*
X135578341Y-102648341D01*
X135548821Y-102672567D01*
X135515144Y-102690568D01*
X135478604Y-102701653D01*
X135434462Y-102706000D01*
X133985538Y-102706000D01*
X133941396Y-102701653D01*
X133904856Y-102690568D01*
X133871179Y-102672567D01*
X133841659Y-102648341D01*
X133817433Y-102618821D01*
X133799432Y-102585144D01*
X133788347Y-102548604D01*
X133784000Y-102504462D01*
X133784000Y-101555538D01*
X133788347Y-101511396D01*
X133799432Y-101474856D01*
X133817433Y-101441179D01*
X133841659Y-101411659D01*
X133871179Y-101387433D01*
X133904856Y-101369432D01*
X133941396Y-101358347D01*
X133985538Y-101354000D01*
X135434462Y-101354000D01*
X135478604Y-101358347D01*
G37*
G36*
X111798228Y-100536703D02*
G01*
X111953100Y-100600853D01*
X112092481Y-100693985D01*
X112211015Y-100812519D01*
X112304147Y-100951900D01*
X112368297Y-101106772D01*
X112401000Y-101271184D01*
X112401000Y-101438816D01*
X112368297Y-101603228D01*
X112304147Y-101758100D01*
X112211015Y-101897481D01*
X112092481Y-102016015D01*
X111953100Y-102109147D01*
X111798228Y-102173297D01*
X111633816Y-102206000D01*
X111466184Y-102206000D01*
X111301772Y-102173297D01*
X111146900Y-102109147D01*
X111007519Y-102016015D01*
X110888985Y-101897481D01*
X110795853Y-101758100D01*
X110731703Y-101603228D01*
X110699000Y-101438816D01*
X110699000Y-101271184D01*
X110731703Y-101106772D01*
X110795853Y-100951900D01*
X110888985Y-100812519D01*
X111007519Y-100693985D01*
X111146900Y-100600853D01*
X111301772Y-100536703D01*
X111466184Y-100504000D01*
X111633816Y-100504000D01*
X111798228Y-100536703D01*
G37*
G36*
X119866153Y-99635922D02*
G01*
X119958194Y-99674047D01*
X120088359Y-99727963D01*
X120288342Y-99861587D01*
X120458413Y-100031658D01*
X120592037Y-100231641D01*
X120614481Y-100285826D01*
X120684078Y-100453847D01*
X120690653Y-100486903D01*
X120726278Y-100666000D01*
X120731000Y-100689742D01*
X120731000Y-100930258D01*
X120689633Y-101138228D01*
X120684078Y-101166152D01*
X120592037Y-101388359D01*
X120458413Y-101588342D01*
X120288342Y-101758413D01*
X120088359Y-101892037D01*
X119958194Y-101945953D01*
X119866153Y-101984078D01*
X119748205Y-102007539D01*
X119630259Y-102031000D01*
X119389741Y-102031000D01*
X119271795Y-102007539D01*
X119153847Y-101984078D01*
X119061806Y-101945953D01*
X118931641Y-101892037D01*
X118731658Y-101758413D01*
X118561587Y-101588342D01*
X118427963Y-101388359D01*
X118335922Y-101166152D01*
X118330368Y-101138228D01*
X118289000Y-100930258D01*
X118289000Y-100689742D01*
X118293723Y-100666000D01*
X118329347Y-100486903D01*
X118335922Y-100453847D01*
X118405519Y-100285826D01*
X118427963Y-100231641D01*
X118561587Y-100031658D01*
X118731658Y-99861587D01*
X118931641Y-99727963D01*
X119061806Y-99674047D01*
X119153847Y-99635922D01*
X119389741Y-99589000D01*
X119630259Y-99589000D01*
X119866153Y-99635922D01*
G37*
G36*
X124866153Y-99635922D02*
G01*
X124958194Y-99674047D01*
X125088359Y-99727963D01*
X125288342Y-99861587D01*
X125458413Y-100031658D01*
X125592037Y-100231641D01*
X125614481Y-100285826D01*
X125684078Y-100453847D01*
X125690653Y-100486903D01*
X125726278Y-100666000D01*
X125731000Y-100689742D01*
X125731000Y-100930258D01*
X125689633Y-101138228D01*
X125684078Y-101166152D01*
X125592037Y-101388359D01*
X125458413Y-101588342D01*
X125288342Y-101758413D01*
X125088359Y-101892037D01*
X124958194Y-101945953D01*
X124866153Y-101984078D01*
X124748205Y-102007539D01*
X124630259Y-102031000D01*
X124389741Y-102031000D01*
X124271795Y-102007539D01*
X124153847Y-101984078D01*
X124061806Y-101945953D01*
X123931641Y-101892037D01*
X123731658Y-101758413D01*
X123561587Y-101588342D01*
X123427963Y-101388359D01*
X123335922Y-101166152D01*
X123330368Y-101138228D01*
X123289000Y-100930258D01*
X123289000Y-100689742D01*
X123293723Y-100666000D01*
X123329347Y-100486903D01*
X123335922Y-100453847D01*
X123405519Y-100285826D01*
X123427963Y-100231641D01*
X123561587Y-100031658D01*
X123731658Y-99861587D01*
X123931641Y-99727963D01*
X124061806Y-99674047D01*
X124153847Y-99635922D01*
X124389741Y-99589000D01*
X124630259Y-99589000D01*
X124866153Y-99635922D01*
G37*
G36*
X129878228Y-100071703D02*
G01*
X130033100Y-100135853D01*
X130172481Y-100228985D01*
X130291015Y-100347519D01*
X130384147Y-100486900D01*
X130448297Y-100641772D01*
X130481000Y-100806184D01*
X130481000Y-100973816D01*
X130448297Y-101138228D01*
X130384147Y-101293100D01*
X130291015Y-101432481D01*
X130172481Y-101551015D01*
X130033100Y-101644147D01*
X129878228Y-101708297D01*
X129713816Y-101741000D01*
X129546184Y-101741000D01*
X129381772Y-101708297D01*
X129226900Y-101644147D01*
X129087519Y-101551015D01*
X128968985Y-101432481D01*
X128875853Y-101293100D01*
X128811703Y-101138228D01*
X128779000Y-100973816D01*
X128779000Y-100806184D01*
X128811703Y-100641772D01*
X128875853Y-100486900D01*
X128968985Y-100347519D01*
X129087519Y-100228985D01*
X129226900Y-100135853D01*
X129381772Y-100071703D01*
X129546184Y-100039000D01*
X129713816Y-100039000D01*
X129878228Y-100071703D01*
G37*
G36*
X145118228Y-100071703D02*
G01*
X145273100Y-100135853D01*
X145412481Y-100228985D01*
X145531015Y-100347519D01*
X145624147Y-100486900D01*
X145688297Y-100641772D01*
X145721000Y-100806184D01*
X145721000Y-100973816D01*
X145688297Y-101138228D01*
X145624147Y-101293100D01*
X145531015Y-101432481D01*
X145412481Y-101551015D01*
X145273100Y-101644147D01*
X145118228Y-101708297D01*
X144953816Y-101741000D01*
X144786184Y-101741000D01*
X144621772Y-101708297D01*
X144466900Y-101644147D01*
X144327519Y-101551015D01*
X144208985Y-101432481D01*
X144115853Y-101293100D01*
X144051703Y-101138228D01*
X144019000Y-100973816D01*
X144019000Y-100806184D01*
X144051703Y-100641772D01*
X144115853Y-100486900D01*
X144208985Y-100347519D01*
X144327519Y-100228985D01*
X144466900Y-100135853D01*
X144621772Y-100071703D01*
X144786184Y-100039000D01*
X144953816Y-100039000D01*
X145118228Y-100071703D01*
G37*
G36*
X114638228Y-99151703D02*
G01*
X114793100Y-99215853D01*
X114932481Y-99308985D01*
X115051015Y-99427519D01*
X115144147Y-99566900D01*
X115208297Y-99721772D01*
X115241000Y-99886184D01*
X115241000Y-100053816D01*
X115208297Y-100218228D01*
X115144147Y-100373100D01*
X115051015Y-100512481D01*
X114932481Y-100631015D01*
X114793100Y-100724147D01*
X114638228Y-100788297D01*
X114473816Y-100821000D01*
X114306184Y-100821000D01*
X114141772Y-100788297D01*
X113986900Y-100724147D01*
X113847519Y-100631015D01*
X113728985Y-100512481D01*
X113635853Y-100373100D01*
X113571703Y-100218228D01*
X113539000Y-100053816D01*
X113539000Y-99886184D01*
X113571703Y-99721772D01*
X113635853Y-99566900D01*
X113728985Y-99427519D01*
X113847519Y-99308985D01*
X113986900Y-99215853D01*
X114141772Y-99151703D01*
X114306184Y-99119000D01*
X114473816Y-99119000D01*
X114638228Y-99151703D01*
G37*
G36*
X83108604Y-99318347D02*
G01*
X83145144Y-99329432D01*
X83178821Y-99347433D01*
X83208341Y-99371659D01*
X83232567Y-99401179D01*
X83250568Y-99434856D01*
X83261653Y-99471396D01*
X83266000Y-99515538D01*
X83266000Y-100464462D01*
X83261653Y-100508604D01*
X83250568Y-100545144D01*
X83232567Y-100578821D01*
X83208341Y-100608341D01*
X83178821Y-100632567D01*
X83145144Y-100650568D01*
X83108604Y-100661653D01*
X83064462Y-100666000D01*
X81615538Y-100666000D01*
X81571396Y-100661653D01*
X81534856Y-100650568D01*
X81501179Y-100632567D01*
X81471659Y-100608341D01*
X81447433Y-100578821D01*
X81429432Y-100545144D01*
X81418347Y-100508604D01*
X81414000Y-100464462D01*
X81414000Y-99515538D01*
X81418347Y-99471396D01*
X81429432Y-99434856D01*
X81447433Y-99401179D01*
X81471659Y-99371659D01*
X81501179Y-99347433D01*
X81534856Y-99329432D01*
X81571396Y-99318347D01*
X81615538Y-99314000D01*
X83064462Y-99314000D01*
X83108604Y-99318347D01*
G37*
G36*
X79128254Y-96617818D02*
G01*
X79412455Y-96735538D01*
X79501513Y-96772427D01*
X79837436Y-96996884D01*
X80123116Y-97282564D01*
X80332449Y-97595852D01*
X80347574Y-97618489D01*
X80502182Y-97991746D01*
X80581000Y-98387993D01*
X80581000Y-98792007D01*
X80502182Y-99188254D01*
X80347574Y-99561511D01*
X80347573Y-99561513D01*
X80123116Y-99897436D01*
X79837436Y-100183116D01*
X79501513Y-100407573D01*
X79501512Y-100407574D01*
X79501511Y-100407574D01*
X79128254Y-100562182D01*
X78732007Y-100641000D01*
X78327993Y-100641000D01*
X77931746Y-100562182D01*
X77558489Y-100407574D01*
X77558488Y-100407574D01*
X77558487Y-100407573D01*
X77222564Y-100183116D01*
X76936884Y-99897436D01*
X76712427Y-99561513D01*
X76712426Y-99561511D01*
X76557818Y-99188254D01*
X76479000Y-98792007D01*
X76479000Y-98387993D01*
X76557818Y-97991746D01*
X76712426Y-97618489D01*
X76727552Y-97595852D01*
X76936884Y-97282564D01*
X77222564Y-96996884D01*
X77558487Y-96772427D01*
X77647545Y-96735538D01*
X77931746Y-96617818D01*
X78327993Y-96539000D01*
X78732007Y-96539000D01*
X79128254Y-96617818D01*
G37*
G36*
X75488604Y-99058347D02*
G01*
X75525144Y-99069432D01*
X75558821Y-99087433D01*
X75588341Y-99111659D01*
X75612567Y-99141179D01*
X75630568Y-99174856D01*
X75641653Y-99211396D01*
X75646000Y-99255538D01*
X75646000Y-100204462D01*
X75641653Y-100248604D01*
X75630568Y-100285144D01*
X75612567Y-100318821D01*
X75588341Y-100348341D01*
X75558821Y-100372567D01*
X75525144Y-100390568D01*
X75488604Y-100401653D01*
X75444462Y-100406000D01*
X73995538Y-100406000D01*
X73951396Y-100401653D01*
X73914856Y-100390568D01*
X73881179Y-100372567D01*
X73851659Y-100348341D01*
X73827433Y-100318821D01*
X73809432Y-100285144D01*
X73798347Y-100248604D01*
X73794000Y-100204462D01*
X73794000Y-99255538D01*
X73798347Y-99211396D01*
X73809432Y-99174856D01*
X73827433Y-99141179D01*
X73851659Y-99111659D01*
X73881179Y-99087433D01*
X73914856Y-99069432D01*
X73951396Y-99058347D01*
X73995538Y-99054000D01*
X75444462Y-99054000D01*
X75488604Y-99058347D01*
G37*
G36*
X71158228Y-97771703D02*
G01*
X71313100Y-97835853D01*
X71452481Y-97928985D01*
X71571015Y-98047519D01*
X71664147Y-98186900D01*
X71728297Y-98341772D01*
X71761000Y-98506184D01*
X71761000Y-98673816D01*
X71728297Y-98838228D01*
X71664147Y-98993100D01*
X71571015Y-99132481D01*
X71452481Y-99251015D01*
X71313100Y-99344147D01*
X71158228Y-99408297D01*
X70993816Y-99441000D01*
X70826184Y-99441000D01*
X70661772Y-99408297D01*
X70506900Y-99344147D01*
X70367519Y-99251015D01*
X70248985Y-99132481D01*
X70155853Y-98993100D01*
X70091703Y-98838228D01*
X70059000Y-98673816D01*
X70059000Y-98506184D01*
X70091703Y-98341772D01*
X70155853Y-98186900D01*
X70248985Y-98047519D01*
X70367519Y-97928985D01*
X70506900Y-97835853D01*
X70661772Y-97771703D01*
X70826184Y-97739000D01*
X70993816Y-97739000D01*
X71158228Y-97771703D01*
G37*
G36*
X55918228Y-97771703D02*
G01*
X56073100Y-97835853D01*
X56212481Y-97928985D01*
X56331015Y-98047519D01*
X56424147Y-98186900D01*
X56488297Y-98341772D01*
X56521000Y-98506184D01*
X56521000Y-98673816D01*
X56488297Y-98838228D01*
X56424147Y-98993100D01*
X56331015Y-99132481D01*
X56212481Y-99251015D01*
X56073100Y-99344147D01*
X55918228Y-99408297D01*
X55753816Y-99441000D01*
X55586184Y-99441000D01*
X55421772Y-99408297D01*
X55266900Y-99344147D01*
X55127519Y-99251015D01*
X55008985Y-99132481D01*
X54915853Y-98993100D01*
X54851703Y-98838228D01*
X54819000Y-98673816D01*
X54819000Y-98506184D01*
X54851703Y-98341772D01*
X54915853Y-98186900D01*
X55008985Y-98047519D01*
X55127519Y-97928985D01*
X55266900Y-97835853D01*
X55421772Y-97771703D01*
X55586184Y-97739000D01*
X55753816Y-97739000D01*
X55918228Y-97771703D01*
G37*
G36*
X145118228Y-97531703D02*
G01*
X145273100Y-97595853D01*
X145412481Y-97688985D01*
X145531015Y-97807519D01*
X145624147Y-97946900D01*
X145688297Y-98101772D01*
X145721000Y-98266184D01*
X145721000Y-98433816D01*
X145688297Y-98598228D01*
X145624147Y-98753100D01*
X145531015Y-98892481D01*
X145412481Y-99011015D01*
X145273100Y-99104147D01*
X145118228Y-99168297D01*
X144953816Y-99201000D01*
X144786184Y-99201000D01*
X144621772Y-99168297D01*
X144466900Y-99104147D01*
X144327519Y-99011015D01*
X144208985Y-98892481D01*
X144115853Y-98753100D01*
X144051703Y-98598228D01*
X144019000Y-98433816D01*
X144019000Y-98266184D01*
X144051703Y-98101772D01*
X144115853Y-97946900D01*
X144208985Y-97807519D01*
X144327519Y-97688985D01*
X144466900Y-97595853D01*
X144621772Y-97531703D01*
X144786184Y-97499000D01*
X144953816Y-97499000D01*
X145118228Y-97531703D01*
G37*
G36*
X129878228Y-97531703D02*
G01*
X130033100Y-97595853D01*
X130172481Y-97688985D01*
X130291015Y-97807519D01*
X130384147Y-97946900D01*
X130448297Y-98101772D01*
X130481000Y-98266184D01*
X130481000Y-98433816D01*
X130448297Y-98598228D01*
X130384147Y-98753100D01*
X130291015Y-98892481D01*
X130172481Y-99011015D01*
X130033100Y-99104147D01*
X129878228Y-99168297D01*
X129713816Y-99201000D01*
X129546184Y-99201000D01*
X129381772Y-99168297D01*
X129226900Y-99104147D01*
X129087519Y-99011015D01*
X128968985Y-98892481D01*
X128875853Y-98753100D01*
X128811703Y-98598228D01*
X128779000Y-98433816D01*
X128779000Y-98266184D01*
X128811703Y-98101772D01*
X128875853Y-97946900D01*
X128968985Y-97807519D01*
X129087519Y-97688985D01*
X129226900Y-97595853D01*
X129381772Y-97531703D01*
X129546184Y-97499000D01*
X129713816Y-97499000D01*
X129878228Y-97531703D01*
G37*
G36*
X118968604Y-96538347D02*
G01*
X119005144Y-96549432D01*
X119038821Y-96567433D01*
X119068341Y-96591659D01*
X119092567Y-96621179D01*
X119110568Y-96654856D01*
X119121653Y-96691396D01*
X119126000Y-96735538D01*
X119126000Y-97684462D01*
X119121653Y-97728604D01*
X119110568Y-97765144D01*
X119092567Y-97798821D01*
X119068341Y-97828341D01*
X119038821Y-97852567D01*
X119005144Y-97870568D01*
X118968604Y-97881653D01*
X118924462Y-97886000D01*
X117475538Y-97886000D01*
X117431396Y-97881653D01*
X117394856Y-97870568D01*
X117361179Y-97852567D01*
X117331659Y-97828341D01*
X117307433Y-97798821D01*
X117289432Y-97765144D01*
X117278347Y-97728604D01*
X117274000Y-97684462D01*
X117274000Y-96735538D01*
X117278347Y-96691396D01*
X117289432Y-96654856D01*
X117307433Y-96621179D01*
X117331659Y-96591659D01*
X117361179Y-96567433D01*
X117394856Y-96549432D01*
X117431396Y-96538347D01*
X117475538Y-96534000D01*
X118924462Y-96534000D01*
X118968604Y-96538347D01*
G37*
G36*
X83108604Y-96518347D02*
G01*
X83145144Y-96529432D01*
X83178821Y-96547433D01*
X83208341Y-96571659D01*
X83232567Y-96601179D01*
X83250568Y-96634856D01*
X83261653Y-96671396D01*
X83266000Y-96715538D01*
X83266000Y-97664462D01*
X83261653Y-97708604D01*
X83250568Y-97745144D01*
X83232567Y-97778821D01*
X83208341Y-97808341D01*
X83178821Y-97832567D01*
X83145144Y-97850568D01*
X83108604Y-97861653D01*
X83064462Y-97866000D01*
X81615538Y-97866000D01*
X81571396Y-97861653D01*
X81534856Y-97850568D01*
X81501179Y-97832567D01*
X81471659Y-97808341D01*
X81447433Y-97778821D01*
X81429432Y-97745144D01*
X81418347Y-97708604D01*
X81414000Y-97664462D01*
X81414000Y-96715538D01*
X81418347Y-96671396D01*
X81429432Y-96634856D01*
X81447433Y-96601179D01*
X81471659Y-96571659D01*
X81501179Y-96547433D01*
X81534856Y-96529432D01*
X81571396Y-96518347D01*
X81615538Y-96514000D01*
X83064462Y-96514000D01*
X83108604Y-96518347D01*
G37*
G36*
X122608254Y-93837818D02*
G01*
X122981511Y-93992426D01*
X122981513Y-93992427D01*
X123317436Y-94216884D01*
X123603116Y-94502564D01*
X123823974Y-94833100D01*
X123827574Y-94838489D01*
X123982182Y-95211746D01*
X124061000Y-95607993D01*
X124061000Y-96012007D01*
X123982182Y-96408254D01*
X123831337Y-96772426D01*
X123827573Y-96781513D01*
X123603116Y-97117436D01*
X123317436Y-97403116D01*
X122981513Y-97627573D01*
X122981512Y-97627574D01*
X122981511Y-97627574D01*
X122608254Y-97782182D01*
X122212007Y-97861000D01*
X121807993Y-97861000D01*
X121411746Y-97782182D01*
X121038489Y-97627574D01*
X121038488Y-97627574D01*
X121038487Y-97627573D01*
X120702564Y-97403116D01*
X120416884Y-97117436D01*
X120192427Y-96781513D01*
X120188663Y-96772426D01*
X120037818Y-96408254D01*
X119959000Y-96012007D01*
X119959000Y-95607993D01*
X120037818Y-95211746D01*
X120192426Y-94838489D01*
X120196027Y-94833100D01*
X120416884Y-94502564D01*
X120702564Y-94216884D01*
X121038487Y-93992427D01*
X121038489Y-93992426D01*
X121411746Y-93837818D01*
X121807993Y-93759000D01*
X122212007Y-93759000D01*
X122608254Y-93837818D01*
G37*
G36*
X55918228Y-95231703D02*
G01*
X56073100Y-95295853D01*
X56212481Y-95388985D01*
X56331015Y-95507519D01*
X56424147Y-95646900D01*
X56488297Y-95801772D01*
X56521000Y-95966184D01*
X56521000Y-96133816D01*
X56488297Y-96298228D01*
X56424147Y-96453100D01*
X56331015Y-96592481D01*
X56212481Y-96711015D01*
X56073100Y-96804147D01*
X55918228Y-96868297D01*
X55753816Y-96901000D01*
X55586184Y-96901000D01*
X55421772Y-96868297D01*
X55266900Y-96804147D01*
X55127519Y-96711015D01*
X55008985Y-96592481D01*
X54915853Y-96453100D01*
X54851703Y-96298228D01*
X54819000Y-96133816D01*
X54819000Y-95966184D01*
X54851703Y-95801772D01*
X54915853Y-95646900D01*
X55008985Y-95507519D01*
X55127519Y-95388985D01*
X55266900Y-95295853D01*
X55421772Y-95231703D01*
X55586184Y-95199000D01*
X55753816Y-95199000D01*
X55918228Y-95231703D01*
G37*
G36*
X71158228Y-95231703D02*
G01*
X71313100Y-95295853D01*
X71452481Y-95388985D01*
X71571015Y-95507519D01*
X71664147Y-95646900D01*
X71728297Y-95801772D01*
X71761000Y-95966184D01*
X71761000Y-96133816D01*
X71728297Y-96298228D01*
X71664147Y-96453100D01*
X71571015Y-96592481D01*
X71452481Y-96711015D01*
X71313100Y-96804147D01*
X71158228Y-96868297D01*
X70993816Y-96901000D01*
X70826184Y-96901000D01*
X70661772Y-96868297D01*
X70506900Y-96804147D01*
X70367519Y-96711015D01*
X70248985Y-96592481D01*
X70155853Y-96453100D01*
X70091703Y-96298228D01*
X70059000Y-96133816D01*
X70059000Y-95966184D01*
X70091703Y-95801772D01*
X70155853Y-95646900D01*
X70248985Y-95507519D01*
X70367519Y-95388985D01*
X70506900Y-95295853D01*
X70661772Y-95231703D01*
X70826184Y-95199000D01*
X70993816Y-95199000D01*
X71158228Y-95231703D01*
G37*
G36*
X145118228Y-94991703D02*
G01*
X145273100Y-95055853D01*
X145412481Y-95148985D01*
X145531015Y-95267519D01*
X145624147Y-95406900D01*
X145688297Y-95561772D01*
X145721000Y-95726184D01*
X145721000Y-95893816D01*
X145688297Y-96058228D01*
X145624147Y-96213100D01*
X145531015Y-96352481D01*
X145412481Y-96471015D01*
X145273100Y-96564147D01*
X145118228Y-96628297D01*
X144953816Y-96661000D01*
X144786184Y-96661000D01*
X144621772Y-96628297D01*
X144466900Y-96564147D01*
X144327519Y-96471015D01*
X144208985Y-96352481D01*
X144115853Y-96213100D01*
X144051703Y-96058228D01*
X144019000Y-95893816D01*
X144019000Y-95726184D01*
X144051703Y-95561772D01*
X144115853Y-95406900D01*
X144208985Y-95267519D01*
X144327519Y-95148985D01*
X144466900Y-95055853D01*
X144621772Y-94991703D01*
X144786184Y-94959000D01*
X144953816Y-94959000D01*
X145118228Y-94991703D01*
G37*
G36*
X129878228Y-94991703D02*
G01*
X130033100Y-95055853D01*
X130172481Y-95148985D01*
X130291015Y-95267519D01*
X130384147Y-95406900D01*
X130448297Y-95561772D01*
X130481000Y-95726184D01*
X130481000Y-95893816D01*
X130448297Y-96058228D01*
X130384147Y-96213100D01*
X130291015Y-96352481D01*
X130172481Y-96471015D01*
X130033100Y-96564147D01*
X129878228Y-96628297D01*
X129713816Y-96661000D01*
X129546184Y-96661000D01*
X129381772Y-96628297D01*
X129226900Y-96564147D01*
X129087519Y-96471015D01*
X128968985Y-96352481D01*
X128875853Y-96213100D01*
X128811703Y-96058228D01*
X128779000Y-95893816D01*
X128779000Y-95726184D01*
X128811703Y-95561772D01*
X128875853Y-95406900D01*
X128968985Y-95267519D01*
X129087519Y-95148985D01*
X129226900Y-95055853D01*
X129381772Y-94991703D01*
X129546184Y-94959000D01*
X129713816Y-94959000D01*
X129878228Y-94991703D01*
G37*
G36*
X126588604Y-93998347D02*
G01*
X126625144Y-94009432D01*
X126658821Y-94027433D01*
X126688341Y-94051659D01*
X126712567Y-94081179D01*
X126730568Y-94114856D01*
X126741653Y-94151396D01*
X126746000Y-94195538D01*
X126746000Y-95144462D01*
X126741653Y-95188604D01*
X126730568Y-95225144D01*
X126712567Y-95258821D01*
X126688341Y-95288341D01*
X126658821Y-95312567D01*
X126625144Y-95330568D01*
X126588604Y-95341653D01*
X126544462Y-95346000D01*
X125095538Y-95346000D01*
X125051396Y-95341653D01*
X125014856Y-95330568D01*
X124981179Y-95312567D01*
X124951659Y-95288341D01*
X124927433Y-95258821D01*
X124909432Y-95225144D01*
X124898347Y-95188604D01*
X124894000Y-95144462D01*
X124894000Y-94195538D01*
X124898347Y-94151396D01*
X124909432Y-94114856D01*
X124927433Y-94081179D01*
X124951659Y-94051659D01*
X124981179Y-94027433D01*
X125014856Y-94009432D01*
X125051396Y-93998347D01*
X125095538Y-93994000D01*
X126544462Y-93994000D01*
X126588604Y-93998347D01*
G37*
G36*
X86398228Y-93611703D02*
G01*
X86553100Y-93675853D01*
X86692481Y-93768985D01*
X86811015Y-93887519D01*
X86904147Y-94026900D01*
X86968297Y-94181772D01*
X87001000Y-94346184D01*
X87001000Y-94513816D01*
X86968297Y-94678228D01*
X86904147Y-94833100D01*
X86811015Y-94972481D01*
X86692481Y-95091015D01*
X86553100Y-95184147D01*
X86398228Y-95248297D01*
X86233816Y-95281000D01*
X86066184Y-95281000D01*
X85901772Y-95248297D01*
X85746900Y-95184147D01*
X85607519Y-95091015D01*
X85488985Y-94972481D01*
X85395853Y-94833100D01*
X85331703Y-94678228D01*
X85299000Y-94513816D01*
X85299000Y-94346184D01*
X85331703Y-94181772D01*
X85395853Y-94026900D01*
X85488985Y-93887519D01*
X85607519Y-93768985D01*
X85746900Y-93675853D01*
X85901772Y-93611703D01*
X86066184Y-93579000D01*
X86233816Y-93579000D01*
X86398228Y-93611703D01*
G37*
G36*
X118968604Y-93738347D02*
G01*
X119005144Y-93749432D01*
X119038821Y-93767433D01*
X119068341Y-93791659D01*
X119092567Y-93821179D01*
X119110568Y-93854856D01*
X119121653Y-93891396D01*
X119126000Y-93935538D01*
X119126000Y-94884462D01*
X119121653Y-94928604D01*
X119110568Y-94965144D01*
X119092567Y-94998821D01*
X119068341Y-95028341D01*
X119038821Y-95052567D01*
X119005144Y-95070568D01*
X118968604Y-95081653D01*
X118924462Y-95086000D01*
X117475538Y-95086000D01*
X117431396Y-95081653D01*
X117394856Y-95070568D01*
X117361179Y-95052567D01*
X117331659Y-95028341D01*
X117307433Y-94998821D01*
X117289432Y-94965144D01*
X117278347Y-94928604D01*
X117274000Y-94884462D01*
X117274000Y-93935538D01*
X117278347Y-93891396D01*
X117289432Y-93854856D01*
X117307433Y-93821179D01*
X117331659Y-93791659D01*
X117361179Y-93767433D01*
X117394856Y-93749432D01*
X117431396Y-93738347D01*
X117475538Y-93734000D01*
X118924462Y-93734000D01*
X118968604Y-93738347D01*
G37*
G36*
X113568254Y-91037818D02*
G01*
X113878082Y-91166153D01*
X113941513Y-91192427D01*
X114277436Y-91416884D01*
X114563116Y-91702564D01*
X114738070Y-91964400D01*
X114787574Y-92038489D01*
X114942182Y-92411746D01*
X115021000Y-92807993D01*
X115021000Y-93212007D01*
X114942182Y-93608254D01*
X114787574Y-93981511D01*
X114787573Y-93981513D01*
X114563116Y-94317436D01*
X114277436Y-94603116D01*
X113941513Y-94827573D01*
X113941512Y-94827574D01*
X113941511Y-94827574D01*
X113568254Y-94982182D01*
X113172007Y-95061000D01*
X112767993Y-95061000D01*
X112371746Y-94982182D01*
X111998489Y-94827574D01*
X111998488Y-94827574D01*
X111998487Y-94827573D01*
X111662564Y-94603116D01*
X111376884Y-94317436D01*
X111152427Y-93981513D01*
X111152426Y-93981511D01*
X110997818Y-93608254D01*
X110919000Y-93212007D01*
X110919000Y-92807993D01*
X110997818Y-92411746D01*
X111152426Y-92038489D01*
X111201931Y-91964400D01*
X111376884Y-91702564D01*
X111662564Y-91416884D01*
X111998487Y-91192427D01*
X112061918Y-91166153D01*
X112371746Y-91037818D01*
X112767993Y-90959000D01*
X113172007Y-90959000D01*
X113568254Y-91037818D01*
G37*
G36*
X81248815Y-92388604D02*
G01*
X81386153Y-92415922D01*
X81478194Y-92454047D01*
X81608359Y-92507963D01*
X81808342Y-92641587D01*
X81978413Y-92811658D01*
X82112037Y-93011641D01*
X82151496Y-93106903D01*
X82204078Y-93233847D01*
X82215890Y-93293229D01*
X82251000Y-93469741D01*
X82251000Y-93710259D01*
X82233319Y-93799147D01*
X82204078Y-93946153D01*
X82179951Y-94004400D01*
X82112037Y-94168359D01*
X81978413Y-94368342D01*
X81808342Y-94538413D01*
X81608359Y-94672037D01*
X81478194Y-94725953D01*
X81386153Y-94764078D01*
X81268205Y-94787539D01*
X81150259Y-94811000D01*
X80909741Y-94811000D01*
X80673847Y-94764078D01*
X80581806Y-94725953D01*
X80451641Y-94672037D01*
X80251658Y-94538413D01*
X80081587Y-94368342D01*
X79947963Y-94168359D01*
X79880049Y-94004400D01*
X79855922Y-93946153D01*
X79826681Y-93799147D01*
X79809000Y-93710259D01*
X79809000Y-93469741D01*
X79844110Y-93293229D01*
X79855922Y-93233847D01*
X79908504Y-93106903D01*
X79947963Y-93011641D01*
X80081587Y-92811658D01*
X80251658Y-92641587D01*
X80451641Y-92507963D01*
X80581806Y-92454047D01*
X80673847Y-92415922D01*
X80811185Y-92388604D01*
X80909741Y-92369000D01*
X81150259Y-92369000D01*
X81248815Y-92388604D01*
G37*
G36*
X76248815Y-92388604D02*
G01*
X76386153Y-92415922D01*
X76478194Y-92454047D01*
X76608359Y-92507963D01*
X76808342Y-92641587D01*
X76978413Y-92811658D01*
X77112037Y-93011641D01*
X77151496Y-93106903D01*
X77204078Y-93233847D01*
X77215890Y-93293229D01*
X77251000Y-93469741D01*
X77251000Y-93710259D01*
X77233319Y-93799147D01*
X77204078Y-93946153D01*
X77179951Y-94004400D01*
X77112037Y-94168359D01*
X76978413Y-94368342D01*
X76808342Y-94538413D01*
X76608359Y-94672037D01*
X76478194Y-94725953D01*
X76386153Y-94764078D01*
X76268205Y-94787539D01*
X76150259Y-94811000D01*
X75909741Y-94811000D01*
X75673847Y-94764078D01*
X75581806Y-94725953D01*
X75451641Y-94672037D01*
X75251658Y-94538413D01*
X75081587Y-94368342D01*
X74947963Y-94168359D01*
X74880049Y-94004400D01*
X74855922Y-93946153D01*
X74826681Y-93799147D01*
X74809000Y-93710259D01*
X74809000Y-93469741D01*
X74844110Y-93293229D01*
X74855922Y-93233847D01*
X74908504Y-93106903D01*
X74947963Y-93011641D01*
X75081587Y-92811658D01*
X75251658Y-92641587D01*
X75451641Y-92507963D01*
X75581806Y-92454047D01*
X75673847Y-92415922D01*
X75811185Y-92388604D01*
X75909741Y-92369000D01*
X76150259Y-92369000D01*
X76248815Y-92388604D01*
G37*
G36*
X71158228Y-92691703D02*
G01*
X71313100Y-92755853D01*
X71452481Y-92848985D01*
X71571015Y-92967519D01*
X71664147Y-93106900D01*
X71728297Y-93261772D01*
X71761000Y-93426184D01*
X71761000Y-93593816D01*
X71728297Y-93758228D01*
X71664147Y-93913100D01*
X71571015Y-94052481D01*
X71452481Y-94171015D01*
X71313100Y-94264147D01*
X71158228Y-94328297D01*
X70993816Y-94361000D01*
X70826184Y-94361000D01*
X70661772Y-94328297D01*
X70506900Y-94264147D01*
X70367519Y-94171015D01*
X70248985Y-94052481D01*
X70155853Y-93913100D01*
X70091703Y-93758228D01*
X70059000Y-93593816D01*
X70059000Y-93426184D01*
X70091703Y-93261772D01*
X70155853Y-93106900D01*
X70248985Y-92967519D01*
X70367519Y-92848985D01*
X70506900Y-92755853D01*
X70661772Y-92691703D01*
X70826184Y-92659000D01*
X70993816Y-92659000D01*
X71158228Y-92691703D01*
G37*
G36*
X55918228Y-92691703D02*
G01*
X56073100Y-92755853D01*
X56212481Y-92848985D01*
X56331015Y-92967519D01*
X56424147Y-93106900D01*
X56488297Y-93261772D01*
X56521000Y-93426184D01*
X56521000Y-93593816D01*
X56488297Y-93758228D01*
X56424147Y-93913100D01*
X56331015Y-94052481D01*
X56212481Y-94171015D01*
X56073100Y-94264147D01*
X55918228Y-94328297D01*
X55753816Y-94361000D01*
X55586184Y-94361000D01*
X55421772Y-94328297D01*
X55266900Y-94264147D01*
X55127519Y-94171015D01*
X55008985Y-94052481D01*
X54915853Y-93913100D01*
X54851703Y-93758228D01*
X54819000Y-93593816D01*
X54819000Y-93426184D01*
X54851703Y-93261772D01*
X54915853Y-93106900D01*
X55008985Y-92967519D01*
X55127519Y-92848985D01*
X55266900Y-92755853D01*
X55421772Y-92691703D01*
X55586184Y-92659000D01*
X55753816Y-92659000D01*
X55918228Y-92691703D01*
G37*
G36*
X89238228Y-92226703D02*
G01*
X89393100Y-92290853D01*
X89532481Y-92383985D01*
X89651015Y-92502519D01*
X89744147Y-92641900D01*
X89808297Y-92796772D01*
X89841000Y-92961184D01*
X89841000Y-93128816D01*
X89808297Y-93293228D01*
X89744147Y-93448100D01*
X89651015Y-93587481D01*
X89532481Y-93706015D01*
X89393100Y-93799147D01*
X89238228Y-93863297D01*
X89073816Y-93896000D01*
X88906184Y-93896000D01*
X88741772Y-93863297D01*
X88586900Y-93799147D01*
X88447519Y-93706015D01*
X88328985Y-93587481D01*
X88235853Y-93448100D01*
X88171703Y-93293228D01*
X88139000Y-93128816D01*
X88139000Y-92961184D01*
X88171703Y-92796772D01*
X88235853Y-92641900D01*
X88328985Y-92502519D01*
X88447519Y-92383985D01*
X88586900Y-92290853D01*
X88741772Y-92226703D01*
X88906184Y-92194000D01*
X89073816Y-92194000D01*
X89238228Y-92226703D01*
G37*
G36*
X64058604Y-91698347D02*
G01*
X64095144Y-91709432D01*
X64128821Y-91727433D01*
X64158341Y-91751659D01*
X64182567Y-91781179D01*
X64200568Y-91814856D01*
X64211653Y-91851396D01*
X64216000Y-91895538D01*
X64216000Y-92844462D01*
X64211653Y-92888604D01*
X64200568Y-92925144D01*
X64182567Y-92958821D01*
X64158341Y-92988341D01*
X64128821Y-93012567D01*
X64095144Y-93030568D01*
X64058604Y-93041653D01*
X64014462Y-93046000D01*
X62565538Y-93046000D01*
X62521396Y-93041653D01*
X62484856Y-93030568D01*
X62451179Y-93012567D01*
X62421659Y-92988341D01*
X62397433Y-92958821D01*
X62379432Y-92925144D01*
X62368347Y-92888604D01*
X62364000Y-92844462D01*
X62364000Y-91895538D01*
X62368347Y-91851396D01*
X62379432Y-91814856D01*
X62397433Y-91781179D01*
X62421659Y-91751659D01*
X62451179Y-91727433D01*
X62484856Y-91709432D01*
X62521396Y-91698347D01*
X62565538Y-91694000D01*
X64014462Y-91694000D01*
X64058604Y-91698347D01*
G37*
G36*
X66598604Y-91698347D02*
G01*
X66635144Y-91709432D01*
X66668821Y-91727433D01*
X66698341Y-91751659D01*
X66722567Y-91781179D01*
X66740568Y-91814856D01*
X66751653Y-91851396D01*
X66756000Y-91895538D01*
X66756000Y-92844462D01*
X66751653Y-92888604D01*
X66740568Y-92925144D01*
X66722567Y-92958821D01*
X66698341Y-92988341D01*
X66668821Y-93012567D01*
X66635144Y-93030568D01*
X66598604Y-93041653D01*
X66554462Y-93046000D01*
X65105538Y-93046000D01*
X65061396Y-93041653D01*
X65024856Y-93030568D01*
X64991179Y-93012567D01*
X64961659Y-92988341D01*
X64937433Y-92958821D01*
X64919432Y-92925144D01*
X64908347Y-92888604D01*
X64904000Y-92844462D01*
X64904000Y-91895538D01*
X64908347Y-91851396D01*
X64919432Y-91814856D01*
X64937433Y-91781179D01*
X64961659Y-91751659D01*
X64991179Y-91727433D01*
X65024856Y-91709432D01*
X65061396Y-91698347D01*
X65105538Y-91694000D01*
X66554462Y-91694000D01*
X66598604Y-91698347D01*
G37*
G36*
X126588604Y-91198347D02*
G01*
X126625144Y-91209432D01*
X126658821Y-91227433D01*
X126688341Y-91251659D01*
X126712567Y-91281179D01*
X126730568Y-91314856D01*
X126741653Y-91351396D01*
X126746000Y-91395538D01*
X126746000Y-92344462D01*
X126741653Y-92388604D01*
X126730568Y-92425144D01*
X126712567Y-92458821D01*
X126688341Y-92488341D01*
X126658821Y-92512567D01*
X126625144Y-92530568D01*
X126588604Y-92541653D01*
X126544462Y-92546000D01*
X125095538Y-92546000D01*
X125051396Y-92541653D01*
X125014856Y-92530568D01*
X124981179Y-92512567D01*
X124951659Y-92488341D01*
X124927433Y-92458821D01*
X124909432Y-92425144D01*
X124898347Y-92388604D01*
X124894000Y-92344462D01*
X124894000Y-91395538D01*
X124898347Y-91351396D01*
X124909432Y-91314856D01*
X124927433Y-91281179D01*
X124951659Y-91251659D01*
X124981179Y-91227433D01*
X125014856Y-91209432D01*
X125051396Y-91198347D01*
X125095538Y-91194000D01*
X126544462Y-91194000D01*
X126588604Y-91198347D01*
G37*
G36*
X86398228Y-90841703D02*
G01*
X86553100Y-90905853D01*
X86692481Y-90998985D01*
X86811015Y-91117519D01*
X86904147Y-91256900D01*
X86968297Y-91411772D01*
X87001000Y-91576184D01*
X87001000Y-91743816D01*
X86968297Y-91908228D01*
X86904147Y-92063100D01*
X86811015Y-92202481D01*
X86692481Y-92321015D01*
X86553100Y-92414147D01*
X86398228Y-92478297D01*
X86233816Y-92511000D01*
X86066184Y-92511000D01*
X85901772Y-92478297D01*
X85746900Y-92414147D01*
X85607519Y-92321015D01*
X85488985Y-92202481D01*
X85395853Y-92063100D01*
X85331703Y-91908228D01*
X85299000Y-91743816D01*
X85299000Y-91576184D01*
X85331703Y-91411772D01*
X85395853Y-91256900D01*
X85488985Y-91117519D01*
X85607519Y-90998985D01*
X85746900Y-90905853D01*
X85901772Y-90841703D01*
X86066184Y-90809000D01*
X86233816Y-90809000D01*
X86398228Y-90841703D01*
G37*
G36*
X122366153Y-89635922D02*
G01*
X122458194Y-89674047D01*
X122588359Y-89727963D01*
X122788342Y-89861587D01*
X122958413Y-90031658D01*
X123092037Y-90231641D01*
X123184078Y-90453848D01*
X123231000Y-90689741D01*
X123231000Y-90930259D01*
X123211330Y-91029147D01*
X123184078Y-91166153D01*
X123162507Y-91218229D01*
X123092037Y-91388359D01*
X122958413Y-91588342D01*
X122788342Y-91758413D01*
X122588359Y-91892037D01*
X122458194Y-91945953D01*
X122366153Y-91984078D01*
X122248205Y-92007539D01*
X122130259Y-92031000D01*
X121889741Y-92031000D01*
X121771795Y-92007539D01*
X121653847Y-91984078D01*
X121561806Y-91945953D01*
X121431641Y-91892037D01*
X121231658Y-91758413D01*
X121061587Y-91588342D01*
X120927963Y-91388359D01*
X120857493Y-91218229D01*
X120835922Y-91166153D01*
X120808670Y-91029147D01*
X120789000Y-90930259D01*
X120789000Y-90689741D01*
X120835922Y-90453848D01*
X120927963Y-90231641D01*
X121061587Y-90031658D01*
X121231658Y-89861587D01*
X121431641Y-89727963D01*
X121561806Y-89674047D01*
X121653847Y-89635922D01*
X121771795Y-89612461D01*
X121889741Y-89589000D01*
X122130259Y-89589000D01*
X122366153Y-89635922D01*
G37*
G36*
X71158228Y-90151703D02*
G01*
X71313100Y-90215853D01*
X71452481Y-90308985D01*
X71571015Y-90427519D01*
X71664147Y-90566900D01*
X71728297Y-90721772D01*
X71761000Y-90886184D01*
X71761000Y-91053816D01*
X71728297Y-91218228D01*
X71664147Y-91373100D01*
X71571015Y-91512481D01*
X71452481Y-91631015D01*
X71313100Y-91724147D01*
X71158228Y-91788297D01*
X70993816Y-91821000D01*
X70826184Y-91821000D01*
X70661772Y-91788297D01*
X70506900Y-91724147D01*
X70367519Y-91631015D01*
X70248985Y-91512481D01*
X70155853Y-91373100D01*
X70091703Y-91218228D01*
X70059000Y-91053816D01*
X70059000Y-90886184D01*
X70091703Y-90721772D01*
X70155853Y-90566900D01*
X70248985Y-90427519D01*
X70367519Y-90308985D01*
X70506900Y-90215853D01*
X70661772Y-90151703D01*
X70826184Y-90119000D01*
X70993816Y-90119000D01*
X71158228Y-90151703D01*
G37*
G36*
X55918228Y-90151703D02*
G01*
X56073100Y-90215853D01*
X56212481Y-90308985D01*
X56331015Y-90427519D01*
X56424147Y-90566900D01*
X56488297Y-90721772D01*
X56521000Y-90886184D01*
X56521000Y-91053816D01*
X56488297Y-91218228D01*
X56424147Y-91373100D01*
X56331015Y-91512481D01*
X56212481Y-91631015D01*
X56073100Y-91724147D01*
X55918228Y-91788297D01*
X55753816Y-91821000D01*
X55586184Y-91821000D01*
X55421772Y-91788297D01*
X55266900Y-91724147D01*
X55127519Y-91631015D01*
X55008985Y-91512481D01*
X54915853Y-91373100D01*
X54851703Y-91218228D01*
X54819000Y-91053816D01*
X54819000Y-90886184D01*
X54851703Y-90721772D01*
X54915853Y-90566900D01*
X55008985Y-90427519D01*
X55127519Y-90308985D01*
X55266900Y-90215853D01*
X55421772Y-90151703D01*
X55586184Y-90119000D01*
X55753816Y-90119000D01*
X55918228Y-90151703D01*
G37*
G36*
X89238228Y-89456703D02*
G01*
X89393100Y-89520853D01*
X89532481Y-89613985D01*
X89651015Y-89732519D01*
X89744147Y-89871900D01*
X89808297Y-90026772D01*
X89841000Y-90191184D01*
X89841000Y-90358816D01*
X89808297Y-90523228D01*
X89744147Y-90678100D01*
X89651015Y-90817481D01*
X89532481Y-90936015D01*
X89393100Y-91029147D01*
X89238228Y-91093297D01*
X89073816Y-91126000D01*
X88906184Y-91126000D01*
X88741772Y-91093297D01*
X88586900Y-91029147D01*
X88447519Y-90936015D01*
X88328985Y-90817481D01*
X88235853Y-90678100D01*
X88171703Y-90523228D01*
X88139000Y-90358816D01*
X88139000Y-90191184D01*
X88171703Y-90026772D01*
X88235853Y-89871900D01*
X88328985Y-89732519D01*
X88447519Y-89613985D01*
X88586900Y-89520853D01*
X88741772Y-89456703D01*
X88906184Y-89424000D01*
X89073816Y-89424000D01*
X89238228Y-89456703D01*
G37*
G36*
X66598604Y-88898347D02*
G01*
X66635144Y-88909432D01*
X66668821Y-88927433D01*
X66698341Y-88951659D01*
X66722567Y-88981179D01*
X66740568Y-89014856D01*
X66751653Y-89051396D01*
X66756000Y-89095538D01*
X66756000Y-90044462D01*
X66751653Y-90088604D01*
X66740568Y-90125144D01*
X66722567Y-90158821D01*
X66698341Y-90188341D01*
X66668821Y-90212567D01*
X66635144Y-90230568D01*
X66598604Y-90241653D01*
X66554462Y-90246000D01*
X65105538Y-90246000D01*
X65061396Y-90241653D01*
X65024856Y-90230568D01*
X64991179Y-90212567D01*
X64961659Y-90188341D01*
X64937433Y-90158821D01*
X64919432Y-90125144D01*
X64908347Y-90088604D01*
X64904000Y-90044462D01*
X64904000Y-89095538D01*
X64908347Y-89051396D01*
X64919432Y-89014856D01*
X64937433Y-88981179D01*
X64961659Y-88951659D01*
X64991179Y-88927433D01*
X65024856Y-88909432D01*
X65061396Y-88898347D01*
X65105538Y-88894000D01*
X66554462Y-88894000D01*
X66598604Y-88898347D01*
G37*
G36*
X64058604Y-88898347D02*
G01*
X64095144Y-88909432D01*
X64128821Y-88927433D01*
X64158341Y-88951659D01*
X64182567Y-88981179D01*
X64200568Y-89014856D01*
X64211653Y-89051396D01*
X64216000Y-89095538D01*
X64216000Y-90044462D01*
X64211653Y-90088604D01*
X64200568Y-90125144D01*
X64182567Y-90158821D01*
X64158341Y-90188341D01*
X64128821Y-90212567D01*
X64095144Y-90230568D01*
X64058604Y-90241653D01*
X64014462Y-90246000D01*
X62565538Y-90246000D01*
X62521396Y-90241653D01*
X62484856Y-90230568D01*
X62451179Y-90212567D01*
X62421659Y-90188341D01*
X62397433Y-90158821D01*
X62379432Y-90125144D01*
X62368347Y-90088604D01*
X62364000Y-90044462D01*
X62364000Y-89095538D01*
X62368347Y-89051396D01*
X62379432Y-89014856D01*
X62397433Y-88981179D01*
X62421659Y-88951659D01*
X62451179Y-88927433D01*
X62484856Y-88909432D01*
X62521396Y-88898347D01*
X62565538Y-88894000D01*
X64014462Y-88894000D01*
X64058604Y-88898347D01*
G37*
G36*
X86398228Y-88071703D02*
G01*
X86553100Y-88135853D01*
X86692481Y-88228985D01*
X86811015Y-88347519D01*
X86904147Y-88486900D01*
X86968297Y-88641772D01*
X87001000Y-88806184D01*
X87001000Y-88973816D01*
X86968297Y-89138228D01*
X86904147Y-89293100D01*
X86811015Y-89432481D01*
X86692481Y-89551015D01*
X86553100Y-89644147D01*
X86398228Y-89708297D01*
X86233816Y-89741000D01*
X86066184Y-89741000D01*
X85901772Y-89708297D01*
X85746900Y-89644147D01*
X85607519Y-89551015D01*
X85488985Y-89432481D01*
X85395853Y-89293100D01*
X85331703Y-89138228D01*
X85299000Y-88973816D01*
X85299000Y-88806184D01*
X85331703Y-88641772D01*
X85395853Y-88486900D01*
X85488985Y-88347519D01*
X85607519Y-88228985D01*
X85746900Y-88135853D01*
X85901772Y-88071703D01*
X86066184Y-88039000D01*
X86233816Y-88039000D01*
X86398228Y-88071703D01*
G37*
G36*
X55918228Y-87611703D02*
G01*
X56073100Y-87675853D01*
X56212481Y-87768985D01*
X56331015Y-87887519D01*
X56424147Y-88026900D01*
X56488297Y-88181772D01*
X56521000Y-88346184D01*
X56521000Y-88513816D01*
X56488297Y-88678228D01*
X56424147Y-88833100D01*
X56331015Y-88972481D01*
X56212481Y-89091015D01*
X56073100Y-89184147D01*
X55918228Y-89248297D01*
X55753816Y-89281000D01*
X55586184Y-89281000D01*
X55421772Y-89248297D01*
X55266900Y-89184147D01*
X55127519Y-89091015D01*
X55008985Y-88972481D01*
X54915853Y-88833100D01*
X54851703Y-88678228D01*
X54819000Y-88513816D01*
X54819000Y-88346184D01*
X54851703Y-88181772D01*
X54915853Y-88026900D01*
X55008985Y-87887519D01*
X55127519Y-87768985D01*
X55266900Y-87675853D01*
X55421772Y-87611703D01*
X55586184Y-87579000D01*
X55753816Y-87579000D01*
X55918228Y-87611703D01*
G37*
G36*
X71158228Y-87611703D02*
G01*
X71313100Y-87675853D01*
X71452481Y-87768985D01*
X71571015Y-87887519D01*
X71664147Y-88026900D01*
X71728297Y-88181772D01*
X71761000Y-88346184D01*
X71761000Y-88513816D01*
X71728297Y-88678228D01*
X71664147Y-88833100D01*
X71571015Y-88972481D01*
X71452481Y-89091015D01*
X71313100Y-89184147D01*
X71158228Y-89248297D01*
X70993816Y-89281000D01*
X70826184Y-89281000D01*
X70661772Y-89248297D01*
X70506900Y-89184147D01*
X70367519Y-89091015D01*
X70248985Y-88972481D01*
X70155853Y-88833100D01*
X70091703Y-88678228D01*
X70059000Y-88513816D01*
X70059000Y-88346184D01*
X70091703Y-88181772D01*
X70155853Y-88026900D01*
X70248985Y-87887519D01*
X70367519Y-87768985D01*
X70506900Y-87675853D01*
X70661772Y-87611703D01*
X70826184Y-87579000D01*
X70993816Y-87579000D01*
X71158228Y-87611703D01*
G37*
G36*
X79912915Y-87637334D02*
G01*
X80021491Y-87670271D01*
X80021494Y-87670272D01*
X80057600Y-87689571D01*
X80121556Y-87723756D01*
X80209264Y-87795736D01*
X80281244Y-87883443D01*
X80315429Y-87947399D01*
X80334728Y-87983505D01*
X80334729Y-87983508D01*
X80367666Y-88092084D01*
X80376000Y-88176702D01*
X80376000Y-88683297D01*
X80367666Y-88767916D01*
X80335252Y-88874767D01*
X80334728Y-88876495D01*
X80315429Y-88912601D01*
X80281244Y-88976557D01*
X80209264Y-89064264D01*
X80121557Y-89136244D01*
X80068880Y-89164400D01*
X80021495Y-89189728D01*
X80021492Y-89189729D01*
X79912916Y-89222666D01*
X79800000Y-89233787D01*
X79687085Y-89222666D01*
X79578509Y-89189729D01*
X79578506Y-89189728D01*
X79531121Y-89164400D01*
X79478444Y-89136244D01*
X79390737Y-89064264D01*
X79318757Y-88976557D01*
X79300426Y-88942263D01*
X79275239Y-88895141D01*
X79261625Y-88874766D01*
X79244298Y-88857439D01*
X79223924Y-88843826D01*
X79201285Y-88834448D01*
X79177252Y-88829668D01*
X79152748Y-88829668D01*
X79128715Y-88834448D01*
X79106076Y-88843826D01*
X79085701Y-88857440D01*
X79068374Y-88874767D01*
X79054761Y-88895141D01*
X79011244Y-88976557D01*
X78939264Y-89064264D01*
X78851557Y-89136244D01*
X78798880Y-89164400D01*
X78751495Y-89189728D01*
X78751492Y-89189729D01*
X78642916Y-89222666D01*
X78530000Y-89233787D01*
X78417085Y-89222666D01*
X78308509Y-89189729D01*
X78308506Y-89189728D01*
X78261121Y-89164400D01*
X78208444Y-89136244D01*
X78120737Y-89064264D01*
X78057622Y-88987359D01*
X78040297Y-88970034D01*
X78019923Y-88956420D01*
X77997284Y-88947043D01*
X77973250Y-88942263D01*
X77948746Y-88942263D01*
X77924713Y-88947044D01*
X77902074Y-88956421D01*
X77881700Y-88970035D01*
X77864373Y-88987362D01*
X77850759Y-89007736D01*
X77841382Y-89030375D01*
X77836000Y-89066660D01*
X77836000Y-89231000D01*
X76684000Y-89231000D01*
X76684000Y-87629000D01*
X77836000Y-87629000D01*
X77836000Y-87793341D01*
X77838402Y-87817727D01*
X77845515Y-87841176D01*
X77857066Y-87862787D01*
X77872611Y-87881729D01*
X77891553Y-87897274D01*
X77913164Y-87908825D01*
X77936613Y-87915938D01*
X77960999Y-87918340D01*
X77985385Y-87915938D01*
X78008834Y-87908825D01*
X78030445Y-87897274D01*
X78049387Y-87881729D01*
X78057608Y-87872657D01*
X78120736Y-87795736D01*
X78208443Y-87723756D01*
X78272399Y-87689571D01*
X78308505Y-87670272D01*
X78308508Y-87670271D01*
X78417084Y-87637334D01*
X78530000Y-87626213D01*
X78642915Y-87637334D01*
X78751491Y-87670271D01*
X78751494Y-87670272D01*
X78787600Y-87689571D01*
X78851556Y-87723756D01*
X78939264Y-87795736D01*
X79011244Y-87883443D01*
X79054761Y-87964859D01*
X79068375Y-87985234D01*
X79085702Y-88002561D01*
X79106076Y-88016174D01*
X79128715Y-88025552D01*
X79152748Y-88030332D01*
X79177252Y-88030332D01*
X79201285Y-88025552D01*
X79223924Y-88016174D01*
X79244299Y-88002560D01*
X79261626Y-87985233D01*
X79275239Y-87964860D01*
X79318756Y-87883444D01*
X79390736Y-87795736D01*
X79478443Y-87723756D01*
X79542399Y-87689571D01*
X79578505Y-87670272D01*
X79578508Y-87670271D01*
X79687084Y-87637334D01*
X79800000Y-87626213D01*
X79912915Y-87637334D01*
G37*
G36*
X89238228Y-86686703D02*
G01*
X89393100Y-86750853D01*
X89532481Y-86843985D01*
X89651015Y-86962519D01*
X89744147Y-87101900D01*
X89808297Y-87256772D01*
X89841000Y-87421184D01*
X89841000Y-87588816D01*
X89808297Y-87753228D01*
X89744147Y-87908100D01*
X89651015Y-88047481D01*
X89532481Y-88166015D01*
X89393100Y-88259147D01*
X89238228Y-88323297D01*
X89073816Y-88356000D01*
X88906184Y-88356000D01*
X88741772Y-88323297D01*
X88586900Y-88259147D01*
X88447519Y-88166015D01*
X88328985Y-88047481D01*
X88235853Y-87908100D01*
X88171703Y-87753228D01*
X88139000Y-87588816D01*
X88139000Y-87421184D01*
X88171703Y-87256772D01*
X88235853Y-87101900D01*
X88328985Y-86962519D01*
X88447519Y-86843985D01*
X88586900Y-86750853D01*
X88741772Y-86686703D01*
X88906184Y-86654000D01*
X89073816Y-86654000D01*
X89238228Y-86686703D01*
G37*
G36*
X63678604Y-86238347D02*
G01*
X63715144Y-86249432D01*
X63748821Y-86267433D01*
X63778341Y-86291659D01*
X63802567Y-86321179D01*
X63820568Y-86354856D01*
X63831653Y-86391396D01*
X63836000Y-86435538D01*
X63836000Y-87884462D01*
X63831653Y-87928604D01*
X63820568Y-87965144D01*
X63802567Y-87998821D01*
X63778341Y-88028341D01*
X63748821Y-88052567D01*
X63715144Y-88070568D01*
X63678604Y-88081653D01*
X63634462Y-88086000D01*
X62685538Y-88086000D01*
X62641396Y-88081653D01*
X62604856Y-88070568D01*
X62571179Y-88052567D01*
X62541659Y-88028341D01*
X62517433Y-87998821D01*
X62499432Y-87965144D01*
X62488347Y-87928604D01*
X62484000Y-87884462D01*
X62484000Y-86435538D01*
X62488347Y-86391396D01*
X62499432Y-86354856D01*
X62517433Y-86321179D01*
X62541659Y-86291659D01*
X62571179Y-86267433D01*
X62604856Y-86249432D01*
X62641396Y-86238347D01*
X62685538Y-86234000D01*
X63634462Y-86234000D01*
X63678604Y-86238347D01*
G37*
G36*
X66478604Y-86238347D02*
G01*
X66515144Y-86249432D01*
X66548821Y-86267433D01*
X66578341Y-86291659D01*
X66602567Y-86321179D01*
X66620568Y-86354856D01*
X66631653Y-86391396D01*
X66636000Y-86435538D01*
X66636000Y-87884462D01*
X66631653Y-87928604D01*
X66620568Y-87965144D01*
X66602567Y-87998821D01*
X66578341Y-88028341D01*
X66548821Y-88052567D01*
X66515144Y-88070568D01*
X66478604Y-88081653D01*
X66434462Y-88086000D01*
X65485538Y-88086000D01*
X65441396Y-88081653D01*
X65404856Y-88070568D01*
X65371179Y-88052567D01*
X65341659Y-88028341D01*
X65317433Y-87998821D01*
X65299432Y-87965144D01*
X65288347Y-87928604D01*
X65284000Y-87884462D01*
X65284000Y-86435538D01*
X65288347Y-86391396D01*
X65299432Y-86354856D01*
X65317433Y-86321179D01*
X65341659Y-86291659D01*
X65371179Y-86267433D01*
X65404856Y-86249432D01*
X65441396Y-86238347D01*
X65485538Y-86234000D01*
X66434462Y-86234000D01*
X66478604Y-86238347D01*
G37*
G36*
X86398228Y-85301703D02*
G01*
X86553100Y-85365853D01*
X86692481Y-85458985D01*
X86811015Y-85577519D01*
X86904147Y-85716900D01*
X86968297Y-85871772D01*
X87001000Y-86036184D01*
X87001000Y-86203816D01*
X86968297Y-86368228D01*
X86904147Y-86523100D01*
X86811015Y-86662481D01*
X86692481Y-86781015D01*
X86553100Y-86874147D01*
X86398228Y-86938297D01*
X86233816Y-86971000D01*
X86066184Y-86971000D01*
X85901772Y-86938297D01*
X85746900Y-86874147D01*
X85607519Y-86781015D01*
X85488985Y-86662481D01*
X85395853Y-86523100D01*
X85331703Y-86368228D01*
X85299000Y-86203816D01*
X85299000Y-86036184D01*
X85331703Y-85871772D01*
X85395853Y-85716900D01*
X85488985Y-85577519D01*
X85607519Y-85458985D01*
X85746900Y-85365853D01*
X85901772Y-85301703D01*
X86066184Y-85269000D01*
X86233816Y-85269000D01*
X86398228Y-85301703D01*
G37*
G36*
X81718604Y-84968347D02*
G01*
X81755144Y-84979432D01*
X81788821Y-84997433D01*
X81818341Y-85021659D01*
X81842567Y-85051179D01*
X81860568Y-85084856D01*
X81871653Y-85121396D01*
X81876000Y-85165538D01*
X81876000Y-86614462D01*
X81871653Y-86658604D01*
X81860568Y-86695144D01*
X81842567Y-86728821D01*
X81818341Y-86758341D01*
X81788821Y-86782567D01*
X81755144Y-86800568D01*
X81718604Y-86811653D01*
X81674462Y-86816000D01*
X80725538Y-86816000D01*
X80681396Y-86811653D01*
X80644856Y-86800568D01*
X80611179Y-86782567D01*
X80581659Y-86758341D01*
X80557433Y-86728821D01*
X80539432Y-86695144D01*
X80528347Y-86658604D01*
X80524000Y-86614462D01*
X80524000Y-85165538D01*
X80528347Y-85121396D01*
X80539432Y-85084856D01*
X80557433Y-85051179D01*
X80581659Y-85021659D01*
X80611179Y-84997433D01*
X80644856Y-84979432D01*
X80681396Y-84968347D01*
X80725538Y-84964000D01*
X81674462Y-84964000D01*
X81718604Y-84968347D01*
G37*
G36*
X78918604Y-84968347D02*
G01*
X78955144Y-84979432D01*
X78988821Y-84997433D01*
X79018341Y-85021659D01*
X79042567Y-85051179D01*
X79060568Y-85084856D01*
X79071653Y-85121396D01*
X79076000Y-85165538D01*
X79076000Y-86614462D01*
X79071653Y-86658604D01*
X79060568Y-86695144D01*
X79042567Y-86728821D01*
X79018341Y-86758341D01*
X78988821Y-86782567D01*
X78955144Y-86800568D01*
X78918604Y-86811653D01*
X78874462Y-86816000D01*
X77925538Y-86816000D01*
X77881396Y-86811653D01*
X77844856Y-86800568D01*
X77811179Y-86782567D01*
X77781659Y-86758341D01*
X77757433Y-86728821D01*
X77739432Y-86695144D01*
X77728347Y-86658604D01*
X77724000Y-86614462D01*
X77724000Y-85165538D01*
X77728347Y-85121396D01*
X77739432Y-85084856D01*
X77757433Y-85051179D01*
X77781659Y-85021659D01*
X77811179Y-84997433D01*
X77844856Y-84979432D01*
X77881396Y-84968347D01*
X77925538Y-84964000D01*
X78874462Y-84964000D01*
X78918604Y-84968347D01*
G37*
G36*
X55918228Y-85071703D02*
G01*
X56073100Y-85135853D01*
X56212481Y-85228985D01*
X56331015Y-85347519D01*
X56424147Y-85486900D01*
X56488297Y-85641772D01*
X56521000Y-85806184D01*
X56521000Y-85973816D01*
X56488297Y-86138228D01*
X56424147Y-86293100D01*
X56331015Y-86432481D01*
X56212481Y-86551015D01*
X56073100Y-86644147D01*
X55918228Y-86708297D01*
X55753816Y-86741000D01*
X55586184Y-86741000D01*
X55421772Y-86708297D01*
X55266900Y-86644147D01*
X55127519Y-86551015D01*
X55008985Y-86432481D01*
X54915853Y-86293100D01*
X54851703Y-86138228D01*
X54819000Y-85973816D01*
X54819000Y-85806184D01*
X54851703Y-85641772D01*
X54915853Y-85486900D01*
X55008985Y-85347519D01*
X55127519Y-85228985D01*
X55266900Y-85135853D01*
X55421772Y-85071703D01*
X55586184Y-85039000D01*
X55753816Y-85039000D01*
X55918228Y-85071703D01*
G37*
G36*
X71158228Y-85071703D02*
G01*
X71313100Y-85135853D01*
X71452481Y-85228985D01*
X71571015Y-85347519D01*
X71664147Y-85486900D01*
X71728297Y-85641772D01*
X71761000Y-85806184D01*
X71761000Y-85973816D01*
X71728297Y-86138228D01*
X71664147Y-86293100D01*
X71571015Y-86432481D01*
X71452481Y-86551015D01*
X71313100Y-86644147D01*
X71158228Y-86708297D01*
X70993816Y-86741000D01*
X70826184Y-86741000D01*
X70661772Y-86708297D01*
X70506900Y-86644147D01*
X70367519Y-86551015D01*
X70248985Y-86432481D01*
X70155853Y-86293100D01*
X70091703Y-86138228D01*
X70059000Y-85973816D01*
X70059000Y-85806184D01*
X70091703Y-85641772D01*
X70155853Y-85486900D01*
X70248985Y-85347519D01*
X70367519Y-85228985D01*
X70506900Y-85135853D01*
X70661772Y-85071703D01*
X70826184Y-85039000D01*
X70993816Y-85039000D01*
X71158228Y-85071703D01*
G37*
G36*
X89238228Y-83916703D02*
G01*
X89393100Y-83980853D01*
X89532481Y-84073985D01*
X89651015Y-84192519D01*
X89744147Y-84331900D01*
X89808297Y-84486772D01*
X89841000Y-84651184D01*
X89841000Y-84818816D01*
X89808297Y-84983228D01*
X89744147Y-85138100D01*
X89651015Y-85277481D01*
X89532481Y-85396015D01*
X89393100Y-85489147D01*
X89238228Y-85553297D01*
X89073816Y-85586000D01*
X88906184Y-85586000D01*
X88741772Y-85553297D01*
X88586900Y-85489147D01*
X88447519Y-85396015D01*
X88328985Y-85277481D01*
X88235853Y-85138100D01*
X88171703Y-84983228D01*
X88139000Y-84818816D01*
X88139000Y-84651184D01*
X88171703Y-84486772D01*
X88235853Y-84331900D01*
X88328985Y-84192519D01*
X88447519Y-84073985D01*
X88586900Y-83980853D01*
X88741772Y-83916703D01*
X88906184Y-83884000D01*
X89073816Y-83884000D01*
X89238228Y-83916703D01*
G37*
G36*
X66478604Y-83698347D02*
G01*
X66515144Y-83709432D01*
X66548821Y-83727433D01*
X66578341Y-83751659D01*
X66602567Y-83781179D01*
X66620568Y-83814856D01*
X66631653Y-83851396D01*
X66636000Y-83895538D01*
X66636000Y-85344462D01*
X66631653Y-85388604D01*
X66620568Y-85425144D01*
X66602567Y-85458821D01*
X66578341Y-85488341D01*
X66548821Y-85512567D01*
X66515144Y-85530568D01*
X66478604Y-85541653D01*
X66434462Y-85546000D01*
X65485538Y-85546000D01*
X65441396Y-85541653D01*
X65404856Y-85530568D01*
X65371179Y-85512567D01*
X65341659Y-85488341D01*
X65317433Y-85458821D01*
X65299432Y-85425144D01*
X65288347Y-85388604D01*
X65284000Y-85344462D01*
X65284000Y-83895538D01*
X65288347Y-83851396D01*
X65299432Y-83814856D01*
X65317433Y-83781179D01*
X65341659Y-83751659D01*
X65371179Y-83727433D01*
X65404856Y-83709432D01*
X65441396Y-83698347D01*
X65485538Y-83694000D01*
X66434462Y-83694000D01*
X66478604Y-83698347D01*
G37*
G36*
X63678604Y-83698347D02*
G01*
X63715144Y-83709432D01*
X63748821Y-83727433D01*
X63778341Y-83751659D01*
X63802567Y-83781179D01*
X63820568Y-83814856D01*
X63831653Y-83851396D01*
X63836000Y-83895538D01*
X63836000Y-85344462D01*
X63831653Y-85388604D01*
X63820568Y-85425144D01*
X63802567Y-85458821D01*
X63778341Y-85488341D01*
X63748821Y-85512567D01*
X63715144Y-85530568D01*
X63678604Y-85541653D01*
X63634462Y-85546000D01*
X62685538Y-85546000D01*
X62641396Y-85541653D01*
X62604856Y-85530568D01*
X62571179Y-85512567D01*
X62541659Y-85488341D01*
X62517433Y-85458821D01*
X62499432Y-85425144D01*
X62488347Y-85388604D01*
X62484000Y-85344462D01*
X62484000Y-83895538D01*
X62488347Y-83851396D01*
X62499432Y-83814856D01*
X62517433Y-83781179D01*
X62541659Y-83751659D01*
X62571179Y-83727433D01*
X62604856Y-83709432D01*
X62641396Y-83698347D01*
X62685538Y-83694000D01*
X63634462Y-83694000D01*
X63678604Y-83698347D01*
G37*
G36*
X87001000Y-84201000D02*
G01*
X85299000Y-84201000D01*
X85299000Y-82499000D01*
X87001000Y-82499000D01*
X87001000Y-84201000D01*
G37*
G36*
X55918228Y-82531703D02*
G01*
X56073100Y-82595853D01*
X56212481Y-82688985D01*
X56331015Y-82807519D01*
X56424147Y-82946900D01*
X56488297Y-83101772D01*
X56521000Y-83266184D01*
X56521000Y-83433816D01*
X56488297Y-83598228D01*
X56424147Y-83753100D01*
X56331015Y-83892481D01*
X56212481Y-84011015D01*
X56073100Y-84104147D01*
X55918228Y-84168297D01*
X55753816Y-84201000D01*
X55586184Y-84201000D01*
X55421772Y-84168297D01*
X55266900Y-84104147D01*
X55127519Y-84011015D01*
X55008985Y-83892481D01*
X54915853Y-83753100D01*
X54851703Y-83598228D01*
X54819000Y-83433816D01*
X54819000Y-83266184D01*
X54851703Y-83101772D01*
X54915853Y-82946900D01*
X55008985Y-82807519D01*
X55127519Y-82688985D01*
X55266900Y-82595853D01*
X55421772Y-82531703D01*
X55586184Y-82499000D01*
X55753816Y-82499000D01*
X55918228Y-82531703D01*
G37*
G36*
X71158228Y-82531703D02*
G01*
X71313100Y-82595853D01*
X71452481Y-82688985D01*
X71571015Y-82807519D01*
X71664147Y-82946900D01*
X71728297Y-83101772D01*
X71761000Y-83266184D01*
X71761000Y-83433816D01*
X71728297Y-83598228D01*
X71664147Y-83753100D01*
X71571015Y-83892481D01*
X71452481Y-84011015D01*
X71313100Y-84104147D01*
X71158228Y-84168297D01*
X70993816Y-84201000D01*
X70826184Y-84201000D01*
X70661772Y-84168297D01*
X70506900Y-84104147D01*
X70367519Y-84011015D01*
X70248985Y-83892481D01*
X70155853Y-83753100D01*
X70091703Y-83598228D01*
X70059000Y-83433816D01*
X70059000Y-83266184D01*
X70091703Y-83101772D01*
X70155853Y-82946900D01*
X70248985Y-82807519D01*
X70367519Y-82688985D01*
X70506900Y-82595853D01*
X70661772Y-82531703D01*
X70826184Y-82499000D01*
X70993816Y-82499000D01*
X71158228Y-82531703D01*
G37*
G36*
X66478604Y-79888347D02*
G01*
X66515144Y-79899432D01*
X66548821Y-79917433D01*
X66578341Y-79941659D01*
X66602567Y-79971179D01*
X66620568Y-80004856D01*
X66631653Y-80041396D01*
X66636000Y-80085538D01*
X66636000Y-81534462D01*
X66631653Y-81578604D01*
X66620568Y-81615144D01*
X66602567Y-81648821D01*
X66578341Y-81678341D01*
X66548821Y-81702567D01*
X66515144Y-81720568D01*
X66478604Y-81731653D01*
X66434462Y-81736000D01*
X65485538Y-81736000D01*
X65441396Y-81731653D01*
X65404856Y-81720568D01*
X65371179Y-81702567D01*
X65341659Y-81678341D01*
X65317433Y-81648821D01*
X65299432Y-81615144D01*
X65288347Y-81578604D01*
X65284000Y-81534462D01*
X65284000Y-80085538D01*
X65288347Y-80041396D01*
X65299432Y-80004856D01*
X65317433Y-79971179D01*
X65341659Y-79941659D01*
X65371179Y-79917433D01*
X65404856Y-79899432D01*
X65441396Y-79888347D01*
X65485538Y-79884000D01*
X66434462Y-79884000D01*
X66478604Y-79888347D01*
G37*
G36*
X63678604Y-79888347D02*
G01*
X63715144Y-79899432D01*
X63748821Y-79917433D01*
X63778341Y-79941659D01*
X63802567Y-79971179D01*
X63820568Y-80004856D01*
X63831653Y-80041396D01*
X63836000Y-80085538D01*
X63836000Y-81534462D01*
X63831653Y-81578604D01*
X63820568Y-81615144D01*
X63802567Y-81648821D01*
X63778341Y-81678341D01*
X63748821Y-81702567D01*
X63715144Y-81720568D01*
X63678604Y-81731653D01*
X63634462Y-81736000D01*
X62685538Y-81736000D01*
X62641396Y-81731653D01*
X62604856Y-81720568D01*
X62571179Y-81702567D01*
X62541659Y-81678341D01*
X62517433Y-81648821D01*
X62499432Y-81615144D01*
X62488347Y-81578604D01*
X62484000Y-81534462D01*
X62484000Y-80085538D01*
X62488347Y-80041396D01*
X62499432Y-80004856D01*
X62517433Y-79971179D01*
X62541659Y-79941659D01*
X62571179Y-79917433D01*
X62604856Y-79899432D01*
X62641396Y-79888347D01*
X62685538Y-79884000D01*
X63634462Y-79884000D01*
X63678604Y-79888347D01*
G37*
G36*
X71158228Y-79991703D02*
G01*
X71313100Y-80055853D01*
X71452481Y-80148985D01*
X71571015Y-80267519D01*
X71664147Y-80406900D01*
X71728297Y-80561772D01*
X71761000Y-80726184D01*
X71761000Y-80893816D01*
X71728297Y-81058228D01*
X71664147Y-81213100D01*
X71571015Y-81352481D01*
X71452481Y-81471015D01*
X71313100Y-81564147D01*
X71158228Y-81628297D01*
X70993816Y-81661000D01*
X70826184Y-81661000D01*
X70661772Y-81628297D01*
X70506900Y-81564147D01*
X70367519Y-81471015D01*
X70248985Y-81352481D01*
X70155853Y-81213100D01*
X70091703Y-81058228D01*
X70059000Y-80893816D01*
X70059000Y-80726184D01*
X70091703Y-80561772D01*
X70155853Y-80406900D01*
X70248985Y-80267519D01*
X70367519Y-80148985D01*
X70506900Y-80055853D01*
X70661772Y-79991703D01*
X70826184Y-79959000D01*
X70993816Y-79959000D01*
X71158228Y-79991703D01*
G37*
G36*
X55918228Y-79991703D02*
G01*
X56073100Y-80055853D01*
X56212481Y-80148985D01*
X56331015Y-80267519D01*
X56424147Y-80406900D01*
X56488297Y-80561772D01*
X56521000Y-80726184D01*
X56521000Y-80893816D01*
X56488297Y-81058228D01*
X56424147Y-81213100D01*
X56331015Y-81352481D01*
X56212481Y-81471015D01*
X56073100Y-81564147D01*
X55918228Y-81628297D01*
X55753816Y-81661000D01*
X55586184Y-81661000D01*
X55421772Y-81628297D01*
X55266900Y-81564147D01*
X55127519Y-81471015D01*
X55008985Y-81352481D01*
X54915853Y-81213100D01*
X54851703Y-81058228D01*
X54819000Y-80893816D01*
X54819000Y-80726184D01*
X54851703Y-80561772D01*
X54915853Y-80406900D01*
X55008985Y-80267519D01*
X55127519Y-80148985D01*
X55266900Y-80055853D01*
X55421772Y-79991703D01*
X55586184Y-79959000D01*
X55753816Y-79959000D01*
X55918228Y-79991703D01*
G37*
G36*
X66478604Y-77348347D02*
G01*
X66515144Y-77359432D01*
X66548821Y-77377433D01*
X66578341Y-77401659D01*
X66602567Y-77431179D01*
X66620568Y-77464856D01*
X66631653Y-77501396D01*
X66636000Y-77545538D01*
X66636000Y-78994462D01*
X66631653Y-79038604D01*
X66620568Y-79075144D01*
X66602567Y-79108821D01*
X66578341Y-79138341D01*
X66548821Y-79162567D01*
X66515144Y-79180568D01*
X66478604Y-79191653D01*
X66434462Y-79196000D01*
X65485538Y-79196000D01*
X65441396Y-79191653D01*
X65404856Y-79180568D01*
X65371179Y-79162567D01*
X65341659Y-79138341D01*
X65317433Y-79108821D01*
X65299432Y-79075144D01*
X65288347Y-79038604D01*
X65284000Y-78994462D01*
X65284000Y-77545538D01*
X65288347Y-77501396D01*
X65299432Y-77464856D01*
X65317433Y-77431179D01*
X65341659Y-77401659D01*
X65371179Y-77377433D01*
X65404856Y-77359432D01*
X65441396Y-77348347D01*
X65485538Y-77344000D01*
X66434462Y-77344000D01*
X66478604Y-77348347D01*
G37*
G36*
X63678604Y-77348347D02*
G01*
X63715144Y-77359432D01*
X63748821Y-77377433D01*
X63778341Y-77401659D01*
X63802567Y-77431179D01*
X63820568Y-77464856D01*
X63831653Y-77501396D01*
X63836000Y-77545538D01*
X63836000Y-78994462D01*
X63831653Y-79038604D01*
X63820568Y-79075144D01*
X63802567Y-79108821D01*
X63778341Y-79138341D01*
X63748821Y-79162567D01*
X63715144Y-79180568D01*
X63678604Y-79191653D01*
X63634462Y-79196000D01*
X62685538Y-79196000D01*
X62641396Y-79191653D01*
X62604856Y-79180568D01*
X62571179Y-79162567D01*
X62541659Y-79138341D01*
X62517433Y-79108821D01*
X62499432Y-79075144D01*
X62488347Y-79038604D01*
X62484000Y-78994462D01*
X62484000Y-77545538D01*
X62488347Y-77501396D01*
X62499432Y-77464856D01*
X62517433Y-77431179D01*
X62541659Y-77401659D01*
X62571179Y-77377433D01*
X62604856Y-77359432D01*
X62641396Y-77348347D01*
X62685538Y-77344000D01*
X63634462Y-77344000D01*
X63678604Y-77348347D01*
G37*
G36*
X71158228Y-77451703D02*
G01*
X71313100Y-77515853D01*
X71452481Y-77608985D01*
X71571015Y-77727519D01*
X71664147Y-77866900D01*
X71728297Y-78021772D01*
X71761000Y-78186184D01*
X71761000Y-78353816D01*
X71728297Y-78518228D01*
X71664147Y-78673100D01*
X71571015Y-78812481D01*
X71452481Y-78931015D01*
X71313100Y-79024147D01*
X71158228Y-79088297D01*
X70993816Y-79121000D01*
X70826184Y-79121000D01*
X70661772Y-79088297D01*
X70506900Y-79024147D01*
X70367519Y-78931015D01*
X70248985Y-78812481D01*
X70155853Y-78673100D01*
X70091703Y-78518228D01*
X70059000Y-78353816D01*
X70059000Y-78186184D01*
X70091703Y-78021772D01*
X70155853Y-77866900D01*
X70248985Y-77727519D01*
X70367519Y-77608985D01*
X70506900Y-77515853D01*
X70661772Y-77451703D01*
X70826184Y-77419000D01*
X70993816Y-77419000D01*
X71158228Y-77451703D01*
G37*
G36*
X55918228Y-77451703D02*
G01*
X56073100Y-77515853D01*
X56212481Y-77608985D01*
X56331015Y-77727519D01*
X56424147Y-77866900D01*
X56488297Y-78021772D01*
X56521000Y-78186184D01*
X56521000Y-78353816D01*
X56488297Y-78518228D01*
X56424147Y-78673100D01*
X56331015Y-78812481D01*
X56212481Y-78931015D01*
X56073100Y-79024147D01*
X55918228Y-79088297D01*
X55753816Y-79121000D01*
X55586184Y-79121000D01*
X55421772Y-79088297D01*
X55266900Y-79024147D01*
X55127519Y-78931015D01*
X55008985Y-78812481D01*
X54915853Y-78673100D01*
X54851703Y-78518228D01*
X54819000Y-78353816D01*
X54819000Y-78186184D01*
X54851703Y-78021772D01*
X54915853Y-77866900D01*
X55008985Y-77727519D01*
X55127519Y-77608985D01*
X55266900Y-77515853D01*
X55421772Y-77451703D01*
X55586184Y-77419000D01*
X55753816Y-77419000D01*
X55918228Y-77451703D01*
G37*
G36*
X88168254Y-74417818D02*
G01*
X88506780Y-74558040D01*
X88541513Y-74572427D01*
X88708498Y-74684003D01*
X88877436Y-74796884D01*
X89163116Y-75082564D01*
X89387574Y-75418489D01*
X89542182Y-75791746D01*
X89621000Y-76187993D01*
X89621000Y-76592007D01*
X89542182Y-76988254D01*
X89444531Y-77224004D01*
X89387573Y-77361513D01*
X89163116Y-77697436D01*
X88877436Y-77983116D01*
X88541513Y-78207573D01*
X88541512Y-78207574D01*
X88541511Y-78207574D01*
X88168254Y-78362182D01*
X87772007Y-78441000D01*
X87367993Y-78441000D01*
X86971746Y-78362182D01*
X86598489Y-78207574D01*
X86598488Y-78207574D01*
X86598487Y-78207573D01*
X86262564Y-77983116D01*
X85976884Y-77697436D01*
X85752427Y-77361513D01*
X85695469Y-77224004D01*
X85597818Y-76988254D01*
X85519000Y-76592007D01*
X85519000Y-76187993D01*
X85597818Y-75791746D01*
X85752426Y-75418489D01*
X85976884Y-75082564D01*
X86262564Y-74796884D01*
X86431502Y-74684003D01*
X86598487Y-74572427D01*
X86633220Y-74558040D01*
X86971746Y-74417818D01*
X87367993Y-74339000D01*
X87772007Y-74339000D01*
X88168254Y-74417818D01*
G37*
G36*
X59920083Y-67453432D02*
G01*
X60039734Y-67477232D01*
X60249203Y-67563997D01*
X60437720Y-67689960D01*
X60598040Y-67850280D01*
X60724003Y-68038797D01*
X60788214Y-68193815D01*
X60810768Y-68248267D01*
X60855000Y-68470635D01*
X60855000Y-68697365D01*
X60810768Y-68919733D01*
X60740879Y-69088462D01*
X60724003Y-69129203D01*
X60598040Y-69317720D01*
X60437720Y-69478040D01*
X60249203Y-69604003D01*
X60039734Y-69690768D01*
X59912161Y-69716144D01*
X59835448Y-69731403D01*
X59811999Y-69738516D01*
X59790388Y-69750067D01*
X59771446Y-69765612D01*
X59755901Y-69784554D01*
X59744350Y-69806165D01*
X59737237Y-69829614D01*
X59734835Y-69854000D01*
X59737237Y-69878386D01*
X59744350Y-69901835D01*
X59755901Y-69923446D01*
X59771446Y-69942388D01*
X59790388Y-69957933D01*
X59811999Y-69969484D01*
X59835448Y-69976597D01*
X59897726Y-69988985D01*
X60039734Y-70017232D01*
X60249203Y-70103997D01*
X60437720Y-70229960D01*
X60598040Y-70390280D01*
X60724003Y-70578797D01*
X60810768Y-70788266D01*
X60855000Y-71010636D01*
X60855000Y-71237364D01*
X60810768Y-71459734D01*
X60724003Y-71669203D01*
X60598040Y-71857720D01*
X60437720Y-72018040D01*
X60249203Y-72144003D01*
X60039734Y-72230768D01*
X59912161Y-72256144D01*
X59835448Y-72271403D01*
X59811999Y-72278516D01*
X59790388Y-72290067D01*
X59771446Y-72305612D01*
X59755901Y-72324554D01*
X59744350Y-72346165D01*
X59737237Y-72369614D01*
X59734835Y-72394000D01*
X59737237Y-72418386D01*
X59744350Y-72441835D01*
X59755901Y-72463446D01*
X59771446Y-72482388D01*
X59790388Y-72497933D01*
X59811999Y-72509484D01*
X59835448Y-72516597D01*
X59897726Y-72528985D01*
X60039734Y-72557232D01*
X60249203Y-72643997D01*
X60437720Y-72769960D01*
X60598040Y-72930280D01*
X60724003Y-73118797D01*
X60810768Y-73328266D01*
X60855000Y-73550636D01*
X60855000Y-73777364D01*
X60810768Y-73999734D01*
X60724003Y-74209203D01*
X60598040Y-74397720D01*
X60437720Y-74558040D01*
X60249203Y-74684003D01*
X60039734Y-74770768D01*
X59912161Y-74796144D01*
X59835448Y-74811403D01*
X59811999Y-74818516D01*
X59790388Y-74830067D01*
X59771446Y-74845612D01*
X59755901Y-74864554D01*
X59744350Y-74886165D01*
X59737237Y-74909614D01*
X59734835Y-74934000D01*
X59737237Y-74958386D01*
X59744350Y-74981835D01*
X59755901Y-75003446D01*
X59771446Y-75022388D01*
X59790388Y-75037933D01*
X59811999Y-75049484D01*
X59835448Y-75056597D01*
X59897726Y-75068985D01*
X60039734Y-75097232D01*
X60249203Y-75183997D01*
X60437720Y-75309960D01*
X60598040Y-75470280D01*
X60724003Y-75658797D01*
X60810768Y-75868266D01*
X60855000Y-76090636D01*
X60855000Y-76317364D01*
X60810768Y-76539734D01*
X60724003Y-76749203D01*
X60598040Y-76937720D01*
X60437720Y-77098040D01*
X60249203Y-77224003D01*
X60039734Y-77310768D01*
X59928549Y-77332884D01*
X59817365Y-77355000D01*
X59590635Y-77355000D01*
X59479451Y-77332884D01*
X59368266Y-77310768D01*
X59158797Y-77224003D01*
X58970280Y-77098040D01*
X58809960Y-76937720D01*
X58683997Y-76749203D01*
X58597232Y-76539734D01*
X58553000Y-76317364D01*
X58553000Y-76090636D01*
X58597232Y-75868266D01*
X58683997Y-75658797D01*
X58809960Y-75470280D01*
X58970280Y-75309960D01*
X59158797Y-75183997D01*
X59368266Y-75097232D01*
X59510274Y-75068985D01*
X59572552Y-75056597D01*
X59596001Y-75049484D01*
X59617612Y-75037933D01*
X59636554Y-75022388D01*
X59652099Y-75003446D01*
X59663650Y-74981835D01*
X59670763Y-74958386D01*
X59673165Y-74934000D01*
X59670763Y-74909614D01*
X59663650Y-74886165D01*
X59652099Y-74864554D01*
X59636554Y-74845612D01*
X59617612Y-74830067D01*
X59596001Y-74818516D01*
X59572552Y-74811403D01*
X59495839Y-74796144D01*
X59368266Y-74770768D01*
X59158797Y-74684003D01*
X58970280Y-74558040D01*
X58809960Y-74397720D01*
X58683997Y-74209203D01*
X58597232Y-73999734D01*
X58553000Y-73777364D01*
X58553000Y-73550636D01*
X58597232Y-73328266D01*
X58683997Y-73118797D01*
X58809960Y-72930280D01*
X58970280Y-72769960D01*
X59158797Y-72643997D01*
X59368266Y-72557232D01*
X59510274Y-72528985D01*
X59572552Y-72516597D01*
X59596001Y-72509484D01*
X59617612Y-72497933D01*
X59636554Y-72482388D01*
X59652099Y-72463446D01*
X59663650Y-72441835D01*
X59670763Y-72418386D01*
X59673165Y-72394000D01*
X59670763Y-72369614D01*
X59663650Y-72346165D01*
X59652099Y-72324554D01*
X59636554Y-72305612D01*
X59617612Y-72290067D01*
X59596001Y-72278516D01*
X59572552Y-72271403D01*
X59495839Y-72256144D01*
X59368266Y-72230768D01*
X59158797Y-72144003D01*
X58970280Y-72018040D01*
X58809960Y-71857720D01*
X58683997Y-71669203D01*
X58597232Y-71459734D01*
X58553000Y-71237364D01*
X58553000Y-71010636D01*
X58597232Y-70788266D01*
X58683997Y-70578797D01*
X58809960Y-70390280D01*
X58970280Y-70229960D01*
X59158797Y-70103997D01*
X59368266Y-70017232D01*
X59510274Y-69988985D01*
X59572552Y-69976597D01*
X59596001Y-69969484D01*
X59617612Y-69957933D01*
X59636554Y-69942388D01*
X59652099Y-69923446D01*
X59663650Y-69901835D01*
X59670763Y-69878386D01*
X59673165Y-69854000D01*
X59670763Y-69829614D01*
X59663650Y-69806165D01*
X59652099Y-69784554D01*
X59636554Y-69765612D01*
X59617612Y-69750067D01*
X59596001Y-69738516D01*
X59572552Y-69731403D01*
X59495839Y-69716144D01*
X59368266Y-69690768D01*
X59158797Y-69604003D01*
X58970280Y-69478040D01*
X58809960Y-69317720D01*
X58683997Y-69129203D01*
X58667122Y-69088462D01*
X58597232Y-68919733D01*
X58553000Y-68697365D01*
X58553000Y-68470635D01*
X58597232Y-68248267D01*
X58619787Y-68193815D01*
X58683997Y-68038797D01*
X58809960Y-67850280D01*
X58970280Y-67689960D01*
X59158797Y-67563997D01*
X59368266Y-67477232D01*
X59487917Y-67453432D01*
X59590635Y-67433000D01*
X59817365Y-67433000D01*
X59920083Y-67453432D01*
G37*
G36*
X71158228Y-74911703D02*
G01*
X71313100Y-74975853D01*
X71452481Y-75068985D01*
X71571015Y-75187519D01*
X71664147Y-75326900D01*
X71728297Y-75481772D01*
X71761000Y-75646184D01*
X71761000Y-75813816D01*
X71728297Y-75978228D01*
X71664147Y-76133100D01*
X71571015Y-76272481D01*
X71452481Y-76391015D01*
X71313100Y-76484147D01*
X71158228Y-76548297D01*
X70993816Y-76581000D01*
X70826184Y-76581000D01*
X70661772Y-76548297D01*
X70506900Y-76484147D01*
X70367519Y-76391015D01*
X70248985Y-76272481D01*
X70155853Y-76133100D01*
X70091703Y-75978228D01*
X70059000Y-75813816D01*
X70059000Y-75646184D01*
X70091703Y-75481772D01*
X70155853Y-75326900D01*
X70248985Y-75187519D01*
X70367519Y-75068985D01*
X70506900Y-74975853D01*
X70661772Y-74911703D01*
X70826184Y-74879000D01*
X70993816Y-74879000D01*
X71158228Y-74911703D01*
G37*
G36*
X55918228Y-74911703D02*
G01*
X56073100Y-74975853D01*
X56212481Y-75068985D01*
X56331015Y-75187519D01*
X56424147Y-75326900D01*
X56488297Y-75481772D01*
X56521000Y-75646184D01*
X56521000Y-75813816D01*
X56488297Y-75978228D01*
X56424147Y-76133100D01*
X56331015Y-76272481D01*
X56212481Y-76391015D01*
X56073100Y-76484147D01*
X55918228Y-76548297D01*
X55753816Y-76581000D01*
X55586184Y-76581000D01*
X55421772Y-76548297D01*
X55266900Y-76484147D01*
X55127519Y-76391015D01*
X55008985Y-76272481D01*
X54915853Y-76133100D01*
X54851703Y-75978228D01*
X54819000Y-75813816D01*
X54819000Y-75646184D01*
X54851703Y-75481772D01*
X54915853Y-75326900D01*
X55008985Y-75187519D01*
X55127519Y-75068985D01*
X55266900Y-74975853D01*
X55421772Y-74911703D01*
X55586184Y-74879000D01*
X55753816Y-74879000D01*
X55918228Y-74911703D01*
G37*
G36*
X55918228Y-72371703D02*
G01*
X56073100Y-72435853D01*
X56212481Y-72528985D01*
X56331015Y-72647519D01*
X56424147Y-72786900D01*
X56488297Y-72941772D01*
X56521000Y-73106184D01*
X56521000Y-73273816D01*
X56488297Y-73438228D01*
X56424147Y-73593100D01*
X56331015Y-73732481D01*
X56212481Y-73851015D01*
X56073100Y-73944147D01*
X55918228Y-74008297D01*
X55753816Y-74041000D01*
X55586184Y-74041000D01*
X55421772Y-74008297D01*
X55266900Y-73944147D01*
X55127519Y-73851015D01*
X55008985Y-73732481D01*
X54915853Y-73593100D01*
X54851703Y-73438228D01*
X54819000Y-73273816D01*
X54819000Y-73106184D01*
X54851703Y-72941772D01*
X54915853Y-72786900D01*
X55008985Y-72647519D01*
X55127519Y-72528985D01*
X55266900Y-72435853D01*
X55421772Y-72371703D01*
X55586184Y-72339000D01*
X55753816Y-72339000D01*
X55918228Y-72371703D01*
G37*
G36*
X71158228Y-72371703D02*
G01*
X71313100Y-72435853D01*
X71452481Y-72528985D01*
X71571015Y-72647519D01*
X71664147Y-72786900D01*
X71728297Y-72941772D01*
X71761000Y-73106184D01*
X71761000Y-73273816D01*
X71728297Y-73438228D01*
X71664147Y-73593100D01*
X71571015Y-73732481D01*
X71452481Y-73851015D01*
X71313100Y-73944147D01*
X71158228Y-74008297D01*
X70993816Y-74041000D01*
X70826184Y-74041000D01*
X70661772Y-74008297D01*
X70506900Y-73944147D01*
X70367519Y-73851015D01*
X70248985Y-73732481D01*
X70155853Y-73593100D01*
X70091703Y-73438228D01*
X70059000Y-73273816D01*
X70059000Y-73106184D01*
X70091703Y-72941772D01*
X70155853Y-72786900D01*
X70248985Y-72647519D01*
X70367519Y-72528985D01*
X70506900Y-72435853D01*
X70661772Y-72371703D01*
X70826184Y-72339000D01*
X70993816Y-72339000D01*
X71158228Y-72371703D01*
G37*
G36*
X71158228Y-69831703D02*
G01*
X71313100Y-69895853D01*
X71452481Y-69988985D01*
X71571015Y-70107519D01*
X71664147Y-70246900D01*
X71728297Y-70401772D01*
X71761000Y-70566184D01*
X71761000Y-70733816D01*
X71728297Y-70898228D01*
X71664147Y-71053100D01*
X71571015Y-71192481D01*
X71452481Y-71311015D01*
X71313100Y-71404147D01*
X71158228Y-71468297D01*
X70993816Y-71501000D01*
X70826184Y-71501000D01*
X70661772Y-71468297D01*
X70506900Y-71404147D01*
X70367519Y-71311015D01*
X70248985Y-71192481D01*
X70155853Y-71053100D01*
X70091703Y-70898228D01*
X70059000Y-70733816D01*
X70059000Y-70566184D01*
X70091703Y-70401772D01*
X70155853Y-70246900D01*
X70248985Y-70107519D01*
X70367519Y-69988985D01*
X70506900Y-69895853D01*
X70661772Y-69831703D01*
X70826184Y-69799000D01*
X70993816Y-69799000D01*
X71158228Y-69831703D01*
G37*
G36*
X55918228Y-69831703D02*
G01*
X56073100Y-69895853D01*
X56212481Y-69988985D01*
X56331015Y-70107519D01*
X56424147Y-70246900D01*
X56488297Y-70401772D01*
X56521000Y-70566184D01*
X56521000Y-70733816D01*
X56488297Y-70898228D01*
X56424147Y-71053100D01*
X56331015Y-71192481D01*
X56212481Y-71311015D01*
X56073100Y-71404147D01*
X55918228Y-71468297D01*
X55753816Y-71501000D01*
X55586184Y-71501000D01*
X55421772Y-71468297D01*
X55266900Y-71404147D01*
X55127519Y-71311015D01*
X55008985Y-71192481D01*
X54915853Y-71053100D01*
X54851703Y-70898228D01*
X54819000Y-70733816D01*
X54819000Y-70566184D01*
X54851703Y-70401772D01*
X54915853Y-70246900D01*
X55008985Y-70107519D01*
X55127519Y-69988985D01*
X55266900Y-69895853D01*
X55421772Y-69831703D01*
X55586184Y-69799000D01*
X55753816Y-69799000D01*
X55918228Y-69831703D01*
G37*
G36*
X75465142Y-69868242D02*
G01*
X75613101Y-69929529D01*
X75746255Y-70018499D01*
X75859501Y-70131745D01*
X75948471Y-70264899D01*
X76009758Y-70412858D01*
X76041000Y-70569925D01*
X76041000Y-70730075D01*
X76009758Y-70887142D01*
X75948471Y-71035101D01*
X75859501Y-71168255D01*
X75746255Y-71281501D01*
X75613101Y-71370471D01*
X75465142Y-71431758D01*
X75308075Y-71463000D01*
X75147925Y-71463000D01*
X74990858Y-71431758D01*
X74842899Y-71370471D01*
X74709745Y-71281501D01*
X74596499Y-71168255D01*
X74507529Y-71035101D01*
X74446242Y-70887142D01*
X74415000Y-70730075D01*
X74415000Y-70569925D01*
X74446242Y-70412858D01*
X74507529Y-70264899D01*
X74596499Y-70131745D01*
X74709745Y-70018499D01*
X74842899Y-69929529D01*
X74990858Y-69868242D01*
X75147925Y-69837000D01*
X75308075Y-69837000D01*
X75465142Y-69868242D01*
G37*
G36*
X94007142Y-69868242D02*
G01*
X94155101Y-69929529D01*
X94288255Y-70018499D01*
X94401501Y-70131745D01*
X94490471Y-70264899D01*
X94551758Y-70412858D01*
X94583000Y-70569925D01*
X94583000Y-70730075D01*
X94551758Y-70887142D01*
X94490471Y-71035101D01*
X94401501Y-71168255D01*
X94288255Y-71281501D01*
X94155101Y-71370471D01*
X94007142Y-71431758D01*
X93850075Y-71463000D01*
X93689925Y-71463000D01*
X93532858Y-71431758D01*
X93384899Y-71370471D01*
X93251745Y-71281501D01*
X93138499Y-71168255D01*
X93049529Y-71035101D01*
X92988242Y-70887142D01*
X92957000Y-70730075D01*
X92957000Y-70569925D01*
X92988242Y-70412858D01*
X93049529Y-70264899D01*
X93138499Y-70131745D01*
X93251745Y-70018499D01*
X93384899Y-69929529D01*
X93532858Y-69868242D01*
X93689925Y-69837000D01*
X93850075Y-69837000D01*
X94007142Y-69868242D01*
G37*
G36*
X87560604Y-67442347D02*
G01*
X87597144Y-67453432D01*
X87615076Y-67463017D01*
X87637715Y-67472395D01*
X87661748Y-67477175D01*
X87686252Y-67477175D01*
X87710285Y-67472395D01*
X87732924Y-67463017D01*
X87750856Y-67453432D01*
X87787396Y-67442347D01*
X87831538Y-67438000D01*
X88780462Y-67438000D01*
X88824604Y-67442347D01*
X88861144Y-67453432D01*
X88894821Y-67471433D01*
X88924341Y-67495659D01*
X88948567Y-67525179D01*
X88966568Y-67558856D01*
X88977653Y-67595396D01*
X88982000Y-67639538D01*
X88982000Y-69088462D01*
X88977653Y-69132604D01*
X88966568Y-69169144D01*
X88948567Y-69202821D01*
X88924341Y-69232341D01*
X88894821Y-69256567D01*
X88861144Y-69274568D01*
X88824604Y-69285653D01*
X88780462Y-69290000D01*
X87831538Y-69290000D01*
X87787396Y-69285653D01*
X87750856Y-69274568D01*
X87732924Y-69264983D01*
X87710285Y-69255605D01*
X87686252Y-69250825D01*
X87661748Y-69250825D01*
X87637715Y-69255605D01*
X87615076Y-69264983D01*
X87597144Y-69274568D01*
X87560604Y-69285653D01*
X87516462Y-69290000D01*
X86567538Y-69290000D01*
X86523396Y-69285653D01*
X86486856Y-69274568D01*
X86453179Y-69256567D01*
X86423659Y-69232341D01*
X86399433Y-69202821D01*
X86381432Y-69169144D01*
X86370347Y-69132604D01*
X86366000Y-69088462D01*
X86366000Y-67639538D01*
X86370347Y-67595396D01*
X86381432Y-67558856D01*
X86399433Y-67525179D01*
X86423659Y-67495659D01*
X86453179Y-67471433D01*
X86486856Y-67453432D01*
X86523396Y-67442347D01*
X86567538Y-67438000D01*
X87516462Y-67438000D01*
X87560604Y-67442347D01*
G37*
G36*
X91624604Y-67442347D02*
G01*
X91661144Y-67453432D01*
X91694821Y-67471433D01*
X91724341Y-67495659D01*
X91748567Y-67525179D01*
X91766568Y-67558856D01*
X91777653Y-67595396D01*
X91782000Y-67639538D01*
X91782000Y-69088462D01*
X91777653Y-69132604D01*
X91766568Y-69169144D01*
X91748567Y-69202821D01*
X91724341Y-69232341D01*
X91694821Y-69256567D01*
X91661144Y-69274568D01*
X91624604Y-69285653D01*
X91580462Y-69290000D01*
X90631538Y-69290000D01*
X90587396Y-69285653D01*
X90550856Y-69274568D01*
X90517179Y-69256567D01*
X90487659Y-69232341D01*
X90463433Y-69202821D01*
X90445432Y-69169144D01*
X90434347Y-69132604D01*
X90430000Y-69088462D01*
X90430000Y-67639538D01*
X90434347Y-67595396D01*
X90445432Y-67558856D01*
X90463433Y-67525179D01*
X90487659Y-67495659D01*
X90517179Y-67471433D01*
X90550856Y-67453432D01*
X90587396Y-67442347D01*
X90631538Y-67438000D01*
X91580462Y-67438000D01*
X91624604Y-67442347D01*
G37*
G36*
X84760604Y-67442347D02*
G01*
X84797144Y-67453432D01*
X84830821Y-67471433D01*
X84860341Y-67495659D01*
X84884567Y-67525179D01*
X84902568Y-67558856D01*
X84913653Y-67595396D01*
X84918000Y-67639538D01*
X84918000Y-69088462D01*
X84913653Y-69132604D01*
X84902568Y-69169144D01*
X84884567Y-69202821D01*
X84860341Y-69232341D01*
X84830821Y-69256567D01*
X84797144Y-69274568D01*
X84760604Y-69285653D01*
X84716462Y-69290000D01*
X83767538Y-69290000D01*
X83723396Y-69285653D01*
X83686856Y-69274568D01*
X83653179Y-69256567D01*
X83623659Y-69232341D01*
X83599433Y-69202821D01*
X83581432Y-69169144D01*
X83570347Y-69132604D01*
X83566000Y-69088462D01*
X83566000Y-67639538D01*
X83570347Y-67595396D01*
X83581432Y-67558856D01*
X83599433Y-67525179D01*
X83623659Y-67495659D01*
X83653179Y-67471433D01*
X83686856Y-67453432D01*
X83723396Y-67442347D01*
X83767538Y-67438000D01*
X84716462Y-67438000D01*
X84760604Y-67442347D01*
G37*
G36*
X55918228Y-67291703D02*
G01*
X56073100Y-67355853D01*
X56212481Y-67448985D01*
X56331015Y-67567519D01*
X56424147Y-67706900D01*
X56488297Y-67861772D01*
X56521000Y-68026184D01*
X56521000Y-68193816D01*
X56488297Y-68358228D01*
X56424147Y-68513100D01*
X56331015Y-68652481D01*
X56212481Y-68771015D01*
X56073100Y-68864147D01*
X55918228Y-68928297D01*
X55753816Y-68961000D01*
X55586184Y-68961000D01*
X55421772Y-68928297D01*
X55266900Y-68864147D01*
X55127519Y-68771015D01*
X55008985Y-68652481D01*
X54915853Y-68513100D01*
X54851703Y-68358228D01*
X54819000Y-68193816D01*
X54819000Y-68026184D01*
X54851703Y-67861772D01*
X54915853Y-67706900D01*
X55008985Y-67567519D01*
X55127519Y-67448985D01*
X55266900Y-67355853D01*
X55421772Y-67291703D01*
X55586184Y-67259000D01*
X55753816Y-67259000D01*
X55918228Y-67291703D01*
G37*
G36*
X71158228Y-67291703D02*
G01*
X71313100Y-67355853D01*
X71452481Y-67448985D01*
X71571015Y-67567519D01*
X71664147Y-67706900D01*
X71728297Y-67861772D01*
X71761000Y-68026184D01*
X71761000Y-68193816D01*
X71728297Y-68358228D01*
X71664147Y-68513100D01*
X71571015Y-68652481D01*
X71452481Y-68771015D01*
X71313100Y-68864147D01*
X71158228Y-68928297D01*
X70993816Y-68961000D01*
X70826184Y-68961000D01*
X70661772Y-68928297D01*
X70506900Y-68864147D01*
X70367519Y-68771015D01*
X70248985Y-68652481D01*
X70155853Y-68513100D01*
X70091703Y-68358228D01*
X70059000Y-68193816D01*
X70059000Y-68026184D01*
X70091703Y-67861772D01*
X70155853Y-67706900D01*
X70248985Y-67567519D01*
X70367519Y-67448985D01*
X70506900Y-67355853D01*
X70661772Y-67291703D01*
X70826184Y-67259000D01*
X70993816Y-67259000D01*
X71158228Y-67291703D01*
G37*
G36*
X75465142Y-67328242D02*
G01*
X75613101Y-67389529D01*
X75746255Y-67478499D01*
X75859501Y-67591745D01*
X75948471Y-67724899D01*
X76009758Y-67872858D01*
X76041000Y-68029925D01*
X76041000Y-68190075D01*
X76009758Y-68347142D01*
X75948471Y-68495101D01*
X75859501Y-68628255D01*
X75746255Y-68741501D01*
X75613101Y-68830471D01*
X75465142Y-68891758D01*
X75308075Y-68923000D01*
X75147925Y-68923000D01*
X74990858Y-68891758D01*
X74842899Y-68830471D01*
X74709745Y-68741501D01*
X74596499Y-68628255D01*
X74507529Y-68495101D01*
X74446242Y-68347142D01*
X74415000Y-68190075D01*
X74415000Y-68029925D01*
X74446242Y-67872858D01*
X74507529Y-67724899D01*
X74596499Y-67591745D01*
X74709745Y-67478499D01*
X74842899Y-67389529D01*
X74990858Y-67328242D01*
X75147925Y-67297000D01*
X75308075Y-67297000D01*
X75465142Y-67328242D01*
G37*
G36*
X94007142Y-67328242D02*
G01*
X94155101Y-67389529D01*
X94288255Y-67478499D01*
X94401501Y-67591745D01*
X94490471Y-67724899D01*
X94551758Y-67872858D01*
X94583000Y-68029925D01*
X94583000Y-68190075D01*
X94551758Y-68347142D01*
X94490471Y-68495101D01*
X94401501Y-68628255D01*
X94288255Y-68741501D01*
X94155101Y-68830471D01*
X94007142Y-68891758D01*
X93850075Y-68923000D01*
X93689925Y-68923000D01*
X93532858Y-68891758D01*
X93384899Y-68830471D01*
X93251745Y-68741501D01*
X93138499Y-68628255D01*
X93049529Y-68495101D01*
X92988242Y-68347142D01*
X92957000Y-68190075D01*
X92957000Y-68029925D01*
X92988242Y-67872858D01*
X93049529Y-67724899D01*
X93138499Y-67591745D01*
X93251745Y-67478499D01*
X93384899Y-67389529D01*
X93532858Y-67328242D01*
X93689925Y-67297000D01*
X93850075Y-67297000D01*
X94007142Y-67328242D01*
G37*
G36*
X55918228Y-64751703D02*
G01*
X56073100Y-64815853D01*
X56212481Y-64908985D01*
X56331015Y-65027519D01*
X56424147Y-65166900D01*
X56488297Y-65321772D01*
X56521000Y-65486184D01*
X56521000Y-65653816D01*
X56488297Y-65818228D01*
X56424147Y-65973100D01*
X56331015Y-66112481D01*
X56212481Y-66231015D01*
X56073100Y-66324147D01*
X55918228Y-66388297D01*
X55753816Y-66421000D01*
X55586184Y-66421000D01*
X55421772Y-66388297D01*
X55266900Y-66324147D01*
X55127519Y-66231015D01*
X55008985Y-66112481D01*
X54915853Y-65973100D01*
X54851703Y-65818228D01*
X54819000Y-65653816D01*
X54819000Y-65486184D01*
X54851703Y-65321772D01*
X54915853Y-65166900D01*
X55008985Y-65027519D01*
X55127519Y-64908985D01*
X55266900Y-64815853D01*
X55421772Y-64751703D01*
X55586184Y-64719000D01*
X55753816Y-64719000D01*
X55918228Y-64751703D01*
G37*
G36*
X71158228Y-64751703D02*
G01*
X71313100Y-64815853D01*
X71452481Y-64908985D01*
X71571015Y-65027519D01*
X71664147Y-65166900D01*
X71728297Y-65321772D01*
X71761000Y-65486184D01*
X71761000Y-65653816D01*
X71728297Y-65818228D01*
X71664147Y-65973100D01*
X71571015Y-66112481D01*
X71452481Y-66231015D01*
X71313100Y-66324147D01*
X71158228Y-66388297D01*
X70993816Y-66421000D01*
X70826184Y-66421000D01*
X70661772Y-66388297D01*
X70506900Y-66324147D01*
X70367519Y-66231015D01*
X70248985Y-66112481D01*
X70155853Y-65973100D01*
X70091703Y-65818228D01*
X70059000Y-65653816D01*
X70059000Y-65486184D01*
X70091703Y-65321772D01*
X70155853Y-65166900D01*
X70248985Y-65027519D01*
X70367519Y-64908985D01*
X70506900Y-64815853D01*
X70661772Y-64751703D01*
X70826184Y-64719000D01*
X70993816Y-64719000D01*
X71158228Y-64751703D01*
G37*
G36*
X56521000Y-63881000D02*
G01*
X54819000Y-63881000D01*
X54819000Y-62179000D01*
X56521000Y-62179000D01*
X56521000Y-63881000D01*
G37*
G36*
X71158228Y-62211703D02*
G01*
X71313100Y-62275853D01*
X71452481Y-62368985D01*
X71571015Y-62487519D01*
X71664147Y-62626900D01*
X71728297Y-62781772D01*
X71761000Y-62946184D01*
X71761000Y-63113816D01*
X71728297Y-63278228D01*
X71664147Y-63433100D01*
X71571015Y-63572481D01*
X71452481Y-63691015D01*
X71313100Y-63784147D01*
X71158228Y-63848297D01*
X70993816Y-63881000D01*
X70826184Y-63881000D01*
X70661772Y-63848297D01*
X70506900Y-63784147D01*
X70367519Y-63691015D01*
X70248985Y-63572481D01*
X70155853Y-63433100D01*
X70091703Y-63278228D01*
X70059000Y-63113816D01*
X70059000Y-62946184D01*
X70091703Y-62781772D01*
X70155853Y-62626900D01*
X70248985Y-62487519D01*
X70367519Y-62368985D01*
X70506900Y-62275853D01*
X70661772Y-62211703D01*
X70826184Y-62179000D01*
X70993816Y-62179000D01*
X71158228Y-62211703D01*
G37*
G36*
X75465142Y-59200242D02*
G01*
X75613101Y-59261529D01*
X75746255Y-59350499D01*
X75859501Y-59463745D01*
X75948471Y-59596899D01*
X76009758Y-59744858D01*
X76041000Y-59901925D01*
X76041000Y-60062075D01*
X76009758Y-60219142D01*
X75948471Y-60367101D01*
X75859501Y-60500255D01*
X75746255Y-60613501D01*
X75613101Y-60702471D01*
X75465142Y-60763758D01*
X75308075Y-60795000D01*
X75147925Y-60795000D01*
X74990858Y-60763758D01*
X74842899Y-60702471D01*
X74709745Y-60613501D01*
X74596499Y-60500255D01*
X74507529Y-60367101D01*
X74446242Y-60219142D01*
X74415000Y-60062075D01*
X74415000Y-59901925D01*
X74446242Y-59744858D01*
X74507529Y-59596899D01*
X74596499Y-59463745D01*
X74709745Y-59350499D01*
X74842899Y-59261529D01*
X74990858Y-59200242D01*
X75147925Y-59169000D01*
X75308075Y-59169000D01*
X75465142Y-59200242D01*
G37*
G36*
X94007142Y-59200242D02*
G01*
X94155101Y-59261529D01*
X94288255Y-59350499D01*
X94401501Y-59463745D01*
X94490471Y-59596899D01*
X94551758Y-59744858D01*
X94583000Y-59901925D01*
X94583000Y-60062075D01*
X94551758Y-60219142D01*
X94490471Y-60367101D01*
X94401501Y-60500255D01*
X94288255Y-60613501D01*
X94155101Y-60702471D01*
X94007142Y-60763758D01*
X93850075Y-60795000D01*
X93689925Y-60795000D01*
X93532858Y-60763758D01*
X93384899Y-60702471D01*
X93251745Y-60613501D01*
X93138499Y-60500255D01*
X93049529Y-60367101D01*
X92988242Y-60219142D01*
X92957000Y-60062075D01*
X92957000Y-59901925D01*
X92988242Y-59744858D01*
X93049529Y-59596899D01*
X93138499Y-59463745D01*
X93251745Y-59350499D01*
X93384899Y-59261529D01*
X93532858Y-59200242D01*
X93689925Y-59169000D01*
X93850075Y-59169000D01*
X94007142Y-59200242D01*
G37*
G36*
X75465142Y-56660242D02*
G01*
X75613101Y-56721529D01*
X75746255Y-56810499D01*
X75859501Y-56923745D01*
X75948471Y-57056899D01*
X76009758Y-57204858D01*
X76041000Y-57361925D01*
X76041000Y-57522075D01*
X76009758Y-57679142D01*
X75948471Y-57827101D01*
X75859501Y-57960255D01*
X75746255Y-58073501D01*
X75613101Y-58162471D01*
X75465142Y-58223758D01*
X75308075Y-58255000D01*
X75147925Y-58255000D01*
X74990858Y-58223758D01*
X74842899Y-58162471D01*
X74709745Y-58073501D01*
X74596499Y-57960255D01*
X74507529Y-57827101D01*
X74446242Y-57679142D01*
X74415000Y-57522075D01*
X74415000Y-57361925D01*
X74446242Y-57204858D01*
X74507529Y-57056899D01*
X74596499Y-56923745D01*
X74709745Y-56810499D01*
X74842899Y-56721529D01*
X74990858Y-56660242D01*
X75147925Y-56629000D01*
X75308075Y-56629000D01*
X75465142Y-56660242D01*
G37*
G36*
X94007142Y-56660242D02*
G01*
X94155101Y-56721529D01*
X94288255Y-56810499D01*
X94401501Y-56923745D01*
X94490471Y-57056899D01*
X94551758Y-57204858D01*
X94583000Y-57361925D01*
X94583000Y-57522075D01*
X94551758Y-57679142D01*
X94490471Y-57827101D01*
X94401501Y-57960255D01*
X94288255Y-58073501D01*
X94155101Y-58162471D01*
X94007142Y-58223758D01*
X93850075Y-58255000D01*
X93689925Y-58255000D01*
X93532858Y-58223758D01*
X93384899Y-58162471D01*
X93251745Y-58073501D01*
X93138499Y-57960255D01*
X93049529Y-57827101D01*
X92988242Y-57679142D01*
X92957000Y-57522075D01*
X92957000Y-57361925D01*
X92988242Y-57204858D01*
X93049529Y-57056899D01*
X93138499Y-56923745D01*
X93251745Y-56810499D01*
X93384899Y-56721529D01*
X93532858Y-56660242D01*
X93689925Y-56629000D01*
X93850075Y-56629000D01*
X94007142Y-56660242D01*
G37*
G36*
X69018604Y-55758347D02*
G01*
X69055144Y-55769432D01*
X69088821Y-55787433D01*
X69118341Y-55811659D01*
X69142567Y-55841179D01*
X69160568Y-55874856D01*
X69171653Y-55911396D01*
X69176000Y-55955538D01*
X69176000Y-57404462D01*
X69171653Y-57448604D01*
X69160568Y-57485144D01*
X69142567Y-57518821D01*
X69118341Y-57548341D01*
X69088821Y-57572567D01*
X69055144Y-57590568D01*
X69018604Y-57601653D01*
X68974462Y-57606000D01*
X68025538Y-57606000D01*
X67981396Y-57601653D01*
X67944856Y-57590568D01*
X67911179Y-57572567D01*
X67881659Y-57548341D01*
X67857433Y-57518821D01*
X67839432Y-57485144D01*
X67828347Y-57448604D01*
X67824000Y-57404462D01*
X67824000Y-55955538D01*
X67828347Y-55911396D01*
X67839432Y-55874856D01*
X67857433Y-55841179D01*
X67881659Y-55811659D01*
X67911179Y-55787433D01*
X67944856Y-55769432D01*
X67981396Y-55758347D01*
X68025538Y-55754000D01*
X68974462Y-55754000D01*
X69018604Y-55758347D01*
G37*
G36*
X66218604Y-55758347D02*
G01*
X66255144Y-55769432D01*
X66288821Y-55787433D01*
X66318341Y-55811659D01*
X66342567Y-55841179D01*
X66360568Y-55874856D01*
X66371653Y-55911396D01*
X66376000Y-55955538D01*
X66376000Y-57404462D01*
X66371653Y-57448604D01*
X66360568Y-57485144D01*
X66342567Y-57518821D01*
X66318341Y-57548341D01*
X66288821Y-57572567D01*
X66255144Y-57590568D01*
X66218604Y-57601653D01*
X66174462Y-57606000D01*
X65225538Y-57606000D01*
X65181396Y-57601653D01*
X65144856Y-57590568D01*
X65111179Y-57572567D01*
X65081659Y-57548341D01*
X65057433Y-57518821D01*
X65039432Y-57485144D01*
X65028347Y-57448604D01*
X65024000Y-57404462D01*
X65024000Y-55955538D01*
X65028347Y-55911396D01*
X65039432Y-55874856D01*
X65057433Y-55841179D01*
X65081659Y-55811659D01*
X65111179Y-55787433D01*
X65144856Y-55769432D01*
X65181396Y-55758347D01*
X65225538Y-55754000D01*
X66174462Y-55754000D01*
X66218604Y-55758347D01*
G37*
G36*
X58266104Y-55758347D02*
G01*
X58302644Y-55769432D01*
X58336321Y-55787433D01*
X58365841Y-55811659D01*
X58390067Y-55841179D01*
X58408068Y-55874856D01*
X58419153Y-55911396D01*
X58423500Y-55955538D01*
X58423500Y-57404462D01*
X58419153Y-57448604D01*
X58408068Y-57485144D01*
X58390067Y-57518821D01*
X58365841Y-57548341D01*
X58336321Y-57572567D01*
X58302644Y-57590568D01*
X58266104Y-57601653D01*
X58221962Y-57606000D01*
X57273038Y-57606000D01*
X57228896Y-57601653D01*
X57192356Y-57590568D01*
X57158679Y-57572567D01*
X57129159Y-57548341D01*
X57104933Y-57518821D01*
X57086932Y-57485144D01*
X57075847Y-57448604D01*
X57071500Y-57404462D01*
X57071500Y-55955538D01*
X57075847Y-55911396D01*
X57086932Y-55874856D01*
X57104933Y-55841179D01*
X57129159Y-55811659D01*
X57158679Y-55787433D01*
X57192356Y-55769432D01*
X57228896Y-55758347D01*
X57273038Y-55754000D01*
X58221962Y-55754000D01*
X58266104Y-55758347D01*
G37*
G36*
X61066104Y-55758347D02*
G01*
X61102644Y-55769432D01*
X61136321Y-55787433D01*
X61165841Y-55811659D01*
X61190067Y-55841179D01*
X61208068Y-55874856D01*
X61219153Y-55911396D01*
X61223500Y-55955538D01*
X61223500Y-57404462D01*
X61219153Y-57448604D01*
X61208068Y-57485144D01*
X61190067Y-57518821D01*
X61165841Y-57548341D01*
X61136321Y-57572567D01*
X61102644Y-57590568D01*
X61066104Y-57601653D01*
X61021962Y-57606000D01*
X60073038Y-57606000D01*
X60028896Y-57601653D01*
X59992356Y-57590568D01*
X59958679Y-57572567D01*
X59929159Y-57548341D01*
X59904933Y-57518821D01*
X59886932Y-57485144D01*
X59875847Y-57448604D01*
X59871500Y-57404462D01*
X59871500Y-55955538D01*
X59875847Y-55911396D01*
X59886932Y-55874856D01*
X59904933Y-55841179D01*
X59929159Y-55811659D01*
X59958679Y-55787433D01*
X59992356Y-55769432D01*
X60028896Y-55758347D01*
X60073038Y-55754000D01*
X61021962Y-55754000D01*
X61066104Y-55758347D01*
G37*
M02*
