M48
; DRILL file {KiCad 5.1.5-52549c5~84~ubuntu19.10.1} date Thu 03 Sep 2020 01:33:14 PM EEST
; FORMAT={-:-/ absolute / inch / decimal}
; #@! TF.CreationDate,2020-09-03T13:33:14+03:00
; #@! TF.GenerationSoftware,Kicad,Pcbnew,5.1.5-52549c5~84~ubuntu19.10.1
; #@! TF.FileFunction,Plated,1,2,PTH
FMAT,2
INCH
T1C0.0157
T2C0.0295
T3C0.0300
T4C0.0315
T5C0.0394
T6C0.0512
T7C0.1260
%
G90
G05
T1
X2.0917Y-2.1315
X2.0917Y-2.2315
X2.0917Y-2.2815
X2.0917Y-2.3315
X2.0917Y-2.3815
X2.0917Y-2.4315
X2.0917Y-2.4815
X2.0917Y-2.5315
X2.0917Y-2.5815
X2.0917Y-2.6315
X2.0917Y-2.6815
X2.0917Y-2.7315
X2.0917Y-2.7815
X2.0917Y-2.8315
X2.0917Y-2.8815
X2.0917Y-2.9315
X2.0917Y-2.9815
X2.0917Y-3.0315
X2.0917Y-3.0815
X2.0917Y-3.1315
X2.0917Y-3.1815
X2.0917Y-3.2315
X2.0917Y-3.2815
X2.0917Y-3.3315
X2.0917Y-3.3815
X2.0917Y-3.4315
X2.0917Y-3.4815
X2.0917Y-3.5315
X2.0917Y-3.5815
X2.0917Y-3.6315
X2.0917Y-3.6815
X2.0917Y-3.7315
X2.0917Y-3.7815
X2.0917Y-3.8315
X2.0917Y-3.8815
X2.0917Y-3.9315
X2.0917Y-3.9815
X2.0917Y-4.0315
X2.0917Y-4.0815
X2.0917Y-4.1815
X2.1917Y-2.1315
X2.1917Y-4.1815
X2.2417Y-2.1315
X2.2417Y-4.1815
X2.2917Y-2.1315
X2.2917Y-4.1815
X2.3346Y-3.2906
X2.3417Y-2.1315
X2.3417Y-4.1815
X2.3803Y-3.3823
X2.3917Y-2.1315
X2.3917Y-4.1815
X2.4417Y-2.1315
X2.4417Y-4.1815
X2.4917Y-2.1315
X2.4917Y-4.1815
X2.5417Y-2.1315
X2.5417Y-4.1815
X2.5516Y-2.9669
X2.5917Y-2.1315
X2.5917Y-4.1815
X2.6417Y-2.1315
X2.6417Y-4.1815
X2.6902Y-2.9654
X2.6917Y-2.1315
X2.6917Y-4.1815
X2.6937Y-3.0984
X2.6937Y-3.2531
X2.6949Y-3.4217
X2.7417Y-2.1315
X2.7417Y-4.1815
X2.7917Y-2.1315
X2.7917Y-4.1815
X2.8417Y-2.1315
X2.8417Y-4.1815
X2.8917Y-2.1315
X2.8917Y-2.9315
X2.8917Y-3.0315
X2.8917Y-3.0815
X2.8917Y-3.1315
X2.8917Y-4.1815
X2.9417Y-2.1315
X2.9417Y-2.4315
X2.9417Y-2.9315
X2.9417Y-3.0315
X2.9417Y-3.1815
X2.9417Y-3.4815
X2.9417Y-3.7815
X2.9417Y-3.8315
X2.9417Y-4.1815
X2.9691Y-3.5541
X2.9917Y-2.1315
X2.9917Y-2.4315
X2.9917Y-2.4815
X2.9917Y-2.9315
X2.9917Y-3.0315
X2.9917Y-3.2315
X2.9917Y-3.4315
X2.9917Y-3.7815
X2.9917Y-4.1815
X3.0417Y-2.1315
X3.0417Y-2.2315
X3.0417Y-2.2815
X3.0417Y-2.3315
X3.0417Y-2.3815
X3.0417Y-2.4315
X3.0417Y-2.4815
X3.0417Y-2.5315
X3.0417Y-2.5815
X3.0417Y-2.6315
X3.0417Y-2.6815
X3.0417Y-2.7315
X3.0417Y-2.7815
X3.0417Y-2.8315
X3.0417Y-2.9315
X3.0417Y-3.0315
X3.0417Y-3.2315
X3.0417Y-3.5815
X3.0417Y-4.1815
X3.0917Y-2.1315
X3.0917Y-2.2315
X3.0917Y-2.7815
X3.0917Y-2.8315
X3.0917Y-2.9315
X3.0917Y-3.0315
X3.0917Y-3.2315
X3.0917Y-4.1815
X3.1272Y-3.6114
X3.1417Y-2.1315
X3.1417Y-2.2315
X3.1417Y-2.7815
X3.1417Y-2.8315
X3.1417Y-3.0315
X3.1417Y-3.2315
X3.1417Y-4.1815
X3.1917Y-2.1315
X3.1917Y-2.2315
X3.1917Y-2.2315
X3.1917Y-2.7815
X3.1917Y-2.8315
X3.1917Y-2.9315
X3.1917Y-2.9315
X3.1917Y-3.0315
X3.1917Y-3.2315
X3.1917Y-4.1815
X3.2417Y-2.1315
X3.2417Y-2.2315
X3.2417Y-2.6315
X3.2417Y-2.6815
X3.2417Y-2.7315
X3.2417Y-2.7815
X3.2417Y-2.8315
X3.2417Y-2.9315
X3.2417Y-2.9815
X3.2417Y-3.0815
X3.2417Y-3.1315
X3.2417Y-3.1815
X3.2417Y-3.2315
X3.2417Y-3.4315
X3.2417Y-3.4815
X3.2417Y-4.1815
X3.2917Y-2.1315
X3.2917Y-2.2315
X3.2917Y-2.7815
X3.2917Y-4.1815
X3.2917Y-4.1815
X3.298Y-2.611
X3.3417Y-2.1315
X3.3417Y-2.2315
X3.3417Y-2.5815
X3.3417Y-3.6815
X3.3417Y-4.1815
X3.3917Y-2.1315
X3.3917Y-2.2315
X3.3917Y-4.1815
X3.3949Y-2.5831
X3.4417Y-2.1315
X3.4417Y-2.2315
X3.4417Y-2.5815
X3.4417Y-4.1815
X3.4917Y-2.1315
X3.4917Y-2.2315
X3.4917Y-2.5815
X3.4917Y-4.1815
X3.5417Y-2.1315
X3.5417Y-2.2315
X3.5417Y-2.2815
X3.5417Y-2.3315
X3.5417Y-2.5815
X3.5417Y-4.1815
X3.5917Y-2.1315
X3.5917Y-2.2315
X3.5917Y-2.2815
X3.5917Y-2.3315
X3.5917Y-2.5815
X3.5917Y-3.3815
X3.5917Y-4.1815
X3.6417Y-2.1315
X3.6417Y-2.5315
X3.6417Y-2.5815
X3.6417Y-2.6315
X3.6417Y-2.8315
X3.6417Y-2.8815
X3.6417Y-2.9315
X3.6417Y-2.9815
X3.6417Y-3.0315
X3.6417Y-3.0815
X3.6417Y-3.1315
X3.6417Y-3.1815
X3.6417Y-3.2315
X3.6417Y-3.2815
X3.6417Y-3.3315
X3.6417Y-3.4815
X3.6417Y-4.1815
X3.6917Y-2.1315
X3.6917Y-3.4315
X3.6917Y-4.1815
X3.7417Y-2.8315
X3.7417Y-2.8815
X3.7417Y-2.9315
X3.7417Y-2.9815
X3.7417Y-3.0315
X3.7417Y-3.0815
X3.7417Y-3.1315
X3.7417Y-3.1815
X3.7417Y-3.2315
X3.7417Y-3.2815
X3.7417Y-3.3315
X3.7417Y-3.3815
X3.7917Y-2.1315
X3.7917Y-2.2315
X3.7917Y-2.2815
X3.7917Y-2.3315
X3.7917Y-2.3815
X3.7917Y-2.4315
X3.7917Y-2.4815
X3.7917Y-2.5315
X3.7917Y-2.5815
X3.7917Y-2.6315
X3.7917Y-2.6815
X3.7917Y-2.7315
X3.7917Y-2.7815
X3.7917Y-2.8315
X3.7917Y-2.8815
X3.7917Y-2.9315
X3.7917Y-2.9815
X3.7917Y-3.0315
X3.7917Y-3.0815
X3.7917Y-3.1315
X3.7917Y-3.1815
X3.7917Y-3.2315
X3.7917Y-3.2815
X3.7917Y-3.3315
X3.7917Y-3.3815
X3.7917Y-3.4315
X3.7917Y-3.4815
X3.7917Y-3.5315
X3.7917Y-3.5815
X3.7917Y-3.6315
X3.7917Y-3.6815
X3.7917Y-3.7315
X3.7917Y-3.7815
X3.7917Y-3.8315
X3.7917Y-3.8815
X3.7917Y-3.9315
X3.7917Y-3.9815
X3.7917Y-4.0315
X3.7917Y-4.0815
X3.7917Y-4.1815
X4.1035Y-3.472
X4.1035Y-3.572
X4.1035Y-3.622
X4.1035Y-3.672
X4.1035Y-3.722
X4.1035Y-3.772
X4.1035Y-3.822
X4.1035Y-3.872
X4.1035Y-3.922
X4.1035Y-3.972
X4.1035Y-4.022
X4.1035Y-4.072
X4.1035Y-4.122
X4.1035Y-4.172
X4.1035Y-4.222
X4.1035Y-4.272
X4.1035Y-4.322
X4.1035Y-4.372
X4.1035Y-4.422
X4.1035Y-4.472
X4.1035Y-4.522
X4.1035Y-4.572
X4.1035Y-4.622
X4.1035Y-4.672
X4.1035Y-4.722
X4.1035Y-4.772
X4.1035Y-4.822
X4.1035Y-4.872
X4.1035Y-4.922
X4.1035Y-4.972
X4.1035Y-5.022
X4.1035Y-5.072
X4.1035Y-5.122
X4.1035Y-5.172
X4.1035Y-5.222
X4.1035Y-5.272
X4.1035Y-5.322
X4.1035Y-5.372
X4.1035Y-5.422
X4.1035Y-5.522
X4.1535Y-4.272
X4.1535Y-4.322
X4.1535Y-4.372
X4.1535Y-4.422
X4.1535Y-4.472
X4.1535Y-4.522
X4.1535Y-4.572
X4.1535Y-4.622
X4.1535Y-4.672
X4.1535Y-4.722
X4.1535Y-4.772
X4.1535Y-4.822
X4.2035Y-3.472
X4.2035Y-4.222
X4.2035Y-5.522
X4.2535Y-3.472
X4.2535Y-4.172
X4.2535Y-4.322
X4.2535Y-4.372
X4.2535Y-4.422
X4.2535Y-4.472
X4.2535Y-4.522
X4.2535Y-4.572
X4.2535Y-4.622
X4.2535Y-4.672
X4.2535Y-4.722
X4.2535Y-4.772
X4.2535Y-4.822
X4.2535Y-5.022
X4.2535Y-5.072
X4.2535Y-5.122
X4.2535Y-5.522
X4.3035Y-3.472
X4.3035Y-4.272
X4.3035Y-5.072
X4.3035Y-5.322
X4.3035Y-5.372
X4.3035Y-5.422
X4.3035Y-5.522
X4.3535Y-3.472
X4.3535Y-5.072
X4.3535Y-5.322
X4.3535Y-5.372
X4.3535Y-5.422
X4.3535Y-5.522
X4.4035Y-3.472
X4.4035Y-5.072
X4.4035Y-5.422
X4.4035Y-5.522
X4.4535Y-3.472
X4.4535Y-5.072
X4.4535Y-5.422
X4.4535Y-5.522
X4.5004Y-5.0705
X4.5035Y-3.472
X4.5035Y-5.422
X4.5035Y-5.522
X4.5535Y-3.472
X4.5535Y-3.972
X4.5535Y-5.072
X4.5535Y-5.422
X4.5535Y-5.522
X4.5972Y-5.0425
X4.6035Y-3.472
X4.6035Y-3.472
X4.6035Y-4.872
X4.6035Y-5.422
X4.6035Y-5.522
X4.6535Y-3.472
X4.6535Y-4.172
X4.6535Y-4.222
X4.6535Y-4.422
X4.6535Y-4.472
X4.6535Y-4.522
X4.6535Y-4.572
X4.6535Y-4.672
X4.6535Y-4.722
X4.6535Y-4.822
X4.6535Y-4.872
X4.6535Y-4.922
X4.6535Y-4.972
X4.6535Y-5.022
X4.6535Y-5.422
X4.6535Y-5.522
X4.7035Y-3.472
X4.7035Y-4.422
X4.7035Y-4.622
X4.7035Y-4.722
X4.7035Y-4.722
X4.7035Y-4.822
X4.7035Y-4.872
X4.7035Y-5.422
X4.7035Y-5.422
X4.7035Y-5.522
X4.7535Y-3.472
X4.7535Y-4.422
X4.7535Y-4.622
X4.7535Y-4.822
X4.7535Y-4.872
X4.7535Y-5.422
X4.7535Y-5.522
X4.7681Y-4.0421
X4.8035Y-3.472
X4.8035Y-4.422
X4.8035Y-4.622
X4.8035Y-4.722
X4.8035Y-4.822
X4.8035Y-4.872
X4.8035Y-5.422
X4.8035Y-5.522
X4.8535Y-3.472
X4.8535Y-4.072
X4.8535Y-4.422
X4.8535Y-4.622
X4.8535Y-4.722
X4.8535Y-4.822
X4.8535Y-4.872
X4.8535Y-4.922
X4.8535Y-4.972
X4.8535Y-5.022
X4.8535Y-5.072
X4.8535Y-5.122
X4.8535Y-5.172
X4.8535Y-5.222
X4.8535Y-5.272
X4.8535Y-5.322
X4.8535Y-5.372
X4.8535Y-5.422
X4.8535Y-5.522
X4.9035Y-3.472
X4.9035Y-3.872
X4.9035Y-4.222
X4.9035Y-4.422
X4.9035Y-4.622
X4.9035Y-4.722
X4.9035Y-5.172
X4.9035Y-5.222
X4.9035Y-5.522
X4.9262Y-4.0994
X4.9535Y-3.472
X4.9535Y-3.822
X4.9535Y-3.872
X4.9535Y-4.172
X4.9535Y-4.472
X4.9535Y-4.622
X4.9535Y-4.722
X4.9535Y-5.222
X4.9535Y-5.522
X5.0035Y-3.472
X5.0035Y-4.522
X5.0035Y-4.572
X5.0035Y-4.622
X5.0035Y-4.722
X5.0035Y-5.522
X5.0535Y-3.472
X5.0535Y-5.522
X5.1035Y-3.472
X5.1035Y-5.522
X5.1535Y-3.472
X5.1535Y-5.522
X5.2004Y-4.2319
X5.2016Y-4.4004
X5.2016Y-4.5551
X5.2035Y-3.472
X5.2035Y-5.522
X5.2051Y-4.6882
X5.2535Y-3.472
X5.2535Y-5.522
X5.3035Y-3.472
X5.3035Y-5.522
X5.3437Y-4.6866
X5.3535Y-3.472
X5.3535Y-5.522
X5.4035Y-3.472
X5.4035Y-5.522
X5.4535Y-3.472
X5.4535Y-5.522
X5.5035Y-3.472
X5.5035Y-5.522
X5.515Y-4.2713
X5.5535Y-3.472
X5.5535Y-5.522
X5.5606Y-4.363
X5.6035Y-3.472
X5.6035Y-5.522
X5.6535Y-3.472
X5.6535Y-5.522
X5.7035Y-3.472
X5.7035Y-5.522
X5.8035Y-3.472
X5.8035Y-3.572
X5.8035Y-3.622
X5.8035Y-3.672
X5.8035Y-3.722
X5.8035Y-3.772
X5.8035Y-3.822
X5.8035Y-3.872
X5.8035Y-3.922
X5.8035Y-3.972
X5.8035Y-4.022
X5.8035Y-4.072
X5.8035Y-4.122
X5.8035Y-4.172
X5.8035Y-4.222
X5.8035Y-4.272
X5.8035Y-4.322
X5.8035Y-4.372
X5.8035Y-4.422
X5.8035Y-4.472
X5.8035Y-4.522
X5.8035Y-4.572
X5.8035Y-4.622
X5.8035Y-4.672
X5.8035Y-4.722
X5.8035Y-4.772
X5.8035Y-4.822
X5.8035Y-4.872
X5.8035Y-4.922
X5.8035Y-4.972
X5.8035Y-5.022
X5.8035Y-5.072
X5.8035Y-5.122
X5.8035Y-5.172
X5.8035Y-5.222
X5.8035Y-5.272
X5.8035Y-5.322
X5.8035Y-5.372
X5.8035Y-5.422
X5.8035Y-5.522
T2
X3.0417Y-3.4815
X3.0917Y-3.4815
X3.1417Y-3.4815
X4.7535Y-4.172
X4.8035Y-4.172
X4.8535Y-4.172
T3
X2.9617Y-2.2615
X2.9617Y-2.3615
X2.9617Y-2.6815
X2.9617Y-2.7815
X3.6917Y-2.2615
X3.6917Y-2.3615
X3.6917Y-2.6815
X3.6917Y-2.7815
X2.3506Y-2.7002
X2.3506Y-2.8002
X2.3506Y-2.9002
X2.3506Y-3.0002
X4.2035Y-4.872
X4.2035Y-4.972
X4.2035Y-5.292
X4.2035Y-5.392
X4.9335Y-4.872
X4.9335Y-4.972
X4.9335Y-5.292
X4.9335Y-5.392
X5.5447Y-4.6534
X5.5447Y-4.7534
X5.5447Y-4.8534
X5.5447Y-4.9534
T4
X5.1035Y-3.772
X5.1035Y-3.872
X5.1035Y-3.972
X5.1035Y-4.072
X5.1035Y-4.172
X5.1035Y-4.272
X5.1035Y-4.372
X5.1035Y-4.472
X5.1035Y-4.572
X5.1035Y-4.672
X5.1035Y-4.772
X5.1035Y-4.872
X5.1035Y-4.972
X5.1035Y-5.072
X5.1035Y-5.172
X5.7035Y-3.772
X5.7035Y-3.872
X5.7035Y-3.972
X5.7035Y-4.072
X5.7035Y-4.172
X5.7035Y-4.272
X5.7035Y-4.372
X5.7035Y-4.472
X5.7035Y-4.572
X5.7035Y-4.672
X5.7035Y-4.772
X5.7035Y-4.872
X5.7035Y-4.972
X5.7035Y-5.072
X5.7035Y-5.172
X2.1917Y-2.4815
X2.1917Y-2.5815
X2.1917Y-2.6815
X2.1917Y-2.7815
X2.1917Y-2.8815
X2.1917Y-2.9815
X2.1917Y-3.0815
X2.1917Y-3.1815
X2.1917Y-3.2815
X2.1917Y-3.3815
X2.1917Y-3.4815
X2.1917Y-3.5815
X2.1917Y-3.6815
X2.1917Y-3.7815
X2.1917Y-3.8815
X2.7917Y-2.4815
X2.7917Y-2.5815
X2.7917Y-2.6815
X2.7917Y-2.7815
X2.7917Y-2.8815
X2.7917Y-2.9815
X2.7917Y-3.0815
X2.7917Y-3.1815
X2.7917Y-3.2815
X2.7917Y-3.3815
X2.7917Y-3.4815
X2.7917Y-3.5815
X2.7917Y-3.6815
X2.7917Y-3.7815
X2.7917Y-3.8815
T5
X4.3917Y-3.9904
X4.3917Y-4.0994
X4.3917Y-4.2085
X4.3917Y-4.3175
X4.5035Y-3.9358
X4.5035Y-4.0449
X4.5035Y-4.1539
X4.5035Y-4.263
X4.5035Y-4.372
X3.3917Y-3.2815
X3.3917Y-3.3906
X3.3917Y-3.4996
X3.3917Y-3.6087
X3.3917Y-3.7177
X3.5035Y-3.336
X3.5035Y-3.4451
X3.5035Y-3.5541
X3.5035Y-3.6632
T6
X2.9933Y-3.6846
X3.0917Y-4.0783
X3.1902Y-3.6846
X4.7051Y-3.9689
X4.8035Y-3.5752
X4.902Y-3.9689
T7
X4.4476Y-3.6618
X4.4476Y-4.6461
X3.4476Y-3.0075
X3.4476Y-3.9917
T0
M30
