G04 #@! TF.GenerationSoftware,KiCad,Pcbnew,5.1.5-52549c5~84~ubuntu19.10.1*
G04 #@! TF.CreationDate,2020-09-03T13:33:18+03:00*
G04 #@! TF.ProjectId,hymTR_dual,68796d54-525f-4647-9561-6c2e6b696361,rev?*
G04 #@! TF.SameCoordinates,Original*
G04 #@! TF.FileFunction,Legend,Top*
G04 #@! TF.FilePolarity,Positive*
%FSLAX46Y46*%
G04 Gerber Fmt 4.6, Leading zero omitted, Abs format (unit mm)*
G04 Created by KiCad (PCBNEW 5.1.5-52549c5~84~ubuntu19.10.1) date 2020-09-03 13:33:18*
%MOMM*%
%LPD*%
G04 APERTURE LIST*
%ADD10C,0.120000*%
%ADD11C,0.150000*%
G04 APERTURE END LIST*
D10*
X123435000Y-90690000D02*
X127030000Y-90690000D01*
X116989000Y-90690000D02*
X120585000Y-90690000D01*
X125935000Y-100930000D02*
X127030000Y-100930000D01*
X120936000Y-100930000D02*
X123085000Y-100930000D01*
X116989000Y-100930000D02*
X118084000Y-100930000D01*
X127030000Y-100930000D02*
X127030000Y-90690000D01*
X116989000Y-100930000D02*
X116989000Y-90690000D01*
X116711325Y-111050000D02*
X117144338Y-110800000D01*
X117144338Y-111300000D02*
X116711325Y-111050000D01*
X117144338Y-110800000D02*
X117144338Y-111300000D01*
X116250000Y-120995000D02*
X103910000Y-120995000D01*
X116250000Y-90025000D02*
X116250000Y-120995000D01*
X103910000Y-90025000D02*
X116250000Y-90025000D01*
X141090000Y-132420000D02*
G75*
G03X141090000Y-132420000I-1524000J0D01*
G01*
X141090000Y-112354000D02*
G75*
G03X141090000Y-112354000I-1524000J0D01*
G01*
X111372000Y-112354000D02*
G75*
G03X111372000Y-112354000I-1524000J0D01*
G01*
X111372000Y-132420000D02*
G75*
G03X111372000Y-132420000I-1524000J0D01*
G01*
X142360000Y-109306000D02*
X142614000Y-109306000D01*
X142614000Y-109306000D02*
X142614000Y-135468000D01*
X106800000Y-109306000D02*
X142360000Y-109306000D01*
X106800000Y-135468000D02*
X106800000Y-109306000D01*
X142614000Y-135468000D02*
X106800000Y-135468000D01*
X104992000Y-138990000D02*
X104992000Y-122226000D01*
X127090000Y-138990000D02*
X104992000Y-138990000D01*
X127090000Y-122226000D02*
X127090000Y-138990000D01*
X104992000Y-122226000D02*
X127090000Y-122226000D01*
X120171522Y-104131522D02*
G75*
G03X122010000Y-108570000I1838478J-1838478D01*
G01*
X123848478Y-104131522D02*
G75*
G02X122010000Y-108570000I-1838478J-1838478D01*
G01*
X123810000Y-104120000D02*
X120210000Y-104120000D01*
X128230000Y-135310000D02*
X146270000Y-135310000D01*
X128230000Y-91870000D02*
X128230000Y-135310000D01*
X146270000Y-91870000D02*
X128230000Y-91870000D01*
X143600000Y-94540000D02*
X146270000Y-94540000D01*
X143600000Y-130100000D02*
X143600000Y-94540000D01*
X143600000Y-130100000D02*
X146270000Y-130100000D01*
X130900000Y-94540000D02*
X128230000Y-94540000D01*
X130900000Y-132640000D02*
X130900000Y-94540000D01*
X130900000Y-132640000D02*
X128230000Y-132640000D01*
X146270000Y-135310000D02*
X146270000Y-132640000D01*
X146270000Y-130100000D02*
X146270000Y-91870000D01*
X143600000Y-132640000D02*
X146270000Y-132640000D01*
X143600000Y-130100000D02*
X143600000Y-132640000D01*
X96630000Y-104375000D02*
X84290000Y-104375000D01*
X84290000Y-104375000D02*
X84290000Y-73405000D01*
X84290000Y-73405000D02*
X96630000Y-73405000D01*
X83395662Y-83600000D02*
X83395662Y-83100000D01*
X83395662Y-83100000D02*
X83828675Y-83350000D01*
X83828675Y-83350000D02*
X83395662Y-83600000D01*
X57926000Y-58932000D02*
X93740000Y-58932000D01*
X93740000Y-58932000D02*
X93740000Y-85094000D01*
X93740000Y-85094000D02*
X58180000Y-85094000D01*
X57926000Y-85094000D02*
X57926000Y-58932000D01*
X58180000Y-85094000D02*
X57926000Y-85094000D01*
X92216000Y-61980000D02*
G75*
G03X92216000Y-61980000I-1524000J0D01*
G01*
X92216000Y-82046000D02*
G75*
G03X92216000Y-82046000I-1524000J0D01*
G01*
X62498000Y-82046000D02*
G75*
G03X62498000Y-82046000I-1524000J0D01*
G01*
X62498000Y-61980000D02*
G75*
G03X62498000Y-61980000I-1524000J0D01*
G01*
X76730000Y-90280000D02*
X80330000Y-90280000D01*
X76691522Y-90268478D02*
G75*
G02X78530000Y-85830000I1838478J1838478D01*
G01*
X80368478Y-90268478D02*
G75*
G03X78530000Y-85830000I-1838478J1838478D01*
G01*
X83551000Y-93470000D02*
X83551000Y-103710000D01*
X73510000Y-93470000D02*
X73510000Y-103710000D01*
X83551000Y-93470000D02*
X82456000Y-93470000D01*
X79604000Y-93470000D02*
X77455000Y-93470000D01*
X74605000Y-93470000D02*
X73510000Y-93470000D01*
X83551000Y-103710000D02*
X79955000Y-103710000D01*
X77105000Y-103710000D02*
X73510000Y-103710000D01*
X56940000Y-64300000D02*
X56940000Y-61760000D01*
X56940000Y-61760000D02*
X54270000Y-61760000D01*
X54270000Y-64300000D02*
X54270000Y-102530000D01*
X54270000Y-59090000D02*
X54270000Y-61760000D01*
X69640000Y-61760000D02*
X72310000Y-61760000D01*
X69640000Y-61760000D02*
X69640000Y-99860000D01*
X69640000Y-99860000D02*
X72310000Y-99860000D01*
X56940000Y-64300000D02*
X54270000Y-64300000D01*
X56940000Y-64300000D02*
X56940000Y-99860000D01*
X56940000Y-99860000D02*
X54270000Y-99860000D01*
X54270000Y-102530000D02*
X72310000Y-102530000D01*
X72310000Y-102530000D02*
X72310000Y-59090000D01*
X72310000Y-59090000D02*
X54270000Y-59090000D01*
X95548000Y-72174000D02*
X73450000Y-72174000D01*
X73450000Y-72174000D02*
X73450000Y-55410000D01*
X73450000Y-55410000D02*
X95548000Y-55410000D01*
X95548000Y-55410000D02*
X95548000Y-72174000D01*
D11*
X116312380Y-96405238D02*
X115836190Y-96738571D01*
X116312380Y-96976666D02*
X115312380Y-96976666D01*
X115312380Y-96595714D01*
X115360000Y-96500476D01*
X115407619Y-96452857D01*
X115502857Y-96405238D01*
X115645714Y-96405238D01*
X115740952Y-96452857D01*
X115788571Y-96500476D01*
X115836190Y-96595714D01*
X115836190Y-96976666D01*
X115312380Y-96119523D02*
X116312380Y-95786190D01*
X115312380Y-95452857D01*
X116312380Y-94595714D02*
X116312380Y-95167142D01*
X116312380Y-94881428D02*
X115312380Y-94881428D01*
X115455238Y-94976666D01*
X115550476Y-95071904D01*
X115598095Y-95167142D01*
X116642380Y-105843333D02*
X117356666Y-105843333D01*
X117499523Y-105890952D01*
X117594761Y-105986190D01*
X117642380Y-106129047D01*
X117642380Y-106224285D01*
X117642380Y-104843333D02*
X117642380Y-105414761D01*
X117642380Y-105129047D02*
X116642380Y-105129047D01*
X116785238Y-105224285D01*
X116880476Y-105319523D01*
X116928095Y-105414761D01*
X123310095Y-122482380D02*
X123310095Y-123291904D01*
X123357714Y-123387142D01*
X123405333Y-123434761D01*
X123500571Y-123482380D01*
X123691047Y-123482380D01*
X123786285Y-123434761D01*
X123833904Y-123387142D01*
X123881523Y-123291904D01*
X123881523Y-122482380D01*
X124310095Y-122577619D02*
X124357714Y-122530000D01*
X124452952Y-122482380D01*
X124691047Y-122482380D01*
X124786285Y-122530000D01*
X124833904Y-122577619D01*
X124881523Y-122672857D01*
X124881523Y-122768095D01*
X124833904Y-122910952D01*
X124262476Y-123482380D01*
X124881523Y-123482380D01*
X119978095Y-127012380D02*
X119978095Y-127821904D01*
X120025714Y-127917142D01*
X120073333Y-127964761D01*
X120168571Y-128012380D01*
X120359047Y-128012380D01*
X120454285Y-127964761D01*
X120501904Y-127917142D01*
X120549523Y-127821904D01*
X120549523Y-127012380D01*
X121549523Y-128012380D02*
X120978095Y-128012380D01*
X121263809Y-128012380D02*
X121263809Y-127012380D01*
X121168571Y-127155238D01*
X121073333Y-127250476D01*
X120978095Y-127298095D01*
X121914761Y-110077619D02*
X121819523Y-110030000D01*
X121724285Y-109934761D01*
X121581428Y-109791904D01*
X121486190Y-109744285D01*
X121390952Y-109744285D01*
X121438571Y-109982380D02*
X121343333Y-109934761D01*
X121248095Y-109839523D01*
X121200476Y-109649047D01*
X121200476Y-109315714D01*
X121248095Y-109125238D01*
X121343333Y-109030000D01*
X121438571Y-108982380D01*
X121629047Y-108982380D01*
X121724285Y-109030000D01*
X121819523Y-109125238D01*
X121867142Y-109315714D01*
X121867142Y-109649047D01*
X121819523Y-109839523D01*
X121724285Y-109934761D01*
X121629047Y-109982380D01*
X121438571Y-109982380D01*
X122819523Y-109982380D02*
X122248095Y-109982380D01*
X122533809Y-109982380D02*
X122533809Y-108982380D01*
X122438571Y-109125238D01*
X122343333Y-109220476D01*
X122248095Y-109268095D01*
X136535714Y-136616666D02*
X137011904Y-136616666D01*
X136440476Y-136902380D02*
X136773809Y-135902380D01*
X137107142Y-136902380D01*
X137964285Y-136902380D02*
X137392857Y-136902380D01*
X137678571Y-136902380D02*
X137678571Y-135902380D01*
X137583333Y-136045238D01*
X137488095Y-136140476D01*
X137392857Y-136188095D01*
X82802380Y-89223333D02*
X83516666Y-89223333D01*
X83659523Y-89270952D01*
X83754761Y-89366190D01*
X83802380Y-89509047D01*
X83802380Y-89604285D01*
X83802380Y-88223333D02*
X83802380Y-88794761D01*
X83802380Y-88509047D02*
X82802380Y-88509047D01*
X82945238Y-88604285D01*
X83040476Y-88699523D01*
X83088095Y-88794761D01*
X75706095Y-70822380D02*
X75706095Y-71631904D01*
X75753714Y-71727142D01*
X75801333Y-71774761D01*
X75896571Y-71822380D01*
X76087047Y-71822380D01*
X76182285Y-71774761D01*
X76229904Y-71727142D01*
X76277523Y-71631904D01*
X76277523Y-70822380D01*
X76706095Y-70917619D02*
X76753714Y-70870000D01*
X76848952Y-70822380D01*
X77087047Y-70822380D01*
X77182285Y-70870000D01*
X77229904Y-70917619D01*
X77277523Y-71012857D01*
X77277523Y-71108095D01*
X77229904Y-71250952D01*
X76658476Y-71822380D01*
X77277523Y-71822380D01*
X78434761Y-85417619D02*
X78339523Y-85370000D01*
X78244285Y-85274761D01*
X78101428Y-85131904D01*
X78006190Y-85084285D01*
X77910952Y-85084285D01*
X77958571Y-85322380D02*
X77863333Y-85274761D01*
X77768095Y-85179523D01*
X77720476Y-84989047D01*
X77720476Y-84655714D01*
X77768095Y-84465238D01*
X77863333Y-84370000D01*
X77958571Y-84322380D01*
X78149047Y-84322380D01*
X78244285Y-84370000D01*
X78339523Y-84465238D01*
X78387142Y-84655714D01*
X78387142Y-84989047D01*
X78339523Y-85179523D01*
X78244285Y-85274761D01*
X78149047Y-85322380D01*
X77958571Y-85322380D01*
X79339523Y-85322380D02*
X78768095Y-85322380D01*
X79053809Y-85322380D02*
X79053809Y-84322380D01*
X78958571Y-84465238D01*
X78863333Y-84560476D01*
X78768095Y-84608095D01*
X85132380Y-99185238D02*
X84656190Y-99518571D01*
X85132380Y-99756666D02*
X84132380Y-99756666D01*
X84132380Y-99375714D01*
X84180000Y-99280476D01*
X84227619Y-99232857D01*
X84322857Y-99185238D01*
X84465714Y-99185238D01*
X84560952Y-99232857D01*
X84608571Y-99280476D01*
X84656190Y-99375714D01*
X84656190Y-99756666D01*
X84132380Y-98899523D02*
X85132380Y-98566190D01*
X84132380Y-98232857D01*
X85132380Y-97375714D02*
X85132380Y-97947142D01*
X85132380Y-97661428D02*
X84132380Y-97661428D01*
X84275238Y-97756666D01*
X84370476Y-97851904D01*
X84418095Y-97947142D01*
X62575714Y-58116666D02*
X63051904Y-58116666D01*
X62480476Y-58402380D02*
X62813809Y-57402380D01*
X63147142Y-58402380D01*
X64004285Y-58402380D02*
X63432857Y-58402380D01*
X63718571Y-58402380D02*
X63718571Y-57402380D01*
X63623333Y-57545238D01*
X63528095Y-57640476D01*
X63432857Y-57688095D01*
X79038095Y-66292380D02*
X79038095Y-67101904D01*
X79085714Y-67197142D01*
X79133333Y-67244761D01*
X79228571Y-67292380D01*
X79419047Y-67292380D01*
X79514285Y-67244761D01*
X79561904Y-67197142D01*
X79609523Y-67101904D01*
X79609523Y-66292380D01*
X80609523Y-67292380D02*
X80038095Y-67292380D01*
X80323809Y-67292380D02*
X80323809Y-66292380D01*
X80228571Y-66435238D01*
X80133333Y-66530476D01*
X80038095Y-66578095D01*
M02*
