G04 #@! TF.GenerationSoftware,KiCad,Pcbnew,5.1.5-52549c5~84~ubuntu19.10.1*
G04 #@! TF.CreationDate,2020-04-18T11:45:40+03:00*
G04 #@! TF.ProjectId,hymTracker_Panel,68796d54-7261-4636-9b65-725f50616e65,rev?*
G04 #@! TF.SameCoordinates,Original*
G04 #@! TF.FileFunction,Paste,Bot*
G04 #@! TF.FilePolarity,Positive*
%FSLAX46Y46*%
G04 Gerber Fmt 4.6, Leading zero omitted, Abs format (unit mm)*
G04 Created by KiCad (PCBNEW 5.1.5-52549c5~84~ubuntu19.10.1) date 2020-04-18 11:45:40*
%MOMM*%
%LPD*%
G04 APERTURE LIST*
%ADD10C,0.100000*%
G04 APERTURE END LIST*
D10*
G36*
X110361142Y-70525174D02*
G01*
X110384803Y-70528684D01*
X110408007Y-70534496D01*
X110430529Y-70542554D01*
X110452153Y-70552782D01*
X110472670Y-70565079D01*
X110491883Y-70579329D01*
X110509607Y-70595393D01*
X110525671Y-70613117D01*
X110539921Y-70632330D01*
X110552218Y-70652847D01*
X110562446Y-70674471D01*
X110570504Y-70696993D01*
X110576316Y-70720197D01*
X110579826Y-70743858D01*
X110581000Y-70767750D01*
X110581000Y-71680250D01*
X110579826Y-71704142D01*
X110576316Y-71727803D01*
X110570504Y-71751007D01*
X110562446Y-71773529D01*
X110552218Y-71795153D01*
X110539921Y-71815670D01*
X110525671Y-71834883D01*
X110509607Y-71852607D01*
X110491883Y-71868671D01*
X110472670Y-71882921D01*
X110452153Y-71895218D01*
X110430529Y-71905446D01*
X110408007Y-71913504D01*
X110384803Y-71919316D01*
X110361142Y-71922826D01*
X110337250Y-71924000D01*
X109849750Y-71924000D01*
X109825858Y-71922826D01*
X109802197Y-71919316D01*
X109778993Y-71913504D01*
X109756471Y-71905446D01*
X109734847Y-71895218D01*
X109714330Y-71882921D01*
X109695117Y-71868671D01*
X109677393Y-71852607D01*
X109661329Y-71834883D01*
X109647079Y-71815670D01*
X109634782Y-71795153D01*
X109624554Y-71773529D01*
X109616496Y-71751007D01*
X109610684Y-71727803D01*
X109607174Y-71704142D01*
X109606000Y-71680250D01*
X109606000Y-70767750D01*
X109607174Y-70743858D01*
X109610684Y-70720197D01*
X109616496Y-70696993D01*
X109624554Y-70674471D01*
X109634782Y-70652847D01*
X109647079Y-70632330D01*
X109661329Y-70613117D01*
X109677393Y-70595393D01*
X109695117Y-70579329D01*
X109714330Y-70565079D01*
X109734847Y-70552782D01*
X109756471Y-70542554D01*
X109778993Y-70534496D01*
X109802197Y-70528684D01*
X109825858Y-70525174D01*
X109849750Y-70524000D01*
X110337250Y-70524000D01*
X110361142Y-70525174D01*
G37*
G36*
X108486142Y-70525174D02*
G01*
X108509803Y-70528684D01*
X108533007Y-70534496D01*
X108555529Y-70542554D01*
X108577153Y-70552782D01*
X108597670Y-70565079D01*
X108616883Y-70579329D01*
X108634607Y-70595393D01*
X108650671Y-70613117D01*
X108664921Y-70632330D01*
X108677218Y-70652847D01*
X108687446Y-70674471D01*
X108695504Y-70696993D01*
X108701316Y-70720197D01*
X108704826Y-70743858D01*
X108706000Y-70767750D01*
X108706000Y-71680250D01*
X108704826Y-71704142D01*
X108701316Y-71727803D01*
X108695504Y-71751007D01*
X108687446Y-71773529D01*
X108677218Y-71795153D01*
X108664921Y-71815670D01*
X108650671Y-71834883D01*
X108634607Y-71852607D01*
X108616883Y-71868671D01*
X108597670Y-71882921D01*
X108577153Y-71895218D01*
X108555529Y-71905446D01*
X108533007Y-71913504D01*
X108509803Y-71919316D01*
X108486142Y-71922826D01*
X108462250Y-71924000D01*
X107974750Y-71924000D01*
X107950858Y-71922826D01*
X107927197Y-71919316D01*
X107903993Y-71913504D01*
X107881471Y-71905446D01*
X107859847Y-71895218D01*
X107839330Y-71882921D01*
X107820117Y-71868671D01*
X107802393Y-71852607D01*
X107786329Y-71834883D01*
X107772079Y-71815670D01*
X107759782Y-71795153D01*
X107749554Y-71773529D01*
X107741496Y-71751007D01*
X107735684Y-71727803D01*
X107732174Y-71704142D01*
X107731000Y-71680250D01*
X107731000Y-70767750D01*
X107732174Y-70743858D01*
X107735684Y-70720197D01*
X107741496Y-70696993D01*
X107749554Y-70674471D01*
X107759782Y-70652847D01*
X107772079Y-70632330D01*
X107786329Y-70613117D01*
X107802393Y-70595393D01*
X107820117Y-70579329D01*
X107839330Y-70565079D01*
X107859847Y-70552782D01*
X107881471Y-70542554D01*
X107903993Y-70534496D01*
X107927197Y-70528684D01*
X107950858Y-70525174D01*
X107974750Y-70524000D01*
X108462250Y-70524000D01*
X108486142Y-70525174D01*
G37*
G36*
X99645504Y-52690204D02*
G01*
X99669773Y-52693804D01*
X99693571Y-52699765D01*
X99716671Y-52708030D01*
X99738849Y-52718520D01*
X99759893Y-52731133D01*
X99779598Y-52745747D01*
X99797777Y-52762223D01*
X99814253Y-52780402D01*
X99828867Y-52800107D01*
X99841480Y-52821151D01*
X99851970Y-52843329D01*
X99860235Y-52866429D01*
X99866196Y-52890227D01*
X99869796Y-52914496D01*
X99871000Y-52939000D01*
X99871000Y-53689000D01*
X99869796Y-53713504D01*
X99866196Y-53737773D01*
X99860235Y-53761571D01*
X99851970Y-53784671D01*
X99841480Y-53806849D01*
X99828867Y-53827893D01*
X99814253Y-53847598D01*
X99797777Y-53865777D01*
X99779598Y-53882253D01*
X99759893Y-53896867D01*
X99738849Y-53909480D01*
X99716671Y-53919970D01*
X99693571Y-53928235D01*
X99669773Y-53934196D01*
X99645504Y-53937796D01*
X99621000Y-53939000D01*
X98371000Y-53939000D01*
X98346496Y-53937796D01*
X98322227Y-53934196D01*
X98298429Y-53928235D01*
X98275329Y-53919970D01*
X98253151Y-53909480D01*
X98232107Y-53896867D01*
X98212402Y-53882253D01*
X98194223Y-53865777D01*
X98177747Y-53847598D01*
X98163133Y-53827893D01*
X98150520Y-53806849D01*
X98140030Y-53784671D01*
X98131765Y-53761571D01*
X98125804Y-53737773D01*
X98122204Y-53713504D01*
X98121000Y-53689000D01*
X98121000Y-52939000D01*
X98122204Y-52914496D01*
X98125804Y-52890227D01*
X98131765Y-52866429D01*
X98140030Y-52843329D01*
X98150520Y-52821151D01*
X98163133Y-52800107D01*
X98177747Y-52780402D01*
X98194223Y-52762223D01*
X98212402Y-52745747D01*
X98232107Y-52731133D01*
X98253151Y-52718520D01*
X98275329Y-52708030D01*
X98298429Y-52699765D01*
X98322227Y-52693804D01*
X98346496Y-52690204D01*
X98371000Y-52689000D01*
X99621000Y-52689000D01*
X99645504Y-52690204D01*
G37*
G36*
X99645504Y-55490204D02*
G01*
X99669773Y-55493804D01*
X99693571Y-55499765D01*
X99716671Y-55508030D01*
X99738849Y-55518520D01*
X99759893Y-55531133D01*
X99779598Y-55545747D01*
X99797777Y-55562223D01*
X99814253Y-55580402D01*
X99828867Y-55600107D01*
X99841480Y-55621151D01*
X99851970Y-55643329D01*
X99860235Y-55666429D01*
X99866196Y-55690227D01*
X99869796Y-55714496D01*
X99871000Y-55739000D01*
X99871000Y-56489000D01*
X99869796Y-56513504D01*
X99866196Y-56537773D01*
X99860235Y-56561571D01*
X99851970Y-56584671D01*
X99841480Y-56606849D01*
X99828867Y-56627893D01*
X99814253Y-56647598D01*
X99797777Y-56665777D01*
X99779598Y-56682253D01*
X99759893Y-56696867D01*
X99738849Y-56709480D01*
X99716671Y-56719970D01*
X99693571Y-56728235D01*
X99669773Y-56734196D01*
X99645504Y-56737796D01*
X99621000Y-56739000D01*
X98371000Y-56739000D01*
X98346496Y-56737796D01*
X98322227Y-56734196D01*
X98298429Y-56728235D01*
X98275329Y-56719970D01*
X98253151Y-56709480D01*
X98232107Y-56696867D01*
X98212402Y-56682253D01*
X98194223Y-56665777D01*
X98177747Y-56647598D01*
X98163133Y-56627893D01*
X98150520Y-56606849D01*
X98140030Y-56584671D01*
X98131765Y-56561571D01*
X98125804Y-56537773D01*
X98122204Y-56513504D01*
X98121000Y-56489000D01*
X98121000Y-55739000D01*
X98122204Y-55714496D01*
X98125804Y-55690227D01*
X98131765Y-55666429D01*
X98140030Y-55643329D01*
X98150520Y-55621151D01*
X98163133Y-55600107D01*
X98177747Y-55580402D01*
X98194223Y-55562223D01*
X98212402Y-55545747D01*
X98232107Y-55531133D01*
X98253151Y-55518520D01*
X98275329Y-55508030D01*
X98298429Y-55499765D01*
X98322227Y-55493804D01*
X98346496Y-55490204D01*
X98371000Y-55489000D01*
X99621000Y-55489000D01*
X99645504Y-55490204D01*
G37*
G36*
X110906142Y-63450174D02*
G01*
X110929803Y-63453684D01*
X110953007Y-63459496D01*
X110975529Y-63467554D01*
X110997153Y-63477782D01*
X111017670Y-63490079D01*
X111036883Y-63504329D01*
X111054607Y-63520393D01*
X111070671Y-63538117D01*
X111084921Y-63557330D01*
X111097218Y-63577847D01*
X111107446Y-63599471D01*
X111115504Y-63621993D01*
X111121316Y-63645197D01*
X111124826Y-63668858D01*
X111126000Y-63692750D01*
X111126000Y-64180250D01*
X111124826Y-64204142D01*
X111121316Y-64227803D01*
X111115504Y-64251007D01*
X111107446Y-64273529D01*
X111097218Y-64295153D01*
X111084921Y-64315670D01*
X111070671Y-64334883D01*
X111054607Y-64352607D01*
X111036883Y-64368671D01*
X111017670Y-64382921D01*
X110997153Y-64395218D01*
X110975529Y-64405446D01*
X110953007Y-64413504D01*
X110929803Y-64419316D01*
X110906142Y-64422826D01*
X110882250Y-64424000D01*
X109969750Y-64424000D01*
X109945858Y-64422826D01*
X109922197Y-64419316D01*
X109898993Y-64413504D01*
X109876471Y-64405446D01*
X109854847Y-64395218D01*
X109834330Y-64382921D01*
X109815117Y-64368671D01*
X109797393Y-64352607D01*
X109781329Y-64334883D01*
X109767079Y-64315670D01*
X109754782Y-64295153D01*
X109744554Y-64273529D01*
X109736496Y-64251007D01*
X109730684Y-64227803D01*
X109727174Y-64204142D01*
X109726000Y-64180250D01*
X109726000Y-63692750D01*
X109727174Y-63668858D01*
X109730684Y-63645197D01*
X109736496Y-63621993D01*
X109744554Y-63599471D01*
X109754782Y-63577847D01*
X109767079Y-63557330D01*
X109781329Y-63538117D01*
X109797393Y-63520393D01*
X109815117Y-63504329D01*
X109834330Y-63490079D01*
X109854847Y-63477782D01*
X109876471Y-63467554D01*
X109898993Y-63459496D01*
X109922197Y-63453684D01*
X109945858Y-63450174D01*
X109969750Y-63449000D01*
X110882250Y-63449000D01*
X110906142Y-63450174D01*
G37*
G36*
X110906142Y-65325174D02*
G01*
X110929803Y-65328684D01*
X110953007Y-65334496D01*
X110975529Y-65342554D01*
X110997153Y-65352782D01*
X111017670Y-65365079D01*
X111036883Y-65379329D01*
X111054607Y-65395393D01*
X111070671Y-65413117D01*
X111084921Y-65432330D01*
X111097218Y-65452847D01*
X111107446Y-65474471D01*
X111115504Y-65496993D01*
X111121316Y-65520197D01*
X111124826Y-65543858D01*
X111126000Y-65567750D01*
X111126000Y-66055250D01*
X111124826Y-66079142D01*
X111121316Y-66102803D01*
X111115504Y-66126007D01*
X111107446Y-66148529D01*
X111097218Y-66170153D01*
X111084921Y-66190670D01*
X111070671Y-66209883D01*
X111054607Y-66227607D01*
X111036883Y-66243671D01*
X111017670Y-66257921D01*
X110997153Y-66270218D01*
X110975529Y-66280446D01*
X110953007Y-66288504D01*
X110929803Y-66294316D01*
X110906142Y-66297826D01*
X110882250Y-66299000D01*
X109969750Y-66299000D01*
X109945858Y-66297826D01*
X109922197Y-66294316D01*
X109898993Y-66288504D01*
X109876471Y-66280446D01*
X109854847Y-66270218D01*
X109834330Y-66257921D01*
X109815117Y-66243671D01*
X109797393Y-66227607D01*
X109781329Y-66209883D01*
X109767079Y-66190670D01*
X109754782Y-66170153D01*
X109744554Y-66148529D01*
X109736496Y-66126007D01*
X109730684Y-66102803D01*
X109727174Y-66079142D01*
X109726000Y-66055250D01*
X109726000Y-65567750D01*
X109727174Y-65543858D01*
X109730684Y-65520197D01*
X109736496Y-65496993D01*
X109744554Y-65474471D01*
X109754782Y-65452847D01*
X109767079Y-65432330D01*
X109781329Y-65413117D01*
X109797393Y-65395393D01*
X109815117Y-65379329D01*
X109834330Y-65365079D01*
X109854847Y-65352782D01*
X109876471Y-65342554D01*
X109898993Y-65334496D01*
X109922197Y-65328684D01*
X109945858Y-65325174D01*
X109969750Y-65324000D01*
X110882250Y-65324000D01*
X110906142Y-65325174D01*
G37*
G36*
X87404142Y-86781174D02*
G01*
X87427803Y-86784684D01*
X87451007Y-86790496D01*
X87473529Y-86798554D01*
X87495153Y-86808782D01*
X87515670Y-86821079D01*
X87534883Y-86835329D01*
X87552607Y-86851393D01*
X87568671Y-86869117D01*
X87582921Y-86888330D01*
X87595218Y-86908847D01*
X87605446Y-86930471D01*
X87613504Y-86952993D01*
X87619316Y-86976197D01*
X87622826Y-86999858D01*
X87624000Y-87023750D01*
X87624000Y-87936250D01*
X87622826Y-87960142D01*
X87619316Y-87983803D01*
X87613504Y-88007007D01*
X87605446Y-88029529D01*
X87595218Y-88051153D01*
X87582921Y-88071670D01*
X87568671Y-88090883D01*
X87552607Y-88108607D01*
X87534883Y-88124671D01*
X87515670Y-88138921D01*
X87495153Y-88151218D01*
X87473529Y-88161446D01*
X87451007Y-88169504D01*
X87427803Y-88175316D01*
X87404142Y-88178826D01*
X87380250Y-88180000D01*
X86892750Y-88180000D01*
X86868858Y-88178826D01*
X86845197Y-88175316D01*
X86821993Y-88169504D01*
X86799471Y-88161446D01*
X86777847Y-88151218D01*
X86757330Y-88138921D01*
X86738117Y-88124671D01*
X86720393Y-88108607D01*
X86704329Y-88090883D01*
X86690079Y-88071670D01*
X86677782Y-88051153D01*
X86667554Y-88029529D01*
X86659496Y-88007007D01*
X86653684Y-87983803D01*
X86650174Y-87960142D01*
X86649000Y-87936250D01*
X86649000Y-87023750D01*
X86650174Y-86999858D01*
X86653684Y-86976197D01*
X86659496Y-86952993D01*
X86667554Y-86930471D01*
X86677782Y-86908847D01*
X86690079Y-86888330D01*
X86704329Y-86869117D01*
X86720393Y-86851393D01*
X86738117Y-86835329D01*
X86757330Y-86821079D01*
X86777847Y-86808782D01*
X86799471Y-86798554D01*
X86821993Y-86790496D01*
X86845197Y-86784684D01*
X86868858Y-86781174D01*
X86892750Y-86780000D01*
X87380250Y-86780000D01*
X87404142Y-86781174D01*
G37*
G36*
X89279142Y-86781174D02*
G01*
X89302803Y-86784684D01*
X89326007Y-86790496D01*
X89348529Y-86798554D01*
X89370153Y-86808782D01*
X89390670Y-86821079D01*
X89409883Y-86835329D01*
X89427607Y-86851393D01*
X89443671Y-86869117D01*
X89457921Y-86888330D01*
X89470218Y-86908847D01*
X89480446Y-86930471D01*
X89488504Y-86952993D01*
X89494316Y-86976197D01*
X89497826Y-86999858D01*
X89499000Y-87023750D01*
X89499000Y-87936250D01*
X89497826Y-87960142D01*
X89494316Y-87983803D01*
X89488504Y-88007007D01*
X89480446Y-88029529D01*
X89470218Y-88051153D01*
X89457921Y-88071670D01*
X89443671Y-88090883D01*
X89427607Y-88108607D01*
X89409883Y-88124671D01*
X89390670Y-88138921D01*
X89370153Y-88151218D01*
X89348529Y-88161446D01*
X89326007Y-88169504D01*
X89302803Y-88175316D01*
X89279142Y-88178826D01*
X89255250Y-88180000D01*
X88767750Y-88180000D01*
X88743858Y-88178826D01*
X88720197Y-88175316D01*
X88696993Y-88169504D01*
X88674471Y-88161446D01*
X88652847Y-88151218D01*
X88632330Y-88138921D01*
X88613117Y-88124671D01*
X88595393Y-88108607D01*
X88579329Y-88090883D01*
X88565079Y-88071670D01*
X88552782Y-88051153D01*
X88542554Y-88029529D01*
X88534496Y-88007007D01*
X88528684Y-87983803D01*
X88525174Y-87960142D01*
X88524000Y-87936250D01*
X88524000Y-87023750D01*
X88525174Y-86999858D01*
X88528684Y-86976197D01*
X88534496Y-86952993D01*
X88542554Y-86930471D01*
X88552782Y-86908847D01*
X88565079Y-86888330D01*
X88579329Y-86869117D01*
X88595393Y-86851393D01*
X88613117Y-86835329D01*
X88632330Y-86821079D01*
X88652847Y-86808782D01*
X88674471Y-86798554D01*
X88696993Y-86790496D01*
X88720197Y-86784684D01*
X88743858Y-86781174D01*
X88767750Y-86780000D01*
X89255250Y-86780000D01*
X89279142Y-86781174D01*
G37*
G36*
X113898642Y-98465174D02*
G01*
X113922303Y-98468684D01*
X113945507Y-98474496D01*
X113968029Y-98482554D01*
X113989653Y-98492782D01*
X114010170Y-98505079D01*
X114029383Y-98519329D01*
X114047107Y-98535393D01*
X114063171Y-98553117D01*
X114077421Y-98572330D01*
X114089718Y-98592847D01*
X114099946Y-98614471D01*
X114108004Y-98636993D01*
X114113816Y-98660197D01*
X114117326Y-98683858D01*
X114118500Y-98707750D01*
X114118500Y-99620250D01*
X114117326Y-99644142D01*
X114113816Y-99667803D01*
X114108004Y-99691007D01*
X114099946Y-99713529D01*
X114089718Y-99735153D01*
X114077421Y-99755670D01*
X114063171Y-99774883D01*
X114047107Y-99792607D01*
X114029383Y-99808671D01*
X114010170Y-99822921D01*
X113989653Y-99835218D01*
X113968029Y-99845446D01*
X113945507Y-99853504D01*
X113922303Y-99859316D01*
X113898642Y-99862826D01*
X113874750Y-99864000D01*
X113387250Y-99864000D01*
X113363358Y-99862826D01*
X113339697Y-99859316D01*
X113316493Y-99853504D01*
X113293971Y-99845446D01*
X113272347Y-99835218D01*
X113251830Y-99822921D01*
X113232617Y-99808671D01*
X113214893Y-99792607D01*
X113198829Y-99774883D01*
X113184579Y-99755670D01*
X113172282Y-99735153D01*
X113162054Y-99713529D01*
X113153996Y-99691007D01*
X113148184Y-99667803D01*
X113144674Y-99644142D01*
X113143500Y-99620250D01*
X113143500Y-98707750D01*
X113144674Y-98683858D01*
X113148184Y-98660197D01*
X113153996Y-98636993D01*
X113162054Y-98614471D01*
X113172282Y-98592847D01*
X113184579Y-98572330D01*
X113198829Y-98553117D01*
X113214893Y-98535393D01*
X113232617Y-98519329D01*
X113251830Y-98505079D01*
X113272347Y-98492782D01*
X113293971Y-98482554D01*
X113316493Y-98474496D01*
X113339697Y-98468684D01*
X113363358Y-98465174D01*
X113387250Y-98464000D01*
X113874750Y-98464000D01*
X113898642Y-98465174D01*
G37*
G36*
X115773642Y-98465174D02*
G01*
X115797303Y-98468684D01*
X115820507Y-98474496D01*
X115843029Y-98482554D01*
X115864653Y-98492782D01*
X115885170Y-98505079D01*
X115904383Y-98519329D01*
X115922107Y-98535393D01*
X115938171Y-98553117D01*
X115952421Y-98572330D01*
X115964718Y-98592847D01*
X115974946Y-98614471D01*
X115983004Y-98636993D01*
X115988816Y-98660197D01*
X115992326Y-98683858D01*
X115993500Y-98707750D01*
X115993500Y-99620250D01*
X115992326Y-99644142D01*
X115988816Y-99667803D01*
X115983004Y-99691007D01*
X115974946Y-99713529D01*
X115964718Y-99735153D01*
X115952421Y-99755670D01*
X115938171Y-99774883D01*
X115922107Y-99792607D01*
X115904383Y-99808671D01*
X115885170Y-99822921D01*
X115864653Y-99835218D01*
X115843029Y-99845446D01*
X115820507Y-99853504D01*
X115797303Y-99859316D01*
X115773642Y-99862826D01*
X115749750Y-99864000D01*
X115262250Y-99864000D01*
X115238358Y-99862826D01*
X115214697Y-99859316D01*
X115191493Y-99853504D01*
X115168971Y-99845446D01*
X115147347Y-99835218D01*
X115126830Y-99822921D01*
X115107617Y-99808671D01*
X115089893Y-99792607D01*
X115073829Y-99774883D01*
X115059579Y-99755670D01*
X115047282Y-99735153D01*
X115037054Y-99713529D01*
X115028996Y-99691007D01*
X115023184Y-99667803D01*
X115019674Y-99644142D01*
X115018500Y-99620250D01*
X115018500Y-98707750D01*
X115019674Y-98683858D01*
X115023184Y-98660197D01*
X115028996Y-98636993D01*
X115037054Y-98614471D01*
X115047282Y-98592847D01*
X115059579Y-98572330D01*
X115073829Y-98553117D01*
X115089893Y-98535393D01*
X115107617Y-98519329D01*
X115126830Y-98505079D01*
X115147347Y-98492782D01*
X115168971Y-98482554D01*
X115191493Y-98474496D01*
X115214697Y-98468684D01*
X115238358Y-98465174D01*
X115262250Y-98464000D01*
X115749750Y-98464000D01*
X115773642Y-98465174D01*
G37*
G36*
X110361142Y-76875174D02*
G01*
X110384803Y-76878684D01*
X110408007Y-76884496D01*
X110430529Y-76892554D01*
X110452153Y-76902782D01*
X110472670Y-76915079D01*
X110491883Y-76929329D01*
X110509607Y-76945393D01*
X110525671Y-76963117D01*
X110539921Y-76982330D01*
X110552218Y-77002847D01*
X110562446Y-77024471D01*
X110570504Y-77046993D01*
X110576316Y-77070197D01*
X110579826Y-77093858D01*
X110581000Y-77117750D01*
X110581000Y-78030250D01*
X110579826Y-78054142D01*
X110576316Y-78077803D01*
X110570504Y-78101007D01*
X110562446Y-78123529D01*
X110552218Y-78145153D01*
X110539921Y-78165670D01*
X110525671Y-78184883D01*
X110509607Y-78202607D01*
X110491883Y-78218671D01*
X110472670Y-78232921D01*
X110452153Y-78245218D01*
X110430529Y-78255446D01*
X110408007Y-78263504D01*
X110384803Y-78269316D01*
X110361142Y-78272826D01*
X110337250Y-78274000D01*
X109849750Y-78274000D01*
X109825858Y-78272826D01*
X109802197Y-78269316D01*
X109778993Y-78263504D01*
X109756471Y-78255446D01*
X109734847Y-78245218D01*
X109714330Y-78232921D01*
X109695117Y-78218671D01*
X109677393Y-78202607D01*
X109661329Y-78184883D01*
X109647079Y-78165670D01*
X109634782Y-78145153D01*
X109624554Y-78123529D01*
X109616496Y-78101007D01*
X109610684Y-78077803D01*
X109607174Y-78054142D01*
X109606000Y-78030250D01*
X109606000Y-77117750D01*
X109607174Y-77093858D01*
X109610684Y-77070197D01*
X109616496Y-77046993D01*
X109624554Y-77024471D01*
X109634782Y-77002847D01*
X109647079Y-76982330D01*
X109661329Y-76963117D01*
X109677393Y-76945393D01*
X109695117Y-76929329D01*
X109714330Y-76915079D01*
X109734847Y-76902782D01*
X109756471Y-76892554D01*
X109778993Y-76884496D01*
X109802197Y-76878684D01*
X109825858Y-76875174D01*
X109849750Y-76874000D01*
X110337250Y-76874000D01*
X110361142Y-76875174D01*
G37*
G36*
X108486142Y-76875174D02*
G01*
X108509803Y-76878684D01*
X108533007Y-76884496D01*
X108555529Y-76892554D01*
X108577153Y-76902782D01*
X108597670Y-76915079D01*
X108616883Y-76929329D01*
X108634607Y-76945393D01*
X108650671Y-76963117D01*
X108664921Y-76982330D01*
X108677218Y-77002847D01*
X108687446Y-77024471D01*
X108695504Y-77046993D01*
X108701316Y-77070197D01*
X108704826Y-77093858D01*
X108706000Y-77117750D01*
X108706000Y-78030250D01*
X108704826Y-78054142D01*
X108701316Y-78077803D01*
X108695504Y-78101007D01*
X108687446Y-78123529D01*
X108677218Y-78145153D01*
X108664921Y-78165670D01*
X108650671Y-78184883D01*
X108634607Y-78202607D01*
X108616883Y-78218671D01*
X108597670Y-78232921D01*
X108577153Y-78245218D01*
X108555529Y-78255446D01*
X108533007Y-78263504D01*
X108509803Y-78269316D01*
X108486142Y-78272826D01*
X108462250Y-78274000D01*
X107974750Y-78274000D01*
X107950858Y-78272826D01*
X107927197Y-78269316D01*
X107903993Y-78263504D01*
X107881471Y-78255446D01*
X107859847Y-78245218D01*
X107839330Y-78232921D01*
X107820117Y-78218671D01*
X107802393Y-78202607D01*
X107786329Y-78184883D01*
X107772079Y-78165670D01*
X107759782Y-78145153D01*
X107749554Y-78123529D01*
X107741496Y-78101007D01*
X107735684Y-78077803D01*
X107732174Y-78054142D01*
X107731000Y-78030250D01*
X107731000Y-77117750D01*
X107732174Y-77093858D01*
X107735684Y-77070197D01*
X107741496Y-77046993D01*
X107749554Y-77024471D01*
X107759782Y-77002847D01*
X107772079Y-76982330D01*
X107786329Y-76963117D01*
X107802393Y-76945393D01*
X107820117Y-76929329D01*
X107839330Y-76915079D01*
X107859847Y-76902782D01*
X107881471Y-76892554D01*
X107903993Y-76884496D01*
X107927197Y-76878684D01*
X107950858Y-76875174D01*
X107974750Y-76874000D01*
X108462250Y-76874000D01*
X108486142Y-76875174D01*
G37*
G36*
X107821142Y-98465174D02*
G01*
X107844803Y-98468684D01*
X107868007Y-98474496D01*
X107890529Y-98482554D01*
X107912153Y-98492782D01*
X107932670Y-98505079D01*
X107951883Y-98519329D01*
X107969607Y-98535393D01*
X107985671Y-98553117D01*
X107999921Y-98572330D01*
X108012218Y-98592847D01*
X108022446Y-98614471D01*
X108030504Y-98636993D01*
X108036316Y-98660197D01*
X108039826Y-98683858D01*
X108041000Y-98707750D01*
X108041000Y-99620250D01*
X108039826Y-99644142D01*
X108036316Y-99667803D01*
X108030504Y-99691007D01*
X108022446Y-99713529D01*
X108012218Y-99735153D01*
X107999921Y-99755670D01*
X107985671Y-99774883D01*
X107969607Y-99792607D01*
X107951883Y-99808671D01*
X107932670Y-99822921D01*
X107912153Y-99835218D01*
X107890529Y-99845446D01*
X107868007Y-99853504D01*
X107844803Y-99859316D01*
X107821142Y-99862826D01*
X107797250Y-99864000D01*
X107309750Y-99864000D01*
X107285858Y-99862826D01*
X107262197Y-99859316D01*
X107238993Y-99853504D01*
X107216471Y-99845446D01*
X107194847Y-99835218D01*
X107174330Y-99822921D01*
X107155117Y-99808671D01*
X107137393Y-99792607D01*
X107121329Y-99774883D01*
X107107079Y-99755670D01*
X107094782Y-99735153D01*
X107084554Y-99713529D01*
X107076496Y-99691007D01*
X107070684Y-99667803D01*
X107067174Y-99644142D01*
X107066000Y-99620250D01*
X107066000Y-98707750D01*
X107067174Y-98683858D01*
X107070684Y-98660197D01*
X107076496Y-98636993D01*
X107084554Y-98614471D01*
X107094782Y-98592847D01*
X107107079Y-98572330D01*
X107121329Y-98553117D01*
X107137393Y-98535393D01*
X107155117Y-98519329D01*
X107174330Y-98505079D01*
X107194847Y-98492782D01*
X107216471Y-98482554D01*
X107238993Y-98474496D01*
X107262197Y-98468684D01*
X107285858Y-98465174D01*
X107309750Y-98464000D01*
X107797250Y-98464000D01*
X107821142Y-98465174D01*
G37*
G36*
X105946142Y-98465174D02*
G01*
X105969803Y-98468684D01*
X105993007Y-98474496D01*
X106015529Y-98482554D01*
X106037153Y-98492782D01*
X106057670Y-98505079D01*
X106076883Y-98519329D01*
X106094607Y-98535393D01*
X106110671Y-98553117D01*
X106124921Y-98572330D01*
X106137218Y-98592847D01*
X106147446Y-98614471D01*
X106155504Y-98636993D01*
X106161316Y-98660197D01*
X106164826Y-98683858D01*
X106166000Y-98707750D01*
X106166000Y-99620250D01*
X106164826Y-99644142D01*
X106161316Y-99667803D01*
X106155504Y-99691007D01*
X106147446Y-99713529D01*
X106137218Y-99735153D01*
X106124921Y-99755670D01*
X106110671Y-99774883D01*
X106094607Y-99792607D01*
X106076883Y-99808671D01*
X106057670Y-99822921D01*
X106037153Y-99835218D01*
X106015529Y-99845446D01*
X105993007Y-99853504D01*
X105969803Y-99859316D01*
X105946142Y-99862826D01*
X105922250Y-99864000D01*
X105434750Y-99864000D01*
X105410858Y-99862826D01*
X105387197Y-99859316D01*
X105363993Y-99853504D01*
X105341471Y-99845446D01*
X105319847Y-99835218D01*
X105299330Y-99822921D01*
X105280117Y-99808671D01*
X105262393Y-99792607D01*
X105246329Y-99774883D01*
X105232079Y-99755670D01*
X105219782Y-99735153D01*
X105209554Y-99713529D01*
X105201496Y-99691007D01*
X105195684Y-99667803D01*
X105192174Y-99644142D01*
X105191000Y-99620250D01*
X105191000Y-98707750D01*
X105192174Y-98683858D01*
X105195684Y-98660197D01*
X105201496Y-98636993D01*
X105209554Y-98614471D01*
X105219782Y-98592847D01*
X105232079Y-98572330D01*
X105246329Y-98553117D01*
X105262393Y-98535393D01*
X105280117Y-98519329D01*
X105299330Y-98505079D01*
X105319847Y-98492782D01*
X105341471Y-98482554D01*
X105363993Y-98474496D01*
X105387197Y-98468684D01*
X105410858Y-98465174D01*
X105434750Y-98464000D01*
X105922250Y-98464000D01*
X105946142Y-98465174D01*
G37*
G36*
X110361142Y-74335174D02*
G01*
X110384803Y-74338684D01*
X110408007Y-74344496D01*
X110430529Y-74352554D01*
X110452153Y-74362782D01*
X110472670Y-74375079D01*
X110491883Y-74389329D01*
X110509607Y-74405393D01*
X110525671Y-74423117D01*
X110539921Y-74442330D01*
X110552218Y-74462847D01*
X110562446Y-74484471D01*
X110570504Y-74506993D01*
X110576316Y-74530197D01*
X110579826Y-74553858D01*
X110581000Y-74577750D01*
X110581000Y-75490250D01*
X110579826Y-75514142D01*
X110576316Y-75537803D01*
X110570504Y-75561007D01*
X110562446Y-75583529D01*
X110552218Y-75605153D01*
X110539921Y-75625670D01*
X110525671Y-75644883D01*
X110509607Y-75662607D01*
X110491883Y-75678671D01*
X110472670Y-75692921D01*
X110452153Y-75705218D01*
X110430529Y-75715446D01*
X110408007Y-75723504D01*
X110384803Y-75729316D01*
X110361142Y-75732826D01*
X110337250Y-75734000D01*
X109849750Y-75734000D01*
X109825858Y-75732826D01*
X109802197Y-75729316D01*
X109778993Y-75723504D01*
X109756471Y-75715446D01*
X109734847Y-75705218D01*
X109714330Y-75692921D01*
X109695117Y-75678671D01*
X109677393Y-75662607D01*
X109661329Y-75644883D01*
X109647079Y-75625670D01*
X109634782Y-75605153D01*
X109624554Y-75583529D01*
X109616496Y-75561007D01*
X109610684Y-75537803D01*
X109607174Y-75514142D01*
X109606000Y-75490250D01*
X109606000Y-74577750D01*
X109607174Y-74553858D01*
X109610684Y-74530197D01*
X109616496Y-74506993D01*
X109624554Y-74484471D01*
X109634782Y-74462847D01*
X109647079Y-74442330D01*
X109661329Y-74423117D01*
X109677393Y-74405393D01*
X109695117Y-74389329D01*
X109714330Y-74375079D01*
X109734847Y-74362782D01*
X109756471Y-74352554D01*
X109778993Y-74344496D01*
X109802197Y-74338684D01*
X109825858Y-74335174D01*
X109849750Y-74334000D01*
X110337250Y-74334000D01*
X110361142Y-74335174D01*
G37*
G36*
X108486142Y-74335174D02*
G01*
X108509803Y-74338684D01*
X108533007Y-74344496D01*
X108555529Y-74352554D01*
X108577153Y-74362782D01*
X108597670Y-74375079D01*
X108616883Y-74389329D01*
X108634607Y-74405393D01*
X108650671Y-74423117D01*
X108664921Y-74442330D01*
X108677218Y-74462847D01*
X108687446Y-74484471D01*
X108695504Y-74506993D01*
X108701316Y-74530197D01*
X108704826Y-74553858D01*
X108706000Y-74577750D01*
X108706000Y-75490250D01*
X108704826Y-75514142D01*
X108701316Y-75537803D01*
X108695504Y-75561007D01*
X108687446Y-75583529D01*
X108677218Y-75605153D01*
X108664921Y-75625670D01*
X108650671Y-75644883D01*
X108634607Y-75662607D01*
X108616883Y-75678671D01*
X108597670Y-75692921D01*
X108577153Y-75705218D01*
X108555529Y-75715446D01*
X108533007Y-75723504D01*
X108509803Y-75729316D01*
X108486142Y-75732826D01*
X108462250Y-75734000D01*
X107974750Y-75734000D01*
X107950858Y-75732826D01*
X107927197Y-75729316D01*
X107903993Y-75723504D01*
X107881471Y-75715446D01*
X107859847Y-75705218D01*
X107839330Y-75692921D01*
X107820117Y-75678671D01*
X107802393Y-75662607D01*
X107786329Y-75644883D01*
X107772079Y-75625670D01*
X107759782Y-75605153D01*
X107749554Y-75583529D01*
X107741496Y-75561007D01*
X107735684Y-75537803D01*
X107732174Y-75514142D01*
X107731000Y-75490250D01*
X107731000Y-74577750D01*
X107732174Y-74553858D01*
X107735684Y-74530197D01*
X107741496Y-74506993D01*
X107749554Y-74484471D01*
X107759782Y-74462847D01*
X107772079Y-74442330D01*
X107786329Y-74423117D01*
X107802393Y-74405393D01*
X107820117Y-74389329D01*
X107839330Y-74375079D01*
X107859847Y-74362782D01*
X107881471Y-74352554D01*
X107903993Y-74344496D01*
X107927197Y-74338684D01*
X107950858Y-74335174D01*
X107974750Y-74334000D01*
X108462250Y-74334000D01*
X108486142Y-74335174D01*
G37*
G36*
X83340142Y-86781174D02*
G01*
X83363803Y-86784684D01*
X83387007Y-86790496D01*
X83409529Y-86798554D01*
X83431153Y-86808782D01*
X83451670Y-86821079D01*
X83470883Y-86835329D01*
X83488607Y-86851393D01*
X83504671Y-86869117D01*
X83518921Y-86888330D01*
X83531218Y-86908847D01*
X83541446Y-86930471D01*
X83549504Y-86952993D01*
X83555316Y-86976197D01*
X83558826Y-86999858D01*
X83560000Y-87023750D01*
X83560000Y-87936250D01*
X83558826Y-87960142D01*
X83555316Y-87983803D01*
X83549504Y-88007007D01*
X83541446Y-88029529D01*
X83531218Y-88051153D01*
X83518921Y-88071670D01*
X83504671Y-88090883D01*
X83488607Y-88108607D01*
X83470883Y-88124671D01*
X83451670Y-88138921D01*
X83431153Y-88151218D01*
X83409529Y-88161446D01*
X83387007Y-88169504D01*
X83363803Y-88175316D01*
X83340142Y-88178826D01*
X83316250Y-88180000D01*
X82828750Y-88180000D01*
X82804858Y-88178826D01*
X82781197Y-88175316D01*
X82757993Y-88169504D01*
X82735471Y-88161446D01*
X82713847Y-88151218D01*
X82693330Y-88138921D01*
X82674117Y-88124671D01*
X82656393Y-88108607D01*
X82640329Y-88090883D01*
X82626079Y-88071670D01*
X82613782Y-88051153D01*
X82603554Y-88029529D01*
X82595496Y-88007007D01*
X82589684Y-87983803D01*
X82586174Y-87960142D01*
X82585000Y-87936250D01*
X82585000Y-87023750D01*
X82586174Y-86999858D01*
X82589684Y-86976197D01*
X82595496Y-86952993D01*
X82603554Y-86930471D01*
X82613782Y-86908847D01*
X82626079Y-86888330D01*
X82640329Y-86869117D01*
X82656393Y-86851393D01*
X82674117Y-86835329D01*
X82693330Y-86821079D01*
X82713847Y-86808782D01*
X82735471Y-86798554D01*
X82757993Y-86790496D01*
X82781197Y-86784684D01*
X82804858Y-86781174D01*
X82828750Y-86780000D01*
X83316250Y-86780000D01*
X83340142Y-86781174D01*
G37*
G36*
X85215142Y-86781174D02*
G01*
X85238803Y-86784684D01*
X85262007Y-86790496D01*
X85284529Y-86798554D01*
X85306153Y-86808782D01*
X85326670Y-86821079D01*
X85345883Y-86835329D01*
X85363607Y-86851393D01*
X85379671Y-86869117D01*
X85393921Y-86888330D01*
X85406218Y-86908847D01*
X85416446Y-86930471D01*
X85424504Y-86952993D01*
X85430316Y-86976197D01*
X85433826Y-86999858D01*
X85435000Y-87023750D01*
X85435000Y-87936250D01*
X85433826Y-87960142D01*
X85430316Y-87983803D01*
X85424504Y-88007007D01*
X85416446Y-88029529D01*
X85406218Y-88051153D01*
X85393921Y-88071670D01*
X85379671Y-88090883D01*
X85363607Y-88108607D01*
X85345883Y-88124671D01*
X85326670Y-88138921D01*
X85306153Y-88151218D01*
X85284529Y-88161446D01*
X85262007Y-88169504D01*
X85238803Y-88175316D01*
X85215142Y-88178826D01*
X85191250Y-88180000D01*
X84703750Y-88180000D01*
X84679858Y-88178826D01*
X84656197Y-88175316D01*
X84632993Y-88169504D01*
X84610471Y-88161446D01*
X84588847Y-88151218D01*
X84568330Y-88138921D01*
X84549117Y-88124671D01*
X84531393Y-88108607D01*
X84515329Y-88090883D01*
X84501079Y-88071670D01*
X84488782Y-88051153D01*
X84478554Y-88029529D01*
X84470496Y-88007007D01*
X84464684Y-87983803D01*
X84461174Y-87960142D01*
X84460000Y-87936250D01*
X84460000Y-87023750D01*
X84461174Y-86999858D01*
X84464684Y-86976197D01*
X84470496Y-86952993D01*
X84478554Y-86930471D01*
X84488782Y-86908847D01*
X84501079Y-86888330D01*
X84515329Y-86869117D01*
X84531393Y-86851393D01*
X84549117Y-86835329D01*
X84568330Y-86821079D01*
X84588847Y-86808782D01*
X84610471Y-86798554D01*
X84632993Y-86790496D01*
X84656197Y-86784684D01*
X84679858Y-86781174D01*
X84703750Y-86780000D01*
X85191250Y-86780000D01*
X85215142Y-86781174D01*
G37*
G36*
X108366142Y-65325174D02*
G01*
X108389803Y-65328684D01*
X108413007Y-65334496D01*
X108435529Y-65342554D01*
X108457153Y-65352782D01*
X108477670Y-65365079D01*
X108496883Y-65379329D01*
X108514607Y-65395393D01*
X108530671Y-65413117D01*
X108544921Y-65432330D01*
X108557218Y-65452847D01*
X108567446Y-65474471D01*
X108575504Y-65496993D01*
X108581316Y-65520197D01*
X108584826Y-65543858D01*
X108586000Y-65567750D01*
X108586000Y-66055250D01*
X108584826Y-66079142D01*
X108581316Y-66102803D01*
X108575504Y-66126007D01*
X108567446Y-66148529D01*
X108557218Y-66170153D01*
X108544921Y-66190670D01*
X108530671Y-66209883D01*
X108514607Y-66227607D01*
X108496883Y-66243671D01*
X108477670Y-66257921D01*
X108457153Y-66270218D01*
X108435529Y-66280446D01*
X108413007Y-66288504D01*
X108389803Y-66294316D01*
X108366142Y-66297826D01*
X108342250Y-66299000D01*
X107429750Y-66299000D01*
X107405858Y-66297826D01*
X107382197Y-66294316D01*
X107358993Y-66288504D01*
X107336471Y-66280446D01*
X107314847Y-66270218D01*
X107294330Y-66257921D01*
X107275117Y-66243671D01*
X107257393Y-66227607D01*
X107241329Y-66209883D01*
X107227079Y-66190670D01*
X107214782Y-66170153D01*
X107204554Y-66148529D01*
X107196496Y-66126007D01*
X107190684Y-66102803D01*
X107187174Y-66079142D01*
X107186000Y-66055250D01*
X107186000Y-65567750D01*
X107187174Y-65543858D01*
X107190684Y-65520197D01*
X107196496Y-65496993D01*
X107204554Y-65474471D01*
X107214782Y-65452847D01*
X107227079Y-65432330D01*
X107241329Y-65413117D01*
X107257393Y-65395393D01*
X107275117Y-65379329D01*
X107294330Y-65365079D01*
X107314847Y-65352782D01*
X107336471Y-65342554D01*
X107358993Y-65334496D01*
X107382197Y-65328684D01*
X107405858Y-65325174D01*
X107429750Y-65324000D01*
X108342250Y-65324000D01*
X108366142Y-65325174D01*
G37*
G36*
X108366142Y-63450174D02*
G01*
X108389803Y-63453684D01*
X108413007Y-63459496D01*
X108435529Y-63467554D01*
X108457153Y-63477782D01*
X108477670Y-63490079D01*
X108496883Y-63504329D01*
X108514607Y-63520393D01*
X108530671Y-63538117D01*
X108544921Y-63557330D01*
X108557218Y-63577847D01*
X108567446Y-63599471D01*
X108575504Y-63621993D01*
X108581316Y-63645197D01*
X108584826Y-63668858D01*
X108586000Y-63692750D01*
X108586000Y-64180250D01*
X108584826Y-64204142D01*
X108581316Y-64227803D01*
X108575504Y-64251007D01*
X108567446Y-64273529D01*
X108557218Y-64295153D01*
X108544921Y-64315670D01*
X108530671Y-64334883D01*
X108514607Y-64352607D01*
X108496883Y-64368671D01*
X108477670Y-64382921D01*
X108457153Y-64395218D01*
X108435529Y-64405446D01*
X108413007Y-64413504D01*
X108389803Y-64419316D01*
X108366142Y-64422826D01*
X108342250Y-64424000D01*
X107429750Y-64424000D01*
X107405858Y-64422826D01*
X107382197Y-64419316D01*
X107358993Y-64413504D01*
X107336471Y-64405446D01*
X107314847Y-64395218D01*
X107294330Y-64382921D01*
X107275117Y-64368671D01*
X107257393Y-64352607D01*
X107241329Y-64334883D01*
X107227079Y-64315670D01*
X107214782Y-64295153D01*
X107204554Y-64273529D01*
X107196496Y-64251007D01*
X107190684Y-64227803D01*
X107187174Y-64204142D01*
X107186000Y-64180250D01*
X107186000Y-63692750D01*
X107187174Y-63668858D01*
X107190684Y-63645197D01*
X107196496Y-63621993D01*
X107204554Y-63599471D01*
X107214782Y-63577847D01*
X107227079Y-63557330D01*
X107241329Y-63538117D01*
X107257393Y-63520393D01*
X107275117Y-63504329D01*
X107294330Y-63490079D01*
X107314847Y-63477782D01*
X107336471Y-63467554D01*
X107358993Y-63459496D01*
X107382197Y-63453684D01*
X107405858Y-63450174D01*
X107429750Y-63449000D01*
X108342250Y-63449000D01*
X108366142Y-63450174D01*
G37*
G36*
X91856142Y-57705174D02*
G01*
X91879803Y-57708684D01*
X91903007Y-57714496D01*
X91925529Y-57722554D01*
X91947153Y-57732782D01*
X91967670Y-57745079D01*
X91986883Y-57759329D01*
X92004607Y-57775393D01*
X92020671Y-57793117D01*
X92034921Y-57812330D01*
X92047218Y-57832847D01*
X92057446Y-57854471D01*
X92065504Y-57876993D01*
X92071316Y-57900197D01*
X92074826Y-57923858D01*
X92076000Y-57947750D01*
X92076000Y-58435250D01*
X92074826Y-58459142D01*
X92071316Y-58482803D01*
X92065504Y-58506007D01*
X92057446Y-58528529D01*
X92047218Y-58550153D01*
X92034921Y-58570670D01*
X92020671Y-58589883D01*
X92004607Y-58607607D01*
X91986883Y-58623671D01*
X91967670Y-58637921D01*
X91947153Y-58650218D01*
X91925529Y-58660446D01*
X91903007Y-58668504D01*
X91879803Y-58674316D01*
X91856142Y-58677826D01*
X91832250Y-58679000D01*
X90919750Y-58679000D01*
X90895858Y-58677826D01*
X90872197Y-58674316D01*
X90848993Y-58668504D01*
X90826471Y-58660446D01*
X90804847Y-58650218D01*
X90784330Y-58637921D01*
X90765117Y-58623671D01*
X90747393Y-58607607D01*
X90731329Y-58589883D01*
X90717079Y-58570670D01*
X90704782Y-58550153D01*
X90694554Y-58528529D01*
X90686496Y-58506007D01*
X90680684Y-58482803D01*
X90677174Y-58459142D01*
X90676000Y-58435250D01*
X90676000Y-57947750D01*
X90677174Y-57923858D01*
X90680684Y-57900197D01*
X90686496Y-57876993D01*
X90694554Y-57854471D01*
X90704782Y-57832847D01*
X90717079Y-57812330D01*
X90731329Y-57793117D01*
X90747393Y-57775393D01*
X90765117Y-57759329D01*
X90784330Y-57745079D01*
X90804847Y-57732782D01*
X90826471Y-57722554D01*
X90848993Y-57714496D01*
X90872197Y-57708684D01*
X90895858Y-57705174D01*
X90919750Y-57704000D01*
X91832250Y-57704000D01*
X91856142Y-57705174D01*
G37*
G36*
X91856142Y-55830174D02*
G01*
X91879803Y-55833684D01*
X91903007Y-55839496D01*
X91925529Y-55847554D01*
X91947153Y-55857782D01*
X91967670Y-55870079D01*
X91986883Y-55884329D01*
X92004607Y-55900393D01*
X92020671Y-55918117D01*
X92034921Y-55937330D01*
X92047218Y-55957847D01*
X92057446Y-55979471D01*
X92065504Y-56001993D01*
X92071316Y-56025197D01*
X92074826Y-56048858D01*
X92076000Y-56072750D01*
X92076000Y-56560250D01*
X92074826Y-56584142D01*
X92071316Y-56607803D01*
X92065504Y-56631007D01*
X92057446Y-56653529D01*
X92047218Y-56675153D01*
X92034921Y-56695670D01*
X92020671Y-56714883D01*
X92004607Y-56732607D01*
X91986883Y-56748671D01*
X91967670Y-56762921D01*
X91947153Y-56775218D01*
X91925529Y-56785446D01*
X91903007Y-56793504D01*
X91879803Y-56799316D01*
X91856142Y-56802826D01*
X91832250Y-56804000D01*
X90919750Y-56804000D01*
X90895858Y-56802826D01*
X90872197Y-56799316D01*
X90848993Y-56793504D01*
X90826471Y-56785446D01*
X90804847Y-56775218D01*
X90784330Y-56762921D01*
X90765117Y-56748671D01*
X90747393Y-56732607D01*
X90731329Y-56714883D01*
X90717079Y-56695670D01*
X90704782Y-56675153D01*
X90694554Y-56653529D01*
X90686496Y-56631007D01*
X90680684Y-56607803D01*
X90677174Y-56584142D01*
X90676000Y-56560250D01*
X90676000Y-56072750D01*
X90677174Y-56048858D01*
X90680684Y-56025197D01*
X90686496Y-56001993D01*
X90694554Y-55979471D01*
X90704782Y-55957847D01*
X90717079Y-55937330D01*
X90731329Y-55918117D01*
X90747393Y-55900393D01*
X90765117Y-55884329D01*
X90784330Y-55870079D01*
X90804847Y-55857782D01*
X90826471Y-55847554D01*
X90848993Y-55839496D01*
X90872197Y-55833684D01*
X90895858Y-55830174D01*
X90919750Y-55829000D01*
X91832250Y-55829000D01*
X91856142Y-55830174D01*
G37*
G36*
X93246142Y-69255174D02*
G01*
X93269803Y-69258684D01*
X93293007Y-69264496D01*
X93315529Y-69272554D01*
X93337153Y-69282782D01*
X93357670Y-69295079D01*
X93376883Y-69309329D01*
X93394607Y-69325393D01*
X93410671Y-69343117D01*
X93424921Y-69362330D01*
X93437218Y-69382847D01*
X93447446Y-69404471D01*
X93455504Y-69426993D01*
X93461316Y-69450197D01*
X93464826Y-69473858D01*
X93466000Y-69497750D01*
X93466000Y-70410250D01*
X93464826Y-70434142D01*
X93461316Y-70457803D01*
X93455504Y-70481007D01*
X93447446Y-70503529D01*
X93437218Y-70525153D01*
X93424921Y-70545670D01*
X93410671Y-70564883D01*
X93394607Y-70582607D01*
X93376883Y-70598671D01*
X93357670Y-70612921D01*
X93337153Y-70625218D01*
X93315529Y-70635446D01*
X93293007Y-70643504D01*
X93269803Y-70649316D01*
X93246142Y-70652826D01*
X93222250Y-70654000D01*
X92734750Y-70654000D01*
X92710858Y-70652826D01*
X92687197Y-70649316D01*
X92663993Y-70643504D01*
X92641471Y-70635446D01*
X92619847Y-70625218D01*
X92599330Y-70612921D01*
X92580117Y-70598671D01*
X92562393Y-70582607D01*
X92546329Y-70564883D01*
X92532079Y-70545670D01*
X92519782Y-70525153D01*
X92509554Y-70503529D01*
X92501496Y-70481007D01*
X92495684Y-70457803D01*
X92492174Y-70434142D01*
X92491000Y-70410250D01*
X92491000Y-69497750D01*
X92492174Y-69473858D01*
X92495684Y-69450197D01*
X92501496Y-69426993D01*
X92509554Y-69404471D01*
X92519782Y-69382847D01*
X92532079Y-69362330D01*
X92546329Y-69343117D01*
X92562393Y-69325393D01*
X92580117Y-69309329D01*
X92599330Y-69295079D01*
X92619847Y-69282782D01*
X92641471Y-69272554D01*
X92663993Y-69264496D01*
X92687197Y-69258684D01*
X92710858Y-69255174D01*
X92734750Y-69254000D01*
X93222250Y-69254000D01*
X93246142Y-69255174D01*
G37*
G36*
X95121142Y-69255174D02*
G01*
X95144803Y-69258684D01*
X95168007Y-69264496D01*
X95190529Y-69272554D01*
X95212153Y-69282782D01*
X95232670Y-69295079D01*
X95251883Y-69309329D01*
X95269607Y-69325393D01*
X95285671Y-69343117D01*
X95299921Y-69362330D01*
X95312218Y-69382847D01*
X95322446Y-69404471D01*
X95330504Y-69426993D01*
X95336316Y-69450197D01*
X95339826Y-69473858D01*
X95341000Y-69497750D01*
X95341000Y-70410250D01*
X95339826Y-70434142D01*
X95336316Y-70457803D01*
X95330504Y-70481007D01*
X95322446Y-70503529D01*
X95312218Y-70525153D01*
X95299921Y-70545670D01*
X95285671Y-70564883D01*
X95269607Y-70582607D01*
X95251883Y-70598671D01*
X95232670Y-70612921D01*
X95212153Y-70625218D01*
X95190529Y-70635446D01*
X95168007Y-70643504D01*
X95144803Y-70649316D01*
X95121142Y-70652826D01*
X95097250Y-70654000D01*
X94609750Y-70654000D01*
X94585858Y-70652826D01*
X94562197Y-70649316D01*
X94538993Y-70643504D01*
X94516471Y-70635446D01*
X94494847Y-70625218D01*
X94474330Y-70612921D01*
X94455117Y-70598671D01*
X94437393Y-70582607D01*
X94421329Y-70564883D01*
X94407079Y-70545670D01*
X94394782Y-70525153D01*
X94384554Y-70503529D01*
X94376496Y-70481007D01*
X94370684Y-70457803D01*
X94367174Y-70434142D01*
X94366000Y-70410250D01*
X94366000Y-69497750D01*
X94367174Y-69473858D01*
X94370684Y-69450197D01*
X94376496Y-69426993D01*
X94384554Y-69404471D01*
X94394782Y-69382847D01*
X94407079Y-69362330D01*
X94421329Y-69343117D01*
X94437393Y-69325393D01*
X94455117Y-69309329D01*
X94474330Y-69295079D01*
X94494847Y-69282782D01*
X94516471Y-69272554D01*
X94538993Y-69264496D01*
X94562197Y-69258684D01*
X94585858Y-69255174D01*
X94609750Y-69254000D01*
X95097250Y-69254000D01*
X95121142Y-69255174D01*
G37*
G36*
X110361142Y-67985174D02*
G01*
X110384803Y-67988684D01*
X110408007Y-67994496D01*
X110430529Y-68002554D01*
X110452153Y-68012782D01*
X110472670Y-68025079D01*
X110491883Y-68039329D01*
X110509607Y-68055393D01*
X110525671Y-68073117D01*
X110539921Y-68092330D01*
X110552218Y-68112847D01*
X110562446Y-68134471D01*
X110570504Y-68156993D01*
X110576316Y-68180197D01*
X110579826Y-68203858D01*
X110581000Y-68227750D01*
X110581000Y-69140250D01*
X110579826Y-69164142D01*
X110576316Y-69187803D01*
X110570504Y-69211007D01*
X110562446Y-69233529D01*
X110552218Y-69255153D01*
X110539921Y-69275670D01*
X110525671Y-69294883D01*
X110509607Y-69312607D01*
X110491883Y-69328671D01*
X110472670Y-69342921D01*
X110452153Y-69355218D01*
X110430529Y-69365446D01*
X110408007Y-69373504D01*
X110384803Y-69379316D01*
X110361142Y-69382826D01*
X110337250Y-69384000D01*
X109849750Y-69384000D01*
X109825858Y-69382826D01*
X109802197Y-69379316D01*
X109778993Y-69373504D01*
X109756471Y-69365446D01*
X109734847Y-69355218D01*
X109714330Y-69342921D01*
X109695117Y-69328671D01*
X109677393Y-69312607D01*
X109661329Y-69294883D01*
X109647079Y-69275670D01*
X109634782Y-69255153D01*
X109624554Y-69233529D01*
X109616496Y-69211007D01*
X109610684Y-69187803D01*
X109607174Y-69164142D01*
X109606000Y-69140250D01*
X109606000Y-68227750D01*
X109607174Y-68203858D01*
X109610684Y-68180197D01*
X109616496Y-68156993D01*
X109624554Y-68134471D01*
X109634782Y-68112847D01*
X109647079Y-68092330D01*
X109661329Y-68073117D01*
X109677393Y-68055393D01*
X109695117Y-68039329D01*
X109714330Y-68025079D01*
X109734847Y-68012782D01*
X109756471Y-68002554D01*
X109778993Y-67994496D01*
X109802197Y-67988684D01*
X109825858Y-67985174D01*
X109849750Y-67984000D01*
X110337250Y-67984000D01*
X110361142Y-67985174D01*
G37*
G36*
X108486142Y-67985174D02*
G01*
X108509803Y-67988684D01*
X108533007Y-67994496D01*
X108555529Y-68002554D01*
X108577153Y-68012782D01*
X108597670Y-68025079D01*
X108616883Y-68039329D01*
X108634607Y-68055393D01*
X108650671Y-68073117D01*
X108664921Y-68092330D01*
X108677218Y-68112847D01*
X108687446Y-68134471D01*
X108695504Y-68156993D01*
X108701316Y-68180197D01*
X108704826Y-68203858D01*
X108706000Y-68227750D01*
X108706000Y-69140250D01*
X108704826Y-69164142D01*
X108701316Y-69187803D01*
X108695504Y-69211007D01*
X108687446Y-69233529D01*
X108677218Y-69255153D01*
X108664921Y-69275670D01*
X108650671Y-69294883D01*
X108634607Y-69312607D01*
X108616883Y-69328671D01*
X108597670Y-69342921D01*
X108577153Y-69355218D01*
X108555529Y-69365446D01*
X108533007Y-69373504D01*
X108509803Y-69379316D01*
X108486142Y-69382826D01*
X108462250Y-69384000D01*
X107974750Y-69384000D01*
X107950858Y-69382826D01*
X107927197Y-69379316D01*
X107903993Y-69373504D01*
X107881471Y-69365446D01*
X107859847Y-69355218D01*
X107839330Y-69342921D01*
X107820117Y-69328671D01*
X107802393Y-69312607D01*
X107786329Y-69294883D01*
X107772079Y-69275670D01*
X107759782Y-69255153D01*
X107749554Y-69233529D01*
X107741496Y-69211007D01*
X107735684Y-69187803D01*
X107732174Y-69164142D01*
X107731000Y-69140250D01*
X107731000Y-68227750D01*
X107732174Y-68203858D01*
X107735684Y-68180197D01*
X107741496Y-68156993D01*
X107749554Y-68134471D01*
X107759782Y-68112847D01*
X107772079Y-68092330D01*
X107786329Y-68073117D01*
X107802393Y-68055393D01*
X107820117Y-68039329D01*
X107839330Y-68025079D01*
X107859847Y-68012782D01*
X107881471Y-68002554D01*
X107903993Y-67994496D01*
X107927197Y-67988684D01*
X107950858Y-67985174D01*
X107974750Y-67984000D01*
X108462250Y-67984000D01*
X108486142Y-67985174D01*
G37*
G36*
X42857142Y-81966174D02*
G01*
X42880803Y-81969684D01*
X42904007Y-81975496D01*
X42926529Y-81983554D01*
X42948153Y-81993782D01*
X42968670Y-82006079D01*
X42987883Y-82020329D01*
X43005607Y-82036393D01*
X43021671Y-82054117D01*
X43035921Y-82073330D01*
X43048218Y-82093847D01*
X43058446Y-82115471D01*
X43066504Y-82137993D01*
X43072316Y-82161197D01*
X43075826Y-82184858D01*
X43077000Y-82208750D01*
X43077000Y-83121250D01*
X43075826Y-83145142D01*
X43072316Y-83168803D01*
X43066504Y-83192007D01*
X43058446Y-83214529D01*
X43048218Y-83236153D01*
X43035921Y-83256670D01*
X43021671Y-83275883D01*
X43005607Y-83293607D01*
X42987883Y-83309671D01*
X42968670Y-83323921D01*
X42948153Y-83336218D01*
X42926529Y-83346446D01*
X42904007Y-83354504D01*
X42880803Y-83360316D01*
X42857142Y-83363826D01*
X42833250Y-83365000D01*
X42345750Y-83365000D01*
X42321858Y-83363826D01*
X42298197Y-83360316D01*
X42274993Y-83354504D01*
X42252471Y-83346446D01*
X42230847Y-83336218D01*
X42210330Y-83323921D01*
X42191117Y-83309671D01*
X42173393Y-83293607D01*
X42157329Y-83275883D01*
X42143079Y-83256670D01*
X42130782Y-83236153D01*
X42120554Y-83214529D01*
X42112496Y-83192007D01*
X42106684Y-83168803D01*
X42103174Y-83145142D01*
X42102000Y-83121250D01*
X42102000Y-82208750D01*
X42103174Y-82184858D01*
X42106684Y-82161197D01*
X42112496Y-82137993D01*
X42120554Y-82115471D01*
X42130782Y-82093847D01*
X42143079Y-82073330D01*
X42157329Y-82054117D01*
X42173393Y-82036393D01*
X42191117Y-82020329D01*
X42210330Y-82006079D01*
X42230847Y-81993782D01*
X42252471Y-81983554D01*
X42274993Y-81975496D01*
X42298197Y-81969684D01*
X42321858Y-81966174D01*
X42345750Y-81965000D01*
X42833250Y-81965000D01*
X42857142Y-81966174D01*
G37*
G36*
X40982142Y-81966174D02*
G01*
X41005803Y-81969684D01*
X41029007Y-81975496D01*
X41051529Y-81983554D01*
X41073153Y-81993782D01*
X41093670Y-82006079D01*
X41112883Y-82020329D01*
X41130607Y-82036393D01*
X41146671Y-82054117D01*
X41160921Y-82073330D01*
X41173218Y-82093847D01*
X41183446Y-82115471D01*
X41191504Y-82137993D01*
X41197316Y-82161197D01*
X41200826Y-82184858D01*
X41202000Y-82208750D01*
X41202000Y-83121250D01*
X41200826Y-83145142D01*
X41197316Y-83168803D01*
X41191504Y-83192007D01*
X41183446Y-83214529D01*
X41173218Y-83236153D01*
X41160921Y-83256670D01*
X41146671Y-83275883D01*
X41130607Y-83293607D01*
X41112883Y-83309671D01*
X41093670Y-83323921D01*
X41073153Y-83336218D01*
X41051529Y-83346446D01*
X41029007Y-83354504D01*
X41005803Y-83360316D01*
X40982142Y-83363826D01*
X40958250Y-83365000D01*
X40470750Y-83365000D01*
X40446858Y-83363826D01*
X40423197Y-83360316D01*
X40399993Y-83354504D01*
X40377471Y-83346446D01*
X40355847Y-83336218D01*
X40335330Y-83323921D01*
X40316117Y-83309671D01*
X40298393Y-83293607D01*
X40282329Y-83275883D01*
X40268079Y-83256670D01*
X40255782Y-83236153D01*
X40245554Y-83214529D01*
X40237496Y-83192007D01*
X40231684Y-83168803D01*
X40228174Y-83145142D01*
X40227000Y-83121250D01*
X40227000Y-82208750D01*
X40228174Y-82184858D01*
X40231684Y-82161197D01*
X40237496Y-82137993D01*
X40245554Y-82115471D01*
X40255782Y-82093847D01*
X40268079Y-82073330D01*
X40282329Y-82054117D01*
X40298393Y-82036393D01*
X40316117Y-82020329D01*
X40335330Y-82006079D01*
X40355847Y-81993782D01*
X40377471Y-81983554D01*
X40399993Y-81975496D01*
X40423197Y-81969684D01*
X40446858Y-81966174D01*
X40470750Y-81965000D01*
X40958250Y-81965000D01*
X40982142Y-81966174D01*
G37*
G36*
X56222142Y-80696174D02*
G01*
X56245803Y-80699684D01*
X56269007Y-80705496D01*
X56291529Y-80713554D01*
X56313153Y-80723782D01*
X56333670Y-80736079D01*
X56352883Y-80750329D01*
X56370607Y-80766393D01*
X56386671Y-80784117D01*
X56400921Y-80803330D01*
X56413218Y-80823847D01*
X56423446Y-80845471D01*
X56431504Y-80867993D01*
X56437316Y-80891197D01*
X56440826Y-80914858D01*
X56442000Y-80938750D01*
X56442000Y-81851250D01*
X56440826Y-81875142D01*
X56437316Y-81898803D01*
X56431504Y-81922007D01*
X56423446Y-81944529D01*
X56413218Y-81966153D01*
X56400921Y-81986670D01*
X56386671Y-82005883D01*
X56370607Y-82023607D01*
X56352883Y-82039671D01*
X56333670Y-82053921D01*
X56313153Y-82066218D01*
X56291529Y-82076446D01*
X56269007Y-82084504D01*
X56245803Y-82090316D01*
X56222142Y-82093826D01*
X56198250Y-82095000D01*
X55710750Y-82095000D01*
X55686858Y-82093826D01*
X55663197Y-82090316D01*
X55639993Y-82084504D01*
X55617471Y-82076446D01*
X55595847Y-82066218D01*
X55575330Y-82053921D01*
X55556117Y-82039671D01*
X55538393Y-82023607D01*
X55522329Y-82005883D01*
X55508079Y-81986670D01*
X55495782Y-81966153D01*
X55485554Y-81944529D01*
X55477496Y-81922007D01*
X55471684Y-81898803D01*
X55468174Y-81875142D01*
X55467000Y-81851250D01*
X55467000Y-80938750D01*
X55468174Y-80914858D01*
X55471684Y-80891197D01*
X55477496Y-80867993D01*
X55485554Y-80845471D01*
X55495782Y-80823847D01*
X55508079Y-80803330D01*
X55522329Y-80784117D01*
X55538393Y-80766393D01*
X55556117Y-80750329D01*
X55575330Y-80736079D01*
X55595847Y-80723782D01*
X55617471Y-80713554D01*
X55639993Y-80705496D01*
X55663197Y-80699684D01*
X55686858Y-80696174D01*
X55710750Y-80695000D01*
X56198250Y-80695000D01*
X56222142Y-80696174D01*
G37*
G36*
X58097142Y-80696174D02*
G01*
X58120803Y-80699684D01*
X58144007Y-80705496D01*
X58166529Y-80713554D01*
X58188153Y-80723782D01*
X58208670Y-80736079D01*
X58227883Y-80750329D01*
X58245607Y-80766393D01*
X58261671Y-80784117D01*
X58275921Y-80803330D01*
X58288218Y-80823847D01*
X58298446Y-80845471D01*
X58306504Y-80867993D01*
X58312316Y-80891197D01*
X58315826Y-80914858D01*
X58317000Y-80938750D01*
X58317000Y-81851250D01*
X58315826Y-81875142D01*
X58312316Y-81898803D01*
X58306504Y-81922007D01*
X58298446Y-81944529D01*
X58288218Y-81966153D01*
X58275921Y-81986670D01*
X58261671Y-82005883D01*
X58245607Y-82023607D01*
X58227883Y-82039671D01*
X58208670Y-82053921D01*
X58188153Y-82066218D01*
X58166529Y-82076446D01*
X58144007Y-82084504D01*
X58120803Y-82090316D01*
X58097142Y-82093826D01*
X58073250Y-82095000D01*
X57585750Y-82095000D01*
X57561858Y-82093826D01*
X57538197Y-82090316D01*
X57514993Y-82084504D01*
X57492471Y-82076446D01*
X57470847Y-82066218D01*
X57450330Y-82053921D01*
X57431117Y-82039671D01*
X57413393Y-82023607D01*
X57397329Y-82005883D01*
X57383079Y-81986670D01*
X57370782Y-81966153D01*
X57360554Y-81944529D01*
X57352496Y-81922007D01*
X57346684Y-81898803D01*
X57343174Y-81875142D01*
X57342000Y-81851250D01*
X57342000Y-80938750D01*
X57343174Y-80914858D01*
X57346684Y-80891197D01*
X57352496Y-80867993D01*
X57360554Y-80845471D01*
X57370782Y-80823847D01*
X57383079Y-80803330D01*
X57397329Y-80784117D01*
X57413393Y-80766393D01*
X57431117Y-80750329D01*
X57450330Y-80736079D01*
X57470847Y-80723782D01*
X57492471Y-80713554D01*
X57514993Y-80705496D01*
X57538197Y-80699684D01*
X57561858Y-80696174D01*
X57585750Y-80695000D01*
X58073250Y-80695000D01*
X58097142Y-80696174D01*
G37*
G36*
X59912142Y-94546174D02*
G01*
X59935803Y-94549684D01*
X59959007Y-94555496D01*
X59981529Y-94563554D01*
X60003153Y-94573782D01*
X60023670Y-94586079D01*
X60042883Y-94600329D01*
X60060607Y-94616393D01*
X60076671Y-94634117D01*
X60090921Y-94653330D01*
X60103218Y-94673847D01*
X60113446Y-94695471D01*
X60121504Y-94717993D01*
X60127316Y-94741197D01*
X60130826Y-94764858D01*
X60132000Y-94788750D01*
X60132000Y-95276250D01*
X60130826Y-95300142D01*
X60127316Y-95323803D01*
X60121504Y-95347007D01*
X60113446Y-95369529D01*
X60103218Y-95391153D01*
X60090921Y-95411670D01*
X60076671Y-95430883D01*
X60060607Y-95448607D01*
X60042883Y-95464671D01*
X60023670Y-95478921D01*
X60003153Y-95491218D01*
X59981529Y-95501446D01*
X59959007Y-95509504D01*
X59935803Y-95515316D01*
X59912142Y-95518826D01*
X59888250Y-95520000D01*
X58975750Y-95520000D01*
X58951858Y-95518826D01*
X58928197Y-95515316D01*
X58904993Y-95509504D01*
X58882471Y-95501446D01*
X58860847Y-95491218D01*
X58840330Y-95478921D01*
X58821117Y-95464671D01*
X58803393Y-95448607D01*
X58787329Y-95430883D01*
X58773079Y-95411670D01*
X58760782Y-95391153D01*
X58750554Y-95369529D01*
X58742496Y-95347007D01*
X58736684Y-95323803D01*
X58733174Y-95300142D01*
X58732000Y-95276250D01*
X58732000Y-94788750D01*
X58733174Y-94764858D01*
X58736684Y-94741197D01*
X58742496Y-94717993D01*
X58750554Y-94695471D01*
X58760782Y-94673847D01*
X58773079Y-94653330D01*
X58787329Y-94634117D01*
X58803393Y-94616393D01*
X58821117Y-94600329D01*
X58840330Y-94586079D01*
X58860847Y-94573782D01*
X58882471Y-94563554D01*
X58904993Y-94555496D01*
X58928197Y-94549684D01*
X58951858Y-94546174D01*
X58975750Y-94545000D01*
X59888250Y-94545000D01*
X59912142Y-94546174D01*
G37*
G36*
X59912142Y-92671174D02*
G01*
X59935803Y-92674684D01*
X59959007Y-92680496D01*
X59981529Y-92688554D01*
X60003153Y-92698782D01*
X60023670Y-92711079D01*
X60042883Y-92725329D01*
X60060607Y-92741393D01*
X60076671Y-92759117D01*
X60090921Y-92778330D01*
X60103218Y-92798847D01*
X60113446Y-92820471D01*
X60121504Y-92842993D01*
X60127316Y-92866197D01*
X60130826Y-92889858D01*
X60132000Y-92913750D01*
X60132000Y-93401250D01*
X60130826Y-93425142D01*
X60127316Y-93448803D01*
X60121504Y-93472007D01*
X60113446Y-93494529D01*
X60103218Y-93516153D01*
X60090921Y-93536670D01*
X60076671Y-93555883D01*
X60060607Y-93573607D01*
X60042883Y-93589671D01*
X60023670Y-93603921D01*
X60003153Y-93616218D01*
X59981529Y-93626446D01*
X59959007Y-93634504D01*
X59935803Y-93640316D01*
X59912142Y-93643826D01*
X59888250Y-93645000D01*
X58975750Y-93645000D01*
X58951858Y-93643826D01*
X58928197Y-93640316D01*
X58904993Y-93634504D01*
X58882471Y-93626446D01*
X58860847Y-93616218D01*
X58840330Y-93603921D01*
X58821117Y-93589671D01*
X58803393Y-93573607D01*
X58787329Y-93555883D01*
X58773079Y-93536670D01*
X58760782Y-93516153D01*
X58750554Y-93494529D01*
X58742496Y-93472007D01*
X58736684Y-93448803D01*
X58733174Y-93425142D01*
X58732000Y-93401250D01*
X58732000Y-92913750D01*
X58733174Y-92889858D01*
X58736684Y-92866197D01*
X58742496Y-92842993D01*
X58750554Y-92820471D01*
X58760782Y-92798847D01*
X58773079Y-92778330D01*
X58787329Y-92759117D01*
X58803393Y-92741393D01*
X58821117Y-92725329D01*
X58840330Y-92711079D01*
X58860847Y-92698782D01*
X58882471Y-92688554D01*
X58904993Y-92680496D01*
X58928197Y-92674684D01*
X58951858Y-92671174D01*
X58975750Y-92670000D01*
X59888250Y-92670000D01*
X59912142Y-92671174D01*
G37*
G36*
X43402142Y-86926174D02*
G01*
X43425803Y-86929684D01*
X43449007Y-86935496D01*
X43471529Y-86943554D01*
X43493153Y-86953782D01*
X43513670Y-86966079D01*
X43532883Y-86980329D01*
X43550607Y-86996393D01*
X43566671Y-87014117D01*
X43580921Y-87033330D01*
X43593218Y-87053847D01*
X43603446Y-87075471D01*
X43611504Y-87097993D01*
X43617316Y-87121197D01*
X43620826Y-87144858D01*
X43622000Y-87168750D01*
X43622000Y-87656250D01*
X43620826Y-87680142D01*
X43617316Y-87703803D01*
X43611504Y-87727007D01*
X43603446Y-87749529D01*
X43593218Y-87771153D01*
X43580921Y-87791670D01*
X43566671Y-87810883D01*
X43550607Y-87828607D01*
X43532883Y-87844671D01*
X43513670Y-87858921D01*
X43493153Y-87871218D01*
X43471529Y-87881446D01*
X43449007Y-87889504D01*
X43425803Y-87895316D01*
X43402142Y-87898826D01*
X43378250Y-87900000D01*
X42465750Y-87900000D01*
X42441858Y-87898826D01*
X42418197Y-87895316D01*
X42394993Y-87889504D01*
X42372471Y-87881446D01*
X42350847Y-87871218D01*
X42330330Y-87858921D01*
X42311117Y-87844671D01*
X42293393Y-87828607D01*
X42277329Y-87810883D01*
X42263079Y-87791670D01*
X42250782Y-87771153D01*
X42240554Y-87749529D01*
X42232496Y-87727007D01*
X42226684Y-87703803D01*
X42223174Y-87680142D01*
X42222000Y-87656250D01*
X42222000Y-87168750D01*
X42223174Y-87144858D01*
X42226684Y-87121197D01*
X42232496Y-87097993D01*
X42240554Y-87075471D01*
X42250782Y-87053847D01*
X42263079Y-87033330D01*
X42277329Y-87014117D01*
X42293393Y-86996393D01*
X42311117Y-86980329D01*
X42330330Y-86966079D01*
X42350847Y-86953782D01*
X42372471Y-86943554D01*
X42394993Y-86935496D01*
X42418197Y-86929684D01*
X42441858Y-86926174D01*
X42465750Y-86925000D01*
X43378250Y-86925000D01*
X43402142Y-86926174D01*
G37*
G36*
X43402142Y-85051174D02*
G01*
X43425803Y-85054684D01*
X43449007Y-85060496D01*
X43471529Y-85068554D01*
X43493153Y-85078782D01*
X43513670Y-85091079D01*
X43532883Y-85105329D01*
X43550607Y-85121393D01*
X43566671Y-85139117D01*
X43580921Y-85158330D01*
X43593218Y-85178847D01*
X43603446Y-85200471D01*
X43611504Y-85222993D01*
X43617316Y-85246197D01*
X43620826Y-85269858D01*
X43622000Y-85293750D01*
X43622000Y-85781250D01*
X43620826Y-85805142D01*
X43617316Y-85828803D01*
X43611504Y-85852007D01*
X43603446Y-85874529D01*
X43593218Y-85896153D01*
X43580921Y-85916670D01*
X43566671Y-85935883D01*
X43550607Y-85953607D01*
X43532883Y-85969671D01*
X43513670Y-85983921D01*
X43493153Y-85996218D01*
X43471529Y-86006446D01*
X43449007Y-86014504D01*
X43425803Y-86020316D01*
X43402142Y-86023826D01*
X43378250Y-86025000D01*
X42465750Y-86025000D01*
X42441858Y-86023826D01*
X42418197Y-86020316D01*
X42394993Y-86014504D01*
X42372471Y-86006446D01*
X42350847Y-85996218D01*
X42330330Y-85983921D01*
X42311117Y-85969671D01*
X42293393Y-85953607D01*
X42277329Y-85935883D01*
X42263079Y-85916670D01*
X42250782Y-85896153D01*
X42240554Y-85874529D01*
X42232496Y-85852007D01*
X42226684Y-85828803D01*
X42223174Y-85805142D01*
X42222000Y-85781250D01*
X42222000Y-85293750D01*
X42223174Y-85269858D01*
X42226684Y-85246197D01*
X42232496Y-85222993D01*
X42240554Y-85200471D01*
X42250782Y-85178847D01*
X42263079Y-85158330D01*
X42277329Y-85139117D01*
X42293393Y-85121393D01*
X42311117Y-85105329D01*
X42330330Y-85091079D01*
X42350847Y-85078782D01*
X42372471Y-85068554D01*
X42394993Y-85060496D01*
X42418197Y-85054684D01*
X42441858Y-85051174D01*
X42465750Y-85050000D01*
X43378250Y-85050000D01*
X43402142Y-85051174D01*
G37*
G36*
X66128142Y-63170174D02*
G01*
X66151803Y-63173684D01*
X66175007Y-63179496D01*
X66197529Y-63187554D01*
X66219153Y-63197782D01*
X66239670Y-63210079D01*
X66258883Y-63224329D01*
X66276607Y-63240393D01*
X66292671Y-63258117D01*
X66306921Y-63277330D01*
X66319218Y-63297847D01*
X66329446Y-63319471D01*
X66337504Y-63341993D01*
X66343316Y-63365197D01*
X66346826Y-63388858D01*
X66348000Y-63412750D01*
X66348000Y-64325250D01*
X66346826Y-64349142D01*
X66343316Y-64372803D01*
X66337504Y-64396007D01*
X66329446Y-64418529D01*
X66319218Y-64440153D01*
X66306921Y-64460670D01*
X66292671Y-64479883D01*
X66276607Y-64497607D01*
X66258883Y-64513671D01*
X66239670Y-64527921D01*
X66219153Y-64540218D01*
X66197529Y-64550446D01*
X66175007Y-64558504D01*
X66151803Y-64564316D01*
X66128142Y-64567826D01*
X66104250Y-64569000D01*
X65616750Y-64569000D01*
X65592858Y-64567826D01*
X65569197Y-64564316D01*
X65545993Y-64558504D01*
X65523471Y-64550446D01*
X65501847Y-64540218D01*
X65481330Y-64527921D01*
X65462117Y-64513671D01*
X65444393Y-64497607D01*
X65428329Y-64479883D01*
X65414079Y-64460670D01*
X65401782Y-64440153D01*
X65391554Y-64418529D01*
X65383496Y-64396007D01*
X65377684Y-64372803D01*
X65374174Y-64349142D01*
X65373000Y-64325250D01*
X65373000Y-63412750D01*
X65374174Y-63388858D01*
X65377684Y-63365197D01*
X65383496Y-63341993D01*
X65391554Y-63319471D01*
X65401782Y-63297847D01*
X65414079Y-63277330D01*
X65428329Y-63258117D01*
X65444393Y-63240393D01*
X65462117Y-63224329D01*
X65481330Y-63210079D01*
X65501847Y-63197782D01*
X65523471Y-63187554D01*
X65545993Y-63179496D01*
X65569197Y-63173684D01*
X65592858Y-63170174D01*
X65616750Y-63169000D01*
X66104250Y-63169000D01*
X66128142Y-63170174D01*
G37*
G36*
X68003142Y-63170174D02*
G01*
X68026803Y-63173684D01*
X68050007Y-63179496D01*
X68072529Y-63187554D01*
X68094153Y-63197782D01*
X68114670Y-63210079D01*
X68133883Y-63224329D01*
X68151607Y-63240393D01*
X68167671Y-63258117D01*
X68181921Y-63277330D01*
X68194218Y-63297847D01*
X68204446Y-63319471D01*
X68212504Y-63341993D01*
X68218316Y-63365197D01*
X68221826Y-63388858D01*
X68223000Y-63412750D01*
X68223000Y-64325250D01*
X68221826Y-64349142D01*
X68218316Y-64372803D01*
X68212504Y-64396007D01*
X68204446Y-64418529D01*
X68194218Y-64440153D01*
X68181921Y-64460670D01*
X68167671Y-64479883D01*
X68151607Y-64497607D01*
X68133883Y-64513671D01*
X68114670Y-64527921D01*
X68094153Y-64540218D01*
X68072529Y-64550446D01*
X68050007Y-64558504D01*
X68026803Y-64564316D01*
X68003142Y-64567826D01*
X67979250Y-64569000D01*
X67491750Y-64569000D01*
X67467858Y-64567826D01*
X67444197Y-64564316D01*
X67420993Y-64558504D01*
X67398471Y-64550446D01*
X67376847Y-64540218D01*
X67356330Y-64527921D01*
X67337117Y-64513671D01*
X67319393Y-64497607D01*
X67303329Y-64479883D01*
X67289079Y-64460670D01*
X67276782Y-64440153D01*
X67266554Y-64418529D01*
X67258496Y-64396007D01*
X67252684Y-64372803D01*
X67249174Y-64349142D01*
X67248000Y-64325250D01*
X67248000Y-63412750D01*
X67249174Y-63388858D01*
X67252684Y-63365197D01*
X67258496Y-63341993D01*
X67266554Y-63319471D01*
X67276782Y-63297847D01*
X67289079Y-63277330D01*
X67303329Y-63258117D01*
X67319393Y-63240393D01*
X67337117Y-63224329D01*
X67356330Y-63210079D01*
X67376847Y-63197782D01*
X67398471Y-63187554D01*
X67420993Y-63179496D01*
X67444197Y-63173684D01*
X67467858Y-63170174D01*
X67491750Y-63169000D01*
X67979250Y-63169000D01*
X68003142Y-63170174D01*
G37*
G36*
X42857142Y-75616174D02*
G01*
X42880803Y-75619684D01*
X42904007Y-75625496D01*
X42926529Y-75633554D01*
X42948153Y-75643782D01*
X42968670Y-75656079D01*
X42987883Y-75670329D01*
X43005607Y-75686393D01*
X43021671Y-75704117D01*
X43035921Y-75723330D01*
X43048218Y-75743847D01*
X43058446Y-75765471D01*
X43066504Y-75787993D01*
X43072316Y-75811197D01*
X43075826Y-75834858D01*
X43077000Y-75858750D01*
X43077000Y-76771250D01*
X43075826Y-76795142D01*
X43072316Y-76818803D01*
X43066504Y-76842007D01*
X43058446Y-76864529D01*
X43048218Y-76886153D01*
X43035921Y-76906670D01*
X43021671Y-76925883D01*
X43005607Y-76943607D01*
X42987883Y-76959671D01*
X42968670Y-76973921D01*
X42948153Y-76986218D01*
X42926529Y-76996446D01*
X42904007Y-77004504D01*
X42880803Y-77010316D01*
X42857142Y-77013826D01*
X42833250Y-77015000D01*
X42345750Y-77015000D01*
X42321858Y-77013826D01*
X42298197Y-77010316D01*
X42274993Y-77004504D01*
X42252471Y-76996446D01*
X42230847Y-76986218D01*
X42210330Y-76973921D01*
X42191117Y-76959671D01*
X42173393Y-76943607D01*
X42157329Y-76925883D01*
X42143079Y-76906670D01*
X42130782Y-76886153D01*
X42120554Y-76864529D01*
X42112496Y-76842007D01*
X42106684Y-76818803D01*
X42103174Y-76795142D01*
X42102000Y-76771250D01*
X42102000Y-75858750D01*
X42103174Y-75834858D01*
X42106684Y-75811197D01*
X42112496Y-75787993D01*
X42120554Y-75765471D01*
X42130782Y-75743847D01*
X42143079Y-75723330D01*
X42157329Y-75704117D01*
X42173393Y-75686393D01*
X42191117Y-75670329D01*
X42210330Y-75656079D01*
X42230847Y-75643782D01*
X42252471Y-75633554D01*
X42274993Y-75625496D01*
X42298197Y-75619684D01*
X42321858Y-75616174D01*
X42345750Y-75615000D01*
X42833250Y-75615000D01*
X42857142Y-75616174D01*
G37*
G36*
X40982142Y-75616174D02*
G01*
X41005803Y-75619684D01*
X41029007Y-75625496D01*
X41051529Y-75633554D01*
X41073153Y-75643782D01*
X41093670Y-75656079D01*
X41112883Y-75670329D01*
X41130607Y-75686393D01*
X41146671Y-75704117D01*
X41160921Y-75723330D01*
X41173218Y-75743847D01*
X41183446Y-75765471D01*
X41191504Y-75787993D01*
X41197316Y-75811197D01*
X41200826Y-75834858D01*
X41202000Y-75858750D01*
X41202000Y-76771250D01*
X41200826Y-76795142D01*
X41197316Y-76818803D01*
X41191504Y-76842007D01*
X41183446Y-76864529D01*
X41173218Y-76886153D01*
X41160921Y-76906670D01*
X41146671Y-76925883D01*
X41130607Y-76943607D01*
X41112883Y-76959671D01*
X41093670Y-76973921D01*
X41073153Y-76986218D01*
X41051529Y-76996446D01*
X41029007Y-77004504D01*
X41005803Y-77010316D01*
X40982142Y-77013826D01*
X40958250Y-77015000D01*
X40470750Y-77015000D01*
X40446858Y-77013826D01*
X40423197Y-77010316D01*
X40399993Y-77004504D01*
X40377471Y-76996446D01*
X40355847Y-76986218D01*
X40335330Y-76973921D01*
X40316117Y-76959671D01*
X40298393Y-76943607D01*
X40282329Y-76925883D01*
X40268079Y-76906670D01*
X40255782Y-76886153D01*
X40245554Y-76864529D01*
X40237496Y-76842007D01*
X40231684Y-76818803D01*
X40228174Y-76795142D01*
X40227000Y-76771250D01*
X40227000Y-75858750D01*
X40228174Y-75834858D01*
X40231684Y-75811197D01*
X40237496Y-75787993D01*
X40245554Y-75765471D01*
X40255782Y-75743847D01*
X40268079Y-75723330D01*
X40282329Y-75704117D01*
X40298393Y-75686393D01*
X40316117Y-75670329D01*
X40335330Y-75656079D01*
X40355847Y-75643782D01*
X40377471Y-75633554D01*
X40399993Y-75625496D01*
X40423197Y-75619684D01*
X40446858Y-75616174D01*
X40470750Y-75615000D01*
X40958250Y-75615000D01*
X40982142Y-75616174D01*
G37*
G36*
X45397142Y-51486174D02*
G01*
X45420803Y-51489684D01*
X45444007Y-51495496D01*
X45466529Y-51503554D01*
X45488153Y-51513782D01*
X45508670Y-51526079D01*
X45527883Y-51540329D01*
X45545607Y-51556393D01*
X45561671Y-51574117D01*
X45575921Y-51593330D01*
X45588218Y-51613847D01*
X45598446Y-51635471D01*
X45606504Y-51657993D01*
X45612316Y-51681197D01*
X45615826Y-51704858D01*
X45617000Y-51728750D01*
X45617000Y-52641250D01*
X45615826Y-52665142D01*
X45612316Y-52688803D01*
X45606504Y-52712007D01*
X45598446Y-52734529D01*
X45588218Y-52756153D01*
X45575921Y-52776670D01*
X45561671Y-52795883D01*
X45545607Y-52813607D01*
X45527883Y-52829671D01*
X45508670Y-52843921D01*
X45488153Y-52856218D01*
X45466529Y-52866446D01*
X45444007Y-52874504D01*
X45420803Y-52880316D01*
X45397142Y-52883826D01*
X45373250Y-52885000D01*
X44885750Y-52885000D01*
X44861858Y-52883826D01*
X44838197Y-52880316D01*
X44814993Y-52874504D01*
X44792471Y-52866446D01*
X44770847Y-52856218D01*
X44750330Y-52843921D01*
X44731117Y-52829671D01*
X44713393Y-52813607D01*
X44697329Y-52795883D01*
X44683079Y-52776670D01*
X44670782Y-52756153D01*
X44660554Y-52734529D01*
X44652496Y-52712007D01*
X44646684Y-52688803D01*
X44643174Y-52665142D01*
X44642000Y-52641250D01*
X44642000Y-51728750D01*
X44643174Y-51704858D01*
X44646684Y-51681197D01*
X44652496Y-51657993D01*
X44660554Y-51635471D01*
X44670782Y-51613847D01*
X44683079Y-51593330D01*
X44697329Y-51574117D01*
X44713393Y-51556393D01*
X44731117Y-51540329D01*
X44750330Y-51526079D01*
X44770847Y-51513782D01*
X44792471Y-51503554D01*
X44814993Y-51495496D01*
X44838197Y-51489684D01*
X44861858Y-51486174D01*
X44885750Y-51485000D01*
X45373250Y-51485000D01*
X45397142Y-51486174D01*
G37*
G36*
X43522142Y-51486174D02*
G01*
X43545803Y-51489684D01*
X43569007Y-51495496D01*
X43591529Y-51503554D01*
X43613153Y-51513782D01*
X43633670Y-51526079D01*
X43652883Y-51540329D01*
X43670607Y-51556393D01*
X43686671Y-51574117D01*
X43700921Y-51593330D01*
X43713218Y-51613847D01*
X43723446Y-51635471D01*
X43731504Y-51657993D01*
X43737316Y-51681197D01*
X43740826Y-51704858D01*
X43742000Y-51728750D01*
X43742000Y-52641250D01*
X43740826Y-52665142D01*
X43737316Y-52688803D01*
X43731504Y-52712007D01*
X43723446Y-52734529D01*
X43713218Y-52756153D01*
X43700921Y-52776670D01*
X43686671Y-52795883D01*
X43670607Y-52813607D01*
X43652883Y-52829671D01*
X43633670Y-52843921D01*
X43613153Y-52856218D01*
X43591529Y-52866446D01*
X43569007Y-52874504D01*
X43545803Y-52880316D01*
X43522142Y-52883826D01*
X43498250Y-52885000D01*
X43010750Y-52885000D01*
X42986858Y-52883826D01*
X42963197Y-52880316D01*
X42939993Y-52874504D01*
X42917471Y-52866446D01*
X42895847Y-52856218D01*
X42875330Y-52843921D01*
X42856117Y-52829671D01*
X42838393Y-52813607D01*
X42822329Y-52795883D01*
X42808079Y-52776670D01*
X42795782Y-52756153D01*
X42785554Y-52734529D01*
X42777496Y-52712007D01*
X42771684Y-52688803D01*
X42768174Y-52665142D01*
X42767000Y-52641250D01*
X42767000Y-51728750D01*
X42768174Y-51704858D01*
X42771684Y-51681197D01*
X42777496Y-51657993D01*
X42785554Y-51635471D01*
X42795782Y-51613847D01*
X42808079Y-51593330D01*
X42822329Y-51574117D01*
X42838393Y-51556393D01*
X42856117Y-51540329D01*
X42875330Y-51526079D01*
X42895847Y-51513782D01*
X42917471Y-51503554D01*
X42939993Y-51495496D01*
X42963197Y-51489684D01*
X42986858Y-51486174D01*
X43010750Y-51485000D01*
X43498250Y-51485000D01*
X43522142Y-51486174D01*
G37*
G36*
X42857142Y-73076174D02*
G01*
X42880803Y-73079684D01*
X42904007Y-73085496D01*
X42926529Y-73093554D01*
X42948153Y-73103782D01*
X42968670Y-73116079D01*
X42987883Y-73130329D01*
X43005607Y-73146393D01*
X43021671Y-73164117D01*
X43035921Y-73183330D01*
X43048218Y-73203847D01*
X43058446Y-73225471D01*
X43066504Y-73247993D01*
X43072316Y-73271197D01*
X43075826Y-73294858D01*
X43077000Y-73318750D01*
X43077000Y-74231250D01*
X43075826Y-74255142D01*
X43072316Y-74278803D01*
X43066504Y-74302007D01*
X43058446Y-74324529D01*
X43048218Y-74346153D01*
X43035921Y-74366670D01*
X43021671Y-74385883D01*
X43005607Y-74403607D01*
X42987883Y-74419671D01*
X42968670Y-74433921D01*
X42948153Y-74446218D01*
X42926529Y-74456446D01*
X42904007Y-74464504D01*
X42880803Y-74470316D01*
X42857142Y-74473826D01*
X42833250Y-74475000D01*
X42345750Y-74475000D01*
X42321858Y-74473826D01*
X42298197Y-74470316D01*
X42274993Y-74464504D01*
X42252471Y-74456446D01*
X42230847Y-74446218D01*
X42210330Y-74433921D01*
X42191117Y-74419671D01*
X42173393Y-74403607D01*
X42157329Y-74385883D01*
X42143079Y-74366670D01*
X42130782Y-74346153D01*
X42120554Y-74324529D01*
X42112496Y-74302007D01*
X42106684Y-74278803D01*
X42103174Y-74255142D01*
X42102000Y-74231250D01*
X42102000Y-73318750D01*
X42103174Y-73294858D01*
X42106684Y-73271197D01*
X42112496Y-73247993D01*
X42120554Y-73225471D01*
X42130782Y-73203847D01*
X42143079Y-73183330D01*
X42157329Y-73164117D01*
X42173393Y-73146393D01*
X42191117Y-73130329D01*
X42210330Y-73116079D01*
X42230847Y-73103782D01*
X42252471Y-73093554D01*
X42274993Y-73085496D01*
X42298197Y-73079684D01*
X42321858Y-73076174D01*
X42345750Y-73075000D01*
X42833250Y-73075000D01*
X42857142Y-73076174D01*
G37*
G36*
X40982142Y-73076174D02*
G01*
X41005803Y-73079684D01*
X41029007Y-73085496D01*
X41051529Y-73093554D01*
X41073153Y-73103782D01*
X41093670Y-73116079D01*
X41112883Y-73130329D01*
X41130607Y-73146393D01*
X41146671Y-73164117D01*
X41160921Y-73183330D01*
X41173218Y-73203847D01*
X41183446Y-73225471D01*
X41191504Y-73247993D01*
X41197316Y-73271197D01*
X41200826Y-73294858D01*
X41202000Y-73318750D01*
X41202000Y-74231250D01*
X41200826Y-74255142D01*
X41197316Y-74278803D01*
X41191504Y-74302007D01*
X41183446Y-74324529D01*
X41173218Y-74346153D01*
X41160921Y-74366670D01*
X41146671Y-74385883D01*
X41130607Y-74403607D01*
X41112883Y-74419671D01*
X41093670Y-74433921D01*
X41073153Y-74446218D01*
X41051529Y-74456446D01*
X41029007Y-74464504D01*
X41005803Y-74470316D01*
X40982142Y-74473826D01*
X40958250Y-74475000D01*
X40470750Y-74475000D01*
X40446858Y-74473826D01*
X40423197Y-74470316D01*
X40399993Y-74464504D01*
X40377471Y-74456446D01*
X40355847Y-74446218D01*
X40335330Y-74433921D01*
X40316117Y-74419671D01*
X40298393Y-74403607D01*
X40282329Y-74385883D01*
X40268079Y-74366670D01*
X40255782Y-74346153D01*
X40245554Y-74324529D01*
X40237496Y-74302007D01*
X40231684Y-74278803D01*
X40228174Y-74255142D01*
X40227000Y-74231250D01*
X40227000Y-73318750D01*
X40228174Y-73294858D01*
X40231684Y-73271197D01*
X40237496Y-73247993D01*
X40245554Y-73225471D01*
X40255782Y-73203847D01*
X40268079Y-73183330D01*
X40282329Y-73164117D01*
X40298393Y-73146393D01*
X40316117Y-73130329D01*
X40335330Y-73116079D01*
X40355847Y-73103782D01*
X40377471Y-73093554D01*
X40399993Y-73085496D01*
X40423197Y-73079684D01*
X40446858Y-73076174D01*
X40470750Y-73075000D01*
X40958250Y-73075000D01*
X40982142Y-73076174D01*
G37*
G36*
X35569642Y-51486174D02*
G01*
X35593303Y-51489684D01*
X35616507Y-51495496D01*
X35639029Y-51503554D01*
X35660653Y-51513782D01*
X35681170Y-51526079D01*
X35700383Y-51540329D01*
X35718107Y-51556393D01*
X35734171Y-51574117D01*
X35748421Y-51593330D01*
X35760718Y-51613847D01*
X35770946Y-51635471D01*
X35779004Y-51657993D01*
X35784816Y-51681197D01*
X35788326Y-51704858D01*
X35789500Y-51728750D01*
X35789500Y-52641250D01*
X35788326Y-52665142D01*
X35784816Y-52688803D01*
X35779004Y-52712007D01*
X35770946Y-52734529D01*
X35760718Y-52756153D01*
X35748421Y-52776670D01*
X35734171Y-52795883D01*
X35718107Y-52813607D01*
X35700383Y-52829671D01*
X35681170Y-52843921D01*
X35660653Y-52856218D01*
X35639029Y-52866446D01*
X35616507Y-52874504D01*
X35593303Y-52880316D01*
X35569642Y-52883826D01*
X35545750Y-52885000D01*
X35058250Y-52885000D01*
X35034358Y-52883826D01*
X35010697Y-52880316D01*
X34987493Y-52874504D01*
X34964971Y-52866446D01*
X34943347Y-52856218D01*
X34922830Y-52843921D01*
X34903617Y-52829671D01*
X34885893Y-52813607D01*
X34869829Y-52795883D01*
X34855579Y-52776670D01*
X34843282Y-52756153D01*
X34833054Y-52734529D01*
X34824996Y-52712007D01*
X34819184Y-52688803D01*
X34815674Y-52665142D01*
X34814500Y-52641250D01*
X34814500Y-51728750D01*
X34815674Y-51704858D01*
X34819184Y-51681197D01*
X34824996Y-51657993D01*
X34833054Y-51635471D01*
X34843282Y-51613847D01*
X34855579Y-51593330D01*
X34869829Y-51574117D01*
X34885893Y-51556393D01*
X34903617Y-51540329D01*
X34922830Y-51526079D01*
X34943347Y-51513782D01*
X34964971Y-51503554D01*
X34987493Y-51495496D01*
X35010697Y-51489684D01*
X35034358Y-51486174D01*
X35058250Y-51485000D01*
X35545750Y-51485000D01*
X35569642Y-51486174D01*
G37*
G36*
X37444642Y-51486174D02*
G01*
X37468303Y-51489684D01*
X37491507Y-51495496D01*
X37514029Y-51503554D01*
X37535653Y-51513782D01*
X37556170Y-51526079D01*
X37575383Y-51540329D01*
X37593107Y-51556393D01*
X37609171Y-51574117D01*
X37623421Y-51593330D01*
X37635718Y-51613847D01*
X37645946Y-51635471D01*
X37654004Y-51657993D01*
X37659816Y-51681197D01*
X37663326Y-51704858D01*
X37664500Y-51728750D01*
X37664500Y-52641250D01*
X37663326Y-52665142D01*
X37659816Y-52688803D01*
X37654004Y-52712007D01*
X37645946Y-52734529D01*
X37635718Y-52756153D01*
X37623421Y-52776670D01*
X37609171Y-52795883D01*
X37593107Y-52813607D01*
X37575383Y-52829671D01*
X37556170Y-52843921D01*
X37535653Y-52856218D01*
X37514029Y-52866446D01*
X37491507Y-52874504D01*
X37468303Y-52880316D01*
X37444642Y-52883826D01*
X37420750Y-52885000D01*
X36933250Y-52885000D01*
X36909358Y-52883826D01*
X36885697Y-52880316D01*
X36862493Y-52874504D01*
X36839971Y-52866446D01*
X36818347Y-52856218D01*
X36797830Y-52843921D01*
X36778617Y-52829671D01*
X36760893Y-52813607D01*
X36744829Y-52795883D01*
X36730579Y-52776670D01*
X36718282Y-52756153D01*
X36708054Y-52734529D01*
X36699996Y-52712007D01*
X36694184Y-52688803D01*
X36690674Y-52665142D01*
X36689500Y-52641250D01*
X36689500Y-51728750D01*
X36690674Y-51704858D01*
X36694184Y-51681197D01*
X36699996Y-51657993D01*
X36708054Y-51635471D01*
X36718282Y-51613847D01*
X36730579Y-51593330D01*
X36744829Y-51574117D01*
X36760893Y-51556393D01*
X36778617Y-51540329D01*
X36797830Y-51526079D01*
X36818347Y-51513782D01*
X36839971Y-51503554D01*
X36862493Y-51495496D01*
X36885697Y-51489684D01*
X36909358Y-51486174D01*
X36933250Y-51485000D01*
X37420750Y-51485000D01*
X37444642Y-51486174D01*
G37*
G36*
X62064142Y-63170174D02*
G01*
X62087803Y-63173684D01*
X62111007Y-63179496D01*
X62133529Y-63187554D01*
X62155153Y-63197782D01*
X62175670Y-63210079D01*
X62194883Y-63224329D01*
X62212607Y-63240393D01*
X62228671Y-63258117D01*
X62242921Y-63277330D01*
X62255218Y-63297847D01*
X62265446Y-63319471D01*
X62273504Y-63341993D01*
X62279316Y-63365197D01*
X62282826Y-63388858D01*
X62284000Y-63412750D01*
X62284000Y-64325250D01*
X62282826Y-64349142D01*
X62279316Y-64372803D01*
X62273504Y-64396007D01*
X62265446Y-64418529D01*
X62255218Y-64440153D01*
X62242921Y-64460670D01*
X62228671Y-64479883D01*
X62212607Y-64497607D01*
X62194883Y-64513671D01*
X62175670Y-64527921D01*
X62155153Y-64540218D01*
X62133529Y-64550446D01*
X62111007Y-64558504D01*
X62087803Y-64564316D01*
X62064142Y-64567826D01*
X62040250Y-64569000D01*
X61552750Y-64569000D01*
X61528858Y-64567826D01*
X61505197Y-64564316D01*
X61481993Y-64558504D01*
X61459471Y-64550446D01*
X61437847Y-64540218D01*
X61417330Y-64527921D01*
X61398117Y-64513671D01*
X61380393Y-64497607D01*
X61364329Y-64479883D01*
X61350079Y-64460670D01*
X61337782Y-64440153D01*
X61327554Y-64418529D01*
X61319496Y-64396007D01*
X61313684Y-64372803D01*
X61310174Y-64349142D01*
X61309000Y-64325250D01*
X61309000Y-63412750D01*
X61310174Y-63388858D01*
X61313684Y-63365197D01*
X61319496Y-63341993D01*
X61327554Y-63319471D01*
X61337782Y-63297847D01*
X61350079Y-63277330D01*
X61364329Y-63258117D01*
X61380393Y-63240393D01*
X61398117Y-63224329D01*
X61417330Y-63210079D01*
X61437847Y-63197782D01*
X61459471Y-63187554D01*
X61481993Y-63179496D01*
X61505197Y-63173684D01*
X61528858Y-63170174D01*
X61552750Y-63169000D01*
X62040250Y-63169000D01*
X62064142Y-63170174D01*
G37*
G36*
X63939142Y-63170174D02*
G01*
X63962803Y-63173684D01*
X63986007Y-63179496D01*
X64008529Y-63187554D01*
X64030153Y-63197782D01*
X64050670Y-63210079D01*
X64069883Y-63224329D01*
X64087607Y-63240393D01*
X64103671Y-63258117D01*
X64117921Y-63277330D01*
X64130218Y-63297847D01*
X64140446Y-63319471D01*
X64148504Y-63341993D01*
X64154316Y-63365197D01*
X64157826Y-63388858D01*
X64159000Y-63412750D01*
X64159000Y-64325250D01*
X64157826Y-64349142D01*
X64154316Y-64372803D01*
X64148504Y-64396007D01*
X64140446Y-64418529D01*
X64130218Y-64440153D01*
X64117921Y-64460670D01*
X64103671Y-64479883D01*
X64087607Y-64497607D01*
X64069883Y-64513671D01*
X64050670Y-64527921D01*
X64030153Y-64540218D01*
X64008529Y-64550446D01*
X63986007Y-64558504D01*
X63962803Y-64564316D01*
X63939142Y-64567826D01*
X63915250Y-64569000D01*
X63427750Y-64569000D01*
X63403858Y-64567826D01*
X63380197Y-64564316D01*
X63356993Y-64558504D01*
X63334471Y-64550446D01*
X63312847Y-64540218D01*
X63292330Y-64527921D01*
X63273117Y-64513671D01*
X63255393Y-64497607D01*
X63239329Y-64479883D01*
X63225079Y-64460670D01*
X63212782Y-64440153D01*
X63202554Y-64418529D01*
X63194496Y-64396007D01*
X63188684Y-64372803D01*
X63185174Y-64349142D01*
X63184000Y-64325250D01*
X63184000Y-63412750D01*
X63185174Y-63388858D01*
X63188684Y-63365197D01*
X63194496Y-63341993D01*
X63202554Y-63319471D01*
X63212782Y-63297847D01*
X63225079Y-63277330D01*
X63239329Y-63258117D01*
X63255393Y-63240393D01*
X63273117Y-63224329D01*
X63292330Y-63210079D01*
X63312847Y-63197782D01*
X63334471Y-63187554D01*
X63356993Y-63179496D01*
X63380197Y-63173684D01*
X63403858Y-63170174D01*
X63427750Y-63169000D01*
X63915250Y-63169000D01*
X63939142Y-63170174D01*
G37*
G36*
X40862142Y-85051174D02*
G01*
X40885803Y-85054684D01*
X40909007Y-85060496D01*
X40931529Y-85068554D01*
X40953153Y-85078782D01*
X40973670Y-85091079D01*
X40992883Y-85105329D01*
X41010607Y-85121393D01*
X41026671Y-85139117D01*
X41040921Y-85158330D01*
X41053218Y-85178847D01*
X41063446Y-85200471D01*
X41071504Y-85222993D01*
X41077316Y-85246197D01*
X41080826Y-85269858D01*
X41082000Y-85293750D01*
X41082000Y-85781250D01*
X41080826Y-85805142D01*
X41077316Y-85828803D01*
X41071504Y-85852007D01*
X41063446Y-85874529D01*
X41053218Y-85896153D01*
X41040921Y-85916670D01*
X41026671Y-85935883D01*
X41010607Y-85953607D01*
X40992883Y-85969671D01*
X40973670Y-85983921D01*
X40953153Y-85996218D01*
X40931529Y-86006446D01*
X40909007Y-86014504D01*
X40885803Y-86020316D01*
X40862142Y-86023826D01*
X40838250Y-86025000D01*
X39925750Y-86025000D01*
X39901858Y-86023826D01*
X39878197Y-86020316D01*
X39854993Y-86014504D01*
X39832471Y-86006446D01*
X39810847Y-85996218D01*
X39790330Y-85983921D01*
X39771117Y-85969671D01*
X39753393Y-85953607D01*
X39737329Y-85935883D01*
X39723079Y-85916670D01*
X39710782Y-85896153D01*
X39700554Y-85874529D01*
X39692496Y-85852007D01*
X39686684Y-85828803D01*
X39683174Y-85805142D01*
X39682000Y-85781250D01*
X39682000Y-85293750D01*
X39683174Y-85269858D01*
X39686684Y-85246197D01*
X39692496Y-85222993D01*
X39700554Y-85200471D01*
X39710782Y-85178847D01*
X39723079Y-85158330D01*
X39737329Y-85139117D01*
X39753393Y-85121393D01*
X39771117Y-85105329D01*
X39790330Y-85091079D01*
X39810847Y-85078782D01*
X39832471Y-85068554D01*
X39854993Y-85060496D01*
X39878197Y-85054684D01*
X39901858Y-85051174D01*
X39925750Y-85050000D01*
X40838250Y-85050000D01*
X40862142Y-85051174D01*
G37*
G36*
X40862142Y-86926174D02*
G01*
X40885803Y-86929684D01*
X40909007Y-86935496D01*
X40931529Y-86943554D01*
X40953153Y-86953782D01*
X40973670Y-86966079D01*
X40992883Y-86980329D01*
X41010607Y-86996393D01*
X41026671Y-87014117D01*
X41040921Y-87033330D01*
X41053218Y-87053847D01*
X41063446Y-87075471D01*
X41071504Y-87097993D01*
X41077316Y-87121197D01*
X41080826Y-87144858D01*
X41082000Y-87168750D01*
X41082000Y-87656250D01*
X41080826Y-87680142D01*
X41077316Y-87703803D01*
X41071504Y-87727007D01*
X41063446Y-87749529D01*
X41053218Y-87771153D01*
X41040921Y-87791670D01*
X41026671Y-87810883D01*
X41010607Y-87828607D01*
X40992883Y-87844671D01*
X40973670Y-87858921D01*
X40953153Y-87871218D01*
X40931529Y-87881446D01*
X40909007Y-87889504D01*
X40885803Y-87895316D01*
X40862142Y-87898826D01*
X40838250Y-87900000D01*
X39925750Y-87900000D01*
X39901858Y-87898826D01*
X39878197Y-87895316D01*
X39854993Y-87889504D01*
X39832471Y-87881446D01*
X39810847Y-87871218D01*
X39790330Y-87858921D01*
X39771117Y-87844671D01*
X39753393Y-87828607D01*
X39737329Y-87810883D01*
X39723079Y-87791670D01*
X39710782Y-87771153D01*
X39700554Y-87749529D01*
X39692496Y-87727007D01*
X39686684Y-87703803D01*
X39683174Y-87680142D01*
X39682000Y-87656250D01*
X39682000Y-87168750D01*
X39683174Y-87144858D01*
X39686684Y-87121197D01*
X39692496Y-87097993D01*
X39700554Y-87075471D01*
X39710782Y-87053847D01*
X39723079Y-87033330D01*
X39737329Y-87014117D01*
X39753393Y-86996393D01*
X39771117Y-86980329D01*
X39790330Y-86966079D01*
X39810847Y-86953782D01*
X39832471Y-86943554D01*
X39854993Y-86935496D01*
X39878197Y-86929684D01*
X39901858Y-86926174D01*
X39925750Y-86925000D01*
X40838250Y-86925000D01*
X40862142Y-86926174D01*
G37*
G36*
X52461504Y-94611204D02*
G01*
X52485773Y-94614804D01*
X52509571Y-94620765D01*
X52532671Y-94629030D01*
X52554849Y-94639520D01*
X52575893Y-94652133D01*
X52595598Y-94666747D01*
X52613777Y-94683223D01*
X52630253Y-94701402D01*
X52644867Y-94721107D01*
X52657480Y-94742151D01*
X52667970Y-94764329D01*
X52676235Y-94787429D01*
X52682196Y-94811227D01*
X52685796Y-94835496D01*
X52687000Y-94860000D01*
X52687000Y-95610000D01*
X52685796Y-95634504D01*
X52682196Y-95658773D01*
X52676235Y-95682571D01*
X52667970Y-95705671D01*
X52657480Y-95727849D01*
X52644867Y-95748893D01*
X52630253Y-95768598D01*
X52613777Y-95786777D01*
X52595598Y-95803253D01*
X52575893Y-95817867D01*
X52554849Y-95830480D01*
X52532671Y-95840970D01*
X52509571Y-95849235D01*
X52485773Y-95855196D01*
X52461504Y-95858796D01*
X52437000Y-95860000D01*
X51187000Y-95860000D01*
X51162496Y-95858796D01*
X51138227Y-95855196D01*
X51114429Y-95849235D01*
X51091329Y-95840970D01*
X51069151Y-95830480D01*
X51048107Y-95817867D01*
X51028402Y-95803253D01*
X51010223Y-95786777D01*
X50993747Y-95768598D01*
X50979133Y-95748893D01*
X50966520Y-95727849D01*
X50956030Y-95705671D01*
X50947765Y-95682571D01*
X50941804Y-95658773D01*
X50938204Y-95634504D01*
X50937000Y-95610000D01*
X50937000Y-94860000D01*
X50938204Y-94835496D01*
X50941804Y-94811227D01*
X50947765Y-94787429D01*
X50956030Y-94764329D01*
X50966520Y-94742151D01*
X50979133Y-94721107D01*
X50993747Y-94701402D01*
X51010223Y-94683223D01*
X51028402Y-94666747D01*
X51048107Y-94652133D01*
X51069151Y-94639520D01*
X51091329Y-94629030D01*
X51114429Y-94620765D01*
X51138227Y-94614804D01*
X51162496Y-94611204D01*
X51187000Y-94610000D01*
X52437000Y-94610000D01*
X52461504Y-94611204D01*
G37*
G36*
X52461504Y-97411204D02*
G01*
X52485773Y-97414804D01*
X52509571Y-97420765D01*
X52532671Y-97429030D01*
X52554849Y-97439520D01*
X52575893Y-97452133D01*
X52595598Y-97466747D01*
X52613777Y-97483223D01*
X52630253Y-97501402D01*
X52644867Y-97521107D01*
X52657480Y-97542151D01*
X52667970Y-97564329D01*
X52676235Y-97587429D01*
X52682196Y-97611227D01*
X52685796Y-97635496D01*
X52687000Y-97660000D01*
X52687000Y-98410000D01*
X52685796Y-98434504D01*
X52682196Y-98458773D01*
X52676235Y-98482571D01*
X52667970Y-98505671D01*
X52657480Y-98527849D01*
X52644867Y-98548893D01*
X52630253Y-98568598D01*
X52613777Y-98586777D01*
X52595598Y-98603253D01*
X52575893Y-98617867D01*
X52554849Y-98630480D01*
X52532671Y-98640970D01*
X52509571Y-98649235D01*
X52485773Y-98655196D01*
X52461504Y-98658796D01*
X52437000Y-98660000D01*
X51187000Y-98660000D01*
X51162496Y-98658796D01*
X51138227Y-98655196D01*
X51114429Y-98649235D01*
X51091329Y-98640970D01*
X51069151Y-98630480D01*
X51048107Y-98617867D01*
X51028402Y-98603253D01*
X51010223Y-98586777D01*
X50993747Y-98568598D01*
X50979133Y-98548893D01*
X50966520Y-98527849D01*
X50956030Y-98505671D01*
X50947765Y-98482571D01*
X50941804Y-98458773D01*
X50938204Y-98434504D01*
X50937000Y-98410000D01*
X50937000Y-97660000D01*
X50938204Y-97635496D01*
X50941804Y-97611227D01*
X50947765Y-97587429D01*
X50956030Y-97564329D01*
X50966520Y-97542151D01*
X50979133Y-97521107D01*
X50993747Y-97501402D01*
X51010223Y-97483223D01*
X51028402Y-97466747D01*
X51048107Y-97452133D01*
X51069151Y-97439520D01*
X51091329Y-97429030D01*
X51114429Y-97420765D01*
X51138227Y-97414804D01*
X51162496Y-97411204D01*
X51187000Y-97410000D01*
X52437000Y-97410000D01*
X52461504Y-97411204D01*
G37*
G36*
X42857142Y-79426174D02*
G01*
X42880803Y-79429684D01*
X42904007Y-79435496D01*
X42926529Y-79443554D01*
X42948153Y-79453782D01*
X42968670Y-79466079D01*
X42987883Y-79480329D01*
X43005607Y-79496393D01*
X43021671Y-79514117D01*
X43035921Y-79533330D01*
X43048218Y-79553847D01*
X43058446Y-79575471D01*
X43066504Y-79597993D01*
X43072316Y-79621197D01*
X43075826Y-79644858D01*
X43077000Y-79668750D01*
X43077000Y-80581250D01*
X43075826Y-80605142D01*
X43072316Y-80628803D01*
X43066504Y-80652007D01*
X43058446Y-80674529D01*
X43048218Y-80696153D01*
X43035921Y-80716670D01*
X43021671Y-80735883D01*
X43005607Y-80753607D01*
X42987883Y-80769671D01*
X42968670Y-80783921D01*
X42948153Y-80796218D01*
X42926529Y-80806446D01*
X42904007Y-80814504D01*
X42880803Y-80820316D01*
X42857142Y-80823826D01*
X42833250Y-80825000D01*
X42345750Y-80825000D01*
X42321858Y-80823826D01*
X42298197Y-80820316D01*
X42274993Y-80814504D01*
X42252471Y-80806446D01*
X42230847Y-80796218D01*
X42210330Y-80783921D01*
X42191117Y-80769671D01*
X42173393Y-80753607D01*
X42157329Y-80735883D01*
X42143079Y-80716670D01*
X42130782Y-80696153D01*
X42120554Y-80674529D01*
X42112496Y-80652007D01*
X42106684Y-80628803D01*
X42103174Y-80605142D01*
X42102000Y-80581250D01*
X42102000Y-79668750D01*
X42103174Y-79644858D01*
X42106684Y-79621197D01*
X42112496Y-79597993D01*
X42120554Y-79575471D01*
X42130782Y-79553847D01*
X42143079Y-79533330D01*
X42157329Y-79514117D01*
X42173393Y-79496393D01*
X42191117Y-79480329D01*
X42210330Y-79466079D01*
X42230847Y-79453782D01*
X42252471Y-79443554D01*
X42274993Y-79435496D01*
X42298197Y-79429684D01*
X42321858Y-79426174D01*
X42345750Y-79425000D01*
X42833250Y-79425000D01*
X42857142Y-79426174D01*
G37*
G36*
X40982142Y-79426174D02*
G01*
X41005803Y-79429684D01*
X41029007Y-79435496D01*
X41051529Y-79443554D01*
X41073153Y-79453782D01*
X41093670Y-79466079D01*
X41112883Y-79480329D01*
X41130607Y-79496393D01*
X41146671Y-79514117D01*
X41160921Y-79533330D01*
X41173218Y-79553847D01*
X41183446Y-79575471D01*
X41191504Y-79597993D01*
X41197316Y-79621197D01*
X41200826Y-79644858D01*
X41202000Y-79668750D01*
X41202000Y-80581250D01*
X41200826Y-80605142D01*
X41197316Y-80628803D01*
X41191504Y-80652007D01*
X41183446Y-80674529D01*
X41173218Y-80696153D01*
X41160921Y-80716670D01*
X41146671Y-80735883D01*
X41130607Y-80753607D01*
X41112883Y-80769671D01*
X41093670Y-80783921D01*
X41073153Y-80796218D01*
X41051529Y-80806446D01*
X41029007Y-80814504D01*
X41005803Y-80820316D01*
X40982142Y-80823826D01*
X40958250Y-80825000D01*
X40470750Y-80825000D01*
X40446858Y-80823826D01*
X40423197Y-80820316D01*
X40399993Y-80814504D01*
X40377471Y-80806446D01*
X40355847Y-80796218D01*
X40335330Y-80783921D01*
X40316117Y-80769671D01*
X40298393Y-80753607D01*
X40282329Y-80735883D01*
X40268079Y-80716670D01*
X40255782Y-80696153D01*
X40245554Y-80674529D01*
X40237496Y-80652007D01*
X40231684Y-80628803D01*
X40228174Y-80605142D01*
X40227000Y-80581250D01*
X40227000Y-79668750D01*
X40228174Y-79644858D01*
X40231684Y-79621197D01*
X40237496Y-79597993D01*
X40245554Y-79575471D01*
X40255782Y-79553847D01*
X40268079Y-79533330D01*
X40282329Y-79514117D01*
X40298393Y-79496393D01*
X40316117Y-79480329D01*
X40335330Y-79466079D01*
X40355847Y-79453782D01*
X40377471Y-79443554D01*
X40399993Y-79435496D01*
X40423197Y-79429684D01*
X40446858Y-79426174D01*
X40470750Y-79425000D01*
X40958250Y-79425000D01*
X40982142Y-79426174D01*
G37*
M02*
