G04 #@! TF.GenerationSoftware,KiCad,Pcbnew,5.1.5-52549c5~84~ubuntu19.10.1*
G04 #@! TF.CreationDate,2020-04-18T11:45:40+03:00*
G04 #@! TF.ProjectId,hymTracker_Panel,68796d54-7261-4636-9b65-725f50616e65,rev?*
G04 #@! TF.SameCoordinates,Original*
G04 #@! TF.FileFunction,Soldermask,Bot*
G04 #@! TF.FilePolarity,Negative*
%FSLAX46Y46*%
G04 Gerber Fmt 4.6, Leading zero omitted, Abs format (unit mm)*
G04 Created by KiCad (PCBNEW 5.1.5-52549c5~84~ubuntu19.10.1) date 2020-04-18 11:45:40*
%MOMM*%
%LPD*%
G04 APERTURE LIST*
%ADD10C,0.100000*%
G04 APERTURE END LIST*
D10*
G36*
X55791240Y-97883743D02*
G01*
X55978153Y-97920922D01*
X56070194Y-97959047D01*
X56200359Y-98012963D01*
X56400342Y-98146587D01*
X56570413Y-98316658D01*
X56704037Y-98516641D01*
X56750877Y-98629722D01*
X56782743Y-98706653D01*
X56796078Y-98738848D01*
X56843000Y-98974741D01*
X56843000Y-99215259D01*
X56796078Y-99451152D01*
X56704037Y-99673359D01*
X56570413Y-99873342D01*
X56400342Y-100043413D01*
X56200359Y-100177037D01*
X56070194Y-100230953D01*
X55978153Y-100269078D01*
X55742259Y-100316000D01*
X55501741Y-100316000D01*
X55265847Y-100269078D01*
X55173806Y-100230953D01*
X55043641Y-100177037D01*
X54843658Y-100043413D01*
X54673587Y-99873342D01*
X54539963Y-99673359D01*
X54447922Y-99451152D01*
X54401000Y-99215259D01*
X54401000Y-98974741D01*
X54447922Y-98738848D01*
X54461258Y-98706653D01*
X54493123Y-98629722D01*
X54539963Y-98516641D01*
X54673587Y-98316658D01*
X54843658Y-98146587D01*
X55043641Y-98012963D01*
X55173806Y-97959047D01*
X55265847Y-97920922D01*
X55452760Y-97883743D01*
X55501741Y-97874000D01*
X55742259Y-97874000D01*
X55791240Y-97883743D01*
G37*
G36*
X115877968Y-98417565D02*
G01*
X115916638Y-98429296D01*
X115952277Y-98448346D01*
X115983517Y-98473983D01*
X116009154Y-98505223D01*
X116028204Y-98540862D01*
X116039935Y-98579532D01*
X116044500Y-98625888D01*
X116044500Y-99702112D01*
X116039935Y-99748468D01*
X116028204Y-99787138D01*
X116009154Y-99822777D01*
X115983517Y-99854017D01*
X115952277Y-99879654D01*
X115916638Y-99898704D01*
X115877968Y-99910435D01*
X115831612Y-99915000D01*
X115180388Y-99915000D01*
X115134032Y-99910435D01*
X115095362Y-99898704D01*
X115059723Y-99879654D01*
X115028483Y-99854017D01*
X115002846Y-99822777D01*
X114983796Y-99787138D01*
X114972065Y-99748468D01*
X114967500Y-99702112D01*
X114967500Y-98625888D01*
X114972065Y-98579532D01*
X114983796Y-98540862D01*
X115002846Y-98505223D01*
X115028483Y-98473983D01*
X115059723Y-98448346D01*
X115095362Y-98429296D01*
X115134032Y-98417565D01*
X115180388Y-98413000D01*
X115831612Y-98413000D01*
X115877968Y-98417565D01*
G37*
G36*
X106050468Y-98417565D02*
G01*
X106089138Y-98429296D01*
X106124777Y-98448346D01*
X106156017Y-98473983D01*
X106181654Y-98505223D01*
X106200704Y-98540862D01*
X106212435Y-98579532D01*
X106217000Y-98625888D01*
X106217000Y-99702112D01*
X106212435Y-99748468D01*
X106200704Y-99787138D01*
X106181654Y-99822777D01*
X106156017Y-99854017D01*
X106124777Y-99879654D01*
X106089138Y-99898704D01*
X106050468Y-99910435D01*
X106004112Y-99915000D01*
X105352888Y-99915000D01*
X105306532Y-99910435D01*
X105267862Y-99898704D01*
X105232223Y-99879654D01*
X105200983Y-99854017D01*
X105175346Y-99822777D01*
X105156296Y-99787138D01*
X105144565Y-99748468D01*
X105140000Y-99702112D01*
X105140000Y-98625888D01*
X105144565Y-98579532D01*
X105156296Y-98540862D01*
X105175346Y-98505223D01*
X105200983Y-98473983D01*
X105232223Y-98448346D01*
X105267862Y-98429296D01*
X105306532Y-98417565D01*
X105352888Y-98413000D01*
X106004112Y-98413000D01*
X106050468Y-98417565D01*
G37*
G36*
X114002968Y-98417565D02*
G01*
X114041638Y-98429296D01*
X114077277Y-98448346D01*
X114108517Y-98473983D01*
X114134154Y-98505223D01*
X114153204Y-98540862D01*
X114164935Y-98579532D01*
X114169500Y-98625888D01*
X114169500Y-99702112D01*
X114164935Y-99748468D01*
X114153204Y-99787138D01*
X114134154Y-99822777D01*
X114108517Y-99854017D01*
X114077277Y-99879654D01*
X114041638Y-99898704D01*
X114002968Y-99910435D01*
X113956612Y-99915000D01*
X113305388Y-99915000D01*
X113259032Y-99910435D01*
X113220362Y-99898704D01*
X113184723Y-99879654D01*
X113153483Y-99854017D01*
X113127846Y-99822777D01*
X113108796Y-99787138D01*
X113097065Y-99748468D01*
X113092500Y-99702112D01*
X113092500Y-98625888D01*
X113097065Y-98579532D01*
X113108796Y-98540862D01*
X113127846Y-98505223D01*
X113153483Y-98473983D01*
X113184723Y-98448346D01*
X113220362Y-98429296D01*
X113259032Y-98417565D01*
X113305388Y-98413000D01*
X113956612Y-98413000D01*
X114002968Y-98417565D01*
G37*
G36*
X107925468Y-98417565D02*
G01*
X107964138Y-98429296D01*
X107999777Y-98448346D01*
X108031017Y-98473983D01*
X108056654Y-98505223D01*
X108075704Y-98540862D01*
X108087435Y-98579532D01*
X108092000Y-98625888D01*
X108092000Y-99702112D01*
X108087435Y-99748468D01*
X108075704Y-99787138D01*
X108056654Y-99822777D01*
X108031017Y-99854017D01*
X107999777Y-99879654D01*
X107964138Y-99898704D01*
X107925468Y-99910435D01*
X107879112Y-99915000D01*
X107227888Y-99915000D01*
X107181532Y-99910435D01*
X107142862Y-99898704D01*
X107107223Y-99879654D01*
X107075983Y-99854017D01*
X107050346Y-99822777D01*
X107031296Y-99787138D01*
X107019565Y-99748468D01*
X107015000Y-99702112D01*
X107015000Y-98625888D01*
X107019565Y-98579532D01*
X107031296Y-98540862D01*
X107050346Y-98505223D01*
X107075983Y-98473983D01*
X107107223Y-98448346D01*
X107142862Y-98429296D01*
X107181532Y-98417565D01*
X107227888Y-98413000D01*
X107879112Y-98413000D01*
X107925468Y-98417565D01*
G37*
G36*
X80183142Y-97620242D02*
G01*
X80331101Y-97681529D01*
X80464255Y-97770499D01*
X80577501Y-97883745D01*
X80666471Y-98016899D01*
X80727758Y-98164858D01*
X80759000Y-98321925D01*
X80759000Y-98482075D01*
X80727758Y-98639142D01*
X80666471Y-98787101D01*
X80577501Y-98920255D01*
X80464255Y-99033501D01*
X80331101Y-99122471D01*
X80183142Y-99183758D01*
X80026075Y-99215000D01*
X79865925Y-99215000D01*
X79708858Y-99183758D01*
X79560899Y-99122471D01*
X79427745Y-99033501D01*
X79314499Y-98920255D01*
X79225529Y-98787101D01*
X79164242Y-98639142D01*
X79133000Y-98482075D01*
X79133000Y-98321925D01*
X79164242Y-98164858D01*
X79225529Y-98016899D01*
X79314499Y-97883745D01*
X79427745Y-97770499D01*
X79560899Y-97681529D01*
X79708858Y-97620242D01*
X79865925Y-97589000D01*
X80026075Y-97589000D01*
X80183142Y-97620242D01*
G37*
G36*
X98725142Y-97620242D02*
G01*
X98873101Y-97681529D01*
X99006255Y-97770499D01*
X99119501Y-97883745D01*
X99208471Y-98016899D01*
X99269758Y-98164858D01*
X99301000Y-98321925D01*
X99301000Y-98482075D01*
X99269758Y-98639142D01*
X99208471Y-98787101D01*
X99119501Y-98920255D01*
X99006255Y-99033501D01*
X98873101Y-99122471D01*
X98725142Y-99183758D01*
X98568075Y-99215000D01*
X98407925Y-99215000D01*
X98250858Y-99183758D01*
X98102899Y-99122471D01*
X97969745Y-99033501D01*
X97856499Y-98920255D01*
X97767529Y-98787101D01*
X97706242Y-98639142D01*
X97675000Y-98482075D01*
X97675000Y-98321925D01*
X97706242Y-98164858D01*
X97767529Y-98016899D01*
X97856499Y-97883745D01*
X97969745Y-97770499D01*
X98102899Y-97681529D01*
X98250858Y-97620242D01*
X98407925Y-97589000D01*
X98568075Y-97589000D01*
X98725142Y-97620242D01*
G37*
G36*
X65260254Y-94922818D02*
G01*
X65633511Y-95077426D01*
X65633513Y-95077427D01*
X65969436Y-95301884D01*
X66255116Y-95587564D01*
X66467758Y-95905804D01*
X66479574Y-95923489D01*
X66634182Y-96296746D01*
X66713000Y-96692993D01*
X66713000Y-97097007D01*
X66634182Y-97493254D01*
X66479574Y-97866511D01*
X66479573Y-97866513D01*
X66255116Y-98202436D01*
X65969436Y-98488116D01*
X65633513Y-98712573D01*
X65633512Y-98712574D01*
X65633511Y-98712574D01*
X65260254Y-98867182D01*
X64864007Y-98946000D01*
X64459993Y-98946000D01*
X64063746Y-98867182D01*
X63690489Y-98712574D01*
X63690488Y-98712574D01*
X63690487Y-98712573D01*
X63354564Y-98488116D01*
X63068884Y-98202436D01*
X62844427Y-97866513D01*
X62844426Y-97866511D01*
X62689818Y-97493254D01*
X62611000Y-97097007D01*
X62611000Y-96692993D01*
X62689818Y-96296746D01*
X62844426Y-95923489D01*
X62856243Y-95905804D01*
X63068884Y-95587564D01*
X63354564Y-95301884D01*
X63690487Y-95077427D01*
X63690489Y-95077426D01*
X64063746Y-94922818D01*
X64459993Y-94844000D01*
X64864007Y-94844000D01*
X65260254Y-94922818D01*
G37*
G36*
X52580604Y-97363347D02*
G01*
X52617144Y-97374432D01*
X52650821Y-97392433D01*
X52680341Y-97416659D01*
X52704567Y-97446179D01*
X52722568Y-97479856D01*
X52733653Y-97516396D01*
X52738000Y-97560538D01*
X52738000Y-98509462D01*
X52733653Y-98553604D01*
X52722568Y-98590144D01*
X52704567Y-98623821D01*
X52680341Y-98653341D01*
X52650821Y-98677567D01*
X52617144Y-98695568D01*
X52580604Y-98706653D01*
X52536462Y-98711000D01*
X51087538Y-98711000D01*
X51043396Y-98706653D01*
X51006856Y-98695568D01*
X50973179Y-98677567D01*
X50943659Y-98653341D01*
X50919433Y-98623821D01*
X50901432Y-98590144D01*
X50890347Y-98553604D01*
X50886000Y-98509462D01*
X50886000Y-97560538D01*
X50890347Y-97516396D01*
X50901432Y-97479856D01*
X50919433Y-97446179D01*
X50943659Y-97416659D01*
X50973179Y-97392433D01*
X51006856Y-97374432D01*
X51043396Y-97363347D01*
X51087538Y-97359000D01*
X52536462Y-97359000D01*
X52580604Y-97363347D01*
G37*
G36*
X80183142Y-95080242D02*
G01*
X80331101Y-95141529D01*
X80464255Y-95230499D01*
X80577501Y-95343745D01*
X80666471Y-95476899D01*
X80727758Y-95624858D01*
X80759000Y-95781925D01*
X80759000Y-95942075D01*
X80727758Y-96099142D01*
X80666471Y-96247101D01*
X80577501Y-96380255D01*
X80464255Y-96493501D01*
X80331101Y-96582471D01*
X80183142Y-96643758D01*
X80026075Y-96675000D01*
X79865925Y-96675000D01*
X79708858Y-96643758D01*
X79560899Y-96582471D01*
X79427745Y-96493501D01*
X79314499Y-96380255D01*
X79225529Y-96247101D01*
X79164242Y-96099142D01*
X79133000Y-95942075D01*
X79133000Y-95781925D01*
X79164242Y-95624858D01*
X79225529Y-95476899D01*
X79314499Y-95343745D01*
X79427745Y-95230499D01*
X79560899Y-95141529D01*
X79708858Y-95080242D01*
X79865925Y-95049000D01*
X80026075Y-95049000D01*
X80183142Y-95080242D01*
G37*
G36*
X98725142Y-95080242D02*
G01*
X98873101Y-95141529D01*
X99006255Y-95230499D01*
X99119501Y-95343745D01*
X99208471Y-95476899D01*
X99269758Y-95624858D01*
X99301000Y-95781925D01*
X99301000Y-95942075D01*
X99269758Y-96099142D01*
X99208471Y-96247101D01*
X99119501Y-96380255D01*
X99006255Y-96493501D01*
X98873101Y-96582471D01*
X98725142Y-96643758D01*
X98568075Y-96675000D01*
X98407925Y-96675000D01*
X98250858Y-96643758D01*
X98102899Y-96582471D01*
X97969745Y-96493501D01*
X97856499Y-96380255D01*
X97767529Y-96247101D01*
X97706242Y-96099142D01*
X97675000Y-95942075D01*
X97675000Y-95781925D01*
X97706242Y-95624858D01*
X97767529Y-95476899D01*
X97856499Y-95343745D01*
X97969745Y-95230499D01*
X98102899Y-95141529D01*
X98250858Y-95080242D01*
X98407925Y-95049000D01*
X98568075Y-95049000D01*
X98725142Y-95080242D01*
G37*
G36*
X56220254Y-92122818D02*
G01*
X56593511Y-92277426D01*
X56593513Y-92277427D01*
X56929436Y-92501884D01*
X57215116Y-92787564D01*
X57398642Y-93062229D01*
X57439574Y-93123489D01*
X57594182Y-93496746D01*
X57673000Y-93892993D01*
X57673000Y-94297007D01*
X57594182Y-94693254D01*
X57499093Y-94922819D01*
X57439573Y-95066513D01*
X57215116Y-95402436D01*
X56929436Y-95688116D01*
X56593513Y-95912573D01*
X56593512Y-95912574D01*
X56593511Y-95912574D01*
X56220254Y-96067182D01*
X55824007Y-96146000D01*
X55419993Y-96146000D01*
X55023746Y-96067182D01*
X54650489Y-95912574D01*
X54650488Y-95912574D01*
X54650487Y-95912573D01*
X54314564Y-95688116D01*
X54028884Y-95402436D01*
X53804427Y-95066513D01*
X53744907Y-94922819D01*
X53649818Y-94693254D01*
X53571000Y-94297007D01*
X53571000Y-93892993D01*
X53649818Y-93496746D01*
X53804426Y-93123489D01*
X53845359Y-93062229D01*
X54028884Y-92787564D01*
X54314564Y-92501884D01*
X54650487Y-92277427D01*
X54650489Y-92277426D01*
X55023746Y-92122818D01*
X55419993Y-92044000D01*
X55824007Y-92044000D01*
X56220254Y-92122818D01*
G37*
G36*
X52580604Y-94563347D02*
G01*
X52617144Y-94574432D01*
X52650821Y-94592433D01*
X52680341Y-94616659D01*
X52704567Y-94646179D01*
X52722568Y-94679856D01*
X52733653Y-94716396D01*
X52738000Y-94760538D01*
X52738000Y-95709462D01*
X52733653Y-95753604D01*
X52722568Y-95790144D01*
X52704567Y-95823821D01*
X52680341Y-95853341D01*
X52650821Y-95877567D01*
X52617144Y-95895568D01*
X52580604Y-95906653D01*
X52536462Y-95911000D01*
X51087538Y-95911000D01*
X51043396Y-95906653D01*
X51006856Y-95895568D01*
X50973179Y-95877567D01*
X50943659Y-95853341D01*
X50919433Y-95823821D01*
X50901432Y-95790144D01*
X50890347Y-95753604D01*
X50886000Y-95709462D01*
X50886000Y-94760538D01*
X50890347Y-94716396D01*
X50901432Y-94679856D01*
X50919433Y-94646179D01*
X50943659Y-94616659D01*
X50973179Y-94592433D01*
X51006856Y-94574432D01*
X51043396Y-94563347D01*
X51087538Y-94559000D01*
X52536462Y-94559000D01*
X52580604Y-94563347D01*
G37*
G36*
X60016468Y-94498565D02*
G01*
X60055138Y-94510296D01*
X60090777Y-94529346D01*
X60122017Y-94554983D01*
X60147654Y-94586223D01*
X60166704Y-94621862D01*
X60178435Y-94660532D01*
X60183000Y-94706888D01*
X60183000Y-95358112D01*
X60178435Y-95404468D01*
X60166704Y-95443138D01*
X60147654Y-95478777D01*
X60122017Y-95510017D01*
X60090777Y-95535654D01*
X60055138Y-95554704D01*
X60016468Y-95566435D01*
X59970112Y-95571000D01*
X58893888Y-95571000D01*
X58847532Y-95566435D01*
X58808862Y-95554704D01*
X58773223Y-95535654D01*
X58741983Y-95510017D01*
X58716346Y-95478777D01*
X58697296Y-95443138D01*
X58685565Y-95404468D01*
X58681000Y-95358112D01*
X58681000Y-94706888D01*
X58685565Y-94660532D01*
X58697296Y-94621862D01*
X58716346Y-94586223D01*
X58741983Y-94554983D01*
X58773223Y-94529346D01*
X58808862Y-94510296D01*
X58847532Y-94498565D01*
X58893888Y-94494000D01*
X59970112Y-94494000D01*
X60016468Y-94498565D01*
G37*
G36*
X33010228Y-93276703D02*
G01*
X33165100Y-93340853D01*
X33304481Y-93433985D01*
X33423015Y-93552519D01*
X33516147Y-93691900D01*
X33580297Y-93846772D01*
X33613000Y-94011184D01*
X33613000Y-94178816D01*
X33580297Y-94343228D01*
X33516147Y-94498100D01*
X33423015Y-94637481D01*
X33304481Y-94756015D01*
X33165100Y-94849147D01*
X33010228Y-94913297D01*
X32845816Y-94946000D01*
X32678184Y-94946000D01*
X32513772Y-94913297D01*
X32358900Y-94849147D01*
X32219519Y-94756015D01*
X32100985Y-94637481D01*
X32007853Y-94498100D01*
X31943703Y-94343228D01*
X31911000Y-94178816D01*
X31911000Y-94011184D01*
X31943703Y-93846772D01*
X32007853Y-93691900D01*
X32100985Y-93552519D01*
X32219519Y-93433985D01*
X32358900Y-93340853D01*
X32513772Y-93276703D01*
X32678184Y-93244000D01*
X32845816Y-93244000D01*
X33010228Y-93276703D01*
G37*
G36*
X48250228Y-93276703D02*
G01*
X48405100Y-93340853D01*
X48544481Y-93433985D01*
X48663015Y-93552519D01*
X48756147Y-93691900D01*
X48820297Y-93846772D01*
X48853000Y-94011184D01*
X48853000Y-94178816D01*
X48820297Y-94343228D01*
X48756147Y-94498100D01*
X48663015Y-94637481D01*
X48544481Y-94756015D01*
X48405100Y-94849147D01*
X48250228Y-94913297D01*
X48085816Y-94946000D01*
X47918184Y-94946000D01*
X47753772Y-94913297D01*
X47598900Y-94849147D01*
X47459519Y-94756015D01*
X47340985Y-94637481D01*
X47247853Y-94498100D01*
X47183703Y-94343228D01*
X47151000Y-94178816D01*
X47151000Y-94011184D01*
X47183703Y-93846772D01*
X47247853Y-93691900D01*
X47340985Y-93552519D01*
X47459519Y-93433985D01*
X47598900Y-93340853D01*
X47753772Y-93276703D01*
X47918184Y-93244000D01*
X48085816Y-93244000D01*
X48250228Y-93276703D01*
G37*
G36*
X60016468Y-92623565D02*
G01*
X60055138Y-92635296D01*
X60090777Y-92654346D01*
X60122017Y-92679983D01*
X60147654Y-92711223D01*
X60166704Y-92746862D01*
X60178435Y-92785532D01*
X60183000Y-92831888D01*
X60183000Y-93483112D01*
X60178435Y-93529468D01*
X60166704Y-93568138D01*
X60147654Y-93603777D01*
X60122017Y-93635017D01*
X60090777Y-93660654D01*
X60055138Y-93679704D01*
X60016468Y-93691435D01*
X59970112Y-93696000D01*
X58893888Y-93696000D01*
X58847532Y-93691435D01*
X58808862Y-93679704D01*
X58773223Y-93660654D01*
X58741983Y-93635017D01*
X58716346Y-93603777D01*
X58697296Y-93568138D01*
X58685565Y-93529468D01*
X58681000Y-93483112D01*
X58681000Y-92831888D01*
X58685565Y-92785532D01*
X58697296Y-92746862D01*
X58716346Y-92711223D01*
X58741983Y-92679983D01*
X58773223Y-92654346D01*
X58808862Y-92635296D01*
X58847532Y-92623565D01*
X58893888Y-92619000D01*
X59970112Y-92619000D01*
X60016468Y-92623565D01*
G37*
G36*
X103054228Y-91995703D02*
G01*
X103209100Y-92059853D01*
X103348481Y-92152985D01*
X103467015Y-92271519D01*
X103560147Y-92410900D01*
X103624297Y-92565772D01*
X103657000Y-92730184D01*
X103657000Y-92897816D01*
X103624297Y-93062228D01*
X103560147Y-93217100D01*
X103467015Y-93356481D01*
X103348481Y-93475015D01*
X103209100Y-93568147D01*
X103054228Y-93632297D01*
X102889816Y-93665000D01*
X102722184Y-93665000D01*
X102557772Y-93632297D01*
X102402900Y-93568147D01*
X102263519Y-93475015D01*
X102144985Y-93356481D01*
X102051853Y-93217100D01*
X101987703Y-93062228D01*
X101955000Y-92897816D01*
X101955000Y-92730184D01*
X101987703Y-92565772D01*
X102051853Y-92410900D01*
X102144985Y-92271519D01*
X102263519Y-92152985D01*
X102402900Y-92059853D01*
X102557772Y-91995703D01*
X102722184Y-91963000D01*
X102889816Y-91963000D01*
X103054228Y-91995703D01*
G37*
G36*
X118897000Y-93665000D02*
G01*
X117195000Y-93665000D01*
X117195000Y-91963000D01*
X118897000Y-91963000D01*
X118897000Y-93665000D01*
G37*
G36*
X33010228Y-90736703D02*
G01*
X33165100Y-90800853D01*
X33304481Y-90893985D01*
X33423015Y-91012519D01*
X33516147Y-91151900D01*
X33580297Y-91306772D01*
X33613000Y-91471184D01*
X33613000Y-91638816D01*
X33580297Y-91803228D01*
X33516147Y-91958100D01*
X33423015Y-92097481D01*
X33304481Y-92216015D01*
X33165100Y-92309147D01*
X33010228Y-92373297D01*
X32845816Y-92406000D01*
X32678184Y-92406000D01*
X32513772Y-92373297D01*
X32358900Y-92309147D01*
X32219519Y-92216015D01*
X32100985Y-92097481D01*
X32007853Y-91958100D01*
X31943703Y-91803228D01*
X31911000Y-91638816D01*
X31911000Y-91471184D01*
X31943703Y-91306772D01*
X32007853Y-91151900D01*
X32100985Y-91012519D01*
X32219519Y-90893985D01*
X32358900Y-90800853D01*
X32513772Y-90736703D01*
X32678184Y-90704000D01*
X32845816Y-90704000D01*
X33010228Y-90736703D01*
G37*
G36*
X48250228Y-90736703D02*
G01*
X48405100Y-90800853D01*
X48544481Y-90893985D01*
X48663015Y-91012519D01*
X48756147Y-91151900D01*
X48820297Y-91306772D01*
X48853000Y-91471184D01*
X48853000Y-91638816D01*
X48820297Y-91803228D01*
X48756147Y-91958100D01*
X48663015Y-92097481D01*
X48544481Y-92216015D01*
X48405100Y-92309147D01*
X48250228Y-92373297D01*
X48085816Y-92406000D01*
X47918184Y-92406000D01*
X47753772Y-92373297D01*
X47598900Y-92309147D01*
X47459519Y-92216015D01*
X47340985Y-92097481D01*
X47247853Y-91958100D01*
X47183703Y-91803228D01*
X47151000Y-91638816D01*
X47151000Y-91471184D01*
X47183703Y-91306772D01*
X47247853Y-91151900D01*
X47340985Y-91012519D01*
X47459519Y-90893985D01*
X47598900Y-90800853D01*
X47753772Y-90736703D01*
X47918184Y-90704000D01*
X48085816Y-90704000D01*
X48250228Y-90736703D01*
G37*
G36*
X118294228Y-89455703D02*
G01*
X118449100Y-89519853D01*
X118588481Y-89612985D01*
X118707015Y-89731519D01*
X118800147Y-89870900D01*
X118864297Y-90025772D01*
X118897000Y-90190184D01*
X118897000Y-90357816D01*
X118864297Y-90522228D01*
X118800147Y-90677100D01*
X118707015Y-90816481D01*
X118588481Y-90935015D01*
X118449100Y-91028147D01*
X118294228Y-91092297D01*
X118129816Y-91125000D01*
X117962184Y-91125000D01*
X117797772Y-91092297D01*
X117642900Y-91028147D01*
X117503519Y-90935015D01*
X117384985Y-90816481D01*
X117291853Y-90677100D01*
X117227703Y-90522228D01*
X117195000Y-90357816D01*
X117195000Y-90190184D01*
X117227703Y-90025772D01*
X117291853Y-89870900D01*
X117384985Y-89731519D01*
X117503519Y-89612985D01*
X117642900Y-89519853D01*
X117797772Y-89455703D01*
X117962184Y-89423000D01*
X118129816Y-89423000D01*
X118294228Y-89455703D01*
G37*
G36*
X103054228Y-89455703D02*
G01*
X103209100Y-89519853D01*
X103348481Y-89612985D01*
X103467015Y-89731519D01*
X103560147Y-89870900D01*
X103624297Y-90025772D01*
X103657000Y-90190184D01*
X103657000Y-90357816D01*
X103624297Y-90522228D01*
X103560147Y-90677100D01*
X103467015Y-90816481D01*
X103348481Y-90935015D01*
X103209100Y-91028147D01*
X103054228Y-91092297D01*
X102889816Y-91125000D01*
X102722184Y-91125000D01*
X102557772Y-91092297D01*
X102402900Y-91028147D01*
X102263519Y-90935015D01*
X102144985Y-90816481D01*
X102051853Y-90677100D01*
X101987703Y-90522228D01*
X101955000Y-90357816D01*
X101955000Y-90190184D01*
X101987703Y-90025772D01*
X102051853Y-89870900D01*
X102144985Y-89731519D01*
X102263519Y-89612985D01*
X102402900Y-89519853D01*
X102557772Y-89455703D01*
X102722184Y-89423000D01*
X102889816Y-89423000D01*
X103054228Y-89455703D01*
G37*
G36*
X63490228Y-89116703D02*
G01*
X63645100Y-89180853D01*
X63784481Y-89273985D01*
X63903015Y-89392519D01*
X63996147Y-89531900D01*
X64060297Y-89686772D01*
X64093000Y-89851184D01*
X64093000Y-90018816D01*
X64060297Y-90183228D01*
X63996147Y-90338100D01*
X63903015Y-90477481D01*
X63784481Y-90596015D01*
X63645100Y-90689147D01*
X63490228Y-90753297D01*
X63325816Y-90786000D01*
X63158184Y-90786000D01*
X62993772Y-90753297D01*
X62838900Y-90689147D01*
X62699519Y-90596015D01*
X62580985Y-90477481D01*
X62487853Y-90338100D01*
X62423703Y-90183228D01*
X62391000Y-90018816D01*
X62391000Y-89851184D01*
X62423703Y-89686772D01*
X62487853Y-89531900D01*
X62580985Y-89392519D01*
X62699519Y-89273985D01*
X62838900Y-89180853D01*
X62993772Y-89116703D01*
X63158184Y-89084000D01*
X63325816Y-89084000D01*
X63490228Y-89116703D01*
G37*
G36*
X53322782Y-87890017D02*
G01*
X53478153Y-87920922D01*
X53511425Y-87934704D01*
X53700359Y-88012963D01*
X53900342Y-88146587D01*
X54070413Y-88316658D01*
X54204037Y-88516641D01*
X54243496Y-88611903D01*
X54296078Y-88738847D01*
X54343000Y-88974742D01*
X54343000Y-89215258D01*
X54302653Y-89418100D01*
X54296078Y-89451152D01*
X54204037Y-89673359D01*
X54070413Y-89873342D01*
X53900342Y-90043413D01*
X53700359Y-90177037D01*
X53570194Y-90230953D01*
X53478153Y-90269078D01*
X53360205Y-90292539D01*
X53242259Y-90316000D01*
X53001741Y-90316000D01*
X52883795Y-90292539D01*
X52765847Y-90269078D01*
X52673806Y-90230953D01*
X52543641Y-90177037D01*
X52343658Y-90043413D01*
X52173587Y-89873342D01*
X52039963Y-89673359D01*
X51947922Y-89451152D01*
X51941348Y-89418100D01*
X51901000Y-89215258D01*
X51901000Y-88974742D01*
X51947922Y-88738847D01*
X52000504Y-88611903D01*
X52039963Y-88516641D01*
X52173587Y-88316658D01*
X52343658Y-88146587D01*
X52543641Y-88012963D01*
X52732575Y-87934704D01*
X52765847Y-87920922D01*
X52921218Y-87890017D01*
X53001741Y-87874000D01*
X53242259Y-87874000D01*
X53322782Y-87890017D01*
G37*
G36*
X58322782Y-87890017D02*
G01*
X58478153Y-87920922D01*
X58511425Y-87934704D01*
X58700359Y-88012963D01*
X58900342Y-88146587D01*
X59070413Y-88316658D01*
X59204037Y-88516641D01*
X59243496Y-88611903D01*
X59296078Y-88738847D01*
X59343000Y-88974742D01*
X59343000Y-89215258D01*
X59302653Y-89418100D01*
X59296078Y-89451152D01*
X59204037Y-89673359D01*
X59070413Y-89873342D01*
X58900342Y-90043413D01*
X58700359Y-90177037D01*
X58570194Y-90230953D01*
X58478153Y-90269078D01*
X58360205Y-90292539D01*
X58242259Y-90316000D01*
X58001741Y-90316000D01*
X57883795Y-90292539D01*
X57765847Y-90269078D01*
X57673806Y-90230953D01*
X57543641Y-90177037D01*
X57343658Y-90043413D01*
X57173587Y-89873342D01*
X57039963Y-89673359D01*
X56947922Y-89451152D01*
X56941348Y-89418100D01*
X56901000Y-89215258D01*
X56901000Y-88974742D01*
X56947922Y-88738847D01*
X57000504Y-88611903D01*
X57039963Y-88516641D01*
X57173587Y-88316658D01*
X57343658Y-88146587D01*
X57543641Y-88012963D01*
X57732575Y-87934704D01*
X57765847Y-87920922D01*
X57921218Y-87890017D01*
X58001741Y-87874000D01*
X58242259Y-87874000D01*
X58322782Y-87890017D01*
G37*
G36*
X33010228Y-88196703D02*
G01*
X33165100Y-88260853D01*
X33304481Y-88353985D01*
X33423015Y-88472519D01*
X33516147Y-88611900D01*
X33580297Y-88766772D01*
X33613000Y-88931184D01*
X33613000Y-89098816D01*
X33580297Y-89263228D01*
X33516147Y-89418100D01*
X33423015Y-89557481D01*
X33304481Y-89676015D01*
X33165100Y-89769147D01*
X33010228Y-89833297D01*
X32845816Y-89866000D01*
X32678184Y-89866000D01*
X32513772Y-89833297D01*
X32358900Y-89769147D01*
X32219519Y-89676015D01*
X32100985Y-89557481D01*
X32007853Y-89418100D01*
X31943703Y-89263228D01*
X31911000Y-89098816D01*
X31911000Y-88931184D01*
X31943703Y-88766772D01*
X32007853Y-88611900D01*
X32100985Y-88472519D01*
X32219519Y-88353985D01*
X32358900Y-88260853D01*
X32513772Y-88196703D01*
X32678184Y-88164000D01*
X32845816Y-88164000D01*
X33010228Y-88196703D01*
G37*
G36*
X48250228Y-88196703D02*
G01*
X48405100Y-88260853D01*
X48544481Y-88353985D01*
X48663015Y-88472519D01*
X48756147Y-88611900D01*
X48820297Y-88766772D01*
X48853000Y-88931184D01*
X48853000Y-89098816D01*
X48820297Y-89263228D01*
X48756147Y-89418100D01*
X48663015Y-89557481D01*
X48544481Y-89676015D01*
X48405100Y-89769147D01*
X48250228Y-89833297D01*
X48085816Y-89866000D01*
X47918184Y-89866000D01*
X47753772Y-89833297D01*
X47598900Y-89769147D01*
X47459519Y-89676015D01*
X47340985Y-89557481D01*
X47247853Y-89418100D01*
X47183703Y-89263228D01*
X47151000Y-89098816D01*
X47151000Y-88931184D01*
X47183703Y-88766772D01*
X47247853Y-88611900D01*
X47340985Y-88472519D01*
X47459519Y-88353985D01*
X47598900Y-88260853D01*
X47753772Y-88196703D01*
X47918184Y-88164000D01*
X48085816Y-88164000D01*
X48250228Y-88196703D01*
G37*
G36*
X66330228Y-87731703D02*
G01*
X66485100Y-87795853D01*
X66624481Y-87888985D01*
X66743015Y-88007519D01*
X66836147Y-88146900D01*
X66900297Y-88301772D01*
X66933000Y-88466184D01*
X66933000Y-88633816D01*
X66900297Y-88798228D01*
X66836147Y-88953100D01*
X66743015Y-89092481D01*
X66624481Y-89211015D01*
X66485100Y-89304147D01*
X66330228Y-89368297D01*
X66165816Y-89401000D01*
X65998184Y-89401000D01*
X65833772Y-89368297D01*
X65678900Y-89304147D01*
X65539519Y-89211015D01*
X65420985Y-89092481D01*
X65327853Y-88953100D01*
X65263703Y-88798228D01*
X65231000Y-88633816D01*
X65231000Y-88466184D01*
X65263703Y-88301772D01*
X65327853Y-88146900D01*
X65420985Y-88007519D01*
X65539519Y-87888985D01*
X65678900Y-87795853D01*
X65833772Y-87731703D01*
X65998184Y-87699000D01*
X66165816Y-87699000D01*
X66330228Y-87731703D01*
G37*
G36*
X114206549Y-79239116D02*
G01*
X114317734Y-79261232D01*
X114527203Y-79347997D01*
X114715720Y-79473960D01*
X114876040Y-79634280D01*
X115002003Y-79822797D01*
X115087906Y-80030184D01*
X115088768Y-80032267D01*
X115133000Y-80254635D01*
X115133000Y-80481365D01*
X115125892Y-80517097D01*
X115088768Y-80703734D01*
X115060548Y-80771862D01*
X115007052Y-80901015D01*
X115002003Y-80913203D01*
X114876040Y-81101720D01*
X114715720Y-81262040D01*
X114527203Y-81388003D01*
X114317734Y-81474768D01*
X114190161Y-81500144D01*
X114113448Y-81515403D01*
X114089999Y-81522516D01*
X114068388Y-81534067D01*
X114049446Y-81549612D01*
X114033901Y-81568554D01*
X114022350Y-81590165D01*
X114015237Y-81613614D01*
X114012835Y-81638000D01*
X114015237Y-81662386D01*
X114022350Y-81685835D01*
X114033901Y-81707446D01*
X114049446Y-81726388D01*
X114068388Y-81741933D01*
X114089999Y-81753484D01*
X114113448Y-81760597D01*
X114190161Y-81775856D01*
X114317734Y-81801232D01*
X114400954Y-81835703D01*
X114500051Y-81876750D01*
X114527203Y-81887997D01*
X114715720Y-82013960D01*
X114876040Y-82174280D01*
X114992774Y-82348985D01*
X115002004Y-82362799D01*
X115008776Y-82379148D01*
X115087906Y-82570184D01*
X115088768Y-82572267D01*
X115133000Y-82794635D01*
X115133000Y-83021365D01*
X115114036Y-83116703D01*
X115088768Y-83243734D01*
X115028827Y-83388444D01*
X115018616Y-83413097D01*
X115002003Y-83453203D01*
X114876040Y-83641720D01*
X114715720Y-83802040D01*
X114527203Y-83928003D01*
X114317734Y-84014768D01*
X114190161Y-84040144D01*
X114113448Y-84055403D01*
X114089999Y-84062516D01*
X114068388Y-84074067D01*
X114049446Y-84089612D01*
X114033901Y-84108554D01*
X114022350Y-84130165D01*
X114015237Y-84153614D01*
X114012835Y-84178000D01*
X114015237Y-84202386D01*
X114022350Y-84225835D01*
X114033901Y-84247446D01*
X114049446Y-84266388D01*
X114068388Y-84281933D01*
X114089999Y-84293484D01*
X114113448Y-84300597D01*
X114166672Y-84311184D01*
X114317734Y-84341232D01*
X114527203Y-84427997D01*
X114715720Y-84553960D01*
X114876040Y-84714280D01*
X115002003Y-84902797D01*
X115088768Y-85112266D01*
X115099363Y-85165532D01*
X115113683Y-85237520D01*
X115133000Y-85334636D01*
X115133000Y-85561364D01*
X115088768Y-85783734D01*
X115055597Y-85863815D01*
X115005908Y-85983777D01*
X115002003Y-85993203D01*
X114876040Y-86181720D01*
X114715720Y-86342040D01*
X114527203Y-86468003D01*
X114317734Y-86554768D01*
X114190161Y-86580144D01*
X114113448Y-86595403D01*
X114089999Y-86602516D01*
X114068388Y-86614067D01*
X114049446Y-86629612D01*
X114033901Y-86648554D01*
X114022350Y-86670165D01*
X114015237Y-86693614D01*
X114012835Y-86718000D01*
X114015237Y-86742386D01*
X114022350Y-86765835D01*
X114033901Y-86787446D01*
X114049446Y-86806388D01*
X114068388Y-86821933D01*
X114089999Y-86833484D01*
X114113448Y-86840597D01*
X114153998Y-86848663D01*
X114317734Y-86881232D01*
X114403535Y-86916772D01*
X114522921Y-86966223D01*
X114527203Y-86967997D01*
X114715720Y-87093960D01*
X114876040Y-87254280D01*
X115002003Y-87442797D01*
X115087906Y-87650184D01*
X115088768Y-87652267D01*
X115132874Y-87874000D01*
X115133000Y-87874636D01*
X115133000Y-88101364D01*
X115088768Y-88323734D01*
X115059242Y-88395015D01*
X115009230Y-88515757D01*
X115002003Y-88533203D01*
X114876040Y-88721720D01*
X114715720Y-88882040D01*
X114527203Y-89008003D01*
X114317734Y-89094768D01*
X114207459Y-89116703D01*
X114095365Y-89139000D01*
X113868635Y-89139000D01*
X113756541Y-89116703D01*
X113646266Y-89094768D01*
X113436797Y-89008003D01*
X113248280Y-88882040D01*
X113087960Y-88721720D01*
X112961997Y-88533203D01*
X112954771Y-88515757D01*
X112904758Y-88395015D01*
X112875232Y-88323734D01*
X112831000Y-88101364D01*
X112831000Y-87874636D01*
X112831127Y-87874000D01*
X112875232Y-87652267D01*
X112876095Y-87650184D01*
X112961997Y-87442797D01*
X113087960Y-87254280D01*
X113248280Y-87093960D01*
X113436797Y-86967997D01*
X113441080Y-86966223D01*
X113560465Y-86916772D01*
X113646266Y-86881232D01*
X113810002Y-86848663D01*
X113850552Y-86840597D01*
X113874001Y-86833484D01*
X113895612Y-86821933D01*
X113914554Y-86806388D01*
X113930099Y-86787446D01*
X113941650Y-86765835D01*
X113948763Y-86742386D01*
X113951165Y-86718000D01*
X113948763Y-86693614D01*
X113941650Y-86670165D01*
X113930099Y-86648554D01*
X113914554Y-86629612D01*
X113895612Y-86614067D01*
X113874001Y-86602516D01*
X113850552Y-86595403D01*
X113773839Y-86580144D01*
X113646266Y-86554768D01*
X113436797Y-86468003D01*
X113248280Y-86342040D01*
X113087960Y-86181720D01*
X112961997Y-85993203D01*
X112958093Y-85983777D01*
X112908403Y-85863815D01*
X112875232Y-85783734D01*
X112831000Y-85561364D01*
X112831000Y-85334636D01*
X112850318Y-85237520D01*
X112864637Y-85165532D01*
X112875232Y-85112266D01*
X112961997Y-84902797D01*
X113087960Y-84714280D01*
X113248280Y-84553960D01*
X113436797Y-84427997D01*
X113646266Y-84341232D01*
X113797328Y-84311184D01*
X113850552Y-84300597D01*
X113874001Y-84293484D01*
X113895612Y-84281933D01*
X113914554Y-84266388D01*
X113930099Y-84247446D01*
X113941650Y-84225835D01*
X113948763Y-84202386D01*
X113951165Y-84178000D01*
X113948763Y-84153614D01*
X113941650Y-84130165D01*
X113930099Y-84108554D01*
X113914554Y-84089612D01*
X113895612Y-84074067D01*
X113874001Y-84062516D01*
X113850552Y-84055403D01*
X113773839Y-84040144D01*
X113646266Y-84014768D01*
X113436797Y-83928003D01*
X113248280Y-83802040D01*
X113087960Y-83641720D01*
X112961997Y-83453203D01*
X112945385Y-83413097D01*
X112935173Y-83388444D01*
X112875232Y-83243734D01*
X112849964Y-83116703D01*
X112831000Y-83021365D01*
X112831000Y-82794635D01*
X112875232Y-82572267D01*
X112876095Y-82570184D01*
X112955224Y-82379148D01*
X112961996Y-82362799D01*
X112971226Y-82348985D01*
X113087960Y-82174280D01*
X113248280Y-82013960D01*
X113436797Y-81887997D01*
X113463950Y-81876750D01*
X113563046Y-81835703D01*
X113646266Y-81801232D01*
X113773839Y-81775856D01*
X113850552Y-81760597D01*
X113874001Y-81753484D01*
X113895612Y-81741933D01*
X113914554Y-81726388D01*
X113930099Y-81707446D01*
X113941650Y-81685835D01*
X113948763Y-81662386D01*
X113951165Y-81638000D01*
X113948763Y-81613614D01*
X113941650Y-81590165D01*
X113930099Y-81568554D01*
X113914554Y-81549612D01*
X113895612Y-81534067D01*
X113874001Y-81522516D01*
X113850552Y-81515403D01*
X113773839Y-81500144D01*
X113646266Y-81474768D01*
X113436797Y-81388003D01*
X113248280Y-81262040D01*
X113087960Y-81101720D01*
X112961997Y-80913203D01*
X112956949Y-80901015D01*
X112903452Y-80771862D01*
X112875232Y-80703734D01*
X112838108Y-80517097D01*
X112831000Y-80481365D01*
X112831000Y-80254635D01*
X112875232Y-80032267D01*
X112876095Y-80030184D01*
X112961997Y-79822797D01*
X113087960Y-79634280D01*
X113248280Y-79473960D01*
X113436797Y-79347997D01*
X113646266Y-79261232D01*
X113757451Y-79239116D01*
X113868635Y-79217000D01*
X114095365Y-79217000D01*
X114206549Y-79239116D01*
G37*
G36*
X118294228Y-86915703D02*
G01*
X118449100Y-86979853D01*
X118588481Y-87072985D01*
X118707015Y-87191519D01*
X118800147Y-87330900D01*
X118864297Y-87485772D01*
X118897000Y-87650184D01*
X118897000Y-87817816D01*
X118864297Y-87982228D01*
X118800147Y-88137100D01*
X118707015Y-88276481D01*
X118588481Y-88395015D01*
X118449100Y-88488147D01*
X118294228Y-88552297D01*
X118129816Y-88585000D01*
X117962184Y-88585000D01*
X117797772Y-88552297D01*
X117642900Y-88488147D01*
X117503519Y-88395015D01*
X117384985Y-88276481D01*
X117291853Y-88137100D01*
X117227703Y-87982228D01*
X117195000Y-87817816D01*
X117195000Y-87650184D01*
X117227703Y-87485772D01*
X117291853Y-87330900D01*
X117384985Y-87191519D01*
X117503519Y-87072985D01*
X117642900Y-86979853D01*
X117797772Y-86915703D01*
X117962184Y-86883000D01*
X118129816Y-86883000D01*
X118294228Y-86915703D01*
G37*
G36*
X103054228Y-86915703D02*
G01*
X103209100Y-86979853D01*
X103348481Y-87072985D01*
X103467015Y-87191519D01*
X103560147Y-87330900D01*
X103624297Y-87485772D01*
X103657000Y-87650184D01*
X103657000Y-87817816D01*
X103624297Y-87982228D01*
X103560147Y-88137100D01*
X103467015Y-88276481D01*
X103348481Y-88395015D01*
X103209100Y-88488147D01*
X103054228Y-88552297D01*
X102889816Y-88585000D01*
X102722184Y-88585000D01*
X102557772Y-88552297D01*
X102402900Y-88488147D01*
X102263519Y-88395015D01*
X102144985Y-88276481D01*
X102051853Y-88137100D01*
X101987703Y-87982228D01*
X101955000Y-87817816D01*
X101955000Y-87650184D01*
X101987703Y-87485772D01*
X102051853Y-87330900D01*
X102144985Y-87191519D01*
X102263519Y-87072985D01*
X102402900Y-86979853D01*
X102557772Y-86915703D01*
X102722184Y-86883000D01*
X102889816Y-86883000D01*
X103054228Y-86915703D01*
G37*
G36*
X80183142Y-86952242D02*
G01*
X80331101Y-87013529D01*
X80464255Y-87102499D01*
X80577501Y-87215745D01*
X80666471Y-87348899D01*
X80727758Y-87496858D01*
X80759000Y-87653925D01*
X80759000Y-87814075D01*
X80727758Y-87971142D01*
X80666471Y-88119101D01*
X80577501Y-88252255D01*
X80464255Y-88365501D01*
X80331101Y-88454471D01*
X80183142Y-88515758D01*
X80026075Y-88547000D01*
X79865925Y-88547000D01*
X79708858Y-88515758D01*
X79560899Y-88454471D01*
X79427745Y-88365501D01*
X79314499Y-88252255D01*
X79225529Y-88119101D01*
X79164242Y-87971142D01*
X79133000Y-87814075D01*
X79133000Y-87653925D01*
X79164242Y-87496858D01*
X79225529Y-87348899D01*
X79314499Y-87215745D01*
X79427745Y-87102499D01*
X79560899Y-87013529D01*
X79708858Y-86952242D01*
X79865925Y-86921000D01*
X80026075Y-86921000D01*
X80183142Y-86952242D01*
G37*
G36*
X98725142Y-86952242D02*
G01*
X98873101Y-87013529D01*
X99006255Y-87102499D01*
X99119501Y-87215745D01*
X99208471Y-87348899D01*
X99269758Y-87496858D01*
X99301000Y-87653925D01*
X99301000Y-87814075D01*
X99269758Y-87971142D01*
X99208471Y-88119101D01*
X99119501Y-88252255D01*
X99006255Y-88365501D01*
X98873101Y-88454471D01*
X98725142Y-88515758D01*
X98568075Y-88547000D01*
X98407925Y-88547000D01*
X98250858Y-88515758D01*
X98102899Y-88454471D01*
X97969745Y-88365501D01*
X97856499Y-88252255D01*
X97767529Y-88119101D01*
X97706242Y-87971142D01*
X97675000Y-87814075D01*
X97675000Y-87653925D01*
X97706242Y-87496858D01*
X97767529Y-87348899D01*
X97856499Y-87215745D01*
X97969745Y-87102499D01*
X98102899Y-87013529D01*
X98250858Y-86952242D01*
X98407925Y-86921000D01*
X98568075Y-86921000D01*
X98725142Y-86952242D01*
G37*
G36*
X85319468Y-86733565D02*
G01*
X85358138Y-86745296D01*
X85393777Y-86764346D01*
X85425017Y-86789983D01*
X85450654Y-86821223D01*
X85469704Y-86856862D01*
X85481435Y-86895532D01*
X85486000Y-86941888D01*
X85486000Y-88018112D01*
X85481435Y-88064468D01*
X85469704Y-88103138D01*
X85450654Y-88138777D01*
X85425017Y-88170017D01*
X85393777Y-88195654D01*
X85358138Y-88214704D01*
X85319468Y-88226435D01*
X85273112Y-88231000D01*
X84621888Y-88231000D01*
X84575532Y-88226435D01*
X84536862Y-88214704D01*
X84501223Y-88195654D01*
X84469983Y-88170017D01*
X84444346Y-88138777D01*
X84425296Y-88103138D01*
X84413565Y-88064468D01*
X84409000Y-88018112D01*
X84409000Y-86941888D01*
X84413565Y-86895532D01*
X84425296Y-86856862D01*
X84444346Y-86821223D01*
X84469983Y-86789983D01*
X84501223Y-86764346D01*
X84536862Y-86745296D01*
X84575532Y-86733565D01*
X84621888Y-86729000D01*
X85273112Y-86729000D01*
X85319468Y-86733565D01*
G37*
G36*
X89383468Y-86733565D02*
G01*
X89422138Y-86745296D01*
X89457777Y-86764346D01*
X89489017Y-86789983D01*
X89514654Y-86821223D01*
X89533704Y-86856862D01*
X89545435Y-86895532D01*
X89550000Y-86941888D01*
X89550000Y-88018112D01*
X89545435Y-88064468D01*
X89533704Y-88103138D01*
X89514654Y-88138777D01*
X89489017Y-88170017D01*
X89457777Y-88195654D01*
X89422138Y-88214704D01*
X89383468Y-88226435D01*
X89337112Y-88231000D01*
X88685888Y-88231000D01*
X88639532Y-88226435D01*
X88600862Y-88214704D01*
X88565223Y-88195654D01*
X88533983Y-88170017D01*
X88508346Y-88138777D01*
X88489296Y-88103138D01*
X88477565Y-88064468D01*
X88473000Y-88018112D01*
X88473000Y-86941888D01*
X88477565Y-86895532D01*
X88489296Y-86856862D01*
X88508346Y-86821223D01*
X88533983Y-86789983D01*
X88565223Y-86764346D01*
X88600862Y-86745296D01*
X88639532Y-86733565D01*
X88685888Y-86729000D01*
X89337112Y-86729000D01*
X89383468Y-86733565D01*
G37*
G36*
X87508468Y-86733565D02*
G01*
X87547138Y-86745296D01*
X87582777Y-86764346D01*
X87614017Y-86789983D01*
X87639654Y-86821223D01*
X87658704Y-86856862D01*
X87670435Y-86895532D01*
X87675000Y-86941888D01*
X87675000Y-88018112D01*
X87670435Y-88064468D01*
X87658704Y-88103138D01*
X87639654Y-88138777D01*
X87614017Y-88170017D01*
X87582777Y-88195654D01*
X87547138Y-88214704D01*
X87508468Y-88226435D01*
X87462112Y-88231000D01*
X86810888Y-88231000D01*
X86764532Y-88226435D01*
X86725862Y-88214704D01*
X86690223Y-88195654D01*
X86658983Y-88170017D01*
X86633346Y-88138777D01*
X86614296Y-88103138D01*
X86602565Y-88064468D01*
X86598000Y-88018112D01*
X86598000Y-86941888D01*
X86602565Y-86895532D01*
X86614296Y-86856862D01*
X86633346Y-86821223D01*
X86658983Y-86789983D01*
X86690223Y-86764346D01*
X86725862Y-86745296D01*
X86764532Y-86733565D01*
X86810888Y-86729000D01*
X87462112Y-86729000D01*
X87508468Y-86733565D01*
G37*
G36*
X83444468Y-86733565D02*
G01*
X83483138Y-86745296D01*
X83518777Y-86764346D01*
X83550017Y-86789983D01*
X83575654Y-86821223D01*
X83594704Y-86856862D01*
X83606435Y-86895532D01*
X83611000Y-86941888D01*
X83611000Y-88018112D01*
X83606435Y-88064468D01*
X83594704Y-88103138D01*
X83575654Y-88138777D01*
X83550017Y-88170017D01*
X83518777Y-88195654D01*
X83483138Y-88214704D01*
X83444468Y-88226435D01*
X83398112Y-88231000D01*
X82746888Y-88231000D01*
X82700532Y-88226435D01*
X82661862Y-88214704D01*
X82626223Y-88195654D01*
X82594983Y-88170017D01*
X82569346Y-88138777D01*
X82550296Y-88103138D01*
X82538565Y-88064468D01*
X82534000Y-88018112D01*
X82534000Y-86941888D01*
X82538565Y-86895532D01*
X82550296Y-86856862D01*
X82569346Y-86821223D01*
X82594983Y-86789983D01*
X82626223Y-86764346D01*
X82661862Y-86745296D01*
X82700532Y-86733565D01*
X82746888Y-86729000D01*
X83398112Y-86729000D01*
X83444468Y-86733565D01*
G37*
G36*
X63490228Y-86346703D02*
G01*
X63645100Y-86410853D01*
X63784481Y-86503985D01*
X63903015Y-86622519D01*
X63996147Y-86761900D01*
X64060297Y-86916772D01*
X64093000Y-87081184D01*
X64093000Y-87248816D01*
X64060297Y-87413228D01*
X63996147Y-87568100D01*
X63903015Y-87707481D01*
X63784481Y-87826015D01*
X63645100Y-87919147D01*
X63490228Y-87983297D01*
X63325816Y-88016000D01*
X63158184Y-88016000D01*
X62993772Y-87983297D01*
X62838900Y-87919147D01*
X62699519Y-87826015D01*
X62580985Y-87707481D01*
X62487853Y-87568100D01*
X62423703Y-87413228D01*
X62391000Y-87248816D01*
X62391000Y-87081184D01*
X62423703Y-86916772D01*
X62487853Y-86761900D01*
X62580985Y-86622519D01*
X62699519Y-86503985D01*
X62838900Y-86410853D01*
X62993772Y-86346703D01*
X63158184Y-86314000D01*
X63325816Y-86314000D01*
X63490228Y-86346703D01*
G37*
G36*
X43506468Y-86878565D02*
G01*
X43545138Y-86890296D01*
X43580777Y-86909346D01*
X43612017Y-86934983D01*
X43637654Y-86966223D01*
X43656704Y-87001862D01*
X43668435Y-87040532D01*
X43673000Y-87086888D01*
X43673000Y-87738112D01*
X43668435Y-87784468D01*
X43656704Y-87823138D01*
X43637654Y-87858777D01*
X43612017Y-87890017D01*
X43580777Y-87915654D01*
X43545138Y-87934704D01*
X43506468Y-87946435D01*
X43460112Y-87951000D01*
X42383888Y-87951000D01*
X42337532Y-87946435D01*
X42298862Y-87934704D01*
X42263223Y-87915654D01*
X42231983Y-87890017D01*
X42206346Y-87858777D01*
X42187296Y-87823138D01*
X42175565Y-87784468D01*
X42171000Y-87738112D01*
X42171000Y-87086888D01*
X42175565Y-87040532D01*
X42187296Y-87001862D01*
X42206346Y-86966223D01*
X42231983Y-86934983D01*
X42263223Y-86909346D01*
X42298862Y-86890296D01*
X42337532Y-86878565D01*
X42383888Y-86874000D01*
X43460112Y-86874000D01*
X43506468Y-86878565D01*
G37*
G36*
X40966468Y-86878565D02*
G01*
X41005138Y-86890296D01*
X41040777Y-86909346D01*
X41072017Y-86934983D01*
X41097654Y-86966223D01*
X41116704Y-87001862D01*
X41128435Y-87040532D01*
X41133000Y-87086888D01*
X41133000Y-87738112D01*
X41128435Y-87784468D01*
X41116704Y-87823138D01*
X41097654Y-87858777D01*
X41072017Y-87890017D01*
X41040777Y-87915654D01*
X41005138Y-87934704D01*
X40966468Y-87946435D01*
X40920112Y-87951000D01*
X39843888Y-87951000D01*
X39797532Y-87946435D01*
X39758862Y-87934704D01*
X39723223Y-87915654D01*
X39691983Y-87890017D01*
X39666346Y-87858777D01*
X39647296Y-87823138D01*
X39635565Y-87784468D01*
X39631000Y-87738112D01*
X39631000Y-87086888D01*
X39635565Y-87040532D01*
X39647296Y-87001862D01*
X39666346Y-86966223D01*
X39691983Y-86934983D01*
X39723223Y-86909346D01*
X39758862Y-86890296D01*
X39797532Y-86878565D01*
X39843888Y-86874000D01*
X40920112Y-86874000D01*
X40966468Y-86878565D01*
G37*
G36*
X33010228Y-85656703D02*
G01*
X33165100Y-85720853D01*
X33304481Y-85813985D01*
X33423015Y-85932519D01*
X33516147Y-86071900D01*
X33580297Y-86226772D01*
X33613000Y-86391184D01*
X33613000Y-86558816D01*
X33580297Y-86723228D01*
X33516147Y-86878100D01*
X33423015Y-87017481D01*
X33304481Y-87136015D01*
X33165100Y-87229147D01*
X33010228Y-87293297D01*
X32845816Y-87326000D01*
X32678184Y-87326000D01*
X32513772Y-87293297D01*
X32358900Y-87229147D01*
X32219519Y-87136015D01*
X32100985Y-87017481D01*
X32007853Y-86878100D01*
X31943703Y-86723228D01*
X31911000Y-86558816D01*
X31911000Y-86391184D01*
X31943703Y-86226772D01*
X32007853Y-86071900D01*
X32100985Y-85932519D01*
X32219519Y-85813985D01*
X32358900Y-85720853D01*
X32513772Y-85656703D01*
X32678184Y-85624000D01*
X32845816Y-85624000D01*
X33010228Y-85656703D01*
G37*
G36*
X48250228Y-85656703D02*
G01*
X48405100Y-85720853D01*
X48544481Y-85813985D01*
X48663015Y-85932519D01*
X48756147Y-86071900D01*
X48820297Y-86226772D01*
X48853000Y-86391184D01*
X48853000Y-86558816D01*
X48820297Y-86723228D01*
X48756147Y-86878100D01*
X48663015Y-87017481D01*
X48544481Y-87136015D01*
X48405100Y-87229147D01*
X48250228Y-87293297D01*
X48085816Y-87326000D01*
X47918184Y-87326000D01*
X47753772Y-87293297D01*
X47598900Y-87229147D01*
X47459519Y-87136015D01*
X47340985Y-87017481D01*
X47247853Y-86878100D01*
X47183703Y-86723228D01*
X47151000Y-86558816D01*
X47151000Y-86391184D01*
X47183703Y-86226772D01*
X47247853Y-86071900D01*
X47340985Y-85932519D01*
X47459519Y-85813985D01*
X47598900Y-85720853D01*
X47753772Y-85656703D01*
X47918184Y-85624000D01*
X48085816Y-85624000D01*
X48250228Y-85656703D01*
G37*
G36*
X66330228Y-84961703D02*
G01*
X66485100Y-85025853D01*
X66624481Y-85118985D01*
X66743015Y-85237519D01*
X66836147Y-85376900D01*
X66900297Y-85531772D01*
X66933000Y-85696184D01*
X66933000Y-85863816D01*
X66900297Y-86028228D01*
X66836147Y-86183100D01*
X66743015Y-86322481D01*
X66624481Y-86441015D01*
X66485100Y-86534147D01*
X66330228Y-86598297D01*
X66165816Y-86631000D01*
X65998184Y-86631000D01*
X65833772Y-86598297D01*
X65678900Y-86534147D01*
X65539519Y-86441015D01*
X65420985Y-86322481D01*
X65327853Y-86183100D01*
X65263703Y-86028228D01*
X65231000Y-85863816D01*
X65231000Y-85696184D01*
X65263703Y-85531772D01*
X65327853Y-85376900D01*
X65420985Y-85237519D01*
X65539519Y-85118985D01*
X65678900Y-85025853D01*
X65833772Y-84961703D01*
X65998184Y-84929000D01*
X66165816Y-84929000D01*
X66330228Y-84961703D01*
G37*
G36*
X43506468Y-85003565D02*
G01*
X43545138Y-85015296D01*
X43580777Y-85034346D01*
X43612017Y-85059983D01*
X43637654Y-85091223D01*
X43656704Y-85126862D01*
X43668435Y-85165532D01*
X43673000Y-85211888D01*
X43673000Y-85863112D01*
X43668435Y-85909468D01*
X43656704Y-85948138D01*
X43637654Y-85983777D01*
X43612017Y-86015017D01*
X43580777Y-86040654D01*
X43545138Y-86059704D01*
X43506468Y-86071435D01*
X43460112Y-86076000D01*
X42383888Y-86076000D01*
X42337532Y-86071435D01*
X42298862Y-86059704D01*
X42263223Y-86040654D01*
X42231983Y-86015017D01*
X42206346Y-85983777D01*
X42187296Y-85948138D01*
X42175565Y-85909468D01*
X42171000Y-85863112D01*
X42171000Y-85211888D01*
X42175565Y-85165532D01*
X42187296Y-85126862D01*
X42206346Y-85091223D01*
X42231983Y-85059983D01*
X42263223Y-85034346D01*
X42298862Y-85015296D01*
X42337532Y-85003565D01*
X42383888Y-84999000D01*
X43460112Y-84999000D01*
X43506468Y-85003565D01*
G37*
G36*
X40966468Y-85003565D02*
G01*
X41005138Y-85015296D01*
X41040777Y-85034346D01*
X41072017Y-85059983D01*
X41097654Y-85091223D01*
X41116704Y-85126862D01*
X41128435Y-85165532D01*
X41133000Y-85211888D01*
X41133000Y-85863112D01*
X41128435Y-85909468D01*
X41116704Y-85948138D01*
X41097654Y-85983777D01*
X41072017Y-86015017D01*
X41040777Y-86040654D01*
X41005138Y-86059704D01*
X40966468Y-86071435D01*
X40920112Y-86076000D01*
X39843888Y-86076000D01*
X39797532Y-86071435D01*
X39758862Y-86059704D01*
X39723223Y-86040654D01*
X39691983Y-86015017D01*
X39666346Y-85983777D01*
X39647296Y-85948138D01*
X39635565Y-85909468D01*
X39631000Y-85863112D01*
X39631000Y-85211888D01*
X39635565Y-85165532D01*
X39647296Y-85126862D01*
X39666346Y-85091223D01*
X39691983Y-85059983D01*
X39723223Y-85034346D01*
X39758862Y-85015296D01*
X39797532Y-85003565D01*
X39843888Y-84999000D01*
X40920112Y-84999000D01*
X40966468Y-85003565D01*
G37*
G36*
X103054228Y-84375703D02*
G01*
X103209100Y-84439853D01*
X103348481Y-84532985D01*
X103467015Y-84651519D01*
X103560147Y-84790900D01*
X103624297Y-84945772D01*
X103657000Y-85110184D01*
X103657000Y-85277816D01*
X103624297Y-85442228D01*
X103560147Y-85597100D01*
X103467015Y-85736481D01*
X103348481Y-85855015D01*
X103209100Y-85948147D01*
X103054228Y-86012297D01*
X102889816Y-86045000D01*
X102722184Y-86045000D01*
X102557772Y-86012297D01*
X102402900Y-85948147D01*
X102263519Y-85855015D01*
X102144985Y-85736481D01*
X102051853Y-85597100D01*
X101987703Y-85442228D01*
X101955000Y-85277816D01*
X101955000Y-85110184D01*
X101987703Y-84945772D01*
X102051853Y-84790900D01*
X102144985Y-84651519D01*
X102263519Y-84532985D01*
X102402900Y-84439853D01*
X102557772Y-84375703D01*
X102722184Y-84343000D01*
X102889816Y-84343000D01*
X103054228Y-84375703D01*
G37*
G36*
X118294228Y-84375703D02*
G01*
X118449100Y-84439853D01*
X118588481Y-84532985D01*
X118707015Y-84651519D01*
X118800147Y-84790900D01*
X118864297Y-84945772D01*
X118897000Y-85110184D01*
X118897000Y-85277816D01*
X118864297Y-85442228D01*
X118800147Y-85597100D01*
X118707015Y-85736481D01*
X118588481Y-85855015D01*
X118449100Y-85948147D01*
X118294228Y-86012297D01*
X118129816Y-86045000D01*
X117962184Y-86045000D01*
X117797772Y-86012297D01*
X117642900Y-85948147D01*
X117503519Y-85855015D01*
X117384985Y-85736481D01*
X117291853Y-85597100D01*
X117227703Y-85442228D01*
X117195000Y-85277816D01*
X117195000Y-85110184D01*
X117227703Y-84945772D01*
X117291853Y-84790900D01*
X117384985Y-84651519D01*
X117503519Y-84532985D01*
X117642900Y-84439853D01*
X117797772Y-84375703D01*
X117962184Y-84343000D01*
X118129816Y-84343000D01*
X118294228Y-84375703D01*
G37*
G36*
X98725142Y-84412242D02*
G01*
X98873101Y-84473529D01*
X99006255Y-84562499D01*
X99119501Y-84675745D01*
X99208471Y-84808899D01*
X99269758Y-84956858D01*
X99301000Y-85113925D01*
X99301000Y-85274075D01*
X99269758Y-85431142D01*
X99208471Y-85579101D01*
X99119501Y-85712255D01*
X99006255Y-85825501D01*
X98873101Y-85914471D01*
X98725142Y-85975758D01*
X98568075Y-86007000D01*
X98407925Y-86007000D01*
X98250858Y-85975758D01*
X98102899Y-85914471D01*
X97969745Y-85825501D01*
X97856499Y-85712255D01*
X97767529Y-85579101D01*
X97706242Y-85431142D01*
X97675000Y-85274075D01*
X97675000Y-85113925D01*
X97706242Y-84956858D01*
X97767529Y-84808899D01*
X97856499Y-84675745D01*
X97969745Y-84562499D01*
X98102899Y-84473529D01*
X98250858Y-84412242D01*
X98407925Y-84381000D01*
X98568075Y-84381000D01*
X98725142Y-84412242D01*
G37*
G36*
X80183142Y-84412242D02*
G01*
X80331101Y-84473529D01*
X80464255Y-84562499D01*
X80577501Y-84675745D01*
X80666471Y-84808899D01*
X80727758Y-84956858D01*
X80759000Y-85113925D01*
X80759000Y-85274075D01*
X80727758Y-85431142D01*
X80666471Y-85579101D01*
X80577501Y-85712255D01*
X80464255Y-85825501D01*
X80331101Y-85914471D01*
X80183142Y-85975758D01*
X80026075Y-86007000D01*
X79865925Y-86007000D01*
X79708858Y-85975758D01*
X79560899Y-85914471D01*
X79427745Y-85825501D01*
X79314499Y-85712255D01*
X79225529Y-85579101D01*
X79164242Y-85431142D01*
X79133000Y-85274075D01*
X79133000Y-85113925D01*
X79164242Y-84956858D01*
X79225529Y-84808899D01*
X79314499Y-84675745D01*
X79427745Y-84562499D01*
X79560899Y-84473529D01*
X79708858Y-84412242D01*
X79865925Y-84381000D01*
X80026075Y-84381000D01*
X80183142Y-84412242D01*
G37*
G36*
X63490228Y-83576703D02*
G01*
X63645100Y-83640853D01*
X63784481Y-83733985D01*
X63903015Y-83852519D01*
X63996147Y-83991900D01*
X64060297Y-84146772D01*
X64093000Y-84311184D01*
X64093000Y-84478816D01*
X64060297Y-84643228D01*
X63996147Y-84798100D01*
X63903015Y-84937481D01*
X63784481Y-85056015D01*
X63645100Y-85149147D01*
X63490228Y-85213297D01*
X63325816Y-85246000D01*
X63158184Y-85246000D01*
X62993772Y-85213297D01*
X62838900Y-85149147D01*
X62699519Y-85056015D01*
X62580985Y-84937481D01*
X62487853Y-84798100D01*
X62423703Y-84643228D01*
X62391000Y-84478816D01*
X62391000Y-84311184D01*
X62423703Y-84146772D01*
X62487853Y-83991900D01*
X62580985Y-83852519D01*
X62699519Y-83733985D01*
X62838900Y-83640853D01*
X62993772Y-83576703D01*
X63158184Y-83544000D01*
X63325816Y-83544000D01*
X63490228Y-83576703D01*
G37*
G36*
X33010228Y-83116703D02*
G01*
X33165100Y-83180853D01*
X33304481Y-83273985D01*
X33423015Y-83392519D01*
X33516147Y-83531900D01*
X33580297Y-83686772D01*
X33613000Y-83851184D01*
X33613000Y-84018816D01*
X33580297Y-84183228D01*
X33516147Y-84338100D01*
X33423015Y-84477481D01*
X33304481Y-84596015D01*
X33165100Y-84689147D01*
X33010228Y-84753297D01*
X32845816Y-84786000D01*
X32678184Y-84786000D01*
X32513772Y-84753297D01*
X32358900Y-84689147D01*
X32219519Y-84596015D01*
X32100985Y-84477481D01*
X32007853Y-84338100D01*
X31943703Y-84183228D01*
X31911000Y-84018816D01*
X31911000Y-83851184D01*
X31943703Y-83686772D01*
X32007853Y-83531900D01*
X32100985Y-83392519D01*
X32219519Y-83273985D01*
X32358900Y-83180853D01*
X32513772Y-83116703D01*
X32678184Y-83084000D01*
X32845816Y-83084000D01*
X33010228Y-83116703D01*
G37*
G36*
X48250228Y-83116703D02*
G01*
X48405100Y-83180853D01*
X48544481Y-83273985D01*
X48663015Y-83392519D01*
X48756147Y-83531900D01*
X48820297Y-83686772D01*
X48853000Y-83851184D01*
X48853000Y-84018816D01*
X48820297Y-84183228D01*
X48756147Y-84338100D01*
X48663015Y-84477481D01*
X48544481Y-84596015D01*
X48405100Y-84689147D01*
X48250228Y-84753297D01*
X48085816Y-84786000D01*
X47918184Y-84786000D01*
X47753772Y-84753297D01*
X47598900Y-84689147D01*
X47459519Y-84596015D01*
X47340985Y-84477481D01*
X47247853Y-84338100D01*
X47183703Y-84183228D01*
X47151000Y-84018816D01*
X47151000Y-83851184D01*
X47183703Y-83686772D01*
X47247853Y-83531900D01*
X47340985Y-83392519D01*
X47459519Y-83273985D01*
X47598900Y-83180853D01*
X47753772Y-83116703D01*
X47918184Y-83084000D01*
X48085816Y-83084000D01*
X48250228Y-83116703D01*
G37*
G36*
X57004915Y-83142334D02*
G01*
X57113491Y-83175271D01*
X57113494Y-83175272D01*
X57149600Y-83194571D01*
X57213556Y-83228756D01*
X57301264Y-83300736D01*
X57373244Y-83388443D01*
X57407429Y-83452399D01*
X57426728Y-83488505D01*
X57426729Y-83488508D01*
X57459666Y-83597084D01*
X57468000Y-83681702D01*
X57468000Y-84188297D01*
X57459666Y-84272916D01*
X57427252Y-84379767D01*
X57426728Y-84381495D01*
X57416761Y-84400141D01*
X57373244Y-84481557D01*
X57301264Y-84569264D01*
X57213557Y-84641244D01*
X57149601Y-84675429D01*
X57113495Y-84694728D01*
X57113492Y-84694729D01*
X57004916Y-84727666D01*
X56892000Y-84738787D01*
X56779085Y-84727666D01*
X56670509Y-84694729D01*
X56670506Y-84694728D01*
X56634400Y-84675429D01*
X56570444Y-84641244D01*
X56482737Y-84569264D01*
X56410757Y-84481557D01*
X56388465Y-84439852D01*
X56367239Y-84400141D01*
X56353625Y-84379766D01*
X56336298Y-84362439D01*
X56315924Y-84348826D01*
X56293285Y-84339448D01*
X56269252Y-84334668D01*
X56244748Y-84334668D01*
X56220715Y-84339448D01*
X56198076Y-84348826D01*
X56177701Y-84362440D01*
X56160374Y-84379767D01*
X56146761Y-84400141D01*
X56103244Y-84481557D01*
X56031264Y-84569264D01*
X55943557Y-84641244D01*
X55879601Y-84675429D01*
X55843495Y-84694728D01*
X55843492Y-84694729D01*
X55734916Y-84727666D01*
X55622000Y-84738787D01*
X55509085Y-84727666D01*
X55400509Y-84694729D01*
X55400506Y-84694728D01*
X55364400Y-84675429D01*
X55300444Y-84641244D01*
X55212737Y-84569264D01*
X55149622Y-84492359D01*
X55132297Y-84475034D01*
X55111923Y-84461420D01*
X55089284Y-84452043D01*
X55065250Y-84447263D01*
X55040746Y-84447263D01*
X55016713Y-84452044D01*
X54994074Y-84461421D01*
X54973700Y-84475035D01*
X54956373Y-84492362D01*
X54942759Y-84512736D01*
X54933382Y-84535375D01*
X54928000Y-84571660D01*
X54928000Y-84736000D01*
X53776000Y-84736000D01*
X53776000Y-83134000D01*
X54928000Y-83134000D01*
X54928000Y-83298341D01*
X54930402Y-83322727D01*
X54937515Y-83346176D01*
X54949066Y-83367787D01*
X54964611Y-83386729D01*
X54983553Y-83402274D01*
X55005164Y-83413825D01*
X55028613Y-83420938D01*
X55052999Y-83423340D01*
X55077385Y-83420938D01*
X55100834Y-83413825D01*
X55122445Y-83402274D01*
X55141387Y-83386729D01*
X55149608Y-83377657D01*
X55212736Y-83300736D01*
X55300443Y-83228756D01*
X55364399Y-83194571D01*
X55400505Y-83175272D01*
X55400508Y-83175271D01*
X55509084Y-83142334D01*
X55622000Y-83131213D01*
X55734915Y-83142334D01*
X55843491Y-83175271D01*
X55843494Y-83175272D01*
X55879600Y-83194571D01*
X55943556Y-83228756D01*
X56031264Y-83300736D01*
X56103244Y-83388443D01*
X56137857Y-83453201D01*
X56146761Y-83469859D01*
X56160375Y-83490234D01*
X56177702Y-83507561D01*
X56198076Y-83521174D01*
X56220715Y-83530552D01*
X56244748Y-83535332D01*
X56269252Y-83535332D01*
X56293285Y-83530552D01*
X56315924Y-83521174D01*
X56336299Y-83507560D01*
X56353626Y-83490233D01*
X56367239Y-83469860D01*
X56410756Y-83388444D01*
X56482736Y-83300736D01*
X56570443Y-83228756D01*
X56634399Y-83194571D01*
X56670505Y-83175272D01*
X56670508Y-83175271D01*
X56779084Y-83142334D01*
X56892000Y-83131213D01*
X57004915Y-83142334D01*
G37*
G36*
X66330228Y-82191703D02*
G01*
X66485100Y-82255853D01*
X66624481Y-82348985D01*
X66743015Y-82467519D01*
X66836147Y-82606900D01*
X66900297Y-82761772D01*
X66933000Y-82926184D01*
X66933000Y-83093816D01*
X66900297Y-83258228D01*
X66836147Y-83413100D01*
X66743015Y-83552481D01*
X66624481Y-83671015D01*
X66485100Y-83764147D01*
X66330228Y-83828297D01*
X66165816Y-83861000D01*
X65998184Y-83861000D01*
X65833772Y-83828297D01*
X65678900Y-83764147D01*
X65539519Y-83671015D01*
X65420985Y-83552481D01*
X65327853Y-83413100D01*
X65263703Y-83258228D01*
X65231000Y-83093816D01*
X65231000Y-82926184D01*
X65263703Y-82761772D01*
X65327853Y-82606900D01*
X65420985Y-82467519D01*
X65539519Y-82348985D01*
X65678900Y-82255853D01*
X65833772Y-82191703D01*
X65998184Y-82159000D01*
X66165816Y-82159000D01*
X66330228Y-82191703D01*
G37*
G36*
X103054228Y-81835703D02*
G01*
X103209100Y-81899853D01*
X103348481Y-81992985D01*
X103467015Y-82111519D01*
X103560147Y-82250900D01*
X103624297Y-82405772D01*
X103657000Y-82570184D01*
X103657000Y-82737816D01*
X103624297Y-82902228D01*
X103560147Y-83057100D01*
X103467015Y-83196481D01*
X103348481Y-83315015D01*
X103209100Y-83408147D01*
X103054228Y-83472297D01*
X102889816Y-83505000D01*
X102722184Y-83505000D01*
X102557772Y-83472297D01*
X102402900Y-83408147D01*
X102263519Y-83315015D01*
X102144985Y-83196481D01*
X102051853Y-83057100D01*
X101987703Y-82902228D01*
X101955000Y-82737816D01*
X101955000Y-82570184D01*
X101987703Y-82405772D01*
X102051853Y-82250900D01*
X102144985Y-82111519D01*
X102263519Y-81992985D01*
X102402900Y-81899853D01*
X102557772Y-81835703D01*
X102722184Y-81803000D01*
X102889816Y-81803000D01*
X103054228Y-81835703D01*
G37*
G36*
X118294228Y-81835703D02*
G01*
X118449100Y-81899853D01*
X118588481Y-81992985D01*
X118707015Y-82111519D01*
X118800147Y-82250900D01*
X118864297Y-82405772D01*
X118897000Y-82570184D01*
X118897000Y-82737816D01*
X118864297Y-82902228D01*
X118800147Y-83057100D01*
X118707015Y-83196481D01*
X118588481Y-83315015D01*
X118449100Y-83408147D01*
X118294228Y-83472297D01*
X118129816Y-83505000D01*
X117962184Y-83505000D01*
X117797772Y-83472297D01*
X117642900Y-83408147D01*
X117503519Y-83315015D01*
X117384985Y-83196481D01*
X117291853Y-83057100D01*
X117227703Y-82902228D01*
X117195000Y-82737816D01*
X117195000Y-82570184D01*
X117227703Y-82405772D01*
X117291853Y-82250900D01*
X117384985Y-82111519D01*
X117503519Y-81992985D01*
X117642900Y-81899853D01*
X117797772Y-81835703D01*
X117962184Y-81803000D01*
X118129816Y-81803000D01*
X118294228Y-81835703D01*
G37*
G36*
X42961468Y-81918565D02*
G01*
X43000138Y-81930296D01*
X43035777Y-81949346D01*
X43067017Y-81974983D01*
X43092654Y-82006223D01*
X43111704Y-82041862D01*
X43123435Y-82080532D01*
X43128000Y-82126888D01*
X43128000Y-83203112D01*
X43123435Y-83249468D01*
X43111704Y-83288138D01*
X43092654Y-83323777D01*
X43067017Y-83355017D01*
X43035777Y-83380654D01*
X43000138Y-83399704D01*
X42961468Y-83411435D01*
X42915112Y-83416000D01*
X42263888Y-83416000D01*
X42217532Y-83411435D01*
X42178862Y-83399704D01*
X42143223Y-83380654D01*
X42111983Y-83355017D01*
X42086346Y-83323777D01*
X42067296Y-83288138D01*
X42055565Y-83249468D01*
X42051000Y-83203112D01*
X42051000Y-82126888D01*
X42055565Y-82080532D01*
X42067296Y-82041862D01*
X42086346Y-82006223D01*
X42111983Y-81974983D01*
X42143223Y-81949346D01*
X42178862Y-81930296D01*
X42217532Y-81918565D01*
X42263888Y-81914000D01*
X42915112Y-81914000D01*
X42961468Y-81918565D01*
G37*
G36*
X41086468Y-81918565D02*
G01*
X41125138Y-81930296D01*
X41160777Y-81949346D01*
X41192017Y-81974983D01*
X41217654Y-82006223D01*
X41236704Y-82041862D01*
X41248435Y-82080532D01*
X41253000Y-82126888D01*
X41253000Y-83203112D01*
X41248435Y-83249468D01*
X41236704Y-83288138D01*
X41217654Y-83323777D01*
X41192017Y-83355017D01*
X41160777Y-83380654D01*
X41125138Y-83399704D01*
X41086468Y-83411435D01*
X41040112Y-83416000D01*
X40388888Y-83416000D01*
X40342532Y-83411435D01*
X40303862Y-83399704D01*
X40268223Y-83380654D01*
X40236983Y-83355017D01*
X40211346Y-83323777D01*
X40192296Y-83288138D01*
X40180565Y-83249468D01*
X40176000Y-83203112D01*
X40176000Y-82126888D01*
X40180565Y-82080532D01*
X40192296Y-82041862D01*
X40211346Y-82006223D01*
X40236983Y-81974983D01*
X40268223Y-81949346D01*
X40303862Y-81930296D01*
X40342532Y-81918565D01*
X40388888Y-81914000D01*
X41040112Y-81914000D01*
X41086468Y-81918565D01*
G37*
G36*
X63490228Y-80806703D02*
G01*
X63645100Y-80870853D01*
X63784481Y-80963985D01*
X63903015Y-81082519D01*
X63996147Y-81221900D01*
X64060297Y-81376772D01*
X64093000Y-81541184D01*
X64093000Y-81708816D01*
X64060297Y-81873228D01*
X63996147Y-82028100D01*
X63903015Y-82167481D01*
X63784481Y-82286015D01*
X63645100Y-82379147D01*
X63490228Y-82443297D01*
X63325816Y-82476000D01*
X63158184Y-82476000D01*
X62993772Y-82443297D01*
X62838900Y-82379147D01*
X62699519Y-82286015D01*
X62580985Y-82167481D01*
X62487853Y-82028100D01*
X62423703Y-81873228D01*
X62391000Y-81708816D01*
X62391000Y-81541184D01*
X62423703Y-81376772D01*
X62487853Y-81221900D01*
X62580985Y-81082519D01*
X62699519Y-80963985D01*
X62838900Y-80870853D01*
X62993772Y-80806703D01*
X63158184Y-80774000D01*
X63325816Y-80774000D01*
X63490228Y-80806703D01*
G37*
G36*
X33010228Y-80576703D02*
G01*
X33165100Y-80640853D01*
X33304481Y-80733985D01*
X33423015Y-80852519D01*
X33516147Y-80991900D01*
X33580297Y-81146772D01*
X33613000Y-81311184D01*
X33613000Y-81478816D01*
X33580297Y-81643228D01*
X33516147Y-81798100D01*
X33423015Y-81937481D01*
X33304481Y-82056015D01*
X33165100Y-82149147D01*
X33010228Y-82213297D01*
X32845816Y-82246000D01*
X32678184Y-82246000D01*
X32513772Y-82213297D01*
X32358900Y-82149147D01*
X32219519Y-82056015D01*
X32100985Y-81937481D01*
X32007853Y-81798100D01*
X31943703Y-81643228D01*
X31911000Y-81478816D01*
X31911000Y-81311184D01*
X31943703Y-81146772D01*
X32007853Y-80991900D01*
X32100985Y-80852519D01*
X32219519Y-80733985D01*
X32358900Y-80640853D01*
X32513772Y-80576703D01*
X32678184Y-80544000D01*
X32845816Y-80544000D01*
X33010228Y-80576703D01*
G37*
G36*
X48250228Y-80576703D02*
G01*
X48405100Y-80640853D01*
X48544481Y-80733985D01*
X48663015Y-80852519D01*
X48756147Y-80991900D01*
X48820297Y-81146772D01*
X48853000Y-81311184D01*
X48853000Y-81478816D01*
X48820297Y-81643228D01*
X48756147Y-81798100D01*
X48663015Y-81937481D01*
X48544481Y-82056015D01*
X48405100Y-82149147D01*
X48250228Y-82213297D01*
X48085816Y-82246000D01*
X47918184Y-82246000D01*
X47753772Y-82213297D01*
X47598900Y-82149147D01*
X47459519Y-82056015D01*
X47340985Y-81937481D01*
X47247853Y-81798100D01*
X47183703Y-81643228D01*
X47151000Y-81478816D01*
X47151000Y-81311184D01*
X47183703Y-81146772D01*
X47247853Y-80991900D01*
X47340985Y-80852519D01*
X47459519Y-80733985D01*
X47598900Y-80640853D01*
X47753772Y-80576703D01*
X47918184Y-80544000D01*
X48085816Y-80544000D01*
X48250228Y-80576703D01*
G37*
G36*
X56326468Y-80648565D02*
G01*
X56365138Y-80660296D01*
X56400777Y-80679346D01*
X56432017Y-80704983D01*
X56457654Y-80736223D01*
X56476704Y-80771862D01*
X56488435Y-80810532D01*
X56493000Y-80856888D01*
X56493000Y-81933112D01*
X56488435Y-81979468D01*
X56476704Y-82018138D01*
X56457654Y-82053777D01*
X56432017Y-82085017D01*
X56400777Y-82110654D01*
X56365138Y-82129704D01*
X56326468Y-82141435D01*
X56280112Y-82146000D01*
X55628888Y-82146000D01*
X55582532Y-82141435D01*
X55543862Y-82129704D01*
X55508223Y-82110654D01*
X55476983Y-82085017D01*
X55451346Y-82053777D01*
X55432296Y-82018138D01*
X55420565Y-81979468D01*
X55416000Y-81933112D01*
X55416000Y-80856888D01*
X55420565Y-80810532D01*
X55432296Y-80771862D01*
X55451346Y-80736223D01*
X55476983Y-80704983D01*
X55508223Y-80679346D01*
X55543862Y-80660296D01*
X55582532Y-80648565D01*
X55628888Y-80644000D01*
X56280112Y-80644000D01*
X56326468Y-80648565D01*
G37*
G36*
X58201468Y-80648565D02*
G01*
X58240138Y-80660296D01*
X58275777Y-80679346D01*
X58307017Y-80704983D01*
X58332654Y-80736223D01*
X58351704Y-80771862D01*
X58363435Y-80810532D01*
X58368000Y-80856888D01*
X58368000Y-81933112D01*
X58363435Y-81979468D01*
X58351704Y-82018138D01*
X58332654Y-82053777D01*
X58307017Y-82085017D01*
X58275777Y-82110654D01*
X58240138Y-82129704D01*
X58201468Y-82141435D01*
X58155112Y-82146000D01*
X57503888Y-82146000D01*
X57457532Y-82141435D01*
X57418862Y-82129704D01*
X57383223Y-82110654D01*
X57351983Y-82085017D01*
X57326346Y-82053777D01*
X57307296Y-82018138D01*
X57295565Y-81979468D01*
X57291000Y-81933112D01*
X57291000Y-80856888D01*
X57295565Y-80810532D01*
X57307296Y-80771862D01*
X57326346Y-80736223D01*
X57351983Y-80704983D01*
X57383223Y-80679346D01*
X57418862Y-80660296D01*
X57457532Y-80648565D01*
X57503888Y-80644000D01*
X58155112Y-80644000D01*
X58201468Y-80648565D01*
G37*
G36*
X86744254Y-77481818D02*
G01*
X87117511Y-77636426D01*
X87117513Y-77636427D01*
X87453436Y-77860884D01*
X87739116Y-78146564D01*
X87903309Y-78392295D01*
X87963574Y-78482489D01*
X88118182Y-78855746D01*
X88197000Y-79251993D01*
X88197000Y-79656007D01*
X88118182Y-80052254D01*
X87989786Y-80362229D01*
X87963573Y-80425513D01*
X87739116Y-80761436D01*
X87453436Y-81047116D01*
X87117513Y-81271573D01*
X87117512Y-81271574D01*
X87117511Y-81271574D01*
X86744254Y-81426182D01*
X86348007Y-81505000D01*
X85943993Y-81505000D01*
X85547746Y-81426182D01*
X85174489Y-81271574D01*
X85174488Y-81271574D01*
X85174487Y-81271573D01*
X84838564Y-81047116D01*
X84552884Y-80761436D01*
X84328427Y-80425513D01*
X84302214Y-80362229D01*
X84173818Y-80052254D01*
X84095000Y-79656007D01*
X84095000Y-79251993D01*
X84173818Y-78855746D01*
X84328426Y-78482489D01*
X84388692Y-78392295D01*
X84552884Y-78146564D01*
X84838564Y-77860884D01*
X85174487Y-77636427D01*
X85174489Y-77636426D01*
X85547746Y-77481818D01*
X85943993Y-77403000D01*
X86348007Y-77403000D01*
X86744254Y-77481818D01*
G37*
G36*
X66330228Y-79421703D02*
G01*
X66485100Y-79485853D01*
X66624481Y-79578985D01*
X66743015Y-79697519D01*
X66836147Y-79836900D01*
X66900297Y-79991772D01*
X66933000Y-80156184D01*
X66933000Y-80323816D01*
X66900297Y-80488228D01*
X66836147Y-80643100D01*
X66743015Y-80782481D01*
X66624481Y-80901015D01*
X66485100Y-80994147D01*
X66330228Y-81058297D01*
X66165816Y-81091000D01*
X65998184Y-81091000D01*
X65833772Y-81058297D01*
X65678900Y-80994147D01*
X65539519Y-80901015D01*
X65420985Y-80782481D01*
X65327853Y-80643100D01*
X65263703Y-80488228D01*
X65231000Y-80323816D01*
X65231000Y-80156184D01*
X65263703Y-79991772D01*
X65327853Y-79836900D01*
X65420985Y-79697519D01*
X65539519Y-79578985D01*
X65678900Y-79485853D01*
X65833772Y-79421703D01*
X65998184Y-79389000D01*
X66165816Y-79389000D01*
X66330228Y-79421703D01*
G37*
G36*
X103054228Y-79295703D02*
G01*
X103209100Y-79359853D01*
X103348481Y-79452985D01*
X103467015Y-79571519D01*
X103560147Y-79710900D01*
X103624297Y-79865772D01*
X103657000Y-80030184D01*
X103657000Y-80197816D01*
X103624297Y-80362228D01*
X103560147Y-80517100D01*
X103467015Y-80656481D01*
X103348481Y-80775015D01*
X103209100Y-80868147D01*
X103054228Y-80932297D01*
X102889816Y-80965000D01*
X102722184Y-80965000D01*
X102557772Y-80932297D01*
X102402900Y-80868147D01*
X102263519Y-80775015D01*
X102144985Y-80656481D01*
X102051853Y-80517100D01*
X101987703Y-80362228D01*
X101955000Y-80197816D01*
X101955000Y-80030184D01*
X101987703Y-79865772D01*
X102051853Y-79710900D01*
X102144985Y-79571519D01*
X102263519Y-79452985D01*
X102402900Y-79359853D01*
X102557772Y-79295703D01*
X102722184Y-79263000D01*
X102889816Y-79263000D01*
X103054228Y-79295703D01*
G37*
G36*
X118294228Y-79295703D02*
G01*
X118449100Y-79359853D01*
X118588481Y-79452985D01*
X118707015Y-79571519D01*
X118800147Y-79710900D01*
X118864297Y-79865772D01*
X118897000Y-80030184D01*
X118897000Y-80197816D01*
X118864297Y-80362228D01*
X118800147Y-80517100D01*
X118707015Y-80656481D01*
X118588481Y-80775015D01*
X118449100Y-80868147D01*
X118294228Y-80932297D01*
X118129816Y-80965000D01*
X117962184Y-80965000D01*
X117797772Y-80932297D01*
X117642900Y-80868147D01*
X117503519Y-80775015D01*
X117384985Y-80656481D01*
X117291853Y-80517100D01*
X117227703Y-80362228D01*
X117195000Y-80197816D01*
X117195000Y-80030184D01*
X117227703Y-79865772D01*
X117291853Y-79710900D01*
X117384985Y-79571519D01*
X117503519Y-79452985D01*
X117642900Y-79359853D01*
X117797772Y-79295703D01*
X117962184Y-79263000D01*
X118129816Y-79263000D01*
X118294228Y-79295703D01*
G37*
G36*
X42961468Y-79378565D02*
G01*
X43000138Y-79390296D01*
X43035777Y-79409346D01*
X43067017Y-79434983D01*
X43092654Y-79466223D01*
X43111704Y-79501862D01*
X43123435Y-79540532D01*
X43128000Y-79586888D01*
X43128000Y-80663112D01*
X43123435Y-80709468D01*
X43111704Y-80748138D01*
X43092654Y-80783777D01*
X43067017Y-80815017D01*
X43035777Y-80840654D01*
X43000138Y-80859704D01*
X42961468Y-80871435D01*
X42915112Y-80876000D01*
X42263888Y-80876000D01*
X42217532Y-80871435D01*
X42178862Y-80859704D01*
X42143223Y-80840654D01*
X42111983Y-80815017D01*
X42086346Y-80783777D01*
X42067296Y-80748138D01*
X42055565Y-80709468D01*
X42051000Y-80663112D01*
X42051000Y-79586888D01*
X42055565Y-79540532D01*
X42067296Y-79501862D01*
X42086346Y-79466223D01*
X42111983Y-79434983D01*
X42143223Y-79409346D01*
X42178862Y-79390296D01*
X42217532Y-79378565D01*
X42263888Y-79374000D01*
X42915112Y-79374000D01*
X42961468Y-79378565D01*
G37*
G36*
X41086468Y-79378565D02*
G01*
X41125138Y-79390296D01*
X41160777Y-79409346D01*
X41192017Y-79434983D01*
X41217654Y-79466223D01*
X41236704Y-79501862D01*
X41248435Y-79540532D01*
X41253000Y-79586888D01*
X41253000Y-80663112D01*
X41248435Y-80709468D01*
X41236704Y-80748138D01*
X41217654Y-80783777D01*
X41192017Y-80815017D01*
X41160777Y-80840654D01*
X41125138Y-80859704D01*
X41086468Y-80871435D01*
X41040112Y-80876000D01*
X40388888Y-80876000D01*
X40342532Y-80871435D01*
X40303862Y-80859704D01*
X40268223Y-80840654D01*
X40236983Y-80815017D01*
X40211346Y-80783777D01*
X40192296Y-80748138D01*
X40180565Y-80709468D01*
X40176000Y-80663112D01*
X40176000Y-79586888D01*
X40180565Y-79540532D01*
X40192296Y-79501862D01*
X40211346Y-79466223D01*
X40236983Y-79434983D01*
X40268223Y-79409346D01*
X40303862Y-79390296D01*
X40342532Y-79378565D01*
X40388888Y-79374000D01*
X41040112Y-79374000D01*
X41086468Y-79378565D01*
G37*
G36*
X48250228Y-78036703D02*
G01*
X48405100Y-78100853D01*
X48544481Y-78193985D01*
X48663015Y-78312519D01*
X48756147Y-78451900D01*
X48820297Y-78606772D01*
X48853000Y-78771184D01*
X48853000Y-78938816D01*
X48820297Y-79103228D01*
X48756147Y-79258100D01*
X48663015Y-79397481D01*
X48544481Y-79516015D01*
X48405100Y-79609147D01*
X48250228Y-79673297D01*
X48085816Y-79706000D01*
X47918184Y-79706000D01*
X47753772Y-79673297D01*
X47598900Y-79609147D01*
X47459519Y-79516015D01*
X47340985Y-79397481D01*
X47247853Y-79258100D01*
X47183703Y-79103228D01*
X47151000Y-78938816D01*
X47151000Y-78771184D01*
X47183703Y-78606772D01*
X47247853Y-78451900D01*
X47340985Y-78312519D01*
X47459519Y-78193985D01*
X47598900Y-78100853D01*
X47753772Y-78036703D01*
X47918184Y-78004000D01*
X48085816Y-78004000D01*
X48250228Y-78036703D01*
G37*
G36*
X33010228Y-78036703D02*
G01*
X33165100Y-78100853D01*
X33304481Y-78193985D01*
X33423015Y-78312519D01*
X33516147Y-78451900D01*
X33580297Y-78606772D01*
X33613000Y-78771184D01*
X33613000Y-78938816D01*
X33580297Y-79103228D01*
X33516147Y-79258100D01*
X33423015Y-79397481D01*
X33304481Y-79516015D01*
X33165100Y-79609147D01*
X33010228Y-79673297D01*
X32845816Y-79706000D01*
X32678184Y-79706000D01*
X32513772Y-79673297D01*
X32358900Y-79609147D01*
X32219519Y-79516015D01*
X32100985Y-79397481D01*
X32007853Y-79258100D01*
X31943703Y-79103228D01*
X31911000Y-78938816D01*
X31911000Y-78771184D01*
X31943703Y-78606772D01*
X32007853Y-78451900D01*
X32100985Y-78312519D01*
X32219519Y-78193985D01*
X32358900Y-78100853D01*
X32513772Y-78036703D01*
X32678184Y-78004000D01*
X32845816Y-78004000D01*
X33010228Y-78036703D01*
G37*
G36*
X64093000Y-79706000D02*
G01*
X62391000Y-79706000D01*
X62391000Y-78004000D01*
X64093000Y-78004000D01*
X64093000Y-79706000D01*
G37*
G36*
X118294228Y-76755703D02*
G01*
X118449100Y-76819853D01*
X118588481Y-76912985D01*
X118707015Y-77031519D01*
X118800147Y-77170900D01*
X118864297Y-77325772D01*
X118897000Y-77490184D01*
X118897000Y-77657816D01*
X118864297Y-77822228D01*
X118800147Y-77977100D01*
X118707015Y-78116481D01*
X118588481Y-78235015D01*
X118449100Y-78328147D01*
X118294228Y-78392297D01*
X118129816Y-78425000D01*
X117962184Y-78425000D01*
X117797772Y-78392297D01*
X117642900Y-78328147D01*
X117503519Y-78235015D01*
X117384985Y-78116481D01*
X117291853Y-77977100D01*
X117227703Y-77822228D01*
X117195000Y-77657816D01*
X117195000Y-77490184D01*
X117227703Y-77325772D01*
X117291853Y-77170900D01*
X117384985Y-77031519D01*
X117503519Y-76912985D01*
X117642900Y-76819853D01*
X117797772Y-76755703D01*
X117962184Y-76723000D01*
X118129816Y-76723000D01*
X118294228Y-76755703D01*
G37*
G36*
X103054228Y-76755703D02*
G01*
X103209100Y-76819853D01*
X103348481Y-76912985D01*
X103467015Y-77031519D01*
X103560147Y-77170900D01*
X103624297Y-77325772D01*
X103657000Y-77490184D01*
X103657000Y-77657816D01*
X103624297Y-77822228D01*
X103560147Y-77977100D01*
X103467015Y-78116481D01*
X103348481Y-78235015D01*
X103209100Y-78328147D01*
X103054228Y-78392297D01*
X102889816Y-78425000D01*
X102722184Y-78425000D01*
X102557772Y-78392297D01*
X102402900Y-78328147D01*
X102263519Y-78235015D01*
X102144985Y-78116481D01*
X102051853Y-77977100D01*
X101987703Y-77822228D01*
X101955000Y-77657816D01*
X101955000Y-77490184D01*
X101987703Y-77325772D01*
X102051853Y-77170900D01*
X102144985Y-77031519D01*
X102263519Y-76912985D01*
X102402900Y-76819853D01*
X102557772Y-76755703D01*
X102722184Y-76723000D01*
X102889816Y-76723000D01*
X103054228Y-76755703D01*
G37*
G36*
X110465468Y-76827565D02*
G01*
X110504138Y-76839296D01*
X110539777Y-76858346D01*
X110571017Y-76883983D01*
X110596654Y-76915223D01*
X110615704Y-76950862D01*
X110627435Y-76989532D01*
X110632000Y-77035888D01*
X110632000Y-78112112D01*
X110627435Y-78158468D01*
X110615704Y-78197138D01*
X110596654Y-78232777D01*
X110571017Y-78264017D01*
X110539777Y-78289654D01*
X110504138Y-78308704D01*
X110465468Y-78320435D01*
X110419112Y-78325000D01*
X109767888Y-78325000D01*
X109721532Y-78320435D01*
X109682862Y-78308704D01*
X109647223Y-78289654D01*
X109615983Y-78264017D01*
X109590346Y-78232777D01*
X109571296Y-78197138D01*
X109559565Y-78158468D01*
X109555000Y-78112112D01*
X109555000Y-77035888D01*
X109559565Y-76989532D01*
X109571296Y-76950862D01*
X109590346Y-76915223D01*
X109615983Y-76883983D01*
X109647223Y-76858346D01*
X109682862Y-76839296D01*
X109721532Y-76827565D01*
X109767888Y-76823000D01*
X110419112Y-76823000D01*
X110465468Y-76827565D01*
G37*
G36*
X108590468Y-76827565D02*
G01*
X108629138Y-76839296D01*
X108664777Y-76858346D01*
X108696017Y-76883983D01*
X108721654Y-76915223D01*
X108740704Y-76950862D01*
X108752435Y-76989532D01*
X108757000Y-77035888D01*
X108757000Y-78112112D01*
X108752435Y-78158468D01*
X108740704Y-78197138D01*
X108721654Y-78232777D01*
X108696017Y-78264017D01*
X108664777Y-78289654D01*
X108629138Y-78308704D01*
X108590468Y-78320435D01*
X108544112Y-78325000D01*
X107892888Y-78325000D01*
X107846532Y-78320435D01*
X107807862Y-78308704D01*
X107772223Y-78289654D01*
X107740983Y-78264017D01*
X107715346Y-78232777D01*
X107696296Y-78197138D01*
X107684565Y-78158468D01*
X107680000Y-78112112D01*
X107680000Y-77035888D01*
X107684565Y-76989532D01*
X107696296Y-76950862D01*
X107715346Y-76915223D01*
X107740983Y-76883983D01*
X107772223Y-76858346D01*
X107807862Y-76839296D01*
X107846532Y-76827565D01*
X107892888Y-76823000D01*
X108544112Y-76823000D01*
X108590468Y-76827565D01*
G37*
G36*
X33010228Y-75496703D02*
G01*
X33165100Y-75560853D01*
X33304481Y-75653985D01*
X33423015Y-75772519D01*
X33516147Y-75911900D01*
X33580297Y-76066772D01*
X33613000Y-76231184D01*
X33613000Y-76398816D01*
X33580297Y-76563228D01*
X33516147Y-76718100D01*
X33423015Y-76857481D01*
X33304481Y-76976015D01*
X33165100Y-77069147D01*
X33010228Y-77133297D01*
X32845816Y-77166000D01*
X32678184Y-77166000D01*
X32513772Y-77133297D01*
X32358900Y-77069147D01*
X32219519Y-76976015D01*
X32100985Y-76857481D01*
X32007853Y-76718100D01*
X31943703Y-76563228D01*
X31911000Y-76398816D01*
X31911000Y-76231184D01*
X31943703Y-76066772D01*
X32007853Y-75911900D01*
X32100985Y-75772519D01*
X32219519Y-75653985D01*
X32358900Y-75560853D01*
X32513772Y-75496703D01*
X32678184Y-75464000D01*
X32845816Y-75464000D01*
X33010228Y-75496703D01*
G37*
G36*
X48250228Y-75496703D02*
G01*
X48405100Y-75560853D01*
X48544481Y-75653985D01*
X48663015Y-75772519D01*
X48756147Y-75911900D01*
X48820297Y-76066772D01*
X48853000Y-76231184D01*
X48853000Y-76398816D01*
X48820297Y-76563228D01*
X48756147Y-76718100D01*
X48663015Y-76857481D01*
X48544481Y-76976015D01*
X48405100Y-77069147D01*
X48250228Y-77133297D01*
X48085816Y-77166000D01*
X47918184Y-77166000D01*
X47753772Y-77133297D01*
X47598900Y-77069147D01*
X47459519Y-76976015D01*
X47340985Y-76857481D01*
X47247853Y-76718100D01*
X47183703Y-76563228D01*
X47151000Y-76398816D01*
X47151000Y-76231184D01*
X47183703Y-76066772D01*
X47247853Y-75911900D01*
X47340985Y-75772519D01*
X47459519Y-75653985D01*
X47598900Y-75560853D01*
X47753772Y-75496703D01*
X47918184Y-75464000D01*
X48085816Y-75464000D01*
X48250228Y-75496703D01*
G37*
G36*
X42961468Y-75568565D02*
G01*
X43000138Y-75580296D01*
X43035777Y-75599346D01*
X43067017Y-75624983D01*
X43092654Y-75656223D01*
X43111704Y-75691862D01*
X43123435Y-75730532D01*
X43128000Y-75776888D01*
X43128000Y-76853112D01*
X43123435Y-76899468D01*
X43111704Y-76938138D01*
X43092654Y-76973777D01*
X43067017Y-77005017D01*
X43035777Y-77030654D01*
X43000138Y-77049704D01*
X42961468Y-77061435D01*
X42915112Y-77066000D01*
X42263888Y-77066000D01*
X42217532Y-77061435D01*
X42178862Y-77049704D01*
X42143223Y-77030654D01*
X42111983Y-77005017D01*
X42086346Y-76973777D01*
X42067296Y-76938138D01*
X42055565Y-76899468D01*
X42051000Y-76853112D01*
X42051000Y-75776888D01*
X42055565Y-75730532D01*
X42067296Y-75691862D01*
X42086346Y-75656223D01*
X42111983Y-75624983D01*
X42143223Y-75599346D01*
X42178862Y-75580296D01*
X42217532Y-75568565D01*
X42263888Y-75564000D01*
X42915112Y-75564000D01*
X42961468Y-75568565D01*
G37*
G36*
X41086468Y-75568565D02*
G01*
X41125138Y-75580296D01*
X41160777Y-75599346D01*
X41192017Y-75624983D01*
X41217654Y-75656223D01*
X41236704Y-75691862D01*
X41248435Y-75730532D01*
X41253000Y-75776888D01*
X41253000Y-76853112D01*
X41248435Y-76899468D01*
X41236704Y-76938138D01*
X41217654Y-76973777D01*
X41192017Y-77005017D01*
X41160777Y-77030654D01*
X41125138Y-77049704D01*
X41086468Y-77061435D01*
X41040112Y-77066000D01*
X40388888Y-77066000D01*
X40342532Y-77061435D01*
X40303862Y-77049704D01*
X40268223Y-77030654D01*
X40236983Y-77005017D01*
X40211346Y-76973777D01*
X40192296Y-76938138D01*
X40180565Y-76899468D01*
X40176000Y-76853112D01*
X40176000Y-75776888D01*
X40180565Y-75730532D01*
X40192296Y-75691862D01*
X40211346Y-75656223D01*
X40236983Y-75624983D01*
X40268223Y-75599346D01*
X40303862Y-75580296D01*
X40342532Y-75568565D01*
X40388888Y-75564000D01*
X41040112Y-75564000D01*
X41086468Y-75568565D01*
G37*
G36*
X103054228Y-74215703D02*
G01*
X103209100Y-74279853D01*
X103348481Y-74372985D01*
X103467015Y-74491519D01*
X103560147Y-74630900D01*
X103624297Y-74785772D01*
X103657000Y-74950184D01*
X103657000Y-75117816D01*
X103624297Y-75282228D01*
X103560147Y-75437100D01*
X103467015Y-75576481D01*
X103348481Y-75695015D01*
X103209100Y-75788147D01*
X103054228Y-75852297D01*
X102889816Y-75885000D01*
X102722184Y-75885000D01*
X102557772Y-75852297D01*
X102402900Y-75788147D01*
X102263519Y-75695015D01*
X102144985Y-75576481D01*
X102051853Y-75437100D01*
X101987703Y-75282228D01*
X101955000Y-75117816D01*
X101955000Y-74950184D01*
X101987703Y-74785772D01*
X102051853Y-74630900D01*
X102144985Y-74491519D01*
X102263519Y-74372985D01*
X102402900Y-74279853D01*
X102557772Y-74215703D01*
X102722184Y-74183000D01*
X102889816Y-74183000D01*
X103054228Y-74215703D01*
G37*
G36*
X118294228Y-74215703D02*
G01*
X118449100Y-74279853D01*
X118588481Y-74372985D01*
X118707015Y-74491519D01*
X118800147Y-74630900D01*
X118864297Y-74785772D01*
X118897000Y-74950184D01*
X118897000Y-75117816D01*
X118864297Y-75282228D01*
X118800147Y-75437100D01*
X118707015Y-75576481D01*
X118588481Y-75695015D01*
X118449100Y-75788147D01*
X118294228Y-75852297D01*
X118129816Y-75885000D01*
X117962184Y-75885000D01*
X117797772Y-75852297D01*
X117642900Y-75788147D01*
X117503519Y-75695015D01*
X117384985Y-75576481D01*
X117291853Y-75437100D01*
X117227703Y-75282228D01*
X117195000Y-75117816D01*
X117195000Y-74950184D01*
X117227703Y-74785772D01*
X117291853Y-74630900D01*
X117384985Y-74491519D01*
X117503519Y-74372985D01*
X117642900Y-74279853D01*
X117797772Y-74215703D01*
X117962184Y-74183000D01*
X118129816Y-74183000D01*
X118294228Y-74215703D01*
G37*
G36*
X108590468Y-74287565D02*
G01*
X108629138Y-74299296D01*
X108664777Y-74318346D01*
X108696017Y-74343983D01*
X108721654Y-74375223D01*
X108740704Y-74410862D01*
X108752435Y-74449532D01*
X108757000Y-74495888D01*
X108757000Y-75572112D01*
X108752435Y-75618468D01*
X108740704Y-75657138D01*
X108721654Y-75692777D01*
X108696017Y-75724017D01*
X108664777Y-75749654D01*
X108629138Y-75768704D01*
X108590468Y-75780435D01*
X108544112Y-75785000D01*
X107892888Y-75785000D01*
X107846532Y-75780435D01*
X107807862Y-75768704D01*
X107772223Y-75749654D01*
X107740983Y-75724017D01*
X107715346Y-75692777D01*
X107696296Y-75657138D01*
X107684565Y-75618468D01*
X107680000Y-75572112D01*
X107680000Y-74495888D01*
X107684565Y-74449532D01*
X107696296Y-74410862D01*
X107715346Y-74375223D01*
X107740983Y-74343983D01*
X107772223Y-74318346D01*
X107807862Y-74299296D01*
X107846532Y-74287565D01*
X107892888Y-74283000D01*
X108544112Y-74283000D01*
X108590468Y-74287565D01*
G37*
G36*
X110465468Y-74287565D02*
G01*
X110504138Y-74299296D01*
X110539777Y-74318346D01*
X110571017Y-74343983D01*
X110596654Y-74375223D01*
X110615704Y-74410862D01*
X110627435Y-74449532D01*
X110632000Y-74495888D01*
X110632000Y-75572112D01*
X110627435Y-75618468D01*
X110615704Y-75657138D01*
X110596654Y-75692777D01*
X110571017Y-75724017D01*
X110539777Y-75749654D01*
X110504138Y-75768704D01*
X110465468Y-75780435D01*
X110419112Y-75785000D01*
X109767888Y-75785000D01*
X109721532Y-75780435D01*
X109682862Y-75768704D01*
X109647223Y-75749654D01*
X109615983Y-75724017D01*
X109590346Y-75692777D01*
X109571296Y-75657138D01*
X109559565Y-75618468D01*
X109555000Y-75572112D01*
X109555000Y-74495888D01*
X109559565Y-74449532D01*
X109571296Y-74410862D01*
X109590346Y-74375223D01*
X109615983Y-74343983D01*
X109647223Y-74318346D01*
X109682862Y-74299296D01*
X109721532Y-74287565D01*
X109767888Y-74283000D01*
X110419112Y-74283000D01*
X110465468Y-74287565D01*
G37*
G36*
X48250228Y-72956703D02*
G01*
X48405100Y-73020853D01*
X48544481Y-73113985D01*
X48663015Y-73232519D01*
X48756147Y-73371900D01*
X48820297Y-73526772D01*
X48853000Y-73691184D01*
X48853000Y-73858816D01*
X48820297Y-74023228D01*
X48756147Y-74178100D01*
X48663015Y-74317481D01*
X48544481Y-74436015D01*
X48405100Y-74529147D01*
X48250228Y-74593297D01*
X48085816Y-74626000D01*
X47918184Y-74626000D01*
X47753772Y-74593297D01*
X47598900Y-74529147D01*
X47459519Y-74436015D01*
X47340985Y-74317481D01*
X47247853Y-74178100D01*
X47183703Y-74023228D01*
X47151000Y-73858816D01*
X47151000Y-73691184D01*
X47183703Y-73526772D01*
X47247853Y-73371900D01*
X47340985Y-73232519D01*
X47459519Y-73113985D01*
X47598900Y-73020853D01*
X47753772Y-72956703D01*
X47918184Y-72924000D01*
X48085816Y-72924000D01*
X48250228Y-72956703D01*
G37*
G36*
X33010228Y-72956703D02*
G01*
X33165100Y-73020853D01*
X33304481Y-73113985D01*
X33423015Y-73232519D01*
X33516147Y-73371900D01*
X33580297Y-73526772D01*
X33613000Y-73691184D01*
X33613000Y-73858816D01*
X33580297Y-74023228D01*
X33516147Y-74178100D01*
X33423015Y-74317481D01*
X33304481Y-74436015D01*
X33165100Y-74529147D01*
X33010228Y-74593297D01*
X32845816Y-74626000D01*
X32678184Y-74626000D01*
X32513772Y-74593297D01*
X32358900Y-74529147D01*
X32219519Y-74436015D01*
X32100985Y-74317481D01*
X32007853Y-74178100D01*
X31943703Y-74023228D01*
X31911000Y-73858816D01*
X31911000Y-73691184D01*
X31943703Y-73526772D01*
X32007853Y-73371900D01*
X32100985Y-73232519D01*
X32219519Y-73113985D01*
X32358900Y-73020853D01*
X32513772Y-72956703D01*
X32678184Y-72924000D01*
X32845816Y-72924000D01*
X33010228Y-72956703D01*
G37*
G36*
X41086468Y-73028565D02*
G01*
X41125138Y-73040296D01*
X41160777Y-73059346D01*
X41192017Y-73084983D01*
X41217654Y-73116223D01*
X41236704Y-73151862D01*
X41248435Y-73190532D01*
X41253000Y-73236888D01*
X41253000Y-74313112D01*
X41248435Y-74359468D01*
X41236704Y-74398138D01*
X41217654Y-74433777D01*
X41192017Y-74465017D01*
X41160777Y-74490654D01*
X41125138Y-74509704D01*
X41086468Y-74521435D01*
X41040112Y-74526000D01*
X40388888Y-74526000D01*
X40342532Y-74521435D01*
X40303862Y-74509704D01*
X40268223Y-74490654D01*
X40236983Y-74465017D01*
X40211346Y-74433777D01*
X40192296Y-74398138D01*
X40180565Y-74359468D01*
X40176000Y-74313112D01*
X40176000Y-73236888D01*
X40180565Y-73190532D01*
X40192296Y-73151862D01*
X40211346Y-73116223D01*
X40236983Y-73084983D01*
X40268223Y-73059346D01*
X40303862Y-73040296D01*
X40342532Y-73028565D01*
X40388888Y-73024000D01*
X41040112Y-73024000D01*
X41086468Y-73028565D01*
G37*
G36*
X42961468Y-73028565D02*
G01*
X43000138Y-73040296D01*
X43035777Y-73059346D01*
X43067017Y-73084983D01*
X43092654Y-73116223D01*
X43111704Y-73151862D01*
X43123435Y-73190532D01*
X43128000Y-73236888D01*
X43128000Y-74313112D01*
X43123435Y-74359468D01*
X43111704Y-74398138D01*
X43092654Y-74433777D01*
X43067017Y-74465017D01*
X43035777Y-74490654D01*
X43000138Y-74509704D01*
X42961468Y-74521435D01*
X42915112Y-74526000D01*
X42263888Y-74526000D01*
X42217532Y-74521435D01*
X42178862Y-74509704D01*
X42143223Y-74490654D01*
X42111983Y-74465017D01*
X42086346Y-74433777D01*
X42067296Y-74398138D01*
X42055565Y-74359468D01*
X42051000Y-74313112D01*
X42051000Y-73236888D01*
X42055565Y-73190532D01*
X42067296Y-73151862D01*
X42086346Y-73116223D01*
X42111983Y-73084983D01*
X42143223Y-73059346D01*
X42178862Y-73040296D01*
X42217532Y-73028565D01*
X42263888Y-73024000D01*
X42915112Y-73024000D01*
X42961468Y-73028565D01*
G37*
G36*
X65260254Y-69922818D02*
G01*
X65633511Y-70077426D01*
X65633513Y-70077427D01*
X65969436Y-70301884D01*
X66255116Y-70587564D01*
X66378550Y-70772295D01*
X66479574Y-70923489D01*
X66634182Y-71296746D01*
X66713000Y-71692993D01*
X66713000Y-72097007D01*
X66634182Y-72493254D01*
X66531053Y-72742229D01*
X66479573Y-72866513D01*
X66255116Y-73202436D01*
X65969436Y-73488116D01*
X65633513Y-73712573D01*
X65633512Y-73712574D01*
X65633511Y-73712574D01*
X65260254Y-73867182D01*
X64864007Y-73946000D01*
X64459993Y-73946000D01*
X64063746Y-73867182D01*
X63690489Y-73712574D01*
X63690488Y-73712574D01*
X63690487Y-73712573D01*
X63354564Y-73488116D01*
X63068884Y-73202436D01*
X62844427Y-72866513D01*
X62792947Y-72742229D01*
X62689818Y-72493254D01*
X62611000Y-72097007D01*
X62611000Y-71692993D01*
X62689818Y-71296746D01*
X62844426Y-70923489D01*
X62945451Y-70772295D01*
X63068884Y-70587564D01*
X63354564Y-70301884D01*
X63690487Y-70077427D01*
X63690489Y-70077426D01*
X64063746Y-69922818D01*
X64459993Y-69844000D01*
X64864007Y-69844000D01*
X65260254Y-69922818D01*
G37*
G36*
X118294228Y-71675703D02*
G01*
X118449100Y-71739853D01*
X118588481Y-71832985D01*
X118707015Y-71951519D01*
X118800147Y-72090900D01*
X118864297Y-72245772D01*
X118897000Y-72410184D01*
X118897000Y-72577816D01*
X118864297Y-72742228D01*
X118800147Y-72897100D01*
X118707015Y-73036481D01*
X118588481Y-73155015D01*
X118449100Y-73248147D01*
X118294228Y-73312297D01*
X118129816Y-73345000D01*
X117962184Y-73345000D01*
X117797772Y-73312297D01*
X117642900Y-73248147D01*
X117503519Y-73155015D01*
X117384985Y-73036481D01*
X117291853Y-72897100D01*
X117227703Y-72742228D01*
X117195000Y-72577816D01*
X117195000Y-72410184D01*
X117227703Y-72245772D01*
X117291853Y-72090900D01*
X117384985Y-71951519D01*
X117503519Y-71832985D01*
X117642900Y-71739853D01*
X117797772Y-71675703D01*
X117962184Y-71643000D01*
X118129816Y-71643000D01*
X118294228Y-71675703D01*
G37*
G36*
X103054228Y-71675703D02*
G01*
X103209100Y-71739853D01*
X103348481Y-71832985D01*
X103467015Y-71951519D01*
X103560147Y-72090900D01*
X103624297Y-72245772D01*
X103657000Y-72410184D01*
X103657000Y-72577816D01*
X103624297Y-72742228D01*
X103560147Y-72897100D01*
X103467015Y-73036481D01*
X103348481Y-73155015D01*
X103209100Y-73248147D01*
X103054228Y-73312297D01*
X102889816Y-73345000D01*
X102722184Y-73345000D01*
X102557772Y-73312297D01*
X102402900Y-73248147D01*
X102263519Y-73155015D01*
X102144985Y-73036481D01*
X102051853Y-72897100D01*
X101987703Y-72742228D01*
X101955000Y-72577816D01*
X101955000Y-72410184D01*
X101987703Y-72245772D01*
X102051853Y-72090900D01*
X102144985Y-71951519D01*
X102263519Y-71832985D01*
X102402900Y-71739853D01*
X102557772Y-71675703D01*
X102722184Y-71643000D01*
X102889816Y-71643000D01*
X103054228Y-71675703D01*
G37*
G36*
X88417000Y-73345000D02*
G01*
X86715000Y-73345000D01*
X86715000Y-71643000D01*
X88417000Y-71643000D01*
X88417000Y-73345000D01*
G37*
G36*
X37050549Y-62232116D02*
G01*
X37161734Y-62254232D01*
X37371203Y-62340997D01*
X37559720Y-62466960D01*
X37720040Y-62627280D01*
X37833246Y-62796705D01*
X37846004Y-62815799D01*
X37864665Y-62860852D01*
X37920238Y-62995015D01*
X37932768Y-63025267D01*
X37977000Y-63247635D01*
X37977000Y-63474365D01*
X37965698Y-63531184D01*
X37932768Y-63696734D01*
X37846003Y-63906203D01*
X37720040Y-64094720D01*
X37559720Y-64255040D01*
X37371203Y-64381003D01*
X37371202Y-64381004D01*
X37371201Y-64381004D01*
X37309850Y-64406416D01*
X37161734Y-64467768D01*
X37039217Y-64492138D01*
X36957448Y-64508403D01*
X36933999Y-64515516D01*
X36912388Y-64527067D01*
X36893446Y-64542612D01*
X36877901Y-64561554D01*
X36866350Y-64583165D01*
X36859237Y-64606614D01*
X36856835Y-64631000D01*
X36859237Y-64655386D01*
X36866350Y-64678835D01*
X36877901Y-64700446D01*
X36893446Y-64719388D01*
X36912388Y-64734933D01*
X36933999Y-64746484D01*
X36957448Y-64753597D01*
X37034161Y-64768856D01*
X37161734Y-64794232D01*
X37371203Y-64880997D01*
X37559720Y-65006960D01*
X37720040Y-65167280D01*
X37833246Y-65336705D01*
X37846004Y-65355799D01*
X37861273Y-65392663D01*
X37932768Y-65565266D01*
X37950183Y-65652816D01*
X37977000Y-65787635D01*
X37977000Y-66014365D01*
X37957682Y-66111481D01*
X37932768Y-66236734D01*
X37846003Y-66446203D01*
X37720040Y-66634720D01*
X37559720Y-66795040D01*
X37371203Y-66921003D01*
X37161734Y-67007768D01*
X37128734Y-67014332D01*
X36957448Y-67048403D01*
X36933999Y-67055516D01*
X36912388Y-67067067D01*
X36893446Y-67082612D01*
X36877901Y-67101554D01*
X36866350Y-67123165D01*
X36859237Y-67146614D01*
X36856835Y-67171000D01*
X36859237Y-67195386D01*
X36866350Y-67218835D01*
X36877901Y-67240446D01*
X36893446Y-67259388D01*
X36912388Y-67274933D01*
X36933999Y-67286484D01*
X36957448Y-67293597D01*
X37034161Y-67308856D01*
X37161734Y-67334232D01*
X37371203Y-67420997D01*
X37559720Y-67546960D01*
X37720040Y-67707280D01*
X37846003Y-67895797D01*
X37846004Y-67895799D01*
X37863304Y-67937565D01*
X37930393Y-68099532D01*
X37932768Y-68105267D01*
X37962589Y-68255184D01*
X37977000Y-68327636D01*
X37977000Y-68554364D01*
X37932768Y-68776734D01*
X37892893Y-68873000D01*
X37852776Y-68969853D01*
X37846003Y-68986203D01*
X37720040Y-69174720D01*
X37559720Y-69335040D01*
X37371203Y-69461003D01*
X37371202Y-69461004D01*
X37371201Y-69461004D01*
X37335550Y-69475771D01*
X37161734Y-69547768D01*
X37034161Y-69573144D01*
X36957448Y-69588403D01*
X36933999Y-69595516D01*
X36912388Y-69607067D01*
X36893446Y-69622612D01*
X36877901Y-69641554D01*
X36866350Y-69663165D01*
X36859237Y-69686614D01*
X36856835Y-69711000D01*
X36859237Y-69735386D01*
X36866350Y-69758835D01*
X36877901Y-69780446D01*
X36893446Y-69799388D01*
X36912388Y-69814933D01*
X36933999Y-69826484D01*
X36957448Y-69833597D01*
X37009747Y-69844000D01*
X37161734Y-69874232D01*
X37371203Y-69960997D01*
X37559720Y-70086960D01*
X37720040Y-70247280D01*
X37846003Y-70435797D01*
X37846004Y-70435799D01*
X37861413Y-70473000D01*
X37932251Y-70644017D01*
X37932768Y-70645267D01*
X37975635Y-70860771D01*
X37977000Y-70867636D01*
X37977000Y-71094364D01*
X37932768Y-71316734D01*
X37846003Y-71526203D01*
X37720040Y-71714720D01*
X37559720Y-71875040D01*
X37371203Y-72001003D01*
X37161734Y-72087768D01*
X37115291Y-72097006D01*
X36939365Y-72132000D01*
X36712635Y-72132000D01*
X36536709Y-72097006D01*
X36490266Y-72087768D01*
X36280797Y-72001003D01*
X36092280Y-71875040D01*
X35931960Y-71714720D01*
X35805997Y-71526203D01*
X35719232Y-71316734D01*
X35675000Y-71094364D01*
X35675000Y-70867636D01*
X35676366Y-70860771D01*
X35719232Y-70645267D01*
X35719750Y-70644017D01*
X35790587Y-70473000D01*
X35805996Y-70435799D01*
X35805997Y-70435797D01*
X35931960Y-70247280D01*
X36092280Y-70086960D01*
X36280797Y-69960997D01*
X36490266Y-69874232D01*
X36642253Y-69844000D01*
X36694552Y-69833597D01*
X36718001Y-69826484D01*
X36739612Y-69814933D01*
X36758554Y-69799388D01*
X36774099Y-69780446D01*
X36785650Y-69758835D01*
X36792763Y-69735386D01*
X36795165Y-69711000D01*
X36792763Y-69686614D01*
X36785650Y-69663165D01*
X36774099Y-69641554D01*
X36758554Y-69622612D01*
X36739612Y-69607067D01*
X36718001Y-69595516D01*
X36694552Y-69588403D01*
X36617839Y-69573144D01*
X36490266Y-69547768D01*
X36316450Y-69475771D01*
X36280799Y-69461004D01*
X36280798Y-69461004D01*
X36280797Y-69461003D01*
X36092280Y-69335040D01*
X35931960Y-69174720D01*
X35805997Y-68986203D01*
X35799225Y-68969853D01*
X35759107Y-68873000D01*
X35719232Y-68776734D01*
X35675000Y-68554364D01*
X35675000Y-68327636D01*
X35689412Y-68255184D01*
X35719232Y-68105267D01*
X35721608Y-68099532D01*
X35788696Y-67937565D01*
X35805996Y-67895799D01*
X35805997Y-67895797D01*
X35931960Y-67707280D01*
X36092280Y-67546960D01*
X36280797Y-67420997D01*
X36490266Y-67334232D01*
X36617839Y-67308856D01*
X36694552Y-67293597D01*
X36718001Y-67286484D01*
X36739612Y-67274933D01*
X36758554Y-67259388D01*
X36774099Y-67240446D01*
X36785650Y-67218835D01*
X36792763Y-67195386D01*
X36795165Y-67171000D01*
X36792763Y-67146614D01*
X36785650Y-67123165D01*
X36774099Y-67101554D01*
X36758554Y-67082612D01*
X36739612Y-67067067D01*
X36718001Y-67055516D01*
X36694552Y-67048403D01*
X36523266Y-67014332D01*
X36490266Y-67007768D01*
X36280797Y-66921003D01*
X36092280Y-66795040D01*
X35931960Y-66634720D01*
X35805997Y-66446203D01*
X35719232Y-66236734D01*
X35694318Y-66111481D01*
X35675000Y-66014365D01*
X35675000Y-65787635D01*
X35701817Y-65652816D01*
X35719232Y-65565266D01*
X35790727Y-65392663D01*
X35805996Y-65355799D01*
X35818754Y-65336705D01*
X35931960Y-65167280D01*
X36092280Y-65006960D01*
X36280797Y-64880997D01*
X36490266Y-64794232D01*
X36617839Y-64768856D01*
X36694552Y-64753597D01*
X36718001Y-64746484D01*
X36739612Y-64734933D01*
X36758554Y-64719388D01*
X36774099Y-64700446D01*
X36785650Y-64678835D01*
X36792763Y-64655386D01*
X36795165Y-64631000D01*
X36792763Y-64606614D01*
X36785650Y-64583165D01*
X36774099Y-64561554D01*
X36758554Y-64542612D01*
X36739612Y-64527067D01*
X36718001Y-64515516D01*
X36694552Y-64508403D01*
X36612783Y-64492138D01*
X36490266Y-64467768D01*
X36342150Y-64406416D01*
X36280799Y-64381004D01*
X36280798Y-64381004D01*
X36280797Y-64381003D01*
X36092280Y-64255040D01*
X35931960Y-64094720D01*
X35805997Y-63906203D01*
X35719232Y-63696734D01*
X35686302Y-63531184D01*
X35675000Y-63474365D01*
X35675000Y-63247635D01*
X35719232Y-63025267D01*
X35731763Y-62995015D01*
X35787335Y-62860852D01*
X35805996Y-62815799D01*
X35818754Y-62796705D01*
X35931960Y-62627280D01*
X36092280Y-62466960D01*
X36280797Y-62340997D01*
X36490266Y-62254232D01*
X36601451Y-62232116D01*
X36712635Y-62210000D01*
X36939365Y-62210000D01*
X37050549Y-62232116D01*
G37*
G36*
X33010228Y-70416703D02*
G01*
X33165100Y-70480853D01*
X33304481Y-70573985D01*
X33423015Y-70692519D01*
X33516147Y-70831900D01*
X33580297Y-70986772D01*
X33613000Y-71151184D01*
X33613000Y-71318816D01*
X33580297Y-71483228D01*
X33516147Y-71638100D01*
X33423015Y-71777481D01*
X33304481Y-71896015D01*
X33165100Y-71989147D01*
X33010228Y-72053297D01*
X32845816Y-72086000D01*
X32678184Y-72086000D01*
X32513772Y-72053297D01*
X32358900Y-71989147D01*
X32219519Y-71896015D01*
X32100985Y-71777481D01*
X32007853Y-71638100D01*
X31943703Y-71483228D01*
X31911000Y-71318816D01*
X31911000Y-71151184D01*
X31943703Y-70986772D01*
X32007853Y-70831900D01*
X32100985Y-70692519D01*
X32219519Y-70573985D01*
X32358900Y-70480853D01*
X32513772Y-70416703D01*
X32678184Y-70384000D01*
X32845816Y-70384000D01*
X33010228Y-70416703D01*
G37*
G36*
X48250228Y-70416703D02*
G01*
X48405100Y-70480853D01*
X48544481Y-70573985D01*
X48663015Y-70692519D01*
X48756147Y-70831900D01*
X48820297Y-70986772D01*
X48853000Y-71151184D01*
X48853000Y-71318816D01*
X48820297Y-71483228D01*
X48756147Y-71638100D01*
X48663015Y-71777481D01*
X48544481Y-71896015D01*
X48405100Y-71989147D01*
X48250228Y-72053297D01*
X48085816Y-72086000D01*
X47918184Y-72086000D01*
X47753772Y-72053297D01*
X47598900Y-71989147D01*
X47459519Y-71896015D01*
X47340985Y-71777481D01*
X47247853Y-71638100D01*
X47183703Y-71483228D01*
X47151000Y-71318816D01*
X47151000Y-71151184D01*
X47183703Y-70986772D01*
X47247853Y-70831900D01*
X47340985Y-70692519D01*
X47459519Y-70573985D01*
X47598900Y-70480853D01*
X47753772Y-70416703D01*
X47918184Y-70384000D01*
X48085816Y-70384000D01*
X48250228Y-70416703D01*
G37*
G36*
X110465468Y-70477565D02*
G01*
X110504138Y-70489296D01*
X110539777Y-70508346D01*
X110571017Y-70533983D01*
X110596654Y-70565223D01*
X110615704Y-70600862D01*
X110627435Y-70639532D01*
X110632000Y-70685888D01*
X110632000Y-71762112D01*
X110627435Y-71808468D01*
X110615704Y-71847138D01*
X110596654Y-71882777D01*
X110571017Y-71914017D01*
X110539777Y-71939654D01*
X110504138Y-71958704D01*
X110465468Y-71970435D01*
X110419112Y-71975000D01*
X109767888Y-71975000D01*
X109721532Y-71970435D01*
X109682862Y-71958704D01*
X109647223Y-71939654D01*
X109615983Y-71914017D01*
X109590346Y-71882777D01*
X109571296Y-71847138D01*
X109559565Y-71808468D01*
X109555000Y-71762112D01*
X109555000Y-70685888D01*
X109559565Y-70639532D01*
X109571296Y-70600862D01*
X109590346Y-70565223D01*
X109615983Y-70533983D01*
X109647223Y-70508346D01*
X109682862Y-70489296D01*
X109721532Y-70477565D01*
X109767888Y-70473000D01*
X110419112Y-70473000D01*
X110465468Y-70477565D01*
G37*
G36*
X108590468Y-70477565D02*
G01*
X108629138Y-70489296D01*
X108664777Y-70508346D01*
X108696017Y-70533983D01*
X108721654Y-70565223D01*
X108740704Y-70600862D01*
X108752435Y-70639532D01*
X108757000Y-70685888D01*
X108757000Y-71762112D01*
X108752435Y-71808468D01*
X108740704Y-71847138D01*
X108721654Y-71882777D01*
X108696017Y-71914017D01*
X108664777Y-71939654D01*
X108629138Y-71958704D01*
X108590468Y-71970435D01*
X108544112Y-71975000D01*
X107892888Y-71975000D01*
X107846532Y-71970435D01*
X107807862Y-71958704D01*
X107772223Y-71939654D01*
X107740983Y-71914017D01*
X107715346Y-71882777D01*
X107696296Y-71847138D01*
X107684565Y-71808468D01*
X107680000Y-71762112D01*
X107680000Y-70685888D01*
X107684565Y-70639532D01*
X107696296Y-70600862D01*
X107715346Y-70565223D01*
X107740983Y-70533983D01*
X107772223Y-70508346D01*
X107807862Y-70489296D01*
X107846532Y-70477565D01*
X107892888Y-70473000D01*
X108544112Y-70473000D01*
X108590468Y-70477565D01*
G37*
G36*
X84974228Y-70290703D02*
G01*
X85129100Y-70354853D01*
X85268481Y-70447985D01*
X85387015Y-70566519D01*
X85480147Y-70705900D01*
X85544297Y-70860772D01*
X85577000Y-71025184D01*
X85577000Y-71192816D01*
X85544297Y-71357228D01*
X85480147Y-71512100D01*
X85387015Y-71651481D01*
X85268481Y-71770015D01*
X85129100Y-71863147D01*
X84974228Y-71927297D01*
X84809816Y-71960000D01*
X84642184Y-71960000D01*
X84477772Y-71927297D01*
X84322900Y-71863147D01*
X84183519Y-71770015D01*
X84064985Y-71651481D01*
X83971853Y-71512100D01*
X83907703Y-71357228D01*
X83875000Y-71192816D01*
X83875000Y-71025184D01*
X83907703Y-70860772D01*
X83971853Y-70705900D01*
X84064985Y-70566519D01*
X84183519Y-70447985D01*
X84322900Y-70354853D01*
X84477772Y-70290703D01*
X84642184Y-70258000D01*
X84809816Y-70258000D01*
X84974228Y-70290703D01*
G37*
G36*
X118294228Y-69135703D02*
G01*
X118449100Y-69199853D01*
X118588481Y-69292985D01*
X118707015Y-69411519D01*
X118800147Y-69550900D01*
X118864297Y-69705772D01*
X118897000Y-69870184D01*
X118897000Y-70037816D01*
X118864297Y-70202228D01*
X118800147Y-70357100D01*
X118707015Y-70496481D01*
X118588481Y-70615015D01*
X118449100Y-70708147D01*
X118294228Y-70772297D01*
X118129816Y-70805000D01*
X117962184Y-70805000D01*
X117797772Y-70772297D01*
X117642900Y-70708147D01*
X117503519Y-70615015D01*
X117384985Y-70496481D01*
X117291853Y-70357100D01*
X117227703Y-70202228D01*
X117195000Y-70037816D01*
X117195000Y-69870184D01*
X117227703Y-69705772D01*
X117291853Y-69550900D01*
X117384985Y-69411519D01*
X117503519Y-69292985D01*
X117642900Y-69199853D01*
X117797772Y-69135703D01*
X117962184Y-69103000D01*
X118129816Y-69103000D01*
X118294228Y-69135703D01*
G37*
G36*
X103054228Y-69135703D02*
G01*
X103209100Y-69199853D01*
X103348481Y-69292985D01*
X103467015Y-69411519D01*
X103560147Y-69550900D01*
X103624297Y-69705772D01*
X103657000Y-69870184D01*
X103657000Y-70037816D01*
X103624297Y-70202228D01*
X103560147Y-70357100D01*
X103467015Y-70496481D01*
X103348481Y-70615015D01*
X103209100Y-70708147D01*
X103054228Y-70772297D01*
X102889816Y-70805000D01*
X102722184Y-70805000D01*
X102557772Y-70772297D01*
X102402900Y-70708147D01*
X102263519Y-70615015D01*
X102144985Y-70496481D01*
X102051853Y-70357100D01*
X101987703Y-70202228D01*
X101955000Y-70037816D01*
X101955000Y-69870184D01*
X101987703Y-69705772D01*
X102051853Y-69550900D01*
X102144985Y-69411519D01*
X102263519Y-69292985D01*
X102402900Y-69199853D01*
X102557772Y-69135703D01*
X102722184Y-69103000D01*
X102889816Y-69103000D01*
X103054228Y-69135703D01*
G37*
G36*
X93350468Y-69207565D02*
G01*
X93389138Y-69219296D01*
X93424777Y-69238346D01*
X93456017Y-69263983D01*
X93481654Y-69295223D01*
X93500704Y-69330862D01*
X93512435Y-69369532D01*
X93517000Y-69415888D01*
X93517000Y-70492112D01*
X93512435Y-70538468D01*
X93500704Y-70577138D01*
X93481654Y-70612777D01*
X93456017Y-70644017D01*
X93424777Y-70669654D01*
X93389138Y-70688704D01*
X93350468Y-70700435D01*
X93304112Y-70705000D01*
X92652888Y-70705000D01*
X92606532Y-70700435D01*
X92567862Y-70688704D01*
X92532223Y-70669654D01*
X92500983Y-70644017D01*
X92475346Y-70612777D01*
X92456296Y-70577138D01*
X92444565Y-70538468D01*
X92440000Y-70492112D01*
X92440000Y-69415888D01*
X92444565Y-69369532D01*
X92456296Y-69330862D01*
X92475346Y-69295223D01*
X92500983Y-69263983D01*
X92532223Y-69238346D01*
X92567862Y-69219296D01*
X92606532Y-69207565D01*
X92652888Y-69203000D01*
X93304112Y-69203000D01*
X93350468Y-69207565D01*
G37*
G36*
X95225468Y-69207565D02*
G01*
X95264138Y-69219296D01*
X95299777Y-69238346D01*
X95331017Y-69263983D01*
X95356654Y-69295223D01*
X95375704Y-69330862D01*
X95387435Y-69369532D01*
X95392000Y-69415888D01*
X95392000Y-70492112D01*
X95387435Y-70538468D01*
X95375704Y-70577138D01*
X95356654Y-70612777D01*
X95331017Y-70644017D01*
X95299777Y-70669654D01*
X95264138Y-70688704D01*
X95225468Y-70700435D01*
X95179112Y-70705000D01*
X94527888Y-70705000D01*
X94481532Y-70700435D01*
X94442862Y-70688704D01*
X94407223Y-70669654D01*
X94375983Y-70644017D01*
X94350346Y-70612777D01*
X94331296Y-70577138D01*
X94319565Y-70538468D01*
X94315000Y-70492112D01*
X94315000Y-69415888D01*
X94319565Y-69369532D01*
X94331296Y-69330862D01*
X94350346Y-69295223D01*
X94375983Y-69263983D01*
X94407223Y-69238346D01*
X94442862Y-69219296D01*
X94481532Y-69207565D01*
X94527888Y-69203000D01*
X95179112Y-69203000D01*
X95225468Y-69207565D01*
G37*
G36*
X87814228Y-68905703D02*
G01*
X87969100Y-68969853D01*
X88108481Y-69062985D01*
X88227015Y-69181519D01*
X88320147Y-69320900D01*
X88384297Y-69475772D01*
X88417000Y-69640184D01*
X88417000Y-69807816D01*
X88384297Y-69972228D01*
X88320147Y-70127100D01*
X88227015Y-70266481D01*
X88108481Y-70385015D01*
X87969100Y-70478147D01*
X87814228Y-70542297D01*
X87649816Y-70575000D01*
X87482184Y-70575000D01*
X87317772Y-70542297D01*
X87162900Y-70478147D01*
X87023519Y-70385015D01*
X86904985Y-70266481D01*
X86811853Y-70127100D01*
X86747703Y-69972228D01*
X86715000Y-69807816D01*
X86715000Y-69640184D01*
X86747703Y-69475772D01*
X86811853Y-69320900D01*
X86904985Y-69181519D01*
X87023519Y-69062985D01*
X87162900Y-68969853D01*
X87317772Y-68905703D01*
X87482184Y-68873000D01*
X87649816Y-68873000D01*
X87814228Y-68905703D01*
G37*
G36*
X48250228Y-67876703D02*
G01*
X48405100Y-67940853D01*
X48544481Y-68033985D01*
X48663015Y-68152519D01*
X48756147Y-68291900D01*
X48820297Y-68446772D01*
X48853000Y-68611184D01*
X48853000Y-68778816D01*
X48820297Y-68943228D01*
X48756147Y-69098100D01*
X48663015Y-69237481D01*
X48544481Y-69356015D01*
X48405100Y-69449147D01*
X48250228Y-69513297D01*
X48085816Y-69546000D01*
X47918184Y-69546000D01*
X47753772Y-69513297D01*
X47598900Y-69449147D01*
X47459519Y-69356015D01*
X47340985Y-69237481D01*
X47247853Y-69098100D01*
X47183703Y-68943228D01*
X47151000Y-68778816D01*
X47151000Y-68611184D01*
X47183703Y-68446772D01*
X47247853Y-68291900D01*
X47340985Y-68152519D01*
X47459519Y-68033985D01*
X47598900Y-67940853D01*
X47753772Y-67876703D01*
X47918184Y-67844000D01*
X48085816Y-67844000D01*
X48250228Y-67876703D01*
G37*
G36*
X33010228Y-67876703D02*
G01*
X33165100Y-67940853D01*
X33304481Y-68033985D01*
X33423015Y-68152519D01*
X33516147Y-68291900D01*
X33580297Y-68446772D01*
X33613000Y-68611184D01*
X33613000Y-68778816D01*
X33580297Y-68943228D01*
X33516147Y-69098100D01*
X33423015Y-69237481D01*
X33304481Y-69356015D01*
X33165100Y-69449147D01*
X33010228Y-69513297D01*
X32845816Y-69546000D01*
X32678184Y-69546000D01*
X32513772Y-69513297D01*
X32358900Y-69449147D01*
X32219519Y-69356015D01*
X32100985Y-69237481D01*
X32007853Y-69098100D01*
X31943703Y-68943228D01*
X31911000Y-68778816D01*
X31911000Y-68611184D01*
X31943703Y-68446772D01*
X32007853Y-68291900D01*
X32100985Y-68152519D01*
X32219519Y-68033985D01*
X32358900Y-67940853D01*
X32513772Y-67876703D01*
X32678184Y-67844000D01*
X32845816Y-67844000D01*
X33010228Y-67876703D01*
G37*
G36*
X110465468Y-67937565D02*
G01*
X110504138Y-67949296D01*
X110539777Y-67968346D01*
X110571017Y-67993983D01*
X110596654Y-68025223D01*
X110615704Y-68060862D01*
X110627435Y-68099532D01*
X110632000Y-68145888D01*
X110632000Y-69222112D01*
X110627435Y-69268468D01*
X110615704Y-69307138D01*
X110596654Y-69342777D01*
X110571017Y-69374017D01*
X110539777Y-69399654D01*
X110504138Y-69418704D01*
X110465468Y-69430435D01*
X110419112Y-69435000D01*
X109767888Y-69435000D01*
X109721532Y-69430435D01*
X109682862Y-69418704D01*
X109647223Y-69399654D01*
X109615983Y-69374017D01*
X109590346Y-69342777D01*
X109571296Y-69307138D01*
X109559565Y-69268468D01*
X109555000Y-69222112D01*
X109555000Y-68145888D01*
X109559565Y-68099532D01*
X109571296Y-68060862D01*
X109590346Y-68025223D01*
X109615983Y-67993983D01*
X109647223Y-67968346D01*
X109682862Y-67949296D01*
X109721532Y-67937565D01*
X109767888Y-67933000D01*
X110419112Y-67933000D01*
X110465468Y-67937565D01*
G37*
G36*
X108590468Y-67937565D02*
G01*
X108629138Y-67949296D01*
X108664777Y-67968346D01*
X108696017Y-67993983D01*
X108721654Y-68025223D01*
X108740704Y-68060862D01*
X108752435Y-68099532D01*
X108757000Y-68145888D01*
X108757000Y-69222112D01*
X108752435Y-69268468D01*
X108740704Y-69307138D01*
X108721654Y-69342777D01*
X108696017Y-69374017D01*
X108664777Y-69399654D01*
X108629138Y-69418704D01*
X108590468Y-69430435D01*
X108544112Y-69435000D01*
X107892888Y-69435000D01*
X107846532Y-69430435D01*
X107807862Y-69418704D01*
X107772223Y-69399654D01*
X107740983Y-69374017D01*
X107715346Y-69342777D01*
X107696296Y-69307138D01*
X107684565Y-69268468D01*
X107680000Y-69222112D01*
X107680000Y-68145888D01*
X107684565Y-68099532D01*
X107696296Y-68060862D01*
X107715346Y-68025223D01*
X107740983Y-67993983D01*
X107772223Y-67968346D01*
X107807862Y-67949296D01*
X107846532Y-67937565D01*
X107892888Y-67933000D01*
X108544112Y-67933000D01*
X108590468Y-67937565D01*
G37*
G36*
X84974228Y-67520703D02*
G01*
X85129100Y-67584853D01*
X85268481Y-67677985D01*
X85387015Y-67796519D01*
X85480147Y-67935900D01*
X85544297Y-68090772D01*
X85577000Y-68255184D01*
X85577000Y-68422816D01*
X85544297Y-68587228D01*
X85480147Y-68742100D01*
X85387015Y-68881481D01*
X85268481Y-69000015D01*
X85129100Y-69093147D01*
X84974228Y-69157297D01*
X84809816Y-69190000D01*
X84642184Y-69190000D01*
X84477772Y-69157297D01*
X84322900Y-69093147D01*
X84183519Y-69000015D01*
X84064985Y-68881481D01*
X83971853Y-68742100D01*
X83907703Y-68587228D01*
X83875000Y-68422816D01*
X83875000Y-68255184D01*
X83907703Y-68090772D01*
X83971853Y-67935900D01*
X84064985Y-67796519D01*
X84183519Y-67677985D01*
X84322900Y-67584853D01*
X84477772Y-67520703D01*
X84642184Y-67488000D01*
X84809816Y-67488000D01*
X84974228Y-67520703D01*
G37*
G36*
X118294228Y-66595703D02*
G01*
X118449100Y-66659853D01*
X118588481Y-66752985D01*
X118707015Y-66871519D01*
X118800147Y-67010900D01*
X118864297Y-67165772D01*
X118897000Y-67330184D01*
X118897000Y-67497816D01*
X118864297Y-67662228D01*
X118800147Y-67817100D01*
X118707015Y-67956481D01*
X118588481Y-68075015D01*
X118449100Y-68168147D01*
X118294228Y-68232297D01*
X118129816Y-68265000D01*
X117962184Y-68265000D01*
X117797772Y-68232297D01*
X117642900Y-68168147D01*
X117503519Y-68075015D01*
X117384985Y-67956481D01*
X117291853Y-67817100D01*
X117227703Y-67662228D01*
X117195000Y-67497816D01*
X117195000Y-67330184D01*
X117227703Y-67165772D01*
X117291853Y-67010900D01*
X117384985Y-66871519D01*
X117503519Y-66752985D01*
X117642900Y-66659853D01*
X117797772Y-66595703D01*
X117962184Y-66563000D01*
X118129816Y-66563000D01*
X118294228Y-66595703D01*
G37*
G36*
X103054228Y-66595703D02*
G01*
X103209100Y-66659853D01*
X103348481Y-66752985D01*
X103467015Y-66871519D01*
X103560147Y-67010900D01*
X103624297Y-67165772D01*
X103657000Y-67330184D01*
X103657000Y-67497816D01*
X103624297Y-67662228D01*
X103560147Y-67817100D01*
X103467015Y-67956481D01*
X103348481Y-68075015D01*
X103209100Y-68168147D01*
X103054228Y-68232297D01*
X102889816Y-68265000D01*
X102722184Y-68265000D01*
X102557772Y-68232297D01*
X102402900Y-68168147D01*
X102263519Y-68075015D01*
X102144985Y-67956481D01*
X102051853Y-67817100D01*
X101987703Y-67662228D01*
X101955000Y-67497816D01*
X101955000Y-67330184D01*
X101987703Y-67165772D01*
X102051853Y-67010900D01*
X102144985Y-66871519D01*
X102263519Y-66752985D01*
X102402900Y-66659853D01*
X102557772Y-66595703D01*
X102722184Y-66563000D01*
X102889816Y-66563000D01*
X103054228Y-66595703D01*
G37*
G36*
X95298916Y-66621334D02*
G01*
X95407492Y-66654271D01*
X95407495Y-66654272D01*
X95443009Y-66673255D01*
X95507557Y-66707756D01*
X95595264Y-66779736D01*
X95658383Y-66856646D01*
X95675702Y-66873965D01*
X95696077Y-66887579D01*
X95718716Y-66896957D01*
X95742749Y-66901737D01*
X95767253Y-66901737D01*
X95791286Y-66896957D01*
X95813925Y-66887579D01*
X95834299Y-66873966D01*
X95851626Y-66856639D01*
X95865240Y-66836264D01*
X95874618Y-66813625D01*
X95879398Y-66789592D01*
X95880000Y-66777340D01*
X95880000Y-66613000D01*
X97032000Y-66613000D01*
X97032000Y-68215000D01*
X95880000Y-68215000D01*
X95880000Y-68050660D01*
X95877598Y-68026274D01*
X95870485Y-68002825D01*
X95858934Y-67981214D01*
X95843389Y-67962272D01*
X95824447Y-67946727D01*
X95802836Y-67935176D01*
X95779387Y-67928063D01*
X95755001Y-67925661D01*
X95730615Y-67928063D01*
X95707166Y-67935176D01*
X95685555Y-67946727D01*
X95658381Y-67971356D01*
X95595264Y-68048264D01*
X95507556Y-68120244D01*
X95447173Y-68152519D01*
X95407494Y-68173728D01*
X95407491Y-68173729D01*
X95298915Y-68206666D01*
X95186000Y-68217787D01*
X95073084Y-68206666D01*
X94964508Y-68173729D01*
X94964505Y-68173728D01*
X94924826Y-68152519D01*
X94864443Y-68120244D01*
X94776736Y-68048264D01*
X94704756Y-67960556D01*
X94661239Y-67879140D01*
X94647625Y-67858766D01*
X94630298Y-67841439D01*
X94609924Y-67827825D01*
X94587285Y-67818448D01*
X94563251Y-67813668D01*
X94538747Y-67813668D01*
X94514714Y-67818449D01*
X94492075Y-67827826D01*
X94471701Y-67841440D01*
X94454374Y-67858767D01*
X94440762Y-67879140D01*
X94397244Y-67960557D01*
X94325264Y-68048264D01*
X94237556Y-68120244D01*
X94177173Y-68152519D01*
X94137494Y-68173728D01*
X94137491Y-68173729D01*
X94028915Y-68206666D01*
X93916000Y-68217787D01*
X93803084Y-68206666D01*
X93694508Y-68173729D01*
X93694505Y-68173728D01*
X93654826Y-68152519D01*
X93594443Y-68120244D01*
X93506736Y-68048264D01*
X93434756Y-67960556D01*
X93389936Y-67876703D01*
X93381272Y-67860494D01*
X93380748Y-67858766D01*
X93348334Y-67751915D01*
X93340000Y-67667297D01*
X93340000Y-67160702D01*
X93348334Y-67076084D01*
X93381271Y-66967508D01*
X93381272Y-66967505D01*
X93434756Y-66867445D01*
X93434757Y-66867443D01*
X93506737Y-66779736D01*
X93594444Y-66707756D01*
X93658992Y-66673255D01*
X93694506Y-66654272D01*
X93694509Y-66654271D01*
X93803085Y-66621334D01*
X93916000Y-66610213D01*
X94028916Y-66621334D01*
X94137492Y-66654271D01*
X94137495Y-66654272D01*
X94173009Y-66673255D01*
X94237557Y-66707756D01*
X94325264Y-66779736D01*
X94397244Y-66867443D01*
X94434293Y-66936758D01*
X94440761Y-66948859D01*
X94454375Y-66969234D01*
X94471702Y-66986561D01*
X94492076Y-67000174D01*
X94514715Y-67009552D01*
X94538748Y-67014332D01*
X94563252Y-67014332D01*
X94587285Y-67009552D01*
X94609924Y-67000174D01*
X94630299Y-66986560D01*
X94647626Y-66969233D01*
X94661239Y-66948859D01*
X94704756Y-66867445D01*
X94704757Y-66867443D01*
X94776737Y-66779736D01*
X94864444Y-66707756D01*
X94928992Y-66673255D01*
X94964506Y-66654272D01*
X94964509Y-66654271D01*
X95073085Y-66621334D01*
X95186000Y-66610213D01*
X95298916Y-66621334D01*
G37*
G36*
X87814228Y-66135703D02*
G01*
X87969100Y-66199853D01*
X88108481Y-66292985D01*
X88227015Y-66411519D01*
X88320147Y-66550900D01*
X88384297Y-66705772D01*
X88417000Y-66870184D01*
X88417000Y-67037816D01*
X88384297Y-67202228D01*
X88320147Y-67357100D01*
X88227015Y-67496481D01*
X88108481Y-67615015D01*
X87969100Y-67708147D01*
X87814228Y-67772297D01*
X87649816Y-67805000D01*
X87482184Y-67805000D01*
X87317772Y-67772297D01*
X87162900Y-67708147D01*
X87023519Y-67615015D01*
X86904985Y-67496481D01*
X86811853Y-67357100D01*
X86747703Y-67202228D01*
X86715000Y-67037816D01*
X86715000Y-66870184D01*
X86747703Y-66705772D01*
X86811853Y-66550900D01*
X86904985Y-66411519D01*
X87023519Y-66292985D01*
X87162900Y-66199853D01*
X87317772Y-66135703D01*
X87482184Y-66103000D01*
X87649816Y-66103000D01*
X87814228Y-66135703D01*
G37*
G36*
X48250228Y-65336703D02*
G01*
X48405100Y-65400853D01*
X48544481Y-65493985D01*
X48663015Y-65612519D01*
X48756147Y-65751900D01*
X48820297Y-65906772D01*
X48853000Y-66071184D01*
X48853000Y-66238816D01*
X48820297Y-66403228D01*
X48756147Y-66558100D01*
X48663015Y-66697481D01*
X48544481Y-66816015D01*
X48405100Y-66909147D01*
X48250228Y-66973297D01*
X48085816Y-67006000D01*
X47918184Y-67006000D01*
X47753772Y-66973297D01*
X47598900Y-66909147D01*
X47459519Y-66816015D01*
X47340985Y-66697481D01*
X47247853Y-66558100D01*
X47183703Y-66403228D01*
X47151000Y-66238816D01*
X47151000Y-66071184D01*
X47183703Y-65906772D01*
X47247853Y-65751900D01*
X47340985Y-65612519D01*
X47459519Y-65493985D01*
X47598900Y-65400853D01*
X47753772Y-65336703D01*
X47918184Y-65304000D01*
X48085816Y-65304000D01*
X48250228Y-65336703D01*
G37*
G36*
X33010228Y-65336703D02*
G01*
X33165100Y-65400853D01*
X33304481Y-65493985D01*
X33423015Y-65612519D01*
X33516147Y-65751900D01*
X33580297Y-65906772D01*
X33613000Y-66071184D01*
X33613000Y-66238816D01*
X33580297Y-66403228D01*
X33516147Y-66558100D01*
X33423015Y-66697481D01*
X33304481Y-66816015D01*
X33165100Y-66909147D01*
X33010228Y-66973297D01*
X32845816Y-67006000D01*
X32678184Y-67006000D01*
X32513772Y-66973297D01*
X32358900Y-66909147D01*
X32219519Y-66816015D01*
X32100985Y-66697481D01*
X32007853Y-66558100D01*
X31943703Y-66403228D01*
X31911000Y-66238816D01*
X31911000Y-66071184D01*
X31943703Y-65906772D01*
X32007853Y-65751900D01*
X32100985Y-65612519D01*
X32219519Y-65493985D01*
X32358900Y-65400853D01*
X32513772Y-65336703D01*
X32678184Y-65304000D01*
X32845816Y-65304000D01*
X33010228Y-65336703D01*
G37*
G36*
X71099142Y-65373242D02*
G01*
X71247101Y-65434529D01*
X71380255Y-65523499D01*
X71493501Y-65636745D01*
X71582471Y-65769899D01*
X71643758Y-65917858D01*
X71675000Y-66074925D01*
X71675000Y-66235075D01*
X71643758Y-66392142D01*
X71582471Y-66540101D01*
X71493501Y-66673255D01*
X71380255Y-66786501D01*
X71247101Y-66875471D01*
X71099142Y-66936758D01*
X70942075Y-66968000D01*
X70781925Y-66968000D01*
X70624858Y-66936758D01*
X70476899Y-66875471D01*
X70343745Y-66786501D01*
X70230499Y-66673255D01*
X70141529Y-66540101D01*
X70080242Y-66392142D01*
X70049000Y-66235075D01*
X70049000Y-66074925D01*
X70080242Y-65917858D01*
X70141529Y-65769899D01*
X70230499Y-65636745D01*
X70343745Y-65523499D01*
X70476899Y-65434529D01*
X70624858Y-65373242D01*
X70781925Y-65342000D01*
X70942075Y-65342000D01*
X71099142Y-65373242D01*
G37*
G36*
X52557142Y-65373242D02*
G01*
X52705101Y-65434529D01*
X52838255Y-65523499D01*
X52951501Y-65636745D01*
X53040471Y-65769899D01*
X53101758Y-65917858D01*
X53133000Y-66074925D01*
X53133000Y-66235075D01*
X53101758Y-66392142D01*
X53040471Y-66540101D01*
X52951501Y-66673255D01*
X52838255Y-66786501D01*
X52705101Y-66875471D01*
X52557142Y-66936758D01*
X52400075Y-66968000D01*
X52239925Y-66968000D01*
X52082858Y-66936758D01*
X51934899Y-66875471D01*
X51801745Y-66786501D01*
X51688499Y-66673255D01*
X51599529Y-66540101D01*
X51538242Y-66392142D01*
X51507000Y-66235075D01*
X51507000Y-66074925D01*
X51538242Y-65917858D01*
X51599529Y-65769899D01*
X51688499Y-65636745D01*
X51801745Y-65523499D01*
X51934899Y-65434529D01*
X52082858Y-65373242D01*
X52239925Y-65342000D01*
X52400075Y-65342000D01*
X52557142Y-65373242D01*
G37*
G36*
X84974228Y-64750703D02*
G01*
X85129100Y-64814853D01*
X85268481Y-64907985D01*
X85387015Y-65026519D01*
X85480147Y-65165900D01*
X85544297Y-65320772D01*
X85577000Y-65485184D01*
X85577000Y-65652816D01*
X85544297Y-65817228D01*
X85480147Y-65972100D01*
X85387015Y-66111481D01*
X85268481Y-66230015D01*
X85129100Y-66323147D01*
X84974228Y-66387297D01*
X84809816Y-66420000D01*
X84642184Y-66420000D01*
X84477772Y-66387297D01*
X84322900Y-66323147D01*
X84183519Y-66230015D01*
X84064985Y-66111481D01*
X83971853Y-65972100D01*
X83907703Y-65817228D01*
X83875000Y-65652816D01*
X83875000Y-65485184D01*
X83907703Y-65320772D01*
X83971853Y-65165900D01*
X84064985Y-65026519D01*
X84183519Y-64907985D01*
X84322900Y-64814853D01*
X84477772Y-64750703D01*
X84642184Y-64718000D01*
X84809816Y-64718000D01*
X84974228Y-64750703D01*
G37*
G36*
X111010468Y-65277565D02*
G01*
X111049138Y-65289296D01*
X111084777Y-65308346D01*
X111116017Y-65333983D01*
X111141654Y-65365223D01*
X111160704Y-65400862D01*
X111172435Y-65439532D01*
X111177000Y-65485888D01*
X111177000Y-66137112D01*
X111172435Y-66183468D01*
X111160704Y-66222138D01*
X111141654Y-66257777D01*
X111116017Y-66289017D01*
X111084777Y-66314654D01*
X111049138Y-66333704D01*
X111010468Y-66345435D01*
X110964112Y-66350000D01*
X109887888Y-66350000D01*
X109841532Y-66345435D01*
X109802862Y-66333704D01*
X109767223Y-66314654D01*
X109735983Y-66289017D01*
X109710346Y-66257777D01*
X109691296Y-66222138D01*
X109679565Y-66183468D01*
X109675000Y-66137112D01*
X109675000Y-65485888D01*
X109679565Y-65439532D01*
X109691296Y-65400862D01*
X109710346Y-65365223D01*
X109735983Y-65333983D01*
X109767223Y-65308346D01*
X109802862Y-65289296D01*
X109841532Y-65277565D01*
X109887888Y-65273000D01*
X110964112Y-65273000D01*
X111010468Y-65277565D01*
G37*
G36*
X108470468Y-65277565D02*
G01*
X108509138Y-65289296D01*
X108544777Y-65308346D01*
X108576017Y-65333983D01*
X108601654Y-65365223D01*
X108620704Y-65400862D01*
X108632435Y-65439532D01*
X108637000Y-65485888D01*
X108637000Y-66137112D01*
X108632435Y-66183468D01*
X108620704Y-66222138D01*
X108601654Y-66257777D01*
X108576017Y-66289017D01*
X108544777Y-66314654D01*
X108509138Y-66333704D01*
X108470468Y-66345435D01*
X108424112Y-66350000D01*
X107347888Y-66350000D01*
X107301532Y-66345435D01*
X107262862Y-66333704D01*
X107227223Y-66314654D01*
X107195983Y-66289017D01*
X107170346Y-66257777D01*
X107151296Y-66222138D01*
X107139565Y-66183468D01*
X107135000Y-66137112D01*
X107135000Y-65485888D01*
X107139565Y-65439532D01*
X107151296Y-65400862D01*
X107170346Y-65365223D01*
X107195983Y-65333983D01*
X107227223Y-65308346D01*
X107262862Y-65289296D01*
X107301532Y-65277565D01*
X107347888Y-65273000D01*
X108424112Y-65273000D01*
X108470468Y-65277565D01*
G37*
G36*
X118294228Y-64055703D02*
G01*
X118449100Y-64119853D01*
X118588481Y-64212985D01*
X118707015Y-64331519D01*
X118800147Y-64470900D01*
X118864297Y-64625772D01*
X118897000Y-64790184D01*
X118897000Y-64957816D01*
X118864297Y-65122228D01*
X118800147Y-65277100D01*
X118707015Y-65416481D01*
X118588481Y-65535015D01*
X118449100Y-65628147D01*
X118294228Y-65692297D01*
X118129816Y-65725000D01*
X117962184Y-65725000D01*
X117797772Y-65692297D01*
X117642900Y-65628147D01*
X117503519Y-65535015D01*
X117384985Y-65416481D01*
X117291853Y-65277100D01*
X117227703Y-65122228D01*
X117195000Y-64957816D01*
X117195000Y-64790184D01*
X117227703Y-64625772D01*
X117291853Y-64470900D01*
X117384985Y-64331519D01*
X117503519Y-64212985D01*
X117642900Y-64119853D01*
X117797772Y-64055703D01*
X117962184Y-64023000D01*
X118129816Y-64023000D01*
X118294228Y-64055703D01*
G37*
G36*
X103054228Y-64055703D02*
G01*
X103209100Y-64119853D01*
X103348481Y-64212985D01*
X103467015Y-64331519D01*
X103560147Y-64470900D01*
X103624297Y-64625772D01*
X103657000Y-64790184D01*
X103657000Y-64957816D01*
X103624297Y-65122228D01*
X103560147Y-65277100D01*
X103467015Y-65416481D01*
X103348481Y-65535015D01*
X103209100Y-65628147D01*
X103054228Y-65692297D01*
X102889816Y-65725000D01*
X102722184Y-65725000D01*
X102557772Y-65692297D01*
X102402900Y-65628147D01*
X102263519Y-65535015D01*
X102144985Y-65416481D01*
X102051853Y-65277100D01*
X101987703Y-65122228D01*
X101955000Y-64957816D01*
X101955000Y-64790184D01*
X101987703Y-64625772D01*
X102051853Y-64470900D01*
X102144985Y-64331519D01*
X102263519Y-64212985D01*
X102402900Y-64119853D01*
X102557772Y-64055703D01*
X102722184Y-64023000D01*
X102889816Y-64023000D01*
X103054228Y-64055703D01*
G37*
G36*
X87814228Y-63365703D02*
G01*
X87969100Y-63429853D01*
X88108481Y-63522985D01*
X88227015Y-63641519D01*
X88320147Y-63780900D01*
X88384297Y-63935772D01*
X88417000Y-64100184D01*
X88417000Y-64267816D01*
X88384297Y-64432228D01*
X88320147Y-64587100D01*
X88227015Y-64726481D01*
X88108481Y-64845015D01*
X87969100Y-64938147D01*
X87814228Y-65002297D01*
X87649816Y-65035000D01*
X87482184Y-65035000D01*
X87317772Y-65002297D01*
X87162900Y-64938147D01*
X87023519Y-64845015D01*
X86904985Y-64726481D01*
X86811853Y-64587100D01*
X86747703Y-64432228D01*
X86715000Y-64267816D01*
X86715000Y-64100184D01*
X86747703Y-63935772D01*
X86811853Y-63780900D01*
X86904985Y-63641519D01*
X87023519Y-63522985D01*
X87162900Y-63429853D01*
X87317772Y-63365703D01*
X87482184Y-63333000D01*
X87649816Y-63333000D01*
X87814228Y-63365703D01*
G37*
G36*
X64043468Y-63122565D02*
G01*
X64082138Y-63134296D01*
X64117777Y-63153346D01*
X64149017Y-63178983D01*
X64174654Y-63210223D01*
X64193704Y-63245862D01*
X64205435Y-63284532D01*
X64210000Y-63330888D01*
X64210000Y-64407112D01*
X64205435Y-64453468D01*
X64193704Y-64492138D01*
X64174654Y-64527777D01*
X64149017Y-64559017D01*
X64117777Y-64584654D01*
X64082138Y-64603704D01*
X64043468Y-64615435D01*
X63997112Y-64620000D01*
X63345888Y-64620000D01*
X63299532Y-64615435D01*
X63260862Y-64603704D01*
X63225223Y-64584654D01*
X63193983Y-64559017D01*
X63168346Y-64527777D01*
X63149296Y-64492138D01*
X63137565Y-64453468D01*
X63133000Y-64407112D01*
X63133000Y-63330888D01*
X63137565Y-63284532D01*
X63149296Y-63245862D01*
X63168346Y-63210223D01*
X63193983Y-63178983D01*
X63225223Y-63153346D01*
X63260862Y-63134296D01*
X63299532Y-63122565D01*
X63345888Y-63118000D01*
X63997112Y-63118000D01*
X64043468Y-63122565D01*
G37*
G36*
X66232468Y-63122565D02*
G01*
X66271138Y-63134296D01*
X66306777Y-63153346D01*
X66338017Y-63178983D01*
X66363654Y-63210223D01*
X66382704Y-63245862D01*
X66394435Y-63284532D01*
X66399000Y-63330888D01*
X66399000Y-64407112D01*
X66394435Y-64453468D01*
X66382704Y-64492138D01*
X66363654Y-64527777D01*
X66338017Y-64559017D01*
X66306777Y-64584654D01*
X66271138Y-64603704D01*
X66232468Y-64615435D01*
X66186112Y-64620000D01*
X65534888Y-64620000D01*
X65488532Y-64615435D01*
X65449862Y-64603704D01*
X65414223Y-64584654D01*
X65382983Y-64559017D01*
X65357346Y-64527777D01*
X65338296Y-64492138D01*
X65326565Y-64453468D01*
X65322000Y-64407112D01*
X65322000Y-63330888D01*
X65326565Y-63284532D01*
X65338296Y-63245862D01*
X65357346Y-63210223D01*
X65382983Y-63178983D01*
X65414223Y-63153346D01*
X65449862Y-63134296D01*
X65488532Y-63122565D01*
X65534888Y-63118000D01*
X66186112Y-63118000D01*
X66232468Y-63122565D01*
G37*
G36*
X68107468Y-63122565D02*
G01*
X68146138Y-63134296D01*
X68181777Y-63153346D01*
X68213017Y-63178983D01*
X68238654Y-63210223D01*
X68257704Y-63245862D01*
X68269435Y-63284532D01*
X68274000Y-63330888D01*
X68274000Y-64407112D01*
X68269435Y-64453468D01*
X68257704Y-64492138D01*
X68238654Y-64527777D01*
X68213017Y-64559017D01*
X68181777Y-64584654D01*
X68146138Y-64603704D01*
X68107468Y-64615435D01*
X68061112Y-64620000D01*
X67409888Y-64620000D01*
X67363532Y-64615435D01*
X67324862Y-64603704D01*
X67289223Y-64584654D01*
X67257983Y-64559017D01*
X67232346Y-64527777D01*
X67213296Y-64492138D01*
X67201565Y-64453468D01*
X67197000Y-64407112D01*
X67197000Y-63330888D01*
X67201565Y-63284532D01*
X67213296Y-63245862D01*
X67232346Y-63210223D01*
X67257983Y-63178983D01*
X67289223Y-63153346D01*
X67324862Y-63134296D01*
X67363532Y-63122565D01*
X67409888Y-63118000D01*
X68061112Y-63118000D01*
X68107468Y-63122565D01*
G37*
G36*
X62168468Y-63122565D02*
G01*
X62207138Y-63134296D01*
X62242777Y-63153346D01*
X62274017Y-63178983D01*
X62299654Y-63210223D01*
X62318704Y-63245862D01*
X62330435Y-63284532D01*
X62335000Y-63330888D01*
X62335000Y-64407112D01*
X62330435Y-64453468D01*
X62318704Y-64492138D01*
X62299654Y-64527777D01*
X62274017Y-64559017D01*
X62242777Y-64584654D01*
X62207138Y-64603704D01*
X62168468Y-64615435D01*
X62122112Y-64620000D01*
X61470888Y-64620000D01*
X61424532Y-64615435D01*
X61385862Y-64603704D01*
X61350223Y-64584654D01*
X61318983Y-64559017D01*
X61293346Y-64527777D01*
X61274296Y-64492138D01*
X61262565Y-64453468D01*
X61258000Y-64407112D01*
X61258000Y-63330888D01*
X61262565Y-63284532D01*
X61274296Y-63245862D01*
X61293346Y-63210223D01*
X61318983Y-63178983D01*
X61350223Y-63153346D01*
X61385862Y-63134296D01*
X61424532Y-63122565D01*
X61470888Y-63118000D01*
X62122112Y-63118000D01*
X62168468Y-63122565D01*
G37*
G36*
X111010468Y-63402565D02*
G01*
X111049138Y-63414296D01*
X111084777Y-63433346D01*
X111116017Y-63458983D01*
X111141654Y-63490223D01*
X111160704Y-63525862D01*
X111172435Y-63564532D01*
X111177000Y-63610888D01*
X111177000Y-64262112D01*
X111172435Y-64308468D01*
X111160704Y-64347138D01*
X111141654Y-64382777D01*
X111116017Y-64414017D01*
X111084777Y-64439654D01*
X111049138Y-64458704D01*
X111010468Y-64470435D01*
X110964112Y-64475000D01*
X109887888Y-64475000D01*
X109841532Y-64470435D01*
X109802862Y-64458704D01*
X109767223Y-64439654D01*
X109735983Y-64414017D01*
X109710346Y-64382777D01*
X109691296Y-64347138D01*
X109679565Y-64308468D01*
X109675000Y-64262112D01*
X109675000Y-63610888D01*
X109679565Y-63564532D01*
X109691296Y-63525862D01*
X109710346Y-63490223D01*
X109735983Y-63458983D01*
X109767223Y-63433346D01*
X109802862Y-63414296D01*
X109841532Y-63402565D01*
X109887888Y-63398000D01*
X110964112Y-63398000D01*
X111010468Y-63402565D01*
G37*
G36*
X108470468Y-63402565D02*
G01*
X108509138Y-63414296D01*
X108544777Y-63433346D01*
X108576017Y-63458983D01*
X108601654Y-63490223D01*
X108620704Y-63525862D01*
X108632435Y-63564532D01*
X108637000Y-63610888D01*
X108637000Y-64262112D01*
X108632435Y-64308468D01*
X108620704Y-64347138D01*
X108601654Y-64382777D01*
X108576017Y-64414017D01*
X108544777Y-64439654D01*
X108509138Y-64458704D01*
X108470468Y-64470435D01*
X108424112Y-64475000D01*
X107347888Y-64475000D01*
X107301532Y-64470435D01*
X107262862Y-64458704D01*
X107227223Y-64439654D01*
X107195983Y-64414017D01*
X107170346Y-64382777D01*
X107151296Y-64347138D01*
X107139565Y-64308468D01*
X107135000Y-64262112D01*
X107135000Y-63610888D01*
X107139565Y-63564532D01*
X107151296Y-63525862D01*
X107170346Y-63490223D01*
X107195983Y-63458983D01*
X107227223Y-63433346D01*
X107262862Y-63414296D01*
X107301532Y-63402565D01*
X107347888Y-63398000D01*
X108424112Y-63398000D01*
X108470468Y-63402565D01*
G37*
G36*
X48250228Y-62796703D02*
G01*
X48405100Y-62860853D01*
X48544481Y-62953985D01*
X48663015Y-63072519D01*
X48756147Y-63211900D01*
X48820297Y-63366772D01*
X48853000Y-63531184D01*
X48853000Y-63698816D01*
X48820297Y-63863228D01*
X48756147Y-64018100D01*
X48663015Y-64157481D01*
X48544481Y-64276015D01*
X48405100Y-64369147D01*
X48250228Y-64433297D01*
X48085816Y-64466000D01*
X47918184Y-64466000D01*
X47753772Y-64433297D01*
X47598900Y-64369147D01*
X47459519Y-64276015D01*
X47340985Y-64157481D01*
X47247853Y-64018100D01*
X47183703Y-63863228D01*
X47151000Y-63698816D01*
X47151000Y-63531184D01*
X47183703Y-63366772D01*
X47247853Y-63211900D01*
X47340985Y-63072519D01*
X47459519Y-62953985D01*
X47598900Y-62860853D01*
X47753772Y-62796703D01*
X47918184Y-62764000D01*
X48085816Y-62764000D01*
X48250228Y-62796703D01*
G37*
G36*
X33010228Y-62796703D02*
G01*
X33165100Y-62860853D01*
X33304481Y-62953985D01*
X33423015Y-63072519D01*
X33516147Y-63211900D01*
X33580297Y-63366772D01*
X33613000Y-63531184D01*
X33613000Y-63698816D01*
X33580297Y-63863228D01*
X33516147Y-64018100D01*
X33423015Y-64157481D01*
X33304481Y-64276015D01*
X33165100Y-64369147D01*
X33010228Y-64433297D01*
X32845816Y-64466000D01*
X32678184Y-64466000D01*
X32513772Y-64433297D01*
X32358900Y-64369147D01*
X32219519Y-64276015D01*
X32100985Y-64157481D01*
X32007853Y-64018100D01*
X31943703Y-63863228D01*
X31911000Y-63698816D01*
X31911000Y-63531184D01*
X31943703Y-63366772D01*
X32007853Y-63211900D01*
X32100985Y-63072519D01*
X32219519Y-62953985D01*
X32358900Y-62860853D01*
X32513772Y-62796703D01*
X32678184Y-62764000D01*
X32845816Y-62764000D01*
X33010228Y-62796703D01*
G37*
G36*
X52557142Y-62833242D02*
G01*
X52705101Y-62894529D01*
X52838255Y-62983499D01*
X52951501Y-63096745D01*
X53040471Y-63229899D01*
X53101758Y-63377858D01*
X53133000Y-63534925D01*
X53133000Y-63695075D01*
X53101758Y-63852142D01*
X53040471Y-64000101D01*
X52951501Y-64133255D01*
X52838255Y-64246501D01*
X52705101Y-64335471D01*
X52557142Y-64396758D01*
X52400075Y-64428000D01*
X52239925Y-64428000D01*
X52082858Y-64396758D01*
X51934899Y-64335471D01*
X51801745Y-64246501D01*
X51688499Y-64133255D01*
X51599529Y-64000101D01*
X51538242Y-63852142D01*
X51507000Y-63695075D01*
X51507000Y-63534925D01*
X51538242Y-63377858D01*
X51599529Y-63229899D01*
X51688499Y-63096745D01*
X51801745Y-62983499D01*
X51934899Y-62894529D01*
X52082858Y-62833242D01*
X52239925Y-62802000D01*
X52400075Y-62802000D01*
X52557142Y-62833242D01*
G37*
G36*
X71099142Y-62833242D02*
G01*
X71247101Y-62894529D01*
X71380255Y-62983499D01*
X71493501Y-63096745D01*
X71582471Y-63229899D01*
X71643758Y-63377858D01*
X71675000Y-63534925D01*
X71675000Y-63695075D01*
X71643758Y-63852142D01*
X71582471Y-64000101D01*
X71493501Y-64133255D01*
X71380255Y-64246501D01*
X71247101Y-64335471D01*
X71099142Y-64396758D01*
X70942075Y-64428000D01*
X70781925Y-64428000D01*
X70624858Y-64396758D01*
X70476899Y-64335471D01*
X70343745Y-64246501D01*
X70230499Y-64133255D01*
X70141529Y-64000101D01*
X70080242Y-63852142D01*
X70049000Y-63695075D01*
X70049000Y-63534925D01*
X70080242Y-63377858D01*
X70141529Y-63229899D01*
X70230499Y-63096745D01*
X70343745Y-62983499D01*
X70476899Y-62894529D01*
X70624858Y-62833242D01*
X70781925Y-62802000D01*
X70942075Y-62802000D01*
X71099142Y-62833242D01*
G37*
G36*
X84974228Y-61980703D02*
G01*
X85129100Y-62044853D01*
X85268481Y-62137985D01*
X85387015Y-62256519D01*
X85480147Y-62395900D01*
X85544297Y-62550772D01*
X85577000Y-62715184D01*
X85577000Y-62882816D01*
X85544297Y-63047228D01*
X85480147Y-63202100D01*
X85387015Y-63341481D01*
X85268481Y-63460015D01*
X85129100Y-63553147D01*
X84974228Y-63617297D01*
X84809816Y-63650000D01*
X84642184Y-63650000D01*
X84477772Y-63617297D01*
X84322900Y-63553147D01*
X84183519Y-63460015D01*
X84064985Y-63341481D01*
X83971853Y-63202100D01*
X83907703Y-63047228D01*
X83875000Y-62882816D01*
X83875000Y-62715184D01*
X83907703Y-62550772D01*
X83971853Y-62395900D01*
X84064985Y-62256519D01*
X84183519Y-62137985D01*
X84322900Y-62044853D01*
X84477772Y-61980703D01*
X84642184Y-61948000D01*
X84809816Y-61948000D01*
X84974228Y-61980703D01*
G37*
G36*
X92924205Y-61056461D02*
G01*
X93042153Y-61079922D01*
X93134194Y-61118047D01*
X93264359Y-61171963D01*
X93464342Y-61305587D01*
X93634413Y-61475658D01*
X93768037Y-61675641D01*
X93816035Y-61791519D01*
X93860078Y-61897847D01*
X93907000Y-62133742D01*
X93907000Y-62374258D01*
X93860078Y-62610153D01*
X93852983Y-62627281D01*
X93768037Y-62832359D01*
X93634413Y-63032342D01*
X93464342Y-63202413D01*
X93264359Y-63336037D01*
X93163396Y-63377857D01*
X93042153Y-63428078D01*
X92965239Y-63443377D01*
X92806259Y-63475000D01*
X92565741Y-63475000D01*
X92406761Y-63443377D01*
X92329847Y-63428078D01*
X92208604Y-63377857D01*
X92107641Y-63336037D01*
X91907658Y-63202413D01*
X91737587Y-63032342D01*
X91603963Y-62832359D01*
X91519017Y-62627281D01*
X91511922Y-62610153D01*
X91465000Y-62374258D01*
X91465000Y-62133742D01*
X91511922Y-61897847D01*
X91555965Y-61791519D01*
X91603963Y-61675641D01*
X91737587Y-61475658D01*
X91907658Y-61305587D01*
X92107641Y-61171963D01*
X92237806Y-61118047D01*
X92329847Y-61079922D01*
X92447795Y-61056461D01*
X92565741Y-61033000D01*
X92806259Y-61033000D01*
X92924205Y-61056461D01*
G37*
G36*
X97924205Y-61056461D02*
G01*
X98042153Y-61079922D01*
X98134194Y-61118047D01*
X98264359Y-61171963D01*
X98464342Y-61305587D01*
X98634413Y-61475658D01*
X98768037Y-61675641D01*
X98816035Y-61791519D01*
X98860078Y-61897847D01*
X98907000Y-62133742D01*
X98907000Y-62374258D01*
X98860078Y-62610153D01*
X98852983Y-62627281D01*
X98768037Y-62832359D01*
X98634413Y-63032342D01*
X98464342Y-63202413D01*
X98264359Y-63336037D01*
X98163396Y-63377857D01*
X98042153Y-63428078D01*
X97965239Y-63443377D01*
X97806259Y-63475000D01*
X97565741Y-63475000D01*
X97406761Y-63443377D01*
X97329847Y-63428078D01*
X97208604Y-63377857D01*
X97107641Y-63336037D01*
X96907658Y-63202413D01*
X96737587Y-63032342D01*
X96603963Y-62832359D01*
X96519017Y-62627281D01*
X96511922Y-62610153D01*
X96465000Y-62374258D01*
X96465000Y-62133742D01*
X96511922Y-61897847D01*
X96555965Y-61791519D01*
X96603963Y-61675641D01*
X96737587Y-61475658D01*
X96907658Y-61305587D01*
X97107641Y-61171963D01*
X97237806Y-61118047D01*
X97329847Y-61079922D01*
X97447795Y-61056461D01*
X97565741Y-61033000D01*
X97806259Y-61033000D01*
X97924205Y-61056461D01*
G37*
G36*
X103054228Y-61515703D02*
G01*
X103209100Y-61579853D01*
X103348481Y-61672985D01*
X103467015Y-61791519D01*
X103560147Y-61930900D01*
X103624297Y-62085772D01*
X103657000Y-62250184D01*
X103657000Y-62417816D01*
X103624297Y-62582228D01*
X103560147Y-62737100D01*
X103467015Y-62876481D01*
X103348481Y-62995015D01*
X103209100Y-63088147D01*
X103054228Y-63152297D01*
X102889816Y-63185000D01*
X102722184Y-63185000D01*
X102557772Y-63152297D01*
X102402900Y-63088147D01*
X102263519Y-62995015D01*
X102144985Y-62876481D01*
X102051853Y-62737100D01*
X101987703Y-62582228D01*
X101955000Y-62417816D01*
X101955000Y-62250184D01*
X101987703Y-62085772D01*
X102051853Y-61930900D01*
X102144985Y-61791519D01*
X102263519Y-61672985D01*
X102402900Y-61579853D01*
X102557772Y-61515703D01*
X102722184Y-61483000D01*
X102889816Y-61483000D01*
X103054228Y-61515703D01*
G37*
G36*
X118294228Y-61515703D02*
G01*
X118449100Y-61579853D01*
X118588481Y-61672985D01*
X118707015Y-61791519D01*
X118800147Y-61930900D01*
X118864297Y-62085772D01*
X118897000Y-62250184D01*
X118897000Y-62417816D01*
X118864297Y-62582228D01*
X118800147Y-62737100D01*
X118707015Y-62876481D01*
X118588481Y-62995015D01*
X118449100Y-63088147D01*
X118294228Y-63152297D01*
X118129816Y-63185000D01*
X117962184Y-63185000D01*
X117797772Y-63152297D01*
X117642900Y-63088147D01*
X117503519Y-62995015D01*
X117384985Y-62876481D01*
X117291853Y-62737100D01*
X117227703Y-62582228D01*
X117195000Y-62417816D01*
X117195000Y-62250184D01*
X117227703Y-62085772D01*
X117291853Y-61930900D01*
X117384985Y-61791519D01*
X117503519Y-61672985D01*
X117642900Y-61579853D01*
X117797772Y-61515703D01*
X117962184Y-61483000D01*
X118129816Y-61483000D01*
X118294228Y-61515703D01*
G37*
G36*
X87814228Y-60595703D02*
G01*
X87969100Y-60659853D01*
X88108481Y-60752985D01*
X88227015Y-60871519D01*
X88320147Y-61010900D01*
X88384297Y-61165772D01*
X88417000Y-61330184D01*
X88417000Y-61497816D01*
X88384297Y-61662228D01*
X88320147Y-61817100D01*
X88227015Y-61956481D01*
X88108481Y-62075015D01*
X87969100Y-62168147D01*
X87814228Y-62232297D01*
X87649816Y-62265000D01*
X87482184Y-62265000D01*
X87317772Y-62232297D01*
X87162900Y-62168147D01*
X87023519Y-62075015D01*
X86904985Y-61956481D01*
X86811853Y-61817100D01*
X86747703Y-61662228D01*
X86715000Y-61497816D01*
X86715000Y-61330184D01*
X86747703Y-61165772D01*
X86811853Y-61010900D01*
X86904985Y-60871519D01*
X87023519Y-60752985D01*
X87162900Y-60659853D01*
X87317772Y-60595703D01*
X87482184Y-60563000D01*
X87649816Y-60563000D01*
X87814228Y-60595703D01*
G37*
G36*
X33010228Y-60256703D02*
G01*
X33165100Y-60320853D01*
X33304481Y-60413985D01*
X33423015Y-60532519D01*
X33516147Y-60671900D01*
X33580297Y-60826772D01*
X33613000Y-60991184D01*
X33613000Y-61158816D01*
X33580297Y-61323228D01*
X33516147Y-61478100D01*
X33423015Y-61617481D01*
X33304481Y-61736015D01*
X33165100Y-61829147D01*
X33010228Y-61893297D01*
X32845816Y-61926000D01*
X32678184Y-61926000D01*
X32513772Y-61893297D01*
X32358900Y-61829147D01*
X32219519Y-61736015D01*
X32100985Y-61617481D01*
X32007853Y-61478100D01*
X31943703Y-61323228D01*
X31911000Y-61158816D01*
X31911000Y-60991184D01*
X31943703Y-60826772D01*
X32007853Y-60671900D01*
X32100985Y-60532519D01*
X32219519Y-60413985D01*
X32358900Y-60320853D01*
X32513772Y-60256703D01*
X32678184Y-60224000D01*
X32845816Y-60224000D01*
X33010228Y-60256703D01*
G37*
G36*
X48250228Y-60256703D02*
G01*
X48405100Y-60320853D01*
X48544481Y-60413985D01*
X48663015Y-60532519D01*
X48756147Y-60671900D01*
X48820297Y-60826772D01*
X48853000Y-60991184D01*
X48853000Y-61158816D01*
X48820297Y-61323228D01*
X48756147Y-61478100D01*
X48663015Y-61617481D01*
X48544481Y-61736015D01*
X48405100Y-61829147D01*
X48250228Y-61893297D01*
X48085816Y-61926000D01*
X47918184Y-61926000D01*
X47753772Y-61893297D01*
X47598900Y-61829147D01*
X47459519Y-61736015D01*
X47340985Y-61617481D01*
X47247853Y-61478100D01*
X47183703Y-61323228D01*
X47151000Y-61158816D01*
X47151000Y-60991184D01*
X47183703Y-60826772D01*
X47247853Y-60671900D01*
X47340985Y-60532519D01*
X47459519Y-60413985D01*
X47598900Y-60320853D01*
X47753772Y-60256703D01*
X47918184Y-60224000D01*
X48085816Y-60224000D01*
X48250228Y-60256703D01*
G37*
G36*
X103054228Y-58975703D02*
G01*
X103209100Y-59039853D01*
X103348481Y-59132985D01*
X103467015Y-59251519D01*
X103560147Y-59390900D01*
X103624297Y-59545772D01*
X103657000Y-59710184D01*
X103657000Y-59877816D01*
X103624297Y-60042228D01*
X103560147Y-60197100D01*
X103467015Y-60336481D01*
X103348481Y-60455015D01*
X103209100Y-60548147D01*
X103054228Y-60612297D01*
X102889816Y-60645000D01*
X102722184Y-60645000D01*
X102557772Y-60612297D01*
X102402900Y-60548147D01*
X102263519Y-60455015D01*
X102144985Y-60336481D01*
X102051853Y-60197100D01*
X101987703Y-60042228D01*
X101955000Y-59877816D01*
X101955000Y-59710184D01*
X101987703Y-59545772D01*
X102051853Y-59390900D01*
X102144985Y-59251519D01*
X102263519Y-59132985D01*
X102402900Y-59039853D01*
X102557772Y-58975703D01*
X102722184Y-58943000D01*
X102889816Y-58943000D01*
X103054228Y-58975703D01*
G37*
G36*
X118294228Y-58975703D02*
G01*
X118449100Y-59039853D01*
X118588481Y-59132985D01*
X118707015Y-59251519D01*
X118800147Y-59390900D01*
X118864297Y-59545772D01*
X118897000Y-59710184D01*
X118897000Y-59877816D01*
X118864297Y-60042228D01*
X118800147Y-60197100D01*
X118707015Y-60336481D01*
X118588481Y-60455015D01*
X118449100Y-60548147D01*
X118294228Y-60612297D01*
X118129816Y-60645000D01*
X117962184Y-60645000D01*
X117797772Y-60612297D01*
X117642900Y-60548147D01*
X117503519Y-60455015D01*
X117384985Y-60336481D01*
X117291853Y-60197100D01*
X117227703Y-60042228D01*
X117195000Y-59877816D01*
X117195000Y-59710184D01*
X117227703Y-59545772D01*
X117291853Y-59390900D01*
X117384985Y-59251519D01*
X117503519Y-59132985D01*
X117642900Y-59039853D01*
X117797772Y-58975703D01*
X117962184Y-58943000D01*
X118129816Y-58943000D01*
X118294228Y-58975703D01*
G37*
G36*
X33613000Y-59386000D02*
G01*
X31911000Y-59386000D01*
X31911000Y-57684000D01*
X33613000Y-57684000D01*
X33613000Y-59386000D01*
G37*
G36*
X48250228Y-57716703D02*
G01*
X48405100Y-57780853D01*
X48544481Y-57873985D01*
X48663015Y-57992519D01*
X48756147Y-58131900D01*
X48820297Y-58286772D01*
X48853000Y-58451184D01*
X48853000Y-58618816D01*
X48820297Y-58783228D01*
X48756147Y-58938100D01*
X48663015Y-59077481D01*
X48544481Y-59196015D01*
X48405100Y-59289147D01*
X48250228Y-59353297D01*
X48085816Y-59386000D01*
X47918184Y-59386000D01*
X47753772Y-59353297D01*
X47598900Y-59289147D01*
X47459519Y-59196015D01*
X47340985Y-59077481D01*
X47247853Y-58938100D01*
X47183703Y-58783228D01*
X47151000Y-58618816D01*
X47151000Y-58451184D01*
X47183703Y-58286772D01*
X47247853Y-58131900D01*
X47340985Y-57992519D01*
X47459519Y-57873985D01*
X47598900Y-57780853D01*
X47753772Y-57716703D01*
X47918184Y-57684000D01*
X48085816Y-57684000D01*
X48250228Y-57716703D01*
G37*
G36*
X95784254Y-55281818D02*
G01*
X96157511Y-55436426D01*
X96157513Y-55436427D01*
X96493436Y-55660884D01*
X96779116Y-55946564D01*
X96994400Y-56268758D01*
X97003574Y-56282489D01*
X97158182Y-56655746D01*
X97237000Y-57051993D01*
X97237000Y-57456007D01*
X97158182Y-57852254D01*
X97003574Y-58225511D01*
X97003573Y-58225513D01*
X96779116Y-58561436D01*
X96493436Y-58847116D01*
X96157513Y-59071573D01*
X96157512Y-59071574D01*
X96157511Y-59071574D01*
X95784254Y-59226182D01*
X95388007Y-59305000D01*
X94983993Y-59305000D01*
X94587746Y-59226182D01*
X94214489Y-59071574D01*
X94214488Y-59071574D01*
X94214487Y-59071573D01*
X93878564Y-58847116D01*
X93592884Y-58561436D01*
X93368427Y-58225513D01*
X93368426Y-58225511D01*
X93213818Y-57852254D01*
X93135000Y-57456007D01*
X93135000Y-57051993D01*
X93213818Y-56655746D01*
X93368426Y-56282489D01*
X93377601Y-56268758D01*
X93592884Y-55946564D01*
X93878564Y-55660884D01*
X94214487Y-55436427D01*
X94214489Y-55436426D01*
X94587746Y-55281818D01*
X94983993Y-55203000D01*
X95388007Y-55203000D01*
X95784254Y-55281818D01*
G37*
G36*
X91960468Y-57657565D02*
G01*
X91999138Y-57669296D01*
X92034777Y-57688346D01*
X92066017Y-57713983D01*
X92091654Y-57745223D01*
X92110704Y-57780862D01*
X92122435Y-57819532D01*
X92127000Y-57865888D01*
X92127000Y-58517112D01*
X92122435Y-58563468D01*
X92110704Y-58602138D01*
X92091654Y-58637777D01*
X92066017Y-58669017D01*
X92034777Y-58694654D01*
X91999138Y-58713704D01*
X91960468Y-58725435D01*
X91914112Y-58730000D01*
X90837888Y-58730000D01*
X90791532Y-58725435D01*
X90752862Y-58713704D01*
X90717223Y-58694654D01*
X90685983Y-58669017D01*
X90660346Y-58637777D01*
X90641296Y-58602138D01*
X90629565Y-58563468D01*
X90625000Y-58517112D01*
X90625000Y-57865888D01*
X90629565Y-57819532D01*
X90641296Y-57780862D01*
X90660346Y-57745223D01*
X90685983Y-57713983D01*
X90717223Y-57688346D01*
X90752862Y-57669296D01*
X90791532Y-57657565D01*
X90837888Y-57653000D01*
X91914112Y-57653000D01*
X91960468Y-57657565D01*
G37*
G36*
X118294228Y-56435703D02*
G01*
X118449100Y-56499853D01*
X118588481Y-56592985D01*
X118707015Y-56711519D01*
X118800147Y-56850900D01*
X118864297Y-57005772D01*
X118897000Y-57170184D01*
X118897000Y-57337816D01*
X118864297Y-57502228D01*
X118800147Y-57657100D01*
X118707015Y-57796481D01*
X118588481Y-57915015D01*
X118449100Y-58008147D01*
X118294228Y-58072297D01*
X118129816Y-58105000D01*
X117962184Y-58105000D01*
X117797772Y-58072297D01*
X117642900Y-58008147D01*
X117503519Y-57915015D01*
X117384985Y-57796481D01*
X117291853Y-57657100D01*
X117227703Y-57502228D01*
X117195000Y-57337816D01*
X117195000Y-57170184D01*
X117227703Y-57005772D01*
X117291853Y-56850900D01*
X117384985Y-56711519D01*
X117503519Y-56592985D01*
X117642900Y-56499853D01*
X117797772Y-56435703D01*
X117962184Y-56403000D01*
X118129816Y-56403000D01*
X118294228Y-56435703D01*
G37*
G36*
X103054228Y-56435703D02*
G01*
X103209100Y-56499853D01*
X103348481Y-56592985D01*
X103467015Y-56711519D01*
X103560147Y-56850900D01*
X103624297Y-57005772D01*
X103657000Y-57170184D01*
X103657000Y-57337816D01*
X103624297Y-57502228D01*
X103560147Y-57657100D01*
X103467015Y-57796481D01*
X103348481Y-57915015D01*
X103209100Y-58008147D01*
X103054228Y-58072297D01*
X102889816Y-58105000D01*
X102722184Y-58105000D01*
X102557772Y-58072297D01*
X102402900Y-58008147D01*
X102263519Y-57915015D01*
X102144985Y-57796481D01*
X102051853Y-57657100D01*
X101987703Y-57502228D01*
X101955000Y-57337816D01*
X101955000Y-57170184D01*
X101987703Y-57005772D01*
X102051853Y-56850900D01*
X102144985Y-56711519D01*
X102263519Y-56592985D01*
X102402900Y-56499853D01*
X102557772Y-56435703D01*
X102722184Y-56403000D01*
X102889816Y-56403000D01*
X103054228Y-56435703D01*
G37*
G36*
X91960468Y-55782565D02*
G01*
X91999138Y-55794296D01*
X92034777Y-55813346D01*
X92066017Y-55838983D01*
X92091654Y-55870223D01*
X92110704Y-55905862D01*
X92122435Y-55944532D01*
X92127000Y-55990888D01*
X92127000Y-56642112D01*
X92122435Y-56688468D01*
X92110704Y-56727138D01*
X92091654Y-56762777D01*
X92066017Y-56794017D01*
X92034777Y-56819654D01*
X91999138Y-56838704D01*
X91960468Y-56850435D01*
X91914112Y-56855000D01*
X90837888Y-56855000D01*
X90791532Y-56850435D01*
X90752862Y-56838704D01*
X90717223Y-56819654D01*
X90685983Y-56794017D01*
X90660346Y-56762777D01*
X90641296Y-56727138D01*
X90629565Y-56688468D01*
X90625000Y-56642112D01*
X90625000Y-55990888D01*
X90629565Y-55944532D01*
X90641296Y-55905862D01*
X90660346Y-55870223D01*
X90685983Y-55838983D01*
X90717223Y-55813346D01*
X90752862Y-55794296D01*
X90791532Y-55782565D01*
X90837888Y-55778000D01*
X91914112Y-55778000D01*
X91960468Y-55782565D01*
G37*
G36*
X99764604Y-55442347D02*
G01*
X99801144Y-55453432D01*
X99834821Y-55471433D01*
X99864341Y-55495659D01*
X99888567Y-55525179D01*
X99906568Y-55558856D01*
X99917653Y-55595396D01*
X99922000Y-55639538D01*
X99922000Y-56588462D01*
X99917653Y-56632604D01*
X99906568Y-56669144D01*
X99888567Y-56702821D01*
X99864341Y-56732341D01*
X99834821Y-56756567D01*
X99801144Y-56774568D01*
X99764604Y-56785653D01*
X99720462Y-56790000D01*
X98271538Y-56790000D01*
X98227396Y-56785653D01*
X98190856Y-56774568D01*
X98157179Y-56756567D01*
X98127659Y-56732341D01*
X98103433Y-56702821D01*
X98085432Y-56669144D01*
X98074347Y-56632604D01*
X98070000Y-56588462D01*
X98070000Y-55639538D01*
X98074347Y-55595396D01*
X98085432Y-55558856D01*
X98103433Y-55525179D01*
X98127659Y-55495659D01*
X98157179Y-55471433D01*
X98190856Y-55453432D01*
X98227396Y-55442347D01*
X98271538Y-55438000D01*
X99720462Y-55438000D01*
X99764604Y-55442347D01*
G37*
G36*
X86744254Y-52481818D02*
G01*
X87054082Y-52610153D01*
X87117513Y-52636427D01*
X87453436Y-52860884D01*
X87739116Y-53146564D01*
X87764226Y-53184143D01*
X87963574Y-53482489D01*
X88118182Y-53855746D01*
X88197000Y-54251993D01*
X88197000Y-54656007D01*
X88118182Y-55052254D01*
X87971272Y-55406926D01*
X87963573Y-55425513D01*
X87739116Y-55761436D01*
X87453436Y-56047116D01*
X87117513Y-56271573D01*
X87117512Y-56271574D01*
X87117511Y-56271574D01*
X86744254Y-56426182D01*
X86348007Y-56505000D01*
X85943993Y-56505000D01*
X85547746Y-56426182D01*
X85174489Y-56271574D01*
X85174488Y-56271574D01*
X85174487Y-56271573D01*
X84838564Y-56047116D01*
X84552884Y-55761436D01*
X84328427Y-55425513D01*
X84320728Y-55406926D01*
X84173818Y-55052254D01*
X84095000Y-54656007D01*
X84095000Y-54251993D01*
X84173818Y-53855746D01*
X84328426Y-53482489D01*
X84527775Y-53184143D01*
X84552884Y-53146564D01*
X84838564Y-52860884D01*
X85174487Y-52636427D01*
X85237918Y-52610153D01*
X85547746Y-52481818D01*
X85943993Y-52403000D01*
X86348007Y-52403000D01*
X86744254Y-52481818D01*
G37*
G36*
X71099142Y-54705242D02*
G01*
X71247101Y-54766529D01*
X71380255Y-54855499D01*
X71493501Y-54968745D01*
X71582471Y-55101899D01*
X71643758Y-55249858D01*
X71675000Y-55406925D01*
X71675000Y-55567075D01*
X71643758Y-55724142D01*
X71582471Y-55872101D01*
X71493501Y-56005255D01*
X71380255Y-56118501D01*
X71247101Y-56207471D01*
X71099142Y-56268758D01*
X70942075Y-56300000D01*
X70781925Y-56300000D01*
X70624858Y-56268758D01*
X70476899Y-56207471D01*
X70343745Y-56118501D01*
X70230499Y-56005255D01*
X70141529Y-55872101D01*
X70080242Y-55724142D01*
X70049000Y-55567075D01*
X70049000Y-55406925D01*
X70080242Y-55249858D01*
X70141529Y-55101899D01*
X70230499Y-54968745D01*
X70343745Y-54855499D01*
X70476899Y-54766529D01*
X70624858Y-54705242D01*
X70781925Y-54674000D01*
X70942075Y-54674000D01*
X71099142Y-54705242D01*
G37*
G36*
X52557142Y-54705242D02*
G01*
X52705101Y-54766529D01*
X52838255Y-54855499D01*
X52951501Y-54968745D01*
X53040471Y-55101899D01*
X53101758Y-55249858D01*
X53133000Y-55406925D01*
X53133000Y-55567075D01*
X53101758Y-55724142D01*
X53040471Y-55872101D01*
X52951501Y-56005255D01*
X52838255Y-56118501D01*
X52705101Y-56207471D01*
X52557142Y-56268758D01*
X52400075Y-56300000D01*
X52239925Y-56300000D01*
X52082858Y-56268758D01*
X51934899Y-56207471D01*
X51801745Y-56118501D01*
X51688499Y-56005255D01*
X51599529Y-55872101D01*
X51538242Y-55724142D01*
X51507000Y-55567075D01*
X51507000Y-55406925D01*
X51538242Y-55249858D01*
X51599529Y-55101899D01*
X51688499Y-54968745D01*
X51801745Y-54855499D01*
X51934899Y-54766529D01*
X52082858Y-54705242D01*
X52239925Y-54674000D01*
X52400075Y-54674000D01*
X52557142Y-54705242D01*
G37*
G36*
X99764604Y-52642347D02*
G01*
X99801144Y-52653432D01*
X99834821Y-52671433D01*
X99864341Y-52695659D01*
X99888567Y-52725179D01*
X99906568Y-52758856D01*
X99917653Y-52795396D01*
X99922000Y-52839538D01*
X99922000Y-53788462D01*
X99917653Y-53832604D01*
X99906568Y-53869144D01*
X99888567Y-53902821D01*
X99864341Y-53932341D01*
X99834821Y-53956567D01*
X99801144Y-53974568D01*
X99764604Y-53985653D01*
X99720462Y-53990000D01*
X98271538Y-53990000D01*
X98227396Y-53985653D01*
X98190856Y-53974568D01*
X98157179Y-53956567D01*
X98127659Y-53932341D01*
X98103433Y-53902821D01*
X98085432Y-53869144D01*
X98074347Y-53832604D01*
X98070000Y-53788462D01*
X98070000Y-52839538D01*
X98074347Y-52795396D01*
X98085432Y-52758856D01*
X98103433Y-52725179D01*
X98127659Y-52695659D01*
X98157179Y-52671433D01*
X98190856Y-52653432D01*
X98227396Y-52642347D01*
X98271538Y-52638000D01*
X99720462Y-52638000D01*
X99764604Y-52642347D01*
G37*
G36*
X52557142Y-52165242D02*
G01*
X52705101Y-52226529D01*
X52838255Y-52315499D01*
X52951501Y-52428745D01*
X53040471Y-52561899D01*
X53101758Y-52709858D01*
X53133000Y-52866925D01*
X53133000Y-53027075D01*
X53101758Y-53184142D01*
X53040471Y-53332101D01*
X52951501Y-53465255D01*
X52838255Y-53578501D01*
X52705101Y-53667471D01*
X52557142Y-53728758D01*
X52400075Y-53760000D01*
X52239925Y-53760000D01*
X52082858Y-53728758D01*
X51934899Y-53667471D01*
X51801745Y-53578501D01*
X51688499Y-53465255D01*
X51599529Y-53332101D01*
X51538242Y-53184142D01*
X51507000Y-53027075D01*
X51507000Y-52866925D01*
X51538242Y-52709858D01*
X51599529Y-52561899D01*
X51688499Y-52428745D01*
X51801745Y-52315499D01*
X51934899Y-52226529D01*
X52082858Y-52165242D01*
X52239925Y-52134000D01*
X52400075Y-52134000D01*
X52557142Y-52165242D01*
G37*
G36*
X71099142Y-52165242D02*
G01*
X71247101Y-52226529D01*
X71380255Y-52315499D01*
X71493501Y-52428745D01*
X71582471Y-52561899D01*
X71643758Y-52709858D01*
X71675000Y-52866925D01*
X71675000Y-53027075D01*
X71643758Y-53184142D01*
X71582471Y-53332101D01*
X71493501Y-53465255D01*
X71380255Y-53578501D01*
X71247101Y-53667471D01*
X71099142Y-53728758D01*
X70942075Y-53760000D01*
X70781925Y-53760000D01*
X70624858Y-53728758D01*
X70476899Y-53667471D01*
X70343745Y-53578501D01*
X70230499Y-53465255D01*
X70141529Y-53332101D01*
X70080242Y-53184142D01*
X70049000Y-53027075D01*
X70049000Y-52866925D01*
X70080242Y-52709858D01*
X70141529Y-52561899D01*
X70230499Y-52428745D01*
X70343745Y-52315499D01*
X70476899Y-52226529D01*
X70624858Y-52165242D01*
X70781925Y-52134000D01*
X70942075Y-52134000D01*
X71099142Y-52165242D01*
G37*
G36*
X95542153Y-51079922D02*
G01*
X95634194Y-51118047D01*
X95764359Y-51171963D01*
X95964342Y-51305587D01*
X96134413Y-51475658D01*
X96268037Y-51675641D01*
X96279473Y-51703250D01*
X96360078Y-51897847D01*
X96407000Y-52133742D01*
X96407000Y-52374258D01*
X96360078Y-52610153D01*
X96334695Y-52671433D01*
X96268037Y-52832359D01*
X96134413Y-53032342D01*
X95964342Y-53202413D01*
X95764359Y-53336037D01*
X95634194Y-53389953D01*
X95542153Y-53428078D01*
X95424205Y-53451539D01*
X95306259Y-53475000D01*
X95065741Y-53475000D01*
X94947795Y-53451539D01*
X94829847Y-53428078D01*
X94737806Y-53389953D01*
X94607641Y-53336037D01*
X94407658Y-53202413D01*
X94237587Y-53032342D01*
X94103963Y-52832359D01*
X94037305Y-52671433D01*
X94011922Y-52610153D01*
X93965000Y-52374258D01*
X93965000Y-52133742D01*
X94011922Y-51897847D01*
X94092527Y-51703250D01*
X94103963Y-51675641D01*
X94237587Y-51475658D01*
X94407658Y-51305587D01*
X94607641Y-51171963D01*
X94737806Y-51118047D01*
X94829847Y-51079922D01*
X95065741Y-51033000D01*
X95306259Y-51033000D01*
X95542153Y-51079922D01*
G37*
G36*
X43626468Y-51438565D02*
G01*
X43665138Y-51450296D01*
X43700777Y-51469346D01*
X43732017Y-51494983D01*
X43757654Y-51526223D01*
X43776704Y-51561862D01*
X43788435Y-51600532D01*
X43793000Y-51646888D01*
X43793000Y-52723112D01*
X43788435Y-52769468D01*
X43776704Y-52808138D01*
X43757654Y-52843777D01*
X43732017Y-52875017D01*
X43700777Y-52900654D01*
X43665138Y-52919704D01*
X43626468Y-52931435D01*
X43580112Y-52936000D01*
X42928888Y-52936000D01*
X42882532Y-52931435D01*
X42843862Y-52919704D01*
X42808223Y-52900654D01*
X42776983Y-52875017D01*
X42751346Y-52843777D01*
X42732296Y-52808138D01*
X42720565Y-52769468D01*
X42716000Y-52723112D01*
X42716000Y-51646888D01*
X42720565Y-51600532D01*
X42732296Y-51561862D01*
X42751346Y-51526223D01*
X42776983Y-51494983D01*
X42808223Y-51469346D01*
X42843862Y-51450296D01*
X42882532Y-51438565D01*
X42928888Y-51434000D01*
X43580112Y-51434000D01*
X43626468Y-51438565D01*
G37*
G36*
X35673968Y-51438565D02*
G01*
X35712638Y-51450296D01*
X35748277Y-51469346D01*
X35779517Y-51494983D01*
X35805154Y-51526223D01*
X35824204Y-51561862D01*
X35835935Y-51600532D01*
X35840500Y-51646888D01*
X35840500Y-52723112D01*
X35835935Y-52769468D01*
X35824204Y-52808138D01*
X35805154Y-52843777D01*
X35779517Y-52875017D01*
X35748277Y-52900654D01*
X35712638Y-52919704D01*
X35673968Y-52931435D01*
X35627612Y-52936000D01*
X34976388Y-52936000D01*
X34930032Y-52931435D01*
X34891362Y-52919704D01*
X34855723Y-52900654D01*
X34824483Y-52875017D01*
X34798846Y-52843777D01*
X34779796Y-52808138D01*
X34768065Y-52769468D01*
X34763500Y-52723112D01*
X34763500Y-51646888D01*
X34768065Y-51600532D01*
X34779796Y-51561862D01*
X34798846Y-51526223D01*
X34824483Y-51494983D01*
X34855723Y-51469346D01*
X34891362Y-51450296D01*
X34930032Y-51438565D01*
X34976388Y-51434000D01*
X35627612Y-51434000D01*
X35673968Y-51438565D01*
G37*
G36*
X37548968Y-51438565D02*
G01*
X37587638Y-51450296D01*
X37623277Y-51469346D01*
X37654517Y-51494983D01*
X37680154Y-51526223D01*
X37699204Y-51561862D01*
X37710935Y-51600532D01*
X37715500Y-51646888D01*
X37715500Y-52723112D01*
X37710935Y-52769468D01*
X37699204Y-52808138D01*
X37680154Y-52843777D01*
X37654517Y-52875017D01*
X37623277Y-52900654D01*
X37587638Y-52919704D01*
X37548968Y-52931435D01*
X37502612Y-52936000D01*
X36851388Y-52936000D01*
X36805032Y-52931435D01*
X36766362Y-52919704D01*
X36730723Y-52900654D01*
X36699483Y-52875017D01*
X36673846Y-52843777D01*
X36654796Y-52808138D01*
X36643065Y-52769468D01*
X36638500Y-52723112D01*
X36638500Y-51646888D01*
X36643065Y-51600532D01*
X36654796Y-51561862D01*
X36673846Y-51526223D01*
X36699483Y-51494983D01*
X36730723Y-51469346D01*
X36766362Y-51450296D01*
X36805032Y-51438565D01*
X36851388Y-51434000D01*
X37502612Y-51434000D01*
X37548968Y-51438565D01*
G37*
G36*
X45501468Y-51438565D02*
G01*
X45540138Y-51450296D01*
X45575777Y-51469346D01*
X45607017Y-51494983D01*
X45632654Y-51526223D01*
X45651704Y-51561862D01*
X45663435Y-51600532D01*
X45668000Y-51646888D01*
X45668000Y-52723112D01*
X45663435Y-52769468D01*
X45651704Y-52808138D01*
X45632654Y-52843777D01*
X45607017Y-52875017D01*
X45575777Y-52900654D01*
X45540138Y-52919704D01*
X45501468Y-52931435D01*
X45455112Y-52936000D01*
X44803888Y-52936000D01*
X44757532Y-52931435D01*
X44718862Y-52919704D01*
X44683223Y-52900654D01*
X44651983Y-52875017D01*
X44626346Y-52843777D01*
X44607296Y-52808138D01*
X44595565Y-52769468D01*
X44591000Y-52723112D01*
X44591000Y-51646888D01*
X44595565Y-51600532D01*
X44607296Y-51561862D01*
X44626346Y-51526223D01*
X44651983Y-51494983D01*
X44683223Y-51469346D01*
X44718862Y-51450296D01*
X44757532Y-51438565D01*
X44803888Y-51434000D01*
X45455112Y-51434000D01*
X45501468Y-51438565D01*
G37*
M02*
