G04 #@! TF.GenerationSoftware,KiCad,Pcbnew,5.1.5-52549c5~84~ubuntu19.10.1*
G04 #@! TF.CreationDate,2020-04-18T11:45:40+03:00*
G04 #@! TF.ProjectId,hymTracker_Panel,68796d54-7261-4636-9b65-725f50616e65,rev?*
G04 #@! TF.SameCoordinates,Original*
G04 #@! TF.FileFunction,Legend,Bot*
G04 #@! TF.FilePolarity,Positive*
%FSLAX46Y46*%
G04 Gerber Fmt 4.6, Leading zero omitted, Abs format (unit mm)*
G04 Created by KiCad (PCBNEW 5.1.5-52549c5~84~ubuntu19.10.1) date 2020-04-18 11:45:40*
%MOMM*%
%LPD*%
G04 APERTURE LIST*
%ADD10C,0.120000*%
%ADD11C,0.150000*%
G04 APERTURE END LIST*
D10*
X108897422Y-70514000D02*
X109414578Y-70514000D01*
X108897422Y-71934000D02*
X109414578Y-71934000D01*
X98086000Y-55316064D02*
X98086000Y-54111936D01*
X99906000Y-55316064D02*
X99906000Y-54111936D01*
X109716000Y-65132578D02*
X109716000Y-64615422D01*
X111136000Y-65132578D02*
X111136000Y-64615422D01*
X88332578Y-88190000D02*
X87815422Y-88190000D01*
X88332578Y-86770000D02*
X87815422Y-86770000D01*
X114827078Y-99874000D02*
X114309922Y-99874000D01*
X114827078Y-98454000D02*
X114309922Y-98454000D01*
X108897422Y-76864000D02*
X109414578Y-76864000D01*
X108897422Y-78284000D02*
X109414578Y-78284000D01*
X104931000Y-98204000D02*
X107616000Y-98204000D01*
X104931000Y-100124000D02*
X104931000Y-98204000D01*
X107616000Y-100124000D02*
X104931000Y-100124000D01*
X108897422Y-74324000D02*
X109414578Y-74324000D01*
X108897422Y-75744000D02*
X109414578Y-75744000D01*
X84268578Y-88190000D02*
X83751422Y-88190000D01*
X84268578Y-86770000D02*
X83751422Y-86770000D01*
X114236000Y-73764000D02*
G75*
G03X114236000Y-73764000I-1524000J0D01*
G01*
X114236000Y-93830000D02*
G75*
G03X114236000Y-93830000I-1524000J0D01*
G01*
X84518000Y-93830000D02*
G75*
G03X84518000Y-93830000I-1524000J0D01*
G01*
X84518000Y-73764000D02*
G75*
G03X84518000Y-73764000I-1524000J0D01*
G01*
X115506000Y-96878000D02*
X115760000Y-96878000D01*
X115760000Y-96878000D02*
X115760000Y-70716000D01*
X79946000Y-96878000D02*
X115506000Y-96878000D01*
X79946000Y-70716000D02*
X79946000Y-96878000D01*
X115760000Y-70716000D02*
X79946000Y-70716000D01*
X108596000Y-64615422D02*
X108596000Y-65132578D01*
X107176000Y-64615422D02*
X107176000Y-65132578D01*
X92086000Y-56995422D02*
X92086000Y-57512578D01*
X90666000Y-56995422D02*
X90666000Y-57512578D01*
X94174578Y-70664000D02*
X93657422Y-70664000D01*
X94174578Y-69244000D02*
X93657422Y-69244000D01*
X108897422Y-67974000D02*
X109414578Y-67974000D01*
X108897422Y-69394000D02*
X109414578Y-69394000D01*
X41910578Y-81955000D02*
X41393422Y-81955000D01*
X41910578Y-83375000D02*
X41393422Y-83375000D01*
X56633422Y-82105000D02*
X57150578Y-82105000D01*
X56633422Y-80685000D02*
X57150578Y-80685000D01*
X60142000Y-94353578D02*
X60142000Y-93836422D01*
X58722000Y-94353578D02*
X58722000Y-93836422D01*
X43632000Y-86733578D02*
X43632000Y-86216422D01*
X42212000Y-86733578D02*
X42212000Y-86216422D01*
X35048000Y-80633000D02*
X70862000Y-80633000D01*
X70862000Y-80633000D02*
X70862000Y-54471000D01*
X70862000Y-54471000D02*
X35302000Y-54471000D01*
X35048000Y-54471000D02*
X35048000Y-80633000D01*
X35302000Y-54471000D02*
X35048000Y-54471000D01*
X69338000Y-77585000D02*
G75*
G03X69338000Y-77585000I-1524000J0D01*
G01*
X69338000Y-57519000D02*
G75*
G03X69338000Y-57519000I-1524000J0D01*
G01*
X39620000Y-57519000D02*
G75*
G03X39620000Y-57519000I-1524000J0D01*
G01*
X39620000Y-77585000D02*
G75*
G03X39620000Y-77585000I-1524000J0D01*
G01*
X66539422Y-64579000D02*
X67056578Y-64579000D01*
X66539422Y-63159000D02*
X67056578Y-63159000D01*
X41910578Y-75605000D02*
X41393422Y-75605000D01*
X41910578Y-77025000D02*
X41393422Y-77025000D01*
X43192000Y-51225000D02*
X45877000Y-51225000D01*
X45877000Y-51225000D02*
X45877000Y-53145000D01*
X45877000Y-53145000D02*
X43192000Y-53145000D01*
X41910578Y-73065000D02*
X41393422Y-73065000D01*
X41910578Y-74485000D02*
X41393422Y-74485000D01*
X35980922Y-52895000D02*
X36498078Y-52895000D01*
X35980922Y-51475000D02*
X36498078Y-51475000D01*
X62475422Y-64579000D02*
X62992578Y-64579000D01*
X62475422Y-63159000D02*
X62992578Y-63159000D01*
X39672000Y-86216422D02*
X39672000Y-86733578D01*
X41092000Y-86216422D02*
X41092000Y-86733578D01*
X50902000Y-96032936D02*
X50902000Y-97237064D01*
X52722000Y-96032936D02*
X52722000Y-97237064D01*
X41910578Y-79415000D02*
X41393422Y-79415000D01*
X41910578Y-80835000D02*
X41393422Y-80835000D01*
D11*
X106782666Y-71676380D02*
X107116000Y-71200190D01*
X107354095Y-71676380D02*
X107354095Y-70676380D01*
X106973142Y-70676380D01*
X106877904Y-70724000D01*
X106830285Y-70771619D01*
X106782666Y-70866857D01*
X106782666Y-71009714D01*
X106830285Y-71104952D01*
X106877904Y-71152571D01*
X106973142Y-71200190D01*
X107354095Y-71200190D01*
X105925523Y-70676380D02*
X106116000Y-70676380D01*
X106211238Y-70724000D01*
X106258857Y-70771619D01*
X106354095Y-70914476D01*
X106401714Y-71104952D01*
X106401714Y-71485904D01*
X106354095Y-71581142D01*
X106306476Y-71628761D01*
X106211238Y-71676380D01*
X106020761Y-71676380D01*
X105925523Y-71628761D01*
X105877904Y-71581142D01*
X105830285Y-71485904D01*
X105830285Y-71247809D01*
X105877904Y-71152571D01*
X105925523Y-71104952D01*
X106020761Y-71057333D01*
X106211238Y-71057333D01*
X106306476Y-71104952D01*
X106354095Y-71152571D01*
X106401714Y-71247809D01*
X101173142Y-54547333D02*
X101220761Y-54499714D01*
X101268380Y-54356857D01*
X101268380Y-54261619D01*
X101220761Y-54118761D01*
X101125523Y-54023523D01*
X101030285Y-53975904D01*
X100839809Y-53928285D01*
X100696952Y-53928285D01*
X100506476Y-53975904D01*
X100411238Y-54023523D01*
X100316000Y-54118761D01*
X100268380Y-54261619D01*
X100268380Y-54356857D01*
X100316000Y-54499714D01*
X100363619Y-54547333D01*
X100363619Y-54928285D02*
X100316000Y-54975904D01*
X100268380Y-55071142D01*
X100268380Y-55309238D01*
X100316000Y-55404476D01*
X100363619Y-55452095D01*
X100458857Y-55499714D01*
X100554095Y-55499714D01*
X100696952Y-55452095D01*
X101268380Y-54880666D01*
X101268380Y-55499714D01*
X112433142Y-64707333D02*
X112480761Y-64659714D01*
X112528380Y-64516857D01*
X112528380Y-64421619D01*
X112480761Y-64278761D01*
X112385523Y-64183523D01*
X112290285Y-64135904D01*
X112099809Y-64088285D01*
X111956952Y-64088285D01*
X111766476Y-64135904D01*
X111671238Y-64183523D01*
X111576000Y-64278761D01*
X111528380Y-64421619D01*
X111528380Y-64516857D01*
X111576000Y-64659714D01*
X111623619Y-64707333D01*
X112528380Y-65659714D02*
X112528380Y-65088285D01*
X112528380Y-65374000D02*
X111528380Y-65374000D01*
X111671238Y-65278761D01*
X111766476Y-65183523D01*
X111814095Y-65088285D01*
X88240666Y-86282380D02*
X88574000Y-85806190D01*
X88812095Y-86282380D02*
X88812095Y-85282380D01*
X88431142Y-85282380D01*
X88335904Y-85330000D01*
X88288285Y-85377619D01*
X88240666Y-85472857D01*
X88240666Y-85615714D01*
X88288285Y-85710952D01*
X88335904Y-85758571D01*
X88431142Y-85806190D01*
X88812095Y-85806190D01*
X87859714Y-85377619D02*
X87812095Y-85330000D01*
X87716857Y-85282380D01*
X87478761Y-85282380D01*
X87383523Y-85330000D01*
X87335904Y-85377619D01*
X87288285Y-85472857D01*
X87288285Y-85568095D01*
X87335904Y-85710952D01*
X87907333Y-86282380D01*
X87288285Y-86282380D01*
X114735166Y-97966380D02*
X115068500Y-97490190D01*
X115306595Y-97966380D02*
X115306595Y-96966380D01*
X114925642Y-96966380D01*
X114830404Y-97014000D01*
X114782785Y-97061619D01*
X114735166Y-97156857D01*
X114735166Y-97299714D01*
X114782785Y-97394952D01*
X114830404Y-97442571D01*
X114925642Y-97490190D01*
X115306595Y-97490190D01*
X114401833Y-96966380D02*
X113782785Y-96966380D01*
X114116119Y-97347333D01*
X113973261Y-97347333D01*
X113878023Y-97394952D01*
X113830404Y-97442571D01*
X113782785Y-97537809D01*
X113782785Y-97775904D01*
X113830404Y-97871142D01*
X113878023Y-97918761D01*
X113973261Y-97966380D01*
X114258976Y-97966380D01*
X114354214Y-97918761D01*
X114401833Y-97871142D01*
X106782666Y-78026380D02*
X107116000Y-77550190D01*
X107354095Y-78026380D02*
X107354095Y-77026380D01*
X106973142Y-77026380D01*
X106877904Y-77074000D01*
X106830285Y-77121619D01*
X106782666Y-77216857D01*
X106782666Y-77359714D01*
X106830285Y-77454952D01*
X106877904Y-77502571D01*
X106973142Y-77550190D01*
X107354095Y-77550190D01*
X105925523Y-77359714D02*
X105925523Y-78026380D01*
X106163619Y-76978761D02*
X106401714Y-77693047D01*
X105782666Y-77693047D01*
X107354095Y-101266380D02*
X107354095Y-100266380D01*
X107116000Y-100266380D01*
X106973142Y-100314000D01*
X106877904Y-100409238D01*
X106830285Y-100504476D01*
X106782666Y-100694952D01*
X106782666Y-100837809D01*
X106830285Y-101028285D01*
X106877904Y-101123523D01*
X106973142Y-101218761D01*
X107116000Y-101266380D01*
X107354095Y-101266380D01*
X105830285Y-101266380D02*
X106401714Y-101266380D01*
X106116000Y-101266380D02*
X106116000Y-100266380D01*
X106211238Y-100409238D01*
X106306476Y-100504476D01*
X106401714Y-100552095D01*
X106782666Y-75486380D02*
X107116000Y-75010190D01*
X107354095Y-75486380D02*
X107354095Y-74486380D01*
X106973142Y-74486380D01*
X106877904Y-74534000D01*
X106830285Y-74581619D01*
X106782666Y-74676857D01*
X106782666Y-74819714D01*
X106830285Y-74914952D01*
X106877904Y-74962571D01*
X106973142Y-75010190D01*
X107354095Y-75010190D01*
X105877904Y-74486380D02*
X106354095Y-74486380D01*
X106401714Y-74962571D01*
X106354095Y-74914952D01*
X106258857Y-74867333D01*
X106020761Y-74867333D01*
X105925523Y-74914952D01*
X105877904Y-74962571D01*
X105830285Y-75057809D01*
X105830285Y-75295904D01*
X105877904Y-75391142D01*
X105925523Y-75438761D01*
X106020761Y-75486380D01*
X106258857Y-75486380D01*
X106354095Y-75438761D01*
X106401714Y-75391142D01*
X84176666Y-86282380D02*
X84510000Y-85806190D01*
X84748095Y-86282380D02*
X84748095Y-85282380D01*
X84367142Y-85282380D01*
X84271904Y-85330000D01*
X84224285Y-85377619D01*
X84176666Y-85472857D01*
X84176666Y-85615714D01*
X84224285Y-85710952D01*
X84271904Y-85758571D01*
X84367142Y-85806190D01*
X84748095Y-85806190D01*
X83224285Y-86282380D02*
X83795714Y-86282380D01*
X83510000Y-86282380D02*
X83510000Y-85282380D01*
X83605238Y-85425238D01*
X83700476Y-85520476D01*
X83795714Y-85568095D01*
X97979904Y-82606380D02*
X97979904Y-83415904D01*
X97932285Y-83511142D01*
X97884666Y-83558761D01*
X97789428Y-83606380D01*
X97598952Y-83606380D01*
X97503714Y-83558761D01*
X97456095Y-83511142D01*
X97408476Y-83415904D01*
X97408476Y-82606380D01*
X96979904Y-82701619D02*
X96932285Y-82654000D01*
X96837047Y-82606380D01*
X96598952Y-82606380D01*
X96503714Y-82654000D01*
X96456095Y-82701619D01*
X96408476Y-82796857D01*
X96408476Y-82892095D01*
X96456095Y-83034952D01*
X97027523Y-83606380D01*
X96408476Y-83606380D01*
X106688380Y-64707333D02*
X106212190Y-64374000D01*
X106688380Y-64135904D02*
X105688380Y-64135904D01*
X105688380Y-64516857D01*
X105736000Y-64612095D01*
X105783619Y-64659714D01*
X105878857Y-64707333D01*
X106021714Y-64707333D01*
X106116952Y-64659714D01*
X106164571Y-64612095D01*
X106212190Y-64516857D01*
X106212190Y-64135904D01*
X106688380Y-65183523D02*
X106688380Y-65374000D01*
X106640761Y-65469238D01*
X106593142Y-65516857D01*
X106450285Y-65612095D01*
X106259809Y-65659714D01*
X105878857Y-65659714D01*
X105783619Y-65612095D01*
X105736000Y-65564476D01*
X105688380Y-65469238D01*
X105688380Y-65278761D01*
X105736000Y-65183523D01*
X105783619Y-65135904D01*
X105878857Y-65088285D01*
X106116952Y-65088285D01*
X106212190Y-65135904D01*
X106259809Y-65183523D01*
X106307428Y-65278761D01*
X106307428Y-65469238D01*
X106259809Y-65564476D01*
X106212190Y-65612095D01*
X106116952Y-65659714D01*
X90178380Y-56611142D02*
X89702190Y-56277809D01*
X90178380Y-56039714D02*
X89178380Y-56039714D01*
X89178380Y-56420666D01*
X89226000Y-56515904D01*
X89273619Y-56563523D01*
X89368857Y-56611142D01*
X89511714Y-56611142D01*
X89606952Y-56563523D01*
X89654571Y-56515904D01*
X89702190Y-56420666D01*
X89702190Y-56039714D01*
X90178380Y-57563523D02*
X90178380Y-56992095D01*
X90178380Y-57277809D02*
X89178380Y-57277809D01*
X89321238Y-57182571D01*
X89416476Y-57087333D01*
X89464095Y-56992095D01*
X89178380Y-58182571D02*
X89178380Y-58277809D01*
X89226000Y-58373047D01*
X89273619Y-58420666D01*
X89368857Y-58468285D01*
X89559333Y-58515904D01*
X89797428Y-58515904D01*
X89987904Y-58468285D01*
X90083142Y-58420666D01*
X90130761Y-58373047D01*
X90178380Y-58277809D01*
X90178380Y-58182571D01*
X90130761Y-58087333D01*
X90083142Y-58039714D01*
X89987904Y-57992095D01*
X89797428Y-57944476D01*
X89559333Y-57944476D01*
X89368857Y-57992095D01*
X89273619Y-58039714D01*
X89226000Y-58087333D01*
X89178380Y-58182571D01*
X94082666Y-68756380D02*
X94416000Y-68280190D01*
X94654095Y-68756380D02*
X94654095Y-67756380D01*
X94273142Y-67756380D01*
X94177904Y-67804000D01*
X94130285Y-67851619D01*
X94082666Y-67946857D01*
X94082666Y-68089714D01*
X94130285Y-68184952D01*
X94177904Y-68232571D01*
X94273142Y-68280190D01*
X94654095Y-68280190D01*
X93511238Y-68184952D02*
X93606476Y-68137333D01*
X93654095Y-68089714D01*
X93701714Y-67994476D01*
X93701714Y-67946857D01*
X93654095Y-67851619D01*
X93606476Y-67804000D01*
X93511238Y-67756380D01*
X93320761Y-67756380D01*
X93225523Y-67804000D01*
X93177904Y-67851619D01*
X93130285Y-67946857D01*
X93130285Y-67994476D01*
X93177904Y-68089714D01*
X93225523Y-68137333D01*
X93320761Y-68184952D01*
X93511238Y-68184952D01*
X93606476Y-68232571D01*
X93654095Y-68280190D01*
X93701714Y-68375428D01*
X93701714Y-68565904D01*
X93654095Y-68661142D01*
X93606476Y-68708761D01*
X93511238Y-68756380D01*
X93320761Y-68756380D01*
X93225523Y-68708761D01*
X93177904Y-68661142D01*
X93130285Y-68565904D01*
X93130285Y-68375428D01*
X93177904Y-68280190D01*
X93225523Y-68232571D01*
X93320761Y-68184952D01*
X106782666Y-69136380D02*
X107116000Y-68660190D01*
X107354095Y-69136380D02*
X107354095Y-68136380D01*
X106973142Y-68136380D01*
X106877904Y-68184000D01*
X106830285Y-68231619D01*
X106782666Y-68326857D01*
X106782666Y-68469714D01*
X106830285Y-68564952D01*
X106877904Y-68612571D01*
X106973142Y-68660190D01*
X107354095Y-68660190D01*
X106449333Y-68136380D02*
X105782666Y-68136380D01*
X106211238Y-69136380D01*
X44358666Y-83117380D02*
X44692000Y-82641190D01*
X44930095Y-83117380D02*
X44930095Y-82117380D01*
X44549142Y-82117380D01*
X44453904Y-82165000D01*
X44406285Y-82212619D01*
X44358666Y-82307857D01*
X44358666Y-82450714D01*
X44406285Y-82545952D01*
X44453904Y-82593571D01*
X44549142Y-82641190D01*
X44930095Y-82641190D01*
X44025333Y-82117380D02*
X43358666Y-82117380D01*
X43787238Y-83117380D01*
X57058666Y-83497380D02*
X57392000Y-83021190D01*
X57630095Y-83497380D02*
X57630095Y-82497380D01*
X57249142Y-82497380D01*
X57153904Y-82545000D01*
X57106285Y-82592619D01*
X57058666Y-82687857D01*
X57058666Y-82830714D01*
X57106285Y-82925952D01*
X57153904Y-82973571D01*
X57249142Y-83021190D01*
X57630095Y-83021190D01*
X56487238Y-82925952D02*
X56582476Y-82878333D01*
X56630095Y-82830714D01*
X56677714Y-82735476D01*
X56677714Y-82687857D01*
X56630095Y-82592619D01*
X56582476Y-82545000D01*
X56487238Y-82497380D01*
X56296761Y-82497380D01*
X56201523Y-82545000D01*
X56153904Y-82592619D01*
X56106285Y-82687857D01*
X56106285Y-82735476D01*
X56153904Y-82830714D01*
X56201523Y-82878333D01*
X56296761Y-82925952D01*
X56487238Y-82925952D01*
X56582476Y-82973571D01*
X56630095Y-83021190D01*
X56677714Y-83116428D01*
X56677714Y-83306904D01*
X56630095Y-83402142D01*
X56582476Y-83449761D01*
X56487238Y-83497380D01*
X56296761Y-83497380D01*
X56201523Y-83449761D01*
X56153904Y-83402142D01*
X56106285Y-83306904D01*
X56106285Y-83116428D01*
X56153904Y-83021190D01*
X56201523Y-82973571D01*
X56296761Y-82925952D01*
X61534380Y-93452142D02*
X61058190Y-93118809D01*
X61534380Y-92880714D02*
X60534380Y-92880714D01*
X60534380Y-93261666D01*
X60582000Y-93356904D01*
X60629619Y-93404523D01*
X60724857Y-93452142D01*
X60867714Y-93452142D01*
X60962952Y-93404523D01*
X61010571Y-93356904D01*
X61058190Y-93261666D01*
X61058190Y-92880714D01*
X61534380Y-94404523D02*
X61534380Y-93833095D01*
X61534380Y-94118809D02*
X60534380Y-94118809D01*
X60677238Y-94023571D01*
X60772476Y-93928333D01*
X60820095Y-93833095D01*
X60534380Y-95023571D02*
X60534380Y-95118809D01*
X60582000Y-95214047D01*
X60629619Y-95261666D01*
X60724857Y-95309285D01*
X60915333Y-95356904D01*
X61153428Y-95356904D01*
X61343904Y-95309285D01*
X61439142Y-95261666D01*
X61486761Y-95214047D01*
X61534380Y-95118809D01*
X61534380Y-95023571D01*
X61486761Y-94928333D01*
X61439142Y-94880714D01*
X61343904Y-94833095D01*
X61153428Y-94785476D01*
X60915333Y-94785476D01*
X60724857Y-94833095D01*
X60629619Y-94880714D01*
X60582000Y-94928333D01*
X60534380Y-95023571D01*
X45024380Y-86308333D02*
X44548190Y-85975000D01*
X45024380Y-85736904D02*
X44024380Y-85736904D01*
X44024380Y-86117857D01*
X44072000Y-86213095D01*
X44119619Y-86260714D01*
X44214857Y-86308333D01*
X44357714Y-86308333D01*
X44452952Y-86260714D01*
X44500571Y-86213095D01*
X44548190Y-86117857D01*
X44548190Y-85736904D01*
X45024380Y-86784523D02*
X45024380Y-86975000D01*
X44976761Y-87070238D01*
X44929142Y-87117857D01*
X44786285Y-87213095D01*
X44595809Y-87260714D01*
X44214857Y-87260714D01*
X44119619Y-87213095D01*
X44072000Y-87165476D01*
X44024380Y-87070238D01*
X44024380Y-86879761D01*
X44072000Y-86784523D01*
X44119619Y-86736904D01*
X44214857Y-86689285D01*
X44452952Y-86689285D01*
X44548190Y-86736904D01*
X44595809Y-86784523D01*
X44643428Y-86879761D01*
X44643428Y-87070238D01*
X44595809Y-87165476D01*
X44548190Y-87213095D01*
X44452952Y-87260714D01*
X54351904Y-67647380D02*
X54351904Y-68456904D01*
X54304285Y-68552142D01*
X54256666Y-68599761D01*
X54161428Y-68647380D01*
X53970952Y-68647380D01*
X53875714Y-68599761D01*
X53828095Y-68552142D01*
X53780476Y-68456904D01*
X53780476Y-67647380D01*
X53351904Y-67742619D02*
X53304285Y-67695000D01*
X53209047Y-67647380D01*
X52970952Y-67647380D01*
X52875714Y-67695000D01*
X52828095Y-67742619D01*
X52780476Y-67837857D01*
X52780476Y-67933095D01*
X52828095Y-68075952D01*
X53399523Y-68647380D01*
X52780476Y-68647380D01*
X66964666Y-65971380D02*
X67298000Y-65495190D01*
X67536095Y-65971380D02*
X67536095Y-64971380D01*
X67155142Y-64971380D01*
X67059904Y-65019000D01*
X67012285Y-65066619D01*
X66964666Y-65161857D01*
X66964666Y-65304714D01*
X67012285Y-65399952D01*
X67059904Y-65447571D01*
X67155142Y-65495190D01*
X67536095Y-65495190D01*
X66012285Y-65971380D02*
X66583714Y-65971380D01*
X66298000Y-65971380D02*
X66298000Y-64971380D01*
X66393238Y-65114238D01*
X66488476Y-65209476D01*
X66583714Y-65257095D01*
X44358666Y-76767380D02*
X44692000Y-76291190D01*
X44930095Y-76767380D02*
X44930095Y-75767380D01*
X44549142Y-75767380D01*
X44453904Y-75815000D01*
X44406285Y-75862619D01*
X44358666Y-75957857D01*
X44358666Y-76100714D01*
X44406285Y-76195952D01*
X44453904Y-76243571D01*
X44549142Y-76291190D01*
X44930095Y-76291190D01*
X43453904Y-75767380D02*
X43930095Y-75767380D01*
X43977714Y-76243571D01*
X43930095Y-76195952D01*
X43834857Y-76148333D01*
X43596761Y-76148333D01*
X43501523Y-76195952D01*
X43453904Y-76243571D01*
X43406285Y-76338809D01*
X43406285Y-76576904D01*
X43453904Y-76672142D01*
X43501523Y-76719761D01*
X43596761Y-76767380D01*
X43834857Y-76767380D01*
X43930095Y-76719761D01*
X43977714Y-76672142D01*
X44930095Y-50987380D02*
X44930095Y-49987380D01*
X44692000Y-49987380D01*
X44549142Y-50035000D01*
X44453904Y-50130238D01*
X44406285Y-50225476D01*
X44358666Y-50415952D01*
X44358666Y-50558809D01*
X44406285Y-50749285D01*
X44453904Y-50844523D01*
X44549142Y-50939761D01*
X44692000Y-50987380D01*
X44930095Y-50987380D01*
X43406285Y-50987380D02*
X43977714Y-50987380D01*
X43692000Y-50987380D02*
X43692000Y-49987380D01*
X43787238Y-50130238D01*
X43882476Y-50225476D01*
X43977714Y-50273095D01*
X44358666Y-74227380D02*
X44692000Y-73751190D01*
X44930095Y-74227380D02*
X44930095Y-73227380D01*
X44549142Y-73227380D01*
X44453904Y-73275000D01*
X44406285Y-73322619D01*
X44358666Y-73417857D01*
X44358666Y-73560714D01*
X44406285Y-73655952D01*
X44453904Y-73703571D01*
X44549142Y-73751190D01*
X44930095Y-73751190D01*
X43501523Y-73560714D02*
X43501523Y-74227380D01*
X43739619Y-73179761D02*
X43977714Y-73894047D01*
X43358666Y-73894047D01*
X36406166Y-54287380D02*
X36739500Y-53811190D01*
X36977595Y-54287380D02*
X36977595Y-53287380D01*
X36596642Y-53287380D01*
X36501404Y-53335000D01*
X36453785Y-53382619D01*
X36406166Y-53477857D01*
X36406166Y-53620714D01*
X36453785Y-53715952D01*
X36501404Y-53763571D01*
X36596642Y-53811190D01*
X36977595Y-53811190D01*
X36072833Y-53287380D02*
X35453785Y-53287380D01*
X35787119Y-53668333D01*
X35644261Y-53668333D01*
X35549023Y-53715952D01*
X35501404Y-53763571D01*
X35453785Y-53858809D01*
X35453785Y-54096904D01*
X35501404Y-54192142D01*
X35549023Y-54239761D01*
X35644261Y-54287380D01*
X35929976Y-54287380D01*
X36025214Y-54239761D01*
X36072833Y-54192142D01*
X62900666Y-65971380D02*
X63234000Y-65495190D01*
X63472095Y-65971380D02*
X63472095Y-64971380D01*
X63091142Y-64971380D01*
X62995904Y-65019000D01*
X62948285Y-65066619D01*
X62900666Y-65161857D01*
X62900666Y-65304714D01*
X62948285Y-65399952D01*
X62995904Y-65447571D01*
X63091142Y-65495190D01*
X63472095Y-65495190D01*
X62519714Y-65066619D02*
X62472095Y-65019000D01*
X62376857Y-64971380D01*
X62138761Y-64971380D01*
X62043523Y-65019000D01*
X61995904Y-65066619D01*
X61948285Y-65161857D01*
X61948285Y-65257095D01*
X61995904Y-65399952D01*
X62567333Y-65971380D01*
X61948285Y-65971380D01*
X39089142Y-86308333D02*
X39136761Y-86260714D01*
X39184380Y-86117857D01*
X39184380Y-86022619D01*
X39136761Y-85879761D01*
X39041523Y-85784523D01*
X38946285Y-85736904D01*
X38755809Y-85689285D01*
X38612952Y-85689285D01*
X38422476Y-85736904D01*
X38327238Y-85784523D01*
X38232000Y-85879761D01*
X38184380Y-86022619D01*
X38184380Y-86117857D01*
X38232000Y-86260714D01*
X38279619Y-86308333D01*
X39184380Y-87260714D02*
X39184380Y-86689285D01*
X39184380Y-86975000D02*
X38184380Y-86975000D01*
X38327238Y-86879761D01*
X38422476Y-86784523D01*
X38470095Y-86689285D01*
X50349142Y-96468333D02*
X50396761Y-96420714D01*
X50444380Y-96277857D01*
X50444380Y-96182619D01*
X50396761Y-96039761D01*
X50301523Y-95944523D01*
X50206285Y-95896904D01*
X50015809Y-95849285D01*
X49872952Y-95849285D01*
X49682476Y-95896904D01*
X49587238Y-95944523D01*
X49492000Y-96039761D01*
X49444380Y-96182619D01*
X49444380Y-96277857D01*
X49492000Y-96420714D01*
X49539619Y-96468333D01*
X49539619Y-96849285D02*
X49492000Y-96896904D01*
X49444380Y-96992142D01*
X49444380Y-97230238D01*
X49492000Y-97325476D01*
X49539619Y-97373095D01*
X49634857Y-97420714D01*
X49730095Y-97420714D01*
X49872952Y-97373095D01*
X50444380Y-96801666D01*
X50444380Y-97420714D01*
X44358666Y-80577380D02*
X44692000Y-80101190D01*
X44930095Y-80577380D02*
X44930095Y-79577380D01*
X44549142Y-79577380D01*
X44453904Y-79625000D01*
X44406285Y-79672619D01*
X44358666Y-79767857D01*
X44358666Y-79910714D01*
X44406285Y-80005952D01*
X44453904Y-80053571D01*
X44549142Y-80101190D01*
X44930095Y-80101190D01*
X43501523Y-79577380D02*
X43692000Y-79577380D01*
X43787238Y-79625000D01*
X43834857Y-79672619D01*
X43930095Y-79815476D01*
X43977714Y-80005952D01*
X43977714Y-80386904D01*
X43930095Y-80482142D01*
X43882476Y-80529761D01*
X43787238Y-80577380D01*
X43596761Y-80577380D01*
X43501523Y-80529761D01*
X43453904Y-80482142D01*
X43406285Y-80386904D01*
X43406285Y-80148809D01*
X43453904Y-80053571D01*
X43501523Y-80005952D01*
X43596761Y-79958333D01*
X43787238Y-79958333D01*
X43882476Y-80005952D01*
X43930095Y-80053571D01*
X43977714Y-80148809D01*
M02*
