G04 #@! TF.GenerationSoftware,KiCad,Pcbnew,5.1.5-52549c5~84~ubuntu19.10.1*
G04 #@! TF.CreationDate,2020-06-15T16:45:33+03:00*
G04 #@! TF.ProjectId,hymTracker_Panel,68796d54-7261-4636-9b65-725f50616e65,rev?*
G04 #@! TF.SameCoordinates,Original*
G04 #@! TF.FileFunction,Legend,Top*
G04 #@! TF.FilePolarity,Positive*
%FSLAX46Y46*%
G04 Gerber Fmt 4.6, Leading zero omitted, Abs format (unit mm)*
G04 Created by KiCad (PCBNEW 5.1.5-52549c5~84~ubuntu19.10.1) date 2020-06-15 16:45:33*
%MOMM*%
%LPD*%
G04 APERTURE LIST*
%ADD10C,0.120000*%
%ADD11C,0.150000*%
G04 APERTURE END LIST*
D10*
X73722000Y-99880000D02*
X61382000Y-99880000D01*
X61382000Y-99880000D02*
X61382000Y-68910000D01*
X61382000Y-68910000D02*
X73722000Y-68910000D01*
X60487662Y-79105000D02*
X60487662Y-78605000D01*
X60487662Y-78605000D02*
X60920675Y-78855000D01*
X60920675Y-78855000D02*
X60487662Y-79105000D01*
X72640000Y-67679000D02*
X50542000Y-67679000D01*
X50542000Y-67679000D02*
X50542000Y-50915000D01*
X50542000Y-50915000D02*
X72640000Y-50915000D01*
X72640000Y-50915000D02*
X72640000Y-67679000D01*
X34032000Y-59805000D02*
X34032000Y-57265000D01*
X34032000Y-57265000D02*
X31362000Y-57265000D01*
X31362000Y-59805000D02*
X31362000Y-98035000D01*
X31362000Y-54595000D02*
X31362000Y-57265000D01*
X46732000Y-57265000D02*
X49402000Y-57265000D01*
X46732000Y-57265000D02*
X46732000Y-95365000D01*
X46732000Y-95365000D02*
X49402000Y-95365000D01*
X34032000Y-59805000D02*
X31362000Y-59805000D01*
X34032000Y-59805000D02*
X34032000Y-95365000D01*
X34032000Y-95365000D02*
X31362000Y-95365000D01*
X31362000Y-98035000D02*
X49402000Y-98035000D01*
X49402000Y-98035000D02*
X49402000Y-54595000D01*
X49402000Y-54595000D02*
X31362000Y-54595000D01*
X53822000Y-85785000D02*
X57422000Y-85785000D01*
X53783522Y-85773478D02*
G75*
G02X55622000Y-81335000I1838478J1838478D01*
G01*
X57460478Y-85773478D02*
G75*
G03X55622000Y-81335000I-1838478J1838478D01*
G01*
X60643000Y-88975000D02*
X60643000Y-99215000D01*
X50602000Y-88975000D02*
X50602000Y-99215000D01*
X60643000Y-88975000D02*
X59548000Y-88975000D01*
X56696000Y-88975000D02*
X54547000Y-88975000D01*
X51697000Y-88975000D02*
X50602000Y-88975000D01*
X60643000Y-99215000D02*
X57047000Y-99215000D01*
X54197000Y-99215000D02*
X50602000Y-99215000D01*
D11*
X59894380Y-84728333D02*
X60608666Y-84728333D01*
X60751523Y-84775952D01*
X60846761Y-84871190D01*
X60894380Y-85014047D01*
X60894380Y-85109285D01*
X60894380Y-83728333D02*
X60894380Y-84299761D01*
X60894380Y-84014047D02*
X59894380Y-84014047D01*
X60037238Y-84109285D01*
X60132476Y-84204523D01*
X60180095Y-84299761D01*
X56130095Y-61797380D02*
X56130095Y-62606904D01*
X56177714Y-62702142D01*
X56225333Y-62749761D01*
X56320571Y-62797380D01*
X56511047Y-62797380D01*
X56606285Y-62749761D01*
X56653904Y-62702142D01*
X56701523Y-62606904D01*
X56701523Y-61797380D01*
X57701523Y-62797380D02*
X57130095Y-62797380D01*
X57415809Y-62797380D02*
X57415809Y-61797380D01*
X57320571Y-61940238D01*
X57225333Y-62035476D01*
X57130095Y-62083095D01*
X39667714Y-53621666D02*
X40143904Y-53621666D01*
X39572476Y-53907380D02*
X39905809Y-52907380D01*
X40239142Y-53907380D01*
X41096285Y-53907380D02*
X40524857Y-53907380D01*
X40810571Y-53907380D02*
X40810571Y-52907380D01*
X40715333Y-53050238D01*
X40620095Y-53145476D01*
X40524857Y-53193095D01*
X55526761Y-80922619D02*
X55431523Y-80875000D01*
X55336285Y-80779761D01*
X55193428Y-80636904D01*
X55098190Y-80589285D01*
X55002952Y-80589285D01*
X55050571Y-80827380D02*
X54955333Y-80779761D01*
X54860095Y-80684523D01*
X54812476Y-80494047D01*
X54812476Y-80160714D01*
X54860095Y-79970238D01*
X54955333Y-79875000D01*
X55050571Y-79827380D01*
X55241047Y-79827380D01*
X55336285Y-79875000D01*
X55431523Y-79970238D01*
X55479142Y-80160714D01*
X55479142Y-80494047D01*
X55431523Y-80684523D01*
X55336285Y-80779761D01*
X55241047Y-80827380D01*
X55050571Y-80827380D01*
X56431523Y-80827380D02*
X55860095Y-80827380D01*
X56145809Y-80827380D02*
X56145809Y-79827380D01*
X56050571Y-79970238D01*
X55955333Y-80065476D01*
X55860095Y-80113095D01*
X62224380Y-94690238D02*
X61748190Y-95023571D01*
X62224380Y-95261666D02*
X61224380Y-95261666D01*
X61224380Y-94880714D01*
X61272000Y-94785476D01*
X61319619Y-94737857D01*
X61414857Y-94690238D01*
X61557714Y-94690238D01*
X61652952Y-94737857D01*
X61700571Y-94785476D01*
X61748190Y-94880714D01*
X61748190Y-95261666D01*
X61224380Y-94404523D02*
X62224380Y-94071190D01*
X61224380Y-93737857D01*
X62224380Y-92880714D02*
X62224380Y-93452142D01*
X62224380Y-93166428D02*
X61224380Y-93166428D01*
X61367238Y-93261666D01*
X61462476Y-93356904D01*
X61510095Y-93452142D01*
M02*
