G04 #@! TF.GenerationSoftware,KiCad,Pcbnew,5.1.5-52549c5~84~ubuntu19.10.1*
G04 #@! TF.CreationDate,2020-06-15T16:45:33+03:00*
G04 #@! TF.ProjectId,hymTracker_Panel,68796d54-7261-4636-9b65-725f50616e65,rev?*
G04 #@! TF.SameCoordinates,Original*
G04 #@! TF.FileFunction,Paste,Bot*
G04 #@! TF.FilePolarity,Positive*
%FSLAX46Y46*%
G04 Gerber Fmt 4.6, Leading zero omitted, Abs format (unit mm)*
G04 Created by KiCad (PCBNEW 5.1.5-52549c5~84~ubuntu19.10.1) date 2020-06-15 16:45:33*
%MOMM*%
%LPD*%
G04 APERTURE LIST*
%ADD10C,0.100000*%
G04 APERTURE END LIST*
D10*
G36*
X42857142Y-81966174D02*
G01*
X42880803Y-81969684D01*
X42904007Y-81975496D01*
X42926529Y-81983554D01*
X42948153Y-81993782D01*
X42968670Y-82006079D01*
X42987883Y-82020329D01*
X43005607Y-82036393D01*
X43021671Y-82054117D01*
X43035921Y-82073330D01*
X43048218Y-82093847D01*
X43058446Y-82115471D01*
X43066504Y-82137993D01*
X43072316Y-82161197D01*
X43075826Y-82184858D01*
X43077000Y-82208750D01*
X43077000Y-83121250D01*
X43075826Y-83145142D01*
X43072316Y-83168803D01*
X43066504Y-83192007D01*
X43058446Y-83214529D01*
X43048218Y-83236153D01*
X43035921Y-83256670D01*
X43021671Y-83275883D01*
X43005607Y-83293607D01*
X42987883Y-83309671D01*
X42968670Y-83323921D01*
X42948153Y-83336218D01*
X42926529Y-83346446D01*
X42904007Y-83354504D01*
X42880803Y-83360316D01*
X42857142Y-83363826D01*
X42833250Y-83365000D01*
X42345750Y-83365000D01*
X42321858Y-83363826D01*
X42298197Y-83360316D01*
X42274993Y-83354504D01*
X42252471Y-83346446D01*
X42230847Y-83336218D01*
X42210330Y-83323921D01*
X42191117Y-83309671D01*
X42173393Y-83293607D01*
X42157329Y-83275883D01*
X42143079Y-83256670D01*
X42130782Y-83236153D01*
X42120554Y-83214529D01*
X42112496Y-83192007D01*
X42106684Y-83168803D01*
X42103174Y-83145142D01*
X42102000Y-83121250D01*
X42102000Y-82208750D01*
X42103174Y-82184858D01*
X42106684Y-82161197D01*
X42112496Y-82137993D01*
X42120554Y-82115471D01*
X42130782Y-82093847D01*
X42143079Y-82073330D01*
X42157329Y-82054117D01*
X42173393Y-82036393D01*
X42191117Y-82020329D01*
X42210330Y-82006079D01*
X42230847Y-81993782D01*
X42252471Y-81983554D01*
X42274993Y-81975496D01*
X42298197Y-81969684D01*
X42321858Y-81966174D01*
X42345750Y-81965000D01*
X42833250Y-81965000D01*
X42857142Y-81966174D01*
G37*
G36*
X40982142Y-81966174D02*
G01*
X41005803Y-81969684D01*
X41029007Y-81975496D01*
X41051529Y-81983554D01*
X41073153Y-81993782D01*
X41093670Y-82006079D01*
X41112883Y-82020329D01*
X41130607Y-82036393D01*
X41146671Y-82054117D01*
X41160921Y-82073330D01*
X41173218Y-82093847D01*
X41183446Y-82115471D01*
X41191504Y-82137993D01*
X41197316Y-82161197D01*
X41200826Y-82184858D01*
X41202000Y-82208750D01*
X41202000Y-83121250D01*
X41200826Y-83145142D01*
X41197316Y-83168803D01*
X41191504Y-83192007D01*
X41183446Y-83214529D01*
X41173218Y-83236153D01*
X41160921Y-83256670D01*
X41146671Y-83275883D01*
X41130607Y-83293607D01*
X41112883Y-83309671D01*
X41093670Y-83323921D01*
X41073153Y-83336218D01*
X41051529Y-83346446D01*
X41029007Y-83354504D01*
X41005803Y-83360316D01*
X40982142Y-83363826D01*
X40958250Y-83365000D01*
X40470750Y-83365000D01*
X40446858Y-83363826D01*
X40423197Y-83360316D01*
X40399993Y-83354504D01*
X40377471Y-83346446D01*
X40355847Y-83336218D01*
X40335330Y-83323921D01*
X40316117Y-83309671D01*
X40298393Y-83293607D01*
X40282329Y-83275883D01*
X40268079Y-83256670D01*
X40255782Y-83236153D01*
X40245554Y-83214529D01*
X40237496Y-83192007D01*
X40231684Y-83168803D01*
X40228174Y-83145142D01*
X40227000Y-83121250D01*
X40227000Y-82208750D01*
X40228174Y-82184858D01*
X40231684Y-82161197D01*
X40237496Y-82137993D01*
X40245554Y-82115471D01*
X40255782Y-82093847D01*
X40268079Y-82073330D01*
X40282329Y-82054117D01*
X40298393Y-82036393D01*
X40316117Y-82020329D01*
X40335330Y-82006079D01*
X40355847Y-81993782D01*
X40377471Y-81983554D01*
X40399993Y-81975496D01*
X40423197Y-81969684D01*
X40446858Y-81966174D01*
X40470750Y-81965000D01*
X40958250Y-81965000D01*
X40982142Y-81966174D01*
G37*
G36*
X56222142Y-80696174D02*
G01*
X56245803Y-80699684D01*
X56269007Y-80705496D01*
X56291529Y-80713554D01*
X56313153Y-80723782D01*
X56333670Y-80736079D01*
X56352883Y-80750329D01*
X56370607Y-80766393D01*
X56386671Y-80784117D01*
X56400921Y-80803330D01*
X56413218Y-80823847D01*
X56423446Y-80845471D01*
X56431504Y-80867993D01*
X56437316Y-80891197D01*
X56440826Y-80914858D01*
X56442000Y-80938750D01*
X56442000Y-81851250D01*
X56440826Y-81875142D01*
X56437316Y-81898803D01*
X56431504Y-81922007D01*
X56423446Y-81944529D01*
X56413218Y-81966153D01*
X56400921Y-81986670D01*
X56386671Y-82005883D01*
X56370607Y-82023607D01*
X56352883Y-82039671D01*
X56333670Y-82053921D01*
X56313153Y-82066218D01*
X56291529Y-82076446D01*
X56269007Y-82084504D01*
X56245803Y-82090316D01*
X56222142Y-82093826D01*
X56198250Y-82095000D01*
X55710750Y-82095000D01*
X55686858Y-82093826D01*
X55663197Y-82090316D01*
X55639993Y-82084504D01*
X55617471Y-82076446D01*
X55595847Y-82066218D01*
X55575330Y-82053921D01*
X55556117Y-82039671D01*
X55538393Y-82023607D01*
X55522329Y-82005883D01*
X55508079Y-81986670D01*
X55495782Y-81966153D01*
X55485554Y-81944529D01*
X55477496Y-81922007D01*
X55471684Y-81898803D01*
X55468174Y-81875142D01*
X55467000Y-81851250D01*
X55467000Y-80938750D01*
X55468174Y-80914858D01*
X55471684Y-80891197D01*
X55477496Y-80867993D01*
X55485554Y-80845471D01*
X55495782Y-80823847D01*
X55508079Y-80803330D01*
X55522329Y-80784117D01*
X55538393Y-80766393D01*
X55556117Y-80750329D01*
X55575330Y-80736079D01*
X55595847Y-80723782D01*
X55617471Y-80713554D01*
X55639993Y-80705496D01*
X55663197Y-80699684D01*
X55686858Y-80696174D01*
X55710750Y-80695000D01*
X56198250Y-80695000D01*
X56222142Y-80696174D01*
G37*
G36*
X58097142Y-80696174D02*
G01*
X58120803Y-80699684D01*
X58144007Y-80705496D01*
X58166529Y-80713554D01*
X58188153Y-80723782D01*
X58208670Y-80736079D01*
X58227883Y-80750329D01*
X58245607Y-80766393D01*
X58261671Y-80784117D01*
X58275921Y-80803330D01*
X58288218Y-80823847D01*
X58298446Y-80845471D01*
X58306504Y-80867993D01*
X58312316Y-80891197D01*
X58315826Y-80914858D01*
X58317000Y-80938750D01*
X58317000Y-81851250D01*
X58315826Y-81875142D01*
X58312316Y-81898803D01*
X58306504Y-81922007D01*
X58298446Y-81944529D01*
X58288218Y-81966153D01*
X58275921Y-81986670D01*
X58261671Y-82005883D01*
X58245607Y-82023607D01*
X58227883Y-82039671D01*
X58208670Y-82053921D01*
X58188153Y-82066218D01*
X58166529Y-82076446D01*
X58144007Y-82084504D01*
X58120803Y-82090316D01*
X58097142Y-82093826D01*
X58073250Y-82095000D01*
X57585750Y-82095000D01*
X57561858Y-82093826D01*
X57538197Y-82090316D01*
X57514993Y-82084504D01*
X57492471Y-82076446D01*
X57470847Y-82066218D01*
X57450330Y-82053921D01*
X57431117Y-82039671D01*
X57413393Y-82023607D01*
X57397329Y-82005883D01*
X57383079Y-81986670D01*
X57370782Y-81966153D01*
X57360554Y-81944529D01*
X57352496Y-81922007D01*
X57346684Y-81898803D01*
X57343174Y-81875142D01*
X57342000Y-81851250D01*
X57342000Y-80938750D01*
X57343174Y-80914858D01*
X57346684Y-80891197D01*
X57352496Y-80867993D01*
X57360554Y-80845471D01*
X57370782Y-80823847D01*
X57383079Y-80803330D01*
X57397329Y-80784117D01*
X57413393Y-80766393D01*
X57431117Y-80750329D01*
X57450330Y-80736079D01*
X57470847Y-80723782D01*
X57492471Y-80713554D01*
X57514993Y-80705496D01*
X57538197Y-80699684D01*
X57561858Y-80696174D01*
X57585750Y-80695000D01*
X58073250Y-80695000D01*
X58097142Y-80696174D01*
G37*
G36*
X59912142Y-94546174D02*
G01*
X59935803Y-94549684D01*
X59959007Y-94555496D01*
X59981529Y-94563554D01*
X60003153Y-94573782D01*
X60023670Y-94586079D01*
X60042883Y-94600329D01*
X60060607Y-94616393D01*
X60076671Y-94634117D01*
X60090921Y-94653330D01*
X60103218Y-94673847D01*
X60113446Y-94695471D01*
X60121504Y-94717993D01*
X60127316Y-94741197D01*
X60130826Y-94764858D01*
X60132000Y-94788750D01*
X60132000Y-95276250D01*
X60130826Y-95300142D01*
X60127316Y-95323803D01*
X60121504Y-95347007D01*
X60113446Y-95369529D01*
X60103218Y-95391153D01*
X60090921Y-95411670D01*
X60076671Y-95430883D01*
X60060607Y-95448607D01*
X60042883Y-95464671D01*
X60023670Y-95478921D01*
X60003153Y-95491218D01*
X59981529Y-95501446D01*
X59959007Y-95509504D01*
X59935803Y-95515316D01*
X59912142Y-95518826D01*
X59888250Y-95520000D01*
X58975750Y-95520000D01*
X58951858Y-95518826D01*
X58928197Y-95515316D01*
X58904993Y-95509504D01*
X58882471Y-95501446D01*
X58860847Y-95491218D01*
X58840330Y-95478921D01*
X58821117Y-95464671D01*
X58803393Y-95448607D01*
X58787329Y-95430883D01*
X58773079Y-95411670D01*
X58760782Y-95391153D01*
X58750554Y-95369529D01*
X58742496Y-95347007D01*
X58736684Y-95323803D01*
X58733174Y-95300142D01*
X58732000Y-95276250D01*
X58732000Y-94788750D01*
X58733174Y-94764858D01*
X58736684Y-94741197D01*
X58742496Y-94717993D01*
X58750554Y-94695471D01*
X58760782Y-94673847D01*
X58773079Y-94653330D01*
X58787329Y-94634117D01*
X58803393Y-94616393D01*
X58821117Y-94600329D01*
X58840330Y-94586079D01*
X58860847Y-94573782D01*
X58882471Y-94563554D01*
X58904993Y-94555496D01*
X58928197Y-94549684D01*
X58951858Y-94546174D01*
X58975750Y-94545000D01*
X59888250Y-94545000D01*
X59912142Y-94546174D01*
G37*
G36*
X59912142Y-92671174D02*
G01*
X59935803Y-92674684D01*
X59959007Y-92680496D01*
X59981529Y-92688554D01*
X60003153Y-92698782D01*
X60023670Y-92711079D01*
X60042883Y-92725329D01*
X60060607Y-92741393D01*
X60076671Y-92759117D01*
X60090921Y-92778330D01*
X60103218Y-92798847D01*
X60113446Y-92820471D01*
X60121504Y-92842993D01*
X60127316Y-92866197D01*
X60130826Y-92889858D01*
X60132000Y-92913750D01*
X60132000Y-93401250D01*
X60130826Y-93425142D01*
X60127316Y-93448803D01*
X60121504Y-93472007D01*
X60113446Y-93494529D01*
X60103218Y-93516153D01*
X60090921Y-93536670D01*
X60076671Y-93555883D01*
X60060607Y-93573607D01*
X60042883Y-93589671D01*
X60023670Y-93603921D01*
X60003153Y-93616218D01*
X59981529Y-93626446D01*
X59959007Y-93634504D01*
X59935803Y-93640316D01*
X59912142Y-93643826D01*
X59888250Y-93645000D01*
X58975750Y-93645000D01*
X58951858Y-93643826D01*
X58928197Y-93640316D01*
X58904993Y-93634504D01*
X58882471Y-93626446D01*
X58860847Y-93616218D01*
X58840330Y-93603921D01*
X58821117Y-93589671D01*
X58803393Y-93573607D01*
X58787329Y-93555883D01*
X58773079Y-93536670D01*
X58760782Y-93516153D01*
X58750554Y-93494529D01*
X58742496Y-93472007D01*
X58736684Y-93448803D01*
X58733174Y-93425142D01*
X58732000Y-93401250D01*
X58732000Y-92913750D01*
X58733174Y-92889858D01*
X58736684Y-92866197D01*
X58742496Y-92842993D01*
X58750554Y-92820471D01*
X58760782Y-92798847D01*
X58773079Y-92778330D01*
X58787329Y-92759117D01*
X58803393Y-92741393D01*
X58821117Y-92725329D01*
X58840330Y-92711079D01*
X58860847Y-92698782D01*
X58882471Y-92688554D01*
X58904993Y-92680496D01*
X58928197Y-92674684D01*
X58951858Y-92671174D01*
X58975750Y-92670000D01*
X59888250Y-92670000D01*
X59912142Y-92671174D01*
G37*
G36*
X43402142Y-86926174D02*
G01*
X43425803Y-86929684D01*
X43449007Y-86935496D01*
X43471529Y-86943554D01*
X43493153Y-86953782D01*
X43513670Y-86966079D01*
X43532883Y-86980329D01*
X43550607Y-86996393D01*
X43566671Y-87014117D01*
X43580921Y-87033330D01*
X43593218Y-87053847D01*
X43603446Y-87075471D01*
X43611504Y-87097993D01*
X43617316Y-87121197D01*
X43620826Y-87144858D01*
X43622000Y-87168750D01*
X43622000Y-87656250D01*
X43620826Y-87680142D01*
X43617316Y-87703803D01*
X43611504Y-87727007D01*
X43603446Y-87749529D01*
X43593218Y-87771153D01*
X43580921Y-87791670D01*
X43566671Y-87810883D01*
X43550607Y-87828607D01*
X43532883Y-87844671D01*
X43513670Y-87858921D01*
X43493153Y-87871218D01*
X43471529Y-87881446D01*
X43449007Y-87889504D01*
X43425803Y-87895316D01*
X43402142Y-87898826D01*
X43378250Y-87900000D01*
X42465750Y-87900000D01*
X42441858Y-87898826D01*
X42418197Y-87895316D01*
X42394993Y-87889504D01*
X42372471Y-87881446D01*
X42350847Y-87871218D01*
X42330330Y-87858921D01*
X42311117Y-87844671D01*
X42293393Y-87828607D01*
X42277329Y-87810883D01*
X42263079Y-87791670D01*
X42250782Y-87771153D01*
X42240554Y-87749529D01*
X42232496Y-87727007D01*
X42226684Y-87703803D01*
X42223174Y-87680142D01*
X42222000Y-87656250D01*
X42222000Y-87168750D01*
X42223174Y-87144858D01*
X42226684Y-87121197D01*
X42232496Y-87097993D01*
X42240554Y-87075471D01*
X42250782Y-87053847D01*
X42263079Y-87033330D01*
X42277329Y-87014117D01*
X42293393Y-86996393D01*
X42311117Y-86980329D01*
X42330330Y-86966079D01*
X42350847Y-86953782D01*
X42372471Y-86943554D01*
X42394993Y-86935496D01*
X42418197Y-86929684D01*
X42441858Y-86926174D01*
X42465750Y-86925000D01*
X43378250Y-86925000D01*
X43402142Y-86926174D01*
G37*
G36*
X43402142Y-85051174D02*
G01*
X43425803Y-85054684D01*
X43449007Y-85060496D01*
X43471529Y-85068554D01*
X43493153Y-85078782D01*
X43513670Y-85091079D01*
X43532883Y-85105329D01*
X43550607Y-85121393D01*
X43566671Y-85139117D01*
X43580921Y-85158330D01*
X43593218Y-85178847D01*
X43603446Y-85200471D01*
X43611504Y-85222993D01*
X43617316Y-85246197D01*
X43620826Y-85269858D01*
X43622000Y-85293750D01*
X43622000Y-85781250D01*
X43620826Y-85805142D01*
X43617316Y-85828803D01*
X43611504Y-85852007D01*
X43603446Y-85874529D01*
X43593218Y-85896153D01*
X43580921Y-85916670D01*
X43566671Y-85935883D01*
X43550607Y-85953607D01*
X43532883Y-85969671D01*
X43513670Y-85983921D01*
X43493153Y-85996218D01*
X43471529Y-86006446D01*
X43449007Y-86014504D01*
X43425803Y-86020316D01*
X43402142Y-86023826D01*
X43378250Y-86025000D01*
X42465750Y-86025000D01*
X42441858Y-86023826D01*
X42418197Y-86020316D01*
X42394993Y-86014504D01*
X42372471Y-86006446D01*
X42350847Y-85996218D01*
X42330330Y-85983921D01*
X42311117Y-85969671D01*
X42293393Y-85953607D01*
X42277329Y-85935883D01*
X42263079Y-85916670D01*
X42250782Y-85896153D01*
X42240554Y-85874529D01*
X42232496Y-85852007D01*
X42226684Y-85828803D01*
X42223174Y-85805142D01*
X42222000Y-85781250D01*
X42222000Y-85293750D01*
X42223174Y-85269858D01*
X42226684Y-85246197D01*
X42232496Y-85222993D01*
X42240554Y-85200471D01*
X42250782Y-85178847D01*
X42263079Y-85158330D01*
X42277329Y-85139117D01*
X42293393Y-85121393D01*
X42311117Y-85105329D01*
X42330330Y-85091079D01*
X42350847Y-85078782D01*
X42372471Y-85068554D01*
X42394993Y-85060496D01*
X42418197Y-85054684D01*
X42441858Y-85051174D01*
X42465750Y-85050000D01*
X43378250Y-85050000D01*
X43402142Y-85051174D01*
G37*
G36*
X66128142Y-63170174D02*
G01*
X66151803Y-63173684D01*
X66175007Y-63179496D01*
X66197529Y-63187554D01*
X66219153Y-63197782D01*
X66239670Y-63210079D01*
X66258883Y-63224329D01*
X66276607Y-63240393D01*
X66292671Y-63258117D01*
X66306921Y-63277330D01*
X66319218Y-63297847D01*
X66329446Y-63319471D01*
X66337504Y-63341993D01*
X66343316Y-63365197D01*
X66346826Y-63388858D01*
X66348000Y-63412750D01*
X66348000Y-64325250D01*
X66346826Y-64349142D01*
X66343316Y-64372803D01*
X66337504Y-64396007D01*
X66329446Y-64418529D01*
X66319218Y-64440153D01*
X66306921Y-64460670D01*
X66292671Y-64479883D01*
X66276607Y-64497607D01*
X66258883Y-64513671D01*
X66239670Y-64527921D01*
X66219153Y-64540218D01*
X66197529Y-64550446D01*
X66175007Y-64558504D01*
X66151803Y-64564316D01*
X66128142Y-64567826D01*
X66104250Y-64569000D01*
X65616750Y-64569000D01*
X65592858Y-64567826D01*
X65569197Y-64564316D01*
X65545993Y-64558504D01*
X65523471Y-64550446D01*
X65501847Y-64540218D01*
X65481330Y-64527921D01*
X65462117Y-64513671D01*
X65444393Y-64497607D01*
X65428329Y-64479883D01*
X65414079Y-64460670D01*
X65401782Y-64440153D01*
X65391554Y-64418529D01*
X65383496Y-64396007D01*
X65377684Y-64372803D01*
X65374174Y-64349142D01*
X65373000Y-64325250D01*
X65373000Y-63412750D01*
X65374174Y-63388858D01*
X65377684Y-63365197D01*
X65383496Y-63341993D01*
X65391554Y-63319471D01*
X65401782Y-63297847D01*
X65414079Y-63277330D01*
X65428329Y-63258117D01*
X65444393Y-63240393D01*
X65462117Y-63224329D01*
X65481330Y-63210079D01*
X65501847Y-63197782D01*
X65523471Y-63187554D01*
X65545993Y-63179496D01*
X65569197Y-63173684D01*
X65592858Y-63170174D01*
X65616750Y-63169000D01*
X66104250Y-63169000D01*
X66128142Y-63170174D01*
G37*
G36*
X68003142Y-63170174D02*
G01*
X68026803Y-63173684D01*
X68050007Y-63179496D01*
X68072529Y-63187554D01*
X68094153Y-63197782D01*
X68114670Y-63210079D01*
X68133883Y-63224329D01*
X68151607Y-63240393D01*
X68167671Y-63258117D01*
X68181921Y-63277330D01*
X68194218Y-63297847D01*
X68204446Y-63319471D01*
X68212504Y-63341993D01*
X68218316Y-63365197D01*
X68221826Y-63388858D01*
X68223000Y-63412750D01*
X68223000Y-64325250D01*
X68221826Y-64349142D01*
X68218316Y-64372803D01*
X68212504Y-64396007D01*
X68204446Y-64418529D01*
X68194218Y-64440153D01*
X68181921Y-64460670D01*
X68167671Y-64479883D01*
X68151607Y-64497607D01*
X68133883Y-64513671D01*
X68114670Y-64527921D01*
X68094153Y-64540218D01*
X68072529Y-64550446D01*
X68050007Y-64558504D01*
X68026803Y-64564316D01*
X68003142Y-64567826D01*
X67979250Y-64569000D01*
X67491750Y-64569000D01*
X67467858Y-64567826D01*
X67444197Y-64564316D01*
X67420993Y-64558504D01*
X67398471Y-64550446D01*
X67376847Y-64540218D01*
X67356330Y-64527921D01*
X67337117Y-64513671D01*
X67319393Y-64497607D01*
X67303329Y-64479883D01*
X67289079Y-64460670D01*
X67276782Y-64440153D01*
X67266554Y-64418529D01*
X67258496Y-64396007D01*
X67252684Y-64372803D01*
X67249174Y-64349142D01*
X67248000Y-64325250D01*
X67248000Y-63412750D01*
X67249174Y-63388858D01*
X67252684Y-63365197D01*
X67258496Y-63341993D01*
X67266554Y-63319471D01*
X67276782Y-63297847D01*
X67289079Y-63277330D01*
X67303329Y-63258117D01*
X67319393Y-63240393D01*
X67337117Y-63224329D01*
X67356330Y-63210079D01*
X67376847Y-63197782D01*
X67398471Y-63187554D01*
X67420993Y-63179496D01*
X67444197Y-63173684D01*
X67467858Y-63170174D01*
X67491750Y-63169000D01*
X67979250Y-63169000D01*
X68003142Y-63170174D01*
G37*
G36*
X42857142Y-75616174D02*
G01*
X42880803Y-75619684D01*
X42904007Y-75625496D01*
X42926529Y-75633554D01*
X42948153Y-75643782D01*
X42968670Y-75656079D01*
X42987883Y-75670329D01*
X43005607Y-75686393D01*
X43021671Y-75704117D01*
X43035921Y-75723330D01*
X43048218Y-75743847D01*
X43058446Y-75765471D01*
X43066504Y-75787993D01*
X43072316Y-75811197D01*
X43075826Y-75834858D01*
X43077000Y-75858750D01*
X43077000Y-76771250D01*
X43075826Y-76795142D01*
X43072316Y-76818803D01*
X43066504Y-76842007D01*
X43058446Y-76864529D01*
X43048218Y-76886153D01*
X43035921Y-76906670D01*
X43021671Y-76925883D01*
X43005607Y-76943607D01*
X42987883Y-76959671D01*
X42968670Y-76973921D01*
X42948153Y-76986218D01*
X42926529Y-76996446D01*
X42904007Y-77004504D01*
X42880803Y-77010316D01*
X42857142Y-77013826D01*
X42833250Y-77015000D01*
X42345750Y-77015000D01*
X42321858Y-77013826D01*
X42298197Y-77010316D01*
X42274993Y-77004504D01*
X42252471Y-76996446D01*
X42230847Y-76986218D01*
X42210330Y-76973921D01*
X42191117Y-76959671D01*
X42173393Y-76943607D01*
X42157329Y-76925883D01*
X42143079Y-76906670D01*
X42130782Y-76886153D01*
X42120554Y-76864529D01*
X42112496Y-76842007D01*
X42106684Y-76818803D01*
X42103174Y-76795142D01*
X42102000Y-76771250D01*
X42102000Y-75858750D01*
X42103174Y-75834858D01*
X42106684Y-75811197D01*
X42112496Y-75787993D01*
X42120554Y-75765471D01*
X42130782Y-75743847D01*
X42143079Y-75723330D01*
X42157329Y-75704117D01*
X42173393Y-75686393D01*
X42191117Y-75670329D01*
X42210330Y-75656079D01*
X42230847Y-75643782D01*
X42252471Y-75633554D01*
X42274993Y-75625496D01*
X42298197Y-75619684D01*
X42321858Y-75616174D01*
X42345750Y-75615000D01*
X42833250Y-75615000D01*
X42857142Y-75616174D01*
G37*
G36*
X40982142Y-75616174D02*
G01*
X41005803Y-75619684D01*
X41029007Y-75625496D01*
X41051529Y-75633554D01*
X41073153Y-75643782D01*
X41093670Y-75656079D01*
X41112883Y-75670329D01*
X41130607Y-75686393D01*
X41146671Y-75704117D01*
X41160921Y-75723330D01*
X41173218Y-75743847D01*
X41183446Y-75765471D01*
X41191504Y-75787993D01*
X41197316Y-75811197D01*
X41200826Y-75834858D01*
X41202000Y-75858750D01*
X41202000Y-76771250D01*
X41200826Y-76795142D01*
X41197316Y-76818803D01*
X41191504Y-76842007D01*
X41183446Y-76864529D01*
X41173218Y-76886153D01*
X41160921Y-76906670D01*
X41146671Y-76925883D01*
X41130607Y-76943607D01*
X41112883Y-76959671D01*
X41093670Y-76973921D01*
X41073153Y-76986218D01*
X41051529Y-76996446D01*
X41029007Y-77004504D01*
X41005803Y-77010316D01*
X40982142Y-77013826D01*
X40958250Y-77015000D01*
X40470750Y-77015000D01*
X40446858Y-77013826D01*
X40423197Y-77010316D01*
X40399993Y-77004504D01*
X40377471Y-76996446D01*
X40355847Y-76986218D01*
X40335330Y-76973921D01*
X40316117Y-76959671D01*
X40298393Y-76943607D01*
X40282329Y-76925883D01*
X40268079Y-76906670D01*
X40255782Y-76886153D01*
X40245554Y-76864529D01*
X40237496Y-76842007D01*
X40231684Y-76818803D01*
X40228174Y-76795142D01*
X40227000Y-76771250D01*
X40227000Y-75858750D01*
X40228174Y-75834858D01*
X40231684Y-75811197D01*
X40237496Y-75787993D01*
X40245554Y-75765471D01*
X40255782Y-75743847D01*
X40268079Y-75723330D01*
X40282329Y-75704117D01*
X40298393Y-75686393D01*
X40316117Y-75670329D01*
X40335330Y-75656079D01*
X40355847Y-75643782D01*
X40377471Y-75633554D01*
X40399993Y-75625496D01*
X40423197Y-75619684D01*
X40446858Y-75616174D01*
X40470750Y-75615000D01*
X40958250Y-75615000D01*
X40982142Y-75616174D01*
G37*
G36*
X45397142Y-51486174D02*
G01*
X45420803Y-51489684D01*
X45444007Y-51495496D01*
X45466529Y-51503554D01*
X45488153Y-51513782D01*
X45508670Y-51526079D01*
X45527883Y-51540329D01*
X45545607Y-51556393D01*
X45561671Y-51574117D01*
X45575921Y-51593330D01*
X45588218Y-51613847D01*
X45598446Y-51635471D01*
X45606504Y-51657993D01*
X45612316Y-51681197D01*
X45615826Y-51704858D01*
X45617000Y-51728750D01*
X45617000Y-52641250D01*
X45615826Y-52665142D01*
X45612316Y-52688803D01*
X45606504Y-52712007D01*
X45598446Y-52734529D01*
X45588218Y-52756153D01*
X45575921Y-52776670D01*
X45561671Y-52795883D01*
X45545607Y-52813607D01*
X45527883Y-52829671D01*
X45508670Y-52843921D01*
X45488153Y-52856218D01*
X45466529Y-52866446D01*
X45444007Y-52874504D01*
X45420803Y-52880316D01*
X45397142Y-52883826D01*
X45373250Y-52885000D01*
X44885750Y-52885000D01*
X44861858Y-52883826D01*
X44838197Y-52880316D01*
X44814993Y-52874504D01*
X44792471Y-52866446D01*
X44770847Y-52856218D01*
X44750330Y-52843921D01*
X44731117Y-52829671D01*
X44713393Y-52813607D01*
X44697329Y-52795883D01*
X44683079Y-52776670D01*
X44670782Y-52756153D01*
X44660554Y-52734529D01*
X44652496Y-52712007D01*
X44646684Y-52688803D01*
X44643174Y-52665142D01*
X44642000Y-52641250D01*
X44642000Y-51728750D01*
X44643174Y-51704858D01*
X44646684Y-51681197D01*
X44652496Y-51657993D01*
X44660554Y-51635471D01*
X44670782Y-51613847D01*
X44683079Y-51593330D01*
X44697329Y-51574117D01*
X44713393Y-51556393D01*
X44731117Y-51540329D01*
X44750330Y-51526079D01*
X44770847Y-51513782D01*
X44792471Y-51503554D01*
X44814993Y-51495496D01*
X44838197Y-51489684D01*
X44861858Y-51486174D01*
X44885750Y-51485000D01*
X45373250Y-51485000D01*
X45397142Y-51486174D01*
G37*
G36*
X43522142Y-51486174D02*
G01*
X43545803Y-51489684D01*
X43569007Y-51495496D01*
X43591529Y-51503554D01*
X43613153Y-51513782D01*
X43633670Y-51526079D01*
X43652883Y-51540329D01*
X43670607Y-51556393D01*
X43686671Y-51574117D01*
X43700921Y-51593330D01*
X43713218Y-51613847D01*
X43723446Y-51635471D01*
X43731504Y-51657993D01*
X43737316Y-51681197D01*
X43740826Y-51704858D01*
X43742000Y-51728750D01*
X43742000Y-52641250D01*
X43740826Y-52665142D01*
X43737316Y-52688803D01*
X43731504Y-52712007D01*
X43723446Y-52734529D01*
X43713218Y-52756153D01*
X43700921Y-52776670D01*
X43686671Y-52795883D01*
X43670607Y-52813607D01*
X43652883Y-52829671D01*
X43633670Y-52843921D01*
X43613153Y-52856218D01*
X43591529Y-52866446D01*
X43569007Y-52874504D01*
X43545803Y-52880316D01*
X43522142Y-52883826D01*
X43498250Y-52885000D01*
X43010750Y-52885000D01*
X42986858Y-52883826D01*
X42963197Y-52880316D01*
X42939993Y-52874504D01*
X42917471Y-52866446D01*
X42895847Y-52856218D01*
X42875330Y-52843921D01*
X42856117Y-52829671D01*
X42838393Y-52813607D01*
X42822329Y-52795883D01*
X42808079Y-52776670D01*
X42795782Y-52756153D01*
X42785554Y-52734529D01*
X42777496Y-52712007D01*
X42771684Y-52688803D01*
X42768174Y-52665142D01*
X42767000Y-52641250D01*
X42767000Y-51728750D01*
X42768174Y-51704858D01*
X42771684Y-51681197D01*
X42777496Y-51657993D01*
X42785554Y-51635471D01*
X42795782Y-51613847D01*
X42808079Y-51593330D01*
X42822329Y-51574117D01*
X42838393Y-51556393D01*
X42856117Y-51540329D01*
X42875330Y-51526079D01*
X42895847Y-51513782D01*
X42917471Y-51503554D01*
X42939993Y-51495496D01*
X42963197Y-51489684D01*
X42986858Y-51486174D01*
X43010750Y-51485000D01*
X43498250Y-51485000D01*
X43522142Y-51486174D01*
G37*
G36*
X42857142Y-73076174D02*
G01*
X42880803Y-73079684D01*
X42904007Y-73085496D01*
X42926529Y-73093554D01*
X42948153Y-73103782D01*
X42968670Y-73116079D01*
X42987883Y-73130329D01*
X43005607Y-73146393D01*
X43021671Y-73164117D01*
X43035921Y-73183330D01*
X43048218Y-73203847D01*
X43058446Y-73225471D01*
X43066504Y-73247993D01*
X43072316Y-73271197D01*
X43075826Y-73294858D01*
X43077000Y-73318750D01*
X43077000Y-74231250D01*
X43075826Y-74255142D01*
X43072316Y-74278803D01*
X43066504Y-74302007D01*
X43058446Y-74324529D01*
X43048218Y-74346153D01*
X43035921Y-74366670D01*
X43021671Y-74385883D01*
X43005607Y-74403607D01*
X42987883Y-74419671D01*
X42968670Y-74433921D01*
X42948153Y-74446218D01*
X42926529Y-74456446D01*
X42904007Y-74464504D01*
X42880803Y-74470316D01*
X42857142Y-74473826D01*
X42833250Y-74475000D01*
X42345750Y-74475000D01*
X42321858Y-74473826D01*
X42298197Y-74470316D01*
X42274993Y-74464504D01*
X42252471Y-74456446D01*
X42230847Y-74446218D01*
X42210330Y-74433921D01*
X42191117Y-74419671D01*
X42173393Y-74403607D01*
X42157329Y-74385883D01*
X42143079Y-74366670D01*
X42130782Y-74346153D01*
X42120554Y-74324529D01*
X42112496Y-74302007D01*
X42106684Y-74278803D01*
X42103174Y-74255142D01*
X42102000Y-74231250D01*
X42102000Y-73318750D01*
X42103174Y-73294858D01*
X42106684Y-73271197D01*
X42112496Y-73247993D01*
X42120554Y-73225471D01*
X42130782Y-73203847D01*
X42143079Y-73183330D01*
X42157329Y-73164117D01*
X42173393Y-73146393D01*
X42191117Y-73130329D01*
X42210330Y-73116079D01*
X42230847Y-73103782D01*
X42252471Y-73093554D01*
X42274993Y-73085496D01*
X42298197Y-73079684D01*
X42321858Y-73076174D01*
X42345750Y-73075000D01*
X42833250Y-73075000D01*
X42857142Y-73076174D01*
G37*
G36*
X40982142Y-73076174D02*
G01*
X41005803Y-73079684D01*
X41029007Y-73085496D01*
X41051529Y-73093554D01*
X41073153Y-73103782D01*
X41093670Y-73116079D01*
X41112883Y-73130329D01*
X41130607Y-73146393D01*
X41146671Y-73164117D01*
X41160921Y-73183330D01*
X41173218Y-73203847D01*
X41183446Y-73225471D01*
X41191504Y-73247993D01*
X41197316Y-73271197D01*
X41200826Y-73294858D01*
X41202000Y-73318750D01*
X41202000Y-74231250D01*
X41200826Y-74255142D01*
X41197316Y-74278803D01*
X41191504Y-74302007D01*
X41183446Y-74324529D01*
X41173218Y-74346153D01*
X41160921Y-74366670D01*
X41146671Y-74385883D01*
X41130607Y-74403607D01*
X41112883Y-74419671D01*
X41093670Y-74433921D01*
X41073153Y-74446218D01*
X41051529Y-74456446D01*
X41029007Y-74464504D01*
X41005803Y-74470316D01*
X40982142Y-74473826D01*
X40958250Y-74475000D01*
X40470750Y-74475000D01*
X40446858Y-74473826D01*
X40423197Y-74470316D01*
X40399993Y-74464504D01*
X40377471Y-74456446D01*
X40355847Y-74446218D01*
X40335330Y-74433921D01*
X40316117Y-74419671D01*
X40298393Y-74403607D01*
X40282329Y-74385883D01*
X40268079Y-74366670D01*
X40255782Y-74346153D01*
X40245554Y-74324529D01*
X40237496Y-74302007D01*
X40231684Y-74278803D01*
X40228174Y-74255142D01*
X40227000Y-74231250D01*
X40227000Y-73318750D01*
X40228174Y-73294858D01*
X40231684Y-73271197D01*
X40237496Y-73247993D01*
X40245554Y-73225471D01*
X40255782Y-73203847D01*
X40268079Y-73183330D01*
X40282329Y-73164117D01*
X40298393Y-73146393D01*
X40316117Y-73130329D01*
X40335330Y-73116079D01*
X40355847Y-73103782D01*
X40377471Y-73093554D01*
X40399993Y-73085496D01*
X40423197Y-73079684D01*
X40446858Y-73076174D01*
X40470750Y-73075000D01*
X40958250Y-73075000D01*
X40982142Y-73076174D01*
G37*
G36*
X35569642Y-51486174D02*
G01*
X35593303Y-51489684D01*
X35616507Y-51495496D01*
X35639029Y-51503554D01*
X35660653Y-51513782D01*
X35681170Y-51526079D01*
X35700383Y-51540329D01*
X35718107Y-51556393D01*
X35734171Y-51574117D01*
X35748421Y-51593330D01*
X35760718Y-51613847D01*
X35770946Y-51635471D01*
X35779004Y-51657993D01*
X35784816Y-51681197D01*
X35788326Y-51704858D01*
X35789500Y-51728750D01*
X35789500Y-52641250D01*
X35788326Y-52665142D01*
X35784816Y-52688803D01*
X35779004Y-52712007D01*
X35770946Y-52734529D01*
X35760718Y-52756153D01*
X35748421Y-52776670D01*
X35734171Y-52795883D01*
X35718107Y-52813607D01*
X35700383Y-52829671D01*
X35681170Y-52843921D01*
X35660653Y-52856218D01*
X35639029Y-52866446D01*
X35616507Y-52874504D01*
X35593303Y-52880316D01*
X35569642Y-52883826D01*
X35545750Y-52885000D01*
X35058250Y-52885000D01*
X35034358Y-52883826D01*
X35010697Y-52880316D01*
X34987493Y-52874504D01*
X34964971Y-52866446D01*
X34943347Y-52856218D01*
X34922830Y-52843921D01*
X34903617Y-52829671D01*
X34885893Y-52813607D01*
X34869829Y-52795883D01*
X34855579Y-52776670D01*
X34843282Y-52756153D01*
X34833054Y-52734529D01*
X34824996Y-52712007D01*
X34819184Y-52688803D01*
X34815674Y-52665142D01*
X34814500Y-52641250D01*
X34814500Y-51728750D01*
X34815674Y-51704858D01*
X34819184Y-51681197D01*
X34824996Y-51657993D01*
X34833054Y-51635471D01*
X34843282Y-51613847D01*
X34855579Y-51593330D01*
X34869829Y-51574117D01*
X34885893Y-51556393D01*
X34903617Y-51540329D01*
X34922830Y-51526079D01*
X34943347Y-51513782D01*
X34964971Y-51503554D01*
X34987493Y-51495496D01*
X35010697Y-51489684D01*
X35034358Y-51486174D01*
X35058250Y-51485000D01*
X35545750Y-51485000D01*
X35569642Y-51486174D01*
G37*
G36*
X37444642Y-51486174D02*
G01*
X37468303Y-51489684D01*
X37491507Y-51495496D01*
X37514029Y-51503554D01*
X37535653Y-51513782D01*
X37556170Y-51526079D01*
X37575383Y-51540329D01*
X37593107Y-51556393D01*
X37609171Y-51574117D01*
X37623421Y-51593330D01*
X37635718Y-51613847D01*
X37645946Y-51635471D01*
X37654004Y-51657993D01*
X37659816Y-51681197D01*
X37663326Y-51704858D01*
X37664500Y-51728750D01*
X37664500Y-52641250D01*
X37663326Y-52665142D01*
X37659816Y-52688803D01*
X37654004Y-52712007D01*
X37645946Y-52734529D01*
X37635718Y-52756153D01*
X37623421Y-52776670D01*
X37609171Y-52795883D01*
X37593107Y-52813607D01*
X37575383Y-52829671D01*
X37556170Y-52843921D01*
X37535653Y-52856218D01*
X37514029Y-52866446D01*
X37491507Y-52874504D01*
X37468303Y-52880316D01*
X37444642Y-52883826D01*
X37420750Y-52885000D01*
X36933250Y-52885000D01*
X36909358Y-52883826D01*
X36885697Y-52880316D01*
X36862493Y-52874504D01*
X36839971Y-52866446D01*
X36818347Y-52856218D01*
X36797830Y-52843921D01*
X36778617Y-52829671D01*
X36760893Y-52813607D01*
X36744829Y-52795883D01*
X36730579Y-52776670D01*
X36718282Y-52756153D01*
X36708054Y-52734529D01*
X36699996Y-52712007D01*
X36694184Y-52688803D01*
X36690674Y-52665142D01*
X36689500Y-52641250D01*
X36689500Y-51728750D01*
X36690674Y-51704858D01*
X36694184Y-51681197D01*
X36699996Y-51657993D01*
X36708054Y-51635471D01*
X36718282Y-51613847D01*
X36730579Y-51593330D01*
X36744829Y-51574117D01*
X36760893Y-51556393D01*
X36778617Y-51540329D01*
X36797830Y-51526079D01*
X36818347Y-51513782D01*
X36839971Y-51503554D01*
X36862493Y-51495496D01*
X36885697Y-51489684D01*
X36909358Y-51486174D01*
X36933250Y-51485000D01*
X37420750Y-51485000D01*
X37444642Y-51486174D01*
G37*
G36*
X62064142Y-63170174D02*
G01*
X62087803Y-63173684D01*
X62111007Y-63179496D01*
X62133529Y-63187554D01*
X62155153Y-63197782D01*
X62175670Y-63210079D01*
X62194883Y-63224329D01*
X62212607Y-63240393D01*
X62228671Y-63258117D01*
X62242921Y-63277330D01*
X62255218Y-63297847D01*
X62265446Y-63319471D01*
X62273504Y-63341993D01*
X62279316Y-63365197D01*
X62282826Y-63388858D01*
X62284000Y-63412750D01*
X62284000Y-64325250D01*
X62282826Y-64349142D01*
X62279316Y-64372803D01*
X62273504Y-64396007D01*
X62265446Y-64418529D01*
X62255218Y-64440153D01*
X62242921Y-64460670D01*
X62228671Y-64479883D01*
X62212607Y-64497607D01*
X62194883Y-64513671D01*
X62175670Y-64527921D01*
X62155153Y-64540218D01*
X62133529Y-64550446D01*
X62111007Y-64558504D01*
X62087803Y-64564316D01*
X62064142Y-64567826D01*
X62040250Y-64569000D01*
X61552750Y-64569000D01*
X61528858Y-64567826D01*
X61505197Y-64564316D01*
X61481993Y-64558504D01*
X61459471Y-64550446D01*
X61437847Y-64540218D01*
X61417330Y-64527921D01*
X61398117Y-64513671D01*
X61380393Y-64497607D01*
X61364329Y-64479883D01*
X61350079Y-64460670D01*
X61337782Y-64440153D01*
X61327554Y-64418529D01*
X61319496Y-64396007D01*
X61313684Y-64372803D01*
X61310174Y-64349142D01*
X61309000Y-64325250D01*
X61309000Y-63412750D01*
X61310174Y-63388858D01*
X61313684Y-63365197D01*
X61319496Y-63341993D01*
X61327554Y-63319471D01*
X61337782Y-63297847D01*
X61350079Y-63277330D01*
X61364329Y-63258117D01*
X61380393Y-63240393D01*
X61398117Y-63224329D01*
X61417330Y-63210079D01*
X61437847Y-63197782D01*
X61459471Y-63187554D01*
X61481993Y-63179496D01*
X61505197Y-63173684D01*
X61528858Y-63170174D01*
X61552750Y-63169000D01*
X62040250Y-63169000D01*
X62064142Y-63170174D01*
G37*
G36*
X63939142Y-63170174D02*
G01*
X63962803Y-63173684D01*
X63986007Y-63179496D01*
X64008529Y-63187554D01*
X64030153Y-63197782D01*
X64050670Y-63210079D01*
X64069883Y-63224329D01*
X64087607Y-63240393D01*
X64103671Y-63258117D01*
X64117921Y-63277330D01*
X64130218Y-63297847D01*
X64140446Y-63319471D01*
X64148504Y-63341993D01*
X64154316Y-63365197D01*
X64157826Y-63388858D01*
X64159000Y-63412750D01*
X64159000Y-64325250D01*
X64157826Y-64349142D01*
X64154316Y-64372803D01*
X64148504Y-64396007D01*
X64140446Y-64418529D01*
X64130218Y-64440153D01*
X64117921Y-64460670D01*
X64103671Y-64479883D01*
X64087607Y-64497607D01*
X64069883Y-64513671D01*
X64050670Y-64527921D01*
X64030153Y-64540218D01*
X64008529Y-64550446D01*
X63986007Y-64558504D01*
X63962803Y-64564316D01*
X63939142Y-64567826D01*
X63915250Y-64569000D01*
X63427750Y-64569000D01*
X63403858Y-64567826D01*
X63380197Y-64564316D01*
X63356993Y-64558504D01*
X63334471Y-64550446D01*
X63312847Y-64540218D01*
X63292330Y-64527921D01*
X63273117Y-64513671D01*
X63255393Y-64497607D01*
X63239329Y-64479883D01*
X63225079Y-64460670D01*
X63212782Y-64440153D01*
X63202554Y-64418529D01*
X63194496Y-64396007D01*
X63188684Y-64372803D01*
X63185174Y-64349142D01*
X63184000Y-64325250D01*
X63184000Y-63412750D01*
X63185174Y-63388858D01*
X63188684Y-63365197D01*
X63194496Y-63341993D01*
X63202554Y-63319471D01*
X63212782Y-63297847D01*
X63225079Y-63277330D01*
X63239329Y-63258117D01*
X63255393Y-63240393D01*
X63273117Y-63224329D01*
X63292330Y-63210079D01*
X63312847Y-63197782D01*
X63334471Y-63187554D01*
X63356993Y-63179496D01*
X63380197Y-63173684D01*
X63403858Y-63170174D01*
X63427750Y-63169000D01*
X63915250Y-63169000D01*
X63939142Y-63170174D01*
G37*
G36*
X40862142Y-85051174D02*
G01*
X40885803Y-85054684D01*
X40909007Y-85060496D01*
X40931529Y-85068554D01*
X40953153Y-85078782D01*
X40973670Y-85091079D01*
X40992883Y-85105329D01*
X41010607Y-85121393D01*
X41026671Y-85139117D01*
X41040921Y-85158330D01*
X41053218Y-85178847D01*
X41063446Y-85200471D01*
X41071504Y-85222993D01*
X41077316Y-85246197D01*
X41080826Y-85269858D01*
X41082000Y-85293750D01*
X41082000Y-85781250D01*
X41080826Y-85805142D01*
X41077316Y-85828803D01*
X41071504Y-85852007D01*
X41063446Y-85874529D01*
X41053218Y-85896153D01*
X41040921Y-85916670D01*
X41026671Y-85935883D01*
X41010607Y-85953607D01*
X40992883Y-85969671D01*
X40973670Y-85983921D01*
X40953153Y-85996218D01*
X40931529Y-86006446D01*
X40909007Y-86014504D01*
X40885803Y-86020316D01*
X40862142Y-86023826D01*
X40838250Y-86025000D01*
X39925750Y-86025000D01*
X39901858Y-86023826D01*
X39878197Y-86020316D01*
X39854993Y-86014504D01*
X39832471Y-86006446D01*
X39810847Y-85996218D01*
X39790330Y-85983921D01*
X39771117Y-85969671D01*
X39753393Y-85953607D01*
X39737329Y-85935883D01*
X39723079Y-85916670D01*
X39710782Y-85896153D01*
X39700554Y-85874529D01*
X39692496Y-85852007D01*
X39686684Y-85828803D01*
X39683174Y-85805142D01*
X39682000Y-85781250D01*
X39682000Y-85293750D01*
X39683174Y-85269858D01*
X39686684Y-85246197D01*
X39692496Y-85222993D01*
X39700554Y-85200471D01*
X39710782Y-85178847D01*
X39723079Y-85158330D01*
X39737329Y-85139117D01*
X39753393Y-85121393D01*
X39771117Y-85105329D01*
X39790330Y-85091079D01*
X39810847Y-85078782D01*
X39832471Y-85068554D01*
X39854993Y-85060496D01*
X39878197Y-85054684D01*
X39901858Y-85051174D01*
X39925750Y-85050000D01*
X40838250Y-85050000D01*
X40862142Y-85051174D01*
G37*
G36*
X40862142Y-86926174D02*
G01*
X40885803Y-86929684D01*
X40909007Y-86935496D01*
X40931529Y-86943554D01*
X40953153Y-86953782D01*
X40973670Y-86966079D01*
X40992883Y-86980329D01*
X41010607Y-86996393D01*
X41026671Y-87014117D01*
X41040921Y-87033330D01*
X41053218Y-87053847D01*
X41063446Y-87075471D01*
X41071504Y-87097993D01*
X41077316Y-87121197D01*
X41080826Y-87144858D01*
X41082000Y-87168750D01*
X41082000Y-87656250D01*
X41080826Y-87680142D01*
X41077316Y-87703803D01*
X41071504Y-87727007D01*
X41063446Y-87749529D01*
X41053218Y-87771153D01*
X41040921Y-87791670D01*
X41026671Y-87810883D01*
X41010607Y-87828607D01*
X40992883Y-87844671D01*
X40973670Y-87858921D01*
X40953153Y-87871218D01*
X40931529Y-87881446D01*
X40909007Y-87889504D01*
X40885803Y-87895316D01*
X40862142Y-87898826D01*
X40838250Y-87900000D01*
X39925750Y-87900000D01*
X39901858Y-87898826D01*
X39878197Y-87895316D01*
X39854993Y-87889504D01*
X39832471Y-87881446D01*
X39810847Y-87871218D01*
X39790330Y-87858921D01*
X39771117Y-87844671D01*
X39753393Y-87828607D01*
X39737329Y-87810883D01*
X39723079Y-87791670D01*
X39710782Y-87771153D01*
X39700554Y-87749529D01*
X39692496Y-87727007D01*
X39686684Y-87703803D01*
X39683174Y-87680142D01*
X39682000Y-87656250D01*
X39682000Y-87168750D01*
X39683174Y-87144858D01*
X39686684Y-87121197D01*
X39692496Y-87097993D01*
X39700554Y-87075471D01*
X39710782Y-87053847D01*
X39723079Y-87033330D01*
X39737329Y-87014117D01*
X39753393Y-86996393D01*
X39771117Y-86980329D01*
X39790330Y-86966079D01*
X39810847Y-86953782D01*
X39832471Y-86943554D01*
X39854993Y-86935496D01*
X39878197Y-86929684D01*
X39901858Y-86926174D01*
X39925750Y-86925000D01*
X40838250Y-86925000D01*
X40862142Y-86926174D01*
G37*
G36*
X52461504Y-94611204D02*
G01*
X52485773Y-94614804D01*
X52509571Y-94620765D01*
X52532671Y-94629030D01*
X52554849Y-94639520D01*
X52575893Y-94652133D01*
X52595598Y-94666747D01*
X52613777Y-94683223D01*
X52630253Y-94701402D01*
X52644867Y-94721107D01*
X52657480Y-94742151D01*
X52667970Y-94764329D01*
X52676235Y-94787429D01*
X52682196Y-94811227D01*
X52685796Y-94835496D01*
X52687000Y-94860000D01*
X52687000Y-95610000D01*
X52685796Y-95634504D01*
X52682196Y-95658773D01*
X52676235Y-95682571D01*
X52667970Y-95705671D01*
X52657480Y-95727849D01*
X52644867Y-95748893D01*
X52630253Y-95768598D01*
X52613777Y-95786777D01*
X52595598Y-95803253D01*
X52575893Y-95817867D01*
X52554849Y-95830480D01*
X52532671Y-95840970D01*
X52509571Y-95849235D01*
X52485773Y-95855196D01*
X52461504Y-95858796D01*
X52437000Y-95860000D01*
X51187000Y-95860000D01*
X51162496Y-95858796D01*
X51138227Y-95855196D01*
X51114429Y-95849235D01*
X51091329Y-95840970D01*
X51069151Y-95830480D01*
X51048107Y-95817867D01*
X51028402Y-95803253D01*
X51010223Y-95786777D01*
X50993747Y-95768598D01*
X50979133Y-95748893D01*
X50966520Y-95727849D01*
X50956030Y-95705671D01*
X50947765Y-95682571D01*
X50941804Y-95658773D01*
X50938204Y-95634504D01*
X50937000Y-95610000D01*
X50937000Y-94860000D01*
X50938204Y-94835496D01*
X50941804Y-94811227D01*
X50947765Y-94787429D01*
X50956030Y-94764329D01*
X50966520Y-94742151D01*
X50979133Y-94721107D01*
X50993747Y-94701402D01*
X51010223Y-94683223D01*
X51028402Y-94666747D01*
X51048107Y-94652133D01*
X51069151Y-94639520D01*
X51091329Y-94629030D01*
X51114429Y-94620765D01*
X51138227Y-94614804D01*
X51162496Y-94611204D01*
X51187000Y-94610000D01*
X52437000Y-94610000D01*
X52461504Y-94611204D01*
G37*
G36*
X52461504Y-97411204D02*
G01*
X52485773Y-97414804D01*
X52509571Y-97420765D01*
X52532671Y-97429030D01*
X52554849Y-97439520D01*
X52575893Y-97452133D01*
X52595598Y-97466747D01*
X52613777Y-97483223D01*
X52630253Y-97501402D01*
X52644867Y-97521107D01*
X52657480Y-97542151D01*
X52667970Y-97564329D01*
X52676235Y-97587429D01*
X52682196Y-97611227D01*
X52685796Y-97635496D01*
X52687000Y-97660000D01*
X52687000Y-98410000D01*
X52685796Y-98434504D01*
X52682196Y-98458773D01*
X52676235Y-98482571D01*
X52667970Y-98505671D01*
X52657480Y-98527849D01*
X52644867Y-98548893D01*
X52630253Y-98568598D01*
X52613777Y-98586777D01*
X52595598Y-98603253D01*
X52575893Y-98617867D01*
X52554849Y-98630480D01*
X52532671Y-98640970D01*
X52509571Y-98649235D01*
X52485773Y-98655196D01*
X52461504Y-98658796D01*
X52437000Y-98660000D01*
X51187000Y-98660000D01*
X51162496Y-98658796D01*
X51138227Y-98655196D01*
X51114429Y-98649235D01*
X51091329Y-98640970D01*
X51069151Y-98630480D01*
X51048107Y-98617867D01*
X51028402Y-98603253D01*
X51010223Y-98586777D01*
X50993747Y-98568598D01*
X50979133Y-98548893D01*
X50966520Y-98527849D01*
X50956030Y-98505671D01*
X50947765Y-98482571D01*
X50941804Y-98458773D01*
X50938204Y-98434504D01*
X50937000Y-98410000D01*
X50937000Y-97660000D01*
X50938204Y-97635496D01*
X50941804Y-97611227D01*
X50947765Y-97587429D01*
X50956030Y-97564329D01*
X50966520Y-97542151D01*
X50979133Y-97521107D01*
X50993747Y-97501402D01*
X51010223Y-97483223D01*
X51028402Y-97466747D01*
X51048107Y-97452133D01*
X51069151Y-97439520D01*
X51091329Y-97429030D01*
X51114429Y-97420765D01*
X51138227Y-97414804D01*
X51162496Y-97411204D01*
X51187000Y-97410000D01*
X52437000Y-97410000D01*
X52461504Y-97411204D01*
G37*
G36*
X42857142Y-79426174D02*
G01*
X42880803Y-79429684D01*
X42904007Y-79435496D01*
X42926529Y-79443554D01*
X42948153Y-79453782D01*
X42968670Y-79466079D01*
X42987883Y-79480329D01*
X43005607Y-79496393D01*
X43021671Y-79514117D01*
X43035921Y-79533330D01*
X43048218Y-79553847D01*
X43058446Y-79575471D01*
X43066504Y-79597993D01*
X43072316Y-79621197D01*
X43075826Y-79644858D01*
X43077000Y-79668750D01*
X43077000Y-80581250D01*
X43075826Y-80605142D01*
X43072316Y-80628803D01*
X43066504Y-80652007D01*
X43058446Y-80674529D01*
X43048218Y-80696153D01*
X43035921Y-80716670D01*
X43021671Y-80735883D01*
X43005607Y-80753607D01*
X42987883Y-80769671D01*
X42968670Y-80783921D01*
X42948153Y-80796218D01*
X42926529Y-80806446D01*
X42904007Y-80814504D01*
X42880803Y-80820316D01*
X42857142Y-80823826D01*
X42833250Y-80825000D01*
X42345750Y-80825000D01*
X42321858Y-80823826D01*
X42298197Y-80820316D01*
X42274993Y-80814504D01*
X42252471Y-80806446D01*
X42230847Y-80796218D01*
X42210330Y-80783921D01*
X42191117Y-80769671D01*
X42173393Y-80753607D01*
X42157329Y-80735883D01*
X42143079Y-80716670D01*
X42130782Y-80696153D01*
X42120554Y-80674529D01*
X42112496Y-80652007D01*
X42106684Y-80628803D01*
X42103174Y-80605142D01*
X42102000Y-80581250D01*
X42102000Y-79668750D01*
X42103174Y-79644858D01*
X42106684Y-79621197D01*
X42112496Y-79597993D01*
X42120554Y-79575471D01*
X42130782Y-79553847D01*
X42143079Y-79533330D01*
X42157329Y-79514117D01*
X42173393Y-79496393D01*
X42191117Y-79480329D01*
X42210330Y-79466079D01*
X42230847Y-79453782D01*
X42252471Y-79443554D01*
X42274993Y-79435496D01*
X42298197Y-79429684D01*
X42321858Y-79426174D01*
X42345750Y-79425000D01*
X42833250Y-79425000D01*
X42857142Y-79426174D01*
G37*
G36*
X40982142Y-79426174D02*
G01*
X41005803Y-79429684D01*
X41029007Y-79435496D01*
X41051529Y-79443554D01*
X41073153Y-79453782D01*
X41093670Y-79466079D01*
X41112883Y-79480329D01*
X41130607Y-79496393D01*
X41146671Y-79514117D01*
X41160921Y-79533330D01*
X41173218Y-79553847D01*
X41183446Y-79575471D01*
X41191504Y-79597993D01*
X41197316Y-79621197D01*
X41200826Y-79644858D01*
X41202000Y-79668750D01*
X41202000Y-80581250D01*
X41200826Y-80605142D01*
X41197316Y-80628803D01*
X41191504Y-80652007D01*
X41183446Y-80674529D01*
X41173218Y-80696153D01*
X41160921Y-80716670D01*
X41146671Y-80735883D01*
X41130607Y-80753607D01*
X41112883Y-80769671D01*
X41093670Y-80783921D01*
X41073153Y-80796218D01*
X41051529Y-80806446D01*
X41029007Y-80814504D01*
X41005803Y-80820316D01*
X40982142Y-80823826D01*
X40958250Y-80825000D01*
X40470750Y-80825000D01*
X40446858Y-80823826D01*
X40423197Y-80820316D01*
X40399993Y-80814504D01*
X40377471Y-80806446D01*
X40355847Y-80796218D01*
X40335330Y-80783921D01*
X40316117Y-80769671D01*
X40298393Y-80753607D01*
X40282329Y-80735883D01*
X40268079Y-80716670D01*
X40255782Y-80696153D01*
X40245554Y-80674529D01*
X40237496Y-80652007D01*
X40231684Y-80628803D01*
X40228174Y-80605142D01*
X40227000Y-80581250D01*
X40227000Y-79668750D01*
X40228174Y-79644858D01*
X40231684Y-79621197D01*
X40237496Y-79597993D01*
X40245554Y-79575471D01*
X40255782Y-79553847D01*
X40268079Y-79533330D01*
X40282329Y-79514117D01*
X40298393Y-79496393D01*
X40316117Y-79480329D01*
X40335330Y-79466079D01*
X40355847Y-79453782D01*
X40377471Y-79443554D01*
X40399993Y-79435496D01*
X40423197Y-79429684D01*
X40446858Y-79426174D01*
X40470750Y-79425000D01*
X40958250Y-79425000D01*
X40982142Y-79426174D01*
G37*
M02*
