G04 #@! TF.GenerationSoftware,KiCad,Pcbnew,5.1.5-52549c5~84~ubuntu19.10.1*
G04 #@! TF.CreationDate,2020-06-15T16:45:33+03:00*
G04 #@! TF.ProjectId,hymTracker_Panel,68796d54-7261-4636-9b65-725f50616e65,rev?*
G04 #@! TF.SameCoordinates,Original*
G04 #@! TF.FileFunction,Profile,NP*
%FSLAX46Y46*%
G04 Gerber Fmt 4.6, Leading zero omitted, Abs format (unit mm)*
G04 Created by KiCad (PCBNEW 5.1.5-52549c5~84~ubuntu19.10.1) date 2020-06-15 16:45:33*
%MOMM*%
%LPD*%
G04 APERTURE LIST*
%ADD10C,0.150000*%
%ADD11C,0.050000*%
%ADD12C,0.001000*%
%ADD13C,0.000250*%
G04 APERTURE END LIST*
D10*
X89400000Y-113800000D02*
G75*
G03X98800000Y-113800000I4700000J-6500000D01*
G01*
X89400000Y-113800000D02*
G75*
G03X98800000Y-113800000I4700000J-4300000D01*
G01*
D11*
X92641420Y-72663499D02*
X92710000Y-72898000D01*
X92710000Y-72898000D02*
X92856667Y-75967999D01*
X91186000Y-71374000D02*
G75*
G02X92641420Y-72663499I-68579J-1543498D01*
G01*
X94956294Y-73387690D02*
G75*
G02X94455658Y-71580237I261363J1045454D01*
G01*
X82955074Y-84932880D02*
X79492000Y-84968000D01*
X102767074Y-84932880D02*
X86155474Y-84936080D01*
X102767074Y-84932880D02*
G75*
G02X104295397Y-86460277I1324J-1526998D01*
G01*
X104440077Y-86464403D02*
G75*
G02X105967474Y-84936080I1526998J1324D01*
G01*
X82955074Y-84932880D02*
G75*
G02X84483397Y-86460277I1324J-1526998D01*
G01*
X84628077Y-86464403D02*
G75*
G02X86155474Y-84936080I1526998J1324D01*
G01*
X105968400Y-87991800D02*
X110120000Y-88010000D01*
X86156400Y-87991800D02*
X102768000Y-87988600D01*
X105968400Y-87991800D02*
G75*
G02X104440077Y-86464403I-1324J1526998D01*
G01*
X104295397Y-86460277D02*
G75*
G02X102768000Y-87988600I-1526998J-1324D01*
G01*
X78200000Y-108654000D02*
X78232000Y-99822000D01*
X74676000Y-99822000D02*
G75*
G02X78232000Y-99822000I1778000J0D01*
G01*
X78232000Y-95250000D02*
G75*
G02X74676000Y-95250000I-1778000J0D01*
G01*
X78200000Y-121100000D02*
X78200000Y-111379000D01*
X78200000Y-136100000D02*
X78200000Y-123825000D01*
X110200000Y-136100000D02*
X78200000Y-136100000D01*
X110120000Y-88010000D02*
X110200000Y-136100000D01*
X78200000Y-88011000D02*
X82956000Y-87988600D01*
X78232000Y-95250000D02*
X78200000Y-88011000D01*
X76200000Y-111379000D02*
G75*
G02X78200000Y-111379000I1000000J0D01*
G01*
X78200000Y-108654000D02*
G75*
G02X76200000Y-108654000I-1000000J0D01*
G01*
X76200000Y-123825000D02*
G75*
G02X78200000Y-123825000I1000000J0D01*
G01*
X78200000Y-121100000D02*
G75*
G02X76200000Y-121100000I-1000000J0D01*
G01*
X81877230Y-55174125D02*
X79830070Y-54128239D01*
X79830070Y-54128240D02*
G75*
G02X94956293Y-73387690I13661930J-4839760D01*
G01*
X76121219Y-54695307D02*
G75*
G02X101491999Y-74967999I17370781J-4272693D01*
G01*
X92856667Y-75967999D02*
G75*
G02X91856667Y-76967999I-1000000J0D01*
G01*
X101492000Y-76968000D02*
G75*
G02X101492000Y-74968000I0J1000000D01*
G01*
X77492000Y-78968000D02*
G75*
G02X79492000Y-76968000I2000000J0D01*
G01*
X79492000Y-84968000D02*
G75*
G02X77492000Y-82968000I0J2000000D01*
G01*
X111492000Y-82968000D02*
G75*
G02X109492000Y-84968000I-2000000J0D01*
G01*
X109492000Y-76968000D02*
G75*
G02X111492000Y-78968000I0J-2000000D01*
G01*
X109492000Y-76968000D02*
X101492000Y-76968000D01*
X111492000Y-82968000D02*
X111492000Y-78968000D01*
X105967474Y-84936080D02*
X109492000Y-84968000D01*
X77492000Y-78968000D02*
X77492000Y-82968000D01*
X91856667Y-76967999D02*
X79492000Y-76968000D01*
D12*
X96310272Y-107852772D02*
X95990976Y-108769708D01*
X90564315Y-110778447D02*
X91250000Y-110297224D01*
X95093631Y-111189204D02*
X94928971Y-111629057D01*
X92759340Y-107093373D02*
X93143791Y-107400000D01*
X93907996Y-113460937D02*
X93750691Y-112900000D01*
X94315152Y-108176622D02*
X94641134Y-107980382D01*
X93530456Y-107706421D02*
X93873835Y-107964349D01*
X94928971Y-111629057D02*
X94690449Y-112275992D01*
X94252283Y-113479812D02*
G75*
G02X94137675Y-113675862I-594251J215866D01*
G01*
X93578521Y-112279375D02*
X93481896Y-111957211D01*
X96486913Y-111181168D02*
X95974106Y-111156720D01*
X92422914Y-106835001D02*
X92759340Y-107093373D01*
X95450000Y-107460804D02*
X95876612Y-107181932D01*
X96647820Y-106841312D02*
X96310272Y-107852772D01*
X93481896Y-111957211D02*
X93399358Y-111700000D01*
X94641134Y-107980382D02*
X95020572Y-107742540D01*
X93673293Y-112611095D02*
X93578521Y-112279375D01*
X94137675Y-113675863D02*
G75*
G02X94026674Y-113676063I-55587J47738D01*
G01*
X92532607Y-111087421D02*
X92217489Y-111062526D01*
X93873835Y-107964349D02*
X94169135Y-108175772D01*
X95778577Y-109321867D02*
G75*
G02X95797537Y-109204604I180045J31053D01*
G01*
X96566937Y-106765080D02*
G75*
G02X96618366Y-106764822I25939J-44676D01*
G01*
X92568024Y-109401540D02*
G75*
G02X92280648Y-109616205I-1361460J1522918D01*
G01*
X95832432Y-109441448D02*
G75*
G02X95778576Y-109321867I204935J164215D01*
G01*
X90479083Y-110909428D02*
G75*
G02X90564315Y-110778447I209026J-42796D01*
G01*
X95020572Y-107742540D02*
X95450000Y-107460804D01*
X95990976Y-108769708D02*
G75*
G02X95797537Y-109204604I-3075091J1107315D01*
G01*
X93143791Y-107400000D02*
X93530456Y-107706421D01*
X96246958Y-106953269D02*
X96566936Y-106765080D01*
X93399358Y-111700000D02*
X93215213Y-111150000D01*
X94315151Y-108176622D02*
G75*
G02X94241092Y-108197784I-77130J129758D01*
G01*
X93750691Y-112900000D02*
X93673293Y-112611095D01*
X95974106Y-111156720D02*
X95536985Y-111141348D01*
X96324724Y-109862516D02*
X97015502Y-110396211D01*
X91800253Y-109926064D02*
X92073492Y-109747302D01*
X97498378Y-110793770D02*
X97847839Y-111103149D01*
X92614922Y-108934852D02*
G75*
G02X92651681Y-109219108I-940222J-266090D01*
G01*
X95876612Y-107181932D02*
X96246958Y-106953269D01*
X97814503Y-111210131D02*
X97439323Y-111211086D01*
X92217489Y-111062526D02*
X91831253Y-111039576D01*
X91831253Y-111039576D02*
X91438939Y-111021696D01*
X94241093Y-108197784D02*
G75*
G02X94169135Y-108175772I-2455J120599D01*
G01*
X91250000Y-110297224D02*
X91511223Y-110118926D01*
X95536985Y-111141348D02*
X95153646Y-111131438D01*
X93215213Y-111150000D02*
X92532607Y-111087421D01*
X95986607Y-109596770D02*
G75*
G02X95832432Y-109441448I651765J801126D01*
G01*
X95986606Y-109596770D02*
X96324724Y-109862516D01*
X90542289Y-110991603D02*
G75*
G02X90479082Y-110909428I3940J68427D01*
G01*
X92312768Y-107888848D02*
X92101544Y-107157220D01*
X91103572Y-111012421D02*
X90542289Y-110991602D01*
X92077699Y-106600000D02*
G75*
G02X92130564Y-106617400I0J-89008D01*
G01*
X92130564Y-106617400D02*
X92422914Y-106835001D01*
X92651682Y-109219108D02*
G75*
G02X92568024Y-109401540I-250920J4666D01*
G01*
X94026674Y-113676062D02*
G75*
G02X93907996Y-113460937I447637J387246D01*
G01*
X91438939Y-111021696D02*
X91103572Y-111012421D01*
X96618365Y-106764822D02*
G75*
G02X96647820Y-106841312I-31874J-56190D01*
G01*
X94690449Y-112275992D02*
X94252283Y-113479812D01*
X92073492Y-109747302D02*
X92280648Y-109616205D01*
X97859328Y-111184909D02*
G75*
G02X97814503Y-111210131I-45241J27960D01*
G01*
X92024460Y-106824936D02*
G75*
G02X92016854Y-106655565I617211J112572D01*
G01*
X92614922Y-108934852D02*
X92312768Y-107888848D01*
X92016854Y-106655565D02*
G75*
G02X92077699Y-106600000I60845J-5531D01*
G01*
X95122949Y-111143719D02*
G75*
G02X95153646Y-111131438I29679J-29680D01*
G01*
X95093631Y-111189204D02*
G75*
G02X95122948Y-111143719I119877J-45075D01*
G01*
X91511223Y-110118926D02*
X91800253Y-109926064D01*
X97015502Y-110396211D02*
X97498378Y-110793770D01*
X97439323Y-111211086D02*
X97000300Y-111203181D01*
X97000300Y-111203181D02*
X96486913Y-111181168D01*
X92101543Y-107157220D02*
G75*
G02X92024460Y-106824935I3453097J976139D01*
G01*
X97847839Y-111103149D02*
G75*
G02X97859327Y-111184909I-43468J-47795D01*
G01*
D13*
X105248329Y-57738670D02*
G75*
G02X105264828Y-57953701I-1234949J-202908D01*
G01*
X105264827Y-57953701D02*
G75*
G02X105235867Y-58076962I-288691J2796D01*
G01*
X105235867Y-58076962D02*
G75*
G02X105158349Y-58159866I-172767J83850D01*
G01*
X105158348Y-58159866D02*
G75*
G02X104887855Y-58231729I-270701J473923D01*
G01*
X92226352Y-47146084D02*
G75*
G02X92269089Y-47195838I-90790J-121216D01*
G01*
X92269090Y-47195838D02*
G75*
G02X92293175Y-47286078I-180164J-96421D01*
G01*
X92307487Y-47823466D02*
X92293175Y-47286078D01*
X92317718Y-48512246D02*
X92307487Y-47823466D01*
X80538734Y-55967903D02*
G75*
G02X80438039Y-56187736I-1416352J515784D01*
G01*
X80438038Y-56187736D02*
G75*
G02X80262916Y-56462755I-2489269J1391816D01*
G01*
X105082318Y-56803735D02*
X105045576Y-56589007D01*
X105124656Y-57043094D02*
X105082318Y-56803735D01*
X105166929Y-57274125D02*
X105124656Y-57043094D01*
X105248328Y-57738670D02*
X105166929Y-57274125D01*
X92280529Y-51579968D02*
G75*
G02X92217650Y-51702324I-221969J36735D01*
G01*
X92217651Y-51702324D02*
G75*
G02X92150438Y-51755585I-263580J263580D01*
G01*
X92150438Y-51755585D02*
G75*
G02X92082600Y-51781785I-103435J166893D01*
G01*
X92082599Y-51781786D02*
G75*
G02X91990319Y-51787462I-69509J377052D01*
G01*
X79407570Y-57574916D02*
X79632707Y-57279870D01*
X79180316Y-57885645D02*
X79407570Y-57574916D01*
X98720849Y-48299139D02*
X98557184Y-48227019D01*
X98720849Y-48299139D02*
G75*
G02X99092791Y-48486266I-1366055J-3178445D01*
G01*
X99627310Y-48810408D02*
X99092791Y-48486266D01*
X100146558Y-49148940D02*
X99627310Y-48810408D01*
X91830150Y-51773759D02*
X91990319Y-51787462D01*
X91141290Y-51687781D02*
X91830150Y-51773759D01*
X90541617Y-51593260D02*
X91141290Y-51687781D01*
X89983314Y-51482178D02*
X90541617Y-51593260D01*
X92320849Y-49445838D02*
X92317718Y-48512246D01*
X94620849Y-49367053D02*
X92320849Y-49445838D01*
X92307150Y-51327004D02*
X92318882Y-50843461D01*
X92307151Y-51327004D02*
G75*
G02X92280529Y-51579967I-2149108J98289D01*
G01*
X93325116Y-82093281D02*
X93294675Y-82199125D01*
X93358730Y-81959438D02*
X93325116Y-82093281D01*
X93390176Y-81820810D02*
X93358730Y-81959438D01*
X93414134Y-81699125D02*
X93390176Y-81820810D01*
X93479024Y-81359953D02*
X93414134Y-81699125D01*
X93537923Y-81105945D02*
X93479024Y-81359953D01*
X93594638Y-80915779D02*
X93537923Y-81105945D01*
X81660803Y-62508473D02*
X82011544Y-63574125D01*
X81660803Y-62508473D02*
G75*
G02X81421243Y-61528422I10699664J3134688D01*
G01*
X81293643Y-60721367D02*
X81421243Y-61528422D01*
X81293643Y-60721367D02*
G75*
G02X81393059Y-60434057I345382J41344D01*
G01*
X102024774Y-60274870D02*
X98459293Y-60284976D01*
X100753478Y-66299125D02*
G75*
G02X100738088Y-66295222I0J32293D01*
G01*
X100640360Y-66241913D02*
X100738088Y-66295222D01*
X100527947Y-66179011D02*
X100640360Y-66241913D01*
X100398645Y-66104360D02*
X100527947Y-66179011D01*
X100155401Y-65972812D02*
X100398645Y-66104360D01*
X94753499Y-51671270D02*
G75*
G02X94688341Y-51622314I47959J131670D01*
G01*
X94688341Y-51622313D02*
G75*
G02X94651079Y-51517889I157220J114961D01*
G01*
X94634272Y-51118183D02*
X94651079Y-51517889D01*
X94623535Y-50498743D02*
X94634272Y-51118183D01*
X99374435Y-80816036D02*
G75*
G02X99476939Y-80940592I-709564J-688399D01*
G01*
X99476939Y-80940592D02*
G75*
G02X99565218Y-81088089I-1045440J-725879D01*
G01*
X99565218Y-81088089D02*
G75*
G02X99655983Y-81354070I-878992J-448429D01*
G01*
X99655983Y-81354070D02*
G75*
G02X99677272Y-81655464I-1288880J-242489D01*
G01*
X99677272Y-81655464D02*
G75*
G02X99628514Y-81965491I-1414352J63588D01*
G01*
X99628515Y-81965491D02*
G75*
G02X99512669Y-82256904I-1361422J372473D01*
G01*
X76035100Y-54674125D02*
X75732500Y-54677463D01*
X76121219Y-54695307D02*
X76035100Y-54674125D01*
X104497414Y-54704907D02*
X104448483Y-54570825D01*
X104555909Y-54861818D02*
X104497414Y-54704907D01*
X104617680Y-55024125D02*
X104555909Y-54861818D01*
X104752736Y-55400583D02*
X104617680Y-55024125D01*
X92310063Y-62417474D02*
X94579219Y-62469913D01*
X94578925Y-60848846D02*
X94572083Y-61360532D01*
X94597386Y-60551399D02*
X94578925Y-60848846D01*
X94597386Y-60551400D02*
G75*
G02X94642663Y-60421970I283110J-26404D01*
G01*
X94722737Y-60299762D02*
X94642663Y-60421970D01*
X89261808Y-53247396D02*
X88471439Y-53019234D01*
X90044462Y-53424007D02*
X89261808Y-53247396D01*
X90809238Y-53546473D02*
X90044462Y-53424007D01*
X91137251Y-53585775D02*
X90809238Y-53546473D01*
X91646921Y-81880675D02*
G75*
G02X91598172Y-81665230I1057922J352618D01*
G01*
X91565179Y-81436265D02*
X91598172Y-81665230D01*
X91519946Y-81184089D02*
X91565179Y-81436265D01*
X91468535Y-80939061D02*
X91519946Y-81184089D01*
X91416814Y-80732622D02*
X91468535Y-80939061D01*
X91342651Y-80572673D02*
G75*
G02X91416814Y-80732622I-443912J-302996D01*
G01*
X91260168Y-80563439D02*
G75*
G02X91342650Y-80572673I37269J-40095D01*
G01*
X88345788Y-79249125D02*
X88317507Y-79131684D01*
X88376106Y-79377758D02*
X88345788Y-79249125D01*
X88406202Y-79538813D02*
X88376106Y-79377758D01*
X88431685Y-79704671D02*
X88406202Y-79538813D01*
X88447885Y-79849125D02*
X88431685Y-79704671D01*
X88463719Y-80005354D02*
X88447885Y-79849125D01*
X88488757Y-80210844D02*
X88463719Y-80005354D01*
X88517962Y-80428071D02*
X88488757Y-80210844D01*
X88547219Y-80624125D02*
X88517962Y-80428071D01*
X88578068Y-80827255D02*
X88547219Y-80624125D01*
X88612169Y-81066782D02*
X88578068Y-80827255D01*
X88644222Y-81303947D02*
X88612169Y-81066782D01*
X88668638Y-81499125D02*
X88644222Y-81303947D01*
X98788501Y-80504165D02*
X98720537Y-80479204D01*
X98854893Y-80521775D02*
G75*
G02X98788501Y-80504165I142772J672234D01*
G01*
X98854893Y-80521775D02*
G75*
G02X98920152Y-80539990I-111929J-527013D01*
G01*
X98920152Y-80539990D02*
G75*
G02X98984720Y-80566718I-200421J-575514D01*
G01*
X98984720Y-80566718D02*
G75*
G02X99039630Y-80597399I-229218J-474706D01*
G01*
X99039630Y-80597399D02*
G75*
G02X99073516Y-80627339I-79231J-123819D01*
G01*
X95500841Y-51602888D02*
X96063233Y-51499661D01*
X95023490Y-51672384D02*
X95500841Y-51602888D01*
X95023490Y-51672384D02*
G75*
G02X94848166Y-51686810I-211476J1497578D01*
G01*
X94848166Y-51686810D02*
G75*
G02X94753499Y-51671270I-6180J258476D01*
G01*
X86121310Y-69118134D02*
X86488570Y-69399367D01*
X85867859Y-68894304D02*
X86121310Y-69118134D01*
X85867860Y-68894304D02*
G75*
G02X85788580Y-68759611I195287J205624D01*
G01*
X85788580Y-68759610D02*
G75*
G02X85791154Y-68655460I184091J47557D01*
G01*
X85791153Y-68655460D02*
G75*
G02X85847456Y-68550718I299004J-93222D01*
G01*
X89970848Y-64819034D02*
G75*
G02X90087488Y-64789317I370827J-1211773D01*
G01*
X89857250Y-64853050D02*
X89970849Y-64819034D01*
X89694442Y-64900357D02*
X89857250Y-64853050D01*
X89515487Y-64951530D02*
X89694442Y-64900357D01*
X89345849Y-64999191D02*
X89515487Y-64951530D01*
X89565448Y-82572353D02*
G75*
G02X89549284Y-82653889I-709514J98290D01*
G01*
X89570849Y-82494024D02*
G75*
G02X89565449Y-82572353I-570815J0D01*
G01*
X89570849Y-82494024D02*
G75*
G02X89577550Y-82400997I649057J0D01*
G01*
X89600034Y-82269564D02*
X89577550Y-82400997D01*
X89632166Y-82126069D02*
X89600034Y-82269564D01*
X89670203Y-81991080D02*
X89632166Y-82126069D01*
X92283891Y-64090542D02*
X92298960Y-63642125D01*
X92283890Y-64090542D02*
G75*
G02X92256379Y-64328123I-2029508J114632D01*
G01*
X92256379Y-64328123D02*
G75*
G02X92195849Y-64439562I-196487J34568D01*
G01*
X92195848Y-64439562D02*
G75*
G02X92077038Y-64505060I-189867J203903D01*
G01*
X92077039Y-64505060D02*
G75*
G02X91829170Y-64558664I-720317J2730932D01*
G01*
X81586135Y-56115900D02*
X81464560Y-56670347D01*
X80538734Y-55967903D02*
X81586135Y-56115900D01*
X82195025Y-54382847D02*
X81877230Y-55174125D01*
X90233584Y-47379482D02*
X90087812Y-47416066D01*
X90385565Y-47343953D02*
X90233584Y-47379482D01*
X90563838Y-47301987D02*
X90385565Y-47343953D01*
X90739689Y-47260370D02*
X90563838Y-47301987D01*
X87409095Y-80951882D02*
G75*
G02X87413055Y-81092645I-962140J-97506D01*
G01*
X87371803Y-80607415D02*
X87409094Y-80951882D01*
X86812385Y-78511625D02*
G75*
G02X86877394Y-78482750I86738J-107663D01*
G01*
X87026796Y-78464367D02*
X86877394Y-78482750D01*
X87236877Y-78452664D02*
X87026796Y-78464367D01*
X87528646Y-78449125D02*
X87236877Y-78452664D01*
X87994506Y-78457062D02*
X87528646Y-78449125D01*
X87994506Y-78457061D02*
G75*
G02X88166315Y-78499517I-14583J-427885D01*
G01*
X88166316Y-78499517D02*
G75*
G02X88246256Y-78598779I-64811J-134016D01*
G01*
X88246256Y-78598778D02*
G75*
G02X88271442Y-78808338I-886396J-212824D01*
G01*
X88276671Y-78890825D02*
G75*
G02X88271442Y-78808338I687152J84965D01*
G01*
X88293526Y-79006207D02*
X88276670Y-78890825D01*
X88317507Y-79131684D02*
X88293526Y-79006207D01*
X102752868Y-51655737D02*
X102383856Y-51212655D01*
X103129898Y-52146079D02*
X102752868Y-51655737D01*
X103427920Y-52584488D02*
X103129898Y-52146079D01*
X103683406Y-53018365D02*
X103427920Y-52584488D01*
X85847456Y-68550718D02*
G75*
G02X85957888Y-68448680I415535J-338938D01*
G01*
X85957888Y-68448680D02*
G75*
G02X86120242Y-68352996I738033J-1066703D01*
G01*
X86223865Y-68300870D02*
X86120242Y-68352996D01*
X86430627Y-68194992D02*
X86223865Y-68300870D01*
X86674502Y-68069495D02*
X86430627Y-68194992D01*
X98641732Y-70125262D02*
X99431866Y-69708239D01*
X97839371Y-70526881D02*
X98641732Y-70125262D01*
X97839371Y-70526881D02*
G75*
G02X97496022Y-70654022I-805524J1648162D01*
G01*
X97397607Y-70682495D02*
X97496022Y-70654022D01*
X97262618Y-70727076D02*
X97397607Y-70682495D01*
X91963496Y-53655192D02*
G75*
G02X92050915Y-53674301I-43331J-407742D01*
G01*
X92050915Y-53674301D02*
G75*
G02X92123120Y-53709382I-100479J-298657D01*
G01*
X92123120Y-53709382D02*
G75*
G02X92190173Y-53763905I-230978J-352553D01*
G01*
X92190174Y-53763904D02*
G75*
G02X92259078Y-53879589I-193787J-193787D01*
G01*
X101790664Y-51034972D02*
G75*
G02X101932996Y-51007372I178143J-537875D01*
G01*
X101932996Y-51007372D02*
G75*
G02X102077212Y-51016823I35589J-561960D01*
G01*
X102077212Y-51016823D02*
G75*
G02X102202547Y-51063397I-80132J-407577D01*
G01*
X102202547Y-51063398D02*
G75*
G02X102383856Y-51212655I-340712J-598625D01*
G01*
X104871288Y-55784045D02*
X104752736Y-55400583D01*
X104964715Y-56143506D02*
X104871288Y-55784045D01*
X105022689Y-56445136D02*
X104964715Y-56143506D01*
X105045576Y-56589007D02*
X105022689Y-56445136D01*
X83807506Y-51653030D02*
X83456314Y-52108426D01*
X84160641Y-51221676D02*
X83807506Y-51653030D01*
X84160642Y-51221676D02*
G75*
G02X84283589Y-51132159I240059J-200522D01*
G01*
X101670849Y-51097069D02*
G75*
G02X101790664Y-51034972I254361J-344146D01*
G01*
X99100477Y-80654930D02*
G75*
G02X99073516Y-80627339I156215J179614D01*
G01*
X99132154Y-80678527D02*
G75*
G02X99100477Y-80654931I139928J220906D01*
G01*
X99163623Y-80695091D02*
G75*
G02X99132153Y-80678527I87418J204254D01*
G01*
X99189471Y-80700789D02*
G75*
G02X99163623Y-80695092I2094J70985D01*
G01*
X99189471Y-80700789D02*
G75*
G02X99272758Y-80728749I-4466J-151331D01*
G01*
X99272759Y-80728748D02*
G75*
G02X99374435Y-80816036I-426718J-599921D01*
G01*
X95470067Y-66481685D02*
G75*
G02X96130461Y-66587605I-870999J-7542217D01*
G01*
X96130461Y-66587604D02*
G75*
G02X96745849Y-66747596I-1251627J-6077727D01*
G01*
X96948989Y-66809973D02*
X96745849Y-66747596D01*
X97188505Y-66880268D02*
X96948989Y-66809973D01*
X97425684Y-66947426D02*
X97188505Y-66880268D01*
X90883584Y-47226064D02*
X90739689Y-47260370D01*
X91015969Y-47196100D02*
X90883584Y-47226064D01*
X91155527Y-47167928D02*
X91015969Y-47196100D01*
X91282496Y-47145165D02*
X91155527Y-47167928D01*
X103197134Y-83142077D02*
G75*
G02X103183024Y-83117305I38115J38115D01*
G01*
X103153589Y-82998269D02*
X103183024Y-83117305D01*
X103121914Y-82856325D02*
X103153589Y-82998269D01*
X103089887Y-82693507D02*
X103121914Y-82856325D01*
X103056823Y-82529545D02*
X103089887Y-82693507D01*
X103022001Y-82383972D02*
X103056823Y-82529545D01*
X102988825Y-82264071D02*
X103022001Y-82383972D01*
X102968401Y-82228688D02*
G75*
G02X102988825Y-82264071I-62310J-59554D01*
G01*
X102929845Y-82210507D02*
G75*
G02X102968401Y-82228688I-4343J-59183D01*
G01*
X98370848Y-80334549D02*
G75*
G02X98443349Y-80349197I-105239J-707614D01*
G01*
X98443350Y-80349197D02*
G75*
G02X98516474Y-80371645I-203229J-792341D01*
G01*
X98516473Y-80371645D02*
G75*
G02X98580050Y-80397987I-241398J-672518D01*
G01*
X98580051Y-80397987D02*
G75*
G02X98620849Y-80424286I-78939J-167252D01*
G01*
X98660645Y-80451119D02*
G75*
G02X98620849Y-80424286I100527J192023D01*
G01*
X98720537Y-80479203D02*
G75*
G02X98660645Y-80451118I290449J697289D01*
G01*
X98105260Y-81513704D02*
G75*
G02X98240697Y-81625528I-519178J-766739D01*
G01*
X97946749Y-81427068D02*
G75*
G02X98105261Y-81513704I-375291J-874970D01*
G01*
X97810715Y-81399125D02*
G75*
G02X97946749Y-81427068I0J-345100D01*
G01*
X97810714Y-81399125D02*
G75*
G02X97746360Y-81392467I1J314330D01*
G01*
X97655621Y-81370073D02*
X97746360Y-81392467D01*
X91688059Y-78411731D02*
X91192069Y-78399125D01*
X91688059Y-78411730D02*
G75*
G02X91893234Y-78471540I-23526J-462533D01*
G01*
X91893234Y-78471540D02*
G75*
G02X92003896Y-78606875I-119708J-210795D01*
G01*
X92003895Y-78606875D02*
G75*
G02X92072525Y-78899125I-1662703J-544638D01*
G01*
X92096163Y-79041480D02*
X92072525Y-78899125D01*
X92128156Y-79200757D02*
X92096163Y-79041480D01*
X92163057Y-79352451D02*
X92128156Y-79200757D01*
X92195376Y-79469572D02*
X92163057Y-79352451D01*
X86156125Y-66212373D02*
X86823519Y-65886784D01*
X85523441Y-66554015D02*
X86156125Y-66212373D01*
X85124716Y-66815797D02*
G75*
G02X85523441Y-66554015I2192021J-2904158D01*
G01*
X84644566Y-67151240D02*
X85124717Y-66815798D01*
X84644566Y-67151240D02*
G75*
G02X84370522Y-67244948I-325575J504561D01*
G01*
X75493503Y-54725544D02*
G75*
G02X75587277Y-54692211I149393J-271711D01*
G01*
X75587277Y-54692210D02*
G75*
G02X75732500Y-54677463I165583J-908140D01*
G01*
X86692241Y-80741653D02*
X86781969Y-80586009D01*
X86612531Y-80873301D02*
X86692241Y-80741653D01*
X86612531Y-80873301D02*
G75*
G02X86563734Y-80943368I-679156J420957D01*
G01*
X86498618Y-81048710D02*
G75*
G02X86563734Y-80943368I517764J-247254D01*
G01*
X86474503Y-81145597D02*
G75*
G02X86498618Y-81048710I249120J-10562D01*
G01*
X86493518Y-81221167D02*
G75*
G02X86474503Y-81145597I117632J69777D01*
G01*
X86549938Y-81268776D02*
G75*
G02X86493518Y-81221167I40280J104969D01*
G01*
X86703020Y-81299571D02*
G75*
G02X86549938Y-81268776I14309J467008D01*
G01*
X86967673Y-81297461D02*
X86703019Y-81299571D01*
X87229928Y-81276326D02*
X86967673Y-81297461D01*
X87343848Y-81231772D02*
G75*
G02X87229928Y-81276326I-141191J193091D01*
G01*
X87392968Y-81172655D02*
G75*
G02X87343848Y-81231771I-142222J68208D01*
G01*
X87413054Y-81092645D02*
G75*
G02X87392968Y-81172655I-206163J9231D01*
G01*
X87703583Y-83085964D02*
G75*
G02X87662097Y-83037165I81232J111092D01*
G01*
X87662097Y-83037164D02*
G75*
G02X87630510Y-82956099I395799J200910D01*
G01*
X87630510Y-82956099D02*
G75*
G02X87606180Y-82838966I840349J235646D01*
G01*
X87587912Y-82673464D02*
X87606180Y-82838966D01*
X87539005Y-82348821D02*
G75*
G02X87587912Y-82673464I-2436247J-533021D01*
G01*
X87443318Y-82215901D02*
G75*
G02X87539005Y-82348821I-105677J-176976D01*
G01*
X87252794Y-82159433D02*
G75*
G02X87443318Y-82215900I-15230J-401041D01*
G01*
X86709812Y-82149125D02*
X87252794Y-82159432D01*
X86436493Y-82152815D02*
X86709812Y-82149125D01*
X86190793Y-82164001D02*
X86436493Y-82152815D01*
X85986582Y-82179746D02*
X86190793Y-82164001D01*
X85919649Y-82199767D02*
G75*
G02X85986582Y-82179746I82660J-154450D01*
G01*
X102185195Y-80836877D02*
X102262345Y-80715242D01*
X102120259Y-80942790D02*
X102185195Y-80836877D01*
X102069726Y-81043347D02*
G75*
G02X102120259Y-80942790I1064541J-471993D01*
G01*
X102036587Y-81128256D02*
G75*
G02X102069726Y-81043346I954568J-323632D01*
G01*
X102037415Y-81170180D02*
G75*
G02X102036587Y-81128256I57617J22109D01*
G01*
X102105901Y-81225055D02*
G75*
G02X102037416Y-81170180I12706J86031D01*
G01*
X102381679Y-81256873D02*
X102105901Y-81225055D01*
X102660575Y-81267437D02*
G75*
G02X102381679Y-81256873I-22773J3085559D01*
G01*
X102830130Y-81236208D02*
G75*
G02X102660575Y-81267437I-173214J464534D01*
G01*
X102882416Y-81207895D02*
G75*
G02X102830129Y-81236207I-127068J172239D01*
G01*
X98070849Y-47995328D02*
X97938134Y-47931821D01*
X98202764Y-48061416D02*
X98070849Y-47995328D01*
X98375224Y-48143412D02*
X98202764Y-48061416D01*
X98557184Y-48227019D02*
X98375224Y-48143412D01*
X100256646Y-49779071D02*
G75*
G02X99973471Y-49974810I-2125971J2772922D01*
G01*
X99549103Y-50220902D02*
X99973471Y-49974810D01*
X99087229Y-50455509D02*
X99549103Y-50220902D01*
X98533385Y-50705215D02*
X99087229Y-50455509D01*
X96495849Y-80915489D02*
G75*
G02X96241116Y-80735771I570399J1078868D01*
G01*
X96241117Y-80735771D02*
G75*
G02X96061545Y-80508708I617465J672857D01*
G01*
X96061545Y-80508709D02*
G75*
G02X95956175Y-80227490I868516J485775D01*
G01*
X95956175Y-80227489D02*
G75*
G02X95920849Y-79887447I1618938J340043D01*
G01*
X95920849Y-79887447D02*
G75*
G02X96004841Y-79413571I1378782J-1D01*
G01*
X76019007Y-56953915D02*
G75*
G02X76045503Y-57008761I-597994J-322712D01*
G01*
X75992973Y-56900443D02*
X76019007Y-56953915D01*
X81300687Y-58027722D02*
G75*
G02X81276511Y-57912069I300332J123133D01*
G01*
X81276510Y-57912069D02*
G75*
G02X81287394Y-57724537I1160262J26744D01*
G01*
X81346053Y-57336648D02*
X81287394Y-57724537D01*
X81464560Y-56670347D02*
X81346053Y-57336648D01*
X77199224Y-59531595D02*
G75*
G02X77064965Y-59307879I2377967J1579235D01*
G01*
X76884391Y-58950265D02*
X77064965Y-59307879D01*
X95706265Y-81809057D02*
G75*
G02X95790883Y-81813378I28219J-278098D01*
G01*
X95790883Y-81813378D02*
G75*
G02X95906014Y-81844036I-210671J-1022660D01*
G01*
X95906014Y-81844035D02*
G75*
G02X96043677Y-81896769I-474514J-1444797D01*
G01*
X96200301Y-81971314D02*
X96043677Y-81896769D01*
X96336745Y-82039258D02*
X96200301Y-81971314D01*
X96460790Y-82096620D02*
X96336745Y-82039258D01*
X95737209Y-83021453D02*
X95889372Y-83073590D01*
X95598097Y-82968602D02*
X95737209Y-83021453D01*
X95483460Y-82920588D02*
X95598097Y-82968602D01*
X95483460Y-82920589D02*
G75*
G02X95437827Y-82892468I76626J175434D01*
G01*
X95437826Y-82892468D02*
G75*
G02X95387587Y-82807702I93544J112713D01*
G01*
X95387587Y-82807702D02*
G75*
G02X95376375Y-82661699I624577J121397D01*
G01*
X86132861Y-52092426D02*
X85761283Y-51883051D01*
X86481074Y-52273044D02*
X86132861Y-52092426D01*
X86720848Y-52376186D02*
G75*
G02X86481074Y-52273044I814882J2224625D01*
G01*
X86829267Y-52416575D02*
X86720849Y-52376186D01*
X97409901Y-47728496D02*
X97254525Y-47676874D01*
X97577762Y-47786451D02*
X97409901Y-47728496D01*
X97763258Y-47858106D02*
X97577762Y-47786451D01*
X97938134Y-47931821D02*
X97763258Y-47858106D01*
X89670849Y-47546819D02*
X89450050Y-47631648D01*
X89780787Y-47507255D02*
X89670849Y-47546819D01*
X89928965Y-47461066D02*
X89780787Y-47507255D01*
X90087812Y-47416066D02*
X89928965Y-47461066D01*
X91450194Y-53618971D02*
X91137251Y-53585775D01*
X91715529Y-53643423D02*
X91450194Y-53618971D01*
X91849011Y-53649125D02*
X91715529Y-53643423D01*
X91849010Y-53649126D02*
G75*
G02X91963496Y-53655192I1J-1083350D01*
G01*
X99910546Y-58231537D02*
X104887855Y-58231729D01*
X94903647Y-58227598D02*
X99910546Y-58231537D01*
X94903648Y-58227599D02*
G75*
G02X94703015Y-58155067I350J314724D01*
G01*
X94703014Y-58155067D02*
G75*
G02X94653367Y-58060378I88672J106853D01*
G01*
X101671640Y-79481275D02*
X101469617Y-79842354D01*
X101880109Y-79128062D02*
X101671640Y-79481275D01*
X102070784Y-78821834D02*
X101880109Y-79128062D01*
X102210639Y-78619709D02*
X102070784Y-78821834D01*
X90531523Y-78486625D02*
G75*
G02X90580828Y-78439786I87691J-42938D01*
G01*
X90580827Y-78439786D02*
G75*
G02X90673818Y-78414263I139631J-326564D01*
G01*
X90673819Y-78414263D02*
G75*
G02X90841165Y-78401899I190240J-1436141D01*
G01*
X91192069Y-78399125D02*
X90841165Y-78401899D01*
X94654933Y-47235659D02*
G75*
G02X94708349Y-47152481I109193J-11381D01*
G01*
X91460617Y-47125697D02*
X91370849Y-47133195D01*
X91593066Y-47118086D02*
X91460617Y-47125697D01*
X91740215Y-47111516D02*
X91593066Y-47118086D01*
X96004841Y-79413571D02*
G75*
G02X96245614Y-79020400I1097031J-401500D01*
G01*
X96245613Y-79020399D02*
G75*
G02X96662277Y-78697932I1182363J-1097320D01*
G01*
X96662278Y-78697932D02*
G75*
G02X97270849Y-78432823I1883154J-3491817D01*
G01*
X94680848Y-66509125D02*
G75*
G02X94879842Y-66432586I185608J-185608D01*
G01*
X95470067Y-66481685D02*
X94879842Y-66432586D01*
X102721417Y-82196946D02*
X102929845Y-82210507D01*
X102473946Y-82187270D02*
X102721417Y-82196946D01*
X102188588Y-82184436D02*
X102473946Y-82187270D01*
X101452203Y-82185621D02*
X102188588Y-82184436D01*
X101335327Y-82329873D02*
X101452203Y-82185621D01*
X101278667Y-82406045D02*
X101335327Y-82329873D01*
X101201527Y-82522622D02*
X101278667Y-82406045D01*
X101119340Y-82654459D02*
X101201527Y-82522622D01*
X101043965Y-82783473D02*
X101119340Y-82654459D01*
X87432779Y-50654680D02*
G75*
G02X87242921Y-50545459I250738J655483D01*
G01*
X87203464Y-50519383D02*
G75*
G02X87242921Y-50545459I-117453J-220618D01*
G01*
X87052182Y-50439590D02*
X87203464Y-50519383D01*
X86871780Y-50346858D02*
X87052182Y-50439590D01*
X77441520Y-59744832D02*
G75*
G02X77315871Y-59662265I284998J570592D01*
G01*
X77315871Y-59662265D02*
G75*
G02X77199224Y-59531595I396961J471761D01*
G01*
X97556717Y-81338083D02*
X97655621Y-81370073D01*
X97463809Y-81300224D02*
X97556717Y-81338083D01*
X97374249Y-81262282D02*
X97463809Y-81300224D01*
X97285389Y-81230052D02*
X97374249Y-81262282D01*
X97208066Y-81206655D02*
X97285389Y-81230052D01*
X87324458Y-80258562D02*
X87371803Y-80607415D01*
X87274546Y-80069351D02*
G75*
G02X87324458Y-80258562I-892038J-336497D01*
G01*
X87213592Y-79990912D02*
G75*
G02X87274547Y-80069351I-96348J-137777D01*
G01*
X87138706Y-79989486D02*
G75*
G02X87213592Y-79990913I36380J-56490D01*
G01*
X87108780Y-80019299D02*
G75*
G02X87138706Y-79989486I84436J-54829D01*
G01*
X87037812Y-80131450D02*
X87108780Y-80019298D01*
X86956719Y-80268373D02*
X87037812Y-80131450D01*
X86870769Y-80424125D02*
X86956719Y-80268373D01*
X86781969Y-80586009D02*
X86870769Y-80424125D01*
X99512669Y-82256904D02*
G75*
G02X99379066Y-82468679I-1512446J806127D01*
G01*
X99379066Y-82468679D02*
G75*
G02X99223186Y-82645042I-1078567J796230D01*
G01*
X99223186Y-82645042D02*
G75*
G02X99032933Y-82797316I-998302J1052297D01*
G01*
X99032934Y-82797316D02*
G75*
G02X98795849Y-82936942I-1307851J1949633D01*
G01*
X98458295Y-83093994D02*
X98795849Y-82936942D01*
X98458295Y-83093994D02*
G75*
G02X98214924Y-83164621I-427682J1019100D01*
G01*
X86930274Y-67937237D02*
X86674502Y-68069495D01*
X87197230Y-67801850D02*
X86930274Y-67937237D01*
X87474710Y-67666942D02*
X87197230Y-67801850D01*
X87724527Y-67550401D02*
X87474710Y-67666942D01*
X87892774Y-67478787D02*
X87724527Y-67550401D01*
X91419432Y-64617006D02*
X91829170Y-64558664D01*
X90645849Y-64702549D02*
X91419432Y-64617006D01*
X90457062Y-64725836D02*
X90645849Y-64702549D01*
X90261942Y-64756414D02*
X90457062Y-64725836D01*
X90087488Y-64789317D02*
X90261942Y-64756414D01*
X88515254Y-67238289D02*
X87892774Y-67478787D01*
X89008720Y-67060754D02*
X88515254Y-67238289D01*
X89405900Y-66933515D02*
X89008720Y-67060754D01*
X89723270Y-66852389D02*
X89405900Y-66933515D01*
X89832836Y-66826750D02*
X89723270Y-66852389D01*
X99896469Y-65853274D02*
X100155401Y-65972812D01*
X98795849Y-65422285D02*
X97793460Y-67047207D01*
X98168298Y-65213131D02*
X98795849Y-65422285D01*
X97251488Y-64964458D02*
X98168298Y-65213131D01*
X96341788Y-64742428D02*
X97251488Y-64964458D01*
X95964741Y-64699125D02*
G75*
G02X96341788Y-64742428I-2J-1663182D01*
G01*
X95964740Y-64699126D02*
G75*
G02X95653758Y-64679112I2J2426097D01*
G01*
X95217212Y-64612257D02*
X95653758Y-64679112D01*
X94782329Y-64529379D02*
X95217212Y-64612257D01*
X82498659Y-53716300D02*
X82195025Y-54382847D01*
X82819099Y-53108912D02*
X82498659Y-53716300D01*
X83186872Y-52499125D02*
X82819099Y-53108912D01*
X83456314Y-52108426D02*
X83186872Y-52499125D01*
X84370521Y-67244948D02*
G75*
G02X84135099Y-67181317I-30524J354393D01*
G01*
X84135099Y-67181317D02*
G75*
G02X83839092Y-66926532I1163536J1651126D01*
G01*
X83839093Y-66926532D02*
G75*
G02X83571372Y-66610384I2470333J2363358D01*
G01*
X83307703Y-66224684D02*
X83571372Y-66610384D01*
X83015281Y-65719928D02*
X83307703Y-66224684D01*
X96976835Y-82251230D02*
X96850565Y-82212105D01*
X97216272Y-82311296D02*
G75*
G02X96976835Y-82251230I349141J1899012D01*
G01*
X97421677Y-82326256D02*
G75*
G02X97216272Y-82311296I-34425J944935D01*
G01*
X97642292Y-82296767D02*
G75*
G02X97421677Y-82326256I-262685J1125251D01*
G01*
X97934307Y-82216347D02*
X97642292Y-82296767D01*
X92554428Y-80511086D02*
G75*
G02X92521932Y-80524125I-32496J33976D01*
G01*
X92602933Y-80458900D02*
G75*
G02X92554428Y-80511087I-467410J385798D01*
G01*
X92655427Y-80387117D02*
G75*
G02X92602933Y-80458900I-637770J411301D01*
G01*
X92705206Y-80302080D02*
X92655427Y-80387116D01*
X92755203Y-80211354D02*
X92705206Y-80302080D01*
X92808319Y-80122362D02*
X92755203Y-80211354D01*
X92857331Y-80046279D02*
X92808319Y-80122362D01*
X92857331Y-80046279D02*
G75*
G02X92891342Y-80002080I348212J-232763D01*
G01*
X82653615Y-65024125D02*
X83015281Y-65719928D01*
X82394762Y-64504748D02*
X82653615Y-65024125D01*
X82267802Y-64233585D02*
X82394762Y-64504748D01*
X82163707Y-63980968D02*
X82267802Y-64233585D01*
X82011544Y-63574125D02*
X82163707Y-63980968D01*
X92224371Y-79573046D02*
X92195376Y-79469572D01*
X92249092Y-79680975D02*
X92224371Y-79573046D01*
X92266721Y-79778359D02*
X92249092Y-79680975D01*
X92266720Y-79778359D02*
G75*
G02X92272256Y-79844572I-452792J-71194D01*
G01*
X92296221Y-80023493D02*
G75*
G02X92272256Y-79844572I715939J186961D01*
G01*
X92370638Y-80260885D02*
G75*
G02X92296222Y-80023493I2416700J887923D01*
G01*
X92461001Y-80484440D02*
X92370637Y-80260885D01*
X92521932Y-80524126D02*
G75*
G02X92461001Y-80484440I0J66617D01*
G01*
X99966985Y-78664738D02*
G75*
G02X100016057Y-78832615I-174522J-142124D01*
G01*
X100016056Y-78832614D02*
G75*
G02X99953685Y-79119975I-1476833J170095D01*
G01*
X99921272Y-79230097D02*
X99953685Y-79119975D01*
X99891869Y-79350875D02*
X99921272Y-79230097D01*
X99869270Y-79464287D02*
X99891869Y-79350875D01*
X99858670Y-79549125D02*
G75*
G02X99869270Y-79464287I833450J-61060D01*
G01*
X91021328Y-66541485D02*
X90733974Y-66594412D01*
X91295849Y-66499065D02*
X91021328Y-66541485D01*
X81393060Y-60434058D02*
G75*
G02X81520595Y-60379033I133034J-133033D01*
G01*
X82279744Y-60362021D02*
X81520595Y-60379033D01*
X84582000Y-60351172D02*
X82279744Y-60362021D01*
X86106000Y-60349125D02*
X84836000Y-58166000D01*
X89792712Y-60351501D02*
X86106000Y-60349125D01*
X91233983Y-60361923D02*
X89792712Y-60351501D01*
X92178185Y-60376405D02*
X91233983Y-60361923D01*
X92178185Y-60376406D02*
G75*
G02X92266441Y-60418814I-2092J-117391D01*
G01*
X100870849Y-68551854D02*
G75*
G02X100826438Y-68679733I-206318J0D01*
G01*
X100826437Y-68679733D02*
G75*
G02X100675378Y-68839546I-973620J768996D01*
G01*
X100675379Y-68839546D02*
G75*
G02X100396548Y-69063319I-2443569J2759189D01*
G01*
X99872064Y-69436387D02*
X100396548Y-69063319D01*
X99872064Y-69436388D02*
G75*
G02X99431866Y-69708239I-2664765J3822623D01*
G01*
X103515361Y-78414468D02*
X103303925Y-78402705D01*
X103666801Y-78432922D02*
X103515361Y-78414468D01*
X103666800Y-78432922D02*
G75*
G02X103734332Y-78461625I-23423J-148905D01*
G01*
X103734332Y-78461625D02*
G75*
G02X103776396Y-78517604I-76816J-101516D01*
G01*
X103776396Y-78517604D02*
G75*
G02X103810327Y-78628620I-784096J-300345D01*
G01*
X103810327Y-78628620D02*
G75*
G02X103840720Y-78796139I-1729804J-400357D01*
G01*
X103870307Y-79049125D02*
X103840720Y-78796139D01*
X103894221Y-79264789D02*
X103870307Y-79049125D01*
X103921926Y-79478657D02*
X103894221Y-79264789D01*
X103949402Y-79664053D02*
X103921926Y-79478657D01*
X90686926Y-82992561D02*
X90797286Y-82624085D01*
X90686926Y-82992560D02*
G75*
G02X90609128Y-83136625I-424482J136189D01*
G01*
X90609128Y-83136625D02*
G75*
G02X90498673Y-83192035I-116280J93998D01*
G01*
X90050946Y-83201254D02*
X90498673Y-83192035D01*
X89605458Y-83193473D02*
X90050946Y-83201254D01*
X89605458Y-83193473D02*
G75*
G02X89480849Y-83139125I6907J185864D01*
G01*
X100970798Y-82903913D02*
X101043965Y-82783473D01*
X100895233Y-83009924D02*
X100970798Y-82903913D01*
X100826266Y-83092093D02*
X100895233Y-83009924D01*
X100826265Y-83092093D02*
G75*
G02X100782664Y-83119966I-73002J66159D01*
G01*
X100782664Y-83119966D02*
G75*
G02X100725020Y-83130483I-71505J228688D01*
G01*
X100569777Y-83137959D02*
X100725020Y-83130483D01*
X100383814Y-83142655D02*
X100569777Y-83137959D01*
X100179854Y-83143100D02*
X100383814Y-83142655D01*
X99933225Y-83137935D02*
X100179854Y-83143100D01*
X89983279Y-66787175D02*
X89832836Y-66826750D01*
X90145541Y-66741831D02*
X89983279Y-66787175D01*
X90295849Y-66697060D02*
X90145541Y-66741831D01*
X90474383Y-66649446D02*
X90295849Y-66697060D01*
X90733974Y-66594412D02*
X90474383Y-66649446D01*
X92795848Y-81790512D02*
G75*
G02X92686458Y-81940296I-646526J357335D01*
G01*
X92686458Y-81940296D02*
G75*
G02X92556521Y-82032918I-299625J282881D01*
G01*
X92556522Y-82032918D02*
G75*
G02X92381437Y-82080569I-236401J523129D01*
G01*
X92381436Y-82080569D02*
G75*
G02X92127796Y-82092402I-224665J2091353D01*
G01*
X92127797Y-82092402D02*
G75*
G02X91879247Y-82070386I23065J1674393D01*
G01*
X91879247Y-82070387D02*
G75*
G02X91733283Y-82005059I50849J309344D01*
G01*
X91733283Y-82005058D02*
G75*
G02X91646921Y-81880674I168963J209486D01*
G01*
X84791992Y-78480553D02*
G75*
G02X84853884Y-78527036I-6105J-72576D01*
G01*
X84853884Y-78527036D02*
G75*
G02X84863990Y-78638426I-191646J-73541D01*
G01*
X84802901Y-78927743D02*
X84863990Y-78638426D01*
X84728340Y-79211741D02*
X84802901Y-78927743D01*
X84728340Y-79211742D02*
G75*
G02X84664957Y-79331224I-319030J92687D01*
G01*
X84664957Y-79331224D02*
G75*
G02X84609205Y-79364685I-75548J62700D01*
G01*
X84609206Y-79364686D02*
G75*
G02X84480106Y-79384203I-248556J1207355D01*
G01*
X84281993Y-79395877D02*
X84480106Y-79384203D01*
X83967561Y-79399125D02*
X84281993Y-79395877D01*
X83570517Y-79401777D02*
X83967561Y-79399125D01*
X83408546Y-79415310D02*
G75*
G02X83570517Y-79401777I177485J-1148153D01*
G01*
X89959869Y-80690308D02*
X89941000Y-80800101D01*
X89987230Y-80581227D02*
X89959869Y-80690308D01*
X90018438Y-80487302D02*
X89987230Y-80581227D01*
X90018438Y-80487302D02*
G75*
G02X90048635Y-80429973I241012J-90332D01*
G01*
X90076236Y-80379578D02*
G75*
G02X90048635Y-80429973I-242044J99807D01*
G01*
X90099252Y-80312694D02*
G75*
G02X90076236Y-80379578I-571215J159166D01*
G01*
X94447586Y-82838839D02*
G75*
G02X94430053Y-82920556I-936875J158283D01*
G01*
X94430053Y-82920557D02*
G75*
G02X94405971Y-82996980I-777084J202863D01*
G01*
X94405970Y-82996980D02*
G75*
G02X94379291Y-83059091I-627249J232644D01*
G01*
X94379292Y-83059091D02*
G75*
G02X94354440Y-83089978I-81077J39792D01*
G01*
X94354439Y-83089978D02*
G75*
G02X94310495Y-83109437I-59275J74514D01*
G01*
X94169864Y-83130034D02*
X94310495Y-83109437D01*
X93999376Y-83148186D02*
X94169864Y-83130034D01*
X93808375Y-83160888D02*
X93999376Y-83148186D01*
X99933225Y-83137935D02*
G75*
G02X99775442Y-83125172I57936J1697979D01*
G01*
X99775441Y-83125173D02*
G75*
G02X99674159Y-83105496I101507J792988D01*
G01*
X99674160Y-83105496D02*
G75*
G02X99638822Y-83073845I13182J50270D01*
G01*
X99638822Y-83073845D02*
G75*
G02X99640638Y-82993490I98928J37962D01*
G01*
X99770578Y-82706907D02*
X99640638Y-82993490D01*
X99906904Y-82430576D02*
X99770578Y-82706907D01*
X99906904Y-82430576D02*
G75*
G02X99981415Y-82345704I207961J-107432D01*
G01*
X100002368Y-82325218D02*
G75*
G02X99981415Y-82345704I-71064J51725D01*
G01*
X100036986Y-82275230D02*
X100002368Y-82325218D01*
X105265630Y-60606321D02*
G75*
G02X105250727Y-60845867I-1518707J-25754D01*
G01*
X105168856Y-61387453D02*
X105250727Y-60845867D01*
X105073647Y-61892571D02*
X105168856Y-61387453D01*
X104948552Y-62405872D02*
X105073647Y-61892571D01*
X104795703Y-62919430D02*
X104948552Y-62405872D01*
X96565601Y-82141569D02*
X96460790Y-82096620D01*
X96601835Y-82148881D02*
G75*
G02X96565601Y-82141569I416J95495D01*
G01*
X96601835Y-82148880D02*
G75*
G02X96637994Y-82153478I-653J-149638D01*
G01*
X96735086Y-82179047D02*
X96637994Y-82153478D01*
X96850565Y-82212105D02*
X96735086Y-82179047D01*
X103803199Y-60285087D02*
X102024774Y-60274870D01*
X104937625Y-60306573D02*
X103803199Y-60285087D01*
X104937625Y-60306573D02*
G75*
G02X105151660Y-60373335I-10089J-408818D01*
G01*
X105151659Y-60373335D02*
G75*
G02X105234311Y-60469210I-125827J-192037D01*
G01*
X105234311Y-60469210D02*
G75*
G02X105265630Y-60606321I-309797J-142896D01*
G01*
X76117459Y-57177766D02*
X76201835Y-57379687D01*
X76045503Y-57008761D02*
X76117459Y-57177766D01*
X77704964Y-59794072D02*
G75*
G02X77576439Y-59790205I-51931J411787D01*
G01*
X77576439Y-59790206D02*
G75*
G02X77441520Y-59744832I94923J505538D01*
G01*
X102907165Y-81172062D02*
G75*
G02X102882417Y-81207896I-64551J18118D01*
G01*
X102911099Y-81116266D02*
G75*
G02X102907165Y-81172062I-137342J-18351D01*
G01*
X102893284Y-81011207D02*
X102911100Y-81116266D01*
X102876483Y-80912935D02*
X102893284Y-81011207D01*
X102857416Y-80761729D02*
X102876483Y-80912935D01*
X102839400Y-80591299D02*
X102857416Y-80761729D01*
X102825297Y-80424629D02*
X102839400Y-80591299D01*
X102375429Y-78399125D02*
X102210639Y-78619709D01*
X103013582Y-78399125D02*
X102375429Y-78399125D01*
X103303925Y-78402705D02*
X103013582Y-78399125D01*
X83044739Y-80202727D02*
X83074187Y-80117276D01*
X83018735Y-80294498D02*
X83044739Y-80202727D01*
X83000687Y-80378777D02*
X83018735Y-80294498D01*
X82931388Y-80733797D02*
X83000687Y-80378777D01*
X82784419Y-81405668D02*
X82931388Y-80733797D01*
X82628547Y-82094725D02*
X82784419Y-81405668D01*
X82509510Y-82589265D02*
X82628547Y-82094725D01*
X82509511Y-82589265D02*
G75*
G02X82407116Y-82923822I-3336388J838187D01*
G01*
X82407116Y-82923822D02*
G75*
G02X82298051Y-83068506I-290021J105171D01*
G01*
X82298051Y-83068507D02*
G75*
G02X82121610Y-83133635I-204433J282271D01*
G01*
X95224744Y-78407552D02*
X94699081Y-78399125D01*
X95224744Y-78407552D02*
G75*
G02X95397372Y-78456846I-11810J-368284D01*
G01*
X95397372Y-78456845D02*
G75*
G02X95453564Y-78567169I-56936J-98472D01*
G01*
X95453563Y-78567169D02*
G75*
G02X95403031Y-78806145I-1169998J122571D01*
G01*
X95371441Y-78911397D02*
X95403031Y-78806145D01*
X95344469Y-79017220D02*
X95371441Y-78911397D01*
X95324920Y-79110068D02*
X95344469Y-79017220D01*
X95319077Y-79167367D02*
G75*
G02X95324920Y-79110068I339009J-5626D01*
G01*
X79990328Y-56824125D02*
X80262916Y-56462755D01*
X79632707Y-57279870D02*
X79990328Y-56824125D01*
X98459293Y-60284976D02*
X94722737Y-60299762D01*
X84308446Y-51122244D02*
X84283589Y-51132159D01*
X84331639Y-51113245D02*
X84308446Y-51122244D01*
X84351178Y-51105877D02*
X84331639Y-51113245D01*
X84359735Y-51103073D02*
X84351178Y-51105877D01*
X95319077Y-79167367D02*
G75*
G02X95313352Y-79217183I-256654J4259D01*
G01*
X95313351Y-79217183D02*
G75*
G02X95296835Y-79279484I-672053J144827D01*
G01*
X95296835Y-79279483D02*
G75*
G02X95273340Y-79343448I-706918J223362D01*
G01*
X95273340Y-79343448D02*
G75*
G02X95245849Y-79399125I-472084J198474D01*
G01*
X95218296Y-79460279D02*
G75*
G02X95245849Y-79399125I331268J-112467D01*
G01*
X95194862Y-79541972D02*
G75*
G02X95218296Y-79460280I863214J-203414D01*
G01*
X95178523Y-79629607D02*
G75*
G02X95194862Y-79541972I937965J-129545D01*
G01*
X95172620Y-79709878D02*
G75*
G02X95178522Y-79629607I630646J-6015D01*
G01*
X97117167Y-70778471D02*
X97262618Y-70727076D01*
X96982552Y-70829538D02*
X97117167Y-70778471D01*
X96982551Y-70829538D02*
G75*
G02X96326631Y-71040157I-1957853J4970586D01*
G01*
X96326631Y-71040157D02*
G75*
G02X95564097Y-71195765I-2113687J8411656D01*
G01*
X94455658Y-71580237D02*
X95564097Y-71195765D01*
X97162494Y-81200224D02*
G75*
G02X97208066Y-81206655I-2393J-181636D01*
G01*
X97162494Y-81200223D02*
G75*
G02X97079696Y-81184877I3276J248700D01*
G01*
X96920867Y-81121711D02*
X97079696Y-81184877D01*
X96723923Y-81031543D02*
X96920867Y-81121711D01*
X96495849Y-80915490D02*
X96723923Y-81031543D01*
X80592480Y-79256060D02*
G75*
G02X80615593Y-79092709I425364J23126D01*
G01*
X80636751Y-79023906D02*
X80615593Y-79092709D01*
X80654617Y-78948218D02*
X80636751Y-79023906D01*
X80667025Y-78876980D02*
X80654617Y-78948218D01*
X80670849Y-78823407D02*
G75*
G02X80667025Y-78876980I-377204J0D01*
G01*
X80670849Y-78823407D02*
G75*
G02X80678134Y-78771591I187911J0D01*
G01*
X80678134Y-78771591D02*
G75*
G02X80701290Y-78706458I534394J-153302D01*
G01*
X80701290Y-78706458D02*
G75*
G02X80734813Y-78639446I573951J-245231D01*
G01*
X80734813Y-78639445D02*
G75*
G02X80774478Y-78580868I429906J-248387D01*
G01*
X105677319Y-78397984D02*
X105599084Y-78509680D01*
X101852307Y-66883985D02*
G75*
G02X101583553Y-66718398I1654029J2985433D01*
G01*
X101415423Y-66616249D02*
G75*
G02X101583553Y-66718398I-887928J-1650903D01*
G01*
X101128258Y-66466532D02*
X101415423Y-66616249D01*
X100825659Y-66315879D02*
X101128258Y-66466532D01*
X100753478Y-66299125D02*
G75*
G02X100825659Y-66315879I0J-163863D01*
G01*
X107661584Y-78411055D02*
X105677319Y-78397984D01*
X109645849Y-78424125D02*
X107661584Y-78411055D01*
X109645849Y-78776448D02*
X109645849Y-78424125D01*
X109640973Y-78947826D02*
X109645849Y-78776448D01*
X109640973Y-78947826D02*
G75*
G02X109625407Y-79078702I-1070390J60947D01*
G01*
X109625407Y-79078702D02*
G75*
G02X109598161Y-79181256I-654914J119097D01*
G01*
X109598161Y-79181256D02*
G75*
G02X109557196Y-79263948I-361945J127814D01*
G01*
X109468543Y-79399125D02*
X109557196Y-79263948D01*
X108823267Y-79399125D02*
X109468543Y-79399125D01*
X108374805Y-79407702D02*
X108823267Y-79399125D01*
X106070849Y-79399125D02*
X106503778Y-79407874D01*
X105612067Y-79390332D02*
X106070849Y-79399125D01*
X105612067Y-79390331D02*
G75*
G02X105444616Y-79343489I14342J373990D01*
G01*
X105444615Y-79343489D02*
G75*
G02X105392279Y-79243066I49945J89878D01*
G01*
X105392279Y-79243065D02*
G75*
G02X105440194Y-79048677I719001J-74128D01*
G01*
X105471069Y-78963223D02*
X105440194Y-79048677D01*
X105497156Y-78873161D02*
X105471069Y-78963223D01*
X105515464Y-78791206D02*
X105497156Y-78873161D01*
X105520848Y-78734239D02*
G75*
G02X105515464Y-78791206I-304051J0D01*
G01*
X105520848Y-78734239D02*
G75*
G02X105526455Y-78682948I237414J0D01*
G01*
X92326859Y-57406144D02*
X92340735Y-56576958D01*
X92296689Y-58013837D02*
X92326859Y-57406144D01*
X92296689Y-58013837D02*
G75*
G02X92230847Y-58159298I-225162J14286D01*
G01*
X92230847Y-58159297D02*
G75*
G02X92140901Y-58197209I-91729J91975D01*
G01*
X77998733Y-59540755D02*
X78211424Y-59247429D01*
X77879310Y-59695599D02*
X77998733Y-59540755D01*
X94635112Y-57754772D02*
X94653367Y-58060378D01*
X94627289Y-57215786D02*
X94635112Y-57754772D01*
X94632822Y-55935449D02*
X92329759Y-55401405D01*
X94645849Y-53784891D02*
X94632822Y-55935449D01*
X95420849Y-53523451D02*
X95200334Y-53562554D01*
X96215103Y-53384111D02*
X95420849Y-53523451D01*
X96971188Y-53218781D02*
X96215103Y-53384111D01*
X97646761Y-53038196D02*
X96971188Y-53218781D01*
X75586638Y-55947996D02*
X75682010Y-56164472D01*
X75497866Y-55754588D02*
X75586638Y-55947996D01*
X90023315Y-71070784D02*
G75*
G02X89303440Y-70841267I1898527J7198367D01*
G01*
X88424072Y-70484578D02*
X89303440Y-70841267D01*
X87582441Y-70091477D02*
X88424072Y-70484578D01*
X87582442Y-70091477D02*
G75*
G02X86995849Y-69750370I2365210J4742318D01*
G01*
X86488570Y-69399367D02*
X86995849Y-69750370D01*
X86667921Y-50245000D02*
X86871780Y-50346858D01*
X86323094Y-50063647D02*
X86667921Y-50245000D01*
X86323094Y-50063647D02*
G75*
G02X86075170Y-49905474I1234133J2207801D01*
G01*
X86075170Y-49905474D02*
G75*
G02X85913763Y-49770052I857775J1186270D01*
G01*
X82266112Y-58191048D02*
X83564608Y-58204551D01*
X81499036Y-58172416D02*
X82266112Y-58191048D01*
X81499036Y-58172415D02*
G75*
G02X81364063Y-58117984I6556J210819D01*
G01*
X81364062Y-58117984D02*
G75*
G02X81300686Y-58027722I167261J184820D01*
G01*
X77879310Y-59695599D02*
G75*
G02X77812287Y-59755475I-214290J172419D01*
G01*
X77812286Y-59755475D02*
G75*
G02X77704964Y-59794072I-140049J220913D01*
G01*
X89708309Y-81856896D02*
X89670203Y-81991080D01*
X89740653Y-81715825D02*
X89708309Y-81856896D01*
X89763515Y-81587739D02*
X89740653Y-81715825D01*
X89770511Y-81499125D02*
G75*
G02X89763515Y-81587739I-606536J3303D01*
G01*
X89770512Y-81499126D02*
G75*
G02X89775764Y-81422729I606273J-3302D01*
G01*
X89775764Y-81422729D02*
G75*
G02X89790882Y-81337786I965599J-128045D01*
G01*
X96695239Y-47462402D02*
G75*
G02X96920106Y-47548728I-231495J-939044D01*
G01*
X96982435Y-47577418D02*
G75*
G02X96920106Y-47548728I207601J533061D01*
G01*
X97106821Y-47624461D02*
X96982435Y-47577418D01*
X97254525Y-47676874D02*
X97106821Y-47624461D01*
X94928291Y-47121685D02*
G75*
G02X95020849Y-47128439I-22437J-945164D01*
G01*
X95516192Y-47204886D02*
X95020849Y-47128439D01*
X96122382Y-47328427D02*
X95516192Y-47204886D01*
X96695239Y-47462402D02*
X96122382Y-47328427D01*
X91004411Y-71268239D02*
X91186000Y-71374000D01*
X90489452Y-71178477D02*
X91004411Y-71268239D01*
X90023315Y-71070784D02*
X90489452Y-71178477D01*
X89480848Y-83139126D02*
G75*
G02X89437274Y-83066805I123999J123999D01*
G01*
X89437274Y-83066805D02*
G75*
G02X89425247Y-82972365I265065J81743D01*
G01*
X89425247Y-82972365D02*
G75*
G02X89446082Y-82870494I334381J-15322D01*
G01*
X89446082Y-82870493D02*
G75*
G02X89497439Y-82777069I345715J-129218D01*
G01*
X89525639Y-82726741D02*
G75*
G02X89497439Y-82777069I-196869J77247D01*
G01*
X89549284Y-82653889D02*
G75*
G02X89525639Y-82726741I-617448J160140D01*
G01*
X108163097Y-79445514D02*
G75*
G02X108374805Y-79407702I241491J-740521D01*
G01*
X108060029Y-79525647D02*
G75*
G02X108163098Y-79445514I162808J-103055D01*
G01*
X108020848Y-79660802D02*
G75*
G02X108060029Y-79525647I252701J0D01*
G01*
X108020848Y-79660802D02*
G75*
G02X108016441Y-79717195I-362981J0D01*
G01*
X108000156Y-79809358D02*
X108016441Y-79717195D01*
X107977372Y-79914669D02*
X108000156Y-79809358D01*
X107950406Y-80019731D02*
X107977372Y-79914669D01*
X107831189Y-80472456D02*
X107950406Y-80019731D01*
X107690891Y-81049345D02*
X107831189Y-80472456D01*
X107562563Y-81606672D02*
X107690891Y-81049345D01*
X92934823Y-79946590D02*
G75*
G02X92891342Y-80002080I-500879J347697D01*
G01*
X93061117Y-79763431D02*
X92934823Y-79946590D01*
X93209695Y-79544214D02*
X93061117Y-79763431D01*
X93372806Y-79299125D02*
X93209695Y-79544214D01*
X93801301Y-78665627D02*
X93372806Y-79299125D01*
X93801302Y-78665627D02*
G75*
G02X93980733Y-78487901I566118J-392112D01*
G01*
X93980732Y-78487901D02*
G75*
G02X94193599Y-78415073I239785J-353356D01*
G01*
X94699081Y-78399125D02*
X94193599Y-78415073D01*
X76293697Y-57603915D02*
X76387404Y-57833226D01*
X76201835Y-57379687D02*
X76293697Y-57603915D01*
X97430511Y-80023942D02*
G75*
G02X97322219Y-79935434I370577J563912D01*
G01*
X97552317Y-80085833D02*
G75*
G02X97430511Y-80023942I216053J576016D01*
G01*
X97804602Y-80176637D02*
X97552318Y-80085833D01*
X98032986Y-80250692D02*
X97804602Y-80176637D01*
X98227400Y-80305386D02*
X98032986Y-80250692D01*
X98370848Y-80334549D02*
G75*
G02X98227400Y-80305386I203544J1368604D01*
G01*
X104192113Y-81244572D02*
X104159304Y-81076319D01*
X104215245Y-81403516D02*
X104192113Y-81244572D01*
X104215245Y-81403516D02*
G75*
G02X104223026Y-81523966I-1074148J-129867D01*
G01*
X104227407Y-81636098D02*
X104223026Y-81523966D01*
X104238995Y-81766735D02*
X104227407Y-81636098D01*
X104255328Y-81894946D02*
X104238995Y-81766735D01*
X104274330Y-81999125D02*
X104255328Y-81894946D01*
X104345283Y-82374035D02*
X104274330Y-81999125D01*
X104345283Y-82374035D02*
G75*
G02X104382251Y-82696726I-3559905J-571286D01*
G01*
X104382250Y-82696726D02*
G75*
G02X104387908Y-82951232I-2715575J-187685D01*
G01*
X75770338Y-56374125D02*
X75852229Y-56571449D01*
X75682010Y-56164472D02*
X75770338Y-56374125D01*
X86478095Y-79009666D02*
X86383822Y-79169753D01*
X86557962Y-78874125D02*
X86478095Y-79009666D01*
X86631357Y-78754686D02*
X86557962Y-78874125D01*
X86705648Y-78643891D02*
X86631357Y-78754686D01*
X86772135Y-78552985D02*
X86705648Y-78643891D01*
X86772135Y-78552984D02*
G75*
G02X86812385Y-78511625I190459J-145086D01*
G01*
X80878107Y-78449125D02*
X80774478Y-78580868D01*
X82851047Y-78449125D02*
X80878107Y-78449125D01*
X83987985Y-78451422D02*
X82851047Y-78449125D01*
X84495210Y-78462309D02*
X83987985Y-78451422D01*
X84791992Y-78480554D02*
X84495210Y-78462309D01*
X104387908Y-82951232D02*
G75*
G02X104348800Y-83076638I-239476J5880D01*
G01*
X104348800Y-83076638D02*
G75*
G02X104289241Y-83134920I-162464J106451D01*
G01*
X104289241Y-83134920D02*
G75*
G02X104208585Y-83165522I-117500J188097D01*
G01*
X104208586Y-83165521D02*
G75*
G02X104069390Y-83177663I-145425J863209D01*
G01*
X103752771Y-83177051D02*
X104069390Y-83177663D01*
X103548896Y-83172722D02*
X103752771Y-83177051D01*
X103372393Y-83164392D02*
X103548896Y-83172722D01*
X103222969Y-83153957D02*
X103372393Y-83164392D01*
X103222969Y-83153957D02*
G75*
G02X103197134Y-83142078I3134J40849D01*
G01*
X89001188Y-65101882D02*
X89345849Y-64999191D01*
X88553138Y-65248359D02*
X89001188Y-65101882D01*
X88008752Y-65435501D02*
X88553138Y-65248359D01*
X87360446Y-65666370D02*
X88008752Y-65435501D01*
X86823519Y-65886784D02*
X87360446Y-65666370D01*
X93594639Y-80915779D02*
G75*
G02X93652505Y-80784037I767008J-258321D01*
G01*
X93679696Y-80724453D02*
G75*
G02X93652505Y-80784037I-411337J151716D01*
G01*
X93697799Y-80661314D02*
G75*
G02X93679696Y-80724453I-434146J90312D01*
G01*
X93705076Y-80603843D02*
G75*
G02X93697798Y-80661314I-365978J17147D01*
G01*
X93698490Y-80562979D02*
G75*
G02X93705076Y-80603843I-94186J-36143D01*
G01*
X93674976Y-80533113D02*
G75*
G02X93698490Y-80562979I-36422J-52866D01*
G01*
X93644978Y-80531113D02*
G75*
G02X93674976Y-80533114I13317J-26212D01*
G01*
X102680822Y-66912248D02*
X103139850Y-66301928D01*
X102680823Y-66912248D02*
G75*
G02X102463084Y-67068408I-376370J294904D01*
G01*
X102463083Y-67068408D02*
G75*
G02X102326892Y-67075122I-79390J225746D01*
G01*
X102326892Y-67075123D02*
G75*
G02X102108699Y-67005423I391214J1601059D01*
G01*
X102108699Y-67005423D02*
G75*
G02X101852307Y-66883986I825261J2073769D01*
G01*
X92259078Y-53879589D02*
G75*
G02X92293328Y-54060592I-867280J-257853D01*
G01*
X92311414Y-54403151D02*
X92293328Y-54060592D01*
X92329759Y-55401405D02*
X92311414Y-54403151D01*
X92340735Y-56576958D02*
X94627289Y-57215786D01*
X106550214Y-80517487D02*
X106490602Y-80760521D01*
X106589486Y-80332755D02*
X106550214Y-80517487D01*
X106626616Y-80124125D02*
X106589486Y-80332755D01*
X106649358Y-79999181D02*
X106626616Y-80124125D01*
X106677063Y-79871847D02*
X106649358Y-79999181D01*
X106705452Y-79759327D02*
X106677063Y-79871847D01*
X106705452Y-79759326D02*
G75*
G02X106729376Y-79686580I683380J-184438D01*
G01*
X106749931Y-79537808D02*
G75*
G02X106729376Y-79686580I-321574J-31377D01*
G01*
X106685975Y-79449765D02*
G75*
G02X106749931Y-79537809I-42988J-98478D01*
G01*
X106503778Y-79407874D02*
G75*
G02X106685974Y-79449765I-20465J-506164D01*
G01*
X78804966Y-58412069D02*
X79180316Y-57885645D01*
X78211424Y-59247429D02*
X78804966Y-58412069D01*
X98107173Y-82134668D02*
G75*
G02X97934307Y-82216347I-391058J603870D01*
G01*
X98234911Y-82015912D02*
G75*
G02X98107173Y-82134668I-401075J303330D01*
G01*
X98301917Y-81875652D02*
G75*
G02X98234910Y-82015912I-376220J93597D01*
G01*
X98301191Y-81731240D02*
G75*
G02X98301917Y-81875651I-283763J-73635D01*
G01*
X98240697Y-81625528D02*
G75*
G02X98301190Y-81731240I-163853J-163929D01*
G01*
X98920849Y-52570563D02*
X98720448Y-52648322D01*
X97820848Y-51000029D02*
X98920849Y-52570563D01*
X100382239Y-51880867D02*
X99601206Y-52276470D01*
X101123307Y-51461509D02*
X100382239Y-51880867D01*
X99601206Y-52276470D02*
X98533385Y-50705215D01*
X97820848Y-51000029D02*
G75*
G02X97348613Y-51166071I-2128501J5299058D01*
G01*
X96719106Y-51343173D02*
X97348613Y-51166071D01*
X96063233Y-51499661D02*
X96719106Y-51343173D01*
X89790882Y-81337786D02*
G75*
G02X89812724Y-81257403I906000J-203020D01*
G01*
X89812724Y-81257403D02*
G75*
G02X89838521Y-81195628I373723J-119790D01*
G01*
X89866739Y-81128192D02*
G75*
G02X89838521Y-81195628I-411422J132539D01*
G01*
X89896285Y-81026437D02*
X89866739Y-81128193D01*
X89922516Y-80911760D02*
X89896285Y-81026437D01*
X89941000Y-80800101D02*
X89922516Y-80911760D01*
X100075348Y-82213481D02*
X100036986Y-82275230D01*
X100113080Y-82145704D02*
X100075348Y-82213481D01*
X100275437Y-81842260D02*
X100113080Y-82145704D01*
X100394602Y-81629084D02*
X100275437Y-81842260D01*
X100484449Y-81479086D02*
X100394602Y-81629084D01*
X100484449Y-81479086D02*
G75*
G02X100542348Y-81401473I485677J-301909D01*
G01*
X100579355Y-81352221D02*
G75*
G02X100542348Y-81401473I-320649J202393D01*
G01*
X100645916Y-81244034D02*
X100579354Y-81352220D01*
X100721707Y-81113801D02*
X100645916Y-81244034D01*
X94620848Y-82141756D02*
G75*
G02X94615888Y-82215224I-546585J0D01*
G01*
X94600476Y-82303925D02*
X94615888Y-82215224D01*
X94578070Y-82393075D02*
X94600476Y-82303925D01*
X94578071Y-82393075D02*
G75*
G02X94551495Y-82468324I-680974J198176D01*
G01*
X94522423Y-82546562D02*
X94551495Y-82468324D01*
X94492363Y-82645632D02*
X94522423Y-82546562D01*
X94465851Y-82748438D02*
X94492363Y-82645632D01*
X94447586Y-82838840D02*
X94465851Y-82748438D01*
X100146558Y-49148940D02*
G75*
G02X100332237Y-49318190I-476568J-709302D01*
G01*
X100332237Y-49318191D02*
G75*
G02X100409987Y-49476491I-302917J-247023D01*
G01*
X100409987Y-49476491D02*
G75*
G02X100389941Y-49623482I-202634J-47228D01*
G01*
X100389942Y-49623482D02*
G75*
G02X100256646Y-49779071I-434673J237498D01*
G01*
X86945849Y-48801015D02*
X86542190Y-49067168D01*
X87430813Y-48518923D02*
X86945849Y-48801015D01*
X88054356Y-48193389D02*
X87430813Y-48518923D01*
X88655645Y-47900289D02*
X88054356Y-48193389D01*
X104617270Y-63425323D02*
X104795703Y-62919430D01*
X104548260Y-63606819D02*
X104617270Y-63425323D01*
X104465955Y-63823904D02*
X104548260Y-63606819D01*
X104383850Y-64040919D02*
X104465955Y-63823904D01*
X104315474Y-64222173D02*
X104383850Y-64040919D01*
X104254975Y-64378424D02*
X104315474Y-64222173D01*
X104197175Y-64518555D02*
X104254975Y-64378424D01*
X104146368Y-64634662D02*
X104197175Y-64518555D01*
X104146368Y-64634662D02*
G75*
G02X104123237Y-64672173I-153554J68803D01*
G01*
X104099100Y-64707721D02*
G75*
G02X104123237Y-64672173I214885J-119939D01*
G01*
X98214924Y-83164621D02*
G75*
G02X97910936Y-83192978I-341872J2021314D01*
G01*
X97245697Y-83199125D02*
X97910936Y-83192978D01*
X96658251Y-83195513D02*
X97245697Y-83199125D01*
X96363099Y-83180064D02*
X96658251Y-83195513D01*
X96363099Y-83180064D02*
G75*
G02X96141923Y-83144168I150634J1627512D01*
G01*
X95889372Y-83073590D02*
X96141923Y-83144168D01*
X91370849Y-47133195D02*
X91282496Y-47145165D01*
X103971074Y-79774125D02*
X103949402Y-79664053D01*
X103971074Y-79774125D02*
G75*
G02X103989376Y-79871831I-1019012J-241449D01*
G01*
X104004893Y-80003547D02*
X103989376Y-79871831D01*
X104015737Y-80144723D02*
X104004893Y-80003547D01*
X104019656Y-80274285D02*
X104015737Y-80144723D01*
X104027197Y-80414274D02*
G75*
G02X104019656Y-80274285I1399404J145581D01*
G01*
X104049873Y-80588991D02*
X104027197Y-80414274D01*
X104082448Y-80768349D02*
X104049873Y-80588991D01*
X104120849Y-80924125D02*
X104082448Y-80768349D01*
X104159304Y-81076319D02*
X104120849Y-80924125D01*
X94770849Y-53694956D02*
X94645849Y-53784891D01*
X94770849Y-53694956D02*
G75*
G02X94852281Y-53653357I177046J-246076D01*
G01*
X95006804Y-53607341D02*
X94852281Y-53653357D01*
X95200334Y-53562554D02*
X95006804Y-53607341D01*
X95172621Y-79709878D02*
G75*
G02X95166800Y-79796363I-752032J7173D01*
G01*
X95150062Y-79904001D02*
X95166800Y-79796363D01*
X95126232Y-80014295D02*
X95150062Y-79904001D01*
X95098314Y-80109878D02*
X95126232Y-80014295D01*
X95067213Y-80211551D02*
X95098314Y-80109878D01*
X95033559Y-80341972D02*
X95067213Y-80211551D01*
X95002637Y-80478205D02*
X95033559Y-80341972D01*
X94979726Y-80599125D02*
X95002637Y-80478205D01*
X89420849Y-51346307D02*
X89983314Y-51482178D01*
X88903186Y-51190564D02*
X89420849Y-51346307D01*
X88169560Y-50931046D02*
X88903186Y-51190564D01*
X87432779Y-50654680D02*
X88169560Y-50931046D01*
X97290616Y-79595818D02*
G75*
G02X97333597Y-79537951I593409J-395862D01*
G01*
X97254246Y-79657058D02*
G75*
G02X97290616Y-79595818I602113J-316166D01*
G01*
X97228583Y-79713105D02*
G75*
G02X97254246Y-79657058I529990J-208772D01*
G01*
X97221097Y-79752197D02*
G75*
G02X97228583Y-79713105I107595J-343D01*
G01*
X97245548Y-79838420D02*
G75*
G02X97221097Y-79752197I137975J85706D01*
G01*
X97322219Y-79935434D02*
G75*
G02X97245548Y-79838420I389246J386429D01*
G01*
X91125441Y-58209231D02*
X92140901Y-58197209D01*
X89632108Y-58216469D02*
X91125441Y-58209231D01*
X84836000Y-58166000D02*
X89632108Y-58216469D01*
X83564608Y-58204551D02*
X84582000Y-60351172D01*
X75322165Y-54937395D02*
G75*
G02X75410100Y-54788083I331017J-94397D01*
G01*
X75410100Y-54788082D02*
G75*
G02X75493503Y-54725543I262475J-263154D01*
G01*
X104046120Y-64804333D02*
X104099100Y-64707721D01*
X103984820Y-64920864D02*
X104046120Y-64804333D01*
X103920179Y-65049125D02*
X103984820Y-64920864D01*
X103920179Y-65049126D02*
G75*
G02X103591831Y-65633693I-5721285J2829117D01*
G01*
X103139850Y-66301928D02*
X103591831Y-65633693D01*
X92266441Y-60418815D02*
G75*
G02X92295982Y-60496282I-98904J-82082D01*
G01*
X92307936Y-60910203D02*
X92295982Y-60496282D01*
X92313982Y-61494371D02*
X92307936Y-60910203D01*
X94572083Y-61360532D02*
X92313982Y-61494371D01*
X92298960Y-63642125D02*
X92310063Y-62417474D01*
X94782329Y-64529378D02*
G75*
G02X94670849Y-64469833I44271J217010D01*
G01*
X94670848Y-64469834D02*
G75*
G02X94627616Y-64377622I103735J104876D01*
G01*
X94606506Y-64057599D02*
X94627616Y-64377622D01*
X94590933Y-63531758D02*
X94606506Y-64057599D01*
X94579219Y-62469913D02*
X94590933Y-63531758D01*
X84183087Y-83100232D02*
G75*
G02X84145666Y-83048551I59428J82419D01*
G01*
X84145666Y-83048550D02*
G75*
G02X84156543Y-82935235I138326J43902D01*
G01*
X84479455Y-82351189D02*
X84156543Y-82935235D01*
X84890413Y-81643687D02*
X84479455Y-82351189D01*
X85422092Y-80774125D02*
X84890413Y-81643687D01*
X85588169Y-80504310D02*
X85422092Y-80774125D01*
X85789820Y-80171226D02*
X85588169Y-80504310D01*
X86004932Y-79811802D02*
X85789820Y-80171226D01*
X86213482Y-79459242D02*
X86004932Y-79811802D01*
X86290427Y-79328429D02*
X86213482Y-79459242D01*
X86383822Y-79169753D02*
X86290427Y-79328429D01*
X75469991Y-55606472D02*
X75497866Y-55754588D01*
X75469991Y-55606472D02*
G75*
G02X75322165Y-54937395I1145672J603993D01*
G01*
X91881589Y-47107127D02*
X91740215Y-47111516D01*
X92067203Y-47106221D02*
X91881589Y-47107127D01*
X92067203Y-47106221D02*
G75*
G02X92165925Y-47118080I-6638J-472085D01*
G01*
X92165925Y-47118080D02*
G75*
G02X92226353Y-47146084I-35833J-156523D01*
G01*
X84359735Y-51103073D02*
G75*
G02X84416907Y-51109066I21114J-74278D01*
G01*
X84795029Y-51310507D02*
X84416907Y-51109066D01*
X85157571Y-51511685D02*
X84795029Y-51310507D01*
X85431461Y-51679075D02*
X85157571Y-51511685D01*
X85761283Y-51883051D02*
X85431461Y-51679075D01*
X99139849Y-67524380D02*
X99896469Y-65853274D01*
X99428617Y-67662107D02*
X99139849Y-67524380D01*
X91854799Y-66423334D02*
X91295849Y-66499065D01*
X91854799Y-66423334D02*
G75*
G02X92027602Y-66411297I183388J-1386302D01*
G01*
X92027602Y-66411297D02*
G75*
G02X92126254Y-66431896I1800J-237911D01*
G01*
X92126255Y-66431896D02*
G75*
G02X92213840Y-66492117I-118840J-266644D01*
G01*
X92213840Y-66492117D02*
G75*
G02X92270689Y-66608440I-140928J-140928D01*
G01*
X88655645Y-47900288D02*
G75*
G02X88945849Y-47795986I684273J-1447997D01*
G01*
X89089521Y-47755568D02*
X88945849Y-47795986D01*
X89257225Y-47700840D02*
X89089521Y-47755568D01*
X89450050Y-47631648D02*
X89257225Y-47700840D01*
X76477415Y-58050689D02*
X76554398Y-58234297D01*
X76387404Y-57833226D02*
X76477415Y-58050689D01*
X91064229Y-81428839D02*
G75*
G02X91096188Y-81335614I1010240J-294228D01*
G01*
X91029658Y-81556875D02*
X91064229Y-81428839D01*
X90997995Y-81695461D02*
X91029658Y-81556875D01*
X90974546Y-81824125D02*
X90997995Y-81695461D01*
X90901068Y-82210660D02*
X90974546Y-81824125D01*
X90797286Y-82624085D02*
X90901068Y-82210660D01*
X100798559Y-80974125D02*
X100721707Y-81113801D01*
X100883392Y-80820070D02*
X100798559Y-80974125D01*
X100983513Y-80646157D02*
X100883392Y-80820070D01*
X101082935Y-80479435D02*
X100983513Y-80646157D01*
X101164766Y-80349125D02*
X101082935Y-80479435D01*
X101242368Y-80226934D02*
X101164766Y-80349125D01*
X101327996Y-80086824D02*
X101242368Y-80226934D01*
X101408555Y-79950736D02*
X101327996Y-80086824D01*
X101469617Y-79842354D02*
X101408555Y-79950736D01*
X101670848Y-51097069D02*
G75*
G02X101123307Y-51461509I-3971720J5373658D01*
G01*
X94708348Y-47152481D02*
G75*
G02X94756931Y-47134381I75093J-127304D01*
G01*
X94756931Y-47134381D02*
G75*
G02X94836239Y-47124128I138568J-760027D01*
G01*
X94836240Y-47124128D02*
G75*
G02X94928291Y-47121686I70301J-913807D01*
G01*
X75928198Y-56750689D02*
X75992973Y-56900443D01*
X75852229Y-56571449D02*
X75928198Y-56750689D01*
X93396098Y-83171040D02*
X93808375Y-83160888D01*
X93396098Y-83171040D02*
G75*
G02X93244839Y-83124788I154J270962D01*
G01*
X93244839Y-83124788D02*
G75*
G02X93181478Y-83011228I80396J119313D01*
G01*
X93181478Y-83011228D02*
G75*
G02X93190313Y-82744428I1825975J73080D01*
G01*
X93208510Y-82605341D02*
X93190313Y-82744428D01*
X93235055Y-82452121D02*
X93208510Y-82605341D01*
X93265309Y-82307958D02*
X93235055Y-82452121D01*
X93294675Y-82199125D02*
X93265309Y-82307958D01*
X81732961Y-80502017D02*
X81662551Y-80807386D01*
X81810518Y-80185099D02*
X81732961Y-80502017D01*
X81894750Y-79858650D02*
X81810518Y-80185099D01*
X81949322Y-79577101D02*
G75*
G02X81894750Y-79858650I-2124787J265775D01*
G01*
X81899456Y-79461031D02*
G75*
G02X81949321Y-79577101I-74071J-100568D01*
G01*
X81748223Y-79408157D02*
G75*
G02X81899457Y-79461031I-10304J-272194D01*
G01*
X81270849Y-79399125D02*
X81748222Y-79408157D01*
X80830545Y-79390542D02*
X81270849Y-79399125D01*
X80830545Y-79390541D02*
G75*
G02X80654399Y-79347771I17849J457618D01*
G01*
X80654399Y-79347770D02*
G75*
G02X80592481Y-79256060I45620J97557D01*
G01*
X97620849Y-66999878D02*
X97425684Y-66947426D01*
X97793460Y-67047207D02*
X97620849Y-66999878D01*
X87075820Y-52510140D02*
X86829267Y-52416575D01*
X87369097Y-52621892D02*
X87075820Y-52510140D01*
X87683516Y-52742184D02*
X87369097Y-52621892D01*
X88471439Y-53019234D02*
X87683516Y-52742184D01*
X97270848Y-78432823D02*
G75*
G02X97615557Y-78367132I407528J-1201214D01*
G01*
X98291001Y-78349326D02*
X97615557Y-78367132D01*
X98971771Y-78364526D02*
X98291001Y-78349326D01*
X98971771Y-78364526D02*
G75*
G02X99388631Y-78426113I-102036J-2132225D01*
G01*
X99796789Y-78546410D02*
X99388631Y-78426113D01*
X99796789Y-78546411D02*
G75*
G02X99966985Y-78664738I-120777J-355284D01*
G01*
X106014933Y-82809716D02*
X105997236Y-82903726D01*
X106042016Y-82686243D02*
X106014933Y-82809716D01*
X106082947Y-82496455D02*
X106042016Y-82686243D01*
X106128660Y-82282832D02*
X106082947Y-82496455D01*
X106172960Y-82074125D02*
X106128660Y-82282832D01*
X106220116Y-81857094D02*
X106172960Y-82074125D01*
X106274502Y-81618188D02*
X106220116Y-81857094D01*
X106327684Y-81393405D02*
X106274502Y-81618188D01*
X106370236Y-81224125D02*
X106327684Y-81393405D01*
X106490602Y-80760521D02*
X106370236Y-81224125D01*
X99526371Y-79708984D02*
G75*
G02X99402342Y-79663937I421559J1353954D01*
G01*
X99273691Y-79604539D02*
X99402342Y-79663937D01*
X98742257Y-79409265D02*
G75*
G02X99273691Y-79604539I-557698J-2338540D01*
G01*
X98148681Y-79329119D02*
G75*
G02X98742257Y-79409264I-102999J-3001008D01*
G01*
X97625764Y-79366828D02*
G75*
G02X98148681Y-79329120I438165J-2431646D01*
G01*
X97333597Y-79537950D02*
G75*
G02X97625764Y-79366827I379350J-312707D01*
G01*
X107270811Y-82947575D02*
X107298357Y-82841332D01*
X107241700Y-83035573D02*
X107270811Y-82947575D01*
X107241701Y-83035573D02*
G75*
G02X107216494Y-83079373I-139790J51295D01*
G01*
X107216493Y-83079373D02*
G75*
G02X107101181Y-83136737I-122499J101666D01*
G01*
X106598370Y-83151768D02*
X107101181Y-83136737D01*
X106091707Y-83152153D02*
X106598370Y-83151768D01*
X106091707Y-83152153D02*
G75*
G02X105994668Y-83097216I1515J115847D01*
G01*
X105994669Y-83097216D02*
G75*
G02X105985072Y-83063851I54664J33785D01*
G01*
X105987387Y-82991350D02*
X105985072Y-83063851D01*
X105997236Y-82903726D02*
X105987387Y-82991350D01*
X92318882Y-50843461D02*
X94623535Y-50498743D01*
X94622974Y-48048472D02*
X94620849Y-49367053D01*
X94634152Y-47525114D02*
X94622974Y-48048472D01*
X94654933Y-47235660D02*
X94634152Y-47525114D01*
X88691455Y-81680163D02*
X88668638Y-81499125D01*
X88718326Y-81872719D02*
X88691455Y-81680163D01*
X88745107Y-82049035D02*
X88718326Y-81872719D01*
X88766977Y-82174125D02*
X88745107Y-82049035D01*
X88766977Y-82174125D02*
G75*
G02X88810088Y-82485268I-2986835J-572404D01*
G01*
X88810088Y-82485269D02*
G75*
G02X88819137Y-82790266I-2698834J-232708D01*
G01*
X88819137Y-82790265D02*
G75*
G02X88800312Y-83043792I-2680098J71544D01*
G01*
X88800312Y-83043793D02*
G75*
G02X88741759Y-83118776I-91621J11192D01*
G01*
X88741759Y-83118776D02*
G75*
G02X88571028Y-83151698I-177972J463789D01*
G01*
X88199733Y-83148539D02*
X88571028Y-83151698D01*
X87823708Y-83129778D02*
X88199733Y-83148539D01*
X87823709Y-83129778D02*
G75*
G02X87703583Y-83085964I15655J229506D01*
G01*
X95376374Y-82661699D02*
G75*
G02X95400763Y-82455098I1320048J-51087D01*
G01*
X95465627Y-82174125D02*
X95400763Y-82455098D01*
X95525220Y-81962087D02*
X95465627Y-82174125D01*
X95525220Y-81962087D02*
G75*
G02X95566209Y-81874259I318855J-95330D01*
G01*
X95566210Y-81874259D02*
G75*
G02X95619307Y-81830685I96778J-63793D01*
G01*
X95619307Y-81830685D02*
G75*
G02X95706265Y-81809058I118778J-291951D01*
G01*
X81736482Y-83149125D02*
X82121610Y-83133635D01*
X81354135Y-83133667D02*
X81736482Y-83149125D01*
X81354136Y-83133668D02*
G75*
G02X81228511Y-83058835I13391J165343D01*
G01*
X81228511Y-83058835D02*
G75*
G02X81197806Y-82904583I177388J115493D01*
G01*
X81291847Y-82466197D02*
X81197806Y-82904583D01*
X81380816Y-82094942D02*
X81291847Y-82466197D01*
X81454274Y-81776557D02*
X81380816Y-82094942D01*
X81523594Y-81461074D02*
X81454274Y-81776557D01*
X81599794Y-81099125D02*
X81523594Y-81461074D01*
X81662551Y-80807386D02*
X81599794Y-81099125D01*
X92296932Y-66908833D02*
X92270689Y-66608440D01*
X92314823Y-67457006D02*
X92296932Y-66908833D01*
X92333268Y-68854617D02*
X92314823Y-67457006D01*
X99759240Y-67825525D02*
X99428617Y-67662107D01*
X100261421Y-68086629D02*
X99759240Y-67825525D01*
X100600537Y-68288321D02*
X100261421Y-68086629D01*
X100600537Y-68288321D02*
G75*
G02X100821291Y-68448496I-1525221J-2334272D01*
G01*
X100821291Y-68448495D02*
G75*
G02X100870849Y-68551854I-83005J-103359D01*
G01*
X93600417Y-80564558D02*
G75*
G02X93644978Y-80531113I117532J-110185D01*
G01*
X93521166Y-80653068D02*
X93600417Y-80564558D01*
X93465003Y-80721741D02*
X93521166Y-80653068D01*
X93417278Y-80786590D02*
X93465003Y-80721741D01*
X93380779Y-80842096D02*
X93417278Y-80786590D01*
X93372882Y-80867402D02*
G75*
G02X93380779Y-80842096I52367J-2458D01*
G01*
X93372881Y-80867402D02*
G75*
G02X93364348Y-80896044I-62138J2918D01*
G01*
X99858669Y-79549125D02*
G75*
G02X99846473Y-79644868I-898747J65842D01*
G01*
X99846472Y-79644868D02*
G75*
G02X99823582Y-79695652I-113787J20739D01*
G01*
X99823581Y-79695652D02*
G75*
G02X99782363Y-79724163I-66862J52611D01*
G01*
X99782363Y-79724164D02*
G75*
G02X99708534Y-79739929I-118951J376297D01*
G01*
X99708534Y-79739929D02*
G75*
G02X99634180Y-79736699I-27041J234959D01*
G01*
X99634180Y-79736699D02*
G75*
G02X99526370Y-79708984I221811J1086386D01*
G01*
X85913763Y-49770052D02*
G75*
G02X85870849Y-49668648I98348J101404D01*
G01*
X85870849Y-49668648D02*
G75*
G02X85918237Y-49562728I142067J0D01*
G01*
X86193069Y-49329243D02*
X85918237Y-49562728D01*
X86542190Y-49067168D02*
X86193069Y-49329243D01*
X83316724Y-79447760D02*
G75*
G02X83408546Y-79415310I131976J-227310D01*
G01*
X83248683Y-79510250D02*
G75*
G02X83316724Y-79447760I175826J-123154D01*
G01*
X83218822Y-79563763D02*
G75*
G02X83248684Y-79510251I276260J-119072D01*
G01*
X83193623Y-79633199D02*
G75*
G02X83218823Y-79563763I602253J-179284D01*
G01*
X83176334Y-79706667D02*
G75*
G02X83193622Y-79633199I638759J-111538D01*
G01*
X83170540Y-79772751D02*
G75*
G02X83176334Y-79706668I388779J-791D01*
G01*
X83170540Y-79772751D02*
G75*
G02X83165525Y-79840148I-468186J953D01*
G01*
X83165525Y-79840148D02*
G75*
G02X83150449Y-79917744I-861834J127182D01*
G01*
X83150449Y-79917745D02*
G75*
G02X83128536Y-79993162I-839215J202956D01*
G01*
X83128536Y-79993161D02*
G75*
G02X83102577Y-80053777I-409225J139381D01*
G01*
X83074187Y-80117275D02*
G75*
G02X83102577Y-80053777I538251J-202558D01*
G01*
X85872497Y-82237650D02*
G75*
G02X85919650Y-82199767I124561J-106756D01*
G01*
X85800681Y-82327141D02*
X85872496Y-82237650D01*
X85722423Y-82439159D02*
X85800681Y-82327141D01*
X85647527Y-82562267D02*
X85722423Y-82439159D01*
X85428933Y-82917110D02*
X85647527Y-82562267D01*
X85428932Y-82917110D02*
G75*
G02X85278160Y-83059537I-383634J255096D01*
G01*
X85278160Y-83059538D02*
G75*
G02X85079863Y-83121745I-234477J400281D01*
G01*
X84661037Y-83140136D02*
X85079863Y-83121745D01*
X84375825Y-83140178D02*
X84661037Y-83140136D01*
X84375825Y-83140177D02*
G75*
G02X84249830Y-83128472I7153J760960D01*
G01*
X84249829Y-83128472D02*
G75*
G02X84183087Y-83100231I28490J160316D01*
G01*
X76593851Y-58324125D02*
X76884391Y-58950265D01*
X76554398Y-58234297D02*
X76593851Y-58324125D01*
X98192969Y-52852813D02*
X97646761Y-53038196D01*
X98322078Y-52802799D02*
X98192969Y-52852813D01*
X98511097Y-52729519D02*
X98322078Y-52802799D01*
X98720448Y-52648322D02*
X98511097Y-52729519D01*
X104007911Y-53624623D02*
X103683406Y-53018365D01*
X104311201Y-54220623D02*
X104007911Y-53624623D01*
X104311201Y-54220623D02*
G75*
G02X104424113Y-54499125I-1759967J-875677D01*
G01*
X104448483Y-54570825D02*
X104424113Y-54499125D01*
X90114761Y-80241008D02*
G75*
G02X90099252Y-80312694I-617721J96118D01*
G01*
X90119543Y-80175500D02*
G75*
G02X90114761Y-80241007I-403420J-3480D01*
G01*
X90119543Y-80175500D02*
G75*
G02X90146115Y-79919642I1149620J9914D01*
G01*
X90281780Y-79333446D02*
X90146115Y-79919642D01*
X90431302Y-78752821D02*
X90281780Y-79333446D01*
X90431302Y-78752821D02*
G75*
G02X90531523Y-78486625I1443148J-391368D01*
G01*
X91191180Y-80694997D02*
G75*
G02X91260168Y-80563438I221073J-32061D01*
G01*
X91171531Y-80960614D02*
G75*
G02X91191180Y-80694997I1899134J-6952D01*
G01*
X91171531Y-80960614D02*
G75*
G02X91165921Y-81045644I-685181J2508D01*
G01*
X91149117Y-81147696D02*
X91165921Y-81045644D01*
X91124850Y-81249870D02*
X91149117Y-81147696D01*
X91124850Y-81249870D02*
G75*
G02X91096188Y-81335614I-800212J219832D01*
G01*
X94619697Y-68836458D02*
X92333268Y-68854617D01*
X94627943Y-66636034D02*
X94619697Y-68836458D01*
X94627943Y-66636033D02*
G75*
G02X94680849Y-66509125I180636J-823D01*
G01*
X94931978Y-80853689D02*
X94979726Y-80599125D01*
X94873070Y-81113756D02*
X94931978Y-80853689D01*
X94801364Y-81386098D02*
X94873070Y-81113756D01*
X94715096Y-81677650D02*
X94801364Y-81386098D01*
X94679017Y-81805636D02*
X94715096Y-81677650D01*
X94648534Y-81939185D02*
X94679017Y-81805636D01*
X94627088Y-82059721D02*
X94648534Y-81939185D01*
X94620849Y-82141756D02*
G75*
G02X94627088Y-82059721I542444J0D01*
G01*
X107489388Y-81968582D02*
X107562563Y-81606672D01*
X107460195Y-82122776D02*
X107489388Y-81968582D01*
X107431395Y-82259598D02*
X107460195Y-82122776D01*
X107405020Y-82374003D02*
X107431395Y-82259598D01*
X107405020Y-82374003D02*
G75*
G02X107391997Y-82405358I-103717J24697D01*
G01*
X107379614Y-82434778D02*
G75*
G02X107391997Y-82405358I100220J-24867D01*
G01*
X107360092Y-82517782D02*
X107379614Y-82434778D01*
X107339535Y-82617948D02*
X107360092Y-82517782D01*
X107320112Y-82728649D02*
X107339535Y-82617948D01*
X107298357Y-82841332D02*
X107320112Y-82728649D01*
X105526455Y-78682948D02*
G75*
G02X105543830Y-78621719I529250J-117105D01*
G01*
X105543831Y-78621719D02*
G75*
G02X105569125Y-78560707I540122J-188175D01*
G01*
X105569125Y-78560706D02*
G75*
G02X105599084Y-78509680I332755J-161061D01*
G01*
X102790126Y-80095217D02*
X102825297Y-80424629D01*
X102724534Y-80009160D02*
G75*
G02X102790126Y-80095217I-43750J-101371D01*
G01*
X102638607Y-80036283D02*
G75*
G02X102724534Y-80009160I58640J-36102D01*
G01*
X102501525Y-80284895D02*
G75*
G02X102638607Y-80036283I2659889J-1304533D01*
G01*
X102434661Y-80414547D02*
X102501526Y-80284895D01*
X102350176Y-80566171D02*
X102434661Y-80414547D01*
X102262345Y-80715242D02*
X102350176Y-80566171D01*
X93301680Y-81000617D02*
X93364348Y-80896044D01*
X93224498Y-81123091D02*
X93301680Y-81000617D01*
X93133349Y-81260130D02*
X93224498Y-81123091D01*
X93035087Y-81407190D02*
X93133349Y-81260130D01*
X92936239Y-81560079D02*
X93035087Y-81407190D01*
X92850001Y-81697788D02*
X92936239Y-81560079D01*
X92795849Y-81790512D02*
X92850001Y-81697788D01*
D11*
X84483397Y-86460277D02*
G75*
G02X82956000Y-87988600I-1526998J-1324D01*
G01*
X86156400Y-87991800D02*
G75*
G02X84628077Y-86464403I-1324J1526998D01*
G01*
X32300000Y-105400000D02*
X31750000Y-105410000D01*
X30222000Y-102985000D02*
X32300000Y-103000000D01*
X35000000Y-105400000D02*
X52100000Y-105400000D01*
X52100000Y-103000000D02*
X35000000Y-103000000D01*
X70400000Y-105400000D02*
X54800000Y-105400000D01*
X70400000Y-103000000D02*
X54800000Y-103000000D01*
X73660000Y-105410000D02*
X73100000Y-105400000D01*
X73100000Y-103000000D02*
X73402000Y-102985000D01*
X70400000Y-103000000D02*
G75*
G02X70400000Y-105400000I0J-1200000D01*
G01*
X73100000Y-105400000D02*
G75*
G02X73100000Y-103000000I0J1200000D01*
G01*
X54800000Y-105400000D02*
G75*
G02X54800000Y-103000000I0J1200000D01*
G01*
X52100000Y-103000000D02*
G75*
G02X52100000Y-105400000I0J-1200000D01*
G01*
X35000000Y-105400000D02*
G75*
G02X35000000Y-103000000I0J1200000D01*
G01*
X32300000Y-103000000D02*
G75*
G02X32300000Y-105400000I0J-1200000D01*
G01*
X31750000Y-136017000D02*
X73660000Y-136017000D01*
X31750000Y-116840000D02*
X33401000Y-116840000D01*
X33401000Y-115570000D02*
X31750000Y-115570000D01*
X34798000Y-116840000D02*
X52197000Y-116840000D01*
X52197000Y-115570000D02*
X34798000Y-115570000D01*
X73660000Y-116840000D02*
X71247000Y-116840000D01*
X53594000Y-116840000D02*
X69850000Y-116840000D01*
X69850000Y-115570000D02*
X53594000Y-115570000D01*
X76200000Y-123825000D02*
X76200000Y-133477000D01*
X76200000Y-119380000D02*
X76200000Y-121100000D01*
X76200000Y-111379000D02*
X76200000Y-113030000D01*
X76200000Y-107950000D02*
X76200000Y-108654000D01*
X69850000Y-115570000D02*
G75*
G02X69850000Y-116840000I0J-635000D01*
G01*
X71247000Y-116840000D02*
G75*
G02X71247000Y-115570000I0J635000D01*
G01*
X53594000Y-116840000D02*
G75*
G02X53594000Y-115570000I0J635000D01*
G01*
X52197000Y-115570000D02*
G75*
G02X52197000Y-116840000I0J-635000D01*
G01*
X33401000Y-115570000D02*
G75*
G02X33401000Y-116840000I0J-635000D01*
G01*
X34798000Y-116840000D02*
G75*
G02X34798000Y-115570000I0J635000D01*
G01*
X76200000Y-133477000D02*
G75*
G02X73660000Y-136017000I-2540000J0D01*
G01*
X29210000Y-133477000D02*
X29210000Y-119380000D01*
X29210000Y-119380000D02*
G75*
G02X31750000Y-116840000I2540000J0D01*
G01*
X73660000Y-116840000D02*
G75*
G02X76200000Y-119380000I0J-2540000D01*
G01*
X31750000Y-136017000D02*
G75*
G02X29210000Y-133477000I0J2540000D01*
G01*
X32762000Y-121920000D02*
G75*
G03X32762000Y-121920000I-1270000J0D01*
G01*
X32762000Y-110490000D02*
G75*
G03X32762000Y-110490000I-1270000J0D01*
G01*
X71247000Y-115570000D02*
X73660000Y-115570000D01*
X29210000Y-113030000D02*
X29210000Y-107950000D01*
X73660000Y-105410000D02*
G75*
G02X76200000Y-107950000I0J-2540000D01*
G01*
X76200000Y-113030000D02*
G75*
G02X73660000Y-115570000I-2540000J0D01*
G01*
X31750000Y-115570000D02*
G75*
G02X29210000Y-113030000I0J2540000D01*
G01*
X29210000Y-107950000D02*
G75*
G02X31750000Y-105410000I2540000J0D01*
G01*
X74676000Y-99822000D02*
X74672000Y-101715000D01*
X74673000Y-83972000D02*
X74676000Y-95250000D01*
X74698400Y-68224000D02*
X74673000Y-83972000D01*
X74676000Y-50800000D02*
X74698400Y-68224000D01*
X69151500Y-57505600D02*
G75*
G03X69151500Y-57505600I-1270000J0D01*
G01*
X69100700Y-77584300D02*
G75*
G03X69100700Y-77584300I-1270000J0D01*
G01*
X39433500Y-77571600D02*
G75*
G03X39433500Y-77571600I-1270000J0D01*
G01*
X39395400Y-57518300D02*
G75*
G03X39395400Y-57518300I-1270000J0D01*
G01*
X37973000Y-48374300D02*
X60426600Y-48374300D01*
X37973000Y-48374300D02*
X30222000Y-48375000D01*
X73402000Y-100445000D02*
G75*
G03X73402000Y-100445000I-1270000J0D01*
G01*
X32762000Y-100445000D02*
G75*
G03X32762000Y-100445000I-1270000J0D01*
G01*
X32762000Y-50915000D02*
G75*
G03X32762000Y-50915000I-1270000J0D01*
G01*
X73402000Y-50915000D02*
G75*
G03X73402000Y-50915000I-1270000J0D01*
G01*
X74672000Y-101715000D02*
G75*
G02X73402000Y-102985000I-1270000J0D01*
G01*
X30222000Y-102985000D02*
G75*
G02X28952000Y-101715000I0J1270000D01*
G01*
X28952000Y-49645000D02*
G75*
G02X30222000Y-48375000I1270000J0D01*
G01*
X73402000Y-48375000D02*
G75*
G02X74672000Y-49645000I0J-1270000D01*
G01*
X74673000Y-50799600D02*
X74672000Y-49645000D01*
X28952000Y-49645000D02*
X28952000Y-101715000D01*
X73402000Y-48375000D02*
X60426600Y-48374300D01*
M02*
