G04 #@! TF.GenerationSoftware,KiCad,Pcbnew,5.1.5-52549c5~84~ubuntu19.10.1*
G04 #@! TF.CreationDate,2020-06-15T16:45:33+03:00*
G04 #@! TF.ProjectId,hymTracker_Panel,68796d54-7261-4636-9b65-725f50616e65,rev?*
G04 #@! TF.SameCoordinates,Original*
G04 #@! TF.FileFunction,Legend,Bot*
G04 #@! TF.FilePolarity,Positive*
%FSLAX46Y46*%
G04 Gerber Fmt 4.6, Leading zero omitted, Abs format (unit mm)*
G04 Created by KiCad (PCBNEW 5.1.5-52549c5~84~ubuntu19.10.1) date 2020-06-15 16:45:33*
%MOMM*%
%LPD*%
G04 APERTURE LIST*
%ADD10C,0.120000*%
%ADD11C,0.150000*%
G04 APERTURE END LIST*
D10*
X41910578Y-81955000D02*
X41393422Y-81955000D01*
X41910578Y-83375000D02*
X41393422Y-83375000D01*
X56633422Y-82105000D02*
X57150578Y-82105000D01*
X56633422Y-80685000D02*
X57150578Y-80685000D01*
X60142000Y-94353578D02*
X60142000Y-93836422D01*
X58722000Y-94353578D02*
X58722000Y-93836422D01*
X43632000Y-86733578D02*
X43632000Y-86216422D01*
X42212000Y-86733578D02*
X42212000Y-86216422D01*
X35048000Y-80633000D02*
X70862000Y-80633000D01*
X70862000Y-80633000D02*
X70862000Y-54471000D01*
X70862000Y-54471000D02*
X35302000Y-54471000D01*
X35048000Y-54471000D02*
X35048000Y-80633000D01*
X35302000Y-54471000D02*
X35048000Y-54471000D01*
X69338000Y-77585000D02*
G75*
G03X69338000Y-77585000I-1524000J0D01*
G01*
X69338000Y-57519000D02*
G75*
G03X69338000Y-57519000I-1524000J0D01*
G01*
X39620000Y-57519000D02*
G75*
G03X39620000Y-57519000I-1524000J0D01*
G01*
X39620000Y-77585000D02*
G75*
G03X39620000Y-77585000I-1524000J0D01*
G01*
X66539422Y-64579000D02*
X67056578Y-64579000D01*
X66539422Y-63159000D02*
X67056578Y-63159000D01*
X41910578Y-75605000D02*
X41393422Y-75605000D01*
X41910578Y-77025000D02*
X41393422Y-77025000D01*
X43192000Y-51225000D02*
X45877000Y-51225000D01*
X45877000Y-51225000D02*
X45877000Y-53145000D01*
X45877000Y-53145000D02*
X43192000Y-53145000D01*
X41910578Y-73065000D02*
X41393422Y-73065000D01*
X41910578Y-74485000D02*
X41393422Y-74485000D01*
X35980922Y-52895000D02*
X36498078Y-52895000D01*
X35980922Y-51475000D02*
X36498078Y-51475000D01*
X62475422Y-64579000D02*
X62992578Y-64579000D01*
X62475422Y-63159000D02*
X62992578Y-63159000D01*
X39672000Y-86216422D02*
X39672000Y-86733578D01*
X41092000Y-86216422D02*
X41092000Y-86733578D01*
X50902000Y-96032936D02*
X50902000Y-97237064D01*
X52722000Y-96032936D02*
X52722000Y-97237064D01*
X41910578Y-79415000D02*
X41393422Y-79415000D01*
X41910578Y-80835000D02*
X41393422Y-80835000D01*
D11*
X44358666Y-83117380D02*
X44692000Y-82641190D01*
X44930095Y-83117380D02*
X44930095Y-82117380D01*
X44549142Y-82117380D01*
X44453904Y-82165000D01*
X44406285Y-82212619D01*
X44358666Y-82307857D01*
X44358666Y-82450714D01*
X44406285Y-82545952D01*
X44453904Y-82593571D01*
X44549142Y-82641190D01*
X44930095Y-82641190D01*
X44025333Y-82117380D02*
X43358666Y-82117380D01*
X43787238Y-83117380D01*
X57058666Y-83497380D02*
X57392000Y-83021190D01*
X57630095Y-83497380D02*
X57630095Y-82497380D01*
X57249142Y-82497380D01*
X57153904Y-82545000D01*
X57106285Y-82592619D01*
X57058666Y-82687857D01*
X57058666Y-82830714D01*
X57106285Y-82925952D01*
X57153904Y-82973571D01*
X57249142Y-83021190D01*
X57630095Y-83021190D01*
X56487238Y-82925952D02*
X56582476Y-82878333D01*
X56630095Y-82830714D01*
X56677714Y-82735476D01*
X56677714Y-82687857D01*
X56630095Y-82592619D01*
X56582476Y-82545000D01*
X56487238Y-82497380D01*
X56296761Y-82497380D01*
X56201523Y-82545000D01*
X56153904Y-82592619D01*
X56106285Y-82687857D01*
X56106285Y-82735476D01*
X56153904Y-82830714D01*
X56201523Y-82878333D01*
X56296761Y-82925952D01*
X56487238Y-82925952D01*
X56582476Y-82973571D01*
X56630095Y-83021190D01*
X56677714Y-83116428D01*
X56677714Y-83306904D01*
X56630095Y-83402142D01*
X56582476Y-83449761D01*
X56487238Y-83497380D01*
X56296761Y-83497380D01*
X56201523Y-83449761D01*
X56153904Y-83402142D01*
X56106285Y-83306904D01*
X56106285Y-83116428D01*
X56153904Y-83021190D01*
X56201523Y-82973571D01*
X56296761Y-82925952D01*
X61534380Y-93452142D02*
X61058190Y-93118809D01*
X61534380Y-92880714D02*
X60534380Y-92880714D01*
X60534380Y-93261666D01*
X60582000Y-93356904D01*
X60629619Y-93404523D01*
X60724857Y-93452142D01*
X60867714Y-93452142D01*
X60962952Y-93404523D01*
X61010571Y-93356904D01*
X61058190Y-93261666D01*
X61058190Y-92880714D01*
X61534380Y-94404523D02*
X61534380Y-93833095D01*
X61534380Y-94118809D02*
X60534380Y-94118809D01*
X60677238Y-94023571D01*
X60772476Y-93928333D01*
X60820095Y-93833095D01*
X60534380Y-95023571D02*
X60534380Y-95118809D01*
X60582000Y-95214047D01*
X60629619Y-95261666D01*
X60724857Y-95309285D01*
X60915333Y-95356904D01*
X61153428Y-95356904D01*
X61343904Y-95309285D01*
X61439142Y-95261666D01*
X61486761Y-95214047D01*
X61534380Y-95118809D01*
X61534380Y-95023571D01*
X61486761Y-94928333D01*
X61439142Y-94880714D01*
X61343904Y-94833095D01*
X61153428Y-94785476D01*
X60915333Y-94785476D01*
X60724857Y-94833095D01*
X60629619Y-94880714D01*
X60582000Y-94928333D01*
X60534380Y-95023571D01*
X45024380Y-86308333D02*
X44548190Y-85975000D01*
X45024380Y-85736904D02*
X44024380Y-85736904D01*
X44024380Y-86117857D01*
X44072000Y-86213095D01*
X44119619Y-86260714D01*
X44214857Y-86308333D01*
X44357714Y-86308333D01*
X44452952Y-86260714D01*
X44500571Y-86213095D01*
X44548190Y-86117857D01*
X44548190Y-85736904D01*
X45024380Y-86784523D02*
X45024380Y-86975000D01*
X44976761Y-87070238D01*
X44929142Y-87117857D01*
X44786285Y-87213095D01*
X44595809Y-87260714D01*
X44214857Y-87260714D01*
X44119619Y-87213095D01*
X44072000Y-87165476D01*
X44024380Y-87070238D01*
X44024380Y-86879761D01*
X44072000Y-86784523D01*
X44119619Y-86736904D01*
X44214857Y-86689285D01*
X44452952Y-86689285D01*
X44548190Y-86736904D01*
X44595809Y-86784523D01*
X44643428Y-86879761D01*
X44643428Y-87070238D01*
X44595809Y-87165476D01*
X44548190Y-87213095D01*
X44452952Y-87260714D01*
X54351904Y-67647380D02*
X54351904Y-68456904D01*
X54304285Y-68552142D01*
X54256666Y-68599761D01*
X54161428Y-68647380D01*
X53970952Y-68647380D01*
X53875714Y-68599761D01*
X53828095Y-68552142D01*
X53780476Y-68456904D01*
X53780476Y-67647380D01*
X53351904Y-67742619D02*
X53304285Y-67695000D01*
X53209047Y-67647380D01*
X52970952Y-67647380D01*
X52875714Y-67695000D01*
X52828095Y-67742619D01*
X52780476Y-67837857D01*
X52780476Y-67933095D01*
X52828095Y-68075952D01*
X53399523Y-68647380D01*
X52780476Y-68647380D01*
X66964666Y-65971380D02*
X67298000Y-65495190D01*
X67536095Y-65971380D02*
X67536095Y-64971380D01*
X67155142Y-64971380D01*
X67059904Y-65019000D01*
X67012285Y-65066619D01*
X66964666Y-65161857D01*
X66964666Y-65304714D01*
X67012285Y-65399952D01*
X67059904Y-65447571D01*
X67155142Y-65495190D01*
X67536095Y-65495190D01*
X66012285Y-65971380D02*
X66583714Y-65971380D01*
X66298000Y-65971380D02*
X66298000Y-64971380D01*
X66393238Y-65114238D01*
X66488476Y-65209476D01*
X66583714Y-65257095D01*
X44358666Y-76767380D02*
X44692000Y-76291190D01*
X44930095Y-76767380D02*
X44930095Y-75767380D01*
X44549142Y-75767380D01*
X44453904Y-75815000D01*
X44406285Y-75862619D01*
X44358666Y-75957857D01*
X44358666Y-76100714D01*
X44406285Y-76195952D01*
X44453904Y-76243571D01*
X44549142Y-76291190D01*
X44930095Y-76291190D01*
X43453904Y-75767380D02*
X43930095Y-75767380D01*
X43977714Y-76243571D01*
X43930095Y-76195952D01*
X43834857Y-76148333D01*
X43596761Y-76148333D01*
X43501523Y-76195952D01*
X43453904Y-76243571D01*
X43406285Y-76338809D01*
X43406285Y-76576904D01*
X43453904Y-76672142D01*
X43501523Y-76719761D01*
X43596761Y-76767380D01*
X43834857Y-76767380D01*
X43930095Y-76719761D01*
X43977714Y-76672142D01*
X44930095Y-50987380D02*
X44930095Y-49987380D01*
X44692000Y-49987380D01*
X44549142Y-50035000D01*
X44453904Y-50130238D01*
X44406285Y-50225476D01*
X44358666Y-50415952D01*
X44358666Y-50558809D01*
X44406285Y-50749285D01*
X44453904Y-50844523D01*
X44549142Y-50939761D01*
X44692000Y-50987380D01*
X44930095Y-50987380D01*
X43406285Y-50987380D02*
X43977714Y-50987380D01*
X43692000Y-50987380D02*
X43692000Y-49987380D01*
X43787238Y-50130238D01*
X43882476Y-50225476D01*
X43977714Y-50273095D01*
X44358666Y-74227380D02*
X44692000Y-73751190D01*
X44930095Y-74227380D02*
X44930095Y-73227380D01*
X44549142Y-73227380D01*
X44453904Y-73275000D01*
X44406285Y-73322619D01*
X44358666Y-73417857D01*
X44358666Y-73560714D01*
X44406285Y-73655952D01*
X44453904Y-73703571D01*
X44549142Y-73751190D01*
X44930095Y-73751190D01*
X43501523Y-73560714D02*
X43501523Y-74227380D01*
X43739619Y-73179761D02*
X43977714Y-73894047D01*
X43358666Y-73894047D01*
X36406166Y-54287380D02*
X36739500Y-53811190D01*
X36977595Y-54287380D02*
X36977595Y-53287380D01*
X36596642Y-53287380D01*
X36501404Y-53335000D01*
X36453785Y-53382619D01*
X36406166Y-53477857D01*
X36406166Y-53620714D01*
X36453785Y-53715952D01*
X36501404Y-53763571D01*
X36596642Y-53811190D01*
X36977595Y-53811190D01*
X36072833Y-53287380D02*
X35453785Y-53287380D01*
X35787119Y-53668333D01*
X35644261Y-53668333D01*
X35549023Y-53715952D01*
X35501404Y-53763571D01*
X35453785Y-53858809D01*
X35453785Y-54096904D01*
X35501404Y-54192142D01*
X35549023Y-54239761D01*
X35644261Y-54287380D01*
X35929976Y-54287380D01*
X36025214Y-54239761D01*
X36072833Y-54192142D01*
X62900666Y-65971380D02*
X63234000Y-65495190D01*
X63472095Y-65971380D02*
X63472095Y-64971380D01*
X63091142Y-64971380D01*
X62995904Y-65019000D01*
X62948285Y-65066619D01*
X62900666Y-65161857D01*
X62900666Y-65304714D01*
X62948285Y-65399952D01*
X62995904Y-65447571D01*
X63091142Y-65495190D01*
X63472095Y-65495190D01*
X62519714Y-65066619D02*
X62472095Y-65019000D01*
X62376857Y-64971380D01*
X62138761Y-64971380D01*
X62043523Y-65019000D01*
X61995904Y-65066619D01*
X61948285Y-65161857D01*
X61948285Y-65257095D01*
X61995904Y-65399952D01*
X62567333Y-65971380D01*
X61948285Y-65971380D01*
X39089142Y-86308333D02*
X39136761Y-86260714D01*
X39184380Y-86117857D01*
X39184380Y-86022619D01*
X39136761Y-85879761D01*
X39041523Y-85784523D01*
X38946285Y-85736904D01*
X38755809Y-85689285D01*
X38612952Y-85689285D01*
X38422476Y-85736904D01*
X38327238Y-85784523D01*
X38232000Y-85879761D01*
X38184380Y-86022619D01*
X38184380Y-86117857D01*
X38232000Y-86260714D01*
X38279619Y-86308333D01*
X39184380Y-87260714D02*
X39184380Y-86689285D01*
X39184380Y-86975000D02*
X38184380Y-86975000D01*
X38327238Y-86879761D01*
X38422476Y-86784523D01*
X38470095Y-86689285D01*
X50349142Y-96468333D02*
X50396761Y-96420714D01*
X50444380Y-96277857D01*
X50444380Y-96182619D01*
X50396761Y-96039761D01*
X50301523Y-95944523D01*
X50206285Y-95896904D01*
X50015809Y-95849285D01*
X49872952Y-95849285D01*
X49682476Y-95896904D01*
X49587238Y-95944523D01*
X49492000Y-96039761D01*
X49444380Y-96182619D01*
X49444380Y-96277857D01*
X49492000Y-96420714D01*
X49539619Y-96468333D01*
X49539619Y-96849285D02*
X49492000Y-96896904D01*
X49444380Y-96992142D01*
X49444380Y-97230238D01*
X49492000Y-97325476D01*
X49539619Y-97373095D01*
X49634857Y-97420714D01*
X49730095Y-97420714D01*
X49872952Y-97373095D01*
X50444380Y-96801666D01*
X50444380Y-97420714D01*
X44358666Y-80577380D02*
X44692000Y-80101190D01*
X44930095Y-80577380D02*
X44930095Y-79577380D01*
X44549142Y-79577380D01*
X44453904Y-79625000D01*
X44406285Y-79672619D01*
X44358666Y-79767857D01*
X44358666Y-79910714D01*
X44406285Y-80005952D01*
X44453904Y-80053571D01*
X44549142Y-80101190D01*
X44930095Y-80101190D01*
X43501523Y-79577380D02*
X43692000Y-79577380D01*
X43787238Y-79625000D01*
X43834857Y-79672619D01*
X43930095Y-79815476D01*
X43977714Y-80005952D01*
X43977714Y-80386904D01*
X43930095Y-80482142D01*
X43882476Y-80529761D01*
X43787238Y-80577380D01*
X43596761Y-80577380D01*
X43501523Y-80529761D01*
X43453904Y-80482142D01*
X43406285Y-80386904D01*
X43406285Y-80148809D01*
X43453904Y-80053571D01*
X43501523Y-80005952D01*
X43596761Y-79958333D01*
X43787238Y-79958333D01*
X43882476Y-80005952D01*
X43930095Y-80053571D01*
X43977714Y-80148809D01*
M02*
