G04 #@! TF.GenerationSoftware,KiCad,Pcbnew,5.1.5-52549c5~84~ubuntu19.10.1*
G04 #@! TF.CreationDate,2020-08-17T19:51:59+03:00*
G04 #@! TF.ProjectId,hymTracker,68796d54-7261-4636-9b65-722e6b696361,rev?*
G04 #@! TF.SameCoordinates,Original*
G04 #@! TF.FileFunction,Copper,L1,Top*
G04 #@! TF.FilePolarity,Positive*
%FSLAX46Y46*%
G04 Gerber Fmt 4.6, Leading zero omitted, Abs format (unit mm)*
G04 Created by KiCad (PCBNEW 5.1.5-52549c5~84~ubuntu19.10.1) date 2020-08-17 19:51:59*
%MOMM*%
%LPD*%
G04 APERTURE LIST*
%ADD10C,0.300000*%
%ADD11C,2.340000*%
%ADD12C,2.200000*%
%ADD13C,1.524000*%
%ADD14R,1.050000X1.500000*%
%ADD15O,1.050000X1.500000*%
%ADD16C,4.000000*%
%ADD17C,1.600000*%
%ADD18R,1.600000X1.600000*%
%ADD19O,1.600000X1.600000*%
%ADD20C,0.800000*%
%ADD21C,0.400000*%
%ADD22C,0.800000*%
%ADD23C,0.254000*%
G04 APERTURE END LIST*
D10*
X64035714Y-90793571D02*
X64035714Y-89293571D01*
X64678571Y-90793571D02*
X64678571Y-90007857D01*
X64607142Y-89865000D01*
X64464285Y-89793571D01*
X64250000Y-89793571D01*
X64107142Y-89865000D01*
X64035714Y-89936428D01*
X65250000Y-89793571D02*
X65607142Y-90793571D01*
X65964285Y-89793571D02*
X65607142Y-90793571D01*
X65464285Y-91150714D01*
X65392857Y-91222142D01*
X65250000Y-91293571D01*
X66535714Y-90793571D02*
X66535714Y-89793571D01*
X66535714Y-89936428D02*
X66607142Y-89865000D01*
X66750000Y-89793571D01*
X66964285Y-89793571D01*
X67107142Y-89865000D01*
X67178571Y-90007857D01*
X67178571Y-90793571D01*
X67178571Y-90007857D02*
X67250000Y-89865000D01*
X67392857Y-89793571D01*
X67607142Y-89793571D01*
X67750000Y-89865000D01*
X67821428Y-90007857D01*
X67821428Y-90793571D01*
X68321428Y-89293571D02*
X69178571Y-89293571D01*
X68750000Y-90793571D02*
X68750000Y-89293571D01*
X70535714Y-90793571D02*
X70035714Y-90079285D01*
X69678571Y-90793571D02*
X69678571Y-89293571D01*
X70250000Y-89293571D01*
X70392857Y-89365000D01*
X70464285Y-89436428D01*
X70535714Y-89579285D01*
X70535714Y-89793571D01*
X70464285Y-89936428D01*
X70392857Y-90007857D01*
X70250000Y-90079285D01*
X69678571Y-90079285D01*
X65428571Y-93343571D02*
X65428571Y-92343571D01*
X65428571Y-91843571D02*
X65357142Y-91915000D01*
X65428571Y-91986428D01*
X65500000Y-91915000D01*
X65428571Y-91843571D01*
X65428571Y-91986428D01*
X66000000Y-91843571D02*
X67000000Y-91843571D01*
X66000000Y-93343571D01*
X67000000Y-93343571D01*
X68428571Y-93200714D02*
X68357142Y-93272142D01*
X68142857Y-93343571D01*
X68000000Y-93343571D01*
X67785714Y-93272142D01*
X67642857Y-93129285D01*
X67571428Y-92986428D01*
X67500000Y-92700714D01*
X67500000Y-92486428D01*
X67571428Y-92200714D01*
X67642857Y-92057857D01*
X67785714Y-91915000D01*
X68000000Y-91843571D01*
X68142857Y-91843571D01*
X68357142Y-91915000D01*
X68428571Y-91986428D01*
X69071428Y-93343571D02*
X69071428Y-92343571D01*
X69071428Y-91843571D02*
X69000000Y-91915000D01*
X69071428Y-91986428D01*
X69142857Y-91915000D01*
X69071428Y-91843571D01*
X69071428Y-91986428D01*
X85695714Y-49048333D02*
X86505238Y-49048333D01*
X85533809Y-49534047D02*
X86100476Y-47834047D01*
X86667142Y-49534047D01*
X87233809Y-49534047D02*
X87233809Y-47834047D01*
X87881428Y-47834047D01*
X88043333Y-47915000D01*
X88124285Y-47995952D01*
X88205238Y-48157857D01*
X88205238Y-48400714D01*
X88124285Y-48562619D01*
X88043333Y-48643571D01*
X87881428Y-48724523D01*
X87233809Y-48724523D01*
X89905238Y-49534047D02*
X89338571Y-48724523D01*
X88933809Y-49534047D02*
X88933809Y-47834047D01*
X89581428Y-47834047D01*
X89743333Y-47915000D01*
X89824285Y-47995952D01*
X89905238Y-48157857D01*
X89905238Y-48400714D01*
X89824285Y-48562619D01*
X89743333Y-48643571D01*
X89581428Y-48724523D01*
X88933809Y-48724523D01*
X90552857Y-49453095D02*
X90795714Y-49534047D01*
X91200476Y-49534047D01*
X91362380Y-49453095D01*
X91443333Y-49372142D01*
X91524285Y-49210238D01*
X91524285Y-49048333D01*
X91443333Y-48886428D01*
X91362380Y-48805476D01*
X91200476Y-48724523D01*
X90876666Y-48643571D01*
X90714761Y-48562619D01*
X90633809Y-48481666D01*
X90552857Y-48319761D01*
X90552857Y-48157857D01*
X90633809Y-47995952D01*
X90714761Y-47915000D01*
X90876666Y-47834047D01*
X91281428Y-47834047D01*
X91524285Y-47915000D01*
X84360000Y-50684047D02*
X85331428Y-50684047D01*
X84845714Y-52384047D02*
X84845714Y-50684047D01*
X86626666Y-51250714D02*
X86626666Y-52384047D01*
X85898095Y-51250714D02*
X85898095Y-52141190D01*
X85979047Y-52303095D01*
X86140952Y-52384047D01*
X86383809Y-52384047D01*
X86545714Y-52303095D01*
X86626666Y-52222142D01*
X87436190Y-52384047D02*
X87436190Y-51250714D01*
X87436190Y-51574523D02*
X87517142Y-51412619D01*
X87598095Y-51331666D01*
X87760000Y-51250714D01*
X87921904Y-51250714D01*
X88488571Y-52384047D02*
X88488571Y-50684047D01*
X88650476Y-51736428D02*
X89136190Y-52384047D01*
X89136190Y-51250714D02*
X88488571Y-51898333D01*
X89864761Y-52384047D02*
X89864761Y-51250714D01*
X89864761Y-50684047D02*
X89783809Y-50765000D01*
X89864761Y-50845952D01*
X89945714Y-50765000D01*
X89864761Y-50684047D01*
X89864761Y-50845952D01*
X90512380Y-51250714D02*
X90917142Y-52384047D01*
X91321904Y-51250714D02*
X90917142Y-52384047D01*
X90755238Y-52788809D01*
X90674285Y-52869761D01*
X90512380Y-52950714D01*
X92617142Y-52303095D02*
X92455238Y-52384047D01*
X92131428Y-52384047D01*
X91969523Y-52303095D01*
X91888571Y-52141190D01*
X91888571Y-51493571D01*
X91969523Y-51331666D01*
X92131428Y-51250714D01*
X92455238Y-51250714D01*
X92617142Y-51331666D01*
X92698095Y-51493571D01*
X92698095Y-51655476D01*
X91888571Y-51817380D01*
D11*
X81320000Y-82630000D03*
X83820000Y-92630000D03*
X86320000Y-82630000D03*
D12*
X64994000Y-65244000D03*
X64994000Y-62704000D03*
X64994000Y-60164000D03*
X64994000Y-57624000D03*
D13*
X80518000Y-46482000D03*
X80518000Y-49022000D03*
X80518000Y-57150000D03*
X80518000Y-59690000D03*
X99060000Y-46482000D03*
X99060000Y-49022000D03*
X99060000Y-57150000D03*
X99060000Y-59690000D03*
D14*
X82550000Y-77470000D03*
D15*
X85090000Y-77470000D03*
X83820000Y-77470000D03*
D16*
X92860000Y-65430000D03*
X92860000Y-90430000D03*
D17*
X94280000Y-82085000D03*
X94280000Y-79315000D03*
X94280000Y-76545000D03*
X94280000Y-73775000D03*
X91440000Y-83470000D03*
X91440000Y-80700000D03*
X91440000Y-77930000D03*
X91440000Y-75160000D03*
D18*
X91440000Y-72390000D03*
D19*
X76200000Y-87630000D03*
X60960000Y-87630000D03*
X76200000Y-52070000D03*
X60960000Y-85090000D03*
X76200000Y-54610000D03*
X60960000Y-82550000D03*
X76200000Y-57150000D03*
X60960000Y-80010000D03*
X76200000Y-59690000D03*
X60960000Y-77470000D03*
X76200000Y-62230000D03*
X60960000Y-74930000D03*
X76200000Y-64770000D03*
X60960000Y-72390000D03*
X76200000Y-67310000D03*
X60960000Y-69850000D03*
X76200000Y-69850000D03*
X60960000Y-67310000D03*
X76200000Y-72390000D03*
X60960000Y-64770000D03*
X76200000Y-74930000D03*
X60960000Y-62230000D03*
X76200000Y-77470000D03*
X60960000Y-59690000D03*
X76200000Y-80010000D03*
X60960000Y-57150000D03*
X76200000Y-82550000D03*
X60960000Y-54610000D03*
X76200000Y-85090000D03*
D18*
X60960000Y-52070000D03*
D20*
X101600000Y-95250000D03*
X58420000Y-95250000D03*
X58420000Y-45720000D03*
X58420000Y-43180000D03*
X101600000Y-43180000D03*
X85090000Y-80010000D03*
X101600000Y-45720000D03*
X101600000Y-92710000D03*
X99060000Y-95250000D03*
X60960000Y-95250000D03*
X58420000Y-92710000D03*
X60960000Y-43180000D03*
X99060000Y-43180000D03*
X78740000Y-66040000D03*
X87630000Y-71120000D03*
X101600000Y-46990000D03*
X101600000Y-48260000D03*
X101600000Y-49530000D03*
X101600000Y-50800000D03*
X101600000Y-52070000D03*
X101600000Y-53340000D03*
X101600000Y-54610000D03*
X101600000Y-55880000D03*
X101600000Y-57150000D03*
X101600000Y-58420000D03*
X101600000Y-59690000D03*
X101600000Y-60960000D03*
X101600000Y-62230000D03*
X101600000Y-63500000D03*
X101600000Y-64770000D03*
X101600000Y-66040000D03*
X101600000Y-67310000D03*
X101600000Y-68580000D03*
X101600000Y-69850000D03*
X101600000Y-71120000D03*
X101600000Y-72390000D03*
X101600000Y-73660000D03*
X101600000Y-74930000D03*
X101600000Y-76200000D03*
X101600000Y-77470000D03*
X101600000Y-78740000D03*
X101600000Y-80010000D03*
X101600000Y-81280000D03*
X101600000Y-82550000D03*
X101600000Y-83820000D03*
X101600000Y-85090000D03*
X101600000Y-86360000D03*
X101600000Y-87630000D03*
X101600000Y-88900000D03*
X101600000Y-91440000D03*
X101600000Y-90170000D03*
X97790000Y-95250000D03*
X96520000Y-95250000D03*
X95250000Y-95250000D03*
X93980000Y-95250000D03*
X92710000Y-95250000D03*
X91440000Y-95250000D03*
X88900000Y-95250000D03*
X88900000Y-95250000D03*
X90170000Y-95250000D03*
X87630000Y-95250000D03*
X86360000Y-95250000D03*
X85090000Y-95250000D03*
X83820000Y-95250000D03*
X82550000Y-95250000D03*
X81280000Y-95250000D03*
X80010000Y-95250000D03*
X78740000Y-95250000D03*
X77470000Y-95250000D03*
X76200000Y-95250000D03*
X73660000Y-95250000D03*
X74930000Y-95250000D03*
X72390000Y-95250000D03*
X71120000Y-95250000D03*
X69850000Y-95250000D03*
X68580000Y-95250000D03*
X67310000Y-95250000D03*
X66040000Y-95250000D03*
X64770000Y-95250000D03*
X63500000Y-95250000D03*
X62230000Y-95250000D03*
X58420000Y-91440000D03*
X58420000Y-90170000D03*
X58420000Y-87630000D03*
X58420000Y-88900000D03*
X58420000Y-86360000D03*
X58420000Y-85090000D03*
X58420000Y-82550000D03*
X58420000Y-83820000D03*
X58420000Y-81280000D03*
X58420000Y-80010000D03*
X58420000Y-78740000D03*
X58420000Y-77470000D03*
X58420000Y-76200000D03*
X58420000Y-74930000D03*
X58420000Y-73660000D03*
X58420000Y-72390000D03*
X58420000Y-71120000D03*
X58420000Y-69850000D03*
X58420000Y-68580000D03*
X58420000Y-67310000D03*
X58420000Y-66040000D03*
X58420000Y-64770000D03*
X58420000Y-63500000D03*
X58420000Y-62230000D03*
X58420000Y-60960000D03*
X58420000Y-59690000D03*
X58420000Y-58420000D03*
X58420000Y-57150000D03*
X58420000Y-55880000D03*
X58420000Y-54610000D03*
X58420000Y-53340000D03*
X58420000Y-52070000D03*
X58420000Y-50800000D03*
X58420000Y-49530000D03*
X58420000Y-48260000D03*
X58420000Y-46990000D03*
X62230000Y-43180000D03*
X63500000Y-43180000D03*
X64770000Y-43180000D03*
X66040000Y-43180000D03*
X67310000Y-43180000D03*
X68580000Y-43180000D03*
X69850000Y-43180000D03*
X71120000Y-43180000D03*
X72390000Y-43180000D03*
X73660000Y-43180000D03*
X74930000Y-43180000D03*
X76200000Y-43180000D03*
X77470000Y-43180000D03*
X78740000Y-43180000D03*
X80010000Y-43180000D03*
X81280000Y-43180000D03*
X82550000Y-43180000D03*
X83820000Y-43180000D03*
X85090000Y-43180000D03*
X86360000Y-43180000D03*
X87630000Y-43180000D03*
X88900000Y-43180000D03*
X90170000Y-43180000D03*
X91440000Y-43180000D03*
X92710000Y-43180000D03*
X93980000Y-43180000D03*
X95250000Y-43180000D03*
X96520000Y-43180000D03*
X97790000Y-43180000D03*
X97790000Y-60960000D03*
X97790000Y-62230000D03*
X97790000Y-63500000D03*
X97790000Y-66040000D03*
X97790000Y-64770000D03*
X97790000Y-67310000D03*
X97790000Y-68580000D03*
X97790000Y-69850000D03*
X97790000Y-71120000D03*
X97790000Y-72390000D03*
X97790000Y-73660000D03*
X96520000Y-74930000D03*
X100330000Y-60960000D03*
X100330000Y-62230000D03*
X100330000Y-63500000D03*
X100330000Y-64770000D03*
X100330000Y-66040000D03*
X100330000Y-67310000D03*
X100330000Y-68580000D03*
X100330000Y-69850000D03*
X100330000Y-72390000D03*
X100330000Y-71120000D03*
X100330000Y-73660000D03*
X100330000Y-74930000D03*
X99060000Y-76200000D03*
X97790000Y-77470000D03*
X81280000Y-76200000D03*
X80010000Y-77470000D03*
X82550000Y-80010000D03*
X87630000Y-77470000D03*
X87630000Y-76200000D03*
X81280000Y-85090000D03*
X80010000Y-86360000D03*
X80010000Y-85090000D03*
X90170000Y-82550000D03*
X87630000Y-69850000D03*
X87630000Y-68580000D03*
X87630000Y-67310000D03*
X87630000Y-64770000D03*
X87630000Y-63500000D03*
X78740000Y-67310000D03*
X78740000Y-68580000D03*
X80010000Y-69850000D03*
X81280000Y-71120000D03*
X83820000Y-71120000D03*
X82550000Y-71120000D03*
X85090000Y-71120000D03*
X86360000Y-71120000D03*
X86360000Y-66040000D03*
X85090000Y-66040000D03*
X83820000Y-66040000D03*
X81280000Y-66040000D03*
X82550000Y-66040000D03*
X80010000Y-66040000D03*
X78740000Y-63500000D03*
X80010000Y-63500000D03*
X81280000Y-63500000D03*
X82550000Y-63500000D03*
X83820000Y-63500000D03*
X86360000Y-63500000D03*
X86360000Y-63500000D03*
X82550000Y-45720000D03*
X82550000Y-46990000D03*
X82550000Y-48260000D03*
X82550000Y-49530000D03*
X82550000Y-50800000D03*
X81280000Y-50800000D03*
X80010000Y-50800000D03*
X81280000Y-52070000D03*
X82550000Y-52070000D03*
X82550000Y-53340000D03*
X96520000Y-45720000D03*
X96520000Y-46990000D03*
X96520000Y-48260000D03*
X95250000Y-48260000D03*
X95250000Y-46990000D03*
X95250000Y-45720000D03*
X93980000Y-45720000D03*
X92710000Y-45720000D03*
X91440000Y-45720000D03*
X90170000Y-45720000D03*
X88900000Y-45720000D03*
X86360000Y-45720000D03*
X86360000Y-45720000D03*
X85090000Y-45720000D03*
X83820000Y-45720000D03*
X97790000Y-53340000D03*
X97790000Y-54610000D03*
X97790000Y-55880000D03*
X87630000Y-55880000D03*
X87630000Y-57150000D03*
X87630000Y-58420000D03*
X87630000Y-59690000D03*
X88900000Y-59690000D03*
X87630000Y-60960000D03*
X86360000Y-60960000D03*
X86360000Y-59690000D03*
X85090000Y-59690000D03*
X85090000Y-60960000D03*
X83820000Y-60960000D03*
X83820000Y-59690000D03*
X82550000Y-59690000D03*
X82550000Y-60960000D03*
X82550000Y-54610000D03*
X82550000Y-55880000D03*
X82550000Y-58420000D03*
X82550000Y-57150000D03*
X89060000Y-55360000D03*
X90170000Y-54610000D03*
X91520000Y-54650000D03*
X92710000Y-54610000D03*
X93980000Y-54610000D03*
X95250000Y-54610000D03*
X96520000Y-54610000D03*
X87630000Y-45720000D03*
X73740000Y-75950000D03*
X73710000Y-71670000D03*
X73710000Y-67740000D03*
X73620000Y-64360000D03*
X70100000Y-64400000D03*
X65750000Y-74950000D03*
X64590000Y-72620000D03*
X80705000Y-79315000D03*
D21*
X77331370Y-87630000D02*
X76200000Y-87630000D01*
X80267998Y-87630000D02*
X77331370Y-87630000D01*
X83820000Y-84077998D02*
X80267998Y-87630000D01*
X83820000Y-77470000D02*
X83820000Y-84077998D01*
X61759999Y-86830001D02*
X60960000Y-87630000D01*
X66960000Y-62130000D02*
X66960000Y-66136000D01*
X64994000Y-60164000D02*
X66960000Y-62130000D01*
X63592010Y-84997990D02*
X61759999Y-86830001D01*
X66960000Y-66136000D02*
X63592010Y-69503990D01*
X63592010Y-69503990D02*
X63592010Y-84997990D01*
D22*
X76200000Y-52070000D02*
X78740000Y-52070000D01*
X80518000Y-53848000D02*
X80518000Y-57150000D01*
X78740000Y-52070000D02*
X80518000Y-53848000D01*
D21*
X64994000Y-62704000D02*
X62992000Y-64706000D01*
X62992000Y-83058000D02*
X60960000Y-85090000D01*
X62992000Y-64706000D02*
X62992000Y-83058000D01*
X91210000Y-74930000D02*
X91440000Y-75160000D01*
X77331370Y-64770000D02*
X76200000Y-64770000D01*
X86140002Y-64770000D02*
X77331370Y-64770000D01*
X93480001Y-72109999D02*
X86140002Y-64770000D01*
X93480001Y-72975001D02*
X93480001Y-72109999D01*
X94280000Y-73775000D02*
X93480001Y-72975001D01*
X88440000Y-74930000D02*
X76200000Y-74930000D01*
X91440000Y-77930000D02*
X88440000Y-74930000D01*
D22*
X96175000Y-76545000D02*
X94280000Y-76545000D01*
X99060000Y-59690000D02*
X99060000Y-73660000D01*
X99060000Y-73660000D02*
X96175000Y-76545000D01*
D21*
X85090000Y-78620000D02*
X85090000Y-77470000D01*
X87170000Y-80700000D02*
X85090000Y-78620000D01*
X91440000Y-80700000D02*
X87170000Y-80700000D01*
X87489999Y-83799999D02*
X86320000Y-82630000D01*
X87959999Y-84269999D02*
X87489999Y-83799999D01*
X90640001Y-84269999D02*
X87959999Y-84269999D01*
X91440000Y-83470000D02*
X90640001Y-84269999D01*
D23*
G36*
X99763945Y-42583966D02*
G01*
X99410776Y-42730254D01*
X99092933Y-42942630D01*
X98822630Y-43212933D01*
X98610254Y-43530776D01*
X98463966Y-43883945D01*
X98389390Y-44258867D01*
X98389390Y-44641133D01*
X98463966Y-45016055D01*
X98534533Y-45186418D01*
X98456977Y-45214364D01*
X98341020Y-45276344D01*
X98274040Y-45516435D01*
X99060000Y-46302395D01*
X99074143Y-46288253D01*
X99253748Y-46467858D01*
X99239605Y-46482000D01*
X100025565Y-47267960D01*
X100265656Y-47200980D01*
X100382756Y-46951952D01*
X100449023Y-46684865D01*
X100461910Y-46409983D01*
X100458992Y-46390610D01*
X100521133Y-46390610D01*
X100896055Y-46316034D01*
X101249224Y-46169746D01*
X101567067Y-45957370D01*
X101837370Y-45687067D01*
X102049746Y-45369224D01*
X102196034Y-45016055D01*
X102210001Y-44945838D01*
X102210000Y-93484157D01*
X102196034Y-93413945D01*
X102049746Y-93060776D01*
X101837370Y-92742933D01*
X101567067Y-92472630D01*
X101249224Y-92260254D01*
X100896055Y-92113966D01*
X100521133Y-92039390D01*
X100138867Y-92039390D01*
X99763945Y-92113966D01*
X99410776Y-92260254D01*
X99092933Y-92472630D01*
X98822630Y-92742933D01*
X98610254Y-93060776D01*
X98463966Y-93413945D01*
X98389390Y-93788867D01*
X98389390Y-94171133D01*
X98463966Y-94546055D01*
X98610254Y-94899224D01*
X98822630Y-95217067D01*
X99092933Y-95487370D01*
X99410776Y-95699746D01*
X99763945Y-95846034D01*
X99834157Y-95860000D01*
X60185843Y-95860000D01*
X60256055Y-95846034D01*
X60609224Y-95699746D01*
X60927067Y-95487370D01*
X61197370Y-95217067D01*
X61409746Y-94899224D01*
X61556034Y-94546055D01*
X61630610Y-94171133D01*
X61630610Y-93788867D01*
X61556034Y-93413945D01*
X61409746Y-93060776D01*
X61197370Y-92742933D01*
X60927067Y-92472630D01*
X60609224Y-92260254D01*
X60256055Y-92113966D01*
X59881133Y-92039390D01*
X59498867Y-92039390D01*
X59123945Y-92113966D01*
X58770776Y-92260254D01*
X58452933Y-92472630D01*
X58182630Y-92742933D01*
X57970254Y-93060776D01*
X57823966Y-93413945D01*
X57810000Y-93484157D01*
X57810000Y-62088665D01*
X59525000Y-62088665D01*
X59525000Y-62371335D01*
X59580147Y-62648574D01*
X59688320Y-62909727D01*
X59845363Y-63144759D01*
X60045241Y-63344637D01*
X60277759Y-63500000D01*
X60045241Y-63655363D01*
X59845363Y-63855241D01*
X59688320Y-64090273D01*
X59580147Y-64351426D01*
X59525000Y-64628665D01*
X59525000Y-64911335D01*
X59580147Y-65188574D01*
X59688320Y-65449727D01*
X59845363Y-65684759D01*
X60045241Y-65884637D01*
X60277759Y-66040000D01*
X60045241Y-66195363D01*
X59845363Y-66395241D01*
X59688320Y-66630273D01*
X59580147Y-66891426D01*
X59525000Y-67168665D01*
X59525000Y-67451335D01*
X59580147Y-67728574D01*
X59688320Y-67989727D01*
X59845363Y-68224759D01*
X60045241Y-68424637D01*
X60277759Y-68580000D01*
X60045241Y-68735363D01*
X59845363Y-68935241D01*
X59688320Y-69170273D01*
X59580147Y-69431426D01*
X59525000Y-69708665D01*
X59525000Y-69991335D01*
X59580147Y-70268574D01*
X59688320Y-70529727D01*
X59845363Y-70764759D01*
X60045241Y-70964637D01*
X60277759Y-71120000D01*
X60045241Y-71275363D01*
X59845363Y-71475241D01*
X59688320Y-71710273D01*
X59580147Y-71971426D01*
X59525000Y-72248665D01*
X59525000Y-72531335D01*
X59580147Y-72808574D01*
X59688320Y-73069727D01*
X59845363Y-73304759D01*
X60045241Y-73504637D01*
X60277759Y-73660000D01*
X60045241Y-73815363D01*
X59845363Y-74015241D01*
X59688320Y-74250273D01*
X59580147Y-74511426D01*
X59525000Y-74788665D01*
X59525000Y-75071335D01*
X59580147Y-75348574D01*
X59688320Y-75609727D01*
X59845363Y-75844759D01*
X60045241Y-76044637D01*
X60277759Y-76200000D01*
X60045241Y-76355363D01*
X59845363Y-76555241D01*
X59688320Y-76790273D01*
X59580147Y-77051426D01*
X59525000Y-77328665D01*
X59525000Y-77611335D01*
X59580147Y-77888574D01*
X59688320Y-78149727D01*
X59845363Y-78384759D01*
X60045241Y-78584637D01*
X60277759Y-78740000D01*
X60045241Y-78895363D01*
X59845363Y-79095241D01*
X59688320Y-79330273D01*
X59580147Y-79591426D01*
X59525000Y-79868665D01*
X59525000Y-80151335D01*
X59580147Y-80428574D01*
X59688320Y-80689727D01*
X59845363Y-80924759D01*
X60045241Y-81124637D01*
X60277759Y-81280000D01*
X60045241Y-81435363D01*
X59845363Y-81635241D01*
X59688320Y-81870273D01*
X59580147Y-82131426D01*
X59525000Y-82408665D01*
X59525000Y-82691335D01*
X59580147Y-82968574D01*
X59688320Y-83229727D01*
X59845363Y-83464759D01*
X60045241Y-83664637D01*
X60277759Y-83820000D01*
X60045241Y-83975363D01*
X59845363Y-84175241D01*
X59688320Y-84410273D01*
X59580147Y-84671426D01*
X59525000Y-84948665D01*
X59525000Y-85231335D01*
X59580147Y-85508574D01*
X59688320Y-85769727D01*
X59845363Y-86004759D01*
X60045241Y-86204637D01*
X60277759Y-86360000D01*
X60045241Y-86515363D01*
X59845363Y-86715241D01*
X59688320Y-86950273D01*
X59580147Y-87211426D01*
X59525000Y-87488665D01*
X59525000Y-87771335D01*
X59580147Y-88048574D01*
X59688320Y-88309727D01*
X59845363Y-88544759D01*
X60045241Y-88744637D01*
X60280273Y-88901680D01*
X60541426Y-89009853D01*
X60818665Y-89065000D01*
X61101335Y-89065000D01*
X61378574Y-89009853D01*
X61639727Y-88901680D01*
X61874759Y-88744637D01*
X62074637Y-88544759D01*
X62221474Y-88325000D01*
X62893572Y-88325000D01*
X62893572Y-94695000D01*
X71606429Y-94695000D01*
X71606429Y-92452223D01*
X82015000Y-92452223D01*
X82015000Y-92807777D01*
X82084365Y-93156499D01*
X82220429Y-93484988D01*
X82417965Y-93780621D01*
X82669379Y-94032035D01*
X82965012Y-94229571D01*
X83293501Y-94365635D01*
X83642223Y-94435000D01*
X83997777Y-94435000D01*
X84346499Y-94365635D01*
X84674988Y-94229571D01*
X84970621Y-94032035D01*
X85222035Y-93780621D01*
X85419571Y-93484988D01*
X85555635Y-93156499D01*
X85625000Y-92807777D01*
X85625000Y-92452223D01*
X85555635Y-92103501D01*
X85419571Y-91775012D01*
X85222035Y-91479379D01*
X84970621Y-91227965D01*
X84674988Y-91030429D01*
X84346499Y-90894365D01*
X83997777Y-90825000D01*
X83642223Y-90825000D01*
X83293501Y-90894365D01*
X82965012Y-91030429D01*
X82669379Y-91227965D01*
X82417965Y-91479379D01*
X82220429Y-91775012D01*
X82084365Y-92103501D01*
X82015000Y-92452223D01*
X71606429Y-92452223D01*
X71606429Y-88325000D01*
X62893572Y-88325000D01*
X62221474Y-88325000D01*
X62231680Y-88309727D01*
X62339853Y-88048574D01*
X62395000Y-87771335D01*
X62395000Y-87488665D01*
X62376286Y-87394582D01*
X62379437Y-87391431D01*
X62379441Y-87391426D01*
X64153442Y-85617427D01*
X64185301Y-85591281D01*
X64214137Y-85556145D01*
X64289646Y-85464136D01*
X64367182Y-85319077D01*
X64414928Y-85161679D01*
X64431050Y-84997990D01*
X64427010Y-84956972D01*
X64427010Y-71530537D01*
X64453966Y-71666055D01*
X64600254Y-72019224D01*
X64812630Y-72337067D01*
X65082933Y-72607370D01*
X65400776Y-72819746D01*
X65753945Y-72966034D01*
X66128867Y-73040610D01*
X66511133Y-73040610D01*
X66886055Y-72966034D01*
X67239224Y-72819746D01*
X67557067Y-72607370D01*
X67827370Y-72337067D01*
X68039746Y-72019224D01*
X68186034Y-71666055D01*
X68260610Y-71291133D01*
X68260610Y-70908867D01*
X68186034Y-70533945D01*
X68039746Y-70180776D01*
X67827370Y-69862933D01*
X67557067Y-69592630D01*
X67239224Y-69380254D01*
X66886055Y-69233966D01*
X66511133Y-69159390D01*
X66128867Y-69159390D01*
X65753945Y-69233966D01*
X65400776Y-69380254D01*
X65082933Y-69592630D01*
X64812630Y-69862933D01*
X64600254Y-70180776D01*
X64453966Y-70533945D01*
X64427010Y-70669463D01*
X64427010Y-69849857D01*
X67521427Y-66755441D01*
X67553291Y-66729291D01*
X67657636Y-66602146D01*
X67735172Y-66457087D01*
X67782918Y-66299689D01*
X67795000Y-66177019D01*
X67799040Y-66136001D01*
X67795000Y-66094982D01*
X67795000Y-62171018D01*
X67799040Y-62130000D01*
X67782918Y-61966311D01*
X67735172Y-61808913D01*
X67657636Y-61663854D01*
X67579439Y-61568570D01*
X67579437Y-61568568D01*
X67553291Y-61536709D01*
X67521433Y-61510564D01*
X66665415Y-60654547D01*
X66729000Y-60334883D01*
X66729000Y-59993117D01*
X66662325Y-59657919D01*
X66531537Y-59342169D01*
X66341663Y-59058002D01*
X66177661Y-58894000D01*
X66341663Y-58729998D01*
X66531537Y-58445831D01*
X66662325Y-58130081D01*
X66729000Y-57794883D01*
X66729000Y-57453117D01*
X66662325Y-57117919D01*
X66617071Y-57008665D01*
X74765000Y-57008665D01*
X74765000Y-57291335D01*
X74820147Y-57568574D01*
X74928320Y-57829727D01*
X75085363Y-58064759D01*
X75285241Y-58264637D01*
X75517759Y-58420000D01*
X75285241Y-58575363D01*
X75085363Y-58775241D01*
X74928320Y-59010273D01*
X74820147Y-59271426D01*
X74765000Y-59548665D01*
X74765000Y-59831335D01*
X74820147Y-60108574D01*
X74928320Y-60369727D01*
X75085363Y-60604759D01*
X75285241Y-60804637D01*
X75517759Y-60960000D01*
X75285241Y-61115363D01*
X75085363Y-61315241D01*
X74928320Y-61550273D01*
X74820147Y-61811426D01*
X74765000Y-62088665D01*
X74765000Y-62371335D01*
X74820147Y-62648574D01*
X74928320Y-62909727D01*
X75085363Y-63144759D01*
X75285241Y-63344637D01*
X75517759Y-63500000D01*
X75285241Y-63655363D01*
X75085363Y-63855241D01*
X74928320Y-64090273D01*
X74820147Y-64351426D01*
X74765000Y-64628665D01*
X74765000Y-64911335D01*
X74820147Y-65188574D01*
X74928320Y-65449727D01*
X75085363Y-65684759D01*
X75285241Y-65884637D01*
X75517759Y-66040000D01*
X75285241Y-66195363D01*
X75085363Y-66395241D01*
X74928320Y-66630273D01*
X74820147Y-66891426D01*
X74765000Y-67168665D01*
X74765000Y-67451335D01*
X74820147Y-67728574D01*
X74928320Y-67989727D01*
X75085363Y-68224759D01*
X75285241Y-68424637D01*
X75517759Y-68580000D01*
X75285241Y-68735363D01*
X75085363Y-68935241D01*
X74928320Y-69170273D01*
X74820147Y-69431426D01*
X74765000Y-69708665D01*
X74765000Y-69991335D01*
X74820147Y-70268574D01*
X74928320Y-70529727D01*
X75085363Y-70764759D01*
X75285241Y-70964637D01*
X75517759Y-71120000D01*
X75285241Y-71275363D01*
X75085363Y-71475241D01*
X74928320Y-71710273D01*
X74820147Y-71971426D01*
X74765000Y-72248665D01*
X74765000Y-72531335D01*
X74820147Y-72808574D01*
X74928320Y-73069727D01*
X75085363Y-73304759D01*
X75285241Y-73504637D01*
X75517759Y-73660000D01*
X75285241Y-73815363D01*
X75085363Y-74015241D01*
X74928320Y-74250273D01*
X74820147Y-74511426D01*
X74765000Y-74788665D01*
X74765000Y-75071335D01*
X74820147Y-75348574D01*
X74928320Y-75609727D01*
X75085363Y-75844759D01*
X75285241Y-76044637D01*
X75517759Y-76200000D01*
X75285241Y-76355363D01*
X75085363Y-76555241D01*
X74928320Y-76790273D01*
X74820147Y-77051426D01*
X74765000Y-77328665D01*
X74765000Y-77611335D01*
X74820147Y-77888574D01*
X74928320Y-78149727D01*
X75085363Y-78384759D01*
X75285241Y-78584637D01*
X75517759Y-78740000D01*
X75285241Y-78895363D01*
X75085363Y-79095241D01*
X74928320Y-79330273D01*
X74820147Y-79591426D01*
X74765000Y-79868665D01*
X74765000Y-80151335D01*
X74820147Y-80428574D01*
X74928320Y-80689727D01*
X75085363Y-80924759D01*
X75285241Y-81124637D01*
X75517759Y-81280000D01*
X75285241Y-81435363D01*
X75085363Y-81635241D01*
X74928320Y-81870273D01*
X74820147Y-82131426D01*
X74765000Y-82408665D01*
X74765000Y-82691335D01*
X74820147Y-82968574D01*
X74928320Y-83229727D01*
X75085363Y-83464759D01*
X75285241Y-83664637D01*
X75517759Y-83820000D01*
X75285241Y-83975363D01*
X75085363Y-84175241D01*
X74928320Y-84410273D01*
X74820147Y-84671426D01*
X74765000Y-84948665D01*
X74765000Y-85231335D01*
X74820147Y-85508574D01*
X74928320Y-85769727D01*
X75085363Y-86004759D01*
X75285241Y-86204637D01*
X75517759Y-86360000D01*
X75285241Y-86515363D01*
X75085363Y-86715241D01*
X74928320Y-86950273D01*
X74820147Y-87211426D01*
X74765000Y-87488665D01*
X74765000Y-87771335D01*
X74820147Y-88048574D01*
X74928320Y-88309727D01*
X75085363Y-88544759D01*
X75285241Y-88744637D01*
X75520273Y-88901680D01*
X75781426Y-89009853D01*
X76058665Y-89065000D01*
X76341335Y-89065000D01*
X76618574Y-89009853D01*
X76879727Y-88901680D01*
X77114759Y-88744637D01*
X77314637Y-88544759D01*
X77367930Y-88465000D01*
X80226980Y-88465000D01*
X80267998Y-88469040D01*
X80309016Y-88465000D01*
X80309017Y-88465000D01*
X80431687Y-88452918D01*
X80589085Y-88405172D01*
X80734144Y-88327636D01*
X80861289Y-88223291D01*
X80887444Y-88191421D01*
X81185720Y-87893145D01*
X81286261Y-88398601D01*
X81484893Y-88878141D01*
X81773262Y-89309715D01*
X82140285Y-89676738D01*
X82571859Y-89965107D01*
X83051399Y-90163739D01*
X83560475Y-90265000D01*
X84079525Y-90265000D01*
X84554736Y-90170475D01*
X90225000Y-90170475D01*
X90225000Y-90689525D01*
X90326261Y-91198601D01*
X90524893Y-91678141D01*
X90813262Y-92109715D01*
X91180285Y-92476738D01*
X91611859Y-92765107D01*
X92091399Y-92963739D01*
X92600475Y-93065000D01*
X93119525Y-93065000D01*
X93628601Y-92963739D01*
X94108141Y-92765107D01*
X94539715Y-92476738D01*
X94906738Y-92109715D01*
X95195107Y-91678141D01*
X95393739Y-91198601D01*
X95495000Y-90689525D01*
X95495000Y-90170475D01*
X95393739Y-89661399D01*
X95195107Y-89181859D01*
X94906738Y-88750285D01*
X94539715Y-88383262D01*
X94108141Y-88094893D01*
X93628601Y-87896261D01*
X93119525Y-87795000D01*
X92600475Y-87795000D01*
X92091399Y-87896261D01*
X91611859Y-88094893D01*
X91180285Y-88383262D01*
X90813262Y-88750285D01*
X90524893Y-89181859D01*
X90326261Y-89661399D01*
X90225000Y-90170475D01*
X84554736Y-90170475D01*
X84588601Y-90163739D01*
X85068141Y-89965107D01*
X85499715Y-89676738D01*
X85866738Y-89309715D01*
X86155107Y-88878141D01*
X86353739Y-88398601D01*
X86455000Y-87889525D01*
X86455000Y-87370475D01*
X86353739Y-86861399D01*
X86155107Y-86381859D01*
X85866738Y-85950285D01*
X85499715Y-85583262D01*
X85068141Y-85294893D01*
X84588601Y-85096261D01*
X84083146Y-84995720D01*
X84381427Y-84697439D01*
X84413291Y-84671289D01*
X84517636Y-84544144D01*
X84595172Y-84399085D01*
X84642918Y-84241687D01*
X84655000Y-84119017D01*
X84655000Y-84119007D01*
X84659039Y-84077999D01*
X84655000Y-84036991D01*
X84655000Y-83327028D01*
X84720429Y-83484988D01*
X84917965Y-83780621D01*
X85169379Y-84032035D01*
X85465012Y-84229571D01*
X85793501Y-84365635D01*
X86142223Y-84435000D01*
X86497777Y-84435000D01*
X86846499Y-84365635D01*
X86866488Y-84357356D01*
X86928569Y-84419437D01*
X86928575Y-84419442D01*
X87340553Y-84831420D01*
X87366708Y-84863290D01*
X87493853Y-84967635D01*
X87638912Y-85045171D01*
X87796310Y-85092917D01*
X87918980Y-85104999D01*
X87918990Y-85104999D01*
X87959998Y-85109038D01*
X88001006Y-85104999D01*
X90598983Y-85104999D01*
X90640001Y-85109039D01*
X90681019Y-85104999D01*
X90681020Y-85104999D01*
X90803690Y-85092917D01*
X90961088Y-85045171D01*
X91106147Y-84967635D01*
X91205137Y-84886396D01*
X91298665Y-84905000D01*
X91581335Y-84905000D01*
X91858574Y-84849853D01*
X92119727Y-84741680D01*
X92354759Y-84584637D01*
X92554637Y-84384759D01*
X92711680Y-84149727D01*
X92819853Y-83888574D01*
X92875000Y-83611335D01*
X92875000Y-83328665D01*
X92825080Y-83077702D01*
X93466903Y-83077702D01*
X93538486Y-83321671D01*
X93793996Y-83442571D01*
X94068184Y-83511300D01*
X94350512Y-83525217D01*
X94630130Y-83483787D01*
X94896292Y-83388603D01*
X95021514Y-83321671D01*
X95093097Y-83077702D01*
X94280000Y-82264605D01*
X93466903Y-83077702D01*
X92825080Y-83077702D01*
X92819853Y-83051426D01*
X92711680Y-82790273D01*
X92554637Y-82555241D01*
X92354759Y-82355363D01*
X92119727Y-82198320D01*
X92016380Y-82155512D01*
X92839783Y-82155512D01*
X92881213Y-82435130D01*
X92976397Y-82701292D01*
X93043329Y-82826514D01*
X93287298Y-82898097D01*
X94100395Y-82085000D01*
X94459605Y-82085000D01*
X95272702Y-82898097D01*
X95516671Y-82826514D01*
X95637571Y-82571004D01*
X95706300Y-82296816D01*
X95720217Y-82014488D01*
X95678787Y-81734870D01*
X95583603Y-81468708D01*
X95516671Y-81343486D01*
X95272702Y-81271903D01*
X94459605Y-82085000D01*
X94100395Y-82085000D01*
X93287298Y-81271903D01*
X93043329Y-81343486D01*
X92922429Y-81598996D01*
X92853700Y-81873184D01*
X92839783Y-82155512D01*
X92016380Y-82155512D01*
X91858574Y-82090147D01*
X91832699Y-82085000D01*
X91858574Y-82079853D01*
X92119727Y-81971680D01*
X92354759Y-81814637D01*
X92554637Y-81614759D01*
X92711680Y-81379727D01*
X92819853Y-81118574D01*
X92875000Y-80841335D01*
X92875000Y-80558665D01*
X92819853Y-80281426D01*
X92711680Y-80020273D01*
X92554637Y-79785241D01*
X92354759Y-79585363D01*
X92119727Y-79428320D01*
X91858574Y-79320147D01*
X91832699Y-79315000D01*
X91858574Y-79309853D01*
X92119727Y-79201680D01*
X92354759Y-79044637D01*
X92554637Y-78844759D01*
X92711680Y-78609727D01*
X92819853Y-78348574D01*
X92875000Y-78071335D01*
X92875000Y-77788665D01*
X92819853Y-77511426D01*
X92711680Y-77250273D01*
X92554637Y-77015241D01*
X92354759Y-76815363D01*
X92119727Y-76658320D01*
X91858574Y-76550147D01*
X91832699Y-76545000D01*
X91858574Y-76539853D01*
X92119727Y-76431680D01*
X92354759Y-76274637D01*
X92554637Y-76074759D01*
X92711680Y-75839727D01*
X92819853Y-75578574D01*
X92875000Y-75301335D01*
X92875000Y-75018665D01*
X92819853Y-74741426D01*
X92711680Y-74480273D01*
X92554637Y-74245241D01*
X92354759Y-74045363D01*
X92119727Y-73888320D01*
X91974275Y-73828072D01*
X92240000Y-73828072D01*
X92364482Y-73815812D01*
X92484180Y-73779502D01*
X92594494Y-73720537D01*
X92691185Y-73641185D01*
X92770537Y-73544494D01*
X92808655Y-73473181D01*
X92863604Y-73540137D01*
X92845000Y-73633665D01*
X92845000Y-73916335D01*
X92900147Y-74193574D01*
X93008320Y-74454727D01*
X93165363Y-74689759D01*
X93365241Y-74889637D01*
X93600273Y-75046680D01*
X93861426Y-75154853D01*
X93887301Y-75160000D01*
X93861426Y-75165147D01*
X93600273Y-75273320D01*
X93365241Y-75430363D01*
X93165363Y-75630241D01*
X93008320Y-75865273D01*
X92900147Y-76126426D01*
X92845000Y-76403665D01*
X92845000Y-76686335D01*
X92900147Y-76963574D01*
X93008320Y-77224727D01*
X93165363Y-77459759D01*
X93365241Y-77659637D01*
X93600273Y-77816680D01*
X93861426Y-77924853D01*
X93887301Y-77930000D01*
X93861426Y-77935147D01*
X93600273Y-78043320D01*
X93365241Y-78200363D01*
X93165363Y-78400241D01*
X93008320Y-78635273D01*
X92900147Y-78896426D01*
X92845000Y-79173665D01*
X92845000Y-79456335D01*
X92900147Y-79733574D01*
X93008320Y-79994727D01*
X93165363Y-80229759D01*
X93365241Y-80429637D01*
X93600273Y-80586680D01*
X93861426Y-80694853D01*
X93889882Y-80700513D01*
X93663708Y-80781397D01*
X93538486Y-80848329D01*
X93466903Y-81092298D01*
X94280000Y-81905395D01*
X95093097Y-81092298D01*
X95021514Y-80848329D01*
X94766004Y-80727429D01*
X94663711Y-80701788D01*
X94698574Y-80694853D01*
X94959727Y-80586680D01*
X95194759Y-80429637D01*
X95394637Y-80229759D01*
X95551680Y-79994727D01*
X95659853Y-79733574D01*
X95715000Y-79456335D01*
X95715000Y-79173665D01*
X95659853Y-78896426D01*
X95551680Y-78635273D01*
X95394637Y-78400241D01*
X95194759Y-78200363D01*
X94959727Y-78043320D01*
X94698574Y-77935147D01*
X94672699Y-77930000D01*
X94698574Y-77924853D01*
X94959727Y-77816680D01*
X95194759Y-77659637D01*
X95274396Y-77580000D01*
X96124172Y-77580000D01*
X96175000Y-77585006D01*
X96225828Y-77580000D01*
X96225838Y-77580000D01*
X96377895Y-77565024D01*
X96572993Y-77505841D01*
X96752797Y-77409734D01*
X96910396Y-77280396D01*
X96942807Y-77240903D01*
X99755908Y-74427803D01*
X99795396Y-74395396D01*
X99843559Y-74336709D01*
X99924734Y-74237798D01*
X100020840Y-74057994D01*
X100020841Y-74057993D01*
X100080024Y-73862895D01*
X100095000Y-73710838D01*
X100095000Y-73710829D01*
X100100006Y-73660001D01*
X100095000Y-73609173D01*
X100095000Y-60630655D01*
X100145120Y-60580535D01*
X100298005Y-60351727D01*
X100403314Y-60097490D01*
X100457000Y-59827592D01*
X100457000Y-59552408D01*
X100403314Y-59282510D01*
X100298005Y-59028273D01*
X100145120Y-58799465D01*
X99950535Y-58604880D01*
X99721727Y-58451995D01*
X99644485Y-58420000D01*
X99721727Y-58388005D01*
X99950535Y-58235120D01*
X100145120Y-58040535D01*
X100298005Y-57811727D01*
X100403314Y-57557490D01*
X100457000Y-57287592D01*
X100457000Y-57012408D01*
X100403314Y-56742510D01*
X100298005Y-56488273D01*
X100145120Y-56259465D01*
X99950535Y-56064880D01*
X99721727Y-55911995D01*
X99467490Y-55806686D01*
X99197592Y-55753000D01*
X98922408Y-55753000D01*
X98652510Y-55806686D01*
X98398273Y-55911995D01*
X98169465Y-56064880D01*
X97974880Y-56259465D01*
X97821995Y-56488273D01*
X97716686Y-56742510D01*
X97663000Y-57012408D01*
X97663000Y-57287592D01*
X97716686Y-57557490D01*
X97821995Y-57811727D01*
X97974880Y-58040535D01*
X98169465Y-58235120D01*
X98398273Y-58388005D01*
X98475515Y-58420000D01*
X98398273Y-58451995D01*
X98169465Y-58604880D01*
X97974880Y-58799465D01*
X97821995Y-59028273D01*
X97716686Y-59282510D01*
X97663000Y-59552408D01*
X97663000Y-59827592D01*
X97716686Y-60097490D01*
X97821995Y-60351727D01*
X97974880Y-60580535D01*
X98025000Y-60630655D01*
X98025001Y-73231288D01*
X95746290Y-75510000D01*
X95274396Y-75510000D01*
X95194759Y-75430363D01*
X94959727Y-75273320D01*
X94698574Y-75165147D01*
X94672699Y-75160000D01*
X94698574Y-75154853D01*
X94959727Y-75046680D01*
X95194759Y-74889637D01*
X95394637Y-74689759D01*
X95551680Y-74454727D01*
X95659853Y-74193574D01*
X95715000Y-73916335D01*
X95715000Y-73633665D01*
X95659853Y-73356426D01*
X95551680Y-73095273D01*
X95508665Y-73030897D01*
X95808867Y-73090610D01*
X96191133Y-73090610D01*
X96566055Y-73016034D01*
X96919224Y-72869746D01*
X97237067Y-72657370D01*
X97507370Y-72387067D01*
X97719746Y-72069224D01*
X97866034Y-71716055D01*
X97940610Y-71341133D01*
X97940610Y-70958867D01*
X97866034Y-70583945D01*
X97719746Y-70230776D01*
X97507370Y-69912933D01*
X97237067Y-69642630D01*
X96919224Y-69430254D01*
X96566055Y-69283966D01*
X96191133Y-69209390D01*
X95808867Y-69209390D01*
X95433945Y-69283966D01*
X95080776Y-69430254D01*
X94762933Y-69642630D01*
X94492630Y-69912933D01*
X94280254Y-70230776D01*
X94133966Y-70583945D01*
X94059390Y-70958867D01*
X94059390Y-71341133D01*
X94101039Y-71550518D01*
X94073292Y-71516708D01*
X94041428Y-71490558D01*
X87721345Y-65170475D01*
X90225000Y-65170475D01*
X90225000Y-65689525D01*
X90326261Y-66198601D01*
X90524893Y-66678141D01*
X90813262Y-67109715D01*
X91180285Y-67476738D01*
X91611859Y-67765107D01*
X92091399Y-67963739D01*
X92600475Y-68065000D01*
X93119525Y-68065000D01*
X93628601Y-67963739D01*
X94108141Y-67765107D01*
X94539715Y-67476738D01*
X94906738Y-67109715D01*
X95195107Y-66678141D01*
X95393739Y-66198601D01*
X95495000Y-65689525D01*
X95495000Y-65170475D01*
X95393739Y-64661399D01*
X95195107Y-64181859D01*
X94906738Y-63750285D01*
X94539715Y-63383262D01*
X94108141Y-63094893D01*
X93628601Y-62896261D01*
X93119525Y-62795000D01*
X92600475Y-62795000D01*
X92091399Y-62896261D01*
X91611859Y-63094893D01*
X91180285Y-63383262D01*
X90813262Y-63750285D01*
X90524893Y-64181859D01*
X90326261Y-64661399D01*
X90225000Y-65170475D01*
X87721345Y-65170475D01*
X86759448Y-64208579D01*
X86733293Y-64176709D01*
X86606148Y-64072364D01*
X86461089Y-63994828D01*
X86303691Y-63947082D01*
X86181021Y-63935000D01*
X86181020Y-63935000D01*
X86140002Y-63930960D01*
X86098984Y-63935000D01*
X77367930Y-63935000D01*
X77314637Y-63855241D01*
X77114759Y-63655363D01*
X76882241Y-63500000D01*
X77114759Y-63344637D01*
X77314637Y-63144759D01*
X77471680Y-62909727D01*
X77579853Y-62648574D01*
X77635000Y-62371335D01*
X77635000Y-62088665D01*
X77579853Y-61811426D01*
X77471680Y-61550273D01*
X77314637Y-61315241D01*
X77114759Y-61115363D01*
X76882241Y-60960000D01*
X77114759Y-60804637D01*
X77314637Y-60604759D01*
X77471680Y-60369727D01*
X77579853Y-60108574D01*
X77635000Y-59831335D01*
X77635000Y-59548665D01*
X77579853Y-59271426D01*
X77471680Y-59010273D01*
X77314637Y-58775241D01*
X77114759Y-58575363D01*
X76882241Y-58420000D01*
X77114759Y-58264637D01*
X77314637Y-58064759D01*
X77471680Y-57829727D01*
X77579853Y-57568574D01*
X77635000Y-57291335D01*
X77635000Y-57008665D01*
X77579853Y-56731426D01*
X77471680Y-56470273D01*
X77314637Y-56235241D01*
X77114759Y-56035363D01*
X76879727Y-55878320D01*
X76869135Y-55873933D01*
X77055131Y-55762385D01*
X77263519Y-55573414D01*
X77431037Y-55347420D01*
X77551246Y-55093087D01*
X77591904Y-54959039D01*
X77469915Y-54737000D01*
X76327000Y-54737000D01*
X76327000Y-54757000D01*
X76073000Y-54757000D01*
X76073000Y-54737000D01*
X74930085Y-54737000D01*
X74808096Y-54959039D01*
X74848754Y-55093087D01*
X74968963Y-55347420D01*
X75136481Y-55573414D01*
X75344869Y-55762385D01*
X75530865Y-55873933D01*
X75520273Y-55878320D01*
X75285241Y-56035363D01*
X75085363Y-56235241D01*
X74928320Y-56470273D01*
X74820147Y-56731426D01*
X74765000Y-57008665D01*
X66617071Y-57008665D01*
X66531537Y-56802169D01*
X66341663Y-56518002D01*
X66099998Y-56276337D01*
X65815831Y-56086463D01*
X65500081Y-55955675D01*
X65164883Y-55889000D01*
X64823117Y-55889000D01*
X64487919Y-55955675D01*
X64172169Y-56086463D01*
X63888002Y-56276337D01*
X63646337Y-56518002D01*
X63456463Y-56802169D01*
X63325675Y-57117919D01*
X63259000Y-57453117D01*
X63259000Y-57794883D01*
X63325675Y-58130081D01*
X63456463Y-58445831D01*
X63646337Y-58729998D01*
X63810339Y-58894000D01*
X63646337Y-59058002D01*
X63456463Y-59342169D01*
X63325675Y-59657919D01*
X63259000Y-59993117D01*
X63259000Y-60334883D01*
X63325675Y-60670081D01*
X63456463Y-60985831D01*
X63646337Y-61269998D01*
X63810339Y-61434000D01*
X63646337Y-61598002D01*
X63456463Y-61882169D01*
X63325675Y-62197919D01*
X63259000Y-62533117D01*
X63259000Y-62874883D01*
X63322585Y-63194547D01*
X62430579Y-64086554D01*
X62398709Y-64112709D01*
X62294365Y-64239854D01*
X62294364Y-64239855D01*
X62293955Y-64240619D01*
X62231680Y-64090273D01*
X62074637Y-63855241D01*
X61874759Y-63655363D01*
X61642241Y-63500000D01*
X61874759Y-63344637D01*
X62074637Y-63144759D01*
X62231680Y-62909727D01*
X62339853Y-62648574D01*
X62395000Y-62371335D01*
X62395000Y-62088665D01*
X62339853Y-61811426D01*
X62231680Y-61550273D01*
X62074637Y-61315241D01*
X61874759Y-61115363D01*
X61639727Y-60958320D01*
X61629135Y-60953933D01*
X61815131Y-60842385D01*
X62023519Y-60653414D01*
X62191037Y-60427420D01*
X62311246Y-60173087D01*
X62351904Y-60039039D01*
X62229915Y-59817000D01*
X61087000Y-59817000D01*
X61087000Y-59837000D01*
X60833000Y-59837000D01*
X60833000Y-59817000D01*
X59690085Y-59817000D01*
X59568096Y-60039039D01*
X59608754Y-60173087D01*
X59728963Y-60427420D01*
X59896481Y-60653414D01*
X60104869Y-60842385D01*
X60290865Y-60953933D01*
X60280273Y-60958320D01*
X60045241Y-61115363D01*
X59845363Y-61315241D01*
X59688320Y-61550273D01*
X59580147Y-61811426D01*
X59525000Y-62088665D01*
X57810000Y-62088665D01*
X57810000Y-51270000D01*
X59521928Y-51270000D01*
X59521928Y-52870000D01*
X59534188Y-52994482D01*
X59570498Y-53114180D01*
X59629463Y-53224494D01*
X59708815Y-53321185D01*
X59805506Y-53400537D01*
X59915820Y-53459502D01*
X60035518Y-53495812D01*
X60043961Y-53496643D01*
X59845363Y-53695241D01*
X59688320Y-53930273D01*
X59580147Y-54191426D01*
X59525000Y-54468665D01*
X59525000Y-54751335D01*
X59580147Y-55028574D01*
X59688320Y-55289727D01*
X59845363Y-55524759D01*
X60045241Y-55724637D01*
X60277759Y-55880000D01*
X60045241Y-56035363D01*
X59845363Y-56235241D01*
X59688320Y-56470273D01*
X59580147Y-56731426D01*
X59525000Y-57008665D01*
X59525000Y-57291335D01*
X59580147Y-57568574D01*
X59688320Y-57829727D01*
X59845363Y-58064759D01*
X60045241Y-58264637D01*
X60280273Y-58421680D01*
X60290865Y-58426067D01*
X60104869Y-58537615D01*
X59896481Y-58726586D01*
X59728963Y-58952580D01*
X59608754Y-59206913D01*
X59568096Y-59340961D01*
X59690085Y-59563000D01*
X60833000Y-59563000D01*
X60833000Y-59543000D01*
X61087000Y-59543000D01*
X61087000Y-59563000D01*
X62229915Y-59563000D01*
X62351904Y-59340961D01*
X62311246Y-59206913D01*
X62191037Y-58952580D01*
X62023519Y-58726586D01*
X61815131Y-58537615D01*
X61629135Y-58426067D01*
X61639727Y-58421680D01*
X61874759Y-58264637D01*
X62074637Y-58064759D01*
X62231680Y-57829727D01*
X62339853Y-57568574D01*
X62395000Y-57291335D01*
X62395000Y-57008665D01*
X62339853Y-56731426D01*
X62231680Y-56470273D01*
X62074637Y-56235241D01*
X61874759Y-56035363D01*
X61642241Y-55880000D01*
X61874759Y-55724637D01*
X62074637Y-55524759D01*
X62231680Y-55289727D01*
X62339853Y-55028574D01*
X62395000Y-54751335D01*
X62395000Y-54468665D01*
X62339853Y-54191426D01*
X62231680Y-53930273D01*
X62074637Y-53695241D01*
X61876039Y-53496643D01*
X61884482Y-53495812D01*
X62004180Y-53459502D01*
X62114494Y-53400537D01*
X62211185Y-53321185D01*
X62290537Y-53224494D01*
X62349502Y-53114180D01*
X62385812Y-52994482D01*
X62398072Y-52870000D01*
X62398072Y-51270000D01*
X62385812Y-51145518D01*
X62349502Y-51025820D01*
X62290537Y-50915506D01*
X62244055Y-50858867D01*
X64359390Y-50858867D01*
X64359390Y-51241133D01*
X64433966Y-51616055D01*
X64580254Y-51969224D01*
X64792630Y-52287067D01*
X65062933Y-52557370D01*
X65380776Y-52769746D01*
X65733945Y-52916034D01*
X66108867Y-52990610D01*
X66491133Y-52990610D01*
X66866055Y-52916034D01*
X67219224Y-52769746D01*
X67537067Y-52557370D01*
X67807370Y-52287067D01*
X68019746Y-51969224D01*
X68036546Y-51928665D01*
X74765000Y-51928665D01*
X74765000Y-52211335D01*
X74820147Y-52488574D01*
X74928320Y-52749727D01*
X75085363Y-52984759D01*
X75285241Y-53184637D01*
X75520273Y-53341680D01*
X75530865Y-53346067D01*
X75344869Y-53457615D01*
X75136481Y-53646586D01*
X74968963Y-53872580D01*
X74848754Y-54126913D01*
X74808096Y-54260961D01*
X74930085Y-54483000D01*
X76073000Y-54483000D01*
X76073000Y-54463000D01*
X76327000Y-54463000D01*
X76327000Y-54483000D01*
X77469915Y-54483000D01*
X77591904Y-54260961D01*
X77551246Y-54126913D01*
X77431037Y-53872580D01*
X77263519Y-53646586D01*
X77055131Y-53457615D01*
X76869135Y-53346067D01*
X76879727Y-53341680D01*
X77114759Y-53184637D01*
X77194396Y-53105000D01*
X78311290Y-53105000D01*
X79483000Y-54276711D01*
X79483001Y-56209344D01*
X79432880Y-56259465D01*
X79279995Y-56488273D01*
X79174686Y-56742510D01*
X79121000Y-57012408D01*
X79121000Y-57287592D01*
X79174686Y-57557490D01*
X79279995Y-57811727D01*
X79432880Y-58040535D01*
X79627465Y-58235120D01*
X79856273Y-58388005D01*
X79933515Y-58420000D01*
X79856273Y-58451995D01*
X79627465Y-58604880D01*
X79432880Y-58799465D01*
X79279995Y-59028273D01*
X79174686Y-59282510D01*
X79121000Y-59552408D01*
X79121000Y-59827592D01*
X79174686Y-60097490D01*
X79279995Y-60351727D01*
X79432880Y-60580535D01*
X79627465Y-60775120D01*
X79856273Y-60928005D01*
X80110510Y-61033314D01*
X80380408Y-61087000D01*
X80655592Y-61087000D01*
X80925490Y-61033314D01*
X81179727Y-60928005D01*
X81408535Y-60775120D01*
X81603120Y-60580535D01*
X81756005Y-60351727D01*
X81861314Y-60097490D01*
X81915000Y-59827592D01*
X81915000Y-59552408D01*
X81861314Y-59282510D01*
X81756005Y-59028273D01*
X81603120Y-58799465D01*
X81408535Y-58604880D01*
X81179727Y-58451995D01*
X81102485Y-58420000D01*
X81179727Y-58388005D01*
X81408535Y-58235120D01*
X81603120Y-58040535D01*
X81756005Y-57811727D01*
X81861314Y-57557490D01*
X81915000Y-57287592D01*
X81915000Y-57012408D01*
X81861314Y-56742510D01*
X81756005Y-56488273D01*
X81603120Y-56259465D01*
X81553000Y-56209345D01*
X81553000Y-53898835D01*
X81558007Y-53848000D01*
X81553000Y-53797162D01*
X81538024Y-53645105D01*
X81478841Y-53450007D01*
X81419143Y-53338320D01*
X81382734Y-53270202D01*
X81285803Y-53152092D01*
X81253396Y-53112604D01*
X81213908Y-53080197D01*
X79507807Y-51374097D01*
X79475396Y-51334604D01*
X79317797Y-51205266D01*
X79137993Y-51109159D01*
X78942895Y-51049976D01*
X78790838Y-51035000D01*
X78790828Y-51035000D01*
X78740000Y-51029994D01*
X78689172Y-51035000D01*
X77194396Y-51035000D01*
X77114759Y-50955363D01*
X76879727Y-50798320D01*
X76618574Y-50690147D01*
X76341335Y-50635000D01*
X76058665Y-50635000D01*
X75781426Y-50690147D01*
X75520273Y-50798320D01*
X75285241Y-50955363D01*
X75085363Y-51155241D01*
X74928320Y-51390273D01*
X74820147Y-51651426D01*
X74765000Y-51928665D01*
X68036546Y-51928665D01*
X68166034Y-51616055D01*
X68240610Y-51241133D01*
X68240610Y-50858867D01*
X68166034Y-50483945D01*
X68019746Y-50130776D01*
X67924056Y-49987565D01*
X79732040Y-49987565D01*
X79799020Y-50227656D01*
X80048048Y-50344756D01*
X80315135Y-50411023D01*
X80590017Y-50423910D01*
X80862133Y-50382922D01*
X81121023Y-50289636D01*
X81236980Y-50227656D01*
X81303960Y-49987565D01*
X80518000Y-49201605D01*
X79732040Y-49987565D01*
X67924056Y-49987565D01*
X67807370Y-49812933D01*
X67537067Y-49542630D01*
X67219224Y-49330254D01*
X66866055Y-49183966D01*
X66491133Y-49109390D01*
X66108867Y-49109390D01*
X65733945Y-49183966D01*
X65380776Y-49330254D01*
X65062933Y-49542630D01*
X64792630Y-49812933D01*
X64580254Y-50130776D01*
X64433966Y-50483945D01*
X64359390Y-50858867D01*
X62244055Y-50858867D01*
X62211185Y-50818815D01*
X62114494Y-50739463D01*
X62004180Y-50680498D01*
X61884482Y-50644188D01*
X61760000Y-50631928D01*
X60160000Y-50631928D01*
X60035518Y-50644188D01*
X59915820Y-50680498D01*
X59805506Y-50739463D01*
X59708815Y-50818815D01*
X59629463Y-50915506D01*
X59570498Y-51025820D01*
X59534188Y-51145518D01*
X59521928Y-51270000D01*
X57810000Y-51270000D01*
X57810000Y-49094017D01*
X79116090Y-49094017D01*
X79157078Y-49366133D01*
X79250364Y-49625023D01*
X79312344Y-49740980D01*
X79552435Y-49807960D01*
X80338395Y-49022000D01*
X80697605Y-49022000D01*
X81483565Y-49807960D01*
X81723656Y-49740980D01*
X81840756Y-49491952D01*
X81907023Y-49224865D01*
X81919910Y-48949983D01*
X81878922Y-48677867D01*
X81785636Y-48418977D01*
X81723656Y-48303020D01*
X81483565Y-48236040D01*
X80697605Y-49022000D01*
X80338395Y-49022000D01*
X79552435Y-48236040D01*
X79312344Y-48303020D01*
X79195244Y-48552048D01*
X79128977Y-48819135D01*
X79116090Y-49094017D01*
X57810000Y-49094017D01*
X57810000Y-47447565D01*
X79732040Y-47447565D01*
X79799020Y-47687656D01*
X79929644Y-47749079D01*
X79914977Y-47754364D01*
X79799020Y-47816344D01*
X79732040Y-48056435D01*
X80518000Y-48842395D01*
X81303960Y-48056435D01*
X81236980Y-47816344D01*
X81106356Y-47754921D01*
X81121023Y-47749636D01*
X81236980Y-47687656D01*
X81303960Y-47447565D01*
X80518000Y-46661605D01*
X79732040Y-47447565D01*
X57810000Y-47447565D01*
X57810000Y-46557195D01*
X57929744Y-46637205D01*
X58118102Y-46715226D01*
X58318061Y-46755000D01*
X58521939Y-46755000D01*
X58721898Y-46715226D01*
X58910256Y-46637205D01*
X59034755Y-46554017D01*
X79116090Y-46554017D01*
X79157078Y-46826133D01*
X79250364Y-47085023D01*
X79312344Y-47200980D01*
X79552435Y-47267960D01*
X80338395Y-46482000D01*
X80697605Y-46482000D01*
X81483565Y-47267960D01*
X81723656Y-47200980D01*
X81840756Y-46951952D01*
X81870765Y-46831000D01*
X83413095Y-46831000D01*
X83413095Y-53801000D01*
X93806905Y-53801000D01*
X93806905Y-50858867D01*
X94059390Y-50858867D01*
X94059390Y-51241133D01*
X94133966Y-51616055D01*
X94280254Y-51969224D01*
X94492630Y-52287067D01*
X94762933Y-52557370D01*
X95080776Y-52769746D01*
X95433945Y-52916034D01*
X95808867Y-52990610D01*
X96191133Y-52990610D01*
X96566055Y-52916034D01*
X96919224Y-52769746D01*
X97237067Y-52557370D01*
X97507370Y-52287067D01*
X97719746Y-51969224D01*
X97866034Y-51616055D01*
X97940610Y-51241133D01*
X97940610Y-50858867D01*
X97866034Y-50483945D01*
X97719746Y-50130776D01*
X97624056Y-49987565D01*
X98274040Y-49987565D01*
X98341020Y-50227656D01*
X98590048Y-50344756D01*
X98857135Y-50411023D01*
X99132017Y-50423910D01*
X99404133Y-50382922D01*
X99663023Y-50289636D01*
X99778980Y-50227656D01*
X99845960Y-49987565D01*
X99060000Y-49201605D01*
X98274040Y-49987565D01*
X97624056Y-49987565D01*
X97507370Y-49812933D01*
X97237067Y-49542630D01*
X96919224Y-49330254D01*
X96566055Y-49183966D01*
X96191133Y-49109390D01*
X95808867Y-49109390D01*
X95433945Y-49183966D01*
X95080776Y-49330254D01*
X94762933Y-49542630D01*
X94492630Y-49812933D01*
X94280254Y-50130776D01*
X94133966Y-50483945D01*
X94059390Y-50858867D01*
X93806905Y-50858867D01*
X93806905Y-49094017D01*
X97658090Y-49094017D01*
X97699078Y-49366133D01*
X97792364Y-49625023D01*
X97854344Y-49740980D01*
X98094435Y-49807960D01*
X98880395Y-49022000D01*
X99239605Y-49022000D01*
X100025565Y-49807960D01*
X100265656Y-49740980D01*
X100382756Y-49491952D01*
X100449023Y-49224865D01*
X100461910Y-48949983D01*
X100420922Y-48677867D01*
X100327636Y-48418977D01*
X100265656Y-48303020D01*
X100025565Y-48236040D01*
X99239605Y-49022000D01*
X98880395Y-49022000D01*
X98094435Y-48236040D01*
X97854344Y-48303020D01*
X97737244Y-48552048D01*
X97670977Y-48819135D01*
X97658090Y-49094017D01*
X93806905Y-49094017D01*
X93806905Y-47447565D01*
X98274040Y-47447565D01*
X98341020Y-47687656D01*
X98471644Y-47749079D01*
X98456977Y-47754364D01*
X98341020Y-47816344D01*
X98274040Y-48056435D01*
X99060000Y-48842395D01*
X99845960Y-48056435D01*
X99778980Y-47816344D01*
X99648356Y-47754921D01*
X99663023Y-47749636D01*
X99778980Y-47687656D01*
X99845960Y-47447565D01*
X99060000Y-46661605D01*
X98274040Y-47447565D01*
X93806905Y-47447565D01*
X93806905Y-46831000D01*
X83413095Y-46831000D01*
X81870765Y-46831000D01*
X81907023Y-46684865D01*
X81913157Y-46554017D01*
X97658090Y-46554017D01*
X97699078Y-46826133D01*
X97792364Y-47085023D01*
X97854344Y-47200980D01*
X98094435Y-47267960D01*
X98880395Y-46482000D01*
X98094435Y-45696040D01*
X97854344Y-45763020D01*
X97737244Y-46012048D01*
X97670977Y-46279135D01*
X97658090Y-46554017D01*
X81913157Y-46554017D01*
X81919910Y-46409983D01*
X81878922Y-46137867D01*
X81785636Y-45878977D01*
X81723656Y-45763020D01*
X81483565Y-45696040D01*
X80697605Y-46482000D01*
X80338395Y-46482000D01*
X79552435Y-45696040D01*
X79312344Y-45763020D01*
X79195244Y-46012048D01*
X79128977Y-46279135D01*
X79116090Y-46554017D01*
X59034755Y-46554017D01*
X59079774Y-46523937D01*
X59223937Y-46379774D01*
X59249800Y-46341068D01*
X59498867Y-46390610D01*
X59881133Y-46390610D01*
X60256055Y-46316034D01*
X60609224Y-46169746D01*
X60927067Y-45957370D01*
X61197370Y-45687067D01*
X61311382Y-45516435D01*
X79732040Y-45516435D01*
X80518000Y-46302395D01*
X81303960Y-45516435D01*
X81236980Y-45276344D01*
X80987952Y-45159244D01*
X80720865Y-45092977D01*
X80445983Y-45080090D01*
X80173867Y-45121078D01*
X79914977Y-45214364D01*
X79799020Y-45276344D01*
X79732040Y-45516435D01*
X61311382Y-45516435D01*
X61409746Y-45369224D01*
X61556034Y-45016055D01*
X61630610Y-44641133D01*
X61630610Y-44258867D01*
X61556034Y-43883945D01*
X61409746Y-43530776D01*
X61197370Y-43212933D01*
X60927067Y-42942630D01*
X60609224Y-42730254D01*
X60256055Y-42583966D01*
X60185843Y-42570000D01*
X99834157Y-42570000D01*
X99763945Y-42583966D01*
G37*
X99763945Y-42583966D02*
X99410776Y-42730254D01*
X99092933Y-42942630D01*
X98822630Y-43212933D01*
X98610254Y-43530776D01*
X98463966Y-43883945D01*
X98389390Y-44258867D01*
X98389390Y-44641133D01*
X98463966Y-45016055D01*
X98534533Y-45186418D01*
X98456977Y-45214364D01*
X98341020Y-45276344D01*
X98274040Y-45516435D01*
X99060000Y-46302395D01*
X99074143Y-46288253D01*
X99253748Y-46467858D01*
X99239605Y-46482000D01*
X100025565Y-47267960D01*
X100265656Y-47200980D01*
X100382756Y-46951952D01*
X100449023Y-46684865D01*
X100461910Y-46409983D01*
X100458992Y-46390610D01*
X100521133Y-46390610D01*
X100896055Y-46316034D01*
X101249224Y-46169746D01*
X101567067Y-45957370D01*
X101837370Y-45687067D01*
X102049746Y-45369224D01*
X102196034Y-45016055D01*
X102210001Y-44945838D01*
X102210000Y-93484157D01*
X102196034Y-93413945D01*
X102049746Y-93060776D01*
X101837370Y-92742933D01*
X101567067Y-92472630D01*
X101249224Y-92260254D01*
X100896055Y-92113966D01*
X100521133Y-92039390D01*
X100138867Y-92039390D01*
X99763945Y-92113966D01*
X99410776Y-92260254D01*
X99092933Y-92472630D01*
X98822630Y-92742933D01*
X98610254Y-93060776D01*
X98463966Y-93413945D01*
X98389390Y-93788867D01*
X98389390Y-94171133D01*
X98463966Y-94546055D01*
X98610254Y-94899224D01*
X98822630Y-95217067D01*
X99092933Y-95487370D01*
X99410776Y-95699746D01*
X99763945Y-95846034D01*
X99834157Y-95860000D01*
X60185843Y-95860000D01*
X60256055Y-95846034D01*
X60609224Y-95699746D01*
X60927067Y-95487370D01*
X61197370Y-95217067D01*
X61409746Y-94899224D01*
X61556034Y-94546055D01*
X61630610Y-94171133D01*
X61630610Y-93788867D01*
X61556034Y-93413945D01*
X61409746Y-93060776D01*
X61197370Y-92742933D01*
X60927067Y-92472630D01*
X60609224Y-92260254D01*
X60256055Y-92113966D01*
X59881133Y-92039390D01*
X59498867Y-92039390D01*
X59123945Y-92113966D01*
X58770776Y-92260254D01*
X58452933Y-92472630D01*
X58182630Y-92742933D01*
X57970254Y-93060776D01*
X57823966Y-93413945D01*
X57810000Y-93484157D01*
X57810000Y-62088665D01*
X59525000Y-62088665D01*
X59525000Y-62371335D01*
X59580147Y-62648574D01*
X59688320Y-62909727D01*
X59845363Y-63144759D01*
X60045241Y-63344637D01*
X60277759Y-63500000D01*
X60045241Y-63655363D01*
X59845363Y-63855241D01*
X59688320Y-64090273D01*
X59580147Y-64351426D01*
X59525000Y-64628665D01*
X59525000Y-64911335D01*
X59580147Y-65188574D01*
X59688320Y-65449727D01*
X59845363Y-65684759D01*
X60045241Y-65884637D01*
X60277759Y-66040000D01*
X60045241Y-66195363D01*
X59845363Y-66395241D01*
X59688320Y-66630273D01*
X59580147Y-66891426D01*
X59525000Y-67168665D01*
X59525000Y-67451335D01*
X59580147Y-67728574D01*
X59688320Y-67989727D01*
X59845363Y-68224759D01*
X60045241Y-68424637D01*
X60277759Y-68580000D01*
X60045241Y-68735363D01*
X59845363Y-68935241D01*
X59688320Y-69170273D01*
X59580147Y-69431426D01*
X59525000Y-69708665D01*
X59525000Y-69991335D01*
X59580147Y-70268574D01*
X59688320Y-70529727D01*
X59845363Y-70764759D01*
X60045241Y-70964637D01*
X60277759Y-71120000D01*
X60045241Y-71275363D01*
X59845363Y-71475241D01*
X59688320Y-71710273D01*
X59580147Y-71971426D01*
X59525000Y-72248665D01*
X59525000Y-72531335D01*
X59580147Y-72808574D01*
X59688320Y-73069727D01*
X59845363Y-73304759D01*
X60045241Y-73504637D01*
X60277759Y-73660000D01*
X60045241Y-73815363D01*
X59845363Y-74015241D01*
X59688320Y-74250273D01*
X59580147Y-74511426D01*
X59525000Y-74788665D01*
X59525000Y-75071335D01*
X59580147Y-75348574D01*
X59688320Y-75609727D01*
X59845363Y-75844759D01*
X60045241Y-76044637D01*
X60277759Y-76200000D01*
X60045241Y-76355363D01*
X59845363Y-76555241D01*
X59688320Y-76790273D01*
X59580147Y-77051426D01*
X59525000Y-77328665D01*
X59525000Y-77611335D01*
X59580147Y-77888574D01*
X59688320Y-78149727D01*
X59845363Y-78384759D01*
X60045241Y-78584637D01*
X60277759Y-78740000D01*
X60045241Y-78895363D01*
X59845363Y-79095241D01*
X59688320Y-79330273D01*
X59580147Y-79591426D01*
X59525000Y-79868665D01*
X59525000Y-80151335D01*
X59580147Y-80428574D01*
X59688320Y-80689727D01*
X59845363Y-80924759D01*
X60045241Y-81124637D01*
X60277759Y-81280000D01*
X60045241Y-81435363D01*
X59845363Y-81635241D01*
X59688320Y-81870273D01*
X59580147Y-82131426D01*
X59525000Y-82408665D01*
X59525000Y-82691335D01*
X59580147Y-82968574D01*
X59688320Y-83229727D01*
X59845363Y-83464759D01*
X60045241Y-83664637D01*
X60277759Y-83820000D01*
X60045241Y-83975363D01*
X59845363Y-84175241D01*
X59688320Y-84410273D01*
X59580147Y-84671426D01*
X59525000Y-84948665D01*
X59525000Y-85231335D01*
X59580147Y-85508574D01*
X59688320Y-85769727D01*
X59845363Y-86004759D01*
X60045241Y-86204637D01*
X60277759Y-86360000D01*
X60045241Y-86515363D01*
X59845363Y-86715241D01*
X59688320Y-86950273D01*
X59580147Y-87211426D01*
X59525000Y-87488665D01*
X59525000Y-87771335D01*
X59580147Y-88048574D01*
X59688320Y-88309727D01*
X59845363Y-88544759D01*
X60045241Y-88744637D01*
X60280273Y-88901680D01*
X60541426Y-89009853D01*
X60818665Y-89065000D01*
X61101335Y-89065000D01*
X61378574Y-89009853D01*
X61639727Y-88901680D01*
X61874759Y-88744637D01*
X62074637Y-88544759D01*
X62221474Y-88325000D01*
X62893572Y-88325000D01*
X62893572Y-94695000D01*
X71606429Y-94695000D01*
X71606429Y-92452223D01*
X82015000Y-92452223D01*
X82015000Y-92807777D01*
X82084365Y-93156499D01*
X82220429Y-93484988D01*
X82417965Y-93780621D01*
X82669379Y-94032035D01*
X82965012Y-94229571D01*
X83293501Y-94365635D01*
X83642223Y-94435000D01*
X83997777Y-94435000D01*
X84346499Y-94365635D01*
X84674988Y-94229571D01*
X84970621Y-94032035D01*
X85222035Y-93780621D01*
X85419571Y-93484988D01*
X85555635Y-93156499D01*
X85625000Y-92807777D01*
X85625000Y-92452223D01*
X85555635Y-92103501D01*
X85419571Y-91775012D01*
X85222035Y-91479379D01*
X84970621Y-91227965D01*
X84674988Y-91030429D01*
X84346499Y-90894365D01*
X83997777Y-90825000D01*
X83642223Y-90825000D01*
X83293501Y-90894365D01*
X82965012Y-91030429D01*
X82669379Y-91227965D01*
X82417965Y-91479379D01*
X82220429Y-91775012D01*
X82084365Y-92103501D01*
X82015000Y-92452223D01*
X71606429Y-92452223D01*
X71606429Y-88325000D01*
X62893572Y-88325000D01*
X62221474Y-88325000D01*
X62231680Y-88309727D01*
X62339853Y-88048574D01*
X62395000Y-87771335D01*
X62395000Y-87488665D01*
X62376286Y-87394582D01*
X62379437Y-87391431D01*
X62379441Y-87391426D01*
X64153442Y-85617427D01*
X64185301Y-85591281D01*
X64214137Y-85556145D01*
X64289646Y-85464136D01*
X64367182Y-85319077D01*
X64414928Y-85161679D01*
X64431050Y-84997990D01*
X64427010Y-84956972D01*
X64427010Y-71530537D01*
X64453966Y-71666055D01*
X64600254Y-72019224D01*
X64812630Y-72337067D01*
X65082933Y-72607370D01*
X65400776Y-72819746D01*
X65753945Y-72966034D01*
X66128867Y-73040610D01*
X66511133Y-73040610D01*
X66886055Y-72966034D01*
X67239224Y-72819746D01*
X67557067Y-72607370D01*
X67827370Y-72337067D01*
X68039746Y-72019224D01*
X68186034Y-71666055D01*
X68260610Y-71291133D01*
X68260610Y-70908867D01*
X68186034Y-70533945D01*
X68039746Y-70180776D01*
X67827370Y-69862933D01*
X67557067Y-69592630D01*
X67239224Y-69380254D01*
X66886055Y-69233966D01*
X66511133Y-69159390D01*
X66128867Y-69159390D01*
X65753945Y-69233966D01*
X65400776Y-69380254D01*
X65082933Y-69592630D01*
X64812630Y-69862933D01*
X64600254Y-70180776D01*
X64453966Y-70533945D01*
X64427010Y-70669463D01*
X64427010Y-69849857D01*
X67521427Y-66755441D01*
X67553291Y-66729291D01*
X67657636Y-66602146D01*
X67735172Y-66457087D01*
X67782918Y-66299689D01*
X67795000Y-66177019D01*
X67799040Y-66136001D01*
X67795000Y-66094982D01*
X67795000Y-62171018D01*
X67799040Y-62130000D01*
X67782918Y-61966311D01*
X67735172Y-61808913D01*
X67657636Y-61663854D01*
X67579439Y-61568570D01*
X67579437Y-61568568D01*
X67553291Y-61536709D01*
X67521433Y-61510564D01*
X66665415Y-60654547D01*
X66729000Y-60334883D01*
X66729000Y-59993117D01*
X66662325Y-59657919D01*
X66531537Y-59342169D01*
X66341663Y-59058002D01*
X66177661Y-58894000D01*
X66341663Y-58729998D01*
X66531537Y-58445831D01*
X66662325Y-58130081D01*
X66729000Y-57794883D01*
X66729000Y-57453117D01*
X66662325Y-57117919D01*
X66617071Y-57008665D01*
X74765000Y-57008665D01*
X74765000Y-57291335D01*
X74820147Y-57568574D01*
X74928320Y-57829727D01*
X75085363Y-58064759D01*
X75285241Y-58264637D01*
X75517759Y-58420000D01*
X75285241Y-58575363D01*
X75085363Y-58775241D01*
X74928320Y-59010273D01*
X74820147Y-59271426D01*
X74765000Y-59548665D01*
X74765000Y-59831335D01*
X74820147Y-60108574D01*
X74928320Y-60369727D01*
X75085363Y-60604759D01*
X75285241Y-60804637D01*
X75517759Y-60960000D01*
X75285241Y-61115363D01*
X75085363Y-61315241D01*
X74928320Y-61550273D01*
X74820147Y-61811426D01*
X74765000Y-62088665D01*
X74765000Y-62371335D01*
X74820147Y-62648574D01*
X74928320Y-62909727D01*
X75085363Y-63144759D01*
X75285241Y-63344637D01*
X75517759Y-63500000D01*
X75285241Y-63655363D01*
X75085363Y-63855241D01*
X74928320Y-64090273D01*
X74820147Y-64351426D01*
X74765000Y-64628665D01*
X74765000Y-64911335D01*
X74820147Y-65188574D01*
X74928320Y-65449727D01*
X75085363Y-65684759D01*
X75285241Y-65884637D01*
X75517759Y-66040000D01*
X75285241Y-66195363D01*
X75085363Y-66395241D01*
X74928320Y-66630273D01*
X74820147Y-66891426D01*
X74765000Y-67168665D01*
X74765000Y-67451335D01*
X74820147Y-67728574D01*
X74928320Y-67989727D01*
X75085363Y-68224759D01*
X75285241Y-68424637D01*
X75517759Y-68580000D01*
X75285241Y-68735363D01*
X75085363Y-68935241D01*
X74928320Y-69170273D01*
X74820147Y-69431426D01*
X74765000Y-69708665D01*
X74765000Y-69991335D01*
X74820147Y-70268574D01*
X74928320Y-70529727D01*
X75085363Y-70764759D01*
X75285241Y-70964637D01*
X75517759Y-71120000D01*
X75285241Y-71275363D01*
X75085363Y-71475241D01*
X74928320Y-71710273D01*
X74820147Y-71971426D01*
X74765000Y-72248665D01*
X74765000Y-72531335D01*
X74820147Y-72808574D01*
X74928320Y-73069727D01*
X75085363Y-73304759D01*
X75285241Y-73504637D01*
X75517759Y-73660000D01*
X75285241Y-73815363D01*
X75085363Y-74015241D01*
X74928320Y-74250273D01*
X74820147Y-74511426D01*
X74765000Y-74788665D01*
X74765000Y-75071335D01*
X74820147Y-75348574D01*
X74928320Y-75609727D01*
X75085363Y-75844759D01*
X75285241Y-76044637D01*
X75517759Y-76200000D01*
X75285241Y-76355363D01*
X75085363Y-76555241D01*
X74928320Y-76790273D01*
X74820147Y-77051426D01*
X74765000Y-77328665D01*
X74765000Y-77611335D01*
X74820147Y-77888574D01*
X74928320Y-78149727D01*
X75085363Y-78384759D01*
X75285241Y-78584637D01*
X75517759Y-78740000D01*
X75285241Y-78895363D01*
X75085363Y-79095241D01*
X74928320Y-79330273D01*
X74820147Y-79591426D01*
X74765000Y-79868665D01*
X74765000Y-80151335D01*
X74820147Y-80428574D01*
X74928320Y-80689727D01*
X75085363Y-80924759D01*
X75285241Y-81124637D01*
X75517759Y-81280000D01*
X75285241Y-81435363D01*
X75085363Y-81635241D01*
X74928320Y-81870273D01*
X74820147Y-82131426D01*
X74765000Y-82408665D01*
X74765000Y-82691335D01*
X74820147Y-82968574D01*
X74928320Y-83229727D01*
X75085363Y-83464759D01*
X75285241Y-83664637D01*
X75517759Y-83820000D01*
X75285241Y-83975363D01*
X75085363Y-84175241D01*
X74928320Y-84410273D01*
X74820147Y-84671426D01*
X74765000Y-84948665D01*
X74765000Y-85231335D01*
X74820147Y-85508574D01*
X74928320Y-85769727D01*
X75085363Y-86004759D01*
X75285241Y-86204637D01*
X75517759Y-86360000D01*
X75285241Y-86515363D01*
X75085363Y-86715241D01*
X74928320Y-86950273D01*
X74820147Y-87211426D01*
X74765000Y-87488665D01*
X74765000Y-87771335D01*
X74820147Y-88048574D01*
X74928320Y-88309727D01*
X75085363Y-88544759D01*
X75285241Y-88744637D01*
X75520273Y-88901680D01*
X75781426Y-89009853D01*
X76058665Y-89065000D01*
X76341335Y-89065000D01*
X76618574Y-89009853D01*
X76879727Y-88901680D01*
X77114759Y-88744637D01*
X77314637Y-88544759D01*
X77367930Y-88465000D01*
X80226980Y-88465000D01*
X80267998Y-88469040D01*
X80309016Y-88465000D01*
X80309017Y-88465000D01*
X80431687Y-88452918D01*
X80589085Y-88405172D01*
X80734144Y-88327636D01*
X80861289Y-88223291D01*
X80887444Y-88191421D01*
X81185720Y-87893145D01*
X81286261Y-88398601D01*
X81484893Y-88878141D01*
X81773262Y-89309715D01*
X82140285Y-89676738D01*
X82571859Y-89965107D01*
X83051399Y-90163739D01*
X83560475Y-90265000D01*
X84079525Y-90265000D01*
X84554736Y-90170475D01*
X90225000Y-90170475D01*
X90225000Y-90689525D01*
X90326261Y-91198601D01*
X90524893Y-91678141D01*
X90813262Y-92109715D01*
X91180285Y-92476738D01*
X91611859Y-92765107D01*
X92091399Y-92963739D01*
X92600475Y-93065000D01*
X93119525Y-93065000D01*
X93628601Y-92963739D01*
X94108141Y-92765107D01*
X94539715Y-92476738D01*
X94906738Y-92109715D01*
X95195107Y-91678141D01*
X95393739Y-91198601D01*
X95495000Y-90689525D01*
X95495000Y-90170475D01*
X95393739Y-89661399D01*
X95195107Y-89181859D01*
X94906738Y-88750285D01*
X94539715Y-88383262D01*
X94108141Y-88094893D01*
X93628601Y-87896261D01*
X93119525Y-87795000D01*
X92600475Y-87795000D01*
X92091399Y-87896261D01*
X91611859Y-88094893D01*
X91180285Y-88383262D01*
X90813262Y-88750285D01*
X90524893Y-89181859D01*
X90326261Y-89661399D01*
X90225000Y-90170475D01*
X84554736Y-90170475D01*
X84588601Y-90163739D01*
X85068141Y-89965107D01*
X85499715Y-89676738D01*
X85866738Y-89309715D01*
X86155107Y-88878141D01*
X86353739Y-88398601D01*
X86455000Y-87889525D01*
X86455000Y-87370475D01*
X86353739Y-86861399D01*
X86155107Y-86381859D01*
X85866738Y-85950285D01*
X85499715Y-85583262D01*
X85068141Y-85294893D01*
X84588601Y-85096261D01*
X84083146Y-84995720D01*
X84381427Y-84697439D01*
X84413291Y-84671289D01*
X84517636Y-84544144D01*
X84595172Y-84399085D01*
X84642918Y-84241687D01*
X84655000Y-84119017D01*
X84655000Y-84119007D01*
X84659039Y-84077999D01*
X84655000Y-84036991D01*
X84655000Y-83327028D01*
X84720429Y-83484988D01*
X84917965Y-83780621D01*
X85169379Y-84032035D01*
X85465012Y-84229571D01*
X85793501Y-84365635D01*
X86142223Y-84435000D01*
X86497777Y-84435000D01*
X86846499Y-84365635D01*
X86866488Y-84357356D01*
X86928569Y-84419437D01*
X86928575Y-84419442D01*
X87340553Y-84831420D01*
X87366708Y-84863290D01*
X87493853Y-84967635D01*
X87638912Y-85045171D01*
X87796310Y-85092917D01*
X87918980Y-85104999D01*
X87918990Y-85104999D01*
X87959998Y-85109038D01*
X88001006Y-85104999D01*
X90598983Y-85104999D01*
X90640001Y-85109039D01*
X90681019Y-85104999D01*
X90681020Y-85104999D01*
X90803690Y-85092917D01*
X90961088Y-85045171D01*
X91106147Y-84967635D01*
X91205137Y-84886396D01*
X91298665Y-84905000D01*
X91581335Y-84905000D01*
X91858574Y-84849853D01*
X92119727Y-84741680D01*
X92354759Y-84584637D01*
X92554637Y-84384759D01*
X92711680Y-84149727D01*
X92819853Y-83888574D01*
X92875000Y-83611335D01*
X92875000Y-83328665D01*
X92825080Y-83077702D01*
X93466903Y-83077702D01*
X93538486Y-83321671D01*
X93793996Y-83442571D01*
X94068184Y-83511300D01*
X94350512Y-83525217D01*
X94630130Y-83483787D01*
X94896292Y-83388603D01*
X95021514Y-83321671D01*
X95093097Y-83077702D01*
X94280000Y-82264605D01*
X93466903Y-83077702D01*
X92825080Y-83077702D01*
X92819853Y-83051426D01*
X92711680Y-82790273D01*
X92554637Y-82555241D01*
X92354759Y-82355363D01*
X92119727Y-82198320D01*
X92016380Y-82155512D01*
X92839783Y-82155512D01*
X92881213Y-82435130D01*
X92976397Y-82701292D01*
X93043329Y-82826514D01*
X93287298Y-82898097D01*
X94100395Y-82085000D01*
X94459605Y-82085000D01*
X95272702Y-82898097D01*
X95516671Y-82826514D01*
X95637571Y-82571004D01*
X95706300Y-82296816D01*
X95720217Y-82014488D01*
X95678787Y-81734870D01*
X95583603Y-81468708D01*
X95516671Y-81343486D01*
X95272702Y-81271903D01*
X94459605Y-82085000D01*
X94100395Y-82085000D01*
X93287298Y-81271903D01*
X93043329Y-81343486D01*
X92922429Y-81598996D01*
X92853700Y-81873184D01*
X92839783Y-82155512D01*
X92016380Y-82155512D01*
X91858574Y-82090147D01*
X91832699Y-82085000D01*
X91858574Y-82079853D01*
X92119727Y-81971680D01*
X92354759Y-81814637D01*
X92554637Y-81614759D01*
X92711680Y-81379727D01*
X92819853Y-81118574D01*
X92875000Y-80841335D01*
X92875000Y-80558665D01*
X92819853Y-80281426D01*
X92711680Y-80020273D01*
X92554637Y-79785241D01*
X92354759Y-79585363D01*
X92119727Y-79428320D01*
X91858574Y-79320147D01*
X91832699Y-79315000D01*
X91858574Y-79309853D01*
X92119727Y-79201680D01*
X92354759Y-79044637D01*
X92554637Y-78844759D01*
X92711680Y-78609727D01*
X92819853Y-78348574D01*
X92875000Y-78071335D01*
X92875000Y-77788665D01*
X92819853Y-77511426D01*
X92711680Y-77250273D01*
X92554637Y-77015241D01*
X92354759Y-76815363D01*
X92119727Y-76658320D01*
X91858574Y-76550147D01*
X91832699Y-76545000D01*
X91858574Y-76539853D01*
X92119727Y-76431680D01*
X92354759Y-76274637D01*
X92554637Y-76074759D01*
X92711680Y-75839727D01*
X92819853Y-75578574D01*
X92875000Y-75301335D01*
X92875000Y-75018665D01*
X92819853Y-74741426D01*
X92711680Y-74480273D01*
X92554637Y-74245241D01*
X92354759Y-74045363D01*
X92119727Y-73888320D01*
X91974275Y-73828072D01*
X92240000Y-73828072D01*
X92364482Y-73815812D01*
X92484180Y-73779502D01*
X92594494Y-73720537D01*
X92691185Y-73641185D01*
X92770537Y-73544494D01*
X92808655Y-73473181D01*
X92863604Y-73540137D01*
X92845000Y-73633665D01*
X92845000Y-73916335D01*
X92900147Y-74193574D01*
X93008320Y-74454727D01*
X93165363Y-74689759D01*
X93365241Y-74889637D01*
X93600273Y-75046680D01*
X93861426Y-75154853D01*
X93887301Y-75160000D01*
X93861426Y-75165147D01*
X93600273Y-75273320D01*
X93365241Y-75430363D01*
X93165363Y-75630241D01*
X93008320Y-75865273D01*
X92900147Y-76126426D01*
X92845000Y-76403665D01*
X92845000Y-76686335D01*
X92900147Y-76963574D01*
X93008320Y-77224727D01*
X93165363Y-77459759D01*
X93365241Y-77659637D01*
X93600273Y-77816680D01*
X93861426Y-77924853D01*
X93887301Y-77930000D01*
X93861426Y-77935147D01*
X93600273Y-78043320D01*
X93365241Y-78200363D01*
X93165363Y-78400241D01*
X93008320Y-78635273D01*
X92900147Y-78896426D01*
X92845000Y-79173665D01*
X92845000Y-79456335D01*
X92900147Y-79733574D01*
X93008320Y-79994727D01*
X93165363Y-80229759D01*
X93365241Y-80429637D01*
X93600273Y-80586680D01*
X93861426Y-80694853D01*
X93889882Y-80700513D01*
X93663708Y-80781397D01*
X93538486Y-80848329D01*
X93466903Y-81092298D01*
X94280000Y-81905395D01*
X95093097Y-81092298D01*
X95021514Y-80848329D01*
X94766004Y-80727429D01*
X94663711Y-80701788D01*
X94698574Y-80694853D01*
X94959727Y-80586680D01*
X95194759Y-80429637D01*
X95394637Y-80229759D01*
X95551680Y-79994727D01*
X95659853Y-79733574D01*
X95715000Y-79456335D01*
X95715000Y-79173665D01*
X95659853Y-78896426D01*
X95551680Y-78635273D01*
X95394637Y-78400241D01*
X95194759Y-78200363D01*
X94959727Y-78043320D01*
X94698574Y-77935147D01*
X94672699Y-77930000D01*
X94698574Y-77924853D01*
X94959727Y-77816680D01*
X95194759Y-77659637D01*
X95274396Y-77580000D01*
X96124172Y-77580000D01*
X96175000Y-77585006D01*
X96225828Y-77580000D01*
X96225838Y-77580000D01*
X96377895Y-77565024D01*
X96572993Y-77505841D01*
X96752797Y-77409734D01*
X96910396Y-77280396D01*
X96942807Y-77240903D01*
X99755908Y-74427803D01*
X99795396Y-74395396D01*
X99843559Y-74336709D01*
X99924734Y-74237798D01*
X100020840Y-74057994D01*
X100020841Y-74057993D01*
X100080024Y-73862895D01*
X100095000Y-73710838D01*
X100095000Y-73710829D01*
X100100006Y-73660001D01*
X100095000Y-73609173D01*
X100095000Y-60630655D01*
X100145120Y-60580535D01*
X100298005Y-60351727D01*
X100403314Y-60097490D01*
X100457000Y-59827592D01*
X100457000Y-59552408D01*
X100403314Y-59282510D01*
X100298005Y-59028273D01*
X100145120Y-58799465D01*
X99950535Y-58604880D01*
X99721727Y-58451995D01*
X99644485Y-58420000D01*
X99721727Y-58388005D01*
X99950535Y-58235120D01*
X100145120Y-58040535D01*
X100298005Y-57811727D01*
X100403314Y-57557490D01*
X100457000Y-57287592D01*
X100457000Y-57012408D01*
X100403314Y-56742510D01*
X100298005Y-56488273D01*
X100145120Y-56259465D01*
X99950535Y-56064880D01*
X99721727Y-55911995D01*
X99467490Y-55806686D01*
X99197592Y-55753000D01*
X98922408Y-55753000D01*
X98652510Y-55806686D01*
X98398273Y-55911995D01*
X98169465Y-56064880D01*
X97974880Y-56259465D01*
X97821995Y-56488273D01*
X97716686Y-56742510D01*
X97663000Y-57012408D01*
X97663000Y-57287592D01*
X97716686Y-57557490D01*
X97821995Y-57811727D01*
X97974880Y-58040535D01*
X98169465Y-58235120D01*
X98398273Y-58388005D01*
X98475515Y-58420000D01*
X98398273Y-58451995D01*
X98169465Y-58604880D01*
X97974880Y-58799465D01*
X97821995Y-59028273D01*
X97716686Y-59282510D01*
X97663000Y-59552408D01*
X97663000Y-59827592D01*
X97716686Y-60097490D01*
X97821995Y-60351727D01*
X97974880Y-60580535D01*
X98025000Y-60630655D01*
X98025001Y-73231288D01*
X95746290Y-75510000D01*
X95274396Y-75510000D01*
X95194759Y-75430363D01*
X94959727Y-75273320D01*
X94698574Y-75165147D01*
X94672699Y-75160000D01*
X94698574Y-75154853D01*
X94959727Y-75046680D01*
X95194759Y-74889637D01*
X95394637Y-74689759D01*
X95551680Y-74454727D01*
X95659853Y-74193574D01*
X95715000Y-73916335D01*
X95715000Y-73633665D01*
X95659853Y-73356426D01*
X95551680Y-73095273D01*
X95508665Y-73030897D01*
X95808867Y-73090610D01*
X96191133Y-73090610D01*
X96566055Y-73016034D01*
X96919224Y-72869746D01*
X97237067Y-72657370D01*
X97507370Y-72387067D01*
X97719746Y-72069224D01*
X97866034Y-71716055D01*
X97940610Y-71341133D01*
X97940610Y-70958867D01*
X97866034Y-70583945D01*
X97719746Y-70230776D01*
X97507370Y-69912933D01*
X97237067Y-69642630D01*
X96919224Y-69430254D01*
X96566055Y-69283966D01*
X96191133Y-69209390D01*
X95808867Y-69209390D01*
X95433945Y-69283966D01*
X95080776Y-69430254D01*
X94762933Y-69642630D01*
X94492630Y-69912933D01*
X94280254Y-70230776D01*
X94133966Y-70583945D01*
X94059390Y-70958867D01*
X94059390Y-71341133D01*
X94101039Y-71550518D01*
X94073292Y-71516708D01*
X94041428Y-71490558D01*
X87721345Y-65170475D01*
X90225000Y-65170475D01*
X90225000Y-65689525D01*
X90326261Y-66198601D01*
X90524893Y-66678141D01*
X90813262Y-67109715D01*
X91180285Y-67476738D01*
X91611859Y-67765107D01*
X92091399Y-67963739D01*
X92600475Y-68065000D01*
X93119525Y-68065000D01*
X93628601Y-67963739D01*
X94108141Y-67765107D01*
X94539715Y-67476738D01*
X94906738Y-67109715D01*
X95195107Y-66678141D01*
X95393739Y-66198601D01*
X95495000Y-65689525D01*
X95495000Y-65170475D01*
X95393739Y-64661399D01*
X95195107Y-64181859D01*
X94906738Y-63750285D01*
X94539715Y-63383262D01*
X94108141Y-63094893D01*
X93628601Y-62896261D01*
X93119525Y-62795000D01*
X92600475Y-62795000D01*
X92091399Y-62896261D01*
X91611859Y-63094893D01*
X91180285Y-63383262D01*
X90813262Y-63750285D01*
X90524893Y-64181859D01*
X90326261Y-64661399D01*
X90225000Y-65170475D01*
X87721345Y-65170475D01*
X86759448Y-64208579D01*
X86733293Y-64176709D01*
X86606148Y-64072364D01*
X86461089Y-63994828D01*
X86303691Y-63947082D01*
X86181021Y-63935000D01*
X86181020Y-63935000D01*
X86140002Y-63930960D01*
X86098984Y-63935000D01*
X77367930Y-63935000D01*
X77314637Y-63855241D01*
X77114759Y-63655363D01*
X76882241Y-63500000D01*
X77114759Y-63344637D01*
X77314637Y-63144759D01*
X77471680Y-62909727D01*
X77579853Y-62648574D01*
X77635000Y-62371335D01*
X77635000Y-62088665D01*
X77579853Y-61811426D01*
X77471680Y-61550273D01*
X77314637Y-61315241D01*
X77114759Y-61115363D01*
X76882241Y-60960000D01*
X77114759Y-60804637D01*
X77314637Y-60604759D01*
X77471680Y-60369727D01*
X77579853Y-60108574D01*
X77635000Y-59831335D01*
X77635000Y-59548665D01*
X77579853Y-59271426D01*
X77471680Y-59010273D01*
X77314637Y-58775241D01*
X77114759Y-58575363D01*
X76882241Y-58420000D01*
X77114759Y-58264637D01*
X77314637Y-58064759D01*
X77471680Y-57829727D01*
X77579853Y-57568574D01*
X77635000Y-57291335D01*
X77635000Y-57008665D01*
X77579853Y-56731426D01*
X77471680Y-56470273D01*
X77314637Y-56235241D01*
X77114759Y-56035363D01*
X76879727Y-55878320D01*
X76869135Y-55873933D01*
X77055131Y-55762385D01*
X77263519Y-55573414D01*
X77431037Y-55347420D01*
X77551246Y-55093087D01*
X77591904Y-54959039D01*
X77469915Y-54737000D01*
X76327000Y-54737000D01*
X76327000Y-54757000D01*
X76073000Y-54757000D01*
X76073000Y-54737000D01*
X74930085Y-54737000D01*
X74808096Y-54959039D01*
X74848754Y-55093087D01*
X74968963Y-55347420D01*
X75136481Y-55573414D01*
X75344869Y-55762385D01*
X75530865Y-55873933D01*
X75520273Y-55878320D01*
X75285241Y-56035363D01*
X75085363Y-56235241D01*
X74928320Y-56470273D01*
X74820147Y-56731426D01*
X74765000Y-57008665D01*
X66617071Y-57008665D01*
X66531537Y-56802169D01*
X66341663Y-56518002D01*
X66099998Y-56276337D01*
X65815831Y-56086463D01*
X65500081Y-55955675D01*
X65164883Y-55889000D01*
X64823117Y-55889000D01*
X64487919Y-55955675D01*
X64172169Y-56086463D01*
X63888002Y-56276337D01*
X63646337Y-56518002D01*
X63456463Y-56802169D01*
X63325675Y-57117919D01*
X63259000Y-57453117D01*
X63259000Y-57794883D01*
X63325675Y-58130081D01*
X63456463Y-58445831D01*
X63646337Y-58729998D01*
X63810339Y-58894000D01*
X63646337Y-59058002D01*
X63456463Y-59342169D01*
X63325675Y-59657919D01*
X63259000Y-59993117D01*
X63259000Y-60334883D01*
X63325675Y-60670081D01*
X63456463Y-60985831D01*
X63646337Y-61269998D01*
X63810339Y-61434000D01*
X63646337Y-61598002D01*
X63456463Y-61882169D01*
X63325675Y-62197919D01*
X63259000Y-62533117D01*
X63259000Y-62874883D01*
X63322585Y-63194547D01*
X62430579Y-64086554D01*
X62398709Y-64112709D01*
X62294365Y-64239854D01*
X62294364Y-64239855D01*
X62293955Y-64240619D01*
X62231680Y-64090273D01*
X62074637Y-63855241D01*
X61874759Y-63655363D01*
X61642241Y-63500000D01*
X61874759Y-63344637D01*
X62074637Y-63144759D01*
X62231680Y-62909727D01*
X62339853Y-62648574D01*
X62395000Y-62371335D01*
X62395000Y-62088665D01*
X62339853Y-61811426D01*
X62231680Y-61550273D01*
X62074637Y-61315241D01*
X61874759Y-61115363D01*
X61639727Y-60958320D01*
X61629135Y-60953933D01*
X61815131Y-60842385D01*
X62023519Y-60653414D01*
X62191037Y-60427420D01*
X62311246Y-60173087D01*
X62351904Y-60039039D01*
X62229915Y-59817000D01*
X61087000Y-59817000D01*
X61087000Y-59837000D01*
X60833000Y-59837000D01*
X60833000Y-59817000D01*
X59690085Y-59817000D01*
X59568096Y-60039039D01*
X59608754Y-60173087D01*
X59728963Y-60427420D01*
X59896481Y-60653414D01*
X60104869Y-60842385D01*
X60290865Y-60953933D01*
X60280273Y-60958320D01*
X60045241Y-61115363D01*
X59845363Y-61315241D01*
X59688320Y-61550273D01*
X59580147Y-61811426D01*
X59525000Y-62088665D01*
X57810000Y-62088665D01*
X57810000Y-51270000D01*
X59521928Y-51270000D01*
X59521928Y-52870000D01*
X59534188Y-52994482D01*
X59570498Y-53114180D01*
X59629463Y-53224494D01*
X59708815Y-53321185D01*
X59805506Y-53400537D01*
X59915820Y-53459502D01*
X60035518Y-53495812D01*
X60043961Y-53496643D01*
X59845363Y-53695241D01*
X59688320Y-53930273D01*
X59580147Y-54191426D01*
X59525000Y-54468665D01*
X59525000Y-54751335D01*
X59580147Y-55028574D01*
X59688320Y-55289727D01*
X59845363Y-55524759D01*
X60045241Y-55724637D01*
X60277759Y-55880000D01*
X60045241Y-56035363D01*
X59845363Y-56235241D01*
X59688320Y-56470273D01*
X59580147Y-56731426D01*
X59525000Y-57008665D01*
X59525000Y-57291335D01*
X59580147Y-57568574D01*
X59688320Y-57829727D01*
X59845363Y-58064759D01*
X60045241Y-58264637D01*
X60280273Y-58421680D01*
X60290865Y-58426067D01*
X60104869Y-58537615D01*
X59896481Y-58726586D01*
X59728963Y-58952580D01*
X59608754Y-59206913D01*
X59568096Y-59340961D01*
X59690085Y-59563000D01*
X60833000Y-59563000D01*
X60833000Y-59543000D01*
X61087000Y-59543000D01*
X61087000Y-59563000D01*
X62229915Y-59563000D01*
X62351904Y-59340961D01*
X62311246Y-59206913D01*
X62191037Y-58952580D01*
X62023519Y-58726586D01*
X61815131Y-58537615D01*
X61629135Y-58426067D01*
X61639727Y-58421680D01*
X61874759Y-58264637D01*
X62074637Y-58064759D01*
X62231680Y-57829727D01*
X62339853Y-57568574D01*
X62395000Y-57291335D01*
X62395000Y-57008665D01*
X62339853Y-56731426D01*
X62231680Y-56470273D01*
X62074637Y-56235241D01*
X61874759Y-56035363D01*
X61642241Y-55880000D01*
X61874759Y-55724637D01*
X62074637Y-55524759D01*
X62231680Y-55289727D01*
X62339853Y-55028574D01*
X62395000Y-54751335D01*
X62395000Y-54468665D01*
X62339853Y-54191426D01*
X62231680Y-53930273D01*
X62074637Y-53695241D01*
X61876039Y-53496643D01*
X61884482Y-53495812D01*
X62004180Y-53459502D01*
X62114494Y-53400537D01*
X62211185Y-53321185D01*
X62290537Y-53224494D01*
X62349502Y-53114180D01*
X62385812Y-52994482D01*
X62398072Y-52870000D01*
X62398072Y-51270000D01*
X62385812Y-51145518D01*
X62349502Y-51025820D01*
X62290537Y-50915506D01*
X62244055Y-50858867D01*
X64359390Y-50858867D01*
X64359390Y-51241133D01*
X64433966Y-51616055D01*
X64580254Y-51969224D01*
X64792630Y-52287067D01*
X65062933Y-52557370D01*
X65380776Y-52769746D01*
X65733945Y-52916034D01*
X66108867Y-52990610D01*
X66491133Y-52990610D01*
X66866055Y-52916034D01*
X67219224Y-52769746D01*
X67537067Y-52557370D01*
X67807370Y-52287067D01*
X68019746Y-51969224D01*
X68036546Y-51928665D01*
X74765000Y-51928665D01*
X74765000Y-52211335D01*
X74820147Y-52488574D01*
X74928320Y-52749727D01*
X75085363Y-52984759D01*
X75285241Y-53184637D01*
X75520273Y-53341680D01*
X75530865Y-53346067D01*
X75344869Y-53457615D01*
X75136481Y-53646586D01*
X74968963Y-53872580D01*
X74848754Y-54126913D01*
X74808096Y-54260961D01*
X74930085Y-54483000D01*
X76073000Y-54483000D01*
X76073000Y-54463000D01*
X76327000Y-54463000D01*
X76327000Y-54483000D01*
X77469915Y-54483000D01*
X77591904Y-54260961D01*
X77551246Y-54126913D01*
X77431037Y-53872580D01*
X77263519Y-53646586D01*
X77055131Y-53457615D01*
X76869135Y-53346067D01*
X76879727Y-53341680D01*
X77114759Y-53184637D01*
X77194396Y-53105000D01*
X78311290Y-53105000D01*
X79483000Y-54276711D01*
X79483001Y-56209344D01*
X79432880Y-56259465D01*
X79279995Y-56488273D01*
X79174686Y-56742510D01*
X79121000Y-57012408D01*
X79121000Y-57287592D01*
X79174686Y-57557490D01*
X79279995Y-57811727D01*
X79432880Y-58040535D01*
X79627465Y-58235120D01*
X79856273Y-58388005D01*
X79933515Y-58420000D01*
X79856273Y-58451995D01*
X79627465Y-58604880D01*
X79432880Y-58799465D01*
X79279995Y-59028273D01*
X79174686Y-59282510D01*
X79121000Y-59552408D01*
X79121000Y-59827592D01*
X79174686Y-60097490D01*
X79279995Y-60351727D01*
X79432880Y-60580535D01*
X79627465Y-60775120D01*
X79856273Y-60928005D01*
X80110510Y-61033314D01*
X80380408Y-61087000D01*
X80655592Y-61087000D01*
X80925490Y-61033314D01*
X81179727Y-60928005D01*
X81408535Y-60775120D01*
X81603120Y-60580535D01*
X81756005Y-60351727D01*
X81861314Y-60097490D01*
X81915000Y-59827592D01*
X81915000Y-59552408D01*
X81861314Y-59282510D01*
X81756005Y-59028273D01*
X81603120Y-58799465D01*
X81408535Y-58604880D01*
X81179727Y-58451995D01*
X81102485Y-58420000D01*
X81179727Y-58388005D01*
X81408535Y-58235120D01*
X81603120Y-58040535D01*
X81756005Y-57811727D01*
X81861314Y-57557490D01*
X81915000Y-57287592D01*
X81915000Y-57012408D01*
X81861314Y-56742510D01*
X81756005Y-56488273D01*
X81603120Y-56259465D01*
X81553000Y-56209345D01*
X81553000Y-53898835D01*
X81558007Y-53848000D01*
X81553000Y-53797162D01*
X81538024Y-53645105D01*
X81478841Y-53450007D01*
X81419143Y-53338320D01*
X81382734Y-53270202D01*
X81285803Y-53152092D01*
X81253396Y-53112604D01*
X81213908Y-53080197D01*
X79507807Y-51374097D01*
X79475396Y-51334604D01*
X79317797Y-51205266D01*
X79137993Y-51109159D01*
X78942895Y-51049976D01*
X78790838Y-51035000D01*
X78790828Y-51035000D01*
X78740000Y-51029994D01*
X78689172Y-51035000D01*
X77194396Y-51035000D01*
X77114759Y-50955363D01*
X76879727Y-50798320D01*
X76618574Y-50690147D01*
X76341335Y-50635000D01*
X76058665Y-50635000D01*
X75781426Y-50690147D01*
X75520273Y-50798320D01*
X75285241Y-50955363D01*
X75085363Y-51155241D01*
X74928320Y-51390273D01*
X74820147Y-51651426D01*
X74765000Y-51928665D01*
X68036546Y-51928665D01*
X68166034Y-51616055D01*
X68240610Y-51241133D01*
X68240610Y-50858867D01*
X68166034Y-50483945D01*
X68019746Y-50130776D01*
X67924056Y-49987565D01*
X79732040Y-49987565D01*
X79799020Y-50227656D01*
X80048048Y-50344756D01*
X80315135Y-50411023D01*
X80590017Y-50423910D01*
X80862133Y-50382922D01*
X81121023Y-50289636D01*
X81236980Y-50227656D01*
X81303960Y-49987565D01*
X80518000Y-49201605D01*
X79732040Y-49987565D01*
X67924056Y-49987565D01*
X67807370Y-49812933D01*
X67537067Y-49542630D01*
X67219224Y-49330254D01*
X66866055Y-49183966D01*
X66491133Y-49109390D01*
X66108867Y-49109390D01*
X65733945Y-49183966D01*
X65380776Y-49330254D01*
X65062933Y-49542630D01*
X64792630Y-49812933D01*
X64580254Y-50130776D01*
X64433966Y-50483945D01*
X64359390Y-50858867D01*
X62244055Y-50858867D01*
X62211185Y-50818815D01*
X62114494Y-50739463D01*
X62004180Y-50680498D01*
X61884482Y-50644188D01*
X61760000Y-50631928D01*
X60160000Y-50631928D01*
X60035518Y-50644188D01*
X59915820Y-50680498D01*
X59805506Y-50739463D01*
X59708815Y-50818815D01*
X59629463Y-50915506D01*
X59570498Y-51025820D01*
X59534188Y-51145518D01*
X59521928Y-51270000D01*
X57810000Y-51270000D01*
X57810000Y-49094017D01*
X79116090Y-49094017D01*
X79157078Y-49366133D01*
X79250364Y-49625023D01*
X79312344Y-49740980D01*
X79552435Y-49807960D01*
X80338395Y-49022000D01*
X80697605Y-49022000D01*
X81483565Y-49807960D01*
X81723656Y-49740980D01*
X81840756Y-49491952D01*
X81907023Y-49224865D01*
X81919910Y-48949983D01*
X81878922Y-48677867D01*
X81785636Y-48418977D01*
X81723656Y-48303020D01*
X81483565Y-48236040D01*
X80697605Y-49022000D01*
X80338395Y-49022000D01*
X79552435Y-48236040D01*
X79312344Y-48303020D01*
X79195244Y-48552048D01*
X79128977Y-48819135D01*
X79116090Y-49094017D01*
X57810000Y-49094017D01*
X57810000Y-47447565D01*
X79732040Y-47447565D01*
X79799020Y-47687656D01*
X79929644Y-47749079D01*
X79914977Y-47754364D01*
X79799020Y-47816344D01*
X79732040Y-48056435D01*
X80518000Y-48842395D01*
X81303960Y-48056435D01*
X81236980Y-47816344D01*
X81106356Y-47754921D01*
X81121023Y-47749636D01*
X81236980Y-47687656D01*
X81303960Y-47447565D01*
X80518000Y-46661605D01*
X79732040Y-47447565D01*
X57810000Y-47447565D01*
X57810000Y-46557195D01*
X57929744Y-46637205D01*
X58118102Y-46715226D01*
X58318061Y-46755000D01*
X58521939Y-46755000D01*
X58721898Y-46715226D01*
X58910256Y-46637205D01*
X59034755Y-46554017D01*
X79116090Y-46554017D01*
X79157078Y-46826133D01*
X79250364Y-47085023D01*
X79312344Y-47200980D01*
X79552435Y-47267960D01*
X80338395Y-46482000D01*
X80697605Y-46482000D01*
X81483565Y-47267960D01*
X81723656Y-47200980D01*
X81840756Y-46951952D01*
X81870765Y-46831000D01*
X83413095Y-46831000D01*
X83413095Y-53801000D01*
X93806905Y-53801000D01*
X93806905Y-50858867D01*
X94059390Y-50858867D01*
X94059390Y-51241133D01*
X94133966Y-51616055D01*
X94280254Y-51969224D01*
X94492630Y-52287067D01*
X94762933Y-52557370D01*
X95080776Y-52769746D01*
X95433945Y-52916034D01*
X95808867Y-52990610D01*
X96191133Y-52990610D01*
X96566055Y-52916034D01*
X96919224Y-52769746D01*
X97237067Y-52557370D01*
X97507370Y-52287067D01*
X97719746Y-51969224D01*
X97866034Y-51616055D01*
X97940610Y-51241133D01*
X97940610Y-50858867D01*
X97866034Y-50483945D01*
X97719746Y-50130776D01*
X97624056Y-49987565D01*
X98274040Y-49987565D01*
X98341020Y-50227656D01*
X98590048Y-50344756D01*
X98857135Y-50411023D01*
X99132017Y-50423910D01*
X99404133Y-50382922D01*
X99663023Y-50289636D01*
X99778980Y-50227656D01*
X99845960Y-49987565D01*
X99060000Y-49201605D01*
X98274040Y-49987565D01*
X97624056Y-49987565D01*
X97507370Y-49812933D01*
X97237067Y-49542630D01*
X96919224Y-49330254D01*
X96566055Y-49183966D01*
X96191133Y-49109390D01*
X95808867Y-49109390D01*
X95433945Y-49183966D01*
X95080776Y-49330254D01*
X94762933Y-49542630D01*
X94492630Y-49812933D01*
X94280254Y-50130776D01*
X94133966Y-50483945D01*
X94059390Y-50858867D01*
X93806905Y-50858867D01*
X93806905Y-49094017D01*
X97658090Y-49094017D01*
X97699078Y-49366133D01*
X97792364Y-49625023D01*
X97854344Y-49740980D01*
X98094435Y-49807960D01*
X98880395Y-49022000D01*
X99239605Y-49022000D01*
X100025565Y-49807960D01*
X100265656Y-49740980D01*
X100382756Y-49491952D01*
X100449023Y-49224865D01*
X100461910Y-48949983D01*
X100420922Y-48677867D01*
X100327636Y-48418977D01*
X100265656Y-48303020D01*
X100025565Y-48236040D01*
X99239605Y-49022000D01*
X98880395Y-49022000D01*
X98094435Y-48236040D01*
X97854344Y-48303020D01*
X97737244Y-48552048D01*
X97670977Y-48819135D01*
X97658090Y-49094017D01*
X93806905Y-49094017D01*
X93806905Y-47447565D01*
X98274040Y-47447565D01*
X98341020Y-47687656D01*
X98471644Y-47749079D01*
X98456977Y-47754364D01*
X98341020Y-47816344D01*
X98274040Y-48056435D01*
X99060000Y-48842395D01*
X99845960Y-48056435D01*
X99778980Y-47816344D01*
X99648356Y-47754921D01*
X99663023Y-47749636D01*
X99778980Y-47687656D01*
X99845960Y-47447565D01*
X99060000Y-46661605D01*
X98274040Y-47447565D01*
X93806905Y-47447565D01*
X93806905Y-46831000D01*
X83413095Y-46831000D01*
X81870765Y-46831000D01*
X81907023Y-46684865D01*
X81913157Y-46554017D01*
X97658090Y-46554017D01*
X97699078Y-46826133D01*
X97792364Y-47085023D01*
X97854344Y-47200980D01*
X98094435Y-47267960D01*
X98880395Y-46482000D01*
X98094435Y-45696040D01*
X97854344Y-45763020D01*
X97737244Y-46012048D01*
X97670977Y-46279135D01*
X97658090Y-46554017D01*
X81913157Y-46554017D01*
X81919910Y-46409983D01*
X81878922Y-46137867D01*
X81785636Y-45878977D01*
X81723656Y-45763020D01*
X81483565Y-45696040D01*
X80697605Y-46482000D01*
X80338395Y-46482000D01*
X79552435Y-45696040D01*
X79312344Y-45763020D01*
X79195244Y-46012048D01*
X79128977Y-46279135D01*
X79116090Y-46554017D01*
X59034755Y-46554017D01*
X59079774Y-46523937D01*
X59223937Y-46379774D01*
X59249800Y-46341068D01*
X59498867Y-46390610D01*
X59881133Y-46390610D01*
X60256055Y-46316034D01*
X60609224Y-46169746D01*
X60927067Y-45957370D01*
X61197370Y-45687067D01*
X61311382Y-45516435D01*
X79732040Y-45516435D01*
X80518000Y-46302395D01*
X81303960Y-45516435D01*
X81236980Y-45276344D01*
X80987952Y-45159244D01*
X80720865Y-45092977D01*
X80445983Y-45080090D01*
X80173867Y-45121078D01*
X79914977Y-45214364D01*
X79799020Y-45276344D01*
X79732040Y-45516435D01*
X61311382Y-45516435D01*
X61409746Y-45369224D01*
X61556034Y-45016055D01*
X61630610Y-44641133D01*
X61630610Y-44258867D01*
X61556034Y-43883945D01*
X61409746Y-43530776D01*
X61197370Y-43212933D01*
X60927067Y-42942630D01*
X60609224Y-42730254D01*
X60256055Y-42583966D01*
X60185843Y-42570000D01*
X99834157Y-42570000D01*
X99763945Y-42583966D01*
G36*
X90023714Y-77694583D02*
G01*
X90005000Y-77788665D01*
X90005000Y-78071335D01*
X90060147Y-78348574D01*
X90168320Y-78609727D01*
X90325363Y-78844759D01*
X90525241Y-79044637D01*
X90760273Y-79201680D01*
X91021426Y-79309853D01*
X91047301Y-79315000D01*
X91021426Y-79320147D01*
X90760273Y-79428320D01*
X90525241Y-79585363D01*
X90325363Y-79785241D01*
X90272070Y-79865000D01*
X87515868Y-79865000D01*
X86029545Y-78378678D01*
X86059171Y-78342579D01*
X86166885Y-78141059D01*
X86233215Y-77922399D01*
X86250000Y-77751978D01*
X86250000Y-77188021D01*
X86233215Y-77017600D01*
X86166885Y-76798940D01*
X86059171Y-76597421D01*
X85914212Y-76420788D01*
X85737578Y-76275829D01*
X85536059Y-76168115D01*
X85317399Y-76101785D01*
X85090000Y-76079388D01*
X84862600Y-76101785D01*
X84643940Y-76168115D01*
X84455000Y-76269106D01*
X84266059Y-76168115D01*
X84047399Y-76101785D01*
X83820000Y-76079388D01*
X83592600Y-76101785D01*
X83383902Y-76165093D01*
X83319180Y-76130498D01*
X83199482Y-76094188D01*
X83075000Y-76081928D01*
X82835750Y-76085000D01*
X82677000Y-76243750D01*
X82677000Y-77016892D01*
X82676785Y-77017601D01*
X82660000Y-77188022D01*
X82660000Y-77751979D01*
X82676785Y-77922400D01*
X82677000Y-77923109D01*
X82677000Y-78696250D01*
X82835750Y-78855000D01*
X82985000Y-78856916D01*
X82985001Y-81932974D01*
X82919571Y-81775012D01*
X82722035Y-81479379D01*
X82470621Y-81227965D01*
X82174988Y-81030429D01*
X81846499Y-80894365D01*
X81497777Y-80825000D01*
X81142223Y-80825000D01*
X80793501Y-80894365D01*
X80465012Y-81030429D01*
X80169379Y-81227965D01*
X79917965Y-81479379D01*
X79720429Y-81775012D01*
X79584365Y-82103501D01*
X79515000Y-82452223D01*
X79515000Y-82807777D01*
X79584365Y-83156499D01*
X79720429Y-83484988D01*
X79917965Y-83780621D01*
X80169379Y-84032035D01*
X80465012Y-84229571D01*
X80793501Y-84365635D01*
X81142223Y-84435000D01*
X81497777Y-84435000D01*
X81846499Y-84365635D01*
X82174988Y-84229571D01*
X82470621Y-84032035D01*
X82722035Y-83780621D01*
X82919571Y-83484988D01*
X82985001Y-83327026D01*
X82985001Y-83732129D01*
X79922131Y-86795000D01*
X77367930Y-86795000D01*
X77314637Y-86715241D01*
X77114759Y-86515363D01*
X76882241Y-86360000D01*
X77114759Y-86204637D01*
X77314637Y-86004759D01*
X77471680Y-85769727D01*
X77579853Y-85508574D01*
X77635000Y-85231335D01*
X77635000Y-84948665D01*
X77579853Y-84671426D01*
X77471680Y-84410273D01*
X77314637Y-84175241D01*
X77114759Y-83975363D01*
X76882241Y-83820000D01*
X77114759Y-83664637D01*
X77314637Y-83464759D01*
X77471680Y-83229727D01*
X77579853Y-82968574D01*
X77635000Y-82691335D01*
X77635000Y-82408665D01*
X77579853Y-82131426D01*
X77471680Y-81870273D01*
X77314637Y-81635241D01*
X77114759Y-81435363D01*
X76882241Y-81280000D01*
X77114759Y-81124637D01*
X77314637Y-80924759D01*
X77471680Y-80689727D01*
X77579853Y-80428574D01*
X77635000Y-80151335D01*
X77635000Y-79868665D01*
X77579853Y-79591426D01*
X77471680Y-79330273D01*
X77393362Y-79213061D01*
X79670000Y-79213061D01*
X79670000Y-79416939D01*
X79709774Y-79616898D01*
X79787795Y-79805256D01*
X79901063Y-79974774D01*
X80045226Y-80118937D01*
X80214744Y-80232205D01*
X80403102Y-80310226D01*
X80603061Y-80350000D01*
X80806939Y-80350000D01*
X81006898Y-80310226D01*
X81195256Y-80232205D01*
X81364774Y-80118937D01*
X81508937Y-79974774D01*
X81622205Y-79805256D01*
X81700226Y-79616898D01*
X81740000Y-79416939D01*
X81740000Y-79213061D01*
X81700226Y-79013102D01*
X81622205Y-78824744D01*
X81508937Y-78655226D01*
X81364774Y-78511063D01*
X81195256Y-78397795D01*
X81006898Y-78319774D01*
X80806939Y-78280000D01*
X80603061Y-78280000D01*
X80403102Y-78319774D01*
X80214744Y-78397795D01*
X80045226Y-78511063D01*
X79901063Y-78655226D01*
X79787795Y-78824744D01*
X79709774Y-79013102D01*
X79670000Y-79213061D01*
X77393362Y-79213061D01*
X77314637Y-79095241D01*
X77114759Y-78895363D01*
X76882241Y-78740000D01*
X77114759Y-78584637D01*
X77314637Y-78384759D01*
X77424725Y-78220000D01*
X81386928Y-78220000D01*
X81399188Y-78344482D01*
X81435498Y-78464180D01*
X81494463Y-78574494D01*
X81573815Y-78671185D01*
X81670506Y-78750537D01*
X81780820Y-78809502D01*
X81900518Y-78845812D01*
X82025000Y-78858072D01*
X82264250Y-78855000D01*
X82423000Y-78696250D01*
X82423000Y-77597000D01*
X81548750Y-77597000D01*
X81390000Y-77755750D01*
X81386928Y-78220000D01*
X77424725Y-78220000D01*
X77471680Y-78149727D01*
X77579853Y-77888574D01*
X77635000Y-77611335D01*
X77635000Y-77328665D01*
X77579853Y-77051426D01*
X77471680Y-76790273D01*
X77424726Y-76720000D01*
X81386928Y-76720000D01*
X81390000Y-77184250D01*
X81548750Y-77343000D01*
X82423000Y-77343000D01*
X82423000Y-76243750D01*
X82264250Y-76085000D01*
X82025000Y-76081928D01*
X81900518Y-76094188D01*
X81780820Y-76130498D01*
X81670506Y-76189463D01*
X81573815Y-76268815D01*
X81494463Y-76365506D01*
X81435498Y-76475820D01*
X81399188Y-76595518D01*
X81386928Y-76720000D01*
X77424726Y-76720000D01*
X77314637Y-76555241D01*
X77114759Y-76355363D01*
X76882241Y-76200000D01*
X77114759Y-76044637D01*
X77314637Y-75844759D01*
X77367930Y-75765000D01*
X88094133Y-75765000D01*
X90023714Y-77694583D01*
G37*
X90023714Y-77694583D02*
X90005000Y-77788665D01*
X90005000Y-78071335D01*
X90060147Y-78348574D01*
X90168320Y-78609727D01*
X90325363Y-78844759D01*
X90525241Y-79044637D01*
X90760273Y-79201680D01*
X91021426Y-79309853D01*
X91047301Y-79315000D01*
X91021426Y-79320147D01*
X90760273Y-79428320D01*
X90525241Y-79585363D01*
X90325363Y-79785241D01*
X90272070Y-79865000D01*
X87515868Y-79865000D01*
X86029545Y-78378678D01*
X86059171Y-78342579D01*
X86166885Y-78141059D01*
X86233215Y-77922399D01*
X86250000Y-77751978D01*
X86250000Y-77188021D01*
X86233215Y-77017600D01*
X86166885Y-76798940D01*
X86059171Y-76597421D01*
X85914212Y-76420788D01*
X85737578Y-76275829D01*
X85536059Y-76168115D01*
X85317399Y-76101785D01*
X85090000Y-76079388D01*
X84862600Y-76101785D01*
X84643940Y-76168115D01*
X84455000Y-76269106D01*
X84266059Y-76168115D01*
X84047399Y-76101785D01*
X83820000Y-76079388D01*
X83592600Y-76101785D01*
X83383902Y-76165093D01*
X83319180Y-76130498D01*
X83199482Y-76094188D01*
X83075000Y-76081928D01*
X82835750Y-76085000D01*
X82677000Y-76243750D01*
X82677000Y-77016892D01*
X82676785Y-77017601D01*
X82660000Y-77188022D01*
X82660000Y-77751979D01*
X82676785Y-77922400D01*
X82677000Y-77923109D01*
X82677000Y-78696250D01*
X82835750Y-78855000D01*
X82985000Y-78856916D01*
X82985001Y-81932974D01*
X82919571Y-81775012D01*
X82722035Y-81479379D01*
X82470621Y-81227965D01*
X82174988Y-81030429D01*
X81846499Y-80894365D01*
X81497777Y-80825000D01*
X81142223Y-80825000D01*
X80793501Y-80894365D01*
X80465012Y-81030429D01*
X80169379Y-81227965D01*
X79917965Y-81479379D01*
X79720429Y-81775012D01*
X79584365Y-82103501D01*
X79515000Y-82452223D01*
X79515000Y-82807777D01*
X79584365Y-83156499D01*
X79720429Y-83484988D01*
X79917965Y-83780621D01*
X80169379Y-84032035D01*
X80465012Y-84229571D01*
X80793501Y-84365635D01*
X81142223Y-84435000D01*
X81497777Y-84435000D01*
X81846499Y-84365635D01*
X82174988Y-84229571D01*
X82470621Y-84032035D01*
X82722035Y-83780621D01*
X82919571Y-83484988D01*
X82985001Y-83327026D01*
X82985001Y-83732129D01*
X79922131Y-86795000D01*
X77367930Y-86795000D01*
X77314637Y-86715241D01*
X77114759Y-86515363D01*
X76882241Y-86360000D01*
X77114759Y-86204637D01*
X77314637Y-86004759D01*
X77471680Y-85769727D01*
X77579853Y-85508574D01*
X77635000Y-85231335D01*
X77635000Y-84948665D01*
X77579853Y-84671426D01*
X77471680Y-84410273D01*
X77314637Y-84175241D01*
X77114759Y-83975363D01*
X76882241Y-83820000D01*
X77114759Y-83664637D01*
X77314637Y-83464759D01*
X77471680Y-83229727D01*
X77579853Y-82968574D01*
X77635000Y-82691335D01*
X77635000Y-82408665D01*
X77579853Y-82131426D01*
X77471680Y-81870273D01*
X77314637Y-81635241D01*
X77114759Y-81435363D01*
X76882241Y-81280000D01*
X77114759Y-81124637D01*
X77314637Y-80924759D01*
X77471680Y-80689727D01*
X77579853Y-80428574D01*
X77635000Y-80151335D01*
X77635000Y-79868665D01*
X77579853Y-79591426D01*
X77471680Y-79330273D01*
X77393362Y-79213061D01*
X79670000Y-79213061D01*
X79670000Y-79416939D01*
X79709774Y-79616898D01*
X79787795Y-79805256D01*
X79901063Y-79974774D01*
X80045226Y-80118937D01*
X80214744Y-80232205D01*
X80403102Y-80310226D01*
X80603061Y-80350000D01*
X80806939Y-80350000D01*
X81006898Y-80310226D01*
X81195256Y-80232205D01*
X81364774Y-80118937D01*
X81508937Y-79974774D01*
X81622205Y-79805256D01*
X81700226Y-79616898D01*
X81740000Y-79416939D01*
X81740000Y-79213061D01*
X81700226Y-79013102D01*
X81622205Y-78824744D01*
X81508937Y-78655226D01*
X81364774Y-78511063D01*
X81195256Y-78397795D01*
X81006898Y-78319774D01*
X80806939Y-78280000D01*
X80603061Y-78280000D01*
X80403102Y-78319774D01*
X80214744Y-78397795D01*
X80045226Y-78511063D01*
X79901063Y-78655226D01*
X79787795Y-78824744D01*
X79709774Y-79013102D01*
X79670000Y-79213061D01*
X77393362Y-79213061D01*
X77314637Y-79095241D01*
X77114759Y-78895363D01*
X76882241Y-78740000D01*
X77114759Y-78584637D01*
X77314637Y-78384759D01*
X77424725Y-78220000D01*
X81386928Y-78220000D01*
X81399188Y-78344482D01*
X81435498Y-78464180D01*
X81494463Y-78574494D01*
X81573815Y-78671185D01*
X81670506Y-78750537D01*
X81780820Y-78809502D01*
X81900518Y-78845812D01*
X82025000Y-78858072D01*
X82264250Y-78855000D01*
X82423000Y-78696250D01*
X82423000Y-77597000D01*
X81548750Y-77597000D01*
X81390000Y-77755750D01*
X81386928Y-78220000D01*
X77424725Y-78220000D01*
X77471680Y-78149727D01*
X77579853Y-77888574D01*
X77635000Y-77611335D01*
X77635000Y-77328665D01*
X77579853Y-77051426D01*
X77471680Y-76790273D01*
X77424726Y-76720000D01*
X81386928Y-76720000D01*
X81390000Y-77184250D01*
X81548750Y-77343000D01*
X82423000Y-77343000D01*
X82423000Y-76243750D01*
X82264250Y-76085000D01*
X82025000Y-76081928D01*
X81900518Y-76094188D01*
X81780820Y-76130498D01*
X81670506Y-76189463D01*
X81573815Y-76268815D01*
X81494463Y-76365506D01*
X81435498Y-76475820D01*
X81399188Y-76595518D01*
X81386928Y-76720000D01*
X77424726Y-76720000D01*
X77314637Y-76555241D01*
X77114759Y-76355363D01*
X76882241Y-76200000D01*
X77114759Y-76044637D01*
X77314637Y-75844759D01*
X77367930Y-75765000D01*
X88094133Y-75765000D01*
X90023714Y-77694583D01*
G36*
X90325363Y-81614759D02*
G01*
X90525241Y-81814637D01*
X90760273Y-81971680D01*
X91021426Y-82079853D01*
X91047301Y-82085000D01*
X91021426Y-82090147D01*
X90760273Y-82198320D01*
X90525241Y-82355363D01*
X90325363Y-82555241D01*
X90168320Y-82790273D01*
X90060147Y-83051426D01*
X90005000Y-83328665D01*
X90005000Y-83434999D01*
X88305866Y-83434999D01*
X88109442Y-83238575D01*
X88109437Y-83238569D01*
X88047356Y-83176488D01*
X88055635Y-83156499D01*
X88125000Y-82807777D01*
X88125000Y-82452223D01*
X88055635Y-82103501D01*
X87919571Y-81775012D01*
X87759200Y-81535000D01*
X90272070Y-81535000D01*
X90325363Y-81614759D01*
G37*
X90325363Y-81614759D02*
X90525241Y-81814637D01*
X90760273Y-81971680D01*
X91021426Y-82079853D01*
X91047301Y-82085000D01*
X91021426Y-82090147D01*
X90760273Y-82198320D01*
X90525241Y-82355363D01*
X90325363Y-82555241D01*
X90168320Y-82790273D01*
X90060147Y-83051426D01*
X90005000Y-83328665D01*
X90005000Y-83434999D01*
X88305866Y-83434999D01*
X88109442Y-83238575D01*
X88109437Y-83238569D01*
X88047356Y-83176488D01*
X88055635Y-83156499D01*
X88125000Y-82807777D01*
X88125000Y-82452223D01*
X88055635Y-82103501D01*
X87919571Y-81775012D01*
X87759200Y-81535000D01*
X90272070Y-81535000D01*
X90325363Y-81614759D01*
G36*
X91141062Y-70951928D02*
G01*
X90640000Y-70951928D01*
X90515518Y-70964188D01*
X90395820Y-71000498D01*
X90285506Y-71059463D01*
X90188815Y-71138815D01*
X90109463Y-71235506D01*
X90050498Y-71345820D01*
X90014188Y-71465518D01*
X90001928Y-71590000D01*
X90001928Y-73190000D01*
X90014188Y-73314482D01*
X90050498Y-73434180D01*
X90109463Y-73544494D01*
X90188815Y-73641185D01*
X90285506Y-73720537D01*
X90395820Y-73779502D01*
X90515518Y-73815812D01*
X90640000Y-73828072D01*
X90905725Y-73828072D01*
X90760273Y-73888320D01*
X90525241Y-74045363D01*
X90325363Y-74245241D01*
X90168320Y-74480273D01*
X90060147Y-74741426D01*
X90005000Y-75018665D01*
X90005000Y-75301335D01*
X90008178Y-75317310D01*
X89059446Y-74368579D01*
X89033291Y-74336709D01*
X88906146Y-74232364D01*
X88761087Y-74154828D01*
X88603689Y-74107082D01*
X88481019Y-74095000D01*
X88481018Y-74095000D01*
X88440000Y-74090960D01*
X88398982Y-74095000D01*
X77367930Y-74095000D01*
X77314637Y-74015241D01*
X77114759Y-73815363D01*
X76882241Y-73660000D01*
X77114759Y-73504637D01*
X77314637Y-73304759D01*
X77471680Y-73069727D01*
X77579853Y-72808574D01*
X77635000Y-72531335D01*
X77635000Y-72248665D01*
X77579853Y-71971426D01*
X77471680Y-71710273D01*
X77314637Y-71475241D01*
X77114759Y-71275363D01*
X76882241Y-71120000D01*
X77114759Y-70964637D01*
X77314637Y-70764759D01*
X77471680Y-70529727D01*
X77579853Y-70268574D01*
X77635000Y-69991335D01*
X77635000Y-69708665D01*
X77579853Y-69431426D01*
X77471680Y-69170273D01*
X77314637Y-68935241D01*
X77114759Y-68735363D01*
X76882241Y-68580000D01*
X77114759Y-68424637D01*
X77314637Y-68224759D01*
X77471680Y-67989727D01*
X77579853Y-67728574D01*
X77635000Y-67451335D01*
X77635000Y-67168665D01*
X77579853Y-66891426D01*
X77471680Y-66630273D01*
X77314637Y-66395241D01*
X77114759Y-66195363D01*
X76882241Y-66040000D01*
X77114759Y-65884637D01*
X77314637Y-65684759D01*
X77367930Y-65605000D01*
X85794135Y-65605000D01*
X91141062Y-70951928D01*
G37*
X91141062Y-70951928D02*
X90640000Y-70951928D01*
X90515518Y-70964188D01*
X90395820Y-71000498D01*
X90285506Y-71059463D01*
X90188815Y-71138815D01*
X90109463Y-71235506D01*
X90050498Y-71345820D01*
X90014188Y-71465518D01*
X90001928Y-71590000D01*
X90001928Y-73190000D01*
X90014188Y-73314482D01*
X90050498Y-73434180D01*
X90109463Y-73544494D01*
X90188815Y-73641185D01*
X90285506Y-73720537D01*
X90395820Y-73779502D01*
X90515518Y-73815812D01*
X90640000Y-73828072D01*
X90905725Y-73828072D01*
X90760273Y-73888320D01*
X90525241Y-74045363D01*
X90325363Y-74245241D01*
X90168320Y-74480273D01*
X90060147Y-74741426D01*
X90005000Y-75018665D01*
X90005000Y-75301335D01*
X90008178Y-75317310D01*
X89059446Y-74368579D01*
X89033291Y-74336709D01*
X88906146Y-74232364D01*
X88761087Y-74154828D01*
X88603689Y-74107082D01*
X88481019Y-74095000D01*
X88481018Y-74095000D01*
X88440000Y-74090960D01*
X88398982Y-74095000D01*
X77367930Y-74095000D01*
X77314637Y-74015241D01*
X77114759Y-73815363D01*
X76882241Y-73660000D01*
X77114759Y-73504637D01*
X77314637Y-73304759D01*
X77471680Y-73069727D01*
X77579853Y-72808574D01*
X77635000Y-72531335D01*
X77635000Y-72248665D01*
X77579853Y-71971426D01*
X77471680Y-71710273D01*
X77314637Y-71475241D01*
X77114759Y-71275363D01*
X76882241Y-71120000D01*
X77114759Y-70964637D01*
X77314637Y-70764759D01*
X77471680Y-70529727D01*
X77579853Y-70268574D01*
X77635000Y-69991335D01*
X77635000Y-69708665D01*
X77579853Y-69431426D01*
X77471680Y-69170273D01*
X77314637Y-68935241D01*
X77114759Y-68735363D01*
X76882241Y-68580000D01*
X77114759Y-68424637D01*
X77314637Y-68224759D01*
X77471680Y-67989727D01*
X77579853Y-67728574D01*
X77635000Y-67451335D01*
X77635000Y-67168665D01*
X77579853Y-66891426D01*
X77471680Y-66630273D01*
X77314637Y-66395241D01*
X77114759Y-66195363D01*
X76882241Y-66040000D01*
X77114759Y-65884637D01*
X77314637Y-65684759D01*
X77367930Y-65605000D01*
X85794135Y-65605000D01*
X91141062Y-70951928D01*
G36*
X65187748Y-65229858D02*
G01*
X65173605Y-65244000D01*
X65187748Y-65258143D01*
X65008143Y-65437748D01*
X64994000Y-65423605D01*
X64979858Y-65437748D01*
X64800253Y-65258143D01*
X64814395Y-65244000D01*
X64800253Y-65229858D01*
X64979858Y-65050253D01*
X64994000Y-65064395D01*
X65008143Y-65050253D01*
X65187748Y-65229858D01*
G37*
X65187748Y-65229858D02*
X65173605Y-65244000D01*
X65187748Y-65258143D01*
X65008143Y-65437748D01*
X64994000Y-65423605D01*
X64979858Y-65437748D01*
X64800253Y-65258143D01*
X64814395Y-65244000D01*
X64800253Y-65229858D01*
X64979858Y-65050253D01*
X64994000Y-65064395D01*
X65008143Y-65050253D01*
X65187748Y-65229858D01*
M02*
