G04 #@! TF.GenerationSoftware,KiCad,Pcbnew,5.1.5-52549c5~84~ubuntu19.10.1*
G04 #@! TF.CreationDate,2020-09-03T13:43:05+03:00*
G04 #@! TF.ProjectId,hymTracker,68796d54-7261-4636-9b65-722e6b696361,rev?*
G04 #@! TF.SameCoordinates,Original*
G04 #@! TF.FileFunction,Soldermask,Bot*
G04 #@! TF.FilePolarity,Negative*
%FSLAX46Y46*%
G04 Gerber Fmt 4.6, Leading zero omitted, Abs format (unit mm)*
G04 Created by KiCad (PCBNEW 5.1.5-52549c5~84~ubuntu19.10.1) date 2020-09-03 13:43:05*
%MOMM*%
%LPD*%
G04 APERTURE LIST*
%ADD10C,0.100000*%
G04 APERTURE END LIST*
D10*
G36*
X84176153Y-91455922D02*
G01*
X84268194Y-91494047D01*
X84398359Y-91547963D01*
X84598342Y-91681587D01*
X84768413Y-91851658D01*
X84902037Y-92051641D01*
X84932483Y-92125144D01*
X84980743Y-92241653D01*
X84994078Y-92273848D01*
X85041000Y-92509741D01*
X85041000Y-92750259D01*
X84994078Y-92986152D01*
X84902037Y-93208359D01*
X84768413Y-93408342D01*
X84598342Y-93578413D01*
X84398359Y-93712037D01*
X84268194Y-93765953D01*
X84176153Y-93804078D01*
X84058205Y-93827539D01*
X83940259Y-93851000D01*
X83699741Y-93851000D01*
X83581795Y-93827539D01*
X83463847Y-93804078D01*
X83371806Y-93765953D01*
X83241641Y-93712037D01*
X83041658Y-93578413D01*
X82871587Y-93408342D01*
X82737963Y-93208359D01*
X82645922Y-92986152D01*
X82599000Y-92750259D01*
X82599000Y-92509741D01*
X82645922Y-92273848D01*
X82659258Y-92241653D01*
X82707517Y-92125144D01*
X82737963Y-92051641D01*
X82871587Y-91851658D01*
X83041658Y-91681587D01*
X83241641Y-91547963D01*
X83371806Y-91494047D01*
X83463847Y-91455922D01*
X83581795Y-91432461D01*
X83699741Y-91409000D01*
X83940259Y-91409000D01*
X84176153Y-91455922D01*
G37*
G36*
X93458254Y-88457818D02*
G01*
X93831511Y-88612426D01*
X93831513Y-88612427D01*
X94167436Y-88836884D01*
X94453116Y-89122564D01*
X94665758Y-89440804D01*
X94677574Y-89458489D01*
X94832182Y-89831746D01*
X94911000Y-90227993D01*
X94911000Y-90632007D01*
X94832182Y-91028254D01*
X94677574Y-91401511D01*
X94677573Y-91401513D01*
X94453116Y-91737436D01*
X94167436Y-92023116D01*
X93831513Y-92247573D01*
X93831512Y-92247574D01*
X93831511Y-92247574D01*
X93458254Y-92402182D01*
X93062007Y-92481000D01*
X92657993Y-92481000D01*
X92261746Y-92402182D01*
X91888489Y-92247574D01*
X91888488Y-92247574D01*
X91888487Y-92247573D01*
X91552564Y-92023116D01*
X91266884Y-91737436D01*
X91042427Y-91401513D01*
X91042426Y-91401511D01*
X90887818Y-91028254D01*
X90809000Y-90632007D01*
X90809000Y-90227993D01*
X90887818Y-89831746D01*
X91042426Y-89458489D01*
X91054243Y-89440804D01*
X91266884Y-89122564D01*
X91552564Y-88836884D01*
X91888487Y-88612427D01*
X91888489Y-88612426D01*
X92261746Y-88457818D01*
X92657993Y-88379000D01*
X93062007Y-88379000D01*
X93458254Y-88457818D01*
G37*
G36*
X80778604Y-90898347D02*
G01*
X80815144Y-90909432D01*
X80848821Y-90927433D01*
X80878341Y-90951659D01*
X80902567Y-90981179D01*
X80920568Y-91014856D01*
X80931653Y-91051396D01*
X80936000Y-91095538D01*
X80936000Y-92044462D01*
X80931653Y-92088604D01*
X80920568Y-92125144D01*
X80902567Y-92158821D01*
X80878341Y-92188341D01*
X80848821Y-92212567D01*
X80815144Y-92230568D01*
X80778604Y-92241653D01*
X80734462Y-92246000D01*
X79285538Y-92246000D01*
X79241396Y-92241653D01*
X79204856Y-92230568D01*
X79171179Y-92212567D01*
X79141659Y-92188341D01*
X79117433Y-92158821D01*
X79099432Y-92125144D01*
X79088347Y-92088604D01*
X79084000Y-92044462D01*
X79084000Y-91095538D01*
X79088347Y-91051396D01*
X79099432Y-91014856D01*
X79117433Y-90981179D01*
X79141659Y-90951659D01*
X79171179Y-90927433D01*
X79204856Y-90909432D01*
X79241396Y-90898347D01*
X79285538Y-90894000D01*
X80734462Y-90894000D01*
X80778604Y-90898347D01*
G37*
G36*
X88398604Y-88358347D02*
G01*
X88435144Y-88369432D01*
X88468821Y-88387433D01*
X88498341Y-88411659D01*
X88522567Y-88441179D01*
X88540568Y-88474856D01*
X88551653Y-88511396D01*
X88556000Y-88555538D01*
X88556000Y-89504462D01*
X88551653Y-89548604D01*
X88540568Y-89585144D01*
X88522567Y-89618821D01*
X88498341Y-89648341D01*
X88468821Y-89672567D01*
X88435144Y-89690568D01*
X88398604Y-89701653D01*
X88354462Y-89706000D01*
X86905538Y-89706000D01*
X86861396Y-89701653D01*
X86824856Y-89690568D01*
X86791179Y-89672567D01*
X86761659Y-89648341D01*
X86737433Y-89618821D01*
X86719432Y-89585144D01*
X86708347Y-89548604D01*
X86704000Y-89504462D01*
X86704000Y-88555538D01*
X86708347Y-88511396D01*
X86719432Y-88474856D01*
X86737433Y-88441179D01*
X86761659Y-88411659D01*
X86791179Y-88387433D01*
X86824856Y-88369432D01*
X86861396Y-88358347D01*
X86905538Y-88354000D01*
X88354462Y-88354000D01*
X88398604Y-88358347D01*
G37*
G36*
X84418254Y-85657818D02*
G01*
X84791511Y-85812426D01*
X84791513Y-85812427D01*
X84934989Y-85908295D01*
X85127436Y-86036884D01*
X85413116Y-86322564D01*
X85637574Y-86658489D01*
X85792182Y-87031746D01*
X85871000Y-87427993D01*
X85871000Y-87832007D01*
X85792182Y-88228254D01*
X85637574Y-88601511D01*
X85637573Y-88601513D01*
X85413116Y-88937436D01*
X85127436Y-89223116D01*
X84791513Y-89447573D01*
X84791512Y-89447574D01*
X84791511Y-89447574D01*
X84418254Y-89602182D01*
X84022007Y-89681000D01*
X83617993Y-89681000D01*
X83221746Y-89602182D01*
X82848489Y-89447574D01*
X82848488Y-89447574D01*
X82848487Y-89447573D01*
X82512564Y-89223116D01*
X82226884Y-88937436D01*
X82002427Y-88601513D01*
X82002426Y-88601511D01*
X81847818Y-88228254D01*
X81769000Y-87832007D01*
X81769000Y-87427993D01*
X81847818Y-87031746D01*
X82002426Y-86658489D01*
X82226884Y-86322564D01*
X82512564Y-86036884D01*
X82705011Y-85908295D01*
X82848487Y-85812427D01*
X82848489Y-85812426D01*
X83221746Y-85657818D01*
X83617993Y-85579000D01*
X84022007Y-85579000D01*
X84418254Y-85657818D01*
G37*
G36*
X80778604Y-88098347D02*
G01*
X80815144Y-88109432D01*
X80848821Y-88127433D01*
X80878341Y-88151659D01*
X80902567Y-88181179D01*
X80920568Y-88214856D01*
X80931653Y-88251396D01*
X80936000Y-88295538D01*
X80936000Y-89244462D01*
X80931653Y-89288604D01*
X80920568Y-89325144D01*
X80902567Y-89358821D01*
X80878341Y-89388341D01*
X80848821Y-89412567D01*
X80815144Y-89430568D01*
X80778604Y-89441653D01*
X80734462Y-89446000D01*
X79285538Y-89446000D01*
X79241396Y-89441653D01*
X79204856Y-89430568D01*
X79171179Y-89412567D01*
X79141659Y-89388341D01*
X79117433Y-89358821D01*
X79099432Y-89325144D01*
X79088347Y-89288604D01*
X79084000Y-89244462D01*
X79084000Y-88295538D01*
X79088347Y-88251396D01*
X79099432Y-88214856D01*
X79117433Y-88181179D01*
X79141659Y-88151659D01*
X79171179Y-88127433D01*
X79204856Y-88109432D01*
X79241396Y-88098347D01*
X79285538Y-88094000D01*
X80734462Y-88094000D01*
X80778604Y-88098347D01*
G37*
G36*
X76448228Y-86811703D02*
G01*
X76603100Y-86875853D01*
X76742481Y-86968985D01*
X76861015Y-87087519D01*
X76954147Y-87226900D01*
X77018297Y-87381772D01*
X77051000Y-87546184D01*
X77051000Y-87713816D01*
X77018297Y-87878228D01*
X76954147Y-88033100D01*
X76861015Y-88172481D01*
X76742481Y-88291015D01*
X76603100Y-88384147D01*
X76448228Y-88448297D01*
X76283816Y-88481000D01*
X76116184Y-88481000D01*
X75951772Y-88448297D01*
X75796900Y-88384147D01*
X75657519Y-88291015D01*
X75538985Y-88172481D01*
X75445853Y-88033100D01*
X75381703Y-87878228D01*
X75349000Y-87713816D01*
X75349000Y-87546184D01*
X75381703Y-87381772D01*
X75445853Y-87226900D01*
X75538985Y-87087519D01*
X75657519Y-86968985D01*
X75796900Y-86875853D01*
X75951772Y-86811703D01*
X76116184Y-86779000D01*
X76283816Y-86779000D01*
X76448228Y-86811703D01*
G37*
G36*
X61208228Y-86811703D02*
G01*
X61363100Y-86875853D01*
X61502481Y-86968985D01*
X61621015Y-87087519D01*
X61714147Y-87226900D01*
X61778297Y-87381772D01*
X61811000Y-87546184D01*
X61811000Y-87713816D01*
X61778297Y-87878228D01*
X61714147Y-88033100D01*
X61621015Y-88172481D01*
X61502481Y-88291015D01*
X61363100Y-88384147D01*
X61208228Y-88448297D01*
X61043816Y-88481000D01*
X60876184Y-88481000D01*
X60711772Y-88448297D01*
X60556900Y-88384147D01*
X60417519Y-88291015D01*
X60298985Y-88172481D01*
X60205853Y-88033100D01*
X60141703Y-87878228D01*
X60109000Y-87713816D01*
X60109000Y-87546184D01*
X60141703Y-87381772D01*
X60205853Y-87226900D01*
X60298985Y-87087519D01*
X60417519Y-86968985D01*
X60556900Y-86875853D01*
X60711772Y-86811703D01*
X60876184Y-86779000D01*
X61043816Y-86779000D01*
X61208228Y-86811703D01*
G37*
G36*
X88398604Y-85558347D02*
G01*
X88435144Y-85569432D01*
X88468821Y-85587433D01*
X88498341Y-85611659D01*
X88522567Y-85641179D01*
X88540568Y-85674856D01*
X88551653Y-85711396D01*
X88556000Y-85755538D01*
X88556000Y-86704462D01*
X88551653Y-86748604D01*
X88540568Y-86785144D01*
X88522567Y-86818821D01*
X88498341Y-86848341D01*
X88468821Y-86872567D01*
X88435144Y-86890568D01*
X88398604Y-86901653D01*
X88354462Y-86906000D01*
X86905538Y-86906000D01*
X86861396Y-86901653D01*
X86824856Y-86890568D01*
X86791179Y-86872567D01*
X86761659Y-86848341D01*
X86737433Y-86818821D01*
X86719432Y-86785144D01*
X86708347Y-86748604D01*
X86704000Y-86704462D01*
X86704000Y-85755538D01*
X86708347Y-85711396D01*
X86719432Y-85674856D01*
X86737433Y-85641179D01*
X86761659Y-85611659D01*
X86791179Y-85587433D01*
X86824856Y-85569432D01*
X86861396Y-85558347D01*
X86905538Y-85554000D01*
X88354462Y-85554000D01*
X88398604Y-85558347D01*
G37*
G36*
X61208228Y-84271703D02*
G01*
X61363100Y-84335853D01*
X61502481Y-84428985D01*
X61621015Y-84547519D01*
X61714147Y-84686900D01*
X61778297Y-84841772D01*
X61811000Y-85006184D01*
X61811000Y-85173816D01*
X61778297Y-85338228D01*
X61714147Y-85493100D01*
X61621015Y-85632481D01*
X61502481Y-85751015D01*
X61363100Y-85844147D01*
X61208228Y-85908297D01*
X61043816Y-85941000D01*
X60876184Y-85941000D01*
X60711772Y-85908297D01*
X60556900Y-85844147D01*
X60417519Y-85751015D01*
X60298985Y-85632481D01*
X60205853Y-85493100D01*
X60141703Y-85338228D01*
X60109000Y-85173816D01*
X60109000Y-85006184D01*
X60141703Y-84841772D01*
X60205853Y-84686900D01*
X60298985Y-84547519D01*
X60417519Y-84428985D01*
X60556900Y-84335853D01*
X60711772Y-84271703D01*
X60876184Y-84239000D01*
X61043816Y-84239000D01*
X61208228Y-84271703D01*
G37*
G36*
X76448228Y-84271703D02*
G01*
X76603100Y-84335853D01*
X76742481Y-84428985D01*
X76861015Y-84547519D01*
X76954147Y-84686900D01*
X77018297Y-84841772D01*
X77051000Y-85006184D01*
X77051000Y-85173816D01*
X77018297Y-85338228D01*
X76954147Y-85493100D01*
X76861015Y-85632481D01*
X76742481Y-85751015D01*
X76603100Y-85844147D01*
X76448228Y-85908297D01*
X76283816Y-85941000D01*
X76116184Y-85941000D01*
X75951772Y-85908297D01*
X75796900Y-85844147D01*
X75657519Y-85751015D01*
X75538985Y-85632481D01*
X75445853Y-85493100D01*
X75381703Y-85338228D01*
X75349000Y-85173816D01*
X75349000Y-85006184D01*
X75381703Y-84841772D01*
X75445853Y-84686900D01*
X75538985Y-84547519D01*
X75657519Y-84428985D01*
X75796900Y-84335853D01*
X75951772Y-84271703D01*
X76116184Y-84239000D01*
X76283816Y-84239000D01*
X76448228Y-84271703D01*
G37*
G36*
X91688228Y-82651703D02*
G01*
X91843100Y-82715853D01*
X91982481Y-82808985D01*
X92101015Y-82927519D01*
X92194147Y-83066900D01*
X92258297Y-83221772D01*
X92291000Y-83386184D01*
X92291000Y-83553816D01*
X92258297Y-83718228D01*
X92194147Y-83873100D01*
X92101015Y-84012481D01*
X91982481Y-84131015D01*
X91843100Y-84224147D01*
X91688228Y-84288297D01*
X91523816Y-84321000D01*
X91356184Y-84321000D01*
X91191772Y-84288297D01*
X91036900Y-84224147D01*
X90897519Y-84131015D01*
X90778985Y-84012481D01*
X90685853Y-83873100D01*
X90621703Y-83718228D01*
X90589000Y-83553816D01*
X90589000Y-83386184D01*
X90621703Y-83221772D01*
X90685853Y-83066900D01*
X90778985Y-82927519D01*
X90897519Y-82808985D01*
X91036900Y-82715853D01*
X91191772Y-82651703D01*
X91356184Y-82619000D01*
X91523816Y-82619000D01*
X91688228Y-82651703D01*
G37*
G36*
X86676153Y-81455922D02*
G01*
X86768194Y-81494047D01*
X86898359Y-81547963D01*
X87098342Y-81681587D01*
X87268413Y-81851658D01*
X87402037Y-82051641D01*
X87441496Y-82146903D01*
X87494078Y-82273847D01*
X87541000Y-82509742D01*
X87541000Y-82750258D01*
X87500653Y-82953100D01*
X87494078Y-82986152D01*
X87402037Y-83208359D01*
X87268413Y-83408342D01*
X87098342Y-83578413D01*
X86898359Y-83712037D01*
X86768194Y-83765953D01*
X86676153Y-83804078D01*
X86440259Y-83851000D01*
X86199741Y-83851000D01*
X85963847Y-83804078D01*
X85871806Y-83765953D01*
X85741641Y-83712037D01*
X85541658Y-83578413D01*
X85371587Y-83408342D01*
X85237963Y-83208359D01*
X85145922Y-82986152D01*
X85139348Y-82953100D01*
X85099000Y-82750258D01*
X85099000Y-82509742D01*
X85145922Y-82273847D01*
X85198504Y-82146903D01*
X85237963Y-82051641D01*
X85371587Y-81851658D01*
X85541658Y-81681587D01*
X85741641Y-81547963D01*
X85871806Y-81494047D01*
X85963847Y-81455922D01*
X86199741Y-81409000D01*
X86440259Y-81409000D01*
X86676153Y-81455922D01*
G37*
G36*
X81676153Y-81455922D02*
G01*
X81768194Y-81494047D01*
X81898359Y-81547963D01*
X82098342Y-81681587D01*
X82268413Y-81851658D01*
X82402037Y-82051641D01*
X82441496Y-82146903D01*
X82494078Y-82273847D01*
X82541000Y-82509742D01*
X82541000Y-82750258D01*
X82500653Y-82953100D01*
X82494078Y-82986152D01*
X82402037Y-83208359D01*
X82268413Y-83408342D01*
X82098342Y-83578413D01*
X81898359Y-83712037D01*
X81768194Y-83765953D01*
X81676153Y-83804078D01*
X81440259Y-83851000D01*
X81199741Y-83851000D01*
X80963847Y-83804078D01*
X80871806Y-83765953D01*
X80741641Y-83712037D01*
X80541658Y-83578413D01*
X80371587Y-83408342D01*
X80237963Y-83208359D01*
X80145922Y-82986152D01*
X80139348Y-82953100D01*
X80099000Y-82750258D01*
X80099000Y-82509742D01*
X80145922Y-82273847D01*
X80198504Y-82146903D01*
X80237963Y-82051641D01*
X80371587Y-81851658D01*
X80541658Y-81681587D01*
X80741641Y-81547963D01*
X80871806Y-81494047D01*
X80963847Y-81455922D01*
X81199741Y-81409000D01*
X81440259Y-81409000D01*
X81676153Y-81455922D01*
G37*
G36*
X76448228Y-81731703D02*
G01*
X76603100Y-81795853D01*
X76742481Y-81888985D01*
X76861015Y-82007519D01*
X76954147Y-82146900D01*
X77018297Y-82301772D01*
X77051000Y-82466184D01*
X77051000Y-82633816D01*
X77018297Y-82798228D01*
X76954147Y-82953100D01*
X76861015Y-83092481D01*
X76742481Y-83211015D01*
X76603100Y-83304147D01*
X76448228Y-83368297D01*
X76283816Y-83401000D01*
X76116184Y-83401000D01*
X75951772Y-83368297D01*
X75796900Y-83304147D01*
X75657519Y-83211015D01*
X75538985Y-83092481D01*
X75445853Y-82953100D01*
X75381703Y-82798228D01*
X75349000Y-82633816D01*
X75349000Y-82466184D01*
X75381703Y-82301772D01*
X75445853Y-82146900D01*
X75538985Y-82007519D01*
X75657519Y-81888985D01*
X75796900Y-81795853D01*
X75951772Y-81731703D01*
X76116184Y-81699000D01*
X76283816Y-81699000D01*
X76448228Y-81731703D01*
G37*
G36*
X61208228Y-81731703D02*
G01*
X61363100Y-81795853D01*
X61502481Y-81888985D01*
X61621015Y-82007519D01*
X61714147Y-82146900D01*
X61778297Y-82301772D01*
X61811000Y-82466184D01*
X61811000Y-82633816D01*
X61778297Y-82798228D01*
X61714147Y-82953100D01*
X61621015Y-83092481D01*
X61502481Y-83211015D01*
X61363100Y-83304147D01*
X61208228Y-83368297D01*
X61043816Y-83401000D01*
X60876184Y-83401000D01*
X60711772Y-83368297D01*
X60556900Y-83304147D01*
X60417519Y-83211015D01*
X60298985Y-83092481D01*
X60205853Y-82953100D01*
X60141703Y-82798228D01*
X60109000Y-82633816D01*
X60109000Y-82466184D01*
X60141703Y-82301772D01*
X60205853Y-82146900D01*
X60298985Y-82007519D01*
X60417519Y-81888985D01*
X60556900Y-81795853D01*
X60711772Y-81731703D01*
X60876184Y-81699000D01*
X61043816Y-81699000D01*
X61208228Y-81731703D01*
G37*
G36*
X94528228Y-81266703D02*
G01*
X94683100Y-81330853D01*
X94822481Y-81423985D01*
X94941015Y-81542519D01*
X95034147Y-81681900D01*
X95098297Y-81836772D01*
X95131000Y-82001184D01*
X95131000Y-82168816D01*
X95098297Y-82333228D01*
X95034147Y-82488100D01*
X94941015Y-82627481D01*
X94822481Y-82746015D01*
X94683100Y-82839147D01*
X94528228Y-82903297D01*
X94363816Y-82936000D01*
X94196184Y-82936000D01*
X94031772Y-82903297D01*
X93876900Y-82839147D01*
X93737519Y-82746015D01*
X93618985Y-82627481D01*
X93525853Y-82488100D01*
X93461703Y-82333228D01*
X93429000Y-82168816D01*
X93429000Y-82001184D01*
X93461703Y-81836772D01*
X93525853Y-81681900D01*
X93618985Y-81542519D01*
X93737519Y-81423985D01*
X93876900Y-81330853D01*
X94031772Y-81266703D01*
X94196184Y-81234000D01*
X94363816Y-81234000D01*
X94528228Y-81266703D01*
G37*
G36*
X71888604Y-80738347D02*
G01*
X71925144Y-80749432D01*
X71958821Y-80767433D01*
X71988341Y-80791659D01*
X72012567Y-80821179D01*
X72030568Y-80854856D01*
X72041653Y-80891396D01*
X72046000Y-80935538D01*
X72046000Y-81884462D01*
X72041653Y-81928604D01*
X72030568Y-81965144D01*
X72012567Y-81998821D01*
X71988341Y-82028341D01*
X71958821Y-82052567D01*
X71925144Y-82070568D01*
X71888604Y-82081653D01*
X71844462Y-82086000D01*
X70395538Y-82086000D01*
X70351396Y-82081653D01*
X70314856Y-82070568D01*
X70281179Y-82052567D01*
X70251659Y-82028341D01*
X70227433Y-81998821D01*
X70209432Y-81965144D01*
X70198347Y-81928604D01*
X70194000Y-81884462D01*
X70194000Y-80935538D01*
X70198347Y-80891396D01*
X70209432Y-80854856D01*
X70227433Y-80821179D01*
X70251659Y-80791659D01*
X70281179Y-80767433D01*
X70314856Y-80749432D01*
X70351396Y-80738347D01*
X70395538Y-80734000D01*
X71844462Y-80734000D01*
X71888604Y-80738347D01*
G37*
G36*
X69348604Y-80738347D02*
G01*
X69385144Y-80749432D01*
X69418821Y-80767433D01*
X69448341Y-80791659D01*
X69472567Y-80821179D01*
X69490568Y-80854856D01*
X69501653Y-80891396D01*
X69506000Y-80935538D01*
X69506000Y-81884462D01*
X69501653Y-81928604D01*
X69490568Y-81965144D01*
X69472567Y-81998821D01*
X69448341Y-82028341D01*
X69418821Y-82052567D01*
X69385144Y-82070568D01*
X69348604Y-82081653D01*
X69304462Y-82086000D01*
X67855538Y-82086000D01*
X67811396Y-82081653D01*
X67774856Y-82070568D01*
X67741179Y-82052567D01*
X67711659Y-82028341D01*
X67687433Y-81998821D01*
X67669432Y-81965144D01*
X67658347Y-81928604D01*
X67654000Y-81884462D01*
X67654000Y-80935538D01*
X67658347Y-80891396D01*
X67669432Y-80854856D01*
X67687433Y-80821179D01*
X67711659Y-80791659D01*
X67741179Y-80767433D01*
X67774856Y-80749432D01*
X67811396Y-80738347D01*
X67855538Y-80734000D01*
X69304462Y-80734000D01*
X69348604Y-80738347D01*
G37*
G36*
X91688228Y-79881703D02*
G01*
X91843100Y-79945853D01*
X91982481Y-80038985D01*
X92101015Y-80157519D01*
X92194147Y-80296900D01*
X92258297Y-80451772D01*
X92291000Y-80616184D01*
X92291000Y-80783816D01*
X92258297Y-80948228D01*
X92194147Y-81103100D01*
X92101015Y-81242481D01*
X91982481Y-81361015D01*
X91843100Y-81454147D01*
X91688228Y-81518297D01*
X91523816Y-81551000D01*
X91356184Y-81551000D01*
X91191772Y-81518297D01*
X91036900Y-81454147D01*
X90897519Y-81361015D01*
X90778985Y-81242481D01*
X90685853Y-81103100D01*
X90621703Y-80948228D01*
X90589000Y-80783816D01*
X90589000Y-80616184D01*
X90621703Y-80451772D01*
X90685853Y-80296900D01*
X90778985Y-80157519D01*
X90897519Y-80038985D01*
X91036900Y-79945853D01*
X91191772Y-79881703D01*
X91356184Y-79849000D01*
X91523816Y-79849000D01*
X91688228Y-79881703D01*
G37*
G36*
X61208228Y-79191703D02*
G01*
X61363100Y-79255853D01*
X61502481Y-79348985D01*
X61621015Y-79467519D01*
X61714147Y-79606900D01*
X61778297Y-79761772D01*
X61811000Y-79926184D01*
X61811000Y-80093816D01*
X61778297Y-80258228D01*
X61714147Y-80413100D01*
X61621015Y-80552481D01*
X61502481Y-80671015D01*
X61363100Y-80764147D01*
X61208228Y-80828297D01*
X61043816Y-80861000D01*
X60876184Y-80861000D01*
X60711772Y-80828297D01*
X60556900Y-80764147D01*
X60417519Y-80671015D01*
X60298985Y-80552481D01*
X60205853Y-80413100D01*
X60141703Y-80258228D01*
X60109000Y-80093816D01*
X60109000Y-79926184D01*
X60141703Y-79761772D01*
X60205853Y-79606900D01*
X60298985Y-79467519D01*
X60417519Y-79348985D01*
X60556900Y-79255853D01*
X60711772Y-79191703D01*
X60876184Y-79159000D01*
X61043816Y-79159000D01*
X61208228Y-79191703D01*
G37*
G36*
X76448228Y-79191703D02*
G01*
X76603100Y-79255853D01*
X76742481Y-79348985D01*
X76861015Y-79467519D01*
X76954147Y-79606900D01*
X77018297Y-79761772D01*
X77051000Y-79926184D01*
X77051000Y-80093816D01*
X77018297Y-80258228D01*
X76954147Y-80413100D01*
X76861015Y-80552481D01*
X76742481Y-80671015D01*
X76603100Y-80764147D01*
X76448228Y-80828297D01*
X76283816Y-80861000D01*
X76116184Y-80861000D01*
X75951772Y-80828297D01*
X75796900Y-80764147D01*
X75657519Y-80671015D01*
X75538985Y-80552481D01*
X75445853Y-80413100D01*
X75381703Y-80258228D01*
X75349000Y-80093816D01*
X75349000Y-79926184D01*
X75381703Y-79761772D01*
X75445853Y-79606900D01*
X75538985Y-79467519D01*
X75657519Y-79348985D01*
X75796900Y-79255853D01*
X75951772Y-79191703D01*
X76116184Y-79159000D01*
X76283816Y-79159000D01*
X76448228Y-79191703D01*
G37*
G36*
X94528228Y-78496703D02*
G01*
X94683100Y-78560853D01*
X94822481Y-78653985D01*
X94941015Y-78772519D01*
X95034147Y-78911900D01*
X95098297Y-79066772D01*
X95131000Y-79231184D01*
X95131000Y-79398816D01*
X95098297Y-79563228D01*
X95034147Y-79718100D01*
X94941015Y-79857481D01*
X94822481Y-79976015D01*
X94683100Y-80069147D01*
X94528228Y-80133297D01*
X94363816Y-80166000D01*
X94196184Y-80166000D01*
X94031772Y-80133297D01*
X93876900Y-80069147D01*
X93737519Y-79976015D01*
X93618985Y-79857481D01*
X93525853Y-79718100D01*
X93461703Y-79563228D01*
X93429000Y-79398816D01*
X93429000Y-79231184D01*
X93461703Y-79066772D01*
X93525853Y-78911900D01*
X93618985Y-78772519D01*
X93737519Y-78653985D01*
X93876900Y-78560853D01*
X94031772Y-78496703D01*
X94196184Y-78464000D01*
X94363816Y-78464000D01*
X94528228Y-78496703D01*
G37*
G36*
X69348604Y-77938347D02*
G01*
X69385144Y-77949432D01*
X69418821Y-77967433D01*
X69448341Y-77991659D01*
X69472567Y-78021179D01*
X69490568Y-78054856D01*
X69501653Y-78091396D01*
X69506000Y-78135538D01*
X69506000Y-79084462D01*
X69501653Y-79128604D01*
X69490568Y-79165144D01*
X69472567Y-79198821D01*
X69448341Y-79228341D01*
X69418821Y-79252567D01*
X69385144Y-79270568D01*
X69348604Y-79281653D01*
X69304462Y-79286000D01*
X67855538Y-79286000D01*
X67811396Y-79281653D01*
X67774856Y-79270568D01*
X67741179Y-79252567D01*
X67711659Y-79228341D01*
X67687433Y-79198821D01*
X67669432Y-79165144D01*
X67658347Y-79128604D01*
X67654000Y-79084462D01*
X67654000Y-78135538D01*
X67658347Y-78091396D01*
X67669432Y-78054856D01*
X67687433Y-78021179D01*
X67711659Y-77991659D01*
X67741179Y-77967433D01*
X67774856Y-77949432D01*
X67811396Y-77938347D01*
X67855538Y-77934000D01*
X69304462Y-77934000D01*
X69348604Y-77938347D01*
G37*
G36*
X71888604Y-77938347D02*
G01*
X71925144Y-77949432D01*
X71958821Y-77967433D01*
X71988341Y-77991659D01*
X72012567Y-78021179D01*
X72030568Y-78054856D01*
X72041653Y-78091396D01*
X72046000Y-78135538D01*
X72046000Y-79084462D01*
X72041653Y-79128604D01*
X72030568Y-79165144D01*
X72012567Y-79198821D01*
X71988341Y-79228341D01*
X71958821Y-79252567D01*
X71925144Y-79270568D01*
X71888604Y-79281653D01*
X71844462Y-79286000D01*
X70395538Y-79286000D01*
X70351396Y-79281653D01*
X70314856Y-79270568D01*
X70281179Y-79252567D01*
X70251659Y-79228341D01*
X70227433Y-79198821D01*
X70209432Y-79165144D01*
X70198347Y-79128604D01*
X70194000Y-79084462D01*
X70194000Y-78135538D01*
X70198347Y-78091396D01*
X70209432Y-78054856D01*
X70227433Y-78021179D01*
X70251659Y-77991659D01*
X70281179Y-77967433D01*
X70314856Y-77949432D01*
X70351396Y-77938347D01*
X70395538Y-77934000D01*
X71844462Y-77934000D01*
X71888604Y-77938347D01*
G37*
G36*
X91688228Y-77111703D02*
G01*
X91843100Y-77175853D01*
X91982481Y-77268985D01*
X92101015Y-77387519D01*
X92194147Y-77526900D01*
X92258297Y-77681772D01*
X92291000Y-77846184D01*
X92291000Y-78013816D01*
X92258297Y-78178228D01*
X92194147Y-78333100D01*
X92101015Y-78472481D01*
X91982481Y-78591015D01*
X91843100Y-78684147D01*
X91688228Y-78748297D01*
X91523816Y-78781000D01*
X91356184Y-78781000D01*
X91191772Y-78748297D01*
X91036900Y-78684147D01*
X90897519Y-78591015D01*
X90778985Y-78472481D01*
X90685853Y-78333100D01*
X90621703Y-78178228D01*
X90589000Y-78013816D01*
X90589000Y-77846184D01*
X90621703Y-77681772D01*
X90685853Y-77526900D01*
X90778985Y-77387519D01*
X90897519Y-77268985D01*
X91036900Y-77175853D01*
X91191772Y-77111703D01*
X91356184Y-77079000D01*
X91523816Y-77079000D01*
X91688228Y-77111703D01*
G37*
G36*
X76448228Y-76651703D02*
G01*
X76603100Y-76715853D01*
X76742481Y-76808985D01*
X76861015Y-76927519D01*
X76954147Y-77066900D01*
X77018297Y-77221772D01*
X77051000Y-77386184D01*
X77051000Y-77553816D01*
X77018297Y-77718228D01*
X76954147Y-77873100D01*
X76861015Y-78012481D01*
X76742481Y-78131015D01*
X76603100Y-78224147D01*
X76448228Y-78288297D01*
X76283816Y-78321000D01*
X76116184Y-78321000D01*
X75951772Y-78288297D01*
X75796900Y-78224147D01*
X75657519Y-78131015D01*
X75538985Y-78012481D01*
X75445853Y-77873100D01*
X75381703Y-77718228D01*
X75349000Y-77553816D01*
X75349000Y-77386184D01*
X75381703Y-77221772D01*
X75445853Y-77066900D01*
X75538985Y-76927519D01*
X75657519Y-76808985D01*
X75796900Y-76715853D01*
X75951772Y-76651703D01*
X76116184Y-76619000D01*
X76283816Y-76619000D01*
X76448228Y-76651703D01*
G37*
G36*
X61208228Y-76651703D02*
G01*
X61363100Y-76715853D01*
X61502481Y-76808985D01*
X61621015Y-76927519D01*
X61714147Y-77066900D01*
X61778297Y-77221772D01*
X61811000Y-77386184D01*
X61811000Y-77553816D01*
X61778297Y-77718228D01*
X61714147Y-77873100D01*
X61621015Y-78012481D01*
X61502481Y-78131015D01*
X61363100Y-78224147D01*
X61208228Y-78288297D01*
X61043816Y-78321000D01*
X60876184Y-78321000D01*
X60711772Y-78288297D01*
X60556900Y-78224147D01*
X60417519Y-78131015D01*
X60298985Y-78012481D01*
X60205853Y-77873100D01*
X60141703Y-77718228D01*
X60109000Y-77553816D01*
X60109000Y-77386184D01*
X60141703Y-77221772D01*
X60205853Y-77066900D01*
X60298985Y-76927519D01*
X60417519Y-76808985D01*
X60556900Y-76715853D01*
X60711772Y-76651703D01*
X60876184Y-76619000D01*
X61043816Y-76619000D01*
X61208228Y-76651703D01*
G37*
G36*
X85202915Y-76677334D02*
G01*
X85311491Y-76710271D01*
X85311494Y-76710272D01*
X85347600Y-76729571D01*
X85411556Y-76763756D01*
X85499264Y-76835736D01*
X85571244Y-76923443D01*
X85605429Y-76987399D01*
X85624728Y-77023505D01*
X85624729Y-77023508D01*
X85657666Y-77132084D01*
X85666000Y-77216702D01*
X85666000Y-77723297D01*
X85657666Y-77807916D01*
X85625252Y-77914767D01*
X85624728Y-77916495D01*
X85605429Y-77952601D01*
X85571244Y-78016557D01*
X85499264Y-78104264D01*
X85411557Y-78176244D01*
X85358880Y-78204400D01*
X85311495Y-78229728D01*
X85311492Y-78229729D01*
X85202916Y-78262666D01*
X85090000Y-78273787D01*
X84977085Y-78262666D01*
X84868509Y-78229729D01*
X84868506Y-78229728D01*
X84821121Y-78204400D01*
X84768444Y-78176244D01*
X84680737Y-78104264D01*
X84608757Y-78016557D01*
X84590426Y-77982263D01*
X84565239Y-77935141D01*
X84551625Y-77914766D01*
X84534298Y-77897439D01*
X84513924Y-77883826D01*
X84491285Y-77874448D01*
X84467252Y-77869668D01*
X84442748Y-77869668D01*
X84418715Y-77874448D01*
X84396076Y-77883826D01*
X84375701Y-77897440D01*
X84358374Y-77914767D01*
X84344761Y-77935141D01*
X84301244Y-78016557D01*
X84229264Y-78104264D01*
X84141557Y-78176244D01*
X84088880Y-78204400D01*
X84041495Y-78229728D01*
X84041492Y-78229729D01*
X83932916Y-78262666D01*
X83820000Y-78273787D01*
X83707085Y-78262666D01*
X83598509Y-78229729D01*
X83598506Y-78229728D01*
X83551121Y-78204400D01*
X83498444Y-78176244D01*
X83410737Y-78104264D01*
X83347622Y-78027359D01*
X83330297Y-78010034D01*
X83309923Y-77996420D01*
X83287284Y-77987043D01*
X83263250Y-77982263D01*
X83238746Y-77982263D01*
X83214713Y-77987044D01*
X83192074Y-77996421D01*
X83171700Y-78010035D01*
X83154373Y-78027362D01*
X83140759Y-78047736D01*
X83131382Y-78070375D01*
X83126000Y-78106660D01*
X83126000Y-78271000D01*
X81974000Y-78271000D01*
X81974000Y-76669000D01*
X83126000Y-76669000D01*
X83126000Y-76833341D01*
X83128402Y-76857727D01*
X83135515Y-76881176D01*
X83147066Y-76902787D01*
X83162611Y-76921729D01*
X83181553Y-76937274D01*
X83203164Y-76948825D01*
X83226613Y-76955938D01*
X83250999Y-76958340D01*
X83275385Y-76955938D01*
X83298834Y-76948825D01*
X83320445Y-76937274D01*
X83339387Y-76921729D01*
X83347608Y-76912657D01*
X83410736Y-76835736D01*
X83498443Y-76763756D01*
X83562399Y-76729571D01*
X83598505Y-76710272D01*
X83598508Y-76710271D01*
X83707084Y-76677334D01*
X83820000Y-76666213D01*
X83932915Y-76677334D01*
X84041491Y-76710271D01*
X84041494Y-76710272D01*
X84077600Y-76729571D01*
X84141556Y-76763756D01*
X84229264Y-76835736D01*
X84301244Y-76923443D01*
X84344761Y-77004859D01*
X84358375Y-77025234D01*
X84375702Y-77042561D01*
X84396076Y-77056174D01*
X84418715Y-77065552D01*
X84442748Y-77070332D01*
X84467252Y-77070332D01*
X84491285Y-77065552D01*
X84513924Y-77056174D01*
X84534299Y-77042560D01*
X84551626Y-77025233D01*
X84565239Y-77004860D01*
X84608756Y-76923444D01*
X84680736Y-76835736D01*
X84768443Y-76763756D01*
X84832399Y-76729571D01*
X84868505Y-76710272D01*
X84868508Y-76710271D01*
X84977084Y-76677334D01*
X85090000Y-76666213D01*
X85202915Y-76677334D01*
G37*
G36*
X94528228Y-75726703D02*
G01*
X94683100Y-75790853D01*
X94822481Y-75883985D01*
X94941015Y-76002519D01*
X95034147Y-76141900D01*
X95098297Y-76296772D01*
X95131000Y-76461184D01*
X95131000Y-76628816D01*
X95098297Y-76793228D01*
X95034147Y-76948100D01*
X94941015Y-77087481D01*
X94822481Y-77206015D01*
X94683100Y-77299147D01*
X94528228Y-77363297D01*
X94363816Y-77396000D01*
X94196184Y-77396000D01*
X94031772Y-77363297D01*
X93876900Y-77299147D01*
X93737519Y-77206015D01*
X93618985Y-77087481D01*
X93525853Y-76948100D01*
X93461703Y-76793228D01*
X93429000Y-76628816D01*
X93429000Y-76461184D01*
X93461703Y-76296772D01*
X93525853Y-76141900D01*
X93618985Y-76002519D01*
X93737519Y-75883985D01*
X93876900Y-75790853D01*
X94031772Y-75726703D01*
X94196184Y-75694000D01*
X94363816Y-75694000D01*
X94528228Y-75726703D01*
G37*
G36*
X68968604Y-75278347D02*
G01*
X69005144Y-75289432D01*
X69038821Y-75307433D01*
X69068341Y-75331659D01*
X69092567Y-75361179D01*
X69110568Y-75394856D01*
X69121653Y-75431396D01*
X69126000Y-75475538D01*
X69126000Y-76924462D01*
X69121653Y-76968604D01*
X69110568Y-77005144D01*
X69092567Y-77038821D01*
X69068341Y-77068341D01*
X69038821Y-77092567D01*
X69005144Y-77110568D01*
X68968604Y-77121653D01*
X68924462Y-77126000D01*
X67975538Y-77126000D01*
X67931396Y-77121653D01*
X67894856Y-77110568D01*
X67861179Y-77092567D01*
X67831659Y-77068341D01*
X67807433Y-77038821D01*
X67789432Y-77005144D01*
X67778347Y-76968604D01*
X67774000Y-76924462D01*
X67774000Y-75475538D01*
X67778347Y-75431396D01*
X67789432Y-75394856D01*
X67807433Y-75361179D01*
X67831659Y-75331659D01*
X67861179Y-75307433D01*
X67894856Y-75289432D01*
X67931396Y-75278347D01*
X67975538Y-75274000D01*
X68924462Y-75274000D01*
X68968604Y-75278347D01*
G37*
G36*
X71768604Y-75278347D02*
G01*
X71805144Y-75289432D01*
X71838821Y-75307433D01*
X71868341Y-75331659D01*
X71892567Y-75361179D01*
X71910568Y-75394856D01*
X71921653Y-75431396D01*
X71926000Y-75475538D01*
X71926000Y-76924462D01*
X71921653Y-76968604D01*
X71910568Y-77005144D01*
X71892567Y-77038821D01*
X71868341Y-77068341D01*
X71838821Y-77092567D01*
X71805144Y-77110568D01*
X71768604Y-77121653D01*
X71724462Y-77126000D01*
X70775538Y-77126000D01*
X70731396Y-77121653D01*
X70694856Y-77110568D01*
X70661179Y-77092567D01*
X70631659Y-77068341D01*
X70607433Y-77038821D01*
X70589432Y-77005144D01*
X70578347Y-76968604D01*
X70574000Y-76924462D01*
X70574000Y-75475538D01*
X70578347Y-75431396D01*
X70589432Y-75394856D01*
X70607433Y-75361179D01*
X70631659Y-75331659D01*
X70661179Y-75307433D01*
X70694856Y-75289432D01*
X70731396Y-75278347D01*
X70775538Y-75274000D01*
X71724462Y-75274000D01*
X71768604Y-75278347D01*
G37*
G36*
X91688228Y-74341703D02*
G01*
X91843100Y-74405853D01*
X91982481Y-74498985D01*
X92101015Y-74617519D01*
X92194147Y-74756900D01*
X92258297Y-74911772D01*
X92291000Y-75076184D01*
X92291000Y-75243816D01*
X92258297Y-75408228D01*
X92194147Y-75563100D01*
X92101015Y-75702481D01*
X91982481Y-75821015D01*
X91843100Y-75914147D01*
X91688228Y-75978297D01*
X91523816Y-76011000D01*
X91356184Y-76011000D01*
X91191772Y-75978297D01*
X91036900Y-75914147D01*
X90897519Y-75821015D01*
X90778985Y-75702481D01*
X90685853Y-75563100D01*
X90621703Y-75408228D01*
X90589000Y-75243816D01*
X90589000Y-75076184D01*
X90621703Y-74911772D01*
X90685853Y-74756900D01*
X90778985Y-74617519D01*
X90897519Y-74498985D01*
X91036900Y-74405853D01*
X91191772Y-74341703D01*
X91356184Y-74309000D01*
X91523816Y-74309000D01*
X91688228Y-74341703D01*
G37*
G36*
X84208604Y-74008347D02*
G01*
X84245144Y-74019432D01*
X84278821Y-74037433D01*
X84308341Y-74061659D01*
X84332567Y-74091179D01*
X84350568Y-74124856D01*
X84361653Y-74161396D01*
X84366000Y-74205538D01*
X84366000Y-75654462D01*
X84361653Y-75698604D01*
X84350568Y-75735144D01*
X84332567Y-75768821D01*
X84308341Y-75798341D01*
X84278821Y-75822567D01*
X84245144Y-75840568D01*
X84208604Y-75851653D01*
X84164462Y-75856000D01*
X83215538Y-75856000D01*
X83171396Y-75851653D01*
X83134856Y-75840568D01*
X83101179Y-75822567D01*
X83071659Y-75798341D01*
X83047433Y-75768821D01*
X83029432Y-75735144D01*
X83018347Y-75698604D01*
X83014000Y-75654462D01*
X83014000Y-74205538D01*
X83018347Y-74161396D01*
X83029432Y-74124856D01*
X83047433Y-74091179D01*
X83071659Y-74061659D01*
X83101179Y-74037433D01*
X83134856Y-74019432D01*
X83171396Y-74008347D01*
X83215538Y-74004000D01*
X84164462Y-74004000D01*
X84208604Y-74008347D01*
G37*
G36*
X87008604Y-74008347D02*
G01*
X87045144Y-74019432D01*
X87078821Y-74037433D01*
X87108341Y-74061659D01*
X87132567Y-74091179D01*
X87150568Y-74124856D01*
X87161653Y-74161396D01*
X87166000Y-74205538D01*
X87166000Y-75654462D01*
X87161653Y-75698604D01*
X87150568Y-75735144D01*
X87132567Y-75768821D01*
X87108341Y-75798341D01*
X87078821Y-75822567D01*
X87045144Y-75840568D01*
X87008604Y-75851653D01*
X86964462Y-75856000D01*
X86015538Y-75856000D01*
X85971396Y-75851653D01*
X85934856Y-75840568D01*
X85901179Y-75822567D01*
X85871659Y-75798341D01*
X85847433Y-75768821D01*
X85829432Y-75735144D01*
X85818347Y-75698604D01*
X85814000Y-75654462D01*
X85814000Y-74205538D01*
X85818347Y-74161396D01*
X85829432Y-74124856D01*
X85847433Y-74091179D01*
X85871659Y-74061659D01*
X85901179Y-74037433D01*
X85934856Y-74019432D01*
X85971396Y-74008347D01*
X86015538Y-74004000D01*
X86964462Y-74004000D01*
X87008604Y-74008347D01*
G37*
G36*
X76448228Y-74111703D02*
G01*
X76603100Y-74175853D01*
X76742481Y-74268985D01*
X76861015Y-74387519D01*
X76954147Y-74526900D01*
X77018297Y-74681772D01*
X77051000Y-74846184D01*
X77051000Y-75013816D01*
X77018297Y-75178228D01*
X76954147Y-75333100D01*
X76861015Y-75472481D01*
X76742481Y-75591015D01*
X76603100Y-75684147D01*
X76448228Y-75748297D01*
X76283816Y-75781000D01*
X76116184Y-75781000D01*
X75951772Y-75748297D01*
X75796900Y-75684147D01*
X75657519Y-75591015D01*
X75538985Y-75472481D01*
X75445853Y-75333100D01*
X75381703Y-75178228D01*
X75349000Y-75013816D01*
X75349000Y-74846184D01*
X75381703Y-74681772D01*
X75445853Y-74526900D01*
X75538985Y-74387519D01*
X75657519Y-74268985D01*
X75796900Y-74175853D01*
X75951772Y-74111703D01*
X76116184Y-74079000D01*
X76283816Y-74079000D01*
X76448228Y-74111703D01*
G37*
G36*
X61208228Y-74111703D02*
G01*
X61363100Y-74175853D01*
X61502481Y-74268985D01*
X61621015Y-74387519D01*
X61714147Y-74526900D01*
X61778297Y-74681772D01*
X61811000Y-74846184D01*
X61811000Y-75013816D01*
X61778297Y-75178228D01*
X61714147Y-75333100D01*
X61621015Y-75472481D01*
X61502481Y-75591015D01*
X61363100Y-75684147D01*
X61208228Y-75748297D01*
X61043816Y-75781000D01*
X60876184Y-75781000D01*
X60711772Y-75748297D01*
X60556900Y-75684147D01*
X60417519Y-75591015D01*
X60298985Y-75472481D01*
X60205853Y-75333100D01*
X60141703Y-75178228D01*
X60109000Y-75013816D01*
X60109000Y-74846184D01*
X60141703Y-74681772D01*
X60205853Y-74526900D01*
X60298985Y-74387519D01*
X60417519Y-74268985D01*
X60556900Y-74175853D01*
X60711772Y-74111703D01*
X60876184Y-74079000D01*
X61043816Y-74079000D01*
X61208228Y-74111703D01*
G37*
G36*
X94528228Y-72956703D02*
G01*
X94683100Y-73020853D01*
X94822481Y-73113985D01*
X94941015Y-73232519D01*
X95034147Y-73371900D01*
X95098297Y-73526772D01*
X95131000Y-73691184D01*
X95131000Y-73858816D01*
X95098297Y-74023228D01*
X95034147Y-74178100D01*
X94941015Y-74317481D01*
X94822481Y-74436015D01*
X94683100Y-74529147D01*
X94528228Y-74593297D01*
X94363816Y-74626000D01*
X94196184Y-74626000D01*
X94031772Y-74593297D01*
X93876900Y-74529147D01*
X93737519Y-74436015D01*
X93618985Y-74317481D01*
X93525853Y-74178100D01*
X93461703Y-74023228D01*
X93429000Y-73858816D01*
X93429000Y-73691184D01*
X93461703Y-73526772D01*
X93525853Y-73371900D01*
X93618985Y-73232519D01*
X93737519Y-73113985D01*
X93876900Y-73020853D01*
X94031772Y-72956703D01*
X94196184Y-72924000D01*
X94363816Y-72924000D01*
X94528228Y-72956703D01*
G37*
G36*
X71768604Y-72738347D02*
G01*
X71805144Y-72749432D01*
X71838821Y-72767433D01*
X71868341Y-72791659D01*
X71892567Y-72821179D01*
X71910568Y-72854856D01*
X71921653Y-72891396D01*
X71926000Y-72935538D01*
X71926000Y-74384462D01*
X71921653Y-74428604D01*
X71910568Y-74465144D01*
X71892567Y-74498821D01*
X71868341Y-74528341D01*
X71838821Y-74552567D01*
X71805144Y-74570568D01*
X71768604Y-74581653D01*
X71724462Y-74586000D01*
X70775538Y-74586000D01*
X70731396Y-74581653D01*
X70694856Y-74570568D01*
X70661179Y-74552567D01*
X70631659Y-74528341D01*
X70607433Y-74498821D01*
X70589432Y-74465144D01*
X70578347Y-74428604D01*
X70574000Y-74384462D01*
X70574000Y-72935538D01*
X70578347Y-72891396D01*
X70589432Y-72854856D01*
X70607433Y-72821179D01*
X70631659Y-72791659D01*
X70661179Y-72767433D01*
X70694856Y-72749432D01*
X70731396Y-72738347D01*
X70775538Y-72734000D01*
X71724462Y-72734000D01*
X71768604Y-72738347D01*
G37*
G36*
X68968604Y-72738347D02*
G01*
X69005144Y-72749432D01*
X69038821Y-72767433D01*
X69068341Y-72791659D01*
X69092567Y-72821179D01*
X69110568Y-72854856D01*
X69121653Y-72891396D01*
X69126000Y-72935538D01*
X69126000Y-74384462D01*
X69121653Y-74428604D01*
X69110568Y-74465144D01*
X69092567Y-74498821D01*
X69068341Y-74528341D01*
X69038821Y-74552567D01*
X69005144Y-74570568D01*
X68968604Y-74581653D01*
X68924462Y-74586000D01*
X67975538Y-74586000D01*
X67931396Y-74581653D01*
X67894856Y-74570568D01*
X67861179Y-74552567D01*
X67831659Y-74528341D01*
X67807433Y-74498821D01*
X67789432Y-74465144D01*
X67778347Y-74428604D01*
X67774000Y-74384462D01*
X67774000Y-72935538D01*
X67778347Y-72891396D01*
X67789432Y-72854856D01*
X67807433Y-72821179D01*
X67831659Y-72791659D01*
X67861179Y-72767433D01*
X67894856Y-72749432D01*
X67931396Y-72738347D01*
X67975538Y-72734000D01*
X68924462Y-72734000D01*
X68968604Y-72738347D01*
G37*
G36*
X92291000Y-73241000D02*
G01*
X90589000Y-73241000D01*
X90589000Y-71539000D01*
X92291000Y-71539000D01*
X92291000Y-73241000D01*
G37*
G36*
X61208228Y-71571703D02*
G01*
X61363100Y-71635853D01*
X61502481Y-71728985D01*
X61621015Y-71847519D01*
X61714147Y-71986900D01*
X61778297Y-72141772D01*
X61811000Y-72306184D01*
X61811000Y-72473816D01*
X61778297Y-72638228D01*
X61714147Y-72793100D01*
X61621015Y-72932481D01*
X61502481Y-73051015D01*
X61363100Y-73144147D01*
X61208228Y-73208297D01*
X61043816Y-73241000D01*
X60876184Y-73241000D01*
X60711772Y-73208297D01*
X60556900Y-73144147D01*
X60417519Y-73051015D01*
X60298985Y-72932481D01*
X60205853Y-72793100D01*
X60141703Y-72638228D01*
X60109000Y-72473816D01*
X60109000Y-72306184D01*
X60141703Y-72141772D01*
X60205853Y-71986900D01*
X60298985Y-71847519D01*
X60417519Y-71728985D01*
X60556900Y-71635853D01*
X60711772Y-71571703D01*
X60876184Y-71539000D01*
X61043816Y-71539000D01*
X61208228Y-71571703D01*
G37*
G36*
X76448228Y-71571703D02*
G01*
X76603100Y-71635853D01*
X76742481Y-71728985D01*
X76861015Y-71847519D01*
X76954147Y-71986900D01*
X77018297Y-72141772D01*
X77051000Y-72306184D01*
X77051000Y-72473816D01*
X77018297Y-72638228D01*
X76954147Y-72793100D01*
X76861015Y-72932481D01*
X76742481Y-73051015D01*
X76603100Y-73144147D01*
X76448228Y-73208297D01*
X76283816Y-73241000D01*
X76116184Y-73241000D01*
X75951772Y-73208297D01*
X75796900Y-73144147D01*
X75657519Y-73051015D01*
X75538985Y-72932481D01*
X75445853Y-72793100D01*
X75381703Y-72638228D01*
X75349000Y-72473816D01*
X75349000Y-72306184D01*
X75381703Y-72141772D01*
X75445853Y-71986900D01*
X75538985Y-71847519D01*
X75657519Y-71728985D01*
X75796900Y-71635853D01*
X75951772Y-71571703D01*
X76116184Y-71539000D01*
X76283816Y-71539000D01*
X76448228Y-71571703D01*
G37*
G36*
X71768604Y-68928347D02*
G01*
X71805144Y-68939432D01*
X71838821Y-68957433D01*
X71868341Y-68981659D01*
X71892567Y-69011179D01*
X71910568Y-69044856D01*
X71921653Y-69081396D01*
X71926000Y-69125538D01*
X71926000Y-70574462D01*
X71921653Y-70618604D01*
X71910568Y-70655144D01*
X71892567Y-70688821D01*
X71868341Y-70718341D01*
X71838821Y-70742567D01*
X71805144Y-70760568D01*
X71768604Y-70771653D01*
X71724462Y-70776000D01*
X70775538Y-70776000D01*
X70731396Y-70771653D01*
X70694856Y-70760568D01*
X70661179Y-70742567D01*
X70631659Y-70718341D01*
X70607433Y-70688821D01*
X70589432Y-70655144D01*
X70578347Y-70618604D01*
X70574000Y-70574462D01*
X70574000Y-69125538D01*
X70578347Y-69081396D01*
X70589432Y-69044856D01*
X70607433Y-69011179D01*
X70631659Y-68981659D01*
X70661179Y-68957433D01*
X70694856Y-68939432D01*
X70731396Y-68928347D01*
X70775538Y-68924000D01*
X71724462Y-68924000D01*
X71768604Y-68928347D01*
G37*
G36*
X68968604Y-68928347D02*
G01*
X69005144Y-68939432D01*
X69038821Y-68957433D01*
X69068341Y-68981659D01*
X69092567Y-69011179D01*
X69110568Y-69044856D01*
X69121653Y-69081396D01*
X69126000Y-69125538D01*
X69126000Y-70574462D01*
X69121653Y-70618604D01*
X69110568Y-70655144D01*
X69092567Y-70688821D01*
X69068341Y-70718341D01*
X69038821Y-70742567D01*
X69005144Y-70760568D01*
X68968604Y-70771653D01*
X68924462Y-70776000D01*
X67975538Y-70776000D01*
X67931396Y-70771653D01*
X67894856Y-70760568D01*
X67861179Y-70742567D01*
X67831659Y-70718341D01*
X67807433Y-70688821D01*
X67789432Y-70655144D01*
X67778347Y-70618604D01*
X67774000Y-70574462D01*
X67774000Y-69125538D01*
X67778347Y-69081396D01*
X67789432Y-69044856D01*
X67807433Y-69011179D01*
X67831659Y-68981659D01*
X67861179Y-68957433D01*
X67894856Y-68939432D01*
X67931396Y-68928347D01*
X67975538Y-68924000D01*
X68924462Y-68924000D01*
X68968604Y-68928347D01*
G37*
G36*
X76448228Y-69031703D02*
G01*
X76603100Y-69095853D01*
X76742481Y-69188985D01*
X76861015Y-69307519D01*
X76954147Y-69446900D01*
X77018297Y-69601772D01*
X77051000Y-69766184D01*
X77051000Y-69933816D01*
X77018297Y-70098228D01*
X76954147Y-70253100D01*
X76861015Y-70392481D01*
X76742481Y-70511015D01*
X76603100Y-70604147D01*
X76448228Y-70668297D01*
X76283816Y-70701000D01*
X76116184Y-70701000D01*
X75951772Y-70668297D01*
X75796900Y-70604147D01*
X75657519Y-70511015D01*
X75538985Y-70392481D01*
X75445853Y-70253100D01*
X75381703Y-70098228D01*
X75349000Y-69933816D01*
X75349000Y-69766184D01*
X75381703Y-69601772D01*
X75445853Y-69446900D01*
X75538985Y-69307519D01*
X75657519Y-69188985D01*
X75796900Y-69095853D01*
X75951772Y-69031703D01*
X76116184Y-68999000D01*
X76283816Y-68999000D01*
X76448228Y-69031703D01*
G37*
G36*
X61208228Y-69031703D02*
G01*
X61363100Y-69095853D01*
X61502481Y-69188985D01*
X61621015Y-69307519D01*
X61714147Y-69446900D01*
X61778297Y-69601772D01*
X61811000Y-69766184D01*
X61811000Y-69933816D01*
X61778297Y-70098228D01*
X61714147Y-70253100D01*
X61621015Y-70392481D01*
X61502481Y-70511015D01*
X61363100Y-70604147D01*
X61208228Y-70668297D01*
X61043816Y-70701000D01*
X60876184Y-70701000D01*
X60711772Y-70668297D01*
X60556900Y-70604147D01*
X60417519Y-70511015D01*
X60298985Y-70392481D01*
X60205853Y-70253100D01*
X60141703Y-70098228D01*
X60109000Y-69933816D01*
X60109000Y-69766184D01*
X60141703Y-69601772D01*
X60205853Y-69446900D01*
X60298985Y-69307519D01*
X60417519Y-69188985D01*
X60556900Y-69095853D01*
X60711772Y-69031703D01*
X60876184Y-68999000D01*
X61043816Y-68999000D01*
X61208228Y-69031703D01*
G37*
G36*
X68968604Y-66388347D02*
G01*
X69005144Y-66399432D01*
X69038821Y-66417433D01*
X69068341Y-66441659D01*
X69092567Y-66471179D01*
X69110568Y-66504856D01*
X69121653Y-66541396D01*
X69126000Y-66585538D01*
X69126000Y-68034462D01*
X69121653Y-68078604D01*
X69110568Y-68115144D01*
X69092567Y-68148821D01*
X69068341Y-68178341D01*
X69038821Y-68202567D01*
X69005144Y-68220568D01*
X68968604Y-68231653D01*
X68924462Y-68236000D01*
X67975538Y-68236000D01*
X67931396Y-68231653D01*
X67894856Y-68220568D01*
X67861179Y-68202567D01*
X67831659Y-68178341D01*
X67807433Y-68148821D01*
X67789432Y-68115144D01*
X67778347Y-68078604D01*
X67774000Y-68034462D01*
X67774000Y-66585538D01*
X67778347Y-66541396D01*
X67789432Y-66504856D01*
X67807433Y-66471179D01*
X67831659Y-66441659D01*
X67861179Y-66417433D01*
X67894856Y-66399432D01*
X67931396Y-66388347D01*
X67975538Y-66384000D01*
X68924462Y-66384000D01*
X68968604Y-66388347D01*
G37*
G36*
X71768604Y-66388347D02*
G01*
X71805144Y-66399432D01*
X71838821Y-66417433D01*
X71868341Y-66441659D01*
X71892567Y-66471179D01*
X71910568Y-66504856D01*
X71921653Y-66541396D01*
X71926000Y-66585538D01*
X71926000Y-68034462D01*
X71921653Y-68078604D01*
X71910568Y-68115144D01*
X71892567Y-68148821D01*
X71868341Y-68178341D01*
X71838821Y-68202567D01*
X71805144Y-68220568D01*
X71768604Y-68231653D01*
X71724462Y-68236000D01*
X70775538Y-68236000D01*
X70731396Y-68231653D01*
X70694856Y-68220568D01*
X70661179Y-68202567D01*
X70631659Y-68178341D01*
X70607433Y-68148821D01*
X70589432Y-68115144D01*
X70578347Y-68078604D01*
X70574000Y-68034462D01*
X70574000Y-66585538D01*
X70578347Y-66541396D01*
X70589432Y-66504856D01*
X70607433Y-66471179D01*
X70631659Y-66441659D01*
X70661179Y-66417433D01*
X70694856Y-66399432D01*
X70731396Y-66388347D01*
X70775538Y-66384000D01*
X71724462Y-66384000D01*
X71768604Y-66388347D01*
G37*
G36*
X61208228Y-66491703D02*
G01*
X61363100Y-66555853D01*
X61502481Y-66648985D01*
X61621015Y-66767519D01*
X61714147Y-66906900D01*
X61778297Y-67061772D01*
X61811000Y-67226184D01*
X61811000Y-67393816D01*
X61778297Y-67558228D01*
X61714147Y-67713100D01*
X61621015Y-67852481D01*
X61502481Y-67971015D01*
X61363100Y-68064147D01*
X61208228Y-68128297D01*
X61043816Y-68161000D01*
X60876184Y-68161000D01*
X60711772Y-68128297D01*
X60556900Y-68064147D01*
X60417519Y-67971015D01*
X60298985Y-67852481D01*
X60205853Y-67713100D01*
X60141703Y-67558228D01*
X60109000Y-67393816D01*
X60109000Y-67226184D01*
X60141703Y-67061772D01*
X60205853Y-66906900D01*
X60298985Y-66767519D01*
X60417519Y-66648985D01*
X60556900Y-66555853D01*
X60711772Y-66491703D01*
X60876184Y-66459000D01*
X61043816Y-66459000D01*
X61208228Y-66491703D01*
G37*
G36*
X76448228Y-66491703D02*
G01*
X76603100Y-66555853D01*
X76742481Y-66648985D01*
X76861015Y-66767519D01*
X76954147Y-66906900D01*
X77018297Y-67061772D01*
X77051000Y-67226184D01*
X77051000Y-67393816D01*
X77018297Y-67558228D01*
X76954147Y-67713100D01*
X76861015Y-67852481D01*
X76742481Y-67971015D01*
X76603100Y-68064147D01*
X76448228Y-68128297D01*
X76283816Y-68161000D01*
X76116184Y-68161000D01*
X75951772Y-68128297D01*
X75796900Y-68064147D01*
X75657519Y-67971015D01*
X75538985Y-67852481D01*
X75445853Y-67713100D01*
X75381703Y-67558228D01*
X75349000Y-67393816D01*
X75349000Y-67226184D01*
X75381703Y-67061772D01*
X75445853Y-66906900D01*
X75538985Y-66767519D01*
X75657519Y-66648985D01*
X75796900Y-66555853D01*
X75951772Y-66491703D01*
X76116184Y-66459000D01*
X76283816Y-66459000D01*
X76448228Y-66491703D01*
G37*
G36*
X93458254Y-63457818D02*
G01*
X93796780Y-63598040D01*
X93831513Y-63612427D01*
X93998498Y-63724003D01*
X94167436Y-63836884D01*
X94453116Y-64122564D01*
X94677574Y-64458489D01*
X94832182Y-64831746D01*
X94911000Y-65227993D01*
X94911000Y-65632007D01*
X94832182Y-66028254D01*
X94734531Y-66264004D01*
X94677573Y-66401513D01*
X94453116Y-66737436D01*
X94167436Y-67023116D01*
X93831513Y-67247573D01*
X93831512Y-67247574D01*
X93831511Y-67247574D01*
X93458254Y-67402182D01*
X93062007Y-67481000D01*
X92657993Y-67481000D01*
X92261746Y-67402182D01*
X91888489Y-67247574D01*
X91888488Y-67247574D01*
X91888487Y-67247573D01*
X91552564Y-67023116D01*
X91266884Y-66737436D01*
X91042427Y-66401513D01*
X90985469Y-66264004D01*
X90887818Y-66028254D01*
X90809000Y-65632007D01*
X90809000Y-65227993D01*
X90887818Y-64831746D01*
X91042426Y-64458489D01*
X91266884Y-64122564D01*
X91552564Y-63836884D01*
X91721502Y-63724003D01*
X91888487Y-63612427D01*
X91923220Y-63598040D01*
X92261746Y-63457818D01*
X92657993Y-63379000D01*
X93062007Y-63379000D01*
X93458254Y-63457818D01*
G37*
G36*
X65210083Y-56493432D02*
G01*
X65329734Y-56517232D01*
X65539203Y-56603997D01*
X65727720Y-56729960D01*
X65888040Y-56890280D01*
X66014003Y-57078797D01*
X66078214Y-57233815D01*
X66100768Y-57288267D01*
X66145000Y-57510635D01*
X66145000Y-57737365D01*
X66100768Y-57959733D01*
X66030879Y-58128462D01*
X66014003Y-58169203D01*
X65888040Y-58357720D01*
X65727720Y-58518040D01*
X65539203Y-58644003D01*
X65329734Y-58730768D01*
X65202161Y-58756144D01*
X65125448Y-58771403D01*
X65101999Y-58778516D01*
X65080388Y-58790067D01*
X65061446Y-58805612D01*
X65045901Y-58824554D01*
X65034350Y-58846165D01*
X65027237Y-58869614D01*
X65024835Y-58894000D01*
X65027237Y-58918386D01*
X65034350Y-58941835D01*
X65045901Y-58963446D01*
X65061446Y-58982388D01*
X65080388Y-58997933D01*
X65101999Y-59009484D01*
X65125448Y-59016597D01*
X65187726Y-59028985D01*
X65329734Y-59057232D01*
X65539203Y-59143997D01*
X65727720Y-59269960D01*
X65888040Y-59430280D01*
X66014003Y-59618797D01*
X66100768Y-59828266D01*
X66145000Y-60050636D01*
X66145000Y-60277364D01*
X66100768Y-60499734D01*
X66014003Y-60709203D01*
X65888040Y-60897720D01*
X65727720Y-61058040D01*
X65539203Y-61184003D01*
X65329734Y-61270768D01*
X65202161Y-61296144D01*
X65125448Y-61311403D01*
X65101999Y-61318516D01*
X65080388Y-61330067D01*
X65061446Y-61345612D01*
X65045901Y-61364554D01*
X65034350Y-61386165D01*
X65027237Y-61409614D01*
X65024835Y-61434000D01*
X65027237Y-61458386D01*
X65034350Y-61481835D01*
X65045901Y-61503446D01*
X65061446Y-61522388D01*
X65080388Y-61537933D01*
X65101999Y-61549484D01*
X65125448Y-61556597D01*
X65187726Y-61568985D01*
X65329734Y-61597232D01*
X65539203Y-61683997D01*
X65727720Y-61809960D01*
X65888040Y-61970280D01*
X66014003Y-62158797D01*
X66100768Y-62368266D01*
X66145000Y-62590636D01*
X66145000Y-62817364D01*
X66100768Y-63039734D01*
X66014003Y-63249203D01*
X65888040Y-63437720D01*
X65727720Y-63598040D01*
X65539203Y-63724003D01*
X65329734Y-63810768D01*
X65202161Y-63836144D01*
X65125448Y-63851403D01*
X65101999Y-63858516D01*
X65080388Y-63870067D01*
X65061446Y-63885612D01*
X65045901Y-63904554D01*
X65034350Y-63926165D01*
X65027237Y-63949614D01*
X65024835Y-63974000D01*
X65027237Y-63998386D01*
X65034350Y-64021835D01*
X65045901Y-64043446D01*
X65061446Y-64062388D01*
X65080388Y-64077933D01*
X65101999Y-64089484D01*
X65125448Y-64096597D01*
X65187726Y-64108985D01*
X65329734Y-64137232D01*
X65539203Y-64223997D01*
X65727720Y-64349960D01*
X65888040Y-64510280D01*
X66014003Y-64698797D01*
X66100768Y-64908266D01*
X66145000Y-65130636D01*
X66145000Y-65357364D01*
X66100768Y-65579734D01*
X66014003Y-65789203D01*
X65888040Y-65977720D01*
X65727720Y-66138040D01*
X65539203Y-66264003D01*
X65329734Y-66350768D01*
X65218549Y-66372884D01*
X65107365Y-66395000D01*
X64880635Y-66395000D01*
X64769451Y-66372884D01*
X64658266Y-66350768D01*
X64448797Y-66264003D01*
X64260280Y-66138040D01*
X64099960Y-65977720D01*
X63973997Y-65789203D01*
X63887232Y-65579734D01*
X63843000Y-65357364D01*
X63843000Y-65130636D01*
X63887232Y-64908266D01*
X63973997Y-64698797D01*
X64099960Y-64510280D01*
X64260280Y-64349960D01*
X64448797Y-64223997D01*
X64658266Y-64137232D01*
X64800274Y-64108985D01*
X64862552Y-64096597D01*
X64886001Y-64089484D01*
X64907612Y-64077933D01*
X64926554Y-64062388D01*
X64942099Y-64043446D01*
X64953650Y-64021835D01*
X64960763Y-63998386D01*
X64963165Y-63974000D01*
X64960763Y-63949614D01*
X64953650Y-63926165D01*
X64942099Y-63904554D01*
X64926554Y-63885612D01*
X64907612Y-63870067D01*
X64886001Y-63858516D01*
X64862552Y-63851403D01*
X64785839Y-63836144D01*
X64658266Y-63810768D01*
X64448797Y-63724003D01*
X64260280Y-63598040D01*
X64099960Y-63437720D01*
X63973997Y-63249203D01*
X63887232Y-63039734D01*
X63843000Y-62817364D01*
X63843000Y-62590636D01*
X63887232Y-62368266D01*
X63973997Y-62158797D01*
X64099960Y-61970280D01*
X64260280Y-61809960D01*
X64448797Y-61683997D01*
X64658266Y-61597232D01*
X64800274Y-61568985D01*
X64862552Y-61556597D01*
X64886001Y-61549484D01*
X64907612Y-61537933D01*
X64926554Y-61522388D01*
X64942099Y-61503446D01*
X64953650Y-61481835D01*
X64960763Y-61458386D01*
X64963165Y-61434000D01*
X64960763Y-61409614D01*
X64953650Y-61386165D01*
X64942099Y-61364554D01*
X64926554Y-61345612D01*
X64907612Y-61330067D01*
X64886001Y-61318516D01*
X64862552Y-61311403D01*
X64785839Y-61296144D01*
X64658266Y-61270768D01*
X64448797Y-61184003D01*
X64260280Y-61058040D01*
X64099960Y-60897720D01*
X63973997Y-60709203D01*
X63887232Y-60499734D01*
X63843000Y-60277364D01*
X63843000Y-60050636D01*
X63887232Y-59828266D01*
X63973997Y-59618797D01*
X64099960Y-59430280D01*
X64260280Y-59269960D01*
X64448797Y-59143997D01*
X64658266Y-59057232D01*
X64800274Y-59028985D01*
X64862552Y-59016597D01*
X64886001Y-59009484D01*
X64907612Y-58997933D01*
X64926554Y-58982388D01*
X64942099Y-58963446D01*
X64953650Y-58941835D01*
X64960763Y-58918386D01*
X64963165Y-58894000D01*
X64960763Y-58869614D01*
X64953650Y-58846165D01*
X64942099Y-58824554D01*
X64926554Y-58805612D01*
X64907612Y-58790067D01*
X64886001Y-58778516D01*
X64862552Y-58771403D01*
X64785839Y-58756144D01*
X64658266Y-58730768D01*
X64448797Y-58644003D01*
X64260280Y-58518040D01*
X64099960Y-58357720D01*
X63973997Y-58169203D01*
X63957122Y-58128462D01*
X63887232Y-57959733D01*
X63843000Y-57737365D01*
X63843000Y-57510635D01*
X63887232Y-57288267D01*
X63909787Y-57233815D01*
X63973997Y-57078797D01*
X64099960Y-56890280D01*
X64260280Y-56729960D01*
X64448797Y-56603997D01*
X64658266Y-56517232D01*
X64777917Y-56493432D01*
X64880635Y-56473000D01*
X65107365Y-56473000D01*
X65210083Y-56493432D01*
G37*
G36*
X76448228Y-63951703D02*
G01*
X76603100Y-64015853D01*
X76742481Y-64108985D01*
X76861015Y-64227519D01*
X76954147Y-64366900D01*
X77018297Y-64521772D01*
X77051000Y-64686184D01*
X77051000Y-64853816D01*
X77018297Y-65018228D01*
X76954147Y-65173100D01*
X76861015Y-65312481D01*
X76742481Y-65431015D01*
X76603100Y-65524147D01*
X76448228Y-65588297D01*
X76283816Y-65621000D01*
X76116184Y-65621000D01*
X75951772Y-65588297D01*
X75796900Y-65524147D01*
X75657519Y-65431015D01*
X75538985Y-65312481D01*
X75445853Y-65173100D01*
X75381703Y-65018228D01*
X75349000Y-64853816D01*
X75349000Y-64686184D01*
X75381703Y-64521772D01*
X75445853Y-64366900D01*
X75538985Y-64227519D01*
X75657519Y-64108985D01*
X75796900Y-64015853D01*
X75951772Y-63951703D01*
X76116184Y-63919000D01*
X76283816Y-63919000D01*
X76448228Y-63951703D01*
G37*
G36*
X61208228Y-63951703D02*
G01*
X61363100Y-64015853D01*
X61502481Y-64108985D01*
X61621015Y-64227519D01*
X61714147Y-64366900D01*
X61778297Y-64521772D01*
X61811000Y-64686184D01*
X61811000Y-64853816D01*
X61778297Y-65018228D01*
X61714147Y-65173100D01*
X61621015Y-65312481D01*
X61502481Y-65431015D01*
X61363100Y-65524147D01*
X61208228Y-65588297D01*
X61043816Y-65621000D01*
X60876184Y-65621000D01*
X60711772Y-65588297D01*
X60556900Y-65524147D01*
X60417519Y-65431015D01*
X60298985Y-65312481D01*
X60205853Y-65173100D01*
X60141703Y-65018228D01*
X60109000Y-64853816D01*
X60109000Y-64686184D01*
X60141703Y-64521772D01*
X60205853Y-64366900D01*
X60298985Y-64227519D01*
X60417519Y-64108985D01*
X60556900Y-64015853D01*
X60711772Y-63951703D01*
X60876184Y-63919000D01*
X61043816Y-63919000D01*
X61208228Y-63951703D01*
G37*
G36*
X76448228Y-61411703D02*
G01*
X76603100Y-61475853D01*
X76742481Y-61568985D01*
X76861015Y-61687519D01*
X76954147Y-61826900D01*
X77018297Y-61981772D01*
X77051000Y-62146184D01*
X77051000Y-62313816D01*
X77018297Y-62478228D01*
X76954147Y-62633100D01*
X76861015Y-62772481D01*
X76742481Y-62891015D01*
X76603100Y-62984147D01*
X76448228Y-63048297D01*
X76283816Y-63081000D01*
X76116184Y-63081000D01*
X75951772Y-63048297D01*
X75796900Y-62984147D01*
X75657519Y-62891015D01*
X75538985Y-62772481D01*
X75445853Y-62633100D01*
X75381703Y-62478228D01*
X75349000Y-62313816D01*
X75349000Y-62146184D01*
X75381703Y-61981772D01*
X75445853Y-61826900D01*
X75538985Y-61687519D01*
X75657519Y-61568985D01*
X75796900Y-61475853D01*
X75951772Y-61411703D01*
X76116184Y-61379000D01*
X76283816Y-61379000D01*
X76448228Y-61411703D01*
G37*
G36*
X61208228Y-61411703D02*
G01*
X61363100Y-61475853D01*
X61502481Y-61568985D01*
X61621015Y-61687519D01*
X61714147Y-61826900D01*
X61778297Y-61981772D01*
X61811000Y-62146184D01*
X61811000Y-62313816D01*
X61778297Y-62478228D01*
X61714147Y-62633100D01*
X61621015Y-62772481D01*
X61502481Y-62891015D01*
X61363100Y-62984147D01*
X61208228Y-63048297D01*
X61043816Y-63081000D01*
X60876184Y-63081000D01*
X60711772Y-63048297D01*
X60556900Y-62984147D01*
X60417519Y-62891015D01*
X60298985Y-62772481D01*
X60205853Y-62633100D01*
X60141703Y-62478228D01*
X60109000Y-62313816D01*
X60109000Y-62146184D01*
X60141703Y-61981772D01*
X60205853Y-61826900D01*
X60298985Y-61687519D01*
X60417519Y-61568985D01*
X60556900Y-61475853D01*
X60711772Y-61411703D01*
X60876184Y-61379000D01*
X61043816Y-61379000D01*
X61208228Y-61411703D01*
G37*
G36*
X76448228Y-58871703D02*
G01*
X76603100Y-58935853D01*
X76742481Y-59028985D01*
X76861015Y-59147519D01*
X76954147Y-59286900D01*
X77018297Y-59441772D01*
X77051000Y-59606184D01*
X77051000Y-59773816D01*
X77018297Y-59938228D01*
X76954147Y-60093100D01*
X76861015Y-60232481D01*
X76742481Y-60351015D01*
X76603100Y-60444147D01*
X76448228Y-60508297D01*
X76283816Y-60541000D01*
X76116184Y-60541000D01*
X75951772Y-60508297D01*
X75796900Y-60444147D01*
X75657519Y-60351015D01*
X75538985Y-60232481D01*
X75445853Y-60093100D01*
X75381703Y-59938228D01*
X75349000Y-59773816D01*
X75349000Y-59606184D01*
X75381703Y-59441772D01*
X75445853Y-59286900D01*
X75538985Y-59147519D01*
X75657519Y-59028985D01*
X75796900Y-58935853D01*
X75951772Y-58871703D01*
X76116184Y-58839000D01*
X76283816Y-58839000D01*
X76448228Y-58871703D01*
G37*
G36*
X61208228Y-58871703D02*
G01*
X61363100Y-58935853D01*
X61502481Y-59028985D01*
X61621015Y-59147519D01*
X61714147Y-59286900D01*
X61778297Y-59441772D01*
X61811000Y-59606184D01*
X61811000Y-59773816D01*
X61778297Y-59938228D01*
X61714147Y-60093100D01*
X61621015Y-60232481D01*
X61502481Y-60351015D01*
X61363100Y-60444147D01*
X61208228Y-60508297D01*
X61043816Y-60541000D01*
X60876184Y-60541000D01*
X60711772Y-60508297D01*
X60556900Y-60444147D01*
X60417519Y-60351015D01*
X60298985Y-60232481D01*
X60205853Y-60093100D01*
X60141703Y-59938228D01*
X60109000Y-59773816D01*
X60109000Y-59606184D01*
X60141703Y-59441772D01*
X60205853Y-59286900D01*
X60298985Y-59147519D01*
X60417519Y-59028985D01*
X60556900Y-58935853D01*
X60711772Y-58871703D01*
X60876184Y-58839000D01*
X61043816Y-58839000D01*
X61208228Y-58871703D01*
G37*
G36*
X99297142Y-58908242D02*
G01*
X99445101Y-58969529D01*
X99578255Y-59058499D01*
X99691501Y-59171745D01*
X99780471Y-59304899D01*
X99841758Y-59452858D01*
X99873000Y-59609925D01*
X99873000Y-59770075D01*
X99841758Y-59927142D01*
X99780471Y-60075101D01*
X99691501Y-60208255D01*
X99578255Y-60321501D01*
X99445101Y-60410471D01*
X99297142Y-60471758D01*
X99140075Y-60503000D01*
X98979925Y-60503000D01*
X98822858Y-60471758D01*
X98674899Y-60410471D01*
X98541745Y-60321501D01*
X98428499Y-60208255D01*
X98339529Y-60075101D01*
X98278242Y-59927142D01*
X98247000Y-59770075D01*
X98247000Y-59609925D01*
X98278242Y-59452858D01*
X98339529Y-59304899D01*
X98428499Y-59171745D01*
X98541745Y-59058499D01*
X98674899Y-58969529D01*
X98822858Y-58908242D01*
X98979925Y-58877000D01*
X99140075Y-58877000D01*
X99297142Y-58908242D01*
G37*
G36*
X80755142Y-58908242D02*
G01*
X80903101Y-58969529D01*
X81036255Y-59058499D01*
X81149501Y-59171745D01*
X81238471Y-59304899D01*
X81299758Y-59452858D01*
X81331000Y-59609925D01*
X81331000Y-59770075D01*
X81299758Y-59927142D01*
X81238471Y-60075101D01*
X81149501Y-60208255D01*
X81036255Y-60321501D01*
X80903101Y-60410471D01*
X80755142Y-60471758D01*
X80598075Y-60503000D01*
X80437925Y-60503000D01*
X80280858Y-60471758D01*
X80132899Y-60410471D01*
X79999745Y-60321501D01*
X79886499Y-60208255D01*
X79797529Y-60075101D01*
X79736242Y-59927142D01*
X79705000Y-59770075D01*
X79705000Y-59609925D01*
X79736242Y-59452858D01*
X79797529Y-59304899D01*
X79886499Y-59171745D01*
X79999745Y-59058499D01*
X80132899Y-58969529D01*
X80280858Y-58908242D01*
X80437925Y-58877000D01*
X80598075Y-58877000D01*
X80755142Y-58908242D01*
G37*
G36*
X92850604Y-56482347D02*
G01*
X92887144Y-56493432D01*
X92905076Y-56503017D01*
X92927715Y-56512395D01*
X92951748Y-56517175D01*
X92976252Y-56517175D01*
X93000285Y-56512395D01*
X93022924Y-56503017D01*
X93040856Y-56493432D01*
X93077396Y-56482347D01*
X93121538Y-56478000D01*
X94070462Y-56478000D01*
X94114604Y-56482347D01*
X94151144Y-56493432D01*
X94184821Y-56511433D01*
X94214341Y-56535659D01*
X94238567Y-56565179D01*
X94256568Y-56598856D01*
X94267653Y-56635396D01*
X94272000Y-56679538D01*
X94272000Y-58128462D01*
X94267653Y-58172604D01*
X94256568Y-58209144D01*
X94238567Y-58242821D01*
X94214341Y-58272341D01*
X94184821Y-58296567D01*
X94151144Y-58314568D01*
X94114604Y-58325653D01*
X94070462Y-58330000D01*
X93121538Y-58330000D01*
X93077396Y-58325653D01*
X93040856Y-58314568D01*
X93022924Y-58304983D01*
X93000285Y-58295605D01*
X92976252Y-58290825D01*
X92951748Y-58290825D01*
X92927715Y-58295605D01*
X92905076Y-58304983D01*
X92887144Y-58314568D01*
X92850604Y-58325653D01*
X92806462Y-58330000D01*
X91857538Y-58330000D01*
X91813396Y-58325653D01*
X91776856Y-58314568D01*
X91743179Y-58296567D01*
X91713659Y-58272341D01*
X91689433Y-58242821D01*
X91671432Y-58209144D01*
X91660347Y-58172604D01*
X91656000Y-58128462D01*
X91656000Y-56679538D01*
X91660347Y-56635396D01*
X91671432Y-56598856D01*
X91689433Y-56565179D01*
X91713659Y-56535659D01*
X91743179Y-56511433D01*
X91776856Y-56493432D01*
X91813396Y-56482347D01*
X91857538Y-56478000D01*
X92806462Y-56478000D01*
X92850604Y-56482347D01*
G37*
G36*
X90050604Y-56482347D02*
G01*
X90087144Y-56493432D01*
X90120821Y-56511433D01*
X90150341Y-56535659D01*
X90174567Y-56565179D01*
X90192568Y-56598856D01*
X90203653Y-56635396D01*
X90208000Y-56679538D01*
X90208000Y-58128462D01*
X90203653Y-58172604D01*
X90192568Y-58209144D01*
X90174567Y-58242821D01*
X90150341Y-58272341D01*
X90120821Y-58296567D01*
X90087144Y-58314568D01*
X90050604Y-58325653D01*
X90006462Y-58330000D01*
X89057538Y-58330000D01*
X89013396Y-58325653D01*
X88976856Y-58314568D01*
X88943179Y-58296567D01*
X88913659Y-58272341D01*
X88889433Y-58242821D01*
X88871432Y-58209144D01*
X88860347Y-58172604D01*
X88856000Y-58128462D01*
X88856000Y-56679538D01*
X88860347Y-56635396D01*
X88871432Y-56598856D01*
X88889433Y-56565179D01*
X88913659Y-56535659D01*
X88943179Y-56511433D01*
X88976856Y-56493432D01*
X89013396Y-56482347D01*
X89057538Y-56478000D01*
X90006462Y-56478000D01*
X90050604Y-56482347D01*
G37*
G36*
X96914604Y-56482347D02*
G01*
X96951144Y-56493432D01*
X96984821Y-56511433D01*
X97014341Y-56535659D01*
X97038567Y-56565179D01*
X97056568Y-56598856D01*
X97067653Y-56635396D01*
X97072000Y-56679538D01*
X97072000Y-58128462D01*
X97067653Y-58172604D01*
X97056568Y-58209144D01*
X97038567Y-58242821D01*
X97014341Y-58272341D01*
X96984821Y-58296567D01*
X96951144Y-58314568D01*
X96914604Y-58325653D01*
X96870462Y-58330000D01*
X95921538Y-58330000D01*
X95877396Y-58325653D01*
X95840856Y-58314568D01*
X95807179Y-58296567D01*
X95777659Y-58272341D01*
X95753433Y-58242821D01*
X95735432Y-58209144D01*
X95724347Y-58172604D01*
X95720000Y-58128462D01*
X95720000Y-56679538D01*
X95724347Y-56635396D01*
X95735432Y-56598856D01*
X95753433Y-56565179D01*
X95777659Y-56535659D01*
X95807179Y-56511433D01*
X95840856Y-56493432D01*
X95877396Y-56482347D01*
X95921538Y-56478000D01*
X96870462Y-56478000D01*
X96914604Y-56482347D01*
G37*
G36*
X61208228Y-56331703D02*
G01*
X61363100Y-56395853D01*
X61502481Y-56488985D01*
X61621015Y-56607519D01*
X61714147Y-56746900D01*
X61778297Y-56901772D01*
X61811000Y-57066184D01*
X61811000Y-57233816D01*
X61778297Y-57398228D01*
X61714147Y-57553100D01*
X61621015Y-57692481D01*
X61502481Y-57811015D01*
X61363100Y-57904147D01*
X61208228Y-57968297D01*
X61043816Y-58001000D01*
X60876184Y-58001000D01*
X60711772Y-57968297D01*
X60556900Y-57904147D01*
X60417519Y-57811015D01*
X60298985Y-57692481D01*
X60205853Y-57553100D01*
X60141703Y-57398228D01*
X60109000Y-57233816D01*
X60109000Y-57066184D01*
X60141703Y-56901772D01*
X60205853Y-56746900D01*
X60298985Y-56607519D01*
X60417519Y-56488985D01*
X60556900Y-56395853D01*
X60711772Y-56331703D01*
X60876184Y-56299000D01*
X61043816Y-56299000D01*
X61208228Y-56331703D01*
G37*
G36*
X76448228Y-56331703D02*
G01*
X76603100Y-56395853D01*
X76742481Y-56488985D01*
X76861015Y-56607519D01*
X76954147Y-56746900D01*
X77018297Y-56901772D01*
X77051000Y-57066184D01*
X77051000Y-57233816D01*
X77018297Y-57398228D01*
X76954147Y-57553100D01*
X76861015Y-57692481D01*
X76742481Y-57811015D01*
X76603100Y-57904147D01*
X76448228Y-57968297D01*
X76283816Y-58001000D01*
X76116184Y-58001000D01*
X75951772Y-57968297D01*
X75796900Y-57904147D01*
X75657519Y-57811015D01*
X75538985Y-57692481D01*
X75445853Y-57553100D01*
X75381703Y-57398228D01*
X75349000Y-57233816D01*
X75349000Y-57066184D01*
X75381703Y-56901772D01*
X75445853Y-56746900D01*
X75538985Y-56607519D01*
X75657519Y-56488985D01*
X75796900Y-56395853D01*
X75951772Y-56331703D01*
X76116184Y-56299000D01*
X76283816Y-56299000D01*
X76448228Y-56331703D01*
G37*
G36*
X99297142Y-56368242D02*
G01*
X99445101Y-56429529D01*
X99578255Y-56518499D01*
X99691501Y-56631745D01*
X99780471Y-56764899D01*
X99841758Y-56912858D01*
X99873000Y-57069925D01*
X99873000Y-57230075D01*
X99841758Y-57387142D01*
X99780471Y-57535101D01*
X99691501Y-57668255D01*
X99578255Y-57781501D01*
X99445101Y-57870471D01*
X99297142Y-57931758D01*
X99140075Y-57963000D01*
X98979925Y-57963000D01*
X98822858Y-57931758D01*
X98674899Y-57870471D01*
X98541745Y-57781501D01*
X98428499Y-57668255D01*
X98339529Y-57535101D01*
X98278242Y-57387142D01*
X98247000Y-57230075D01*
X98247000Y-57069925D01*
X98278242Y-56912858D01*
X98339529Y-56764899D01*
X98428499Y-56631745D01*
X98541745Y-56518499D01*
X98674899Y-56429529D01*
X98822858Y-56368242D01*
X98979925Y-56337000D01*
X99140075Y-56337000D01*
X99297142Y-56368242D01*
G37*
G36*
X80755142Y-56368242D02*
G01*
X80903101Y-56429529D01*
X81036255Y-56518499D01*
X81149501Y-56631745D01*
X81238471Y-56764899D01*
X81299758Y-56912858D01*
X81331000Y-57069925D01*
X81331000Y-57230075D01*
X81299758Y-57387142D01*
X81238471Y-57535101D01*
X81149501Y-57668255D01*
X81036255Y-57781501D01*
X80903101Y-57870471D01*
X80755142Y-57931758D01*
X80598075Y-57963000D01*
X80437925Y-57963000D01*
X80280858Y-57931758D01*
X80132899Y-57870471D01*
X79999745Y-57781501D01*
X79886499Y-57668255D01*
X79797529Y-57535101D01*
X79736242Y-57387142D01*
X79705000Y-57230075D01*
X79705000Y-57069925D01*
X79736242Y-56912858D01*
X79797529Y-56764899D01*
X79886499Y-56631745D01*
X79999745Y-56518499D01*
X80132899Y-56429529D01*
X80280858Y-56368242D01*
X80437925Y-56337000D01*
X80598075Y-56337000D01*
X80755142Y-56368242D01*
G37*
G36*
X76448228Y-53791703D02*
G01*
X76603100Y-53855853D01*
X76742481Y-53948985D01*
X76861015Y-54067519D01*
X76954147Y-54206900D01*
X77018297Y-54361772D01*
X77051000Y-54526184D01*
X77051000Y-54693816D01*
X77018297Y-54858228D01*
X76954147Y-55013100D01*
X76861015Y-55152481D01*
X76742481Y-55271015D01*
X76603100Y-55364147D01*
X76448228Y-55428297D01*
X76283816Y-55461000D01*
X76116184Y-55461000D01*
X75951772Y-55428297D01*
X75796900Y-55364147D01*
X75657519Y-55271015D01*
X75538985Y-55152481D01*
X75445853Y-55013100D01*
X75381703Y-54858228D01*
X75349000Y-54693816D01*
X75349000Y-54526184D01*
X75381703Y-54361772D01*
X75445853Y-54206900D01*
X75538985Y-54067519D01*
X75657519Y-53948985D01*
X75796900Y-53855853D01*
X75951772Y-53791703D01*
X76116184Y-53759000D01*
X76283816Y-53759000D01*
X76448228Y-53791703D01*
G37*
G36*
X61208228Y-53791703D02*
G01*
X61363100Y-53855853D01*
X61502481Y-53948985D01*
X61621015Y-54067519D01*
X61714147Y-54206900D01*
X61778297Y-54361772D01*
X61811000Y-54526184D01*
X61811000Y-54693816D01*
X61778297Y-54858228D01*
X61714147Y-55013100D01*
X61621015Y-55152481D01*
X61502481Y-55271015D01*
X61363100Y-55364147D01*
X61208228Y-55428297D01*
X61043816Y-55461000D01*
X60876184Y-55461000D01*
X60711772Y-55428297D01*
X60556900Y-55364147D01*
X60417519Y-55271015D01*
X60298985Y-55152481D01*
X60205853Y-55013100D01*
X60141703Y-54858228D01*
X60109000Y-54693816D01*
X60109000Y-54526184D01*
X60141703Y-54361772D01*
X60205853Y-54206900D01*
X60298985Y-54067519D01*
X60417519Y-53948985D01*
X60556900Y-53855853D01*
X60711772Y-53791703D01*
X60876184Y-53759000D01*
X61043816Y-53759000D01*
X61208228Y-53791703D01*
G37*
G36*
X61811000Y-52921000D02*
G01*
X60109000Y-52921000D01*
X60109000Y-51219000D01*
X61811000Y-51219000D01*
X61811000Y-52921000D01*
G37*
G36*
X76448228Y-51251703D02*
G01*
X76603100Y-51315853D01*
X76742481Y-51408985D01*
X76861015Y-51527519D01*
X76954147Y-51666900D01*
X77018297Y-51821772D01*
X77051000Y-51986184D01*
X77051000Y-52153816D01*
X77018297Y-52318228D01*
X76954147Y-52473100D01*
X76861015Y-52612481D01*
X76742481Y-52731015D01*
X76603100Y-52824147D01*
X76448228Y-52888297D01*
X76283816Y-52921000D01*
X76116184Y-52921000D01*
X75951772Y-52888297D01*
X75796900Y-52824147D01*
X75657519Y-52731015D01*
X75538985Y-52612481D01*
X75445853Y-52473100D01*
X75381703Y-52318228D01*
X75349000Y-52153816D01*
X75349000Y-51986184D01*
X75381703Y-51821772D01*
X75445853Y-51666900D01*
X75538985Y-51527519D01*
X75657519Y-51408985D01*
X75796900Y-51315853D01*
X75951772Y-51251703D01*
X76116184Y-51219000D01*
X76283816Y-51219000D01*
X76448228Y-51251703D01*
G37*
G36*
X99297142Y-48240242D02*
G01*
X99445101Y-48301529D01*
X99578255Y-48390499D01*
X99691501Y-48503745D01*
X99780471Y-48636899D01*
X99841758Y-48784858D01*
X99873000Y-48941925D01*
X99873000Y-49102075D01*
X99841758Y-49259142D01*
X99780471Y-49407101D01*
X99691501Y-49540255D01*
X99578255Y-49653501D01*
X99445101Y-49742471D01*
X99297142Y-49803758D01*
X99140075Y-49835000D01*
X98979925Y-49835000D01*
X98822858Y-49803758D01*
X98674899Y-49742471D01*
X98541745Y-49653501D01*
X98428499Y-49540255D01*
X98339529Y-49407101D01*
X98278242Y-49259142D01*
X98247000Y-49102075D01*
X98247000Y-48941925D01*
X98278242Y-48784858D01*
X98339529Y-48636899D01*
X98428499Y-48503745D01*
X98541745Y-48390499D01*
X98674899Y-48301529D01*
X98822858Y-48240242D01*
X98979925Y-48209000D01*
X99140075Y-48209000D01*
X99297142Y-48240242D01*
G37*
G36*
X80755142Y-48240242D02*
G01*
X80903101Y-48301529D01*
X81036255Y-48390499D01*
X81149501Y-48503745D01*
X81238471Y-48636899D01*
X81299758Y-48784858D01*
X81331000Y-48941925D01*
X81331000Y-49102075D01*
X81299758Y-49259142D01*
X81238471Y-49407101D01*
X81149501Y-49540255D01*
X81036255Y-49653501D01*
X80903101Y-49742471D01*
X80755142Y-49803758D01*
X80598075Y-49835000D01*
X80437925Y-49835000D01*
X80280858Y-49803758D01*
X80132899Y-49742471D01*
X79999745Y-49653501D01*
X79886499Y-49540255D01*
X79797529Y-49407101D01*
X79736242Y-49259142D01*
X79705000Y-49102075D01*
X79705000Y-48941925D01*
X79736242Y-48784858D01*
X79797529Y-48636899D01*
X79886499Y-48503745D01*
X79999745Y-48390499D01*
X80132899Y-48301529D01*
X80280858Y-48240242D01*
X80437925Y-48209000D01*
X80598075Y-48209000D01*
X80755142Y-48240242D01*
G37*
G36*
X80755142Y-45700242D02*
G01*
X80903101Y-45761529D01*
X81036255Y-45850499D01*
X81149501Y-45963745D01*
X81238471Y-46096899D01*
X81299758Y-46244858D01*
X81331000Y-46401925D01*
X81331000Y-46562075D01*
X81299758Y-46719142D01*
X81238471Y-46867101D01*
X81149501Y-47000255D01*
X81036255Y-47113501D01*
X80903101Y-47202471D01*
X80755142Y-47263758D01*
X80598075Y-47295000D01*
X80437925Y-47295000D01*
X80280858Y-47263758D01*
X80132899Y-47202471D01*
X79999745Y-47113501D01*
X79886499Y-47000255D01*
X79797529Y-46867101D01*
X79736242Y-46719142D01*
X79705000Y-46562075D01*
X79705000Y-46401925D01*
X79736242Y-46244858D01*
X79797529Y-46096899D01*
X79886499Y-45963745D01*
X79999745Y-45850499D01*
X80132899Y-45761529D01*
X80280858Y-45700242D01*
X80437925Y-45669000D01*
X80598075Y-45669000D01*
X80755142Y-45700242D01*
G37*
G36*
X99297142Y-45700242D02*
G01*
X99445101Y-45761529D01*
X99578255Y-45850499D01*
X99691501Y-45963745D01*
X99780471Y-46096899D01*
X99841758Y-46244858D01*
X99873000Y-46401925D01*
X99873000Y-46562075D01*
X99841758Y-46719142D01*
X99780471Y-46867101D01*
X99691501Y-47000255D01*
X99578255Y-47113501D01*
X99445101Y-47202471D01*
X99297142Y-47263758D01*
X99140075Y-47295000D01*
X98979925Y-47295000D01*
X98822858Y-47263758D01*
X98674899Y-47202471D01*
X98541745Y-47113501D01*
X98428499Y-47000255D01*
X98339529Y-46867101D01*
X98278242Y-46719142D01*
X98247000Y-46562075D01*
X98247000Y-46401925D01*
X98278242Y-46244858D01*
X98339529Y-46096899D01*
X98428499Y-45963745D01*
X98541745Y-45850499D01*
X98674899Y-45761529D01*
X98822858Y-45700242D01*
X98979925Y-45669000D01*
X99140075Y-45669000D01*
X99297142Y-45700242D01*
G37*
G36*
X66356104Y-44798347D02*
G01*
X66392644Y-44809432D01*
X66426321Y-44827433D01*
X66455841Y-44851659D01*
X66480067Y-44881179D01*
X66498068Y-44914856D01*
X66509153Y-44951396D01*
X66513500Y-44995538D01*
X66513500Y-46444462D01*
X66509153Y-46488604D01*
X66498068Y-46525144D01*
X66480067Y-46558821D01*
X66455841Y-46588341D01*
X66426321Y-46612567D01*
X66392644Y-46630568D01*
X66356104Y-46641653D01*
X66311962Y-46646000D01*
X65363038Y-46646000D01*
X65318896Y-46641653D01*
X65282356Y-46630568D01*
X65248679Y-46612567D01*
X65219159Y-46588341D01*
X65194933Y-46558821D01*
X65176932Y-46525144D01*
X65165847Y-46488604D01*
X65161500Y-46444462D01*
X65161500Y-44995538D01*
X65165847Y-44951396D01*
X65176932Y-44914856D01*
X65194933Y-44881179D01*
X65219159Y-44851659D01*
X65248679Y-44827433D01*
X65282356Y-44809432D01*
X65318896Y-44798347D01*
X65363038Y-44794000D01*
X66311962Y-44794000D01*
X66356104Y-44798347D01*
G37*
G36*
X74308604Y-44798347D02*
G01*
X74345144Y-44809432D01*
X74378821Y-44827433D01*
X74408341Y-44851659D01*
X74432567Y-44881179D01*
X74450568Y-44914856D01*
X74461653Y-44951396D01*
X74466000Y-44995538D01*
X74466000Y-46444462D01*
X74461653Y-46488604D01*
X74450568Y-46525144D01*
X74432567Y-46558821D01*
X74408341Y-46588341D01*
X74378821Y-46612567D01*
X74345144Y-46630568D01*
X74308604Y-46641653D01*
X74264462Y-46646000D01*
X73315538Y-46646000D01*
X73271396Y-46641653D01*
X73234856Y-46630568D01*
X73201179Y-46612567D01*
X73171659Y-46588341D01*
X73147433Y-46558821D01*
X73129432Y-46525144D01*
X73118347Y-46488604D01*
X73114000Y-46444462D01*
X73114000Y-44995538D01*
X73118347Y-44951396D01*
X73129432Y-44914856D01*
X73147433Y-44881179D01*
X73171659Y-44851659D01*
X73201179Y-44827433D01*
X73234856Y-44809432D01*
X73271396Y-44798347D01*
X73315538Y-44794000D01*
X74264462Y-44794000D01*
X74308604Y-44798347D01*
G37*
G36*
X71508604Y-44798347D02*
G01*
X71545144Y-44809432D01*
X71578821Y-44827433D01*
X71608341Y-44851659D01*
X71632567Y-44881179D01*
X71650568Y-44914856D01*
X71661653Y-44951396D01*
X71666000Y-44995538D01*
X71666000Y-46444462D01*
X71661653Y-46488604D01*
X71650568Y-46525144D01*
X71632567Y-46558821D01*
X71608341Y-46588341D01*
X71578821Y-46612567D01*
X71545144Y-46630568D01*
X71508604Y-46641653D01*
X71464462Y-46646000D01*
X70515538Y-46646000D01*
X70471396Y-46641653D01*
X70434856Y-46630568D01*
X70401179Y-46612567D01*
X70371659Y-46588341D01*
X70347433Y-46558821D01*
X70329432Y-46525144D01*
X70318347Y-46488604D01*
X70314000Y-46444462D01*
X70314000Y-44995538D01*
X70318347Y-44951396D01*
X70329432Y-44914856D01*
X70347433Y-44881179D01*
X70371659Y-44851659D01*
X70401179Y-44827433D01*
X70434856Y-44809432D01*
X70471396Y-44798347D01*
X70515538Y-44794000D01*
X71464462Y-44794000D01*
X71508604Y-44798347D01*
G37*
G36*
X63556104Y-44798347D02*
G01*
X63592644Y-44809432D01*
X63626321Y-44827433D01*
X63655841Y-44851659D01*
X63680067Y-44881179D01*
X63698068Y-44914856D01*
X63709153Y-44951396D01*
X63713500Y-44995538D01*
X63713500Y-46444462D01*
X63709153Y-46488604D01*
X63698068Y-46525144D01*
X63680067Y-46558821D01*
X63655841Y-46588341D01*
X63626321Y-46612567D01*
X63592644Y-46630568D01*
X63556104Y-46641653D01*
X63511962Y-46646000D01*
X62563038Y-46646000D01*
X62518896Y-46641653D01*
X62482356Y-46630568D01*
X62448679Y-46612567D01*
X62419159Y-46588341D01*
X62394933Y-46558821D01*
X62376932Y-46525144D01*
X62365847Y-46488604D01*
X62361500Y-46444462D01*
X62361500Y-44995538D01*
X62365847Y-44951396D01*
X62376932Y-44914856D01*
X62394933Y-44881179D01*
X62419159Y-44851659D01*
X62448679Y-44827433D01*
X62482356Y-44809432D01*
X62518896Y-44798347D01*
X62563038Y-44794000D01*
X63511962Y-44794000D01*
X63556104Y-44798347D01*
G37*
M02*
