M48
; DRILL file {KiCad 5.1.5-52549c5~84~ubuntu19.10.1} date Thu 03 Sep 2020 01:43:02 PM EEST
; FORMAT={-:-/ absolute / inch / decimal}
; #@! TF.CreationDate,2020-09-03T13:43:02+03:00
; #@! TF.GenerationSoftware,Kicad,Pcbnew,5.1.5-52549c5~84~ubuntu19.10.1
; #@! TF.FileFunction,Plated,1,2,PTH
FMAT,2
INCH
T1C0.0157
T2C0.0295
T3C0.0300
T4C0.0315
T5C0.0394
T6C0.0512
T7C0.1260
%
G90
G05
T1
X2.3Y-1.7
X2.3Y-1.8
X2.3Y-1.85
X2.3Y-1.9
X2.3Y-1.95
X2.3Y-2.0
X2.3Y-2.05
X2.3Y-2.1
X2.3Y-2.15
X2.3Y-2.2
X2.3Y-2.25
X2.3Y-2.3
X2.3Y-2.35
X2.3Y-2.4
X2.3Y-2.45
X2.3Y-2.5
X2.3Y-2.55
X2.3Y-2.6
X2.3Y-2.65
X2.3Y-2.7
X2.3Y-2.75
X2.3Y-2.8
X2.3Y-2.85
X2.3Y-2.9
X2.3Y-2.95
X2.3Y-3.0
X2.3Y-3.05
X2.3Y-3.1
X2.3Y-3.15
X2.3Y-3.2
X2.3Y-3.25
X2.3Y-3.3
X2.3Y-3.35
X2.3Y-3.4
X2.3Y-3.45
X2.3Y-3.5
X2.3Y-3.55
X2.3Y-3.6
X2.3Y-3.65
X2.3Y-3.75
X2.4Y-1.7
X2.4Y-3.75
X2.45Y-1.7
X2.45Y-3.75
X2.5Y-1.7
X2.5Y-3.75
X2.5429Y-2.8591
X2.55Y-1.7
X2.55Y-3.75
X2.5886Y-2.9508
X2.6Y-1.7
X2.6Y-3.75
X2.65Y-1.7
X2.65Y-3.75
X2.7Y-1.7
X2.7Y-3.75
X2.75Y-1.7
X2.75Y-3.75
X2.7598Y-2.5354
X2.8Y-1.7
X2.8Y-3.75
X2.85Y-1.7
X2.85Y-3.75
X2.8984Y-2.5339
X2.9Y-1.7
X2.9Y-3.75
X2.902Y-2.6669
X2.902Y-2.8217
X2.9031Y-2.9902
X2.95Y-1.7
X2.95Y-3.75
X3.0Y-1.7
X3.0Y-3.75
X3.05Y-1.7
X3.05Y-3.75
X3.1Y-1.7
X3.1Y-2.5
X3.1Y-2.6
X3.1Y-2.65
X3.1Y-2.7
X3.1Y-3.75
X3.15Y-1.7
X3.15Y-2.0
X3.15Y-2.5
X3.15Y-2.6
X3.15Y-2.75
X3.15Y-3.05
X3.15Y-3.35
X3.15Y-3.4
X3.15Y-3.75
X3.1774Y-3.1226
X3.2Y-1.7
X3.2Y-2.0
X3.2Y-2.05
X3.2Y-2.5
X3.2Y-2.6
X3.2Y-2.8
X3.2Y-3.0
X3.2Y-3.35
X3.2Y-3.75
X3.25Y-1.7
X3.25Y-1.8
X3.25Y-1.85
X3.25Y-1.9
X3.25Y-1.95
X3.25Y-2.0
X3.25Y-2.05
X3.25Y-2.1
X3.25Y-2.15
X3.25Y-2.2
X3.25Y-2.25
X3.25Y-2.3
X3.25Y-2.35
X3.25Y-2.4
X3.25Y-2.5
X3.25Y-2.6
X3.25Y-2.8
X3.25Y-3.15
X3.25Y-3.75
X3.3Y-1.7
X3.3Y-1.8
X3.3Y-2.35
X3.3Y-2.4
X3.3Y-2.5
X3.3Y-2.6
X3.3Y-2.8
X3.3Y-3.75
X3.35Y-1.7
X3.35Y-1.8
X3.35Y-2.35
X3.35Y-2.4
X3.35Y-2.6
X3.35Y-2.8
X3.35Y-3.15
X3.35Y-3.75
X3.4Y-1.7
X3.4Y-1.8
X3.4Y-1.8
X3.4Y-2.35
X3.4Y-2.4
X3.4Y-2.5
X3.4Y-2.5
X3.4Y-2.6
X3.4Y-2.8
X3.4Y-3.75
X3.45Y-1.7
X3.45Y-1.8
X3.45Y-2.2
X3.45Y-2.25
X3.45Y-2.3
X3.45Y-2.35
X3.45Y-2.4
X3.45Y-2.5
X3.45Y-2.55
X3.45Y-2.65
X3.45Y-2.7
X3.45Y-2.75
X3.45Y-2.8
X3.45Y-3.0
X3.45Y-3.05
X3.45Y-3.75
X3.5Y-1.7
X3.5Y-1.8
X3.5Y-2.35
X3.5Y-3.75
X3.5Y-3.75
X3.5063Y-2.1795
X3.55Y-1.7
X3.55Y-1.8
X3.55Y-2.15
X3.55Y-3.25
X3.55Y-3.75
X3.6Y-1.7
X3.6Y-1.8
X3.6Y-3.75
X3.6031Y-2.1516
X3.65Y-1.7
X3.65Y-1.8
X3.65Y-2.15
X3.65Y-3.75
X3.7Y-1.7
X3.7Y-1.8
X3.7Y-2.15
X3.7Y-3.75
X3.75Y-1.7
X3.75Y-1.8
X3.75Y-1.85
X3.75Y-1.9
X3.75Y-2.15
X3.75Y-3.75
X3.8Y-1.7
X3.8Y-1.8
X3.8Y-1.85
X3.8Y-1.9
X3.8Y-2.15
X3.8Y-2.95
X3.8Y-3.75
X3.85Y-1.7
X3.85Y-2.1
X3.85Y-2.15
X3.85Y-2.2
X3.85Y-2.4
X3.85Y-2.45
X3.85Y-2.5
X3.85Y-2.55
X3.85Y-2.6
X3.85Y-2.65
X3.85Y-2.7
X3.85Y-2.75
X3.85Y-2.8
X3.85Y-2.85
X3.85Y-2.9
X3.85Y-3.05
X3.85Y-3.75
X3.9Y-1.7
X3.9Y-3.0
X3.9Y-3.75
X3.95Y-2.4
X3.95Y-2.45
X3.95Y-2.5
X3.95Y-2.55
X3.95Y-2.6
X3.95Y-2.65
X3.95Y-2.7
X3.95Y-2.75
X3.95Y-2.8
X3.95Y-2.85
X3.95Y-2.9
X3.95Y-2.95
X4.0Y-1.7
X4.0Y-1.8
X4.0Y-1.85
X4.0Y-1.9
X4.0Y-1.95
X4.0Y-2.0
X4.0Y-2.05
X4.0Y-2.1
X4.0Y-2.15
X4.0Y-2.2
X4.0Y-2.25
X4.0Y-2.3
X4.0Y-2.35
X4.0Y-2.4
X4.0Y-2.45
X4.0Y-2.5
X4.0Y-2.55
X4.0Y-2.6
X4.0Y-2.65
X4.0Y-2.7
X4.0Y-2.75
X4.0Y-2.8
X4.0Y-2.85
X4.0Y-2.9
X4.0Y-2.95
X4.0Y-3.0
X4.0Y-3.05
X4.0Y-3.1
X4.0Y-3.15
X4.0Y-3.2
X4.0Y-3.25
X4.0Y-3.3
X4.0Y-3.35
X4.0Y-3.4
X4.0Y-3.45
X4.0Y-3.5
X4.0Y-3.55
X4.0Y-3.6
X4.0Y-3.65
X4.0Y-3.75
T2
X3.25Y-3.05
X3.3Y-3.05
X3.35Y-3.05
T3
X3.17Y-1.83
X3.17Y-1.93
X3.17Y-2.25
X3.17Y-2.35
X3.9Y-1.83
X3.9Y-1.93
X3.9Y-2.25
X3.9Y-2.35
X2.5588Y-2.2687
X2.5588Y-2.3687
X2.5588Y-2.4687
X2.5588Y-2.5687
T4
X2.4Y-2.05
X2.4Y-2.15
X2.4Y-2.25
X2.4Y-2.35
X2.4Y-2.45
X2.4Y-2.55
X2.4Y-2.65
X2.4Y-2.75
X2.4Y-2.85
X2.4Y-2.95
X2.4Y-3.05
X2.4Y-3.15
X2.4Y-3.25
X2.4Y-3.35
X2.4Y-3.45
X3.0Y-2.05
X3.0Y-2.15
X3.0Y-2.25
X3.0Y-2.35
X3.0Y-2.45
X3.0Y-2.55
X3.0Y-2.65
X3.0Y-2.75
X3.0Y-2.85
X3.0Y-2.95
X3.0Y-3.05
X3.0Y-3.15
X3.0Y-3.25
X3.0Y-3.35
X3.0Y-3.45
T5
X3.6Y-2.85
X3.6Y-2.9591
X3.6Y-3.0681
X3.6Y-3.1772
X3.6Y-3.2862
X3.7118Y-2.9045
X3.7118Y-3.0136
X3.7118Y-3.1226
X3.7118Y-3.2317
T6
X3.2016Y-3.2531
X3.3Y-3.6469
X3.3984Y-3.2531
T7
X3.6559Y-2.576
X3.6559Y-3.5602
T0
M30
