G04 #@! TF.GenerationSoftware,KiCad,Pcbnew,5.1.5-52549c5~84~ubuntu19.10.1*
G04 #@! TF.CreationDate,2020-09-03T13:43:05+03:00*
G04 #@! TF.ProjectId,hymTracker,68796d54-7261-4636-9b65-722e6b696361,rev?*
G04 #@! TF.SameCoordinates,Original*
G04 #@! TF.FileFunction,Legend,Bot*
G04 #@! TF.FilePolarity,Positive*
%FSLAX46Y46*%
G04 Gerber Fmt 4.6, Leading zero omitted, Abs format (unit mm)*
G04 Created by KiCad (PCBNEW 5.1.5-52549c5~84~ubuntu19.10.1) date 2020-09-03 13:43:05*
%MOMM*%
%LPD*%
G04 APERTURE LIST*
%ADD10C,0.120000*%
%ADD11C,0.150000*%
G04 APERTURE END LIST*
D10*
X69490000Y-79407936D02*
X69490000Y-80612064D01*
X67670000Y-79407936D02*
X67670000Y-80612064D01*
X74675000Y-46855000D02*
X70790000Y-46855000D01*
X74675000Y-44585000D02*
X74675000Y-46855000D01*
X70790000Y-44585000D02*
X74675000Y-44585000D01*
X86720000Y-88232064D02*
X86720000Y-87027936D01*
X88540000Y-88232064D02*
X88540000Y-87027936D01*
X70210000Y-80612064D02*
X70210000Y-79407936D01*
X72030000Y-80612064D02*
X72030000Y-79407936D01*
X84487936Y-74020000D02*
X85692064Y-74020000D01*
X84487936Y-75840000D02*
X85692064Y-75840000D01*
X70452064Y-77110000D02*
X69247936Y-77110000D01*
X70452064Y-75290000D02*
X69247936Y-75290000D01*
X70452064Y-74570000D02*
X69247936Y-74570000D01*
X70452064Y-72750000D02*
X69247936Y-72750000D01*
X70452064Y-70760000D02*
X69247936Y-70760000D01*
X70452064Y-68940000D02*
X69247936Y-68940000D01*
X70452064Y-68220000D02*
X69247936Y-68220000D01*
X70452064Y-66400000D02*
X69247936Y-66400000D01*
X63835436Y-44810000D02*
X65039564Y-44810000D01*
X63835436Y-46630000D02*
X65039564Y-46630000D01*
X90329936Y-56494000D02*
X91534064Y-56494000D01*
X90329936Y-58314000D02*
X91534064Y-58314000D01*
X94393936Y-56494000D02*
X95598064Y-56494000D01*
X94393936Y-58314000D02*
X95598064Y-58314000D01*
X80920000Y-89567936D02*
X80920000Y-90772064D01*
X79100000Y-89567936D02*
X79100000Y-90772064D01*
D11*
X67287142Y-79843333D02*
X67334761Y-79795714D01*
X67382380Y-79652857D01*
X67382380Y-79557619D01*
X67334761Y-79414761D01*
X67239523Y-79319523D01*
X67144285Y-79271904D01*
X66953809Y-79224285D01*
X66810952Y-79224285D01*
X66620476Y-79271904D01*
X66525238Y-79319523D01*
X66430000Y-79414761D01*
X66382380Y-79557619D01*
X66382380Y-79652857D01*
X66430000Y-79795714D01*
X66477619Y-79843333D01*
X67382380Y-80795714D02*
X67382380Y-80224285D01*
X67382380Y-80510000D02*
X66382380Y-80510000D01*
X66525238Y-80414761D01*
X66620476Y-80319523D01*
X66668095Y-80224285D01*
X73128095Y-44522380D02*
X73128095Y-43522380D01*
X72890000Y-43522380D01*
X72747142Y-43570000D01*
X72651904Y-43665238D01*
X72604285Y-43760476D01*
X72556666Y-43950952D01*
X72556666Y-44093809D01*
X72604285Y-44284285D01*
X72651904Y-44379523D01*
X72747142Y-44474761D01*
X72890000Y-44522380D01*
X73128095Y-44522380D01*
X71604285Y-44522380D02*
X72175714Y-44522380D01*
X71890000Y-44522380D02*
X71890000Y-43522380D01*
X71985238Y-43665238D01*
X72080476Y-43760476D01*
X72175714Y-43808095D01*
X89732380Y-86987142D02*
X89256190Y-86653809D01*
X89732380Y-86415714D02*
X88732380Y-86415714D01*
X88732380Y-86796666D01*
X88780000Y-86891904D01*
X88827619Y-86939523D01*
X88922857Y-86987142D01*
X89065714Y-86987142D01*
X89160952Y-86939523D01*
X89208571Y-86891904D01*
X89256190Y-86796666D01*
X89256190Y-86415714D01*
X89732380Y-87939523D02*
X89732380Y-87368095D01*
X89732380Y-87653809D02*
X88732380Y-87653809D01*
X88875238Y-87558571D01*
X88970476Y-87463333D01*
X89018095Y-87368095D01*
X88732380Y-88558571D02*
X88732380Y-88653809D01*
X88780000Y-88749047D01*
X88827619Y-88796666D01*
X88922857Y-88844285D01*
X89113333Y-88891904D01*
X89351428Y-88891904D01*
X89541904Y-88844285D01*
X89637142Y-88796666D01*
X89684761Y-88749047D01*
X89732380Y-88653809D01*
X89732380Y-88558571D01*
X89684761Y-88463333D01*
X89637142Y-88415714D01*
X89541904Y-88368095D01*
X89351428Y-88320476D01*
X89113333Y-88320476D01*
X88922857Y-88368095D01*
X88827619Y-88415714D01*
X88780000Y-88463333D01*
X88732380Y-88558571D01*
X73222380Y-79843333D02*
X72746190Y-79510000D01*
X73222380Y-79271904D02*
X72222380Y-79271904D01*
X72222380Y-79652857D01*
X72270000Y-79748095D01*
X72317619Y-79795714D01*
X72412857Y-79843333D01*
X72555714Y-79843333D01*
X72650952Y-79795714D01*
X72698571Y-79748095D01*
X72746190Y-79652857D01*
X72746190Y-79271904D01*
X73222380Y-80319523D02*
X73222380Y-80510000D01*
X73174761Y-80605238D01*
X73127142Y-80652857D01*
X72984285Y-80748095D01*
X72793809Y-80795714D01*
X72412857Y-80795714D01*
X72317619Y-80748095D01*
X72270000Y-80700476D01*
X72222380Y-80605238D01*
X72222380Y-80414761D01*
X72270000Y-80319523D01*
X72317619Y-80271904D01*
X72412857Y-80224285D01*
X72650952Y-80224285D01*
X72746190Y-80271904D01*
X72793809Y-80319523D01*
X72841428Y-80414761D01*
X72841428Y-80605238D01*
X72793809Y-80700476D01*
X72746190Y-80748095D01*
X72650952Y-80795714D01*
X85256666Y-77032380D02*
X85590000Y-76556190D01*
X85828095Y-77032380D02*
X85828095Y-76032380D01*
X85447142Y-76032380D01*
X85351904Y-76080000D01*
X85304285Y-76127619D01*
X85256666Y-76222857D01*
X85256666Y-76365714D01*
X85304285Y-76460952D01*
X85351904Y-76508571D01*
X85447142Y-76556190D01*
X85828095Y-76556190D01*
X84685238Y-76460952D02*
X84780476Y-76413333D01*
X84828095Y-76365714D01*
X84875714Y-76270476D01*
X84875714Y-76222857D01*
X84828095Y-76127619D01*
X84780476Y-76080000D01*
X84685238Y-76032380D01*
X84494761Y-76032380D01*
X84399523Y-76080000D01*
X84351904Y-76127619D01*
X84304285Y-76222857D01*
X84304285Y-76270476D01*
X84351904Y-76365714D01*
X84399523Y-76413333D01*
X84494761Y-76460952D01*
X84685238Y-76460952D01*
X84780476Y-76508571D01*
X84828095Y-76556190D01*
X84875714Y-76651428D01*
X84875714Y-76841904D01*
X84828095Y-76937142D01*
X84780476Y-76984761D01*
X84685238Y-77032380D01*
X84494761Y-77032380D01*
X84399523Y-76984761D01*
X84351904Y-76937142D01*
X84304285Y-76841904D01*
X84304285Y-76651428D01*
X84351904Y-76556190D01*
X84399523Y-76508571D01*
X84494761Y-76460952D01*
X72556666Y-76652380D02*
X72890000Y-76176190D01*
X73128095Y-76652380D02*
X73128095Y-75652380D01*
X72747142Y-75652380D01*
X72651904Y-75700000D01*
X72604285Y-75747619D01*
X72556666Y-75842857D01*
X72556666Y-75985714D01*
X72604285Y-76080952D01*
X72651904Y-76128571D01*
X72747142Y-76176190D01*
X73128095Y-76176190D01*
X72223333Y-75652380D02*
X71556666Y-75652380D01*
X71985238Y-76652380D01*
X72556666Y-74112380D02*
X72890000Y-73636190D01*
X73128095Y-74112380D02*
X73128095Y-73112380D01*
X72747142Y-73112380D01*
X72651904Y-73160000D01*
X72604285Y-73207619D01*
X72556666Y-73302857D01*
X72556666Y-73445714D01*
X72604285Y-73540952D01*
X72651904Y-73588571D01*
X72747142Y-73636190D01*
X73128095Y-73636190D01*
X71699523Y-73112380D02*
X71890000Y-73112380D01*
X71985238Y-73160000D01*
X72032857Y-73207619D01*
X72128095Y-73350476D01*
X72175714Y-73540952D01*
X72175714Y-73921904D01*
X72128095Y-74017142D01*
X72080476Y-74064761D01*
X71985238Y-74112380D01*
X71794761Y-74112380D01*
X71699523Y-74064761D01*
X71651904Y-74017142D01*
X71604285Y-73921904D01*
X71604285Y-73683809D01*
X71651904Y-73588571D01*
X71699523Y-73540952D01*
X71794761Y-73493333D01*
X71985238Y-73493333D01*
X72080476Y-73540952D01*
X72128095Y-73588571D01*
X72175714Y-73683809D01*
X72556666Y-70302380D02*
X72890000Y-69826190D01*
X73128095Y-70302380D02*
X73128095Y-69302380D01*
X72747142Y-69302380D01*
X72651904Y-69350000D01*
X72604285Y-69397619D01*
X72556666Y-69492857D01*
X72556666Y-69635714D01*
X72604285Y-69730952D01*
X72651904Y-69778571D01*
X72747142Y-69826190D01*
X73128095Y-69826190D01*
X71651904Y-69302380D02*
X72128095Y-69302380D01*
X72175714Y-69778571D01*
X72128095Y-69730952D01*
X72032857Y-69683333D01*
X71794761Y-69683333D01*
X71699523Y-69730952D01*
X71651904Y-69778571D01*
X71604285Y-69873809D01*
X71604285Y-70111904D01*
X71651904Y-70207142D01*
X71699523Y-70254761D01*
X71794761Y-70302380D01*
X72032857Y-70302380D01*
X72128095Y-70254761D01*
X72175714Y-70207142D01*
X72556666Y-67762380D02*
X72890000Y-67286190D01*
X73128095Y-67762380D02*
X73128095Y-66762380D01*
X72747142Y-66762380D01*
X72651904Y-66810000D01*
X72604285Y-66857619D01*
X72556666Y-66952857D01*
X72556666Y-67095714D01*
X72604285Y-67190952D01*
X72651904Y-67238571D01*
X72747142Y-67286190D01*
X73128095Y-67286190D01*
X71699523Y-67095714D02*
X71699523Y-67762380D01*
X71937619Y-66714761D02*
X72175714Y-67429047D01*
X71556666Y-67429047D01*
X64604166Y-47822380D02*
X64937500Y-47346190D01*
X65175595Y-47822380D02*
X65175595Y-46822380D01*
X64794642Y-46822380D01*
X64699404Y-46870000D01*
X64651785Y-46917619D01*
X64604166Y-47012857D01*
X64604166Y-47155714D01*
X64651785Y-47250952D01*
X64699404Y-47298571D01*
X64794642Y-47346190D01*
X65175595Y-47346190D01*
X64270833Y-46822380D02*
X63651785Y-46822380D01*
X63985119Y-47203333D01*
X63842261Y-47203333D01*
X63747023Y-47250952D01*
X63699404Y-47298571D01*
X63651785Y-47393809D01*
X63651785Y-47631904D01*
X63699404Y-47727142D01*
X63747023Y-47774761D01*
X63842261Y-47822380D01*
X64127976Y-47822380D01*
X64223214Y-47774761D01*
X64270833Y-47727142D01*
X91098666Y-59506380D02*
X91432000Y-59030190D01*
X91670095Y-59506380D02*
X91670095Y-58506380D01*
X91289142Y-58506380D01*
X91193904Y-58554000D01*
X91146285Y-58601619D01*
X91098666Y-58696857D01*
X91098666Y-58839714D01*
X91146285Y-58934952D01*
X91193904Y-58982571D01*
X91289142Y-59030190D01*
X91670095Y-59030190D01*
X90717714Y-58601619D02*
X90670095Y-58554000D01*
X90574857Y-58506380D01*
X90336761Y-58506380D01*
X90241523Y-58554000D01*
X90193904Y-58601619D01*
X90146285Y-58696857D01*
X90146285Y-58792095D01*
X90193904Y-58934952D01*
X90765333Y-59506380D01*
X90146285Y-59506380D01*
X95162666Y-59506380D02*
X95496000Y-59030190D01*
X95734095Y-59506380D02*
X95734095Y-58506380D01*
X95353142Y-58506380D01*
X95257904Y-58554000D01*
X95210285Y-58601619D01*
X95162666Y-58696857D01*
X95162666Y-58839714D01*
X95210285Y-58934952D01*
X95257904Y-58982571D01*
X95353142Y-59030190D01*
X95734095Y-59030190D01*
X94210285Y-59506380D02*
X94781714Y-59506380D01*
X94496000Y-59506380D02*
X94496000Y-58506380D01*
X94591238Y-58649238D01*
X94686476Y-58744476D01*
X94781714Y-58792095D01*
X78547142Y-90003333D02*
X78594761Y-89955714D01*
X78642380Y-89812857D01*
X78642380Y-89717619D01*
X78594761Y-89574761D01*
X78499523Y-89479523D01*
X78404285Y-89431904D01*
X78213809Y-89384285D01*
X78070952Y-89384285D01*
X77880476Y-89431904D01*
X77785238Y-89479523D01*
X77690000Y-89574761D01*
X77642380Y-89717619D01*
X77642380Y-89812857D01*
X77690000Y-89955714D01*
X77737619Y-90003333D01*
X77737619Y-90384285D02*
X77690000Y-90431904D01*
X77642380Y-90527142D01*
X77642380Y-90765238D01*
X77690000Y-90860476D01*
X77737619Y-90908095D01*
X77832857Y-90955714D01*
X77928095Y-90955714D01*
X78070952Y-90908095D01*
X78642380Y-90336666D01*
X78642380Y-90955714D01*
M02*
